<svg width="275" height="147" viewBox="0 0 275 147" fill="none" xmlns="http://www.w3.org/2000/svg">
<g filter="url(#filter0_d_3340_3210)">
<path d="M-49.7779 233.32C-56.7727 233.533 -62.9848 228.88 -64.7486 222.108L-107.936 56.2892C-109.476 50.3793 -107.278 44.1262 -102.38 40.4784L43.7297 -68.3402C49.0584 -72.309 56.3632 -72.2991 61.6813 -68.3161L193.358 30.304C198.676 34.2871 200.74 41.2941 198.43 47.5241L135.103 218.344C132.981 224.07 127.598 227.937 121.494 228.123L-49.7779 233.32Z" fill="#7C320C"/>
</g>
<path d="M34.8675 -14.2656C35.6351 -14.5163 36.4068 -14.7612 37.1825 -15H126.818C127.593 -14.7612 128.365 -14.5163 129.133 -14.2656H34.8675Z" fill="white" fill-opacity="0.25"/>
<path d="M16.8306 -6.92116C17.3306 -7.16875 17.8332 -7.41357 18.3383 -7.6556H145.662C146.167 -7.41357 146.669 -7.16875 147.169 -6.92116H16.8306Z" fill="white" fill-opacity="0.25"/>
<path d="M3.96661 0.423237C4.34332 0.176665 4.72204 -0.0681524 5.10276 -0.311203H158.897C159.278 -0.0681524 159.657 0.176665 160.033 0.423237H3.96661Z" fill="white" fill-opacity="0.25"/>
<path d="M-6.03039 7.76764C-5.7318 7.52156 -5.43147 7.27675 -5.12941 7.0332H169.129C169.431 7.27675 169.732 7.52156 170.03 7.76764H-6.03039Z" fill="white" fill-opacity="0.25"/>
<path d="M-14.057 15.112C-13.8156 14.8663 -13.5726 14.6214 -13.328 14.3776H177.328C177.573 14.6214 177.816 14.8663 178.057 15.112H-14.057Z" fill="white" fill-opacity="0.25"/>
<path d="M-20.5718 22.4564C-20.3759 22.2109 -20.1785 21.966 -19.9797 21.722H183.98C184.179 21.966 184.376 22.2109 184.572 22.4564H-20.5718Z" fill="white" fill-opacity="0.25"/>
<path d="M-25.844 29.8008C-25.6864 29.5554 -25.5275 29.3106 -25.3672 29.0664H189.367C189.528 29.3106 189.686 29.5554 189.844 29.8008H-25.844Z" fill="white" fill-opacity="0.25"/>
<path d="M-30.0452 37.1452C-29.9213 36.8999 -29.7962 36.6551 -29.6697 36.4108H193.67C193.796 36.6551 193.921 36.8999 194.045 37.1452H-30.0452Z" fill="white" fill-opacity="0.25"/>
<path d="M-33.2904 44.4896C-33.197 44.2444 -33.1024 43.9996 -33.0064 43.7552H197.006C197.102 43.9996 197.197 44.2444 197.29 44.4896H-33.2904Z" fill="white" fill-opacity="0.25"/>
<path d="M-35.6587 51.834C-35.5936 51.5889 -35.5272 51.344 -35.4596 51.0996H199.46C199.527 51.344 199.594 51.5889 199.659 51.834H-35.6587Z" fill="white" fill-opacity="0.25"/>
<path d="M-37.2048 59.1784C-37.1664 58.9333 -37.1268 58.6885 -37.086 58.444H201.086C201.127 58.6885 201.166 58.9333 201.205 59.1784H-37.2048Z" fill="white" fill-opacity="0.25"/>
<path d="M-37.966 66.5228C-37.9534 66.2778 -37.9395 66.0329 -37.9244 65.7884H201.924C201.94 66.0329 201.953 66.2778 201.966 66.5228H-37.966Z" fill="white" fill-opacity="0.25"/>
<path d="M-37.966 73.8672C-37.9786 73.6227 -37.9899 73.3778 -38 73.1328H202C201.99 73.3778 201.979 73.6227 201.966 73.8672H-37.966Z" fill="white" fill-opacity="0.25"/>
<path d="M-37.2048 81.2116C-37.243 80.9671 -37.28 80.7223 -37.3157 80.4772H201.316C201.28 80.7223 201.243 80.9671 201.205 81.2116H-37.2048Z" fill="white" fill-opacity="0.25"/>
<path d="M-35.6587 88.556C-35.7236 88.3116 -35.7872 88.0667 -35.8495 87.8216H199.85C199.787 88.0667 199.724 88.3116 199.659 88.556H-35.6587Z" fill="white" fill-opacity="0.25"/>
<path d="M-33.2904 95.9004C-33.3834 95.656 -33.4752 95.4112 -33.5656 95.166H197.566C197.475 95.4112 197.383 95.656 197.29 95.9004H-33.2904Z" fill="white" fill-opacity="0.25"/>
<path d="M-30.0452 103.245C-30.1685 103.001 -30.2905 102.756 -30.4112 102.51H194.411C194.291 102.756 194.169 103.001 194.045 103.245H-30.0452Z" fill="white" fill-opacity="0.25"/>
<path d="M-25.844 110.589C-26.0007 110.345 -26.1561 110.1 -26.31 109.855H190.31C190.156 110.1 190.001 110.345 189.844 110.589H-25.844Z" fill="white" fill-opacity="0.25"/>
<path d="M-20.5718 117.934C-20.7665 117.69 -20.9597 117.445 -21.1515 117.199H185.152C184.96 117.445 184.766 117.69 184.572 117.934H-20.5718Z" fill="white" fill-opacity="0.25"/>
<path d="M-14.057 125.278C-14.2966 125.034 -14.5346 124.789 -14.7711 124.544H178.771C178.535 124.789 178.297 125.034 178.057 125.278H-14.057Z" fill="white" fill-opacity="0.25"/>
<path d="M-6.03039 132.622C-6.32597 132.379 -6.61983 132.134 -6.91198 131.888H170.912C170.62 132.134 170.326 132.379 170.03 132.622H-6.03039Z" fill="white" fill-opacity="0.25"/>
<path d="M3.96661 139.967C3.59519 139.724 3.22573 139.479 2.85826 139.232H161.142C160.774 139.479 160.405 139.724 160.033 139.967H3.96661Z" fill="white" fill-opacity="0.25"/>
<path d="M16.8306 147.311C16.3414 147.069 15.8548 146.824 15.3706 146.577H148.629C148.145 146.824 147.659 147.069 147.169 147.311H16.8306Z" fill="white" fill-opacity="0.25"/>
<path d="M34.8675 154.656C34.1346 154.416 33.4056 154.171 32.6803 153.921H131.32C130.594 154.171 129.865 154.416 129.133 154.656H34.8675Z" fill="white" fill-opacity="0.25"/>
<path d="M97.2589 161.266C92.2619 161.75 87.1691 162 82 162C76.8309 162 71.7381 161.75 66.7411 161.266H97.2589Z" fill="white" fill-opacity="0.25"/>
<path d="M146.367 162.808H43.3312L52.8999 25.9456H155.94L146.367 162.808Z" fill="#FFA31A"/>
<g opacity="0.1">
<path d="M146.367 162.808H43.3312L52.8999 25.9456H155.94L146.367 162.808Z" fill="black"/>
</g>
<path d="M143.844 162.808H40.8038L50.3766 25.9456H153.413L143.844 162.808Z" fill="#FFA31A"/>
<path d="M139.154 154.706L48.1196 155.865L55.1692 32.5691L146.208 31.4099L139.154 154.706Z" fill="#EBEBEB"/>
<path d="M136.921 156.258L46.1207 154.296L57.4017 31.0208L148.202 32.9787L136.921 156.258Z" fill="#DBDBDB"/>
<path d="M138.331 155.292H47.3701L55.9926 31.9875H146.953L138.331 155.292Z" fill="white"/>
<path d="M74.9622 70.877H65.8809L66.5158 61.7957H75.5971L74.9622 70.877Z" fill="#EBEBEB"/>
<path d="M109.829 63.1269H80.406L80.5002 61.7957H109.923L109.829 63.1269Z" fill="#263238"/>
<path d="M131.99 65.7077H80.2258L80.32 64.3765H132.08L131.99 65.7077Z" fill="#EBEBEB"/>
<path d="M131.805 68.2922H80.0455L80.1397 66.9609H131.899L131.805 68.2922Z" fill="#EBEBEB"/>
<path d="M131.625 70.8769H79.8653L79.9595 69.5457H131.719L131.625 70.8769Z" fill="#EBEBEB"/>
<path d="M66.9008 65.8838C67.2162 66.1623 67.5152 66.4573 67.8101 66.7481C68.105 67.0389 68.3877 67.3461 68.6785 67.6452C69.2479 68.2514 69.7927 68.874 70.317 69.5007L69.2684 69.5704C70.2182 67.85 71.2787 66.193 72.4429 64.6099C73.0287 63.8152 73.639 63.041 74.2862 62.2873C74.938 61.5246 75.6357 60.8023 76.3753 60.1245C76.0359 61.0587 75.6336 61.9688 75.171 62.8485C74.7245 63.7251 74.2371 64.5771 73.7209 65.4127C72.6913 67.0898 71.5528 68.6976 70.3129 70.2258L69.6903 70.9877L69.2807 70.2913C68.871 69.5827 68.4286 68.8699 68.0518 68.1367C67.8552 67.7639 67.6422 67.4035 67.466 67.0266C67.2899 66.6498 67.0687 66.2524 66.9008 65.8838Z" fill="#FFC727"/>
<path d="M73.7743 87.856H64.693L65.3279 78.7747H74.4092L73.7743 87.856Z" fill="#EBEBEB"/>
<path d="M108.641 80.1059H79.2181L79.3123 78.7747H108.735L108.641 80.1059Z" fill="#263238"/>
<path d="M130.802 82.6904H79.0378L79.1321 81.3591H130.892L130.802 82.6904Z" fill="#EBEBEB"/>
<path d="M130.621 85.2751H78.8576L78.9518 83.9438H130.712L130.621 85.2751Z" fill="#EBEBEB"/>
<path d="M130.441 87.8557H78.6774L78.7716 86.5286H130.531L130.441 87.8557Z" fill="#EBEBEB"/>
<path d="M65.7129 82.8462C66.0283 83.1247 66.3273 83.4156 66.6223 83.7105C66.9172 84.0054 67.1998 84.3085 67.4906 84.6076C68.06 85.2138 68.6048 85.8364 69.1291 86.4631L68.0846 86.5287C69.0325 84.8071 70.093 83.15 71.2592 81.5682C71.8408 80.7776 72.4512 80.0034 73.0984 79.2497C73.7491 78.4861 74.4468 77.7637 75.1874 77.0869C74.8462 78.0197 74.4453 78.9296 73.9872 79.8109C73.5367 80.6875 73.0492 81.5395 72.5331 82.3751C71.5062 84.0498 70.3719 85.6561 69.1373 87.1841L68.5147 87.946L68.1051 87.2496C67.6709 86.541 67.249 85.8241 66.8516 85.0909C66.655 84.7223 66.442 84.3577 66.2659 83.9849C66.0897 83.6122 65.8808 83.2353 65.7129 82.8462Z" fill="#FFC727"/>
<path d="M72.5864 104.839H63.5051L64.14 95.7573H73.2213L72.5864 104.839Z" fill="#EBEBEB"/>
<path d="M107.453 97.0886H78.0302L78.1244 95.7573H107.547L107.453 97.0886Z" fill="#263238"/>
<path d="M129.614 99.6733H77.8499L77.9441 98.342H129.708L129.614 99.6733Z" fill="#EBEBEB"/>
<path d="M129.434 102.254H77.6697L77.7639 100.927H129.528L129.434 102.254Z" fill="#EBEBEB"/>
<path d="M129.253 104.839H77.4895L77.5837 103.507H129.343L129.253 104.839Z" fill="#EBEBEB"/>
<path d="M64.525 99.8289C64.8404 100.107 65.1394 100.398 65.4343 100.693C65.7293 100.988 66.0119 101.291 66.3027 101.59C66.8721 102.192 67.4169 102.819 67.9412 103.446L66.8967 103.511C67.8487 101.79 68.9119 100.133 70.0794 98.5508C70.6611 97.7603 71.2714 96.982 71.9186 96.2324C72.5694 95.4687 73.2671 94.7464 74.0077 94.0696C73.6672 95.0013 73.2663 95.9099 72.8075 96.7895C72.3569 97.6661 71.8695 98.5222 71.3533 99.3578C70.3251 101.034 69.1865 102.641 67.9453 104.167L67.3227 104.929L66.9131 104.236C66.4789 103.528 66.0569 102.811 65.6596 102.078C65.4671 101.709 65.25 101.344 65.0739 100.968C64.8977 100.591 64.6929 100.218 64.525 99.8289Z" fill="#FFC727"/>
<path d="M71.3984 121.822H62.3171L62.9521 112.74H72.0334L71.3984 121.822Z" fill="#EBEBEB"/>
<path d="M106.265 114.072H76.8423L76.9365 112.74H106.36L106.265 114.072Z" fill="#263238"/>
<path d="M128.426 116.652H76.662L76.7563 115.321H128.52L128.426 116.652Z" fill="#EBEBEB"/>
<path d="M128.246 119.237H76.4818L76.576 117.906H128.34L128.246 119.237Z" fill="#EBEBEB"/>
<path d="M128.065 121.822H76.3016L76.3958 120.49H128.16L128.065 121.822Z" fill="#EBEBEB"/>
<path d="M70.2105 138.8H61.1292L61.7641 129.723H70.8454L70.2105 138.8Z" fill="#EBEBEB"/>
<path d="M105.077 131.05H75.6584L75.7486 129.723H105.172L105.077 131.05Z" fill="#263238"/>
<path d="M127.238 133.635H75.4782L75.5683 132.304H127.332L127.238 133.635Z" fill="#EBEBEB"/>
<path d="M127.058 136.22H75.2939L75.3882 134.888H127.152L127.058 136.22Z" fill="#EBEBEB"/>
<path d="M126.878 138.801H75.1137L75.2079 137.469H126.972L126.878 138.801Z" fill="#EBEBEB"/>
<path d="M84.5473 46.4022C85.0729 46.3985 85.5837 46.5765 85.9932 46.906C86.0104 46.92 86.0247 46.9372 86.0353 46.9567C86.0458 46.9762 86.0524 46.9976 86.0547 47.0197C86.057 47.0417 86.0549 47.064 86.0486 47.0853C86.0422 47.1066 86.0318 47.1264 86.0178 47.1436C86.0038 47.1608 85.9866 47.1751 85.9671 47.1856C85.9476 47.1962 85.9262 47.2028 85.9041 47.2051C85.882 47.2073 85.8597 47.2053 85.8385 47.1989C85.8172 47.1926 85.7974 47.1821 85.7802 47.1681C85.4256 46.8779 84.981 46.72 84.5227 46.7217C83.9693 46.7216 83.4361 46.929 83.0281 47.3028C82.6201 47.6767 82.3671 48.1898 82.3189 48.7411C82.301 49.0018 82.338 49.2633 82.4275 49.5088C82.5169 49.7542 82.6569 49.9782 82.8384 50.1662C83.0198 50.3542 83.2387 50.5021 83.4808 50.6002C83.723 50.6983 83.983 50.7446 84.2441 50.7359C84.7163 50.7386 85.1755 50.5812 85.5467 50.2895C85.5634 50.2757 85.5828 50.2656 85.6037 50.26C85.6246 50.2543 85.6464 50.2532 85.6678 50.2567C85.6891 50.2602 85.7094 50.2682 85.7274 50.2802C85.7454 50.2922 85.7606 50.308 85.772 50.3263C85.7861 50.3431 85.7964 50.3626 85.8024 50.3836C85.8084 50.4046 85.8099 50.4267 85.8068 50.4483C85.8037 50.47 85.7961 50.4907 85.7845 50.5092C85.7728 50.5277 85.7574 50.5436 85.7393 50.5557C85.2988 50.8798 84.7664 51.0549 84.2196 51.0555C83.9172 51.0648 83.6162 51.0106 83.3361 50.8964C83.056 50.7822 82.803 50.6105 82.5933 50.3924C82.3837 50.1742 82.2222 49.9146 82.1192 49.6302C82.0162 49.3457 81.974 49.0428 81.9953 48.7411C82.0534 48.1036 82.3471 47.5107 82.819 47.0782C83.2909 46.6456 83.9071 46.4046 84.5473 46.4022Z" fill="#263238"/>
<path d="M89.9215 48.9171H87.5621L87.4228 50.8997C87.4178 50.9427 87.397 50.9824 87.3645 51.0112C87.332 51.0399 87.2901 51.0556 87.2467 51.0553C87.2268 51.0554 87.2071 51.0513 87.1888 51.0433C87.1706 51.0354 87.1542 51.0237 87.1407 51.0091C87.1272 50.9944 87.1169 50.9771 87.1105 50.9583C87.104 50.9395 87.1016 50.9195 87.1033 50.8997L87.4023 46.6232C87.4054 46.5808 87.4245 46.5412 87.4557 46.5123C87.4868 46.4834 87.5278 46.4674 87.5703 46.4676C87.5909 46.4663 87.6115 46.4695 87.6307 46.4769C87.6499 46.4844 87.6674 46.4959 87.6817 46.5106C87.6961 46.5254 87.7072 46.5431 87.7141 46.5625C87.721 46.582 87.7236 46.6027 87.7218 46.6232L87.5826 48.6017H89.9461L90.0813 46.6232C90.0861 46.5815 90.1057 46.5429 90.1365 46.5144C90.1673 46.4858 90.2072 46.4692 90.2492 46.4676C90.27 46.4664 90.2907 46.4696 90.3102 46.477C90.3296 46.4844 90.3472 46.4958 90.3619 46.5105C90.3766 46.5252 90.388 46.5428 90.3954 46.5623C90.4028 46.5817 90.406 46.6025 90.4049 46.6232L90.1058 50.8997C90.1 50.9424 90.079 50.9816 90.0466 51.0101C90.0143 51.0387 89.9728 51.0547 89.9297 51.0553C89.9096 51.0553 89.8898 51.0513 89.8713 51.0434C89.8529 51.0354 89.8362 51.0238 89.8224 51.0093C89.8086 50.9947 89.7979 50.9775 89.791 50.9586C89.7841 50.9398 89.7811 50.9197 89.7822 50.8997L89.9215 48.9171Z" fill="#263238"/>
<path d="M92.0475 46.6315C92.0515 46.5895 92.0708 46.5504 92.1018 46.5217C92.1327 46.493 92.1732 46.4767 92.2154 46.4759H94.5748C94.5952 46.4745 94.6157 46.4777 94.6348 46.4852C94.6539 46.4926 94.671 46.5042 94.6851 46.5191C94.6992 46.5339 94.7098 46.5517 94.7163 46.5712C94.7227 46.5906 94.7247 46.6112 94.7223 46.6315C94.7202 46.675 94.7017 46.7161 94.6706 46.7465C94.6394 46.7769 94.5979 46.7944 94.5543 46.7954H92.3588L92.2318 48.61H94.1529C94.1734 48.6105 94.1936 48.6152 94.2121 48.6238C94.2307 48.6325 94.2472 48.6449 94.2607 48.6603C94.2742 48.6758 94.2843 48.6938 94.2905 48.7134C94.2966 48.7329 94.2986 48.7535 94.2963 48.7739C94.2932 48.8166 94.2743 48.8567 94.2433 48.8863C94.2122 48.9158 94.1712 48.9327 94.1283 48.9336H92.199L92.072 50.7441H94.2717C94.2924 50.7439 94.3129 50.7482 94.3317 50.7566C94.3506 50.7651 94.3675 50.7775 94.3811 50.7931C94.3947 50.8087 94.4048 50.827 94.4106 50.8468C94.4165 50.8667 94.418 50.8875 94.4151 50.908C94.412 50.9504 94.3929 50.99 94.3617 51.0189C94.3306 51.0478 94.2896 51.0638 94.2471 51.0637H91.8754C91.837 51.0605 91.8014 51.0425 91.7761 51.0134C91.7508 50.9843 91.738 50.9465 91.7402 50.908L92.0475 46.6315Z" fill="#263238"/>
<path d="M98.1344 46.4021C98.6598 46.3998 99.1701 46.5776 99.5803 46.906C99.5957 46.9208 99.6079 46.9387 99.6162 46.9584C99.6246 46.9781 99.6289 46.9993 99.6289 47.0206C99.6289 47.042 99.6246 47.0632 99.6162 47.0829C99.6079 47.1026 99.5957 47.1204 99.5803 47.1353C99.5682 47.1529 99.5525 47.1677 99.5344 47.179C99.5162 47.1902 99.4959 47.1976 99.4748 47.2007C99.4537 47.2038 99.4321 47.2025 99.4115 47.1969C99.3909 47.1913 99.3717 47.1815 99.355 47.1681C99.0023 46.8772 98.5588 46.7192 98.1016 46.7216C97.5481 46.7224 97.0148 46.93 96.6064 47.3035C96.1979 47.6771 95.9438 48.1898 95.8937 48.7411C95.8771 49.0018 95.9151 49.2631 96.0052 49.5083C96.0954 49.7535 96.2358 49.9772 96.4174 50.165C96.5991 50.3527 96.8179 50.5005 97.06 50.5989C97.302 50.6972 97.5619 50.7439 97.8231 50.7359C98.2952 50.7386 98.7544 50.5812 99.1257 50.2894C99.1423 50.2756 99.1618 50.2656 99.1826 50.26C99.2035 50.2543 99.2253 50.2532 99.2467 50.2567C99.268 50.2602 99.2884 50.2682 99.3063 50.2802C99.3243 50.2922 99.3395 50.3079 99.3509 50.3263C99.3648 50.3433 99.3749 50.3631 99.3806 50.3842C99.3863 50.4054 99.3874 50.4276 99.3839 50.4492C99.3804 50.4709 99.3724 50.4916 99.3604 50.5099C99.3483 50.5283 99.3326 50.5439 99.3141 50.5557C98.8754 50.8803 98.3442 51.0554 97.7985 51.0554C97.4961 51.0648 97.1952 51.0106 96.915 50.8964C96.6349 50.7821 96.3819 50.6104 96.1723 50.3923C95.9627 50.1742 95.8011 49.9146 95.6981 49.6301C95.5951 49.3457 95.5529 49.0428 95.5742 48.7411C95.6316 48.1018 95.9261 47.5072 96.4 47.0743C96.8738 46.6414 97.4926 46.4016 98.1344 46.4021Z" fill="#263238"/>
<path d="M100.985 46.6314C100.987 46.588 101.006 46.5469 101.037 46.5165C101.068 46.486 101.11 46.4686 101.153 46.4676C101.175 46.467 101.196 46.4708 101.216 46.4789C101.235 46.487 101.253 46.4992 101.268 46.5147C101.282 46.5302 101.294 46.5486 101.301 46.5687C101.308 46.5888 101.311 46.6102 101.309 46.6314L101.121 49.2858L104.09 46.5127C104.12 46.485 104.16 46.4697 104.201 46.4697C104.242 46.4697 104.281 46.485 104.311 46.5127C104.327 46.5276 104.339 46.5454 104.347 46.5651C104.356 46.5848 104.36 46.606 104.36 46.6274C104.36 46.6487 104.356 46.6699 104.347 46.6896C104.339 46.7093 104.327 46.7272 104.311 46.742L102.431 48.4993L104.07 50.7809C104.092 50.818 104.099 50.8619 104.091 50.9042C104.083 50.9464 104.059 50.9842 104.025 51.0103C103.994 51.0333 103.956 51.0449 103.918 51.0431C103.896 51.0445 103.873 51.04 103.853 51.0299C103.833 51.0199 103.816 51.0046 103.804 50.9857L102.165 48.7287L101.084 49.7405L101.006 50.8874C101.001 50.9305 100.98 50.9702 100.948 50.9989C100.915 51.0276 100.873 51.0434 100.83 51.0431C100.81 51.0431 100.79 51.039 100.771 51.0311C100.753 51.0232 100.736 51.0116 100.722 50.997C100.709 50.9824 100.698 50.9652 100.691 50.9464C100.684 50.9275 100.681 50.9075 100.682 50.8874L100.985 46.6314Z" fill="#263238"/>
<path d="M105.532 51.0553C105.512 51.0554 105.492 51.0513 105.474 51.0434C105.455 51.0355 105.439 51.0239 105.425 51.0093C105.411 50.9947 105.4 50.9775 105.393 50.9586C105.387 50.9398 105.384 50.9197 105.385 50.8997L105.684 46.6232C105.689 46.5809 105.709 46.5417 105.74 46.5131C105.772 46.4845 105.813 46.4683 105.856 46.4676C105.876 46.467 105.896 46.4706 105.915 46.4783C105.934 46.486 105.951 46.4975 105.966 46.5121C105.98 46.5268 105.991 46.5442 105.998 46.5633C106.005 46.5824 106.008 46.6029 106.007 46.6232L105.721 50.7195H107.916C107.937 50.7187 107.958 50.7226 107.978 50.7307C107.997 50.7389 108.015 50.7512 108.029 50.7667C108.044 50.7822 108.055 50.8007 108.061 50.8208C108.068 50.841 108.07 50.8623 108.068 50.8833C108.063 50.9264 108.042 50.9661 108.009 50.9948C107.977 51.0235 107.935 51.0393 107.892 51.039L105.532 51.0553Z" fill="#263238"/>
<path d="M109.44 46.6315C109.445 46.5898 109.464 46.5512 109.495 46.5226C109.526 46.4941 109.566 46.4775 109.608 46.4758C109.629 46.4746 109.649 46.4779 109.669 46.4853C109.688 46.4927 109.706 46.5041 109.721 46.5188C109.735 46.5335 109.747 46.5511 109.754 46.5705C109.762 46.59 109.765 46.6107 109.764 46.6315L109.465 50.9079C109.459 50.951 109.439 50.9907 109.406 51.0194C109.374 51.0482 109.332 51.0639 109.288 51.0636C109.268 51.0636 109.248 51.0596 109.23 51.0516C109.212 51.0437 109.195 51.0321 109.181 51.0175C109.167 51.003 109.157 50.9857 109.15 50.9669C109.143 50.948 109.14 50.928 109.141 50.9079L109.44 46.6315Z" fill="#263238"/>
<path d="M110.935 50.1951C110.948 50.1809 110.964 50.1696 110.982 50.1619C110.999 50.1542 111.018 50.1502 111.037 50.1502C111.057 50.1502 111.076 50.1542 111.093 50.1619C111.111 50.1696 111.127 50.1809 111.14 50.1951C111.546 50.5547 112.064 50.7631 112.606 50.7849C112.973 50.7903 113.333 50.6846 113.639 50.4818C113.759 50.4093 113.86 50.3103 113.936 50.1925C114.012 50.0747 114.06 49.9411 114.077 49.8018C114.087 49.6766 114.061 49.5511 114.003 49.4395C113.945 49.328 113.857 49.235 113.749 49.171C113.432 48.9789 113.08 48.8522 112.713 48.7983C112.337 48.7436 111.977 48.611 111.656 48.4091C111.519 48.3233 111.409 48.2014 111.336 48.057C111.264 47.9125 111.233 47.7509 111.246 47.5899C111.265 47.4153 111.323 47.2472 111.416 47.0983C111.509 46.9493 111.634 46.8233 111.783 46.7297C112.118 46.508 112.512 46.3924 112.914 46.3979C113.418 46.4231 113.902 46.6081 114.294 46.9263C114.309 46.9379 114.322 46.9525 114.332 46.9692C114.341 46.9859 114.347 47.0044 114.35 47.0235C114.352 47.0426 114.35 47.062 114.345 47.0805C114.34 47.099 114.331 47.1162 114.319 47.1311C114.297 47.1626 114.264 47.1845 114.226 47.1921C114.189 47.1998 114.15 47.1926 114.118 47.1721C113.771 46.8821 113.34 46.7113 112.889 46.6846C112.551 46.6808 112.219 46.7762 111.935 46.9591C111.824 47.027 111.729 47.1189 111.658 47.2281C111.587 47.3372 111.542 47.4609 111.525 47.5899C111.52 47.7016 111.545 47.8127 111.598 47.9109C111.652 48.0091 111.731 48.0908 111.828 48.147C112.12 48.3279 112.446 48.4465 112.787 48.4952C113.19 48.5523 113.578 48.6917 113.925 48.9048C114.071 48.9961 114.188 49.1251 114.266 49.2779C114.344 49.4308 114.379 49.602 114.368 49.7732C114.345 49.9598 114.281 50.139 114.181 50.2978C114.08 50.4565 113.945 50.5908 113.786 50.6907C113.43 50.9284 113.01 51.0539 112.582 51.0512C111.976 51.0218 111.399 50.7878 110.943 50.3876C110.92 50.3611 110.907 50.3277 110.906 50.2928C110.904 50.2578 110.915 50.2234 110.935 50.1951Z" fill="#263238"/>
<path d="M116.842 46.7871H115.461C115.441 46.7872 115.42 46.783 115.401 46.7745C115.382 46.7661 115.365 46.7538 115.351 46.7383C115.337 46.7228 115.326 46.7046 115.32 46.6847C115.314 46.6649 115.312 46.644 115.314 46.6233C115.317 46.5809 115.336 46.5413 115.367 46.5124C115.398 46.4835 115.439 46.4675 115.482 46.4676H118.562C118.582 46.4669 118.603 46.4706 118.621 46.4783C118.64 46.486 118.657 46.4976 118.671 46.5123C118.685 46.527 118.695 46.5445 118.702 46.5636C118.709 46.5827 118.711 46.6031 118.71 46.6233C118.708 46.6668 118.689 46.7078 118.658 46.7383C118.627 46.7687 118.585 46.7861 118.542 46.7871H117.157L116.87 50.8833C116.866 50.9254 116.847 50.9644 116.816 50.9931C116.785 51.0218 116.745 51.0382 116.703 51.039C116.682 51.039 116.663 51.0349 116.644 51.027C116.626 51.0191 116.609 51.0075 116.595 50.9929C116.581 50.9784 116.571 50.9611 116.564 50.9423C116.557 50.9234 116.554 50.9034 116.555 50.8833L116.842 46.7871Z" fill="#263238"/>
<path d="M123.457 37.0711H78.7798L79.7301 23.4512H124.407L123.457 37.0711Z" fill="#C7C7C7"/>
<path d="M116.252 16H88.5124L86.7715 23.4469H117.366L116.252 16ZM102.214 21.3578C102.004 21.361 101.794 21.3198 101.601 21.237C101.407 21.1541 101.233 21.0315 101.09 20.877C100.946 20.7225 100.837 20.5396 100.769 20.3402C100.701 20.1407 100.676 19.9292 100.695 19.7194C100.73 19.2777 100.929 18.8651 101.252 18.5621C101.576 18.2592 102.001 18.0876 102.444 18.0809C102.654 18.0777 102.863 18.1189 103.057 18.2017C103.251 18.2846 103.425 18.4072 103.568 18.5617C103.712 18.7162 103.821 18.8991 103.889 19.0986C103.957 19.298 103.982 19.5095 103.963 19.7194C103.93 20.1617 103.731 20.5754 103.407 20.8787C103.084 21.182 102.658 21.353 102.214 21.3578Z" fill="#C7C7C7"/>
<path d="M117.366 23.4469H86.7715L87.1647 21.7798H117.116L117.366 23.4469Z" fill="#A6A6A6"/>
<path d="M31.1409 63.9666C31.7471 68.4724 35.1183 79.2291 37.6334 79.9131C39.9764 80.5481 50.2743 77.48 51.6015 75.436C52.3101 74.3423 55.116 64.2943 53.8585 64.8964C52.2691 65.6542 40.6113 71.5487 40.1321 71.4299C39.1203 71.1759 37.1459 67.1862 35.4378 64.9579C31.7184 60.0916 30.8541 61.8529 31.1409 63.9666Z" fill="#EB9481"/>
<path d="M38.174 68.4562L32.894 73.2939C32.894 73.2939 31.0262 66.3835 30.8132 63.1844C30.6001 59.9853 33.2135 60.3498 38.174 68.4562Z" fill="#263238"/>
<path d="M16.5461 114.309C16.5461 114.309 10.9629 123.145 5.24872 118.848C-0.465495 114.551 6.47759 106.735 6.47759 106.735L16.5461 114.309Z" fill="#EB9481"/>
<path d="M6.21598 107.061L16.2959 114.634L60.4438 55.8775L50.3639 48.3038L6.21598 107.061Z" fill="#FFD246"/>
<path d="M5.13081 106.742L16.9005 115.586L18.6549 113.251L6.88522 104.407L5.13081 106.742Z" fill="#37474F"/>
<path d="M7.07082 104.162L18.8405 113.005L20.5949 110.67L8.82522 101.827L7.07082 104.162Z" fill="#37474F"/>
<path d="M50.3603 48.3067L59.6055 43.9033L62.6449 42.4409L62.1083 45.7875L60.4698 55.8888L58.3479 56.5851C58.3479 56.5851 58.4544 54.41 58.4503 54.3732L56.3285 55.0695C56.3285 55.0695 56.4391 52.8945 56.4309 52.8535L54.3337 53.5703C54.3337 53.5703 54.4197 51.3789 54.4156 51.3379L52.3142 52.0547C52.3142 52.0547 52.4002 49.8632 52.3961 49.8223L50.2989 50.535C50.2989 50.535 50.3685 48.3436 50.3603 48.3067Z" fill="#EBEBEB"/>
<path d="M59.6054 43.9033L62.6448 42.4409L62.1082 45.7875L59.6054 43.9033Z" fill="#37474F"/>
<g opacity="0.1">
<path d="M20.6505 103.843C23.3827 100.063 26.1518 96.3145 28.929 92.5665L37.3098 81.3551L45.748 70.2012L49.9794 64.6549L54.26 59.125L50.1392 64.7778L45.9856 70.3896L37.6211 81.6009L29.1789 92.7549C26.3525 96.4606 23.5097 100.157 20.6505 103.843Z" fill="black"/>
<path d="M17.8528 102.074C20.585 98.297 23.354 94.5448 26.1271 90.7968L34.4957 79.5855L42.9339 68.4315L47.1817 62.877L51.4622 57.343L47.3414 63.0163L43.1879 68.6404L34.8193 79.8517L26.3811 91.0057C23.5506 94.6923 20.7201 98.3994 17.8528 102.074Z" fill="black"/>
<path d="M15.051 100.292C17.7873 96.5111 20.5563 92.7631 23.3294 89.015L31.6939 77.8037L40.1362 66.6497L44.384 61.0912L48.6645 55.5613L44.5437 61.2141L40.3861 66.8382L32.0216 78.0495L23.5793 89.2321C20.7529 92.9187 17.9224 96.6299 15.051 100.292Z" fill="black"/>
</g>
<path d="M54.862 64.5321C55.0095 66.0968 56.0008 68.3334 55.7386 69.4721C55.683 69.7549 55.5378 70.0123 55.3247 70.2063C55.1115 70.4003 54.8416 70.5206 54.5548 70.5494C54.5548 70.5494 55.4437 71.4875 55.0341 72.4787C54.8211 72.9908 53.8052 73.1014 53.8052 73.1014C53.9941 73.3247 54.1181 73.5956 54.1636 73.8845C54.2091 74.1734 54.1744 74.4693 54.0633 74.7399C53.7315 75.4239 52.7771 75.4321 52.7771 75.4321C52.7771 75.4321 53.0802 76.4889 52.5149 77.0706C51.3721 78.2626 45.2155 76.0302 45.0885 73.4168C45.0311 72.1879 46.5058 72.8269 46.5058 72.8269C46.5058 72.8269 44.601 71.4137 45.0311 70.1316C45.4612 68.8495 47.325 69.7834 47.325 69.7834C47.325 69.7834 45.494 68.3948 46.0716 67.1127C46.6491 65.8306 48.3818 67.0308 48.3818 67.0308C48.3818 67.0308 47.3496 65.6053 48.0173 64.7246C49.1191 63.2705 50.9624 66.2689 52.4289 66.4409L53.9855 64.4829L54.862 64.5321Z" fill="#EB9481"/>
<path d="M55.3904 66.9199C55.3904 65.4248 57.5983 64.3925 57.7908 62.963C58.0571 61.0296 55.3986 62.0536 54.0018 64.495L53.2522 66.5799L55.3904 66.9199Z" fill="#EB9481"/>
<path d="M52.6418 75.4606C52.6418 75.4606 52.6418 75.4975 52.6418 75.4934C50.3503 75.2518 48.1869 74.3173 46.4402 72.8145C46.3869 72.7653 46.4402 72.6547 46.5098 72.6998C48.4096 73.9116 50.4751 74.8416 52.6418 75.4606Z" fill="#263238"/>
<path d="M53.8462 73.1259C53.8708 73.1259 53.8462 73.171 53.8462 73.171C51.3217 72.8771 48.9854 71.6901 47.2595 69.8244C47.2022 69.7588 47.2186 69.64 47.2923 69.7097C48.5089 70.9221 51.8022 72.5729 53.8462 73.1259Z" fill="#263238"/>
<path d="M48.3163 66.8587C50.0204 68.6651 52.134 69.7465 54.4607 70.5453C54.4893 70.5453 54.4607 70.5986 54.4607 70.5986C53.2318 70.5166 51.7858 69.8571 50.7167 69.2468C49.7094 68.6995 48.8623 67.899 48.259 66.9242C48.2303 66.8792 48.2836 66.8218 48.3163 66.8587Z" fill="#263238"/>
<path d="M24.7385 86.6311C24.7385 86.6311 28.6913 125.729 28.7856 126.225C28.7856 126.291 28.8265 127.044 28.8634 128.273C29.0764 135.003 29.6048 155.988 29.6048 155.988H45.7316C45.7316 155.988 44.6789 131.132 44.0931 125.332C43.323 117.934 38.4362 86.6311 38.4362 86.6311H24.7385Z" fill="#263238"/>
<path d="M30.7067 127.605C30.2124 119.14 29.4655 110.688 28.4661 102.25C27.8967 97.4983 27.2372 92.7672 26.5408 88.0319C26.5408 87.991 26.4671 87.991 26.4753 88.0319C27.7042 96.4619 28.6053 104.953 29.3672 113.428C30.1291 121.904 30.6616 130.395 31.0057 138.899C31.2064 143.716 31.3539 148.07 31.5095 152.891C31.5139 152.911 31.525 152.929 31.5411 152.942C31.5571 152.955 31.577 152.962 31.5976 152.962C31.6182 152.962 31.6382 152.955 31.6542 152.942C31.6702 152.929 31.6813 152.911 31.6857 152.891C31.4604 144.306 31.2105 136.179 30.7067 127.605Z" fill="#455A64"/>
<path d="M24.7385 86.6311C24.7385 86.6311 28.6913 125.729 28.7856 126.225C28.7856 126.291 28.8265 127.044 28.8634 128.273L36.466 86.6311H24.7385Z" fill="#455A64"/>
<path d="M38.4199 86.6311C38.4199 86.6311 37.9447 90.6126 35.659 93.4841C35.1101 94.1722 33.4348 94.8112 32.5664 95.4421C32.5664 95.4421 29.3222 125.254 28.335 128.621C27.2372 132.382 22.9731 158.049 22.9731 158.049L6.12534 156.869C6.12534 156.869 11.1842 131.694 12.3843 125.459C12.6547 124.066 16.2594 97.8302 16.1815 97.2239C15.2107 89.9982 18.7253 86.6516 18.7253 86.6516L38.4199 86.6311Z" fill="#263238"/>
<path d="M25.3939 87.0695C25.0657 88.2059 24.3717 89.2022 23.4195 89.904C22.3689 90.6518 21.1238 91.0787 19.8353 91.1329C19.6182 91.1329 19.6019 91.477 19.8353 91.4811C22.4651 91.4811 25.1236 89.8139 25.5086 87.0859C25.5086 87.0244 25.4308 87.0121 25.3939 87.0695Z" fill="#455A64"/>
<path d="M35.9703 93.365C35.0161 93.7472 34.1056 94.2306 33.2545 94.8069C32.3533 95.364 31.5177 96.0358 30.6452 96.6215C30.6124 96.6461 30.6452 96.6994 30.678 96.6789C31.5914 96.1546 32.5417 95.6958 33.447 95.1551C34.3516 94.6596 35.2098 94.0839 36.0112 93.4347C36.0399 93.4101 36.0112 93.3487 35.9703 93.365Z" fill="#455A64"/>
<path d="M36.3431 87.8803C36.1997 88.4824 36.0276 89.0805 35.8679 89.6785C35.7081 90.2766 35.6016 90.8132 35.4255 91.3662C35.2802 91.9041 34.9813 92.3881 34.5653 92.7589C34.3359 92.9555 34.0819 93.1234 33.8362 93.3037L33.4266 93.5904C33.447 93.5085 33.4675 93.4266 33.4839 93.3446C33.5372 93.1194 33.5863 92.89 33.6355 92.6606C33.742 92.1526 33.8485 91.6447 33.9509 91.1327C34.1516 90.1332 34.3605 89.1214 34.594 88.1343C34.5916 88.128 34.5875 88.1226 34.582 88.1188C34.5765 88.1149 34.5699 88.1129 34.5632 88.1129C34.5566 88.1129 34.55 88.1149 34.5445 88.1188C34.5391 88.1226 34.5349 88.128 34.5325 88.1343C34.2376 89.1133 33.914 90.08 33.6518 91.0671C33.5208 91.5505 33.0292 93.9345 33.0046 94.1188C32.9801 94.3031 32.9555 94.4711 32.9391 94.6472C32.9085 94.8257 32.9002 95.0074 32.9145 95.1879C32.9181 95.1958 32.9239 95.2024 32.9312 95.2071C32.9384 95.2117 32.9469 95.2142 32.9555 95.2142C32.9641 95.2142 32.9726 95.2117 32.9798 95.2071C32.9871 95.2024 32.9929 95.1958 32.9964 95.1879C33.0782 95.0246 33.1374 94.851 33.1726 94.6718C33.2258 94.4998 33.2709 94.3277 33.3119 94.1557L33.3487 93.9632C33.5945 93.828 33.8239 93.6478 34.0533 93.4962C34.2827 93.3446 34.553 93.1767 34.7865 92.9965C35.2224 92.6624 35.5467 92.2039 35.7163 91.6816C35.8887 91.1187 36.0107 90.5416 36.0809 89.9571C36.1874 89.2771 36.2775 88.5889 36.4045 87.909C36.4127 87.8598 36.3512 87.8393 36.3431 87.8803Z" fill="#455A64"/>
<path d="M38.0143 78.4713L39.3865 89.7933C39.3865 89.7933 20.9986 89.6294 16.4478 89.1993C16.4478 89.1993 20.6669 68.198 25.7011 62.9836C28.2162 60.3784 31.0917 60.6446 32.8859 62.5535C33.3405 63.0327 38.7107 70.4919 39.2268 73.306C39.6733 75.7924 38.0143 78.4713 38.0143 78.4713Z" fill="#FFA31A"/>
<path d="M30.084 69.2262C30.2386 69.1744 30.4043 69.1659 30.5633 69.2016C30.6479 69.2329 30.7214 69.2885 30.7746 69.3613C30.8277 69.4342 30.8583 69.5211 30.8623 69.6112C30.8603 69.6723 30.8743 69.7329 30.9031 69.7868C30.9319 69.8407 30.9743 69.8861 31.0262 69.9184C31.0808 69.9586 31.1468 69.9802 31.2146 69.9799C31.2924 69.9799 31.3662 70.0045 31.444 70.0249C31.2878 70.0727 31.1209 70.0727 30.9647 70.0249C30.8826 69.992 30.812 69.9355 30.7617 69.8627C30.7115 69.7899 30.6838 69.7038 30.6821 69.6153C30.6798 69.5542 30.6626 69.4946 30.6319 69.4418C30.6012 69.3889 30.5579 69.3444 30.506 69.3122C30.4472 69.2788 30.381 69.2606 30.3134 69.259C30.2356 69.2549 30.1619 69.2467 30.084 69.2262Z" fill="white"/>
<path d="M34.2827 84.2389C34.4372 84.1871 34.6029 84.1786 34.7619 84.2143C34.846 84.2458 34.9189 84.3015 34.9714 84.3744C35.0239 84.4473 35.0536 84.5342 35.0568 84.6239C35.056 84.6848 35.0706 84.7449 35.0992 84.7986C35.1279 84.8524 35.1697 84.8979 35.2207 84.9311C35.2787 84.9674 35.3449 84.9885 35.4132 84.9926C35.4869 84.9926 35.5648 85.0172 35.6385 85.0376C35.4823 85.0854 35.3154 85.0854 35.1592 85.0376C35.0752 85.0015 35.0036 84.9415 34.9533 84.865C34.9031 84.7886 34.8764 84.699 34.8766 84.6075C34.8764 84.5471 34.8604 84.4877 34.8302 84.4352C34.8001 84.3828 34.7567 84.3391 34.7046 84.3085C34.6449 84.2731 34.5773 84.2533 34.5079 84.2512C34.4327 84.251 34.3575 84.2469 34.2827 84.2389Z" fill="white"/>
<path d="M27.5076 63.2129C27.3538 63.2694 27.1863 63.2766 27.0283 63.2334C26.9446 63.1968 26.8732 63.1367 26.8231 63.0603C26.7729 62.984 26.746 62.8946 26.7457 62.8033C26.7454 62.7428 26.7294 62.6834 26.6993 62.6309C26.6691 62.5785 26.6258 62.5348 26.5736 62.5042C26.514 62.4688 26.4463 62.449 26.377 62.4469H26.291L26.3811 62.3732C26.4648 62.36 26.5505 62.367 26.631 62.3936C26.7148 62.4256 26.7874 62.4814 26.8398 62.5542C26.8923 62.627 26.9222 62.7136 26.9259 62.8033C26.9251 62.8647 26.9397 62.9254 26.9683 62.9797C26.9969 63.0341 27.0387 63.0804 27.0897 63.1146C27.1478 63.1508 27.214 63.1719 27.2823 63.176C27.358 63.1843 27.4332 63.1966 27.5076 63.2129Z" fill="white"/>
<path d="M24.1323 75.5059C24.2872 75.4563 24.4523 75.4478 24.6115 75.4813C24.6958 75.5131 24.769 75.5687 24.8221 75.6415C24.8752 75.7143 24.906 75.8009 24.9105 75.8909C24.909 75.9525 24.9232 76.0134 24.9519 76.0679C24.9806 76.1224 25.0228 76.1687 25.0744 76.2022C25.1307 76.239 25.1957 76.2602 25.2628 76.2637L25.4922 76.3046C25.3384 76.3609 25.171 76.3681 25.0129 76.3251C24.9279 76.2904 24.8554 76.2307 24.8049 76.1539C24.7545 76.0771 24.7285 75.9869 24.7303 75.895C24.7285 75.8344 24.7114 75.7752 24.6806 75.7229C24.6498 75.6706 24.6063 75.627 24.5542 75.596C24.4958 75.5612 24.4296 75.5415 24.3617 75.5386C24.2838 75.5345 24.2019 75.5264 24.1323 75.5059Z" fill="white"/>
<path d="M33.8321 89.7236H33.6232C33.5956 89.6618 33.5816 89.5947 33.5822 89.527C33.5812 89.4662 33.5644 89.4067 33.5335 89.3543C33.5027 89.3019 33.4588 89.2584 33.4061 89.228C33.3482 89.192 33.2817 89.1722 33.2136 89.1706C33.1378 89.1609 33.0626 89.1473 32.9883 89.1297C33.1414 89.078 33.3058 89.0695 33.4634 89.1051C33.548 89.1364 33.6215 89.192 33.6747 89.2648C33.7279 89.3377 33.7584 89.4246 33.7625 89.5147C33.7598 89.5904 33.7845 89.6646 33.8321 89.7236Z" fill="white"/>
<path d="M28.6831 81.859C28.8377 81.8072 29.0034 81.7987 29.1624 81.8344C29.2468 81.8655 29.32 81.9211 29.3726 81.9941C29.4252 82.0671 29.4547 82.1541 29.4573 82.244C29.4573 82.3052 29.4726 82.3654 29.502 82.4191C29.5313 82.4728 29.5737 82.5183 29.6253 82.5513C29.6807 82.5898 29.7462 82.6111 29.8137 82.6127C29.8874 82.6127 29.9652 82.6373 30.039 82.6578C29.8841 82.7047 29.7187 82.7047 29.5638 82.6578C29.482 82.6243 29.4117 82.5678 29.3615 82.4951C29.3113 82.4223 29.2834 82.3365 29.2812 82.2481C29.2789 82.187 29.2617 82.1274 29.231 82.0746C29.2003 82.0217 29.157 81.9772 29.105 81.945C29.0462 81.9117 28.9801 81.8934 28.9125 81.8918C28.8347 81.9 28.761 81.8918 28.6831 81.859Z" fill="white"/>
<path d="M18.7908 80.843C18.6659 80.8795 18.5355 80.8933 18.4058 80.884C18.4058 80.8471 18.4262 80.8102 18.4385 80.7693C18.4789 80.786 18.5219 80.7957 18.5655 80.798C18.6392 80.8143 18.7171 80.8225 18.7908 80.843Z" fill="white"/>
<path d="M20.5153 83.2147C20.6698 83.1629 20.8356 83.1544 20.9946 83.1901C21.0787 83.2216 21.1516 83.2774 21.2041 83.3503C21.2566 83.4232 21.2863 83.51 21.2895 83.5998C21.2886 83.6606 21.3032 83.7207 21.3319 83.7745C21.3605 83.8282 21.4023 83.8738 21.4534 83.907C21.5106 83.945 21.5772 83.9663 21.6459 83.9684C21.7196 83.9684 21.7974 83.993 21.8712 84.0135C21.715 84.0612 21.5481 84.0612 21.3919 84.0135C21.3078 83.9774 21.2362 83.9173 21.186 83.8409C21.1357 83.7644 21.1091 83.6749 21.1093 83.5834C21.109 83.5229 21.0931 83.4635 21.0629 83.4111C21.0327 83.3586 20.9894 83.315 20.9372 83.2843C20.878 83.2485 20.8099 83.23 20.7406 83.2311C20.671 83.2434 20.5931 83.2352 20.5153 83.2147Z" fill="white"/>
<path d="M32.4435 75.69C32.5976 75.6363 32.7639 75.6278 32.9227 75.6654C33.0069 75.6969 33.0798 75.7527 33.1323 75.8256C33.1848 75.8985 33.2145 75.9853 33.2177 76.0751C33.2169 76.1365 33.2314 76.1971 33.2601 76.2515C33.2887 76.3059 33.3304 76.3522 33.3815 76.3864C33.4396 76.4226 33.5057 76.4437 33.574 76.4478C33.6478 76.4478 33.7256 76.4724 33.7993 76.4929C33.6431 76.5406 33.4763 76.5406 33.3201 76.4929C33.236 76.4567 33.1644 76.3967 33.1142 76.3203C33.0639 76.2438 33.0372 76.1543 33.0374 76.0628C33.0372 76.0023 33.0212 75.9429 32.9911 75.8904C32.9609 75.838 32.9176 75.7943 32.8654 75.7637C32.8058 75.7283 32.7381 75.7086 32.6688 75.7064C32.5934 75.7048 32.5182 75.6994 32.4435 75.69Z" fill="white"/>
<path d="M27.3601 66.867C27.2887 67.0131 27.1781 67.1365 27.0406 67.2233C26.9565 67.2604 26.8633 67.2717 26.7729 67.2556C26.6824 67.2396 26.5988 67.197 26.5326 67.1332C26.4894 67.0899 26.4361 67.0579 26.3775 67.04C26.3189 67.0221 26.2568 67.019 26.1968 67.0308C26.1311 67.0448 26.0704 67.0759 26.0206 67.1209C25.9551 67.166 25.8977 67.2111 25.8281 67.252C25.9182 67.1291 25.9797 66.9776 26.1558 66.8997C26.2409 66.8656 26.3342 66.8575 26.4239 66.8765C26.5136 66.8954 26.5956 66.9406 26.6596 67.0063C26.7041 67.0473 26.758 67.0767 26.8167 67.0917C26.8753 67.1068 26.9368 67.1069 26.9955 67.0923C27.0611 67.0759 27.1216 67.0435 27.1717 66.9981C27.2318 66.9507 27.2947 66.9069 27.3601 66.867Z" fill="white"/>
<path d="M39.1244 75.4976C39.0343 75.6204 38.9728 75.7679 38.8049 75.8498C38.7216 75.8891 38.6282 75.902 38.5374 75.8866C38.4466 75.8712 38.3627 75.8283 38.297 75.7638C38.2282 75.6975 38.1365 75.6604 38.0409 75.6604C37.9454 75.6604 37.8537 75.6975 37.7849 75.7638L37.5924 75.8949C37.6628 75.7479 37.7755 75.6252 37.916 75.5426C38.0008 75.5085 38.0937 75.5 38.1833 75.5182C38.2728 75.5364 38.3551 75.5805 38.4198 75.645C38.4635 75.6875 38.5172 75.7181 38.576 75.7338C38.6348 75.7496 38.6967 75.7501 38.7557 75.7351C38.8217 75.7176 38.8823 75.6838 38.9319 75.6368C38.9974 75.5836 39.0548 75.5344 39.1244 75.4976Z" fill="white"/>
<path d="M31.1655 63.8354C31.2172 63.99 31.2257 64.1557 31.19 64.3147C31.159 64.3991 31.1034 64.4723 31.0304 64.5249C30.9574 64.5775 30.8703 64.607 30.7804 64.6096C30.7192 64.6096 30.659 64.625 30.6053 64.6543C30.5516 64.6837 30.5062 64.7261 30.4732 64.7776C30.4347 64.833 30.4133 64.8985 30.4118 64.966C30.4118 65.0397 30.3872 65.1176 30.3667 65.1913C30.3189 65.0351 30.3189 64.8682 30.3667 64.712C30.4007 64.631 30.4575 64.5615 30.5302 64.5121C30.6029 64.4627 30.6884 64.4354 30.7763 64.4335C30.8375 64.4316 30.8972 64.4145 30.9502 64.3838C31.0031 64.353 31.0475 64.3096 31.0794 64.2574C31.1128 64.1986 31.1311 64.1324 31.1327 64.0648C31.1409 63.9788 31.1655 63.9051 31.1655 63.8354Z" fill="white"/>
<path d="M29.3631 77.1687C29.4148 77.3218 29.4233 77.4862 29.3877 77.6439C29.3564 77.7285 29.3008 77.8019 29.228 77.8551C29.1551 77.9083 29.0682 77.9388 28.9781 77.9429C28.9171 77.9416 28.8569 77.9561 28.8031 77.9847C28.7493 78.0134 28.7038 78.0554 28.6709 78.1067C28.6312 78.1616 28.6097 78.2275 28.6094 78.2952C28.6094 78.373 28.5848 78.4467 28.5644 78.5245C28.5099 78.3704 28.5027 78.2035 28.5439 78.0453C28.58 77.9612 28.64 77.8896 28.7165 77.8394C28.793 77.7891 28.8825 77.7624 28.974 77.7627C29.035 77.7624 29.0948 77.746 29.1473 77.715C29.1999 77.6841 29.2432 77.6397 29.273 77.5865C29.309 77.5286 29.3288 77.4621 29.3304 77.394C29.3345 77.3203 29.3426 77.2424 29.3631 77.1687Z" fill="white"/>
<path d="M38.7639 87.094C38.8157 87.2485 38.8242 87.4142 38.7885 87.5733C38.757 87.6574 38.7013 87.7303 38.6284 87.7828C38.5555 87.8353 38.4687 87.865 38.3789 87.8682C38.318 87.8669 38.2577 87.8813 38.2039 87.91C38.1501 87.9387 38.1046 87.9807 38.0717 88.032C38.0319 88.0884 38.0105 88.1556 38.0102 88.2245C38.0102 88.2983 37.9857 88.3761 37.9652 88.4498C37.9196 88.2933 37.9196 88.1271 37.9652 87.9706C38.0003 87.8899 38.0572 87.8207 38.1296 87.7708C38.202 87.7208 38.287 87.6921 38.3748 87.6879C38.4358 87.6872 38.4955 87.6711 38.5485 87.641C38.6016 87.6109 38.6461 87.5679 38.6779 87.5159C38.7119 87.4559 38.7303 87.3883 38.7312 87.3193C38.7353 87.2456 38.7435 87.1841 38.7639 87.094Z" fill="white"/>
<path d="M22.0104 77.644C22.06 77.799 22.0685 77.9641 22.035 78.1233C22.0035 78.2074 21.9477 78.2803 21.8748 78.3328C21.8019 78.3853 21.7151 78.415 21.6253 78.4182C21.5636 78.4182 21.5028 78.4336 21.4485 78.4629C21.3942 78.4922 21.348 78.5346 21.314 78.5862C21.2773 78.6425 21.2561 78.7075 21.2526 78.7746C21.2526 78.8483 21.2526 78.9262 21.2116 79.004C21.162 78.8481 21.162 78.6806 21.2116 78.5247C21.2455 78.4432 21.3021 78.3732 21.3748 78.323C21.4474 78.2729 21.533 78.2448 21.6213 78.2421C21.6819 78.2403 21.7411 78.2232 21.7934 78.1924C21.8456 78.1616 21.8893 78.1181 21.9203 78.066C21.9551 78.0075 21.9748 77.9414 21.9776 77.8734C21.9817 77.7956 21.9899 77.7219 22.0104 77.644Z" fill="white"/>
<path d="M25.6069 69.9226C25.66 70.0767 25.6699 70.2425 25.6355 70.4019C25.6033 70.4859 25.5475 70.5588 25.4749 70.6118C25.4022 70.6649 25.3157 70.6958 25.2259 70.7009C25.1644 70.6993 25.1034 70.7136 25.0489 70.7423C24.9944 70.7709 24.9482 70.8131 24.9146 70.8647C24.8779 70.921 24.8567 70.986 24.8532 71.0532C24.8532 71.131 24.8286 71.2047 24.8081 71.2825C24.7603 71.1264 24.7603 70.9595 24.8081 70.8033C24.8415 70.7215 24.8981 70.6512 24.9708 70.601C25.0436 70.5508 25.1294 70.5229 25.2177 70.5207C25.2784 70.5188 25.3376 70.5017 25.3898 70.4709C25.4421 70.4402 25.4858 70.3967 25.5167 70.3445C25.5515 70.2861 25.5713 70.2199 25.5741 70.152C25.5811 70.075 25.592 69.9985 25.6069 69.9226Z" fill="white"/>
<path d="M36.1342 71.5408C36.186 71.6953 36.1945 71.861 36.1588 72.02C36.1278 72.1045 36.0722 72.1777 35.9992 72.2302C35.9262 72.2828 35.8391 72.3123 35.7492 72.315C35.6879 72.3145 35.6276 72.3297 35.5738 72.3591C35.52 72.3885 35.4747 72.4311 35.442 72.4829C35.4034 72.5383 35.3821 72.6039 35.3805 72.6713C35.3805 72.7451 35.3559 72.8229 35.3355 72.8966C35.2877 72.7404 35.2877 72.5735 35.3355 72.4174C35.3695 72.3363 35.4263 72.2668 35.499 72.2174C35.5717 72.168 35.6572 72.1407 35.7451 72.1388C35.8062 72.1366 35.8658 72.1193 35.9186 72.0886C35.9715 72.0579 36.016 72.0146 36.0482 71.9627C36.0816 71.9039 36.0999 71.8377 36.1014 71.7702C36.1055 71.6923 36.1137 71.6186 36.1342 71.5408Z" fill="white"/>
<path d="M26.4057 85.05C26.4574 85.2046 26.4659 85.3703 26.4302 85.5293C26.3987 85.6134 26.343 85.6863 26.2701 85.7388C26.1972 85.7913 26.1104 85.821 26.0206 85.8242C25.9597 85.8234 25.8996 85.838 25.8459 85.8666C25.7922 85.8953 25.7466 85.9371 25.7134 85.9881C25.6754 86.0453 25.6541 86.112 25.652 86.1806C25.652 86.2543 25.6274 86.3322 25.6069 86.4059C25.5591 86.2497 25.5591 86.0828 25.6069 85.9266C25.6416 85.8457 25.6984 85.7762 25.7709 85.7262C25.8434 85.6762 25.9285 85.6477 26.0165 85.644C26.0776 85.6441 26.1377 85.6283 26.1909 85.5981C26.244 85.5679 26.2884 85.5245 26.3196 85.472C26.3537 85.412 26.372 85.3443 26.3729 85.2753C26.377 85.2016 26.3852 85.1361 26.4057 85.05Z" fill="white"/>
<path d="M22.973 87.094C23.0206 87.2572 23.0206 87.4305 22.973 87.5937C22.9411 87.6776 22.8852 87.7502 22.8124 87.8026C22.7396 87.855 22.6531 87.8849 22.5634 87.8887C22.502 87.8879 22.4413 87.9024 22.387 87.9311C22.3326 87.9597 22.2862 88.0014 22.2521 88.0525C22.2159 88.1105 22.1947 88.1767 22.1907 88.245C22.181 88.3208 22.1673 88.396 22.1497 88.4703C22.0998 88.3145 22.0998 88.1469 22.1497 87.9911C22.1848 87.9104 22.2417 87.8412 22.3141 87.7912C22.3865 87.7413 22.4715 87.7126 22.5593 87.7084C22.6198 87.7082 22.6792 87.6922 22.7316 87.662C22.7841 87.6319 22.8277 87.5886 22.8583 87.5364C22.8938 87.4768 22.9135 87.4091 22.9157 87.3398C22.9321 87.2456 22.9403 87.1841 22.973 87.094Z" fill="white"/>
<path d="M34.1967 67.2476C34.2653 67.0997 34.3766 66.9756 34.5162 66.8912C34.5996 66.8525 34.6928 66.84 34.7835 66.8554C34.8742 66.8707 34.9581 66.9132 35.0241 66.9773C35.0928 67.0436 35.1846 67.0807 35.2801 67.0807C35.3756 67.0807 35.4674 67.0436 35.5361 66.9773C35.6017 66.9363 35.659 66.8872 35.7286 66.8462C35.6571 66.9938 35.543 67.1165 35.4009 67.1985C35.317 67.2333 35.2244 67.2422 35.1354 67.2239C35.0463 67.2057 34.9647 67.1611 34.9012 67.0961C34.8567 67.0536 34.8022 67.023 34.7428 67.0073C34.6834 66.9915 34.6209 66.9911 34.5612 67.0059C34.4952 67.0235 34.4347 67.0573 34.3851 67.1042C34.3236 67.1575 34.2622 67.2067 34.1967 67.2476Z" fill="white"/>
<path d="M28.1916 73.2855C28.2603 73.1375 28.3715 73.0134 28.5111 72.9291C28.5946 72.8904 28.6878 72.8779 28.7784 72.8932C28.8691 72.9086 28.953 72.9511 29.0191 73.0151C29.0878 73.0814 29.1796 73.1185 29.2751 73.1185C29.3706 73.1185 29.4624 73.0814 29.5311 73.0151C29.5966 72.9742 29.654 72.925 29.7236 72.884C29.6534 73.0325 29.5389 73.1556 29.3959 73.2363C29.3119 73.2712 29.2194 73.28 29.1303 73.2618C29.0412 73.2435 28.9597 73.199 28.8962 73.1339C28.8525 73.0914 28.7988 73.0609 28.74 73.0451C28.6812 73.0293 28.6193 73.0289 28.5603 73.0438C28.4928 73.0607 28.4308 73.0946 28.38 73.1421C28.3186 73.1953 28.2572 73.2568 28.1916 73.2855Z" fill="white"/>
<path d="M24.0298 81.4782C24.1026 81.333 24.2129 81.2099 24.3494 81.1218C24.4329 81.0836 24.526 81.0714 24.6165 81.0868C24.7071 81.1021 24.791 81.1443 24.8573 81.2078C24.8997 81.2524 24.9529 81.2853 25.0117 81.3032C25.0706 81.3212 25.1331 81.3236 25.1932 81.3102C25.2598 81.2956 25.3218 81.2647 25.3734 81.2201C25.4348 81.1791 25.4963 81.13 25.5618 81.0931C25.4758 81.216 25.4144 81.3675 25.2382 81.4413C25.1535 81.4759 25.0605 81.4847 24.9708 81.4665C24.8811 81.4482 24.7988 81.4038 24.7344 81.3389C24.6908 81.2964 24.637 81.2658 24.5782 81.2501C24.5194 81.2343 24.4575 81.2338 24.3985 81.2488C24.3325 81.2663 24.272 81.3001 24.2224 81.3471C24.1568 81.3921 24.0995 81.4495 24.0298 81.4782Z" fill="white"/>
<path d="M33.8771 80.6302C33.951 80.4857 34.0611 80.363 34.1966 80.2738C34.2806 80.2362 34.3739 80.2246 34.4645 80.2407C34.555 80.2568 34.6387 80.2997 34.7046 80.3639C34.748 80.407 34.8013 80.4388 34.8599 80.4566C34.9184 80.4745 34.9804 80.4778 35.0405 80.4663C35.1071 80.4518 35.1691 80.4208 35.2207 80.3762C35.2809 80.3288 35.3438 80.285 35.4091 80.2451C35.3387 80.3921 35.226 80.5148 35.0855 80.5974C35.0004 80.6315 34.9071 80.6396 34.8174 80.6207C34.7277 80.6017 34.6457 80.5565 34.5817 80.4909C34.5379 80.4488 34.4839 80.4188 34.4251 80.4037C34.3662 80.3886 34.3045 80.389 34.2458 80.4049C34.1802 80.4213 34.1197 80.4536 34.0697 80.4991C34.0081 80.5465 33.9438 80.5903 33.8771 80.6302Z" fill="white"/>
<path d="M30.1005 86.5984C30.1718 86.4523 30.2825 86.3289 30.42 86.242C30.504 86.2049 30.5972 86.1937 30.6877 86.2098C30.7781 86.2258 30.8617 86.2684 30.9279 86.3321C30.9705 86.3764 31.0237 86.4091 31.0825 86.427C31.1413 86.4449 31.2037 86.4475 31.2638 86.4345C31.3294 86.4205 31.3902 86.3894 31.4399 86.3444C31.5055 86.2994 31.5628 86.2543 31.6324 86.2133C31.5609 86.3609 31.4468 86.4836 31.3047 86.5656C31.2197 86.5998 31.1264 86.6079 31.0367 86.5889C30.947 86.5699 30.8649 86.5248 30.8009 86.4591C30.7565 86.418 30.7025 86.3886 30.6439 86.3736C30.5852 86.3586 30.5238 86.3584 30.465 86.3731C30.3986 86.3896 30.3378 86.4236 30.2889 86.4714C30.2274 86.5124 30.166 86.5615 30.1005 86.5984Z" fill="white"/>
<path d="M18.201 85.4185C18.1149 85.5454 18.0494 85.697 17.8733 85.7707C17.7893 85.8056 17.6968 85.8145 17.6077 85.7962C17.5186 85.778 17.437 85.7334 17.3735 85.6683C17.3361 85.6309 17.2895 85.604 17.2383 85.5905C17.2383 85.5372 17.267 85.4799 17.2793 85.4226C17.3603 85.4415 17.4351 85.481 17.4964 85.5372C17.5385 85.5822 17.5917 85.6153 17.6507 85.6333C17.7096 85.6513 17.7722 85.6534 17.8323 85.6396C17.8982 85.6264 17.9591 85.5952 18.0084 85.5495C18.0576 85.5086 18.1313 85.4594 18.201 85.4185Z" fill="white"/>
<path d="M20.8348 73.4781C20.9081 73.332 21.02 73.2087 21.1584 73.1218C21.242 73.0836 21.3351 73.0714 21.4256 73.0868C21.5162 73.1021 21.6 73.1443 21.6664 73.2078C21.7085 73.2528 21.7617 73.2859 21.8206 73.3038C21.8796 73.3218 21.9422 73.324 22.0023 73.3102C22.0679 73.2962 22.1286 73.2651 22.1784 73.2201C22.2439 73.1791 22.3013 73.13 22.3709 73.089C22.2808 73.216 22.2194 73.3675 22.0432 73.4413C21.9585 73.4759 21.8655 73.4847 21.7758 73.4665C21.6861 73.4482 21.6038 73.4038 21.5394 73.3389C21.4958 73.2964 21.442 73.2658 21.3832 73.2501C21.3244 73.2343 21.2625 73.2338 21.2035 73.2488C21.1375 73.2663 21.077 73.3001 21.0274 73.3471C20.9655 73.394 20.9012 73.4378 20.8348 73.4781Z" fill="white"/>
<path d="M38.7312 84.501C38.5509 83.4646 38.4198 82.6536 38.2683 81.6336C38.1167 80.6137 37.9611 79.5568 37.8259 78.5164V78.4468L37.871 78.3812C38.3912 77.5902 38.7644 76.7118 38.9728 75.7883C39.0818 75.3309 39.1341 74.8617 39.1285 74.3915C39.1338 73.9219 39.0703 73.4541 38.9401 73.0029C38.6557 72.0838 38.2911 71.1915 37.8505 70.3363C37.4163 69.472 37.0599 68.7469 36.5766 67.9031C36.4946 67.772 36.5479 67.7434 36.6216 67.8458C37.1091 68.538 37.6416 69.4843 38.0594 70.2257C38.5569 71.0742 38.9685 71.9703 39.2882 72.9005C39.4433 73.381 39.5235 73.8825 39.5258 74.3874C39.5355 74.8889 39.4832 75.3897 39.3702 75.8784C39.1508 76.8563 38.7447 77.7827 38.1741 78.6065L38.2068 78.4713C38.3256 79.5159 38.4239 80.5604 38.5223 81.6049C38.6165 82.543 38.723 83.5588 38.7885 84.501C38.7885 84.587 38.7926 84.8819 38.7312 84.501Z" fill="#263238"/>
<path d="M37.4572 68.6814C37.6569 68.9879 37.8204 69.3164 37.9447 69.6604C38.0089 69.8313 38.0609 70.0065 38.1003 70.1847C38.1475 70.3639 38.1722 70.5483 38.1741 70.7336C38.0184 70.3977 37.875 70.07 37.7644 69.73C37.6305 69.3905 37.5276 69.0395 37.4572 68.6814Z" fill="#263238"/>
<path d="M26.5818 65.3471C25.0867 67.6041 18.0208 76.4888 17.7586 77.3408C17.4964 78.1928 19.0981 79.9624 19.0817 80.3106C19.0202 81.7237 15.4606 90.2357 14.199 89.3222C12.5605 88.1384 6.6169 80.671 7.40747 76.7346C8.19804 72.7981 23.3827 62.9836 25.8814 62.0619C28.3801 61.1403 28.0565 63.1229 26.5818 65.3471Z" fill="#EB9481"/>
<path d="M20.843 92.3861C21.8015 91.4808 20.1835 90.8705 20.1835 90.8705C20.1835 90.8705 22.7232 91.19 23.3499 89.8751C23.9766 88.5602 21.9695 87.9376 21.8302 87.8844C21.9654 87.8844 24.2879 88.1342 24.7959 86.7456C25.3038 85.357 23.2065 84.9761 23.0714 84.9556C23.2024 84.9269 24.9351 84.5664 25.0703 83.4277C25.2997 81.4738 20.2532 82.08 18.9833 81.1174C18.9833 81.1174 19.0653 78.5696 19.0898 78.4958C18.8554 79.1018 18.4221 79.6102 17.861 79.9377C16.8246 80.4252 15.8784 80.757 15.522 81.355C15.3548 81.6159 15.276 81.9237 15.2974 82.2328C15.3188 82.542 15.4392 82.836 15.6408 83.0713C15.6408 83.0713 14.244 83.141 13.8221 84.2183C13.605 84.7753 14.3014 85.611 14.3014 85.611C13.9863 85.6428 13.686 85.761 13.4338 85.9525C13.1816 86.144 12.9871 86.4015 12.8718 86.6965C12.6178 87.4788 13.3552 88.1957 13.3552 88.1957C13.3552 88.1957 12.3229 88.7896 12.3229 89.6744C12.3229 91.4604 18.7908 94.3236 20.843 92.3861Z" fill="#EB9481"/>
<path d="M13.4576 88.3308C13.4576 88.3308 13.4166 88.3308 13.4576 88.3595C15.4174 89.8804 17.7929 90.7703 20.2696 90.9114C20.3474 90.9114 20.3843 90.7885 20.2982 90.7681C17.9118 90.2919 15.6074 89.4709 13.4576 88.3308Z" fill="#263238"/>
<path d="M14.2686 85.6111C14.244 85.6111 14.2235 85.6357 14.244 85.6561C16.4282 87.3149 19.1332 88.1386 21.8712 87.9787C21.9695 87.9787 22.0473 87.864 21.9367 87.8681C20.0729 87.8886 16.2716 86.7089 14.2686 85.6111Z" fill="#263238"/>
<path d="M23.2597 84.8697C20.5808 85.0008 18.1313 84.2635 15.7227 83.1411C15.6899 83.1411 15.6735 83.1698 15.694 83.1903C16.7222 84.0628 18.332 84.6157 19.6223 84.9434C20.8136 85.2676 22.0689 85.2746 23.2638 84.9639C23.3089 84.9516 23.3171 84.8656 23.2597 84.8697Z" fill="#263238"/>
<path d="M13.2855 88.204C13.0345 88.0185 12.8395 87.7675 12.7217 87.4785C12.6039 87.1895 12.568 86.8736 12.6178 86.5655C12.6949 86.262 12.8817 85.9979 13.1421 85.8241C13.4537 85.6574 13.8006 85.5676 14.1539 85.5619C13.9178 85.3222 13.7598 85.0167 13.7006 84.6855C13.6414 84.3544 13.6837 84.013 13.8221 83.7064C13.9831 83.4343 14.2428 83.2348 14.5471 83.1493C14.8991 83.0592 15.2612 83.0151 15.6244 83.0182C15.448 82.8681 15.3091 82.6788 15.2187 82.4654C15.1284 82.252 15.0892 82.0205 15.1042 81.7893C15.1292 81.536 15.2143 81.2923 15.3526 81.0786C15.4908 80.8648 15.6781 80.6872 15.8989 80.5605C16.4165 80.2713 16.9665 80.0444 17.5374 79.8846C17.8244 79.79 18.0993 79.6621 18.3566 79.5036C18.6306 79.3142 18.8439 79.0496 18.971 78.7418C18.9956 78.6885 18.9997 78.7418 18.971 78.7868C18.8902 78.9967 18.7753 79.1918 18.6311 79.3644C18.4785 79.5456 18.3021 79.7055 18.1067 79.8395C17.6145 80.1246 17.1009 80.3711 16.5707 80.5769C16.1104 80.7844 15.7306 81.1369 15.4893 81.5804C15.3853 81.8121 15.3478 82.0682 15.3811 82.3199C15.4144 82.5717 15.5171 82.8092 15.6777 83.0059C15.6813 83.0113 15.6835 83.0176 15.6839 83.0241C15.6843 83.0306 15.683 83.0371 15.68 83.0429C15.6771 83.0488 15.6727 83.0537 15.6673 83.0573C15.6618 83.0609 15.6555 83.0629 15.649 83.0633C15.3259 83.1101 15.0105 83.1996 14.711 83.3295C14.4618 83.4392 14.2518 83.6221 14.1088 83.8538C13.987 84.1355 13.9414 84.4442 13.9766 84.7491C14.0119 85.054 14.1267 85.3442 14.3096 85.5906C13.9685 85.6699 13.6441 85.8086 13.351 86.0002C13.1583 86.1563 13.0158 86.3658 12.9414 86.6024C12.8601 86.8705 12.8554 87.1561 12.9278 87.4268C13.0002 87.6975 13.1468 87.9426 13.351 88.1344C13.3521 88.1412 13.3521 88.1481 13.351 88.1548C13.351 88.1548 13.351 88.1548 13.351 88.1753C13.351 88.1753 13.0274 88.376 13.007 88.3801C13.0952 88.3145 13.1883 88.2556 13.2855 88.204Z" fill="#263238"/>
<path d="M22.7478 70.8278L16.4846 67.3583C16.4846 67.3583 22.8665 63.1228 25.8322 61.9063C28.7979 60.6897 28.8634 63.5611 22.7478 70.8278Z" fill="#263238"/>
<path d="M28.9576 60.534C27.9622 60.9436 27.6837 61.6564 27.995 62.492C28.3391 63.43 31.2187 65.2528 32.4148 64.6384C33.447 64.1059 32.5541 61.6359 32.0052 61.0788C31.5905 60.7271 31.0901 60.4914 30.5548 60.3957C30.0195 60.3 29.4685 60.3477 28.9576 60.534Z" fill="#263238"/>
<path d="M28.2981 62.2749C28.4497 62.6149 30.592 64.5852 32.1977 64.1919C32.722 64.0609 32.1445 61.1771 32.1445 61.1771V60.9518L32.2264 57.8346L28.2981 56.2699L27.7328 56.0732C27.7328 56.0732 27.7656 56.9253 27.8189 57.9903C27.8189 58.0394 27.8189 58.0886 27.8189 58.1418C27.8189 58.1951 27.8189 58.2565 27.8189 58.3139C27.8189 58.4736 27.8189 58.6375 27.8393 58.7972C27.8598 58.957 27.8393 59.0389 27.868 59.17C27.8967 59.3011 27.868 59.4239 27.8967 59.555C27.9668 60.4699 28.1009 61.3788 28.2981 62.2749Z" fill="#EB9481"/>
<path d="M27.8025 57.9903C28.2665 58.7731 28.8958 59.4451 29.6465 59.9595C30.3971 60.4738 31.251 60.8181 32.1486 60.9682L32.2305 57.851L28.2981 56.2699L27.7328 56.0732C27.7328 56.0732 27.7492 56.9253 27.8025 57.9903Z" fill="#263238"/>
<path d="M35.8802 53.0174C36.6626 58.4367 33.5085 59.514 32.337 59.6819C31.276 59.8335 27.6468 60.2185 26.3073 54.9098C24.9679 49.6011 27.2413 47.5366 29.6498 47.0492C32.0584 46.5617 35.0978 47.5981 35.8802 53.0174Z" fill="#EB9481"/>
<path d="M34.4424 51.7148C34.3164 51.7149 34.1905 51.7067 34.0656 51.6902C33.931 51.7023 33.7965 51.6676 33.6846 51.5919C33.6534 51.5625 33.6332 51.5234 33.6272 51.4809C33.6212 51.4385 33.6299 51.3953 33.6518 51.3584C33.7042 51.29 33.7741 51.2371 33.8542 51.2053C33.9343 51.1736 34.0215 51.1642 34.1065 51.1782C34.2824 51.1782 34.4518 51.2439 34.5817 51.3625C34.6091 51.3914 34.6276 51.4275 34.6352 51.4666C34.6427 51.5056 34.639 51.546 34.6244 51.5831C34.6097 51.6201 34.5848 51.6521 34.5526 51.6755C34.5204 51.6988 34.4821 51.7124 34.4424 51.7148Z" fill="#263238"/>
<path d="M30.805 52.3868C30.9246 52.3492 31.0422 52.3054 31.1572 52.2557C31.2895 52.2277 31.4089 52.1572 31.4972 52.055C31.5176 52.0167 31.5249 51.9729 31.5183 51.9301C31.5117 51.8872 31.4913 51.8477 31.4604 51.8174C31.3901 51.7678 31.3079 51.7379 31.2222 51.7307C31.1365 51.7235 31.0505 51.7393 30.9729 51.7764C30.8026 51.8259 30.6566 51.9369 30.5633 52.0878C30.544 52.1239 30.5359 52.165 30.5398 52.2058C30.5437 52.2466 30.5595 52.2853 30.5852 52.3172C30.611 52.349 30.6456 52.3726 30.6846 52.385C30.7237 52.3974 30.7656 52.398 30.805 52.3868Z" fill="#263238"/>
<path d="M31.911 53.5952C31.911 53.5952 31.8823 53.6198 31.8864 53.6321C31.9601 54.0007 31.9847 54.4308 31.6734 54.607C31.6734 54.607 31.6734 54.6316 31.6734 54.6275C32.0748 54.5046 32.038 53.9311 31.911 53.5952Z" fill="#263238"/>
<path d="M31.5178 53.2674C30.9197 53.3247 31.0713 54.5167 31.6284 54.4635C32.1854 54.4102 32.0175 53.2223 31.5178 53.2674Z" fill="#263238"/>
<path d="M31.2924 53.3616C31.1941 53.4436 31.1081 53.5746 30.9852 53.6033C30.8623 53.632 30.7149 53.5255 30.6043 53.419C30.633 53.6484 30.7517 53.8696 31.0139 53.8737C31.2761 53.8778 31.3744 53.6525 31.4235 53.4149C31.3744 53.3862 31.3293 53.3289 31.2924 53.3616Z" fill="#263238"/>
<path d="M33.9345 53.1853C33.9345 53.1853 33.9672 53.1853 33.9672 53.214C34 53.5867 34.1024 54.0045 34.4506 54.0906V54.111C34.0328 54.0865 33.9058 53.5253 33.9345 53.1853Z" fill="#263238"/>
<path d="M34.2171 52.743C34.807 52.6242 34.9995 53.8121 34.4547 53.9227C33.9099 54.0333 33.7256 52.8413 34.2171 52.743Z" fill="#263238"/>
<path d="M34.4793 52.7758C34.5817 52.8249 34.6964 52.9232 34.807 52.915C34.9176 52.9069 35.0159 52.7553 35.0773 52.6201C35.1224 52.8454 35.0773 53.0912 34.8725 53.1731C34.6677 53.255 34.5039 53.0707 34.4138 52.8536C34.4138 52.829 34.4424 52.7758 34.4793 52.7758Z" fill="#263238"/>
<path d="M32.2305 56.5977C32.3247 56.6755 32.4271 56.7902 32.5623 56.7902C32.7063 56.7776 32.846 56.7343 32.9719 56.6632C32.9249 56.7406 32.8578 56.804 32.7778 56.8465C32.6978 56.889 32.6077 56.9092 32.5172 56.9049C32.4406 56.89 32.3699 56.8536 32.3133 56.7999C32.2567 56.7462 32.2166 56.6775 32.1977 56.6018L32.2305 56.5977Z" fill="#263238"/>
<path d="M33.5863 55.0453C33.5863 55.0453 33.7378 55.586 33.7747 55.8646C33.7747 55.8892 33.7174 55.9096 33.6314 55.9301C33.4139 56.0014 33.1811 56.012 32.958 55.9607C32.735 55.9095 32.5302 55.7984 32.3656 55.6393C32.3615 55.6344 32.3591 55.6282 32.3588 55.6218C32.3586 55.6154 32.3605 55.6091 32.3643 55.6039C32.3681 55.5987 32.3735 55.5949 32.3797 55.5932C32.3859 55.5914 32.3924 55.5918 32.3984 55.5942C32.7621 55.7749 33.1743 55.8338 33.574 55.7622C33.574 55.6843 33.2791 54.8446 33.32 54.8364C33.5248 54.8255 33.73 54.842 33.9304 54.8856C33.6436 53.7509 33.1726 52.6695 32.9063 51.5349C32.906 51.5271 32.9082 51.5195 32.9125 51.513C32.9167 51.5066 32.923 51.5017 32.9302 51.4989C32.9375 51.4962 32.9454 51.4958 32.9529 51.4979C32.9604 51.4999 32.967 51.5043 32.9719 51.5103C33.5084 52.6521 33.9296 53.8445 34.2294 55.0699C34.2581 55.1928 33.6969 55.074 33.5863 55.0453Z" fill="#263238"/>
<path d="M26.3032 54.4677C27.5895 54.3776 27.4215 52.3541 27.4215 52.3541C27.4215 52.3541 28.8716 52.1083 28.7937 49.7489C29.1142 50.1991 29.5348 50.5689 30.0224 50.829C30.51 51.0892 31.0513 51.2326 31.6037 51.2481C32.0134 51.2768 30.5428 50.3019 30.5428 50.3019C30.5428 50.3019 32.3411 51.6946 35.4132 50.8753C35.6303 50.818 35.1224 47.2256 32.5868 46.2958C30.0513 45.3659 27.6714 46.5088 26.291 48.1677C26.291 48.1677 24.5624 49.1303 24.4927 50.8466C24.4231 52.563 25.8035 54.5005 26.3032 54.4677Z" fill="#263238"/>
<path d="M31.1655 55.7047C30.8365 55.7235 30.5088 55.6498 30.2197 55.4917C29.9305 55.3337 29.6915 55.0977 29.5298 54.8106C29.3681 54.5234 29.2902 54.1967 29.3049 53.8675C29.3196 53.5383 29.4264 53.2199 29.6131 52.9483C29.7997 52.6768 30.0589 52.463 30.361 52.3314C30.663 52.1998 30.996 52.1556 31.322 52.2037C31.648 52.2519 31.9539 52.3906 32.205 52.6039C32.4561 52.8173 32.6424 53.0969 32.7425 53.4108C32.825 53.6667 32.8477 53.9382 32.8088 54.2043C32.7699 54.4703 32.6704 54.7239 32.5181 54.9455C32.3657 55.1671 32.1646 55.3508 31.9301 55.4824C31.6956 55.614 31.434 55.69 31.1655 55.7047ZM30.973 52.4277C30.6553 52.4467 30.3515 52.5645 30.104 52.7645C29.8565 52.9645 29.6777 53.2368 29.5924 53.5434C29.5071 53.8499 29.5197 54.1755 29.6283 54.4746C29.737 54.7737 29.9363 55.0314 30.1985 55.2117C30.4607 55.392 30.7726 55.486 31.0908 55.4805C31.409 55.475 31.7175 55.3703 31.9733 55.181C32.2291 54.9917 32.4194 54.7273 32.5176 54.4246C32.6159 54.1219 32.6172 53.7961 32.5213 53.4927C32.421 53.1694 32.216 52.8885 31.9388 52.6943C31.6615 52.5 31.3275 52.4034 30.9893 52.4195L30.973 52.4277Z" fill="#FFC727"/>
<path d="M35.1634 54.9797C34.4916 55.0207 33.8403 54.3653 33.6765 53.46C33.5942 53.0282 33.6486 52.5815 33.8321 52.182C33.9001 52.0055 34.0125 51.8495 34.1585 51.7291C34.3044 51.6088 34.479 51.5283 34.6653 51.4953C34.8516 51.4623 35.0432 51.4781 35.2216 51.541C35.4001 51.6039 35.5592 51.7118 35.6836 51.8543C35.9924 52.1666 36.1957 52.5676 36.2653 53.0012C36.4332 53.9598 35.9908 54.8405 35.2781 54.9674C35.2404 54.9756 35.2019 54.9797 35.1634 54.9797ZM34.7947 51.7028H34.7046C34.5534 51.737 34.413 51.8079 34.2958 51.9094C34.1786 52.0109 34.0883 52.1397 34.0328 52.2844C33.8738 52.6402 33.8281 53.0364 33.9017 53.4191C34.0492 54.2383 34.6432 54.8404 35.2289 54.7339C35.8147 54.6274 36.171 53.8737 36.0236 53.0422C35.9619 52.6576 35.7831 52.3015 35.5116 52.0223C35.4193 51.9249 35.3082 51.8474 35.1849 51.7945C35.0616 51.7417 34.9288 51.7146 34.7947 51.715V51.7028Z" fill="#FFC727"/>
<path d="M32.7384 53.6239L32.5582 53.4723C32.7794 53.2019 33.3365 52.8005 33.8403 53.1774L33.701 53.3658C33.2505 53.0258 32.7589 53.5952 32.7384 53.6239Z" fill="#FFC727"/>
<path d="M25.0785 55.4342L24.8532 55.3646C24.886 55.2622 25.1891 54.3364 25.6725 54.1603C26.1558 53.9841 29.3058 53.7507 29.441 53.7261V53.9636C28.5316 54.0374 26.0944 54.2545 25.7298 54.3733C25.3652 54.4921 25.1604 55.1802 25.0785 55.4342Z" fill="#FFC727"/>
<path d="M27.229 55.2007C27.229 55.2007 25.9387 53.5623 25.1809 54.0333C24.4231 54.5044 25.4676 56.9253 26.4097 57.212C26.5274 57.2599 26.6537 57.2831 26.7807 57.2801C26.9077 57.2771 27.0327 57.248 27.148 57.1945C27.2633 57.1411 27.3663 57.0646 27.4507 56.9696C27.5351 56.8747 27.5991 56.7634 27.6386 56.6426L27.229 55.2007Z" fill="#EB9481"/>
<path d="M26.4057 48.9009C27.1799 48.2864 28.8306 43.9567 25.099 42.052C21.3673 40.1473 17.2384 44.9931 20.0074 48.3274C21.8712 50.5639 24.7672 50.2035 26.4057 48.9009Z" fill="#263238"/>
<defs>
<filter id="filter0_d_3340_3210" x="-128.421" y="-76.3101" width="347.788" height="344.637" filterUnits="userSpaceOnUse" color-interpolation-filters="sRGB">
<feFlood flood-opacity="0" result="BackgroundImageFix"/>
<feColorMatrix in="SourceAlpha" type="matrix" values="0 0 0 0 0 0 0 0 0 0 0 0 0 0 0 0 0 0 127 0" result="hardAlpha"/>
<feMorphology radius="10" operator="erode" in="SourceAlpha" result="effect1_dropShadow_3340_3210"/>
<feOffset dy="15"/>
<feGaussianBlur stdDeviation="15"/>
<feComposite in2="hardAlpha" operator="out"/>
<feColorMatrix type="matrix" values="0 0 0 0 0 0 0 0 0 0 0 0 0 0 0 0 0 0 0.12 0"/>
<feBlend mode="normal" in2="BackgroundImageFix" result="effect1_dropShadow_3340_3210"/>
<feBlend mode="normal" in="SourceGraphic" in2="effect1_dropShadow_3340_3210" result="shape"/>
</filter>
</defs>
</svg>
