<svg width="48" height="48" viewBox="0 0 48 48" fill="none" xmlns="http://www.w3.org/2000/svg">
<mask id="mask0_1166_5691" style="mask-type:alpha" maskUnits="userSpaceOnUse" x="0" y="0" width="48" height="48">
<circle cx="24" cy="24" r="24" fill="#C4C4C4"/>
</mask>
<g mask="url(#mask0_1166_5691)">
<path d="M58.657 -1.76626C35.4859 -7.15591 12.3147 4.8437 -10.871 -0.560484C-12.1639 -0.851032 -13.2099 -0.110136 -13.2099 1.1828V46.8569C-13.2099 48.1498 -12.1639 49.5008 -10.871 49.8059C12.3002 55.1956 35.4713 43.196 58.657 48.6001C59.95 48.9052 60.9959 48.1643 60.9959 46.8714V1.19733C60.9959 -0.110136 59.95 -1.46118 58.657 -1.76626Z" fill="#0B67B2"/>
<path d="M60.9959 1.1828C60.9959 -0.110132 59.95 -1.46118 58.657 -1.76626C58.5117 -1.79531 58.3519 -1.83889 58.2067 -1.86794L32.3915 13.8507V-2.30377C26.7259 -1.62098 21.0602 -0.691227 15.3945 -0.00844102V13.6763L-6.67258 0.238525C-8.06721 0.0351416 -9.46184 -0.226355 -10.871 -0.560484C-12.1639 -0.851032 -13.2099 -0.110136 -13.2099 1.1828V4.2045L5.38514 15.5213H-13.2099V32.5183H6.24225L-13.2099 44.3582V46.8569C-13.2099 48.1498 -12.1639 49.5008 -10.871 49.8059C-10.4352 49.9076 -9.99935 49.9948 -9.57806 50.0819L15.38 34.8718V50.3289C21.0456 49.6461 26.7113 48.7164 32.377 48.0336V34.6829L53.7177 47.6995C55.3593 47.9174 57.0009 48.2079 58.6425 48.6002C59.9354 48.9052 60.9814 48.1643 60.9814 46.8714V44.1984L41.8198 32.5329H60.9814V15.5358H42.6769L60.9814 4.39335C60.9959 3.3038 60.9959 2.2433 60.9959 1.1828Z" fill="#FF473E"/>
<path d="M46.7736 33.8259L60.9959 42.4842V45.8836L41.1951 33.8259H33.7426L57.611 48.3678C55.1995 47.8593 52.7734 47.5397 50.3619 47.3508L33.699 37.2107V47.9029C32.8274 48.0046 31.9557 48.1063 31.0841 48.2225V31.2255H60.9959V33.8404H46.7736V33.8259ZM14.087 50.5033C14.9587 50.4016 15.8303 50.2999 16.702 50.1837V31.2109H-13.2099V33.8259H1.30295L-13.2099 42.6585V46.0579L6.88146 33.8259H14.087V33.9711L-11.5102 49.559C-11.3068 49.6607 -11.0889 49.7478 -10.871 49.8059C-9.72333 50.0674 -8.57567 50.2999 -7.428 50.4888L14.087 37.3851V50.5033ZM-13.2099 14.2139V16.8288H16.702V-0.168202C15.8303 -0.0519828 14.9587 0.0497082 14.087 0.1514V11.1922L-3.22959 0.645331C-5.7283 0.42742 -8.22701 0.0642358 -10.7257 -0.516859L13.4624 14.2139H6.00982L-13.2099 2.50484V5.90424L0.445832 14.2139H-13.2099ZM33.699 -2.46353C32.8274 -2.36184 31.9557 -2.26014 31.0841 -2.14392V16.8288H60.9959V14.2139H47.6307L60.9959 6.07857V2.67916L42.0522 14.2139H34.5997L59.8337 -1.15606C59.4851 -1.44661 59.0928 -1.66456 58.657 -1.76626C57.7999 -1.96964 56.9573 -2.1294 56.1002 -2.2892L33.699 11.352V-2.46353Z" fill="#E8E8E8"/>
</g>
</svg>
