<svg width="15" height="17" viewBox="0 0 15 17" fill="none" xmlns="http://www.w3.org/2000/svg">
<path d="M5.53104 3.16667L5.53088 2.39514C5.53066 1.34855 6.37903 0.5 7.42562 0.5C8.47189 0.5 9.32013 1.34806 9.32035 2.39433L9.32052 3.16667M9.31995 14.2778H12.7226C14.1376 14.2778 14.8761 12.5943 13.9178 11.5533L13.239 10.8159C12.404 9.90886 12.0003 8.68613 12.131 7.4603C12.401 4.92901 10.417 2.72222 7.87137 2.72222H6.98036C4.43453 2.72222 2.45032 4.92901 2.71996 7.46052C2.85053 8.68624 2.44684 9.90882 1.61208 10.8158L0.933527 11.5531C-0.024776 12.5943 0.713784 14.2778 2.12887 14.2778H5.53048M9.31995 14.2778V14.6053C9.31995 15.6517 8.47165 16.5 7.42521 16.5C6.37878 16.5 5.53048 15.6517 5.53048 14.6053V14.2778M9.31995 14.2778H5.53048" stroke="#292556" stroke-linejoin="round"/>
</svg>
