<svg width="14" height="14" viewBox="0 0 14 14" fill="none" xmlns="http://www.w3.org/2000/svg">
<g clip-path="url(#clip0_811_3319)">
<path d="M12.25 6.78809C12.5234 6.97494 12.7673 7.18685 12.9814 7.42383C13.1956 7.66081 13.3802 7.92057 13.5352 8.20312C13.6901 8.48568 13.804 8.78418 13.877 9.09863C13.9499 9.41309 13.9909 9.73438 14 10.0625C14 10.6048 13.8975 11.1152 13.6924 11.5938C13.4873 12.0723 13.2048 12.4893 12.8447 12.8447C12.4847 13.2002 12.0677 13.4805 11.5938 13.6855C11.1198 13.8906 10.6094 13.9954 10.0625 14C9.64779 14 9.24675 13.9385 8.85938 13.8154C8.47201 13.6924 8.11654 13.5146 7.79297 13.2822C7.4694 13.0498 7.18229 12.7718 6.93164 12.4482C6.68099 12.1247 6.4873 11.7669 6.35059 11.375H0.875V0.875H2.625V0H3.5V0.875H9.625V0H10.5V0.875H12.25V6.78809ZM1.75 1.75V3.5H11.375V1.75H10.5V2.625H9.625V1.75H3.5V2.625H2.625V1.75H1.75ZM6.14551 10.5C6.13184 10.3587 6.125 10.2129 6.125 10.0625C6.125 9.67057 6.17969 9.29004 6.28906 8.9209C6.39844 8.55176 6.56478 8.20312 6.78809 7.875H6.125V7H7V7.58789C7.18685 7.35547 7.39421 7.15039 7.62207 6.97266C7.84994 6.79492 8.09603 6.64225 8.36035 6.51465C8.62467 6.38704 8.90039 6.29134 9.1875 6.22754C9.47461 6.16374 9.76628 6.12956 10.0625 6.125C10.5182 6.125 10.9557 6.2002 11.375 6.35059V4.375H1.75V10.5H6.14551ZM10.0625 13.125C10.4863 13.125 10.8828 13.0452 11.252 12.8857C11.6211 12.7262 11.9447 12.5075 12.2227 12.2295C12.5007 11.9515 12.7194 11.6279 12.8789 11.2588C13.0384 10.8896 13.1204 10.4909 13.125 10.0625C13.125 9.63867 13.0452 9.24219 12.8857 8.87305C12.7262 8.50391 12.5075 8.18034 12.2295 7.90234C11.9515 7.62435 11.6279 7.4056 11.2588 7.24609C10.8896 7.08659 10.4909 7.00456 10.0625 7C9.63867 7 9.24219 7.07975 8.87305 7.23926C8.50391 7.39876 8.18034 7.61751 7.90234 7.89551C7.62435 8.1735 7.4056 8.49707 7.24609 8.86621C7.08659 9.23535 7.00456 9.63411 7 10.0625C7 10.4863 7.07975 10.8828 7.23926 11.252C7.39876 11.6211 7.61751 11.9447 7.89551 12.2227C8.1735 12.5007 8.49707 12.7194 8.86621 12.8789C9.23535 13.0384 9.63411 13.1204 10.0625 13.125ZM10.5 9.625H11.8125V10.5H9.625V7.875H10.5V9.625ZM2.625 7H3.5V7.875H2.625V7ZM4.375 7H5.25V7.875H4.375V7ZM4.375 5.25H5.25V6.125H4.375V5.25ZM4.375 8.75H5.25V9.625H4.375V8.75ZM7 6.125H6.125V5.25H7V6.125ZM8.75 6.125H7.875V5.25H8.75V6.125ZM2.625 5.25H3.5V6.125H2.625V5.25Z" fill="#787878"/>
</g>
<defs>
<clipPath id="clip0_811_3319">
<rect width="14" height="14" fill="white"/>
</clipPath>
</defs>
</svg>
