<svg width="11" height="11" viewBox="0 0 11 11" fill="none" xmlns="http://www.w3.org/2000/svg">
<path d="M9.08751 7.64487C9.08512 7.64921 9.08323 7.6537 9.08044 7.65787C9.07416 7.66732 9.06696 7.67612 9.05896 7.68416L7.68402 9.05908C7.65178 9.09127 7.60808 9.10935 7.56252 9.10934C7.51696 9.10932 7.47327 9.09122 7.44106 9.059C7.40884 9.02678 7.39074 8.98309 7.39072 8.93753C7.39071 8.89197 7.40878 8.84827 7.44098 8.81604L8.52254 7.73443H2.0625C2.01692 7.73443 1.9732 7.71633 1.94097 7.68409C1.90873 7.65186 1.89062 7.60814 1.89062 7.56256C1.89062 7.51697 1.90873 7.47326 1.94097 7.44102C1.9732 7.40879 2.01692 7.39068 2.0625 7.39068H8.52254L7.44098 6.30908C7.40878 6.27684 7.39071 6.23314 7.39072 6.18758C7.39074 6.14202 7.40884 6.09833 7.44106 6.06612C7.47327 6.0339 7.51696 6.01579 7.56252 6.01578C7.60808 6.01576 7.65178 6.03384 7.68402 6.06604L9.05894 7.44095C9.06695 7.44899 9.07415 7.45779 9.08044 7.46724C9.08323 7.47142 9.08512 7.47591 9.08751 7.48025C9.09072 7.48561 9.09363 7.49115 9.09624 7.49682C9.09834 7.50251 9.10013 7.50831 9.10161 7.5142C9.10306 7.51911 9.10497 7.52381 9.10597 7.5289C9.1104 7.55112 9.1104 7.57399 9.10597 7.59621C9.10497 7.60131 9.10306 7.60601 9.10161 7.61092C9.10013 7.6168 9.09834 7.6226 9.09624 7.62829C9.09363 7.63397 9.09072 7.6395 9.08751 7.64487ZM1.90378 3.37183C1.90166 3.37754 1.89985 3.38336 1.89835 3.38926C1.89692 3.39415 1.89503 3.39883 1.89402 3.40391C1.8896 3.42612 1.8896 3.449 1.89402 3.47121C1.89503 3.47629 1.89692 3.48097 1.89835 3.48586C1.89985 3.49176 1.90166 3.49758 1.90378 3.50329C1.90637 3.50895 1.90927 3.51447 1.91247 3.5198C1.91484 3.52415 1.91677 3.52868 1.91956 3.53287C1.92584 3.54232 1.93304 3.55112 1.94104 3.55916L3.31598 4.93408C3.33193 4.95005 3.35088 4.96273 3.37173 4.97138C3.39259 4.98003 3.41494 4.98448 3.43752 4.98449C3.4601 4.9845 3.48246 4.98006 3.50332 4.97142C3.52418 4.96278 3.54313 4.95012 3.5591 4.93416C3.57506 4.91819 3.58772 4.89924 3.59636 4.87838C3.605 4.85752 3.60944 4.83516 3.60943 4.81258C3.60942 4.79 3.60497 4.76765 3.59632 4.74679C3.58767 4.72594 3.57499 4.70699 3.55902 4.69104L2.47746 3.60943H8.9375C8.98308 3.60943 9.0268 3.59133 9.05903 3.55909C9.09127 3.52686 9.10938 3.48314 9.10938 3.43756C9.10938 3.39197 9.09127 3.34826 9.05903 3.31602C9.0268 3.28379 8.98308 3.26568 8.9375 3.26568H2.47746L3.55902 2.18408C3.575 2.16812 3.58767 2.14918 3.59632 2.12832C3.60497 2.10747 3.60943 2.08511 3.60943 2.06254C3.60944 2.03996 3.605 2.0176 3.59636 1.99674C3.58773 1.97588 3.57506 1.95693 3.5591 1.94096C3.54313 1.925 3.52418 1.91233 3.50332 1.9037C3.48246 1.89506 3.4601 1.89062 3.43752 1.89063C3.41494 1.89063 3.39259 1.89509 3.37173 1.90374C3.35088 1.91239 3.33193 1.92506 3.31598 1.94104L1.94107 3.31595C1.93305 3.32399 1.92585 3.33279 1.91956 3.34224C1.91677 3.34644 1.91484 3.35097 1.91247 3.35531C1.90927 3.36065 1.90637 3.36616 1.90378 3.37183Z" fill="black" fill-opacity="0.6"/>
<path d="M7.5625 5.91602C7.63457 5.916 7.70389 5.94419 7.75488 5.99512L9.12988 7.37012C9.14254 7.38281 9.15413 7.39719 9.16406 7.41211C9.16834 7.41858 9.17119 7.42451 9.17285 7.42773V7.42871H9.17383L9.1875 7.45508L9.19043 7.46191C9.19335 7.46981 9.1951 7.47819 9.19727 7.48633C9.19735 7.48659 9.19875 7.48878 9.19922 7.49023C9.20039 7.49385 9.20245 7.50143 9.2041 7.50977C9.21102 7.54476 9.21107 7.58123 9.2041 7.61621C9.20247 7.62428 9.20036 7.63123 9.19922 7.63477C9.19875 7.63622 9.19638 7.6384 9.19629 7.63867C9.19414 7.64676 9.19333 7.65524 9.19043 7.66309L9.1875 7.66992C9.18341 7.67884 9.17886 7.68786 9.17383 7.69629L9.17285 7.69531V7.69727C9.17116 7.70056 9.16857 7.70713 9.16406 7.71387L9.16309 7.71289C9.15318 7.72777 9.14249 7.74221 9.12988 7.75488L7.75488 9.12988C7.70389 9.18081 7.63457 9.209 7.5625 9.20898C7.49043 9.20896 7.42108 9.18084 7.37012 9.12988C7.31917 9.07892 7.29104 9.00956 7.29102 8.9375C7.29101 8.86545 7.3192 8.7961 7.37012 8.74512L8.28223 7.83398H2.0625C1.99039 7.83398 1.9211 7.80587 1.87012 7.75488C1.81915 7.7039 1.79102 7.63459 1.79102 7.5625C1.79103 7.49042 1.81914 7.42109 1.87012 7.37012C1.9211 7.31915 1.99041 7.29102 2.0625 7.29102H8.28223L7.37012 6.37988C7.31919 6.32889 7.29099 6.25957 7.29102 6.1875C7.29105 6.11545 7.31917 6.04607 7.37012 5.99512C7.42108 5.94417 7.49044 5.91604 7.5625 5.91602ZM3.4375 1.79102C3.47321 1.79101 3.509 1.79786 3.54199 1.81152C3.57481 1.82518 3.60475 1.84499 3.62988 1.87012C3.65501 1.89524 3.67482 1.92521 3.68848 1.95801C3.70213 1.99099 3.70899 2.02681 3.70898 2.0625C3.70897 2.09822 3.70216 2.134 3.68848 2.16699C3.67481 2.1998 3.65502 2.22976 3.62988 2.25488L2.71777 3.16602H8.9375C9.00959 3.16602 9.0789 3.19415 9.12988 3.24512C9.18086 3.29609 9.20897 3.36542 9.20898 3.4375C9.20898 3.50959 9.18085 3.5789 9.12988 3.62988C9.0789 3.68087 9.00961 3.70898 8.9375 3.70898H2.71777L3.62988 4.62012C3.65502 4.64523 3.6748 4.67521 3.68848 4.70801C3.70215 4.74098 3.70897 4.7768 3.70898 4.8125C3.709 4.84821 3.70214 4.88399 3.68848 4.91699C3.67482 4.94982 3.65502 4.97974 3.62988 5.00488C3.60475 5.03002 3.5748 5.04982 3.54199 5.06348C3.509 5.07714 3.47321 5.08497 3.4375 5.08496C3.40178 5.08495 3.366 5.07716 3.33301 5.06348C3.3002 5.0498 3.27024 5.03003 3.24512 5.00488L1.87012 3.62988C1.8575 3.61721 1.84584 3.60278 1.83594 3.58789C1.83168 3.58143 1.82882 3.57552 1.82715 3.57227C1.82658 3.57116 1.82548 3.56892 1.8252 3.56836V3.56641C1.82106 3.55921 1.81595 3.55247 1.8125 3.54492L1.80957 3.53809C1.80663 3.53016 1.80492 3.52183 1.80273 3.51367H1.80176C1.80169 3.51347 1.80122 3.51014 1.80078 3.50879C1.79964 3.50522 1.79746 3.49891 1.7959 3.49121L1.79102 3.4375C1.79102 3.41984 1.79246 3.40218 1.7959 3.38477L1.80078 3.36621C1.80111 3.36519 1.80148 3.36315 1.80176 3.3623L1.80273 3.36133C1.80492 3.35317 1.80663 3.34484 1.80957 3.33691L1.8125 3.33008C1.81608 3.32225 1.82088 3.31506 1.8252 3.30762H1.82422C1.82433 3.30739 1.8265 3.30401 1.82715 3.30273C1.82884 3.29944 1.83169 3.29354 1.83594 3.28711L1.87012 3.24512L3.24512 1.87012C3.27024 1.84499 3.30021 1.82519 3.33301 1.81152C3.366 1.79784 3.40178 1.79103 3.4375 1.79102Z" stroke="black" stroke-opacity="0.6" stroke-width="0.2"/>
</svg>
