<svg width="22" height="22" viewBox="0 0 22 22" fill="none" xmlns="http://www.w3.org/2000/svg">
<path d="M10.75 20.75C16.2728 20.75 20.75 16.2728 20.75 10.75C20.75 5.22715 16.2728 0.75 10.75 0.75C5.22715 0.75 0.75 5.22715 0.75 10.75C0.75 16.2728 5.22715 20.75 10.75 20.75Z" stroke="#FB8D00" stroke-width="1.5" stroke-linecap="round" stroke-linejoin="round"/>
<path d="M11.0626 4.70672L10.5626 4.70672L11.0626 4.70672ZM11.0626 10.4453L10.5626 10.4453C10.5626 10.7215 10.7864 10.9453 11.0626 10.9453L11.0626 10.4453ZM15.7292 10.4453L15.7292 10.9453L15.7292 10.4453ZM15.7292 11.4453L15.7292 10.9453L15.7292 11.4453ZM10.5626 11.4453L10.5626 11.9453L10.5626 11.4453ZM10.0626 10.9453L9.56258 10.9453L10.0626 10.9453ZM10.0626 4.70672L10.5626 4.70672L10.0626 4.70672ZM11.5626 4.70672C11.5626 4.15444 11.1149 3.70672 10.5626 3.70672L10.5626 4.70672V4.70672L11.5626 4.70672ZM11.5626 10.4453L11.5626 4.70672L10.5626 4.70672L10.5626 10.4453L11.5626 10.4453ZM15.7292 9.94531L11.0626 9.94531L11.0626 10.9453L15.7292 10.9453L15.7292 9.94531ZM16.7292 10.9453C16.7292 10.393 16.2815 9.94531 15.7292 9.94531L15.7292 10.9453V10.9453L16.7292 10.9453ZM15.7292 11.9453C16.2815 11.9453 16.7292 11.4976 16.7292 10.9453L15.7292 10.9453V10.9453L15.7292 11.9453ZM10.5626 11.9453L15.7292 11.9453L15.7292 10.9453L10.5626 10.9453L10.5626 11.9453ZM9.56258 10.9453C9.56258 11.4976 10.0103 11.9453 10.5626 11.9453L10.5626 10.9453V10.9453L9.56258 10.9453ZM9.56258 4.70672L9.56258 10.9453L10.5626 10.9453L10.5626 4.70672L9.56258 4.70672ZM10.5626 3.70672C10.0103 3.70672 9.56258 4.15444 9.56258 4.70672L10.5626 4.70672V4.70672L10.5626 3.70672Z" fill="#FB8D00"/>
</svg>
