<svg width="17" height="17" viewBox="0 0 17 17" fill="none" xmlns="http://www.w3.org/2000/svg">
<path d="M8.5 16.5C12.9183 16.5 16.5 12.9183 16.5 8.5C16.5 4.08172 12.9183 0.5 8.5 0.5C4.08172 0.5 0.5 4.08172 0.5 8.5C0.5 12.9183 4.08172 16.5 8.5 16.5Z" stroke="#8B8B8B" stroke-linecap="round" stroke-linejoin="round"/>
<path fill-rule="evenodd" clip-rule="evenodd" d="M8.5 3.15506C8.77614 3.15506 9 3.37891 9 3.65506L9 8.04394L12.5 8.04394C12.7761 8.04394 13 8.2678 13 8.54394C13 8.82009 12.7761 9.04394 12.5 9.04394L8.5 9.04394C8.22386 9.04394 8 8.82009 8 8.54394L8 3.65506C8 3.37891 8.22386 3.15506 8.5 3.15506Z" fill="#8B8B8B"/>
<path d="M9 3.65506L8.75 3.65506L9 3.65506ZM9 8.04394L8.75 8.04394C8.75 8.18202 8.86193 8.29394 9 8.29394L9 8.04394ZM12.5 8.04394L12.5 7.79394L12.5 8.04394ZM8 8.54394L8.25 8.54394L8 8.54394ZM8 3.65506L7.75 3.65506L8 3.65506ZM9.25 3.65506C9.25 3.24084 8.91421 2.90506 8.5 2.90506L8.5 3.40506C8.63807 3.40506 8.75 3.51699 8.75 3.65506L9.25 3.65506ZM9.25 8.04394L9.25 3.65506L8.75 3.65506L8.75 8.04394L9.25 8.04394ZM12.5 7.79394L9 7.79394L9 8.29394L12.5 8.29394L12.5 7.79394ZM13.25 8.54394C13.25 8.12973 12.9142 7.79394 12.5 7.79394L12.5 8.29394C12.6381 8.29394 12.75 8.40587 12.75 8.54394L13.25 8.54394ZM12.5 9.29394C12.9142 9.29394 13.25 8.95816 13.25 8.54394L12.75 8.54394C12.75 8.68202 12.6381 8.79394 12.5 8.79394L12.5 9.29394ZM8.5 9.29394L12.5 9.29394L12.5 8.79394L8.5 8.79394L8.5 9.29394ZM7.75 8.54394C7.75 8.95816 8.08579 9.29394 8.5 9.29394L8.5 8.79394C8.36193 8.79394 8.25 8.68202 8.25 8.54394L7.75 8.54394ZM7.75 3.65506L7.75 8.54394L8.25 8.54394L8.25 3.65506L7.75 3.65506ZM8.5 2.90506C8.08579 2.90506 7.75 3.24084 7.75 3.65506L8.25 3.65506C8.25 3.51699 8.36193 3.40506 8.5 3.40506L8.5 2.90506Z" fill="#8B8B8B"/>
</svg>
