<svg width="173" height="180" viewBox="0 0 173 180" fill="none" xmlns="http://www.w3.org/2000/svg">
<path d="M63.7738 180C98.9951 180 127.548 176.548 127.548 172.291C127.548 168.033 98.9951 164.582 63.7738 164.582C28.5525 164.582 0 168.033 0 172.291C0 176.548 28.5525 180 63.7738 180Z" fill="#EBEBEB"/>
<path d="M105.315 165.485C142.697 165.485 173 162.034 173 157.776C173 153.518 142.697 150.067 105.315 150.067C67.9343 150.067 37.6309 153.518 37.6309 157.776C37.6309 162.034 67.9343 165.485 105.315 165.485Z" fill="#EBEBEB"/>
<path d="M75.5683 172.342C74.4939 172.689 43.8291 172.291 42.6732 171.53C42.225 171.249 42.0265 166.767 41.9348 161.345V161.171C41.9348 160.053 41.8991 158.904 41.8941 157.735C41.8941 157.577 41.8941 157.418 41.8941 157.255C41.8533 149.428 41.9755 141.306 41.9755 141.306L62.4917 141.51L61.8654 157.301V157.929L61.7381 161.197V161.533C61.7381 161.533 73.4092 166.95 74.5957 167.92C75.7822 168.89 76.6427 172 75.5683 172.342Z" fill="#F7A9A0"/>
<path d="M66.3571 163.647C66.2754 163.647 66.2346 163.601 66.2295 163.576L66.3571 163.647Z" fill="#FFC727"/>
<path d="M75.5678 172.342C74.4934 172.689 43.8286 172.291 42.6676 171.53C42.2755 171.28 42.0718 167.711 41.9648 163.111C47.5662 164.285 69.3605 168.702 69.9716 166.838C70.2058 166.103 68.3421 164.832 67.1658 164.117C70.384 165.648 73.9485 167.415 74.5799 167.931C75.7359 168.896 76.6473 171.995 75.5678 172.342Z" fill="#263238"/>
<path opacity="0.1" d="M56.3306 172.291C49.4308 172.127 43.2082 171.862 42.6939 171.53C42.3018 171.28 42.0981 167.711 41.9912 163.111L45.2553 163.78L56.3306 172.291Z" fill="black"/>
<path d="M35.6768 52.7412C35.6768 52.7412 40.28 104.715 41.054 108.661C41.2272 109.565 41.3341 114.471 41.4054 120.787C41.5633 134.572 41.4716 159.394 41.4716 159.394H63.0826C63.0826 159.394 62.441 116.36 61.4888 108.437C60.5365 100.513 54.4107 52.7412 54.4107 52.7412H35.6768Z" fill="#2F2F3C"/>
<path d="M62.0896 155.616C58.7135 155.545 59.6861 155.519 56.31 155.489C54.6601 155.489 43.8139 155.376 42.271 155.632C42.2615 155.632 42.2525 155.635 42.2458 155.642C42.2391 155.649 42.2354 155.658 42.2354 155.667C42.2354 155.677 42.2391 155.686 42.2458 155.693C42.2525 155.699 42.2615 155.703 42.271 155.703C43.7986 155.958 54.6601 155.861 56.31 155.846C59.6861 155.815 58.7135 155.785 62.0896 155.718C62.1031 155.718 62.116 155.713 62.1256 155.704C62.1351 155.694 62.1405 155.681 62.1405 155.667C62.1405 155.654 62.1351 155.641 62.1256 155.631C62.116 155.622 62.1031 155.616 62.0896 155.616Z" fill="white"/>
<path d="M45.5556 131.018C45.5284 127.873 45.5046 124.73 45.4843 121.588C45.4843 118.525 45.4843 115.492 45.3213 112.455C45.0311 106.292 43.7937 100.237 42.8975 94.1517C42.0013 88.066 41.2731 81.9445 40.6009 75.8231C39.8524 68.9767 39.1904 62.0792 38.5081 55.1919C38.5081 55.1409 38.4317 55.146 38.4368 55.1919C39.4552 67.445 40.5907 79.6981 42.2864 91.9206C42.7074 94.9532 43.1674 97.9808 43.6664 101.003C44.1756 104.066 44.6848 107.13 44.914 110.193C45.1431 113.256 45.1889 116.258 45.2195 119.296L45.3111 128.721C45.3773 135.695 45.4486 146.437 45.5148 153.416C45.5148 153.549 45.7236 153.543 45.7236 153.416C45.637 147.228 45.6014 137.242 45.5556 131.018Z" fill="white"/>
<path d="M31.1191 52.7412C31.1191 52.7412 40.2799 104.715 41.0539 108.661C41.227 109.565 41.334 114.471 41.4052 120.787L51.6913 52.7412H31.1191Z" fill="#263238"/>
<path d="M50.4688 174.175C49.3689 174.445 18.811 171.867 17.7111 171.03C17.2885 170.718 17.4005 166.23 17.7111 160.819C17.7111 160.763 17.7111 160.706 17.7111 160.65C17.7671 159.532 17.8333 158.383 17.9148 157.219C17.9148 157.061 17.9148 156.898 17.9454 156.739C18.4546 148.928 19.1522 140.836 19.1522 140.836L39.592 142.495L37.8607 158.21L37.7945 158.833L37.438 162.085L37.4024 162.422C37.4024 162.422 48.6611 168.65 49.7763 169.702C50.8914 170.754 51.5636 173.909 50.4688 174.175Z" fill="#F7A9A0"/>
<path d="M50.4643 174.175C49.3695 174.445 18.8116 171.867 17.7117 171.03C17.3502 170.764 17.3756 167.456 17.5793 163.116C22.3099 164.331 45.1227 170.08 45.8203 168.191C45.9679 167.793 45.4842 167.201 44.8018 166.619C47.1646 167.992 49.2982 169.273 49.7514 169.682C50.8819 170.749 51.5642 173.904 50.4643 174.175Z" fill="#263238"/>
<path d="M38.3194 160.563L16.7236 159.644C16.7236 159.644 22.6203 112.133 22.7222 109.213C22.8851 104.873 24.9627 86.9529 26.7093 72.4534C26.7093 72.4534 23.3994 64.6012 29.5864 52.7361H54.4054C54.4054 52.7361 52.7403 64.0243 49.8938 71.1872C47.9824 71.857 46.1364 72.7013 44.379 73.7093C44.379 73.7093 41.9093 106.057 41.8329 110.091C41.6394 118.055 38.3194 160.563 38.3194 160.563Z" fill="#2F2F3C"/>
<path d="M37.749 156.596C34.378 156.382 35.3506 156.397 31.9796 156.219C30.3297 156.132 19.4988 155.58 17.9457 155.769C17.91 155.769 17.91 155.831 17.9457 155.836C19.4733 156.157 30.3196 156.525 31.9694 156.581C35.3404 156.688 34.3729 156.622 37.749 156.693C37.7592 156.69 37.768 156.684 37.7743 156.675C37.7806 156.666 37.784 156.656 37.784 156.645C37.784 156.634 37.7806 156.624 37.7743 156.615C37.768 156.606 37.7592 156.6 37.749 156.596Z" fill="white"/>
<path d="M31.1348 54.3903C31.1755 54.3086 31.0533 54.2371 31.0075 54.3188C28.2912 59.3288 27.5065 65.1652 28.8026 70.7175C29.1591 72.2492 29.7752 73.7349 29.821 75.3124C29.7807 76.9943 29.6104 78.6705 29.3118 80.326C28.8892 83.6803 28.4869 87.0346 28.0693 90.394C27.2478 97.0719 26.4314 103.752 25.62 110.433C24.8087 117.114 23.9973 123.797 23.186 130.482C22.3865 137.119 21.5718 143.787 20.8232 150.449C20.7265 151.297 20.6297 152.144 20.5381 153.002C20.5381 153.058 20.6196 153.084 20.6297 153.002C21.509 146.369 22.3577 139.731 23.1758 133.091C23.9939 126.45 24.8308 119.813 25.6862 113.18C26.5145 106.532 27.3412 99.8867 28.1661 93.2428L29.4391 83.2719C29.6428 81.6126 29.8465 79.9482 30.0451 78.2889C30.3023 76.7973 30.3023 75.2724 30.0451 73.7808C29.7192 72.3155 29.1947 70.9166 28.9299 69.4361C28.6721 67.9854 28.5511 66.5136 28.5684 65.0403C28.5987 62.1269 29.1435 59.242 30.1775 56.5192C30.4728 55.7994 30.7885 55.0897 31.1348 54.3903Z" fill="white"/>
<path d="M50.8406 70.687C48.605 71.5006 46.4445 72.5085 44.3838 73.6992C44.3023 73.7451 44.3533 73.8728 44.4398 73.8319C46.6193 72.8976 48.8394 71.9991 50.9578 70.9473C50.9906 70.9307 51.0157 70.9021 51.0279 70.8674C51.0402 70.8326 51.0386 70.7945 51.0235 70.7609C51.0084 70.7274 50.9809 70.7009 50.9469 70.6871C50.9128 70.6734 50.8748 70.6733 50.8406 70.687Z" fill="#263238"/>
<path d="M51.5337 55.7024C51.5337 55.6309 51.3962 55.6105 51.3962 55.7024C51.3976 58.1372 51.2753 60.5706 51.0295 62.993C50.9328 64.1162 50.0111 70.3295 48.0863 69.8751C47.7604 69.7985 47.5771 69.4769 47.5414 68.9868C47.5498 68.3437 47.6371 67.7041 47.8011 67.0824C48.015 65.7805 48.1881 64.4787 48.3103 63.1614C48.537 60.7164 48.5114 58.2545 48.234 55.8147C48.23 55.8008 48.2216 55.7886 48.2102 55.7799C48.1987 55.7712 48.1847 55.7665 48.1703 55.7665C48.1559 55.7665 48.1419 55.7712 48.1304 55.7799C48.119 55.7886 48.1106 55.8008 48.1067 55.8147C48.1647 59.2046 47.9672 62.5941 47.516 65.9541C47.2715 67.5726 46.4619 70.0028 48.1474 70.2529C49.8329 70.5031 50.9735 66.4289 51.2027 65.316C51.7276 62.1393 51.8389 58.9078 51.5337 55.7024Z" fill="white"/>
<path d="M48.1369 70.0438C47.9622 70.4623 47.8158 70.8921 47.699 71.3304C47.5753 71.6688 47.5132 72.0268 47.5157 72.3872C47.52 72.4008 47.5278 72.4131 47.5384 72.4227C47.5489 72.4324 47.5617 72.4391 47.5757 72.4422C47.5896 72.4453 47.604 72.4446 47.6177 72.4404C47.6313 72.4361 47.6435 72.4283 47.6532 72.4178C47.8545 72.1022 48.0073 71.758 48.1064 71.3968C48.2541 70.9985 48.4068 70.6054 48.5443 70.2021C48.5607 70.149 48.5565 70.0916 48.5323 70.0415C48.5082 69.9914 48.466 69.9524 48.4143 69.9323C48.3626 69.9122 48.3052 69.9126 48.2537 69.9332C48.2022 69.9539 48.1605 69.9935 48.1369 70.0438Z" fill="#263238"/>
<path d="M56.2133 25.9938C56.2167 26.0473 56.2004 26.1002 56.1676 26.1425C56.1348 26.1848 56.0876 26.2136 56.0351 26.2235L55.1541 26.2797C54.3648 24.2375 53.5094 22.5731 53.7334 23.2164C54.0693 24.2217 54.2563 25.271 54.2885 26.3307L52.5419 26.4226C51.8544 22.7824 50.9735 20.0867 51.0142 20.9189C51.2383 24.2783 51.0142 25.3556 50.8054 26.5094C46.5993 26.7085 41.0795 26.9076 37.0872 26.9638C36.6239 24.9574 36.2216 22.7773 36.1503 22.9305C35.6482 24.2211 35.4093 25.5995 35.4476 26.9842C34.1745 26.9842 33.1612 26.9842 32.54 26.9383C32.54 26.9383 32.2446 25.2484 32.1988 24.6919C32.0849 23.2654 32.2368 21.8301 32.6469 20.4594C33.1205 19.0872 33.7385 17.7694 34.4903 16.5282V16.4976C34.947 15.668 35.3042 14.7872 35.5545 13.8734C35.7219 13.2138 35.831 12.5407 35.8804 11.8619C36.0688 9.3806 37.459 7.23119 39.7861 6.57259C44.1806 2.41675 48.5853 4.15771 49.9143 7.34352C50.0416 7.64984 50.1689 8.00722 50.2911 8.39524C50.7443 9.82987 51.1466 11.6934 51.5183 13.1331C51.652 13.6984 51.8221 14.2543 52.0276 14.7975C53.2038 17.4115 55.7397 18.8614 56.2133 25.9938Z" fill="#263238"/>
<path d="M38.8134 7.22607C38.0754 7.56705 37.4385 8.09463 36.9654 8.75701C36.4922 9.41939 36.199 10.1938 36.1146 11.0041C36.0457 12.0476 35.8403 13.0776 35.5036 14.0674C35.0576 15.0578 34.4654 15.9751 33.7468 16.7886C32.6365 18.0288 31.9389 19.5848 31.7507 21.2406C31.5275 23.1277 31.701 25.0407 32.2599 26.8566C31.7921 24.9375 31.7227 22.9425 32.0562 20.9955C32.3872 19.0299 33.4973 17.7893 34.6328 16.2934C35.5379 15.1298 36.1147 13.7439 36.303 12.2805C36.3292 11.3732 36.4835 10.4742 36.7613 9.61032C37.2359 8.67508 37.9767 7.90213 38.8898 7.38944C38.8994 7.37424 38.9049 7.35688 38.906 7.33896C38.9072 7.32103 38.9037 7.3031 38.8961 7.28684C38.8885 7.27057 38.877 7.25649 38.8625 7.24587C38.8481 7.23525 38.8312 7.22845 38.8134 7.22607Z" fill="#263238"/>
<path d="M54.6494 17.5749C53.575 16.1709 52.4496 14.9711 51.8182 13.225C51.2428 11.6372 50.9118 9.95241 50.3262 8.36462C50.3262 8.33909 50.2804 8.36462 50.2905 8.36462C51.1918 11.1828 51.3701 14.0317 53.188 16.4006C54.2349 17.623 55.1182 18.9772 55.8155 20.4288C56.473 22.051 56.8185 23.7833 56.8339 25.5343C56.8315 25.5412 56.8308 25.5486 56.8318 25.5559C56.8329 25.5631 56.8356 25.57 56.8399 25.576C56.8441 25.582 56.8497 25.5868 56.8562 25.5902C56.8627 25.5936 56.8699 25.5953 56.8772 25.5953C56.8845 25.5953 56.8917 25.5936 56.8982 25.5902C56.9047 25.5868 56.9103 25.582 56.9146 25.576C56.9188 25.57 56.9215 25.5631 56.9226 25.5559C56.9236 25.5486 56.9229 25.5412 56.9205 25.5343C57.185 22.6895 56.3744 19.849 54.6494 17.5749Z" fill="#263238"/>
<path d="M49.1455 26.4432C57.135 34.4026 67.248 51.2046 65.4403 54.6508C63.4034 58.485 51.9003 47.1662 52.2415 46.5995C52.5266 46.1196 48.3816 35.9495 45.3671 28.5109C42.3526 21.0722 47.1646 24.4776 49.1455 26.4432Z" fill="#F7A9A0"/>
<path d="M49.1455 26.4432C57.135 34.4026 67.248 51.2046 65.4403 54.6508C63.4034 58.485 51.9003 47.1662 52.2415 46.5995C52.5266 46.1196 48.3816 35.9495 45.3671 28.5109C42.3526 21.0722 47.1646 24.4776 49.1455 26.4432Z" fill="#FFBD1B"/>
<path d="M60.6181 54.1709C56.7073 51.802 52.0073 46.9773 52.2262 46.6149C52.5063 46.1349 48.3664 35.9649 45.3519 28.5262C45.0565 27.7961 44.8426 27.1682 44.6797 26.6372L60.6181 54.1709Z" fill="#263238"/>
<path d="M26.7246 56.9022C27.6361 57.2902 54.7771 54.7017 55.4697 54.3954L51.7932 42.4282C51.7932 42.4282 54.3392 39.079 52.7861 35.2806C51.8594 32.978 46.0289 25.764 45.5044 25.3454C43.4064 23.6554 41.3085 23.487 39.3938 24.3243C38.5536 24.6765 37.5708 25.0697 36.9802 25.907C30.7219 34.77 26.7246 56.9022 26.7246 56.9022Z" fill="#FFBD1B"/>
<path d="M48.8597 29.0366C49.4759 29.8994 50.143 30.7316 50.7795 31.5893C50.5045 30.9767 50.2295 30.3589 49.9291 29.7565C50.3886 30.4771 50.7758 31.2415 51.085 32.0386C51.5634 32.6891 51.9972 33.3714 52.3835 34.0808C52.8613 34.9164 53.1921 35.8283 53.3612 36.7765C53.4985 37.735 53.4379 38.7117 53.183 39.6458C52.8838 40.7189 52.4848 41.7616 51.9914 42.7601C51.9303 42.8979 51.747 42.7907 51.7928 42.658C52.4599 40.8915 53.1982 39.0331 52.9691 37.1032C52.7399 35.1734 51.7164 33.5294 50.7184 31.9212C50.1356 30.9485 49.4892 30.0155 48.7834 29.1285C48.7732 29.0417 48.8343 29.0009 48.8597 29.0366Z" fill="#263238"/>
<path d="M40.3667 25.2434C40.5143 25.7233 43.0146 28.7151 45.2195 28.4751C45.9324 28.3934 45.6676 24.452 45.6676 24.452L45.7134 24.1559L46.3652 20.0205L41.3953 17.2482L40.6773 16.8857C40.6773 16.8857 40.5754 18.0294 40.4583 19.4385V19.6427C40.4583 19.7244 40.4583 19.7959 40.4329 19.8724C40.4329 20.0869 40.3972 20.3013 40.3819 20.5208C40.3667 20.7404 40.3565 20.8476 40.3514 21.0314L40.3208 21.5419C40.2543 22.7754 40.2696 24.0119 40.3667 25.2434Z" fill="#F7A9A0"/>
<path d="M40.458 19.4538C40.9421 20.5723 41.6627 21.5721 42.57 22.384C43.4774 23.1959 44.5498 23.8004 45.7131 24.1559L46.3649 20.0205L41.395 17.2482L40.677 16.8857C40.677 16.8857 40.5751 18.0294 40.458 19.4538Z" fill="#263238"/>
<path d="M51.7475 12.7502C53.4126 19.8978 49.3237 21.7153 47.7808 22.0727C46.3855 22.3995 41.5836 23.3287 39.1903 16.3801C36.797 9.4316 39.5926 6.39386 42.7548 5.47998C45.917 4.5661 50.1028 5.5923 51.7475 12.7502Z" fill="#F7A9A0"/>
<path d="M50.5101 11.5046C50.3369 11.5046 50.1791 11.5046 50.0008 11.4791C49.8223 11.4948 49.6436 11.4518 49.4916 11.3566C49.4507 11.316 49.4241 11.2631 49.4158 11.206C49.4076 11.1489 49.4181 11.0906 49.4458 11.04C49.5154 10.948 49.6083 10.8763 49.7148 10.8323C49.8214 10.7883 49.9377 10.7737 50.0518 10.7899C50.2872 10.7864 50.5156 10.87 50.6934 11.0247C50.732 11.063 50.7586 11.1118 50.77 11.1651C50.7815 11.2183 50.7772 11.2737 50.7578 11.3246C50.7384 11.3755 50.7046 11.4196 50.6606 11.4515C50.6166 11.4835 50.5643 11.5019 50.5101 11.5046Z" fill="#263238"/>
<path d="M45.8053 13.4598C45.9784 13.4598 46.1413 13.4598 46.3145 13.4292C46.4942 13.443 46.6734 13.3963 46.8237 13.2964C46.8658 13.2578 46.8937 13.206 46.9029 13.1496C46.9121 13.0931 46.9022 13.0351 46.8746 12.985C46.8043 12.8926 46.7104 12.8211 46.6028 12.7779C46.4952 12.7348 46.378 12.7217 46.2636 12.7399C46.0278 12.7365 45.7999 12.8243 45.627 12.985C45.588 13.0224 45.5609 13.0704 45.5489 13.1231C45.5369 13.1758 45.5406 13.2309 45.5596 13.2815C45.5786 13.3321 45.612 13.376 45.6557 13.4077C45.6994 13.4394 45.7514 13.4575 45.8053 13.4598Z" fill="#263238"/>
<path d="M46.9909 14.1543C46.9909 14.1543 46.9552 14.1849 46.9603 14.2003C47.0622 14.7108 47.1029 15.2724 46.6904 15.5175C46.6904 15.5175 46.6904 15.5481 46.6904 15.543C47.2251 15.3694 47.164 14.5985 46.9909 14.1543Z" fill="#263238"/>
<path d="M46.4562 13.7204C45.6568 13.8071 45.8859 15.4052 46.6243 15.3235C47.3626 15.2418 47.1284 13.6489 46.4562 13.7204Z" fill="#263238"/>
<path d="M46.1457 13.8378C46.0184 13.9501 45.9064 14.1288 45.7384 14.1696C45.5703 14.2105 45.3768 14.0726 45.2292 13.9297C45.2292 13.9297 45.1986 13.9297 45.2037 13.9297C45.2393 14.236 45.4023 14.5321 45.7384 14.5321C46.0745 14.5321 46.217 14.2309 46.2476 13.9092C46.268 13.8837 46.2069 13.802 46.1457 13.8378Z" fill="#263238"/>
<path d="M49.6438 13.5825C49.6438 13.5825 49.6846 13.5825 49.6897 13.6183C49.7406 14.1288 49.8832 14.6802 50.3516 14.7823V14.8129C49.7966 14.8078 49.6133 14.0624 49.6438 13.5825Z" fill="#263238"/>
<path d="M50.0163 13.0005C50.8056 12.832 51.0857 14.4249 50.3524 14.5832C49.6191 14.7415 49.3595 13.1435 50.0163 13.0005Z" fill="#263238"/>
<path d="M50.3671 13.0515C50.5045 13.1128 50.6573 13.2404 50.8101 13.2251C50.9628 13.2098 51.08 13.0107 51.1614 12.8269C51.1614 12.8269 51.1869 12.8269 51.192 12.8269C51.2531 13.1281 51.192 13.46 50.9272 13.5723C50.6624 13.6846 50.418 13.4447 50.306 13.1537C50.2805 13.1179 50.311 13.026 50.3671 13.0515Z" fill="#263238"/>
<path d="M49.3028 16.2882C49.4109 16.6408 49.501 16.9986 49.5727 17.3603C49.5727 17.391 49.4964 17.4216 49.3792 17.4471C49.0898 17.5485 48.7782 17.5684 48.4783 17.5044C48.1784 17.4405 47.9017 17.2953 47.6785 17.0846C47.6704 17.0792 47.6647 17.0708 47.6628 17.0612C47.6609 17.0517 47.6629 17.0417 47.6683 17.0336C47.6737 17.0255 47.6821 17.0198 47.6916 17.0179C47.7012 17.016 47.7111 17.018 47.7192 17.0234C48.2107 17.2571 48.7639 17.3269 49.2978 17.2225C49.2978 17.1204 48.8853 15.9972 48.9362 15.987C49.2108 15.969 49.4865 15.9879 49.756 16.0431C49.3487 14.5115 48.702 13.082 48.315 11.5656C48.315 11.5095 48.3812 11.4789 48.4015 11.5299C49.1447 13.0512 49.7333 14.6436 50.1583 16.2831C50.2194 16.4771 49.4505 16.329 49.3028 16.2882Z" fill="#263238"/>
<path d="M39.2662 16.7734C39.7186 16.5074 40.094 16.1279 40.3557 15.6722C40.6173 15.2166 40.756 14.7005 40.7582 14.1747C41.9935 13.5061 43.0301 12.5214 43.7626 11.3208C43.7219 11.4739 43.4571 12.5971 43.3043 13.1638C47.8872 11.9181 49.0329 8.23706 49.0329 8.23706C49.9899 8.98142 50.7648 9.93479 51.2989 11.0246C51.2989 11.0246 51.1004 8.16559 49.4811 6.36847C48.9544 5.73857 48.2689 5.26183 47.496 4.98795C46.7231 4.71406 45.891 4.65306 45.0865 4.8113C43.916 4.62789 42.7179 4.76278 41.6171 5.20192C40.5163 5.64105 39.5532 6.36834 38.8283 7.30787C36.0735 10.8511 39.2662 16.7734 39.2662 16.7734Z" fill="#263238"/>
<path d="M46.7779 12.107C46.0634 12.5786 45.2824 12.94 44.4609 13.1791C45.7378 12.7143 46.8608 11.903 47.7046 10.8357C48.0623 10.3779 48.3617 9.87708 48.5957 9.34493C48.8739 8.77357 49.035 8.15206 49.0693 7.51718C49.0693 7.5077 49.0731 7.49861 49.0798 7.49191C49.0864 7.48521 49.0955 7.48145 49.105 7.48145C49.1144 7.48145 49.1235 7.48521 49.1302 7.49191C49.1368 7.49861 49.1406 7.5077 49.1406 7.51718C49.1724 8.14626 49.0983 8.77622 48.9216 9.38068C48.7218 9.97475 48.4145 10.5268 48.0152 11.0093C47.655 11.4319 47.2387 11.8029 46.7779 12.1121" fill="#263238"/>
<path d="M40.4681 16.6662C40.4681 16.6662 38.5637 14.624 37.6165 15.3336C36.6694 16.0433 38.3294 19.1678 39.5974 19.418C39.7579 19.4657 39.9264 19.4802 40.0926 19.4607C40.2589 19.4412 40.4195 19.3881 40.5647 19.3046C40.7099 19.221 40.8366 19.1088 40.9373 18.9748C41.038 18.8407 41.1105 18.6875 41.1505 18.5246L40.4681 16.6662Z" fill="#F7A9A0"/>
<path d="M38.1152 16.2167V16.2474C38.5305 16.3871 38.9124 16.6117 39.2367 16.907C39.561 17.2023 39.8207 17.5618 39.9993 17.9628C39.9374 17.8892 39.8608 17.8295 39.7745 17.7874C39.6881 17.7453 39.594 17.7219 39.498 17.7185C39.4021 17.7151 39.3065 17.732 39.2174 17.7679C39.1284 17.8038 39.0478 17.858 38.9809 17.9271C38.9809 17.9271 38.9809 17.9781 39.0114 17.9679C39.1537 17.8992 39.3135 17.8761 39.4693 17.9017C39.6251 17.9273 39.7692 18.0003 39.8822 18.1109C40.0728 18.2985 40.2435 18.5056 40.3914 18.7286C40.4423 18.8001 40.5696 18.7286 40.5289 18.6571C40.3405 17.5544 39.2864 16.1606 38.1152 16.2167Z" fill="#263238"/>
<path d="M39.6538 6.69006C40.3464 6.42968 41.0033 2.54443 38.4572 0.691145C35.9111 -1.16214 32.642 0.95663 34.0118 4.14244C34.8774 6.14888 38.1822 7.23634 39.6538 6.69006Z" fill="#263238"/>
<path d="M34.8927 0.456299C34.1377 1.08739 33.6188 1.95684 33.4211 2.92224C33.3198 3.37144 33.338 3.83943 33.4738 4.27936C33.6097 4.71929 33.8584 5.11574 34.1951 5.42901C34.916 6.0661 35.796 6.4949 36.7411 6.66964C37.2203 6.77246 37.7077 6.83226 38.1975 6.84833C38.6939 6.88599 39.1929 6.83059 39.6691 6.68496C39.2199 6.93617 38.7208 7.08439 38.2077 7.11892C37.7002 7.17934 37.1874 7.17934 36.68 7.11892C35.6244 7.00421 34.6309 6.56152 33.8386 5.85277C33.4382 5.47269 33.1479 4.99107 32.9984 4.45898C32.8646 3.92813 32.8751 3.37103 33.029 2.84565C33.1623 2.34172 33.3962 1.87014 33.7166 1.45945C34.0369 1.04876 34.437 0.707493 34.8927 0.456299Z" fill="#263238"/>
<path d="M65.4196 54.707C63.4438 57.1116 58.5758 57.2189 46.3445 58.6433C44.6539 58.8373 40.0557 47.2377 41.8481 46.9365C44.1141 46.5536 52.9795 45.558 53.6364 45.5682C59.1817 45.6499 66.7537 53.0732 65.4196 54.707Z" fill="#F7A9A0"/>
<path d="M44.4557 46.5791C44.4557 46.5791 39.2923 46.9569 36.6393 47.9933C33.9109 49.1474 31.5003 50.9443 29.6121 53.2315C27.5753 55.6975 24.3367 63.0748 26.2921 64.3767C28.059 65.5612 30.9921 57.852 30.9921 57.852C30.9921 57.852 26.7096 65.2191 29.1029 66.2453C31.4962 67.2715 34.3886 58.1379 34.3886 58.1379C34.3886 58.1379 30.1621 65.7961 32.7947 66.4751C34.7857 66.9856 37.8868 58.8475 37.8868 58.8475C37.8868 58.8475 34.3224 65.4846 36.3236 66.0717C38.5641 66.7457 41.8791 59.4346 41.8791 59.4346C47.292 60.1188 50.1436 58.2247 52.0124 56.6318C52.4503 56.2131 44.4557 46.5791 44.4557 46.5791Z" fill="#F7A9A0"/>
<path d="M32.158 55.1919C31.6488 56.0394 31.0733 56.892 30.6303 57.7855C30.1873 58.6789 29.7443 59.5826 29.3726 60.5118C28.8623 61.7179 28.4915 62.9787 28.2676 64.2694C28.8328 62.0077 30.4216 58.7912 30.8747 57.9029C31.3279 57.0145 31.7455 56.1007 32.1987 55.2072C32.2038 55.1919 32.1681 55.1919 32.158 55.1919Z" fill="#263238"/>
<path d="M35.3969 56.8001C34.7604 57.908 34.0883 58.9903 33.5027 60.1289C32.9171 61.2674 32.4842 62.3906 31.975 63.5597C31.9394 63.6516 31.975 63.6414 32.0412 63.5597C32.5912 62.4059 33.1869 61.3848 33.7522 60.2463C34.3174 59.1078 34.8368 57.9335 35.4377 56.8154C35.4529 56.795 35.4071 56.7848 35.3969 56.8001Z" fill="#263238"/>
<path d="M38.4214 57.6681C37.4083 59.3497 36.5689 61.1305 35.916 62.9828C35.8804 63.0696 35.9619 63.0492 36.0026 62.9828C36.8021 61.201 37.4131 59.797 38.4825 57.7242C38.5079 57.6732 38.4468 57.6323 38.4214 57.6681Z" fill="#263238"/>
<path d="M42.7852 46.4769L52.1649 59.0976C52.1649 59.0976 64.4827 57.2648 65.5572 54.5027C66.6316 51.7407 58.5148 45.2772 53.6518 45.5273C48.7888 45.7775 42.7852 46.4769 42.7852 46.4769Z" fill="#FFBD1B"/>
<path d="M54.3701 56.933C53.0156 55.3452 47.7147 48.6417 46.6658 47.1152C46.5945 47.008 46.6403 46.9365 46.732 47.0386C50.9024 51.6999 53.1786 55.2533 54.4262 56.8769C54.4618 56.9177 54.4007 56.9739 54.3701 56.933Z" fill="#263238"/>
<path d="M33.5532 29.2714C28.68 35.3265 23.3689 44.3172 22.4167 51.6588C21.9533 55.2327 27.7838 59.2098 30.1618 58.3725C35.7632 56.4069 43.8037 51.3474 47.1492 47.794C48.3255 46.5381 38.3805 36.077 37.3927 37.629C36.4048 39.1811 35.7937 40.095 34.9128 40.6362C34.4851 40.9016 36.7409 37.2053 38.6759 30.5631C41.3136 21.4958 35.3202 27.0761 33.5532 29.2714Z" fill="#F7A9A0"/>
<path d="M47.8467 22.7977C47.8467 22.7977 46.3649 20.4696 48.03 19.5864C49.6952 18.7031 50.7849 21.2405 50.7849 21.2405L47.8467 22.7977Z" fill="#FF85BF"/>
<path d="M50.7414 21.1424L47.8027 22.7024L56.8667 39.8662L59.8054 38.3061L50.7414 21.1424Z" fill="#FFBD1B"/>
<path d="M50.9341 20.9201L47.5049 22.7405L47.8647 23.4218L51.2939 21.6014L50.9341 20.9201Z" fill="#37474F"/>
<path d="M51.3296 21.6727L47.9004 23.4932L48.2602 24.1745L51.6894 22.3541L51.3296 21.6727Z" fill="#37474F"/>
<path d="M59.7984 38.3082V41.0141V41.9025L59.06 41.3919L56.8398 39.8756L56.9111 39.2936L57.4203 39.5642L57.4916 38.9822L58.0008 39.2527L58.067 38.6707L58.5763 38.9413L58.6425 38.3593L59.1517 38.6299L59.2179 38.0479L59.7984 38.3082Z" fill="white"/>
<path d="M59.8131 41.009L59.8233 41.9025L59.085 41.397L59.8131 41.009Z" fill="#37474F"/>
<path d="M55.419 26.2542C56.2439 27.7194 52.4605 29.4604 52.4605 29.4604C53.1842 29.5147 53.8665 29.8197 54.3904 30.3232C55.2662 31.2575 54.1918 33.0444 54.1918 33.0444C54.9306 33.2576 55.5886 33.688 56.081 34.2799C56.8346 35.2602 56.0097 37.2207 56.0097 37.2207C56.5803 37.7915 56.9273 38.5489 56.9874 39.3548C57.0587 41.5144 54.1816 43.1685 52.603 44.547C50.9125 46.0225 47.7808 47.2631 46.4925 48.3302L36.9346 38.4409C36.9346 38.4409 41.268 30.2415 44.4862 28.2606C46.2837 27.1629 54.1511 24.0078 55.419 26.2542Z" fill="#F7A9A0"/>
<path d="M52.4094 29.4348C50.1739 29.9453 48.0709 31.0022 46.0544 32.0335C46.0086 32.059 46.0544 32.1305 46.09 32.1049C48.0862 31.0532 50.4133 30.5069 52.445 29.5522C52.4606 29.5475 52.4736 29.5367 52.4812 29.5224C52.4889 29.508 52.4905 29.4912 52.4858 29.4756C52.481 29.4601 52.4703 29.447 52.456 29.4393C52.4417 29.4317 52.4249 29.4301 52.4094 29.4348Z" fill="#263238"/>
<path d="M54.059 32.927C53.5631 33.0935 53.0907 33.3235 52.6536 33.6112C52.1749 33.8869 51.7013 34.1728 51.2329 34.4689C50.2891 35.0509 49.3623 35.6585 48.4526 36.2915C48.4118 36.3222 48.4526 36.3885 48.4882 36.363C49.4302 35.781 50.3774 35.2143 51.3398 34.6731C51.8184 34.4025 52.3022 34.1319 52.791 33.8716C53.264 33.6507 53.7114 33.3785 54.1252 33.0598C54.138 33.0486 54.1468 33.0335 54.1501 33.0169C54.1534 33.0002 54.1511 32.9828 54.1435 32.9676C54.1359 32.9524 54.1235 32.9402 54.1082 32.9328C54.0929 32.9255 54.0756 32.9234 54.059 32.927Z" fill="#263238"/>
<path d="M55.9691 37.241C55.5227 37.3976 55.106 37.6289 54.7368 37.9252C54.3141 38.2009 53.8915 38.4766 53.4637 38.7472C52.6083 39.2883 51.7579 39.8295 50.8871 40.3401C50.8464 40.3707 50.8871 40.4371 50.9228 40.4115C51.8088 39.901 52.705 39.3904 53.586 38.8799C54.0239 38.6246 54.4516 38.3694 54.8844 38.1039C55.3003 37.9027 55.6764 37.6277 55.9945 37.2921C55.9979 37.2904 56.0009 37.2881 56.0033 37.2853C56.0058 37.2824 56.0076 37.2792 56.0088 37.2756C56.01 37.272 56.0105 37.2683 56.0102 37.2645C56.0099 37.2608 56.0089 37.2572 56.0073 37.2538C56.0056 37.2505 56.0033 37.2475 56.0004 37.245C55.9976 37.2426 55.9943 37.2407 55.9908 37.2395C55.9873 37.2383 55.9835 37.2378 55.9798 37.2381C55.976 37.2384 55.9724 37.2394 55.9691 37.241Z" fill="#263238"/>
<path d="M43.8597 28.7151C44.7819 27.8053 45.9603 27.2012 47.2358 26.9844C47.2918 26.9844 47.2868 26.9844 47.2358 27.0252C46.0464 27.447 44.9167 28.0219 43.875 28.7355C43.875 28.7355 43.8445 28.7304 43.8597 28.7151Z" fill="#263238"/>
<path d="M47.4496 49.7904L37.2653 37.1953L35.1622 40.1718C35.1622 40.1718 37.9425 34.2801 39.0424 30.4714C40.1423 26.6627 40.5344 22.1546 35.0095 27.4081C29.5965 32.5136 21.9838 47.253 21.8361 51.5161C21.6885 55.7791 26.7959 58.9599 29.5303 58.7658C32.2648 58.5718 47.4496 49.7904 47.4496 49.7904Z" fill="#FFBD1B"/>
<path d="M44.3227 50.6736C42.8969 48.9684 37.3007 41.7952 36.1753 40.1614C36.0989 40.0491 36.1753 39.9725 36.2466 40.0798C40.6513 45.0729 43.0548 48.8714 44.394 50.6123C44.4195 50.6583 44.3584 50.7144 44.3227 50.6736Z" fill="#263238"/>
<path d="M25.6906 50.7043C26.4289 49.6832 27.264 48.7489 28.0635 47.7891C28.863 46.8293 29.6726 45.8644 30.5128 44.9301C31.353 43.9958 32.2441 43.087 33.1302 42.1782L34.8717 40.3811C35.3096 39.9369 35.3401 40.0543 34.9175 40.5496C34.4949 41.0448 33.6801 41.9383 33.2727 42.4131C32.4733 43.3525 31.684 44.3021 30.8591 45.2262C30.0342 46.1503 29.1838 47.059 28.313 47.9729C27.4423 48.8868 26.6326 49.8568 25.7364 50.7503C25.7262 50.786 25.6549 50.7452 25.6906 50.7043Z" fill="#263238"/>
<path d="M36.5065 36.7663C37.0157 35.6482 37.6421 34.5403 38.0851 33.3814C38.0851 33.3355 38.1767 33.3814 38.1564 33.4069C37.8407 34.1676 37.5657 34.9386 37.2754 35.7248L37.3416 35.6329C37.5606 35.347 37.7694 35.056 37.9731 34.7599C38.0036 34.719 38.0596 34.7599 38.0342 34.8058C37.8407 35.1053 37.6523 35.4117 37.4689 35.7248C37.3314 35.9772 37.1712 36.2164 36.9903 36.4396C36.9241 36.6081 36.8579 36.7765 36.7815 36.9501C36.2931 38.0835 35.7247 39.1806 35.0807 40.2329C35.072 40.2473 35.0581 40.2578 35.0419 40.2623C35.0258 40.2668 35.0085 40.265 34.9936 40.2572C34.9787 40.2494 34.9673 40.2363 34.9617 40.2204C34.9562 40.2045 34.9568 40.1871 34.9636 40.1717C35.4525 39.0178 35.9617 37.8844 36.5065 36.7663Z" fill="#263238"/>
<path d="M37.1834 37.1187C37.2292 37.0626 37.4787 37.3893 37.5959 37.5629C37.5959 37.5884 37.5959 37.5986 37.55 37.5629C37.5042 37.5271 37.3667 37.4301 37.2852 37.3485C36.9593 37.859 35.1873 40.2177 35.0702 40.3147C34.953 40.4117 34.9785 40.3147 35.0091 40.2433C35.1262 39.9829 36.7913 37.6344 37.1834 37.1187Z" fill="#263238"/>
<path d="M33.5071 57.2342C37.0716 55.192 40.7125 53.2264 44.4043 51.4037C45.4227 50.8932 46.38 50.352 47.3781 49.8211C47.2813 49.7394 46.4615 48.6468 46.436 48.606H46.4666C46.5633 48.703 47.6429 49.8057 47.7142 49.9232C47.7855 50.0406 43.9816 52.0011 42.1943 52.9864C40.407 53.9718 38.5432 54.8959 36.6999 55.8098C35.6509 56.3305 34.5968 56.8411 33.5377 57.3414C33.5235 57.3455 33.5083 57.3437 33.4954 57.3365C33.4825 57.3293 33.473 57.3173 33.4689 57.3031C33.4649 57.2889 33.4666 57.2736 33.4738 57.2607C33.481 57.2478 33.4929 57.2382 33.5071 57.2342Z" fill="#263238"/>
</svg>
