<svg width="300" height="331" viewBox="0 0 300 331" fill="none" xmlns="http://www.w3.org/2000/svg">
<path d="M103.69 330.981C160.956 330.981 207.379 325.384 207.379 318.479C207.379 311.575 160.956 305.978 103.69 305.978C46.4235 305.978 0 311.575 0 318.479C0 325.384 46.4235 330.981 103.69 330.981Z" fill="#EBEBEB"/>
<path d="M171.232 307.443C232.01 307.443 281.28 301.846 281.28 294.941C281.28 288.037 232.01 282.439 171.232 282.439C110.454 282.439 61.1841 288.037 61.1841 294.941C61.1841 301.846 110.454 307.443 171.232 307.443Z" fill="#EBEBEB"/>
<path d="M191.252 247.327L195.391 294.519H75.3416C75.3416 294.519 87.8185 200.234 87.8185 199.398C87.8185 198.562 55.1567 169.692 60.1739 108.409C66.3834 32.1153 121.441 0 175.256 0C229.071 0 270.559 37.621 280.353 90.9644L300 170.81L274.21 174.42C274.21 174.42 273.1 228.492 259.241 242.359C245.381 256.227 191.252 247.327 191.252 247.327Z" fill="#FFC727"/>
<g opacity="0.6">
<path d="M191.252 247.327L195.391 294.519H75.3416C75.3416 294.519 87.8185 200.234 87.8185 199.398C87.8185 198.562 55.1567 169.692 60.1739 108.409C66.3834 32.1153 121.441 0 175.256 0C229.071 0 270.559 37.621 280.353 90.9644L300 170.81L274.21 174.42C274.21 174.42 273.1 228.492 259.241 242.359C245.381 256.227 191.252 247.327 191.252 247.327Z" fill="white"/>
</g>
<path d="M172.722 182.964C157.601 182.972 142.759 178.888 129.772 171.143C116.784 163.399 106.135 152.283 98.954 138.976L98.5566 138.247L100.014 137.461L100.411 138.189C109.1 154.287 122.911 167.025 139.657 174.386C156.404 181.746 175.127 183.309 192.862 178.826C210.597 174.342 226.328 164.069 237.565 149.635C248.801 135.2 254.9 117.429 254.894 99.136C254.894 97.9107 254.894 96.6522 254.803 95.311C254.029 77.398 247.358 60.2428 235.827 46.5129L235.297 45.8754L236.572 44.8157L237.102 45.4532C248.866 59.4601 255.671 76.962 256.459 95.2365C256.517 96.5777 256.55 97.8859 256.55 99.136C256.557 110.146 254.393 121.05 250.182 131.223C245.972 141.397 239.798 150.64 232.012 158.426C224.227 166.211 214.983 172.386 204.81 176.596C194.636 180.806 183.733 182.97 172.722 182.964Z" fill="#FFC727"/>
<path d="M91.5853 120.347L91.3866 119.52C90.2966 115.17 89.5574 110.74 89.176 106.273C88.9773 103.93 88.8779 101.52 88.8779 99.1277C88.8785 83.9639 92.9923 69.0843 100.781 56.0737C108.57 43.0631 119.742 32.4088 133.107 25.2457C146.472 18.0826 161.53 14.679 176.677 15.3974C191.824 16.1157 206.492 20.9292 219.119 29.3251L219.815 29.7805L218.896 31.1548L218.209 30.6994C205.83 22.4705 191.451 17.7532 176.603 17.0498C161.755 16.3463 146.994 19.6832 133.893 26.705C120.792 33.7268 109.84 44.1706 102.205 56.9241C94.5691 69.6776 90.5356 84.2632 90.5338 99.1277C90.5338 101.471 90.6331 103.83 90.8318 106.132C91.2039 110.516 91.9265 114.862 92.9927 119.13L93.1914 119.958L91.5853 120.347Z" fill="#FFC727"/>
<path d="M149.226 167.978L148.447 167.705C134.121 162.582 121.74 153.133 113.02 140.665C111.426 138.389 109.969 136.02 108.657 133.57C102.973 122.982 99.9973 111.153 99.9971 99.136C99.9971 97.0828 100.088 94.9964 100.262 92.9266L100.337 92.0986L101.992 92.2394L101.926 93.0673C101.752 95.0875 101.661 97.1324 101.661 99.136C101.658 110.879 104.565 122.439 110.123 132.783C111.404 135.176 112.828 137.49 114.386 139.713C122.905 151.9 135.002 161.138 149.002 166.149L149.789 166.422L149.226 167.978Z" fill="#FFC727"/>
<path d="M172.722 171.861H171.894V170.205H172.722C185.763 170.214 198.554 166.627 209.689 159.84C218.676 154.341 226.339 146.929 232.134 138.131C233.466 136.119 234.69 134.038 235.802 131.897C241.086 121.787 243.828 110.543 243.791 99.1359C243.79 92.8467 242.954 86.5856 241.308 80.5158C238.669 70.6531 233.911 61.4846 227.365 53.6495C220.985 45.9902 213.064 39.7593 204.118 35.3617C195.171 30.9641 185.4 28.4983 175.438 28.1245C175.024 28.1245 174.61 28.1245 174.229 28.1245L174.146 27.2966V28.1245C173.086 28.1245 172.002 28.1245 170.942 28.1245H170.114C169.675 28.1245 169.286 28.1245 168.872 28.1742C168.309 28.1742 167.763 28.2321 167.216 28.2818H166.794C166.372 28.2818 165.966 28.348 165.594 28.3977H165.412L164.584 28.4805L163.756 28.5882C163.201 28.6627 162.721 28.7206 162.249 28.7951L161.785 28.8696C161.313 28.9359 160.899 29.0021 160.477 29.0849C159.649 29.2174 158.887 29.3747 158.117 29.5403C157.215 29.7224 156.313 29.9294 155.427 30.1529C151.424 31.1558 147.517 32.5106 143.753 34.2015C134.478 38.3663 126.201 44.4679 119.479 52.0964C112.758 59.7249 107.746 68.7037 104.782 78.4294L104.542 79.2573L102.953 78.7771L103.193 77.9906C106.832 65.9811 113.519 55.1187 122.603 46.4611C131.687 37.8036 142.859 31.6461 155.029 28.5882C155.932 28.3563 156.851 28.1493 157.778 27.9589C158.606 27.7933 159.376 27.6278 160.187 27.4953C160.601 27.4125 161.015 27.3463 161.495 27.28L161.959 27.2055C162.489 27.1227 162.977 27.0565 163.466 26.9985L164.418 26.8743L165.147 26.8081C165.248 26.7959 165.351 26.7959 165.453 26.8081C165.859 26.7584 166.281 26.7253 166.653 26.6922H167.109C167.655 26.6425 168.218 26.6094 168.765 26.5763C169.187 26.5763 169.593 26.5763 170.04 26.5266H170.868C171.952 26.5266 173.062 26.5266 174.179 26.5266H174.279C174.701 26.5266 175.107 26.5266 175.537 26.5266C185.728 26.9118 195.724 29.4364 204.876 33.9366C214.027 38.4368 222.13 44.8119 228.657 52.6477C237.808 63.6555 243.509 77.1177 245.046 91.3496C246.584 105.581 243.889 119.951 237.301 132.659C236.16 134.851 234.906 136.982 233.542 139.042C227.609 148.042 219.768 155.626 210.575 161.255C199.173 168.205 186.075 171.875 172.722 171.861Z" fill="#FFC727"/>
<path d="M112.813 110.478L111.878 109.8C109.091 93.9201 112.617 77.5801 121.705 64.2635C125.365 58.9328 129.834 54.2063 134.952 50.255L135.606 49.7417L136.616 51.0581L135.962 51.5631C130.97 55.4144 126.612 60.0238 123.047 65.2239C114.382 77.952 110.919 93.5139 113.368 108.715L123.047 107.299C122.614 104.6 122.395 101.87 122.392 99.1359C122.392 95.5033 122.781 91.8812 123.552 88.3314L123.734 87.5035L125.39 87.8512L125.216 88.6791C123.814 94.9916 123.668 101.518 124.785 107.887L124.098 108.856L112.813 110.478ZM131.077 73.8427L129.67 72.9568L130.109 72.253C133.365 67.1012 137.527 62.5821 142.395 58.9151L143.058 58.4184L144.051 59.7348L143.389 60.2398C138.685 63.7748 134.664 68.1375 131.525 73.1141L131.077 73.8427ZM148.042 44.3022L146.941 43.88L142.577 33.8289L143 32.736C149.911 29.6429 157.263 27.6511 164.791 26.8329C167.425 26.5497 170.073 26.4087 172.722 26.4107C173.716 26.4107 174.61 26.4107 175.471 26.4686H176.299L176.224 28.1245H175.396C174.569 28.1245 173.699 28.0665 172.731 28.0665C170.142 28.0662 167.555 28.2044 164.981 28.4805C157.897 29.2502 150.969 31.084 144.432 33.92L148.133 42.4808C161.29 36.7916 176.013 35.8378 189.794 39.7817L190.622 40.0052L190.158 41.6031L189.33 41.3713C175.649 37.4586 161.026 38.5055 148.042 44.327V44.3022Z" fill="#FFC727"/>
<path d="M172.722 160.875C163.151 160.902 153.706 158.679 145.152 154.384C136.155 149.88 128.387 143.257 122.517 135.085C117.083 127.568 113.441 118.908 111.87 109.767L112.565 108.806L123.047 107.299C122.614 104.6 122.395 101.87 122.393 99.136C122.392 95.5035 122.781 91.8814 123.552 88.3316L123.734 87.5036L125.39 87.8514L125.216 88.6793C123.814 94.9918 123.668 101.518 124.785 107.887L124.098 108.856L113.658 110.371C115.265 118.954 118.755 127.075 123.875 134.149C129.588 142.107 137.152 148.554 145.914 152.935C153.555 156.742 161.918 158.881 170.448 159.207C178.979 159.534 187.481 158.042 195.391 154.831L196.161 154.516L196.782 156.056L196.02 156.362C188.622 159.368 180.708 160.9 172.722 160.875ZM210.708 147.818L209.673 146.527L210.319 146.013C213.929 143.117 217.194 139.814 220.047 136.169C228.346 125.598 232.851 112.543 232.838 99.1029C232.84 91.2093 231.287 83.3927 228.266 76.1C225.245 68.8073 220.817 62.1815 215.234 56.6014C209.65 51.0214 203.022 46.5965 195.728 43.5797C188.433 40.563 180.616 39.0136 172.722 39.0202C164.213 38.9976 155.797 40.7987 148.042 44.3023L147.288 44.6418L146.609 43.135L147.363 42.7955C160.705 36.8092 175.735 35.733 189.794 39.757C202.689 43.4477 214.029 51.241 222.097 61.9559C230.165 72.6708 234.52 85.7235 234.502 99.136C234.519 108.164 232.54 117.083 228.707 125.257C224.68 133.853 218.732 141.408 211.32 147.338L210.708 147.818ZM131.078 73.8428L129.67 72.9569L130.109 72.2532C133.365 67.1013 137.528 62.5823 142.395 58.9153L143.058 58.4185L144.051 59.7349L143.389 60.24C138.685 63.7749 134.664 68.1376 131.525 73.1142L131.078 73.8428Z" fill="#FFC727"/>
<path d="M172.722 149.499C169.533 149.497 166.351 149.195 163.218 148.596C153.241 146.675 144.078 141.783 136.93 134.563C129.782 127.343 124.983 118.131 123.163 108.136C121.983 101.575 122.104 94.8458 123.519 88.3315L123.701 87.5036L125.357 87.8513L125.183 88.6793C123.792 94.9939 123.657 101.52 124.785 107.887C125.972 114.445 128.51 120.684 132.237 126.209C135.818 131.581 140.433 136.187 145.811 139.759C151.19 143.331 157.225 145.797 163.565 147.015C166.596 147.576 169.673 147.853 172.755 147.843C185.01 147.842 196.813 143.222 205.813 134.905C214.812 126.588 220.347 115.185 221.313 102.969C221.413 101.711 221.462 100.419 221.462 99.136C221.488 92.5385 220.162 86.0057 217.564 79.941C214.967 73.8762 211.154 68.4082 206.361 63.8745C202.692 60.3805 198.503 57.4784 193.942 55.2724C183.163 50.0589 170.842 48.9962 159.33 52.287C147.818 55.5777 137.92 62.9916 131.525 73.1142L131.077 73.818L129.67 72.9569L130.109 72.2532C133.365 67.1013 137.527 62.5823 142.395 58.9153C149.794 53.3451 158.583 49.9196 167.8 49.0141C177.017 48.1087 186.305 49.7583 194.646 53.7821C199.363 56.063 203.698 59.0627 207.495 62.674C212.447 67.3585 216.387 73.0073 219.073 79.2725C221.758 85.5377 223.132 92.2864 223.11 99.1029C223.11 100.428 223.06 101.761 222.961 103.06C221.963 115.69 216.238 127.478 206.93 136.072C197.623 144.667 185.416 149.435 172.747 149.424L172.722 149.499Z" fill="#FFC727"/>
<path d="M172.722 138.073C166.305 138.073 159.987 136.485 154.331 133.452C148.676 130.418 143.859 126.033 140.309 120.687C138.417 117.864 136.911 114.801 135.83 111.58C133.535 104.755 133.172 97.4283 134.778 90.4095C135.683 86.4144 137.223 82.5904 139.34 79.0835C143.312 72.4604 149.164 67.1689 156.153 63.8826C163.141 60.5962 170.95 59.4636 178.584 60.6289L179.412 60.7531L179.163 62.409L178.335 62.2848C171.027 61.1695 163.551 62.2539 156.861 65.4002C150.17 68.5465 144.567 73.6122 140.764 79.9528C138.737 83.3122 137.258 86.9735 136.384 90.7986C135.767 93.5346 135.459 96.3312 135.465 99.1359C135.46 103.19 136.12 107.218 137.419 111.058C138.451 114.145 139.89 117.079 141.7 119.784C147.032 127.813 155.268 133.462 164.677 135.546C174.087 137.63 183.938 135.987 192.162 130.961C195.969 128.647 199.333 125.672 202.097 122.177C207.252 115.608 210.03 107.486 209.979 99.1359C209.96 92.0422 207.927 85.0997 204.116 79.1166C200.305 73.1334 194.873 68.3558 188.453 65.3399L187.699 64.9921L188.403 63.4936L189.148 63.8413C195.856 66.9881 201.532 71.9767 205.513 78.2256C209.494 84.4746 211.617 91.7264 211.635 99.1359C211.674 107.864 208.755 116.347 203.355 123.204C199.714 127.848 195.063 131.604 189.756 134.185C184.449 136.767 178.624 138.108 172.722 138.106V138.073Z" fill="#FFC727"/>
<path d="M172.722 127.459C166.091 127.458 159.671 125.128 154.582 120.877L153.945 120.348L155.005 119.081L155.642 119.611C160.437 123.607 166.48 125.799 172.722 125.804C177.578 125.798 182.341 124.47 186.499 121.962L187.211 121.531L188.039 122.956L187.335 123.378C182.923 126.035 177.873 127.446 172.722 127.459Z" fill="#FFC727"/>
<path d="M198.943 109.891L197.394 109.303L197.684 108.533C198.817 105.53 199.395 102.346 199.39 99.136C199.39 92.0634 196.58 85.2804 191.579 80.2792C186.578 75.2781 179.795 72.4685 172.722 72.4685C165.649 72.4685 158.866 75.2781 153.865 80.2792C148.864 85.2804 146.054 92.0634 146.054 99.136C146.049 102.059 146.527 104.963 147.47 107.73L147.735 108.508L146.162 109.046L145.897 108.218C144.631 104.481 144.159 100.52 144.51 96.5888C144.862 92.658 146.03 88.8439 147.94 85.3904C149.85 81.9368 152.46 78.9198 155.602 76.5322C158.745 74.1447 162.351 72.4391 166.19 71.5247C168.331 71.0255 170.523 70.7727 172.722 70.7712C178.976 70.7717 185.055 72.8411 190.01 76.6568C194.965 80.4726 198.519 85.8204 200.118 91.8668C201.606 97.5707 201.29 103.595 199.216 109.113L198.943 109.891Z" fill="#FFC727"/>
<path d="M163.927 61.1669L162.338 61.635L165.811 73.4204L167.4 72.9523L163.927 61.1669Z" fill="#FFC727"/>
<path d="M206.848 62.1126L198.148 71.7036L199.375 72.8161L208.075 63.2251L206.848 62.1126Z" fill="#FFC727"/>
<path d="M202.469 121.518L201.526 122.879L212.296 130.347L213.239 128.987L202.469 121.518Z" fill="#FFC727"/>
<path d="M165.804 135.699L162.363 148.372L163.961 148.805L167.402 136.133L165.804 135.699Z" fill="#FFC727"/>
<path d="M191.626 144.001L190.104 144.654L195.255 156.661L196.777 156.008L191.626 144.001Z" fill="#FFC727"/>
<path d="M124.684 107.032L111.76 108.941L112.002 110.579L124.926 108.67L124.684 107.032Z" fill="#FFC727"/>
<path d="M144.024 138.394L135.432 147.848L136.657 148.961L145.25 139.508L144.024 138.394Z" fill="#FFC727"/>
<path d="M143.763 32.3906L142.245 33.05L147.267 44.6162L148.785 43.9567L143.763 32.3906Z" fill="#FFC727"/>
<path d="M141.211 119.107L130.355 126.407L131.279 127.781L142.135 120.481L141.211 119.107Z" fill="#FFC727"/>
<path d="M210.145 101.185L210.005 102.835L222.85 103.92L222.99 102.27L210.145 101.185Z" fill="#FFC727"/>
<path d="M177.843 125.267L176.237 125.669L179.222 137.596L180.828 137.194L177.843 125.267Z" fill="#FFC727"/>
<path d="M113.576 57.0338L112.577 58.3538L122.549 65.9069L123.549 64.5869L113.576 57.0338Z" fill="#FFC727"/>
<path d="M134.9 89.6347L134.6 91.2632L146.178 93.3965L146.478 91.7681L134.9 89.6347Z" fill="#FFC727"/>
<path d="M210.411 159.415L208.989 160.264L215.525 171.211L216.947 170.362L210.411 159.415Z" fill="#FFC727"/>
<path d="M236.162 131.156L235.421 132.637L246.832 138.344L247.572 136.863L236.162 131.156Z" fill="#FFC727"/>
<path d="M242.642 79.2445L230.667 83.2722L231.195 84.8417L243.17 80.814L242.642 79.2445Z" fill="#FFC727"/>
<path d="M223.68 131.148L222.727 132.501L233.042 139.767L233.996 138.414L223.68 131.148Z" fill="#FFC727"/>
<path d="M148.195 165.877L144.18 177.996L145.752 178.516L149.767 166.397L148.195 165.877Z" fill="#FFC727"/>
<path d="M256.398 94.3621L243.976 95.4402L244.119 97.0898L256.541 96.0118L256.398 94.3621Z" fill="#FFC727"/>
<path d="M101.823 104.316L89.1172 105.468L89.2667 107.117L101.973 105.965L101.823 104.316Z" fill="#FFC727"/>
<path d="M241.851 51.6574L230.961 58.3203L231.826 59.7328L242.716 53.0698L241.851 51.6574Z" fill="#FFC727"/>
<path d="M200.479 31.9497L195.81 43.6841L197.35 44.2967L202.019 32.5624L200.479 31.9497Z" fill="#FFC727"/>
<path d="M173.55 165.246C167.295 165.225 161.069 164.39 155.029 162.762C125.307 154.914 109.021 127.989 106.463 106.24C105.676 99.6162 106.686 91.5274 107.117 88.0749C107.216 87.338 107.283 86.7502 107.283 86.5929C107.051 86.3031 104.526 85.6325 102.679 85.1357C99.1357 84.2002 97.7117 83.7531 97.5213 83.157C96.6106 79.7377 105.461 45.9913 138.918 29.7225C152.126 23.2304 166.883 20.5497 181.531 21.9814C197.262 23.6373 212.305 30.2607 224.981 41.2721C225.132 41.3952 225.308 41.4854 225.496 41.5367C225.684 41.588 225.881 41.5994 226.074 41.5702C231.182 41.2059 244.479 25.8395 244.611 25.7071L244.81 25.467L245.282 25.8727L245.083 26.1128C244.528 26.7503 231.48 41.8434 226.123 42.1911C225.847 42.2241 225.567 42.2015 225.3 42.1248C225.033 42.048 224.783 41.9185 224.567 41.744C212.007 30.832 197.104 24.2168 181.49 22.6106C166.529 21.1252 151.458 23.9867 138.083 30.8519C124.707 37.7172 113.596 48.2948 106.082 61.3163C99.5414 72.4767 97.7117 81.4763 98.1257 83.008C98.3658 83.3557 101.057 84.076 102.837 84.5479C106.827 85.6077 107.904 85.9885 107.904 86.6012C107.904 86.7999 107.846 87.3132 107.738 88.166C107.307 91.5936 106.306 99.6079 107.076 106.173C109.609 127.7 125.745 154.392 155.195 162.174C166.739 165.361 178.924 165.418 190.498 162.34C199.199 159.972 204.821 156.42 206.104 155.361C206.8 154.781 205.326 152.595 204.142 150.84C202.958 149.085 201.791 147.371 202.031 146.378C202.062 146.241 202.123 146.112 202.208 146C202.294 145.889 202.403 145.797 202.527 145.732C212.082 140.433 219.657 130.829 223.863 118.733C227.895 107.142 228.359 94.2347 225.122 83.3723C217.505 57.781 193.147 42.5554 164.492 45.4946C137.585 48.2516 122.707 74.8612 122.707 77.494C122.757 77.8665 124.131 78.7938 130.407 81.112L131.499 81.5177C131.878 81.0262 132.227 80.5119 132.543 79.9778C135.084 75.9789 141.849 65.3565 154.979 59.2796C167.009 53.7242 179.213 54.4859 183.079 56.1334C183.709 56.3984 184.065 56.6881 184.172 57.0028C184.429 57.7479 184.056 59.4865 183.626 61.4653C183.104 63.8994 182.384 67.2608 183.27 67.6665C183.684 67.8817 184.156 68.1053 184.677 68.3619C189.984 70.9119 201.029 76.2272 205.086 90.5007C209.449 105.867 200.184 119.536 197.171 120.521C194.323 121.474 186.722 113.194 185.869 112.242L185.663 112.01L186.118 111.588L186.325 111.82C188.577 114.304 194.869 120.612 196.98 119.925C199.249 119.18 208.936 106.339 204.49 90.6663C200.507 76.6578 190.034 71.624 184.412 68.9084C183.882 68.66 183.402 68.4282 182.988 68.2129C181.672 67.5506 182.326 64.5286 182.988 61.3328C183.361 59.5859 183.758 57.781 183.551 57.1932C183.551 57.1187 183.336 56.9282 182.806 56.6964C179.147 55.1399 166.918 54.4279 155.211 59.8343C142.238 65.8202 135.548 76.3349 133.031 80.2841C131.988 81.9399 131.748 82.3125 131.375 82.1221C131.251 82.0559 130.787 81.882 130.191 81.6667C124.205 79.4562 122.086 78.355 122.086 77.4691C122.086 74.7866 137.162 47.6637 164.434 44.8571C193.412 41.8848 218.018 57.276 225.701 83.1736C228.971 94.1519 228.508 107.183 224.434 118.915C220.171 131.169 212.496 140.88 202.817 146.237C202.768 146.261 202.724 146.296 202.69 146.339C202.656 146.382 202.631 146.432 202.618 146.485C202.445 147.214 203.612 148.969 204.639 150.459C206.17 152.728 207.619 154.864 206.477 155.808C206.352 155.957 193.975 165.246 173.55 165.246Z" fill="#263238"/>
<path d="M168.077 105.213C168.056 103.767 168.314 102.33 168.839 100.982C169.507 99.5702 170.626 98.42 172.018 97.712C172.49 97.4305 173.086 97.0993 173.79 96.7351C174.514 96.3498 175.207 95.9068 175.86 95.4104C176.523 94.9053 177.099 94.2957 177.565 93.6055C178.034 92.9029 178.277 92.0738 178.261 91.2293C178.273 90.6163 178.14 90.0092 177.872 89.4576C177.631 88.96 177.29 88.5174 176.87 88.1577C176.441 87.7833 175.939 87.5015 175.396 87.3298C174.847 87.1558 174.275 87.0665 173.699 87.0649C173.038 87.0568 172.382 87.1806 171.77 87.4291C171.213 87.6616 170.689 87.9679 170.213 88.3399C169.749 88.7055 169.329 89.1252 168.963 89.59C168.625 90.0094 168.313 90.449 168.028 90.9065L163.847 88.0253C164.246 87.0581 164.806 86.1653 165.503 85.3842C166.185 84.6192 166.981 83.963 167.862 83.4385C168.752 82.9048 169.714 82.5005 170.718 82.238C171.753 81.9648 172.819 81.8284 173.889 81.8324C175.109 81.8311 176.323 82.0097 177.491 82.3622C178.656 82.6944 179.743 83.2575 180.687 84.0181C181.664 84.8203 182.45 85.83 182.988 86.9738C183.615 88.3175 183.921 89.7885 183.883 91.2707C183.896 92.189 183.773 93.1041 183.518 93.9863C183.287 94.748 182.938 95.4688 182.483 96.1224C182.032 96.7643 181.501 97.3458 180.902 97.8528C180.248 98.3972 179.556 98.8951 178.832 99.343C178.195 99.7239 177.557 100.088 176.911 100.444C176.293 100.785 175.706 101.178 175.156 101.62C174.642 102.037 174.205 102.542 173.865 103.11C173.511 103.732 173.336 104.44 173.36 105.155L168.077 105.213ZM168.168 116.407V109.783H173.5V116.407H168.168Z" fill="#37474F"/>
<path d="M122.865 318.562C121.118 319.125 71.2602 318.479 69.3808 317.246C68.6523 316.79 68.3294 309.521 68.1803 300.728V300.447C68.1803 298.634 68.1224 296.771 68.1141 294.875C68.1141 294.618 68.1141 294.362 68.1141 294.097C68.0479 281.405 68.2466 268.232 68.2466 268.232L101.604 268.563L100.585 294.171V295.19L100.378 300.488V301.035C100.378 301.035 119.355 309.819 121.284 311.392C123.213 312.965 124.612 318.007 122.865 318.562Z" fill="#EB9481"/>
<path d="M107.888 304.462C107.755 304.462 107.689 304.388 107.681 304.346L107.888 304.462Z" fill="#FFC727"/>
<path d="M122.865 318.562C121.118 319.125 71.2602 318.479 69.3725 317.246C68.735 316.84 68.4038 311.053 68.23 303.593C77.3372 305.497 112.773 312.659 113.766 309.637C114.147 308.445 111.117 306.383 109.204 305.224C114.437 307.708 120.232 310.572 121.259 311.409C123.138 312.973 124.62 317.999 122.865 318.562Z" fill="#263238"/>
<path opacity="0.1" d="M91.5855 318.479C80.367 318.214 70.2497 317.784 69.4135 317.246C68.776 316.84 68.4449 311.053 68.271 303.593L73.578 304.678L91.5855 318.479Z" fill="black"/>
<path d="M58.0049 124.612C58.0049 124.612 65.4893 208.895 66.7478 215.295C67.0293 216.76 67.2032 224.716 67.3191 234.958C67.5757 257.312 67.4267 297.566 67.4267 297.566H102.564C102.564 297.566 101.521 227.78 99.9726 214.93C98.4243 202.081 88.4643 124.612 88.4643 124.612H58.0049Z" fill="#455A64"/>
<path d="M100.949 291.439C95.4602 291.323 97.0416 291.282 91.5524 291.232C88.8699 291.232 71.235 291.05 68.7264 291.464C68.711 291.464 68.6963 291.47 68.6854 291.481C68.6746 291.492 68.6685 291.506 68.6685 291.522C68.6685 291.537 68.6746 291.552 68.6854 291.563C68.6963 291.574 68.711 291.58 68.7264 291.58C71.2102 291.994 88.8699 291.836 91.5524 291.812C97.0416 291.762 95.4602 291.712 100.949 291.605C100.971 291.605 100.992 291.596 101.008 291.58C101.023 291.565 101.032 291.544 101.032 291.522C101.032 291.5 101.023 291.479 101.008 291.463C100.992 291.448 100.971 291.439 100.949 291.439Z" fill="#263238"/>
<path d="M74.0665 251.55C74.0224 246.449 73.9837 241.352 73.9506 236.258C73.9506 231.29 73.9506 226.372 73.6857 221.446C73.2138 211.453 71.2019 201.634 69.7447 191.765C68.2876 181.896 67.1037 171.969 66.0108 162.042C64.7937 150.94 63.7174 139.754 62.608 128.586C62.608 128.503 62.4838 128.511 62.4921 128.586C64.148 148.456 65.9942 168.326 68.7512 188.147C69.4356 193.065 70.1836 197.974 70.9949 202.876C71.8228 207.843 72.6508 212.811 73.0233 217.778C73.3959 222.746 73.4704 227.614 73.5201 232.54L73.6691 247.824C73.7768 259.133 73.8927 276.553 74.0003 287.871C74.0003 288.086 74.3397 288.078 74.3397 287.871C74.199 277.836 74.141 261.642 74.0665 251.55Z" fill="#263238"/>
<path d="M50.5952 124.612C50.5952 124.612 65.4896 208.895 66.7481 215.295C67.0296 216.76 67.2035 224.716 67.3194 234.958L84.0435 124.612H50.5952Z" fill="#263238"/>
<path d="M82.0565 321.534C80.2681 321.973 30.5842 317.792 28.7959 316.434C28.1087 315.929 28.2908 308.652 28.7959 299.876C28.7959 299.785 28.7959 299.693 28.7959 299.602C28.8869 297.789 28.9945 295.926 29.127 294.039C29.127 293.782 29.127 293.517 29.1767 293.26C30.0046 280.593 31.1389 267.47 31.1389 267.47L64.3719 270.161L61.557 295.645L61.4493 296.655L60.8698 301.929L60.8118 302.475C60.8118 302.475 79.1173 312.576 80.9305 314.282C82.7436 315.987 83.8365 321.104 82.0565 321.534Z" fill="#EB9481"/>
<path d="M82.048 321.534C80.268 321.973 30.584 317.792 28.7957 316.434C28.2079 316.004 28.2493 310.639 28.5804 303.601C36.2719 305.572 73.3631 314.894 74.4973 311.831C74.7374 311.185 73.9509 310.225 72.8415 309.281C76.6831 311.508 80.1521 313.586 80.8889 314.248C82.7269 315.979 83.8364 321.095 82.048 321.534Z" fill="#263238"/>
<path d="M62.3019 299.462L27.1895 297.971C27.1895 297.971 36.7769 220.924 36.9424 216.189C37.2074 209.151 40.5853 180.091 43.4251 156.578C43.4251 156.578 38.0436 143.844 48.1029 124.603H88.4561C88.4561 124.603 85.7488 142.909 81.1207 154.525C78.0131 155.611 75.0117 156.98 72.1542 158.615C72.1542 158.615 68.1388 211.072 68.0146 217.613C67.7 230.528 62.3019 299.462 62.3019 299.462Z" fill="#455A64"/>
<path d="M61.3744 293.029C55.8935 292.681 57.4749 292.706 51.994 292.416C49.3115 292.275 31.7015 291.381 29.1763 291.688C29.1183 291.688 29.1183 291.787 29.1763 291.795C31.6601 292.317 49.2949 292.913 51.9774 293.004C57.4583 293.178 55.8852 293.07 61.3744 293.186C61.391 293.181 61.4054 293.17 61.4156 293.156C61.4258 293.142 61.4313 293.125 61.4313 293.107C61.4313 293.09 61.4258 293.073 61.4156 293.059C61.4054 293.045 61.391 293.034 61.3744 293.029Z" fill="#263238"/>
<path d="M50.6198 127.286C50.686 127.153 50.4873 127.037 50.4128 127.17C45.9965 135.294 44.7206 144.759 46.8279 153.763C47.4074 156.247 48.4092 158.656 48.4838 161.214C48.4181 163.942 48.1413 166.66 47.6558 169.344C46.9686 174.784 46.3146 180.223 45.6357 185.671C44.3 196.501 42.9725 207.333 41.6533 218.167C40.3342 229.002 39.015 239.84 37.6959 250.68C36.396 261.443 35.0713 272.256 33.8543 283.06C33.697 284.435 33.5397 285.809 33.3906 287.2C33.3906 287.291 33.5231 287.332 33.5397 287.2C34.9692 276.442 36.3491 265.679 37.6793 254.911C39.0095 244.142 40.3701 233.379 41.761 222.622C43.1077 211.842 44.4517 201.065 45.793 190.291L47.8628 174.122C48.194 171.431 48.5251 168.732 48.848 166.041C49.2662 163.622 49.2662 161.149 48.848 158.73C48.3182 156.354 47.4654 154.086 47.0349 151.685C46.6157 149.332 46.4189 146.946 46.4471 144.556C46.4963 139.832 47.3821 135.154 49.0633 130.738C49.5435 129.571 50.0568 128.42 50.6198 127.286Z" fill="#263238"/>
<path d="M82.6606 153.713C79.0256 155.033 75.5129 156.667 72.1624 158.598C72.03 158.673 72.1128 158.88 72.2535 158.813C75.797 157.298 79.4068 155.841 82.851 154.136C82.9043 154.109 82.9452 154.062 82.9651 154.006C82.985 153.95 82.9824 153.888 82.9579 153.833C82.9333 153.779 82.8887 153.736 82.8333 153.714C82.7779 153.691 82.716 153.691 82.6606 153.713Z" fill="#263238"/>
<path d="M83.7866 129.413C83.7866 129.298 83.563 129.264 83.563 129.413C83.5654 133.362 83.3665 137.308 82.9669 141.236C82.8096 143.058 81.3111 153.134 78.1815 152.397C77.6516 152.273 77.3536 151.751 77.2956 150.956C77.3093 149.913 77.4511 148.876 77.7178 147.868C78.0656 145.757 78.3471 143.646 78.5458 141.509C78.9143 137.544 78.8727 133.552 78.4216 129.596C78.4152 129.573 78.4016 129.553 78.3829 129.539C78.3642 129.525 78.3415 129.518 78.3181 129.518C78.2947 129.518 78.272 129.525 78.2533 129.539C78.2346 129.553 78.221 129.573 78.2146 129.596C78.3089 135.093 77.9879 140.589 77.2542 146.038C76.8568 148.663 75.5404 152.604 78.2808 153.009C81.0213 153.415 82.8758 146.808 83.2484 145.003C84.102 139.852 84.2829 134.611 83.7866 129.413Z" fill="#263238"/>
<path d="M78.2641 152.67C77.9799 153.349 77.742 154.046 77.5521 154.756C77.351 155.305 77.25 155.886 77.254 156.47C77.2611 156.492 77.2738 156.512 77.2909 156.528C77.308 156.543 77.3289 156.554 77.3515 156.559C77.3741 156.564 77.3977 156.563 77.4198 156.556C77.4419 156.549 77.4618 156.537 77.4776 156.52C77.8049 156.008 78.0533 155.45 78.2144 154.864C78.4545 154.218 78.7029 153.581 78.9264 152.927C78.9532 152.84 78.9462 152.747 78.907 152.666C78.8677 152.585 78.7991 152.522 78.715 152.489C78.631 152.457 78.5376 152.457 78.4539 152.491C78.3702 152.524 78.3024 152.588 78.2641 152.67Z" fill="#263238"/>
<path d="M91.3953 81.2365C91.4008 81.3233 91.3744 81.409 91.321 81.4777C91.2676 81.5463 91.191 81.593 91.1055 81.609L89.6732 81.7001C88.3899 78.3884 86.999 75.6894 87.3633 76.7325C87.9093 78.3628 88.2134 80.0644 88.2657 81.7829L85.4259 81.9319C84.3082 76.0288 82.8759 71.6574 82.9421 73.0069C83.3064 78.4546 82.9421 80.2016 82.6027 82.0727C75.764 82.3956 66.7892 82.7185 60.2983 82.8096C59.5449 79.5558 58.8908 76.0205 58.7749 76.2689C57.9586 78.3618 57.5701 80.5971 57.6324 82.8427C55.5625 82.8427 53.915 82.8427 52.9049 82.7682C52.9049 82.7682 52.4247 80.0277 52.3502 79.1253C52.1649 76.812 52.412 74.4845 53.0788 72.2617C53.8488 70.0364 54.8535 67.8994 56.0759 65.8867V65.837C56.8185 64.4917 57.3993 63.0633 57.8062 61.5815C58.0784 60.5118 58.2557 59.4202 58.3361 58.3194C58.6424 54.2957 60.9027 50.8101 64.6863 49.7421C71.8313 43.0028 78.9929 45.826 81.1538 50.9923C81.3608 51.489 81.5678 52.0686 81.7665 52.6978C82.5033 55.0243 83.1574 58.0462 83.7618 60.381C83.979 61.2976 84.2556 62.1992 84.5897 63.08C86.5022 67.319 90.6253 69.6703 91.3953 81.2365Z" fill="#263238"/>
<path d="M63.1051 50.8018C61.9052 51.3547 60.8697 52.2103 60.1003 53.2844C59.331 54.3586 58.8543 55.6143 58.7171 56.9284C58.6051 58.6207 58.271 60.2908 57.7236 61.896C56.9985 63.502 56.0356 64.9897 54.8672 66.3088C53.0621 68.32 51.9278 70.8433 51.6218 73.5284C51.259 76.5886 51.541 79.6909 52.4497 82.6356C51.6891 79.5236 51.5763 76.2884 52.1185 73.131C52.6567 69.9435 54.4616 67.9316 56.3078 65.5058C57.7794 63.6188 58.7172 61.3714 59.0234 58.9982C59.0659 57.5269 59.3168 56.0691 59.7686 54.6682C60.5402 53.1515 61.7446 51.8981 63.2293 51.0667C63.2448 51.042 63.2539 51.0139 63.2557 50.9848C63.2575 50.9557 63.2519 50.9267 63.2396 50.9003C63.2272 50.8739 63.2084 50.8511 63.1849 50.8339C63.1614 50.8166 63.134 50.8056 63.1051 50.8018Z" fill="#263238"/>
<path d="M88.8536 67.5839C87.1067 65.3071 85.277 63.3614 84.2503 60.5299C83.3148 57.9551 82.7766 55.2229 81.8245 52.648C81.8245 52.6066 81.75 52.648 81.7666 52.648C83.232 57.2182 83.5218 61.838 86.4775 65.6796C88.1797 67.6619 89.6159 69.8579 90.7496 72.212C91.8186 74.8427 92.3804 77.6518 92.4054 80.4913C92.4015 80.5025 92.4004 80.5145 92.402 80.5263C92.4037 80.538 92.4082 80.5492 92.4151 80.5589C92.422 80.5686 92.4311 80.5765 92.4416 80.582C92.4522 80.5874 92.4639 80.5903 92.4758 80.5903C92.4877 80.5903 92.4994 80.5874 92.51 80.582C92.5205 80.5765 92.5297 80.5686 92.5365 80.5589C92.5434 80.5492 92.5479 80.538 92.5496 80.5263C92.5513 80.5145 92.5501 80.5025 92.5462 80.4913C92.9762 75.8781 91.6583 71.2716 88.8536 67.5839Z" fill="#263238"/>
<path d="M79.9036 81.965C92.8938 94.8724 109.336 122.119 106.397 127.708C103.086 133.926 84.3827 115.571 84.9374 114.652C85.401 113.873 78.6617 97.381 73.7604 85.3181C68.859 73.2552 76.683 78.7775 79.9036 81.965Z" fill="#EB9481"/>
<path d="M79.9036 81.965C92.8938 94.8724 109.336 122.119 106.397 127.708C103.086 133.926 84.3827 115.571 84.9374 114.652C85.401 113.873 78.6617 97.381 73.7604 85.3181C68.859 73.2552 76.683 78.7775 79.9036 81.965Z" fill="#FFC727"/>
<path d="M98.5567 126.93C92.1982 123.088 84.5565 115.264 84.9125 114.676C85.3678 113.898 78.6368 97.4058 73.7354 85.3429C73.2553 84.1589 72.9075 83.1406 72.6426 82.2795L98.5567 126.93Z" fill="#263238"/>
<path d="M43.4502 131.359C44.9322 131.988 89.0607 127.791 90.1867 127.294L84.2091 107.887C84.2091 107.887 88.3487 102.456 85.8235 96.2964C84.3167 92.5625 74.837 80.8639 73.9842 80.185C70.5731 77.4445 67.1621 77.1713 64.049 78.5291C62.683 79.1004 61.0851 79.7379 60.1247 81.0957C49.9494 95.4685 43.4502 131.359 43.4502 131.359Z" fill="#FFC727"/>
<path d="M79.44 86.1709C80.4418 87.5701 81.5264 88.9196 82.5613 90.3105C82.1142 89.317 81.6671 88.3152 81.1786 87.3382C81.9257 88.5068 82.5553 89.7465 83.058 91.0391C83.8359 92.094 84.5412 93.2004 85.1693 94.3508C85.9462 95.7059 86.4839 97.1846 86.7589 98.7222C86.9822 100.277 86.8835 101.86 86.4691 103.375C85.9826 105.116 85.334 106.806 84.5318 108.426C84.4324 108.649 84.1344 108.475 84.2089 108.26C85.2935 105.395 86.4939 102.382 86.1214 99.2521C85.7488 96.1226 84.0847 93.4566 82.4619 90.8487C81.5144 89.2713 80.4634 87.7584 79.3158 86.3199C79.2992 86.1791 79.3986 86.1129 79.44 86.1709Z" fill="#263238"/>
<path d="M65.6302 80.0192C65.8703 80.7975 69.9354 85.6492 73.5203 85.26C74.6794 85.1276 74.2489 78.736 74.2489 78.736L74.3234 78.2558L75.3832 71.5495L67.3026 67.0539L66.1352 66.4661C66.1352 66.4661 65.9697 68.3206 65.7792 70.6057V70.9369C65.7792 71.0693 65.7792 71.1853 65.7378 71.3094C65.7378 71.6572 65.6799 72.0049 65.655 72.3609C65.6302 72.7169 65.6136 72.8908 65.6054 73.1888L65.5557 74.0168C65.4475 76.017 65.4724 78.0223 65.6302 80.0192Z" fill="#EB9481"/>
<path d="M65.7793 70.6305C66.5663 72.4445 67.738 74.0658 69.2132 75.3823C70.6885 76.6989 72.4321 77.6793 74.3235 78.2558L75.3833 71.5495L67.3027 67.0539L66.1353 66.4661C66.1353 66.4661 65.9697 68.3206 65.7793 70.6305Z" fill="#263238"/>
<path d="M84.1343 59.7601C86.8416 71.3511 80.1933 74.2985 77.6847 74.878C75.4162 75.4079 67.6088 76.9147 63.7176 65.6466C59.8263 54.3785 64.3716 49.4524 69.5131 47.9704C74.6545 46.4884 81.4601 48.1525 84.1343 59.7601Z" fill="#EB9481"/>
<path d="M82.1224 57.7398C81.8409 57.7398 81.5843 57.7398 81.2945 57.6984C81.0043 57.7239 80.7137 57.6541 80.4666 57.4997C80.4001 57.4339 80.3568 57.3482 80.3433 57.2555C80.3299 57.1629 80.347 57.0684 80.3921 56.9864C80.5053 56.8371 80.6563 56.7208 80.8295 56.6495C81.0027 56.5782 81.1918 56.5544 81.3773 56.5807C81.76 56.5751 82.1314 56.7107 82.4205 56.9616C82.4832 57.0237 82.5265 57.1028 82.5451 57.1891C82.5637 57.2755 82.5568 57.3654 82.5252 57.4479C82.4936 57.5303 82.4387 57.6019 82.3672 57.6537C82.2957 57.7055 82.2107 57.7354 82.1224 57.7398Z" fill="#263238"/>
<path d="M74.4725 60.9108C74.754 60.9108 75.0189 60.9108 75.3004 60.8612C75.5927 60.8836 75.884 60.8078 76.1283 60.6459C76.1968 60.5832 76.2421 60.4993 76.2571 60.4077C76.2722 60.3161 76.2559 60.2221 76.2111 60.1409C76.0968 59.9911 75.9441 59.875 75.7692 59.8051C75.5943 59.7351 75.4037 59.7138 75.2176 59.7435C74.8344 59.7379 74.4637 59.8802 74.1827 60.1409C74.1193 60.2014 74.0751 60.2793 74.0556 60.3648C74.0361 60.4502 74.0422 60.5396 74.0731 60.6216C74.104 60.7037 74.1583 60.7749 74.2293 60.8263C74.3003 60.8777 74.3849 60.9071 74.4725 60.9108Z" fill="#263238"/>
<path d="M76.4016 62.0369C76.4016 62.0369 76.3436 62.0866 76.3519 62.1114C76.5175 62.9393 76.5837 63.85 75.9131 64.2474C75.9131 64.2474 75.9131 64.2971 75.9131 64.2888C76.7824 64.0073 76.6831 62.7572 76.4016 62.0369Z" fill="#263238"/>
<path d="M75.5323 61.3331C74.2324 61.4739 74.605 64.0653 75.8055 63.9328C77.006 63.8004 76.6251 61.2172 75.5323 61.3331Z" fill="#263238"/>
<path d="M75.0272 61.5235C74.8202 61.7056 74.6381 61.9954 74.3649 62.0616C74.0917 62.1279 73.7771 61.9043 73.537 61.6725C73.537 61.6725 73.4873 61.6725 73.4956 61.6725C73.5535 62.1693 73.8185 62.6495 74.3649 62.6495C74.9113 62.6495 75.1431 62.161 75.1928 61.6394C75.2259 61.598 75.1266 61.4655 75.0272 61.5235Z" fill="#263238"/>
<path d="M80.7152 61.1094C80.7152 61.1094 80.7814 61.1094 80.7897 61.1673C80.8725 61.9953 81.1043 62.8894 81.866 63.055V63.1047C80.9636 63.0964 80.6655 61.8876 80.7152 61.1094Z" fill="#263238"/>
<path d="M81.3195 60.1657C82.6028 59.8925 83.0581 62.4756 81.8659 62.7323C80.6737 62.989 80.2515 60.3975 81.3195 60.1657Z" fill="#263238"/>
<path d="M81.8905 60.2483C82.114 60.3477 82.3624 60.5547 82.6108 60.5298C82.8592 60.505 83.0496 60.1821 83.1821 59.884C83.1821 59.884 83.2234 59.884 83.2317 59.884C83.3311 60.3725 83.2317 60.9107 82.8012 61.0928C82.3707 61.2749 81.9733 60.8858 81.7911 60.4139C81.7497 60.356 81.7994 60.2069 81.8905 60.2483Z" fill="#263238"/>
<path d="M80.1603 65.4975C80.336 66.0692 80.4825 66.6495 80.5991 67.2361C80.5991 67.2858 80.475 67.3355 80.2845 67.3769C79.814 67.5413 79.3073 67.5734 78.8197 67.4698C78.3321 67.3661 77.8823 67.1307 77.5193 66.789C77.5061 66.7803 77.4969 66.7666 77.4938 66.7511C77.4907 66.7355 77.4939 66.7194 77.5027 66.7062C77.5115 66.6931 77.5251 66.6839 77.5407 66.6808C77.5562 66.6777 77.5723 66.6809 77.5855 66.6897C78.3846 67.0687 79.284 67.1819 80.1521 67.0126C80.1521 66.847 79.4814 65.0256 79.5642 65.009C80.0106 64.9798 80.4589 65.0104 80.8972 65.1001C80.2349 62.6163 79.1834 60.2981 78.5542 57.8391C78.5542 57.7481 78.6618 57.6984 78.6949 57.7812C79.9032 60.2482 80.8602 62.8305 81.5513 65.4892C81.6506 65.8038 80.4004 65.5637 80.1603 65.4975Z" fill="#263238"/>
<path d="M63.8416 66.2841C64.5771 65.8528 65.1875 65.2373 65.6129 64.4984C66.0383 63.7595 66.2638 62.9225 66.2675 62.0699C68.2758 60.9856 69.9612 59.3888 71.1522 57.4418C71.086 57.6902 70.6555 59.5116 70.4071 60.4306C77.8585 58.4105 79.7213 52.4411 79.7213 52.4411C81.2771 53.6482 82.5372 55.1943 83.4056 56.9616C83.4056 56.9616 83.0827 52.3252 80.4499 49.4109C79.5936 48.3894 78.4791 47.6163 77.2224 47.1722C75.9656 46.728 74.6128 46.6291 73.3049 46.8857C71.4017 46.5883 69.4536 46.8071 67.6638 47.5192C65.8741 48.2313 64.3082 49.4107 63.1296 50.9343C58.6505 56.6801 63.8416 66.2841 63.8416 66.2841Z" fill="#263238"/>
<path d="M76.0537 58.7168C74.8921 59.4816 73.6222 60.0677 72.2866 60.4555C74.3627 59.7017 76.1885 58.3861 77.5605 56.6553C78.1421 55.9128 78.6288 55.1007 79.0094 54.2378C79.4617 53.3112 79.7235 52.3033 79.7794 51.2738C79.7794 51.2584 79.7855 51.2437 79.7963 51.2328C79.8072 51.2219 79.8219 51.2158 79.8373 51.2158C79.8527 51.2158 79.8674 51.2219 79.8783 51.2328C79.8892 51.2437 79.8953 51.2584 79.8953 51.2738C79.9469 52.2939 79.8266 53.3155 79.5393 54.2957C79.2144 55.2591 78.7148 56.1544 78.0656 56.9368C77.4798 57.6221 76.8029 58.2238 76.0537 58.7251" fill="#263238"/>
<path d="M65.7957 66.1101C65.7957 66.1101 62.6992 62.7984 61.1592 63.9492C59.6193 65.1 62.3183 70.167 64.3799 70.5726C64.6408 70.65 64.9148 70.6735 65.1851 70.6419C65.4554 70.6103 65.7165 70.5241 65.9526 70.3887C66.1886 70.2532 66.3948 70.0713 66.5585 69.8539C66.7222 69.6365 66.8401 69.3881 66.9051 69.1238L65.7957 66.1101Z" fill="#EB9481"/>
<path d="M61.9707 65.3816V65.4312C62.6459 65.6579 63.2668 66.0221 63.7941 66.5009C64.3213 66.9798 64.7436 67.5628 65.034 68.2131C64.9334 68.0938 64.8088 67.9969 64.6684 67.9287C64.5281 67.8605 64.375 67.8224 64.219 67.8169C64.063 67.8115 63.9076 67.8387 63.7628 67.897C63.6179 67.9552 63.4869 68.0432 63.3782 68.1551C63.3782 68.1551 63.3782 68.2379 63.4279 68.2214C63.6591 68.11 63.919 68.0725 64.1723 68.114C64.4256 68.1555 64.66 68.2739 64.8436 68.4532C65.1536 68.7575 65.431 69.0933 65.6715 69.455C65.7543 69.5709 65.9613 69.455 65.8951 69.3391C65.5887 67.5507 63.8749 65.2905 61.9707 65.3816Z" fill="#263238"/>
<path d="M64.4711 49.9324C65.597 49.5102 66.6651 43.2097 62.5254 40.2043C58.3858 37.1989 53.0705 40.6348 55.2976 45.8011C56.7051 49.0548 62.0783 50.8183 64.4711 49.9324Z" fill="#263238"/>
<path d="M56.7299 39.8235C55.5023 40.8469 54.6587 42.2568 54.3371 43.8224C54.1725 44.5508 54.2021 45.3097 54.423 46.0232C54.6438 46.7366 55.0482 47.3795 55.5956 47.8875C56.7678 48.9206 58.1986 49.616 59.7352 49.8994C60.5143 50.0661 61.3068 50.1631 62.1031 50.1891C62.9102 50.2502 63.7216 50.1604 64.4958 49.9242C63.7655 50.3316 62.954 50.5719 62.1197 50.6279C61.2946 50.7259 60.4609 50.7259 59.6359 50.6279C57.9195 50.4419 56.3042 49.724 55.016 48.5747C54.3651 47.9583 53.893 47.1773 53.65 46.3144C53.4324 45.4536 53.4496 44.5502 53.6996 43.6982C53.9164 42.881 54.2967 42.1162 54.8176 41.4502C55.3384 40.7843 55.989 40.2308 56.7299 39.8235Z" fill="#263238"/>
<path d="M106.364 127.799C103.152 131.699 95.2368 131.872 75.3499 134.182C72.6012 134.497 65.125 115.686 68.0393 115.198C71.7236 114.577 86.1378 112.963 87.2059 112.979C96.222 113.112 108.533 125.15 106.364 127.799Z" fill="#EB9481"/>
<path d="M72.2783 114.618C72.2783 114.618 63.8832 115.231 59.5696 116.912C55.1335 118.783 51.2142 121.697 48.1442 125.406C44.8325 129.405 39.5669 141.369 42.7462 143.48C45.6191 145.401 50.3879 132.899 50.3879 132.899C50.3879 132.899 43.425 144.846 47.3163 146.51C51.2076 148.174 55.9102 133.363 55.9102 133.363C55.9102 133.363 49.0384 145.782 53.3188 146.883C56.556 147.711 61.5981 134.514 61.5981 134.514C61.5981 134.514 55.8026 145.277 59.0563 146.229C62.6992 147.322 68.089 135.466 68.089 135.466C76.8899 136.575 81.5263 133.503 84.5648 130.92C85.2768 130.241 72.2783 114.618 72.2783 114.618Z" fill="#EB9481"/>
<path d="M52.2839 128.586C51.4559 129.96 50.5204 131.343 49.8001 132.792C49.0798 134.24 48.3595 135.706 47.7551 137.213C46.9254 139.169 46.3226 141.213 45.9585 143.306C46.8775 139.639 49.4606 134.423 50.1975 132.982C50.9343 131.541 51.6132 130.059 52.3501 128.611C52.3584 128.586 52.3004 128.586 52.2839 128.586Z" fill="#263238"/>
<path d="M57.5495 131.194C56.5146 132.99 55.4217 134.745 54.4696 136.592C53.5175 138.438 52.8137 140.259 51.9858 142.155C51.9278 142.304 51.9858 142.288 52.0934 142.155C52.9876 140.284 53.9563 138.628 54.8753 136.782C55.7943 134.936 56.6387 133.032 57.6157 131.218C57.6405 131.185 57.566 131.169 57.5495 131.194Z" fill="#263238"/>
<path d="M62.4676 132.601C60.8205 135.328 59.4556 138.216 58.3942 141.22C58.3362 141.36 58.4687 141.327 58.5349 141.22C59.8348 138.33 60.8283 136.053 62.5669 132.692C62.6083 132.609 62.509 132.543 62.4676 132.601Z" fill="#263238"/>
<path d="M69.563 114.453L84.8134 134.919C84.8134 134.919 104.841 131.947 106.588 127.468C108.335 122.989 95.1377 112.507 87.231 112.913C79.3243 113.319 69.563 114.453 69.563 114.453Z" fill="#FFC727"/>
<path d="M88.3982 131.409C86.1959 128.834 77.5772 117.963 75.8717 115.488C75.7558 115.314 75.8303 115.198 75.9793 115.364C82.76 122.922 86.4609 128.685 88.4893 131.318C88.5473 131.384 88.4479 131.475 88.3982 131.409Z" fill="#263238"/>
<path d="M54.5525 86.5517C46.6293 96.3709 37.994 110.951 36.4457 122.856C35.6923 128.652 45.1721 135.101 49.0385 133.744C58.1457 130.556 71.2187 122.351 76.6582 116.589C78.5707 114.552 62.4013 97.588 60.7951 100.105C59.1889 102.622 58.1954 104.104 56.7631 104.981C56.0676 105.412 59.7354 99.4177 62.8815 88.6463C67.1702 73.9423 57.4254 82.9916 54.5525 86.5517Z" fill="#EB9481"/>
<path d="M77.7923 76.0536C77.7923 76.0536 75.3831 72.2783 78.0904 70.846C80.7977 69.4137 82.5695 73.5285 82.5695 73.5285L77.7923 76.0536Z" fill="#FF85BF"/>
<path d="M82.4982 73.3691L77.7202 75.8989L92.4574 103.733L97.2353 101.203L82.4982 73.3691Z" fill="#FFC727"/>
<path opacity="0.2" d="M82.4982 73.3691L77.7202 75.8989L92.4574 103.733L97.2353 101.203L82.4982 73.3691Z" fill="black"/>
<path d="M82.8118 73.0086L77.2363 75.9607L77.8213 77.0655L83.3968 74.1135L82.8118 73.0086Z" fill="#37474F"/>
<path d="M83.4554 74.2291L77.8799 77.1812L78.4649 78.286L84.0404 75.3339L83.4554 74.2291Z" fill="#37474F"/>
<path d="M97.2238 101.206V105.594V107.035L96.0233 106.207L92.4136 103.748L92.5295 102.804L93.3574 103.243L93.4733 102.299L94.3012 102.738L94.4089 101.794L95.2368 102.233L95.3444 101.289L96.1724 101.728L96.28 100.784L97.2238 101.206Z" fill="white"/>
<path d="M97.2489 105.586L97.2654 107.035L96.0649 106.215L97.2489 105.586Z" fill="#37474F"/>
<path d="M90.1036 81.6587C91.4448 84.0348 85.2933 86.8581 85.2933 86.8581C86.47 86.9462 87.5793 87.4408 88.4312 88.2573C89.8552 89.7724 88.1083 92.6701 88.1083 92.6701C89.3094 93.0159 90.3794 93.7138 91.1799 94.6737C92.4052 96.2633 91.064 99.4426 91.064 99.4426C91.9917 100.368 92.5559 101.596 92.6536 102.903C92.7695 106.405 88.0917 109.088 85.5251 111.323C82.7764 113.716 77.6847 115.728 75.59 117.458L60.0498 101.421C60.0498 101.421 67.0955 88.1248 72.328 84.9124C75.2506 83.1324 88.0421 78.0158 90.1036 81.6587Z" fill="#EB9481"/>
<path d="M85.2105 86.8166C81.5759 87.6445 78.1566 89.3583 74.878 91.0307C74.8035 91.0721 74.878 91.188 74.9359 91.1466C78.1814 89.4411 81.965 88.5552 85.2685 87.007C85.2937 86.9993 85.3149 86.9819 85.3273 86.9586C85.3397 86.9353 85.3424 86.9081 85.3347 86.8828C85.327 86.8576 85.3096 86.8364 85.2863 86.824C85.263 86.8115 85.2358 86.8089 85.2105 86.8166Z" fill="#263238"/>
<path d="M87.8931 92.4796C87.0869 92.7496 86.3189 93.1225 85.6081 93.5891C84.8298 94.0361 84.0598 94.4998 83.2981 94.98C81.7637 95.9238 80.2569 96.909 78.7776 97.9357C78.7114 97.9854 78.7777 98.093 78.8356 98.0516C80.3673 97.1078 81.9072 96.1888 83.472 95.3111C84.2502 94.8723 85.0368 94.4336 85.8316 94.0113C86.6006 93.6532 87.3281 93.2118 88.0008 92.6949C88.0216 92.6768 88.0359 92.6523 88.0413 92.6253C88.0467 92.5982 88.0429 92.5701 88.0306 92.5455C88.0182 92.5208 87.998 92.5009 87.9731 92.489C87.9482 92.4771 87.9201 92.4738 87.8931 92.4796Z" fill="#263238"/>
<path d="M90.9979 99.4756C90.2721 99.7294 89.5946 100.105 88.9943 100.585C88.3071 101.032 87.6199 101.479 86.9245 101.918C85.5336 102.796 84.1509 103.673 82.7352 104.501C82.6689 104.551 82.7352 104.658 82.7931 104.617C84.2337 103.789 85.6909 102.961 87.1232 102.133C87.8352 101.719 88.5307 101.305 89.2344 100.875C89.9106 100.549 90.5221 100.103 91.0393 99.5584C91.0447 99.5557 91.0496 99.5519 91.0536 99.5473C91.0575 99.5427 91.0606 99.5374 91.0625 99.5316C91.0644 99.5259 91.0652 99.5198 91.0648 99.5137C91.0643 99.5076 91.0627 99.5017 91.06 99.4963C91.0573 99.4909 91.0535 99.486 91.0489 99.482C91.0443 99.478 91.039 99.475 91.0332 99.4731C91.0275 99.4711 91.0214 99.4704 91.0153 99.4708C91.0092 99.4713 91.0033 99.4729 90.9979 99.4756Z" fill="#263238"/>
<path d="M71.3097 85.6492C72.809 84.1738 74.725 83.1941 76.7989 82.8425C76.8899 82.8425 76.8816 82.8425 76.7989 82.9088C74.865 83.5927 73.0281 84.525 71.3345 85.6823C71.3345 85.6823 71.2849 85.674 71.3097 85.6492Z" fill="#263238"/>
<path d="M77.1465 119.826L60.5879 99.4013L57.1686 104.228C57.1686 104.228 61.689 94.6738 63.4774 88.4974C65.2657 82.3211 65.9032 75.0105 56.9202 83.5299C48.1193 91.8092 35.7418 115.711 35.5017 122.625C35.2616 129.538 43.5657 134.696 48.0117 134.381C52.4576 134.067 77.1465 119.826 77.1465 119.826Z" fill="#FFC727"/>
<path d="M72.0631 121.259C69.7449 118.493 60.646 106.861 58.8163 104.211C58.6921 104.029 58.8163 103.905 58.9322 104.079C66.0938 112.176 70.0016 118.336 72.1791 121.159C72.2205 121.234 72.1211 121.325 72.0631 121.259Z" fill="#263238"/>
<path d="M41.769 121.308C42.9695 119.652 44.3273 118.137 45.6272 116.581C46.927 115.024 48.2434 113.459 49.6095 111.944C50.9756 110.429 52.4245 108.955 53.8651 107.482L56.6966 104.567C57.4086 103.847 57.4583 104.038 56.7711 104.841C56.0839 105.644 54.7592 107.093 54.0969 107.863C52.797 109.386 51.5137 110.926 50.1725 112.424C48.8313 113.923 47.4486 115.397 46.0329 116.879C44.6171 118.361 43.3007 119.934 41.8435 121.383C41.827 121.441 41.7111 121.374 41.769 121.308Z" fill="#263238"/>
<path d="M59.3546 98.7057C60.1826 96.8926 61.2009 95.096 61.9212 93.2166C61.9212 93.1421 62.0702 93.2166 62.0371 93.258C61.5238 94.4916 61.0767 95.7418 60.6048 97.0168L60.7124 96.8677C61.0684 96.4041 61.4079 95.9322 61.7391 95.452C61.7887 95.3857 61.8798 95.452 61.8384 95.5265C61.5238 96.0122 61.2175 96.509 60.9194 97.0168C60.6958 97.426 60.4353 97.814 60.1412 98.1759C60.0335 98.4491 59.9259 98.7223 59.8017 99.0038C59.0076 100.842 58.0835 102.621 57.0364 104.327C57.0222 104.351 56.9997 104.368 56.9734 104.375C56.9471 104.382 56.919 104.379 56.8948 104.367C56.8705 104.354 56.852 104.333 56.843 104.307C56.8339 104.281 56.835 104.253 56.846 104.228C57.6408 102.357 58.4688 100.519 59.3546 98.7057Z" fill="#263238"/>
<path d="M60.4554 99.277C60.5299 99.1859 60.9356 99.7158 61.126 99.9973C61.126 100.039 61.126 100.055 61.0515 99.9973C60.977 99.9393 60.7535 99.782 60.621 99.6496C60.0911 100.477 57.2099 104.303 57.0195 104.46C56.8291 104.617 56.8705 104.46 56.9201 104.344C57.1106 103.922 59.8179 100.113 60.4554 99.277Z" fill="#263238"/>
<path d="M54.4782 131.897C60.2737 128.586 66.1934 125.398 72.1958 122.442C73.8517 121.614 75.4082 120.737 77.0309 119.876C76.8736 119.743 75.5407 117.972 75.4993 117.905H75.5489C75.7062 118.063 77.4615 119.851 77.5774 120.041C77.6933 120.232 71.5087 123.411 68.6026 125.009C65.6966 126.607 62.6664 128.105 59.6693 129.587C57.9637 130.432 56.2499 131.26 54.5278 132.071C54.5048 132.078 54.4801 132.075 54.4591 132.063C54.4381 132.052 54.4227 132.032 54.4161 132.009C54.4095 131.986 54.4123 131.961 54.424 131.94C54.4356 131.919 54.4551 131.904 54.4782 131.897Z" fill="#263238"/>
</svg>
