<svg width="155" height="180" viewBox="0 0 155 180" fill="none" xmlns="http://www.w3.org/2000/svg">
<path d="M78.9395 180C120.947 180 155 176.678 155 172.581C155 168.483 120.947 165.161 78.9395 165.161C36.9324 165.161 2.87891 168.483 2.87891 172.581C2.87891 176.678 36.9324 180 78.9395 180Z" fill="#EBEBEB"/>
<path d="M63.7598 122.086C63.7598 115.326 64.8617 109.252 67.0655 103.863C69.2693 98.4746 73.8147 93.7805 80.7015 89.7807C82.7704 88.5385 85.32 87.1302 88.3502 85.5556C91.4683 83.9147 94.4406 82.0092 97.2342 79.8601C100.09 77.696 102.569 75.0734 104.571 72.0986C106.589 69.0661 107.635 65.4884 107.569 61.8442C107.629 59.19 107.066 56.5587 105.924 54.1629C104.871 52.024 103.395 50.1221 101.586 48.573C99.727 47.0209 97.5762 45.8585 95.2609 45.1549C92.8874 44.4041 90.4133 44.0209 87.9243 44.0183C85.1035 43.9797 82.3031 44.5024 79.6854 45.5563C77.2773 46.5506 75.0183 47.8744 72.9728 49.4899C70.9791 51.0714 69.1751 52.8792 67.5968 54.8769C66.1439 56.6929 64.7993 58.5933 63.5701 60.5682H60.4583L45.5869 48.1463C47.307 43.9692 49.7175 40.1126 52.7169 36.7384C55.6498 33.4485 59.0614 30.6211 62.8364 28.3515C66.6766 26.0638 70.8202 24.3312 75.1442 23.2053C79.5954 22.0272 84.1807 21.435 88.7845 21.4434C94.0338 21.4464 99.2549 22.2135 104.284 23.7208C109.299 25.1999 113.971 27.6645 118.026 30.9711C122.214 34.4455 125.6 38.7907 127.947 43.7057C130.494 48.8829 131.767 55.0614 131.767 62.2413C131.831 66.1963 131.309 70.1389 130.22 73.9407C129.23 77.2293 127.729 80.3407 125.771 83.1599C123.832 85.9315 121.54 88.4371 118.953 90.6131C116.144 92.9582 113.174 95.1028 110.065 97.031C107.307 98.6929 104.553 100.282 101.801 101.797C99.1372 103.253 96.6123 104.95 94.2574 106.867C92.0399 108.668 90.151 110.841 88.6748 113.289C87.23 115.706 86.5076 118.64 86.5076 122.09L63.7598 122.086ZM64.1815 170.333V141.758H87.119V170.333H64.1815Z" fill="#FFD246"/>
<g opacity="0.2">
<path d="M63.7598 122.086C63.7598 115.326 64.8617 109.252 67.0655 103.863C69.2693 98.4746 73.8147 93.7805 80.7015 89.7807C82.7704 88.5385 85.32 87.1302 88.3502 85.5556C91.4683 83.9147 94.4406 82.0092 97.2342 79.8601C100.09 77.696 102.569 75.0734 104.571 72.0986C106.589 69.0661 107.635 65.4884 107.569 61.8442C107.629 59.19 107.066 56.5587 105.924 54.1629C104.871 52.024 103.395 50.1221 101.586 48.573C99.727 47.0209 97.5762 45.8585 95.2609 45.1549C92.8874 44.4041 90.4133 44.0209 87.9243 44.0183C85.1035 43.9797 82.3031 44.5024 79.6854 45.5563C77.2773 46.5506 75.0183 47.8744 72.9728 49.4899C70.9791 51.0714 69.1751 52.8792 67.5968 54.8769C66.1439 56.6929 64.7993 58.5933 63.5701 60.5682H60.4583L45.5869 48.1463C47.307 43.9692 49.7175 40.1126 52.7169 36.7384C55.6498 33.4485 59.0614 30.6211 62.8364 28.3515C66.6766 26.0638 70.8202 24.3312 75.1442 23.2053C79.5954 22.0272 84.1807 21.435 88.7845 21.4434C94.0338 21.4464 99.2549 22.2135 104.284 23.7208C109.299 25.1999 113.971 27.6645 118.026 30.9711C122.214 34.4455 125.6 38.7907 127.947 43.7057C130.494 48.8829 131.767 55.0614 131.767 62.2413C131.831 66.1963 131.309 70.1389 130.22 73.9407C129.23 77.2293 127.729 80.3407 125.771 83.1599C123.832 85.9315 121.54 88.4371 118.953 90.6131C116.144 92.9582 113.174 95.1028 110.065 97.031C107.307 98.6929 104.553 100.282 101.801 101.797C99.1372 103.253 96.6123 104.95 94.2574 106.867C92.0399 108.668 90.151 110.841 88.6748 113.289C87.23 115.706 86.5076 118.64 86.5076 122.09L63.7598 122.086ZM64.1815 170.333V141.758H87.119V170.333H64.1815Z" fill="black"/>
</g>
<path d="M60.6651 122.086C60.6651 115.326 61.7669 109.252 63.9707 103.863C66.1745 98.4747 70.7213 93.7805 77.611 89.7808C79.677 88.5386 82.2252 87.1302 85.2554 85.5556C88.3755 83.9158 91.3492 82.0103 94.1437 79.8601C96.9987 77.695 99.4775 75.0726 101.48 72.0986C103.495 69.0648 104.539 65.4878 104.474 61.8442C104.528 59.1964 103.962 56.5728 102.821 54.184C101.768 52.0451 100.292 50.1433 98.4824 48.5942C96.6238 47.042 94.473 45.8797 92.1577 45.176C89.7842 44.4253 87.3101 44.042 84.8211 44.0395C82.0002 43.9927 79.1982 44.5083 76.5779 45.5563C74.1687 46.5508 71.9083 47.8746 69.8611 49.4899C67.8688 51.0715 66.0662 52.8793 64.4894 54.8769C63.0351 56.6929 61.6891 58.5933 60.4584 60.5682L42.4795 48.1463C44.1984 43.9686 46.609 40.1118 49.6095 36.7385C52.5412 33.4474 55.953 30.6197 59.729 28.3516C63.568 26.0645 67.7101 24.332 72.0326 23.2054C76.4878 22.0258 81.0774 21.4335 85.6855 21.4435C90.9348 21.4461 96.156 22.2133 101.185 23.7208C106.201 25.1989 110.872 27.6637 114.927 30.9712C119.116 34.4446 122.502 38.79 124.848 43.7057C127.395 48.8829 128.669 55.0614 128.672 62.2414C128.735 66.1966 128.212 70.1392 127.121 73.9407C126.129 77.2306 124.623 80.3423 122.66 83.16C120.721 85.9315 118.429 88.4371 115.842 90.6131C113.034 92.9602 110.064 95.1049 106.953 97.0311C104.201 98.693 101.447 100.282 98.689 101.797C96.0256 103.253 93.5007 104.95 91.1458 106.867C88.9295 108.668 87.042 110.841 85.5674 113.289C84.1226 115.706 83.3988 118.64 83.3959 122.09L60.6651 122.086ZM61.0867 170.333V141.758H83.9989V170.333H61.0867Z" fill="#FFD246"/>
<path d="M51.2123 172.619C50.3142 172.906 24.7077 172.576 23.7422 171.943C23.3711 171.706 23.2024 167.967 23.1266 163.437V163.298C23.1266 162.364 23.097 161.401 23.0928 160.429C23.0928 160.294 23.0928 160.159 23.0928 160.028C23.0591 153.496 23.1603 146.714 23.1603 146.714L40.2917 146.888L39.7731 160.057L39.752 160.581L39.6466 163.311V163.59C39.6466 163.59 49.3824 168.127 50.3733 168.93C51.3641 169.733 52.1104 172.331 51.2123 172.619Z" fill="#AD6359"/>
<path d="M51.2123 172.619C50.3142 172.906 24.7077 172.576 23.7421 171.943C23.3711 171.706 23.2024 167.967 23.1265 163.438V163.298C23.1265 162.364 23.097 161.401 23.0928 160.429C23.0928 160.294 23.0928 160.159 23.0928 160.028L39.7773 160.074L39.7562 160.598L39.6508 163.328V163.607C39.6508 163.607 49.3823 168.127 50.3732 168.93C51.3641 169.733 52.1104 172.331 51.2123 172.619Z" fill="#EBEBEB"/>
<path d="M51.2124 172.619C50.6601 172.796 40.7388 172.737 32.9721 172.517C28.1231 172.386 24.1175 172.184 23.7422 171.943C23.367 171.702 23.2068 168.073 23.1309 163.628C23.1309 163.564 23.1309 163.501 23.1309 163.438C23.1309 163.374 23.1309 163.34 23.1309 163.294L39.6551 163.328V163.607C39.6551 163.607 49.4036 168.127 50.3902 168.934C51.3769 169.741 52.1105 172.332 51.2124 172.619Z" fill="#BDC1D3"/>
<path d="M50.9383 171.617C46.6206 171.457 29.2025 171.195 24.9228 171.377C24.889 171.377 24.889 171.402 24.9228 171.406C29.1982 171.66 46.6164 171.765 50.9341 171.689C51.0268 171.689 51.0268 171.622 50.9383 171.617Z" fill="#263238"/>
<path d="M41.4847 163.395C39.7981 163.057 37.711 163.29 36.3955 164.485C36.3449 164.532 36.3955 164.604 36.4671 164.587C38.0977 164.085 39.7768 163.757 41.4763 163.611C41.5014 163.607 41.5244 163.594 41.5414 163.575C41.5583 163.556 41.5681 163.532 41.5691 163.506C41.5701 163.481 41.5622 163.456 41.5468 163.436C41.5314 163.415 41.5095 163.401 41.4847 163.395Z" fill="#263238"/>
<path d="M42.7035 164.152C41.0169 163.814 38.9297 164.046 37.6142 165.242C37.5636 165.288 37.6142 165.36 37.6859 165.343C39.3108 164.842 40.9843 164.515 42.6782 164.367C42.7042 164.366 42.7291 164.356 42.7482 164.338C42.7673 164.32 42.7795 164.296 42.7826 164.27C42.7856 164.244 42.7793 164.218 42.7648 164.196C42.7503 164.175 42.7286 164.159 42.7035 164.152Z" fill="#263238"/>
<path d="M43.9173 164.908C42.2308 164.57 40.1436 164.802 38.8281 165.998C38.7775 166.044 38.8281 166.116 38.8998 166.099C40.5304 165.599 42.2096 165.273 43.9089 165.128C43.938 165.129 43.9663 165.118 43.9877 165.098C44.009 165.079 44.0216 165.051 44.0227 165.022C44.0239 164.993 44.0134 164.964 43.9936 164.943C43.9739 164.922 43.9464 164.909 43.9173 164.908Z" fill="#263238"/>
<path d="M43.7451 159.711C43.0873 158.781 41.8392 159.183 41.1224 159.77C39.9104 160.801 38.9913 162.135 38.4576 163.636C38.4548 163.642 38.4537 163.649 38.4542 163.656C38.4548 163.663 38.457 163.67 38.4608 163.676C38.4646 163.682 38.4697 163.686 38.4758 163.69C38.4818 163.693 38.4886 163.695 38.4956 163.695C38.4956 163.826 38.6136 163.966 38.7612 163.911C40.1695 163.408 41.738 163.066 42.9524 162.128C43.6607 161.591 44.3649 160.594 43.7451 159.711ZM40.7387 162.711C40.0514 162.977 39.3557 163.205 38.6811 163.492C39.2039 162.74 39.6888 161.971 40.2876 161.27C40.5714 160.931 40.8755 160.609 41.1983 160.307C41.7127 159.854 43.7282 158.9 43.3993 160.763C43.2222 161.79 41.5609 162.398 40.7387 162.711Z" fill="#263238"/>
<path d="M34.1437 163.133C35.5352 163.75 37.1459 163.742 38.6343 163.907C38.7861 163.907 38.8662 163.759 38.8409 163.632C38.8474 163.63 38.8534 163.626 38.8584 163.621C38.8633 163.616 38.8672 163.611 38.8696 163.604C38.872 163.598 38.873 163.591 38.8724 163.584C38.8718 163.577 38.8697 163.57 38.8662 163.564C37.9991 162.229 36.7984 161.143 35.3834 160.417C34.5401 159.994 33.2414 159.91 32.8198 160.966C32.3981 162.022 33.33 162.774 34.1437 163.133ZM33.3932 161.908C32.6511 160.172 34.831 160.641 35.4298 160.962C35.8165 161.177 36.1871 161.419 36.5387 161.688C37.2609 162.249 37.9534 162.847 38.6132 163.48C37.888 163.353 37.1585 163.294 36.4291 163.193C35.5605 163.078 33.8233 162.867 33.4016 161.908H33.3932Z" fill="#263238"/>
<path d="M32.9799 172.517C28.1309 172.386 24.1253 172.184 23.7501 171.943C23.3748 171.702 23.2146 168.073 23.1387 163.628C25.1204 165.406 30.0621 169.822 32.9799 172.517Z" fill="#263238"/>
<path d="M17.9023 72.8C17.9023 72.8 21.7477 116.158 22.3718 119.467C22.5194 120.223 22.6079 124.321 22.6669 129.586C22.7976 141.082 22.7217 161.811 22.7217 161.811H40.7724C40.7724 161.811 40.2369 125.897 39.4358 119.285C38.6346 112.673 33.5327 72.8085 33.5327 72.8085L17.9023 72.8Z" fill="#37474F"/>
<path d="M39.9541 158.659C37.1375 158.6 37.9471 158.579 35.1305 158.549C33.7517 158.549 24.6947 158.46 23.4045 158.672C23.3967 158.672 23.3892 158.675 23.3836 158.68C23.3781 158.686 23.375 158.693 23.375 158.701C23.375 158.709 23.3781 158.716 23.3836 158.722C23.3892 158.728 23.3967 158.731 23.4045 158.731C24.6947 158.942 33.7517 158.866 35.1305 158.849C37.9471 158.824 37.1375 158.803 39.9541 158.743C39.9653 158.743 39.976 158.739 39.9839 158.731C39.9918 158.723 39.9963 158.712 39.9963 158.701C39.9963 158.69 39.9918 158.679 39.9839 158.671C39.976 158.663 39.9653 158.659 39.9541 158.659Z" fill="#263238"/>
<path d="M26.1491 138.129C26.1266 135.504 26.1069 132.88 26.0901 130.257C26.0901 127.722 26.0901 125.187 25.9551 122.652C25.7106 117.51 24.6902 112.457 23.9312 107.374C23.1723 102.291 22.5735 97.1874 22.0127 92.0792C21.3845 86.3499 20.8321 80.608 20.2461 74.8745C20.2461 74.8364 20.1786 74.8364 20.1828 74.8745C21.0261 85.1162 21.9832 95.3537 23.3957 105.532C23.7499 108.067 24.135 110.594 24.5511 113.112C24.9727 115.647 25.3943 118.216 25.5925 120.797C25.7907 123.379 25.8202 125.868 25.8455 128.403C25.8764 131.028 25.9031 133.65 25.9256 136.27C25.9804 142.092 26.0352 151.058 26.0943 156.88C26.0986 156.9 26.1096 156.917 26.1253 156.93C26.141 156.943 26.1606 156.95 26.1807 156.95C26.2009 156.95 26.2204 156.943 26.2361 156.93C26.2518 156.917 26.2628 156.9 26.2671 156.88C26.2334 151.658 26.187 143.322 26.1491 138.129Z" fill="#263238"/>
<path d="M14.0947 72.8C14.0947 72.8 21.7476 116.158 22.3716 119.467C22.5192 120.223 22.6077 124.321 22.6668 129.586L31.2936 72.8H14.0947Z" fill="#263238"/>
<path d="M30.2521 174.148C29.3371 174.372 3.81492 172.222 2.89573 171.524C2.54155 171.262 2.63853 167.519 2.89573 162.998C2.89573 162.952 2.89573 162.901 2.89573 162.854C2.94633 161.925 3.00114 160.966 3.06861 159.994L3.09391 159.572C3.51555 153.052 4.10164 146.296 4.10164 146.296L21.1741 147.707L19.7278 160.805L19.673 161.325L19.3778 164.042L19.3483 164.321C19.3483 164.321 28.7468 169.522 29.6786 170.396C30.6105 171.271 31.167 173.924 30.2521 174.148Z" fill="#AD6359"/>
<path d="M30.2521 174.148C29.3371 174.372 3.81492 172.222 2.89573 171.524C2.54155 171.262 2.63853 167.519 2.89573 162.998C2.89573 162.952 2.89573 162.901 2.89573 162.854C2.94633 161.925 3.00114 160.966 3.06861 159.994L3.09391 159.572L19.7278 160.801L19.673 161.321L19.3778 164.038L19.3483 164.316C19.3483 164.316 28.7468 169.517 29.6786 170.392C30.6105 171.267 31.167 173.924 30.2521 174.148Z" fill="#EBEBEB"/>
<path d="M30.2521 174.148C29.3371 174.372 3.81492 172.222 2.89573 171.524C2.54155 171.263 2.63853 167.519 2.89573 162.998C2.89573 162.952 2.89573 162.901 2.89573 162.854L19.3778 164.059L19.3483 164.338C19.3483 164.338 28.7468 169.539 29.6786 170.413C30.6105 171.288 31.167 173.924 30.2521 174.148Z" fill="#BDC1D3"/>
<path d="M30.0284 173.13C25.736 172.661 8.37691 171.182 4.09722 171.043C4.06348 171.043 4.05927 171.068 4.09722 171.072C8.33897 171.63 25.7107 172.969 30.0242 173.185C30.1296 173.206 30.138 173.155 30.0284 173.13Z" fill="#263238"/>
<path d="M21.1994 164.257C19.5128 163.801 17.4426 163.885 16.0469 164.984C15.9921 165.026 16.0469 165.106 16.1102 165.094C17.7697 164.706 19.466 164.498 21.1699 164.473C21.1963 164.472 21.2217 164.463 21.2416 164.445C21.2614 164.428 21.2743 164.404 21.2779 164.378C21.2815 164.351 21.2755 164.325 21.2611 164.303C21.2467 164.281 21.2248 164.264 21.1994 164.257Z" fill="#263238"/>
<path d="M22.3629 165.098C20.6763 164.642 18.6018 164.726 17.2062 165.825C17.1556 165.867 17.2062 165.947 17.2694 165.934C18.929 165.547 20.6253 165.339 22.3292 165.313C22.356 165.314 22.3822 165.305 22.4028 165.288C22.4235 165.271 22.4372 165.247 22.4414 165.221C22.4455 165.194 22.4398 165.167 22.4254 165.144C22.4109 165.122 22.3887 165.105 22.3629 165.098Z" fill="#263238"/>
<path d="M23.523 165.939C21.8364 165.482 19.7619 165.567 18.3663 166.665C18.3157 166.708 18.3663 166.788 18.4337 166.775C20.0932 166.387 21.7895 166.179 23.4935 166.154C23.5199 166.154 23.5453 166.144 23.5652 166.127C23.585 166.11 23.5979 166.085 23.6015 166.059C23.6051 166.033 23.5991 166.006 23.5847 165.984C23.5703 165.962 23.5484 165.946 23.523 165.939Z" fill="#263238"/>
<path d="M23.7037 160.746C23.1176 159.77 21.8443 160.078 21.0853 160.615C19.7957 161.555 18.7774 162.82 18.1338 164.282C18.1338 164.316 18.1338 164.337 18.1675 164.346C18.1636 164.379 18.1675 164.412 18.1789 164.443C18.1903 164.474 18.2089 164.503 18.2331 164.525C18.2574 164.548 18.2866 164.564 18.3184 164.574C18.3502 164.583 18.3838 164.584 18.4163 164.578C19.8541 164.177 21.4479 163.927 22.7213 163.095C23.4971 162.592 24.2687 161.667 23.7037 160.746ZM20.495 163.522C19.7909 163.737 19.0825 163.915 18.3868 164.156C18.9366 163.422 19.5234 162.717 20.145 162.043C20.4506 161.723 20.7774 161.423 21.1233 161.147C21.6672 160.725 23.7417 159.918 23.2863 161.756C23.046 162.778 21.3425 163.268 20.5034 163.522H20.495Z" fill="#263238"/>
<path d="M13.8968 163.476C15.2419 164.19 16.8484 164.295 18.3199 164.561C18.4717 164.591 18.5645 164.435 18.5476 164.308C18.5541 164.306 18.5601 164.302 18.5651 164.297C18.5701 164.293 18.5739 164.287 18.5763 164.28C18.5787 164.274 18.5797 164.267 18.5791 164.26C18.5785 164.253 18.5764 164.246 18.5729 164.24C17.8051 162.846 16.6837 161.68 15.322 160.86C14.5209 160.391 13.2138 160.201 12.7289 161.224C12.244 162.246 13.1126 163.057 13.8968 163.476ZM13.2349 162.208C12.615 160.421 14.757 161.042 15.3431 161.405C15.7122 161.65 16.0644 161.92 16.3972 162.212C17.0783 162.823 17.7271 163.469 18.341 164.147C17.6242 163.97 16.9032 163.856 16.1822 163.725C15.3136 163.518 13.5848 163.188 13.2349 162.2V162.208Z" fill="#263238"/>
<path d="M20.107 162.787L2.07324 162.022C2.07324 162.022 6.99806 122.365 7.0866 119.919C7.32272 113.581 11.5181 72.7705 11.5181 72.7705H33.5448C33.5448 72.7705 32.1534 82.1968 29.7795 88.1711C28.1817 88.7315 26.6389 89.4387 25.171 90.2837C25.171 90.2837 23.1049 117.278 23.029 120.645C22.8604 127.313 20.107 162.787 20.107 162.787Z" fill="#37474F"/>
<path d="M19.6261 159.474C16.818 159.297 17.6275 159.31 14.8109 159.162C13.4364 159.09 4.38788 158.629 3.09343 158.786C3.06391 158.786 3.06391 158.836 3.09343 158.845C4.35836 159.111 13.4279 159.419 14.8025 159.462C17.6191 159.555 16.8138 159.5 19.6303 159.559C19.6415 159.558 19.652 159.553 19.6595 159.545C19.6671 159.537 19.671 159.526 19.6704 159.514C19.6698 159.503 19.6649 159.493 19.6566 159.485C19.6483 159.478 19.6373 159.474 19.6261 159.474Z" fill="#263238"/>
<path d="M13.1334 75.2041C12.3154 85.4839 11.4763 95.7679 10.536 106.048C9.59576 116.327 8.49527 126.649 7.16287 136.912C6.41655 142.637 5.57327 150.711 4.68359 156.424C4.68359 156.462 4.73419 156.479 4.74262 156.424C6.55991 146.284 7.89653 133.676 9.03075 123.43C10.165 113.184 11.0968 102.908 11.9275 92.6328C12.3955 86.819 12.8171 81.001 13.2641 75.1872C13.2683 75.1323 13.1629 75.1323 13.1334 75.2041Z" fill="#263238"/>
<path d="M30.5637 87.7739C28.6956 88.4595 26.8911 89.3077 25.1708 90.309C25.1563 90.3157 25.145 90.3279 25.1395 90.343C25.1339 90.3581 25.1346 90.3747 25.1413 90.3893C25.148 90.4038 25.1602 90.4151 25.1752 90.4207C25.1903 90.4262 25.2069 90.4256 25.2214 90.4188C27.0387 89.6372 28.8897 88.8893 30.6606 88.0063C30.6914 87.9934 30.7158 87.9688 30.7284 87.9379C30.7411 87.907 30.741 87.8723 30.7281 87.8415C30.7152 87.8107 30.6907 87.7863 30.6598 87.7736C30.629 87.7609 30.5944 87.761 30.5637 87.7739Z" fill="#263238"/>
<path d="M31.1418 75.2802C31.1418 75.2168 31.0279 75.2041 31.0279 75.2802C31.0279 77.4392 30.9056 79.3405 30.7243 81.3644C30.64 82.3023 29.881 87.4824 28.2619 87.1063C27.9921 87.0429 27.8403 86.7725 27.8108 86.3627C27.8138 85.8261 27.8861 85.2921 28.0258 84.774C28.2029 83.6882 28.3505 82.6023 28.4474 81.5038C28.6358 79.4634 28.6132 77.4089 28.38 75.3731C28.3767 75.3617 28.3698 75.3516 28.3603 75.3444C28.3508 75.3372 28.3392 75.3333 28.3273 75.3333C28.3154 75.3333 28.3038 75.3372 28.2943 75.3444C28.2848 75.3516 28.2778 75.3617 28.2746 75.3731C28.3226 78.1983 28.1577 81.0231 27.7812 83.8234C27.5789 85.1712 26.9 87.2035 28.3083 87.4063C29.7166 87.6091 30.6695 84.2206 30.8382 83.291C31.2857 80.6452 31.3877 77.9524 31.1418 75.2802Z" fill="#263238"/>
<path d="M28.304 87.2372C28.158 87.586 28.0369 87.9446 27.9414 88.3104C27.8349 88.5923 27.7834 88.8921 27.7896 89.1935C27.7896 89.2526 27.8697 89.2568 27.8992 89.2188C28.0669 88.9576 28.1948 88.6728 28.2787 88.3738C28.4009 88.04 28.5317 87.7104 28.6455 87.3724C28.6634 87.3271 28.6626 87.2764 28.6432 87.2316C28.6238 87.1869 28.5875 87.1516 28.5422 87.1337C28.4969 87.1158 28.4464 87.1166 28.4017 87.136C28.357 87.1555 28.3219 87.1918 28.304 87.2372Z" fill="#263238"/>
<path d="M20.9586 76.9744C20.9637 76.7485 20.941 76.5229 20.8911 76.3026C20.8879 76.2964 20.8831 76.2912 20.8771 76.2875C20.8712 76.2839 20.8643 76.282 20.8574 76.282C20.8504 76.282 20.8436 76.2839 20.8376 76.2875C20.8317 76.2912 20.8268 76.2964 20.8236 76.3026C20.7791 76.4939 20.7537 76.6893 20.7477 76.8857C20.7477 77.1096 20.6971 77.3082 20.6719 77.5532C20.625 78.0103 20.5461 78.4635 20.4357 78.9095C20.2305 79.7514 19.8022 80.5222 19.1961 81.1404C18.5916 81.7363 17.875 82.2059 17.0879 82.522C16.2167 82.8311 15.3283 83.0893 14.4273 83.2952C14.4183 83.2952 14.4098 83.2987 14.4034 83.3051C14.3971 83.3114 14.3936 83.32 14.3936 83.329C14.3936 83.3379 14.3971 83.3465 14.4034 83.3529C14.4098 83.3592 14.4183 83.3628 14.4273 83.3628C15.425 83.3608 16.4128 83.1657 17.3366 82.7882C18.1556 82.4803 18.901 82.0039 19.525 81.3896C20.1479 80.7551 20.5854 79.9616 20.7899 79.0954C20.8931 78.6488 20.9525 78.1931 20.967 77.7349C20.9789 77.4814 20.9761 77.2275 20.9586 76.9744Z" fill="#263238"/>
<path d="M42.5176 35.6612C43.8753 37.3048 45.3511 41.7454 45.2963 42.958C45.2415 44.1706 37.7826 46.9254 36.7285 46.2663C35.6743 45.6071 31.5254 39.7342 31.4874 37.5583C31.4495 35.3823 41.1094 33.9627 42.5176 35.6612Z" fill="#AD6359"/>
<path d="M31.2939 32.6443C30.6108 31.9303 28.4014 29.7966 27.419 30.7599C26.8034 31.3599 28.2876 33.0035 28.9116 33.6541C30.1976 34.9893 31.1927 37.3511 31.6565 38.5046C32.1203 39.658 34.2918 37.3807 34.2918 37.3807C34.2918 37.3807 33.0775 34.4992 31.2939 32.6443Z" fill="#AD6359"/>
<path d="M33.1066 39.7933C33.1066 39.7933 33.8698 41.8467 35.1136 41.8002C36.3575 41.7537 36.0413 39.9876 36.0244 39.8609C36.0623 39.9707 36.8129 41.8382 38.0609 41.665C39.309 41.4918 38.7777 39.7552 38.7398 39.6454C38.8073 39.7341 39.7686 40.9129 40.6836 40.5622C42.2605 39.9623 39.8951 36.8906 40.1228 35.5428C40.1228 35.5428 42.4503 35.6738 42.5177 35.6611C42.5177 35.6611 40.3252 32.7035 38.491 32.4838C38.2241 32.4467 37.9526 32.503 37.7222 32.643C37.4918 32.7831 37.3166 32.9984 37.2261 33.2528C37.2261 33.2528 36.6231 32.2176 35.6365 32.3232C35.1305 32.3782 34.7679 33.2401 34.7679 33.2401C34.62 33.0126 34.412 32.8306 34.1672 32.7142C33.9223 32.5979 33.6501 32.5518 33.3807 32.581C32.685 32.6951 32.3392 33.5654 32.3013 33.9034C32.0061 36.4892 33.1066 39.7933 33.1066 39.7933Z" fill="#AD6359"/>
<path d="M32.3811 33.6667C32.3811 33.6667 32.3516 33.6667 32.3473 33.6667C31.9672 35.7667 32.2333 37.9329 33.1105 39.8777C33.14 39.9368 33.2497 39.9157 33.2286 39.8439C32.65 37.8366 32.3645 35.756 32.3811 33.6667Z" fill="#263238"/>
<path d="M34.7639 33.2104C34.7639 33.1851 34.726 33.1851 34.7217 33.2104C34.3286 35.5293 34.7774 37.9125 35.9867 39.9284C36.0331 40.0002 36.1427 40.0171 36.0963 39.9284C35.3247 38.5256 34.7217 35.1667 34.7639 33.2104Z" fill="#263238"/>
<path d="M38.8834 39.7553C37.7281 37.7694 37.3191 35.6146 37.2221 33.3373C37.2221 33.3077 37.18 33.3119 37.1715 33.3373C36.9185 34.4654 37.1336 35.9062 37.395 37.0174C37.6189 38.051 38.1088 39.008 38.8159 39.7933C38.837 39.8271 38.8834 39.7975 38.8834 39.7553Z" fill="#263238"/>
<path d="M33.1064 39.7933C33.2899 40.1727 33.5072 40.5347 33.7558 40.8749C33.984 41.2156 34.2983 41.4897 34.6665 41.6692C34.8416 41.7366 35.0354 41.7366 35.2105 41.6692C35.3895 41.6051 35.5492 41.496 35.6743 41.3524C35.7848 41.1985 35.8622 41.0232 35.9014 40.8377C35.9406 40.6522 35.9408 40.4605 35.9019 40.2749L35.7459 39.3623L36.2098 40.1651C36.4125 40.524 36.6716 40.8479 36.9771 41.1242C37.1106 41.2599 37.2714 41.3655 37.4488 41.434C37.6262 41.5025 37.8162 41.5323 38.006 41.5214C38.1828 41.5106 38.3506 41.4393 38.4811 41.3193C38.6116 41.1992 38.6969 41.0379 38.7228 40.8622C38.7717 40.4673 38.721 40.0663 38.5752 39.6961L38.1999 38.6652L38.8872 39.5102C39.0784 39.7461 39.2979 39.9576 39.5407 40.1397C39.7661 40.3185 40.0387 40.4272 40.325 40.4524C40.4541 40.4583 40.5823 40.4283 40.6955 40.3656C40.8086 40.303 40.9022 40.2102 40.9659 40.0975C41.0653 39.8273 41.0872 39.5345 41.0292 39.2525C40.9083 38.629 40.7391 38.0159 40.5232 37.4188C40.422 37.1145 40.3208 36.8061 40.2365 36.4935C40.1331 36.1865 40.0957 35.8611 40.1268 35.5386C40.1325 35.8579 40.1983 36.1733 40.3208 36.4681C40.4304 36.7681 40.5527 37.0638 40.675 37.3638C40.9366 37.9615 41.1413 38.5825 41.2864 39.2187C41.3731 39.5605 41.3585 39.9202 41.2442 40.2538C41.1618 40.4288 41.03 40.5757 40.8651 40.6763C40.7002 40.777 40.5095 40.8269 40.3166 40.82C39.9602 40.7998 39.6181 40.6733 39.3341 40.4566C39.0597 40.2597 38.8117 40.0283 38.5963 39.7679L38.9083 39.582C39.0901 40.0153 39.1555 40.4887 39.098 40.9552C39.0595 41.2148 38.9311 41.4526 38.7354 41.627C38.5403 41.7897 38.3008 41.8898 38.0481 41.9143C37.807 41.9292 37.5656 41.892 37.34 41.8052C37.1145 41.7185 36.9103 41.5842 36.741 41.4115C36.4019 41.1069 36.1168 40.7469 35.8977 40.3468L36.2055 40.2369C36.245 40.4686 36.2338 40.7061 36.1726 40.9329C36.1115 41.1598 36.0018 41.3707 35.8514 41.5509C35.6889 41.7207 35.4856 41.8458 35.2611 41.9143C35.0324 41.985 34.7855 41.9669 34.5696 41.8636C34.1818 41.6511 33.8617 41.3333 33.6462 40.9467C33.4233 40.584 33.2422 40.197 33.1064 39.7933Z" fill="#263238"/>
<path d="M35.8472 45.3916C35.8472 45.3916 27.8065 41.2721 30.9561 38.9145C31.888 38.2131 36.564 36.4512 36.9351 37.385C37.4158 38.5892 35.5985 39.6919 34.3504 40.1989C34.3504 40.1989 37.2808 41.2172 37.1839 43.4692C37.1595 43.8819 37.0217 44.2799 36.7859 44.6191C36.55 44.9584 36.2252 45.2257 35.8472 45.3916Z" fill="#AD6359"/>
<path d="M30.707 39.1257C31.0389 38.8059 31.417 38.5381 31.8286 38.3314C32.2376 38.113 32.6601 37.9211 33.0935 37.7568C33.9545 37.4179 34.8433 37.155 35.7499 36.9709C35.991 36.9203 36.2383 36.906 36.4836 36.9287C36.632 36.9378 36.7763 36.9812 36.9052 37.0554C36.9722 37.0943 37.0321 37.1443 37.0823 37.2033C37.132 37.262 37.1706 37.3293 37.1962 37.4019C37.2931 37.6621 37.2931 37.9486 37.1962 38.2089C37.1073 38.4462 36.9758 38.6653 36.8082 38.8553C36.4905 39.2155 36.1124 39.5173 35.6909 39.7468C35.2854 39.9794 34.8625 40.18 34.4259 40.3468V40.0468C34.7563 40.1761 35.0739 40.3359 35.3746 40.5242C35.6771 40.707 35.9597 40.9208 36.2179 41.1622C36.4723 41.4104 36.6884 41.6952 36.8588 42.0073C37.0314 42.3112 37.1445 42.6453 37.1919 42.9917C37.1027 42.6623 36.9602 42.3498 36.7703 42.0664C36.5763 41.7919 36.3466 41.5447 36.0872 41.3312C35.8269 41.1132 35.5442 40.9234 35.2439 40.7651C34.9522 40.604 34.6458 40.471 34.329 40.3679L33.9368 40.2454L34.3163 40.0679C34.7275 39.8894 35.1261 39.6834 35.5096 39.4511C35.8884 39.232 36.23 38.9539 36.5215 38.6272C36.6611 38.4918 36.7639 38.3229 36.82 38.1366C36.8761 37.9502 36.8836 37.7525 36.842 37.5624C36.7492 37.2667 36.2475 37.2793 35.8216 37.3427C35.3957 37.4061 34.9446 37.5202 34.5018 37.63C34.0591 37.7399 33.6248 37.8624 33.1905 38.0018C32.3096 38.2452 31.4717 38.6244 30.707 39.1257Z" fill="#263238"/>
<path d="M26.5918 51.2221C33.7007 60.0146 44.0352 65.7101 46.5862 63.8553C49.1371 62.0004 40.5398 52.2911 40.3922 52.1474C39.8904 51.6658 36.0872 49.6842 29.1807 46.7688C22.4048 43.9084 23.4168 47.297 26.5918 51.2221Z" fill="#AD6359"/>
<path d="M37.1963 50.2039L31.8414 57.2599C31.8414 57.2599 27.3467 52.6123 24.9686 49.5364C22.5905 46.4605 22.8266 44.0691 28.1478 46.0549C31.2628 47.2104 34.2873 48.5973 37.1963 50.2039Z" fill="#FFA31A"/>
<path d="M31.3318 55.6417C31.9853 54.6784 32.6684 53.732 33.3683 52.8067C33.7183 52.3503 34.0556 51.8856 34.414 51.4335C34.7724 50.9814 35.1814 50.5293 35.5482 50.0645C35.5735 50.0307 35.6241 50.0645 35.5988 50.0983C35.2615 50.5631 34.9579 51.049 34.6206 51.5138C34.2833 51.9785 33.9122 52.4602 33.5538 52.9334C32.8483 53.8629 32.1217 54.7756 31.3739 55.6713C31.3529 55.6966 31.2938 55.6713 31.3318 55.6417Z" fill="#263238"/>
<path d="M34.4056 53.8713L31.842 57.2514C31.842 57.2514 27.3472 52.6037 24.9692 49.5278L24.7415 49.2279L24.6445 49.0884L24.4969 48.873C24.3704 48.6871 24.2566 48.5054 24.1554 48.3279C24.1174 48.2645 24.0837 48.2012 24.05 48.1378C23.8741 47.8171 23.7328 47.4786 23.6283 47.128C23.5973 47.0198 23.5733 46.9097 23.5566 46.7984C23.5566 46.7435 23.5566 46.6928 23.5566 46.6421C25.8926 48.2645 31.3739 51.8179 34.4056 53.8713Z" fill="#473923"/>
<path d="M34.6202 77.1307C34.6202 77.1307 10.2196 77.5532 10.0763 77.4011C9.69677 76.9786 14.6258 51.801 19.7235 46.6126C21.5239 44.7789 25.2386 45.5267 25.8584 45.8267C27.2878 46.5196 28.6329 48.0153 29.7586 50.787C32.0102 56.3304 34.928 76.7335 34.6202 77.1307Z" fill="#FFA31A"/>
<path opacity="0.2" d="M27.0772 46.6549H19.6858L19.7237 46.6126C19.8957 46.4383 20.0866 46.2838 20.2929 46.1521H26.4279C26.6575 46.3018 26.8747 46.47 27.0772 46.6549ZM27.891 47.4999H18.99C18.872 47.6562 18.7581 47.8252 18.6443 48.0027H28.2789C28.1566 47.8252 28.0301 47.6689 27.9205 47.4999H27.891ZM28.8102 48.8477H18.1341C18.0413 49.0125 17.9486 49.1815 17.86 49.3548H29.0969C29.0083 49.1815 28.9156 49.0083 28.8186 48.8477H28.8102ZM29.4974 50.1998H17.4342L17.1938 50.7026H29.7209C29.6534 50.5293 29.5818 50.3603 29.5059 50.204L29.4974 50.1998ZM30.0329 51.5476H16.8228L16.6077 52.0504H30.2058C30.151 51.894 30.0962 51.7081 30.0287 51.5476H30.0329ZM30.4546 52.8954H16.2662C16.203 53.0644 16.1355 53.2292 16.068 53.4024H30.6021L30.4546 52.8954ZM30.8172 54.2432H15.756C15.697 54.4122 15.6337 54.577 15.5747 54.7502H30.9521C30.8987 54.5784 30.8565 54.4094 30.8256 54.2432H30.8172ZM31.1461 55.5953H15.2711C15.2121 55.76 15.1573 55.9291 15.1025 56.0981H31.2599L31.1461 55.5953ZM31.4497 56.9431H14.8495C14.7947 57.1079 14.7441 57.2769 14.6893 57.4459H31.5888C31.5298 57.2769 31.496 57.1079 31.4581 56.9642L31.4497 56.9431ZM31.7364 58.2909H14.4278C14.373 58.4557 14.3224 58.6247 14.2718 58.7979H31.8713C31.8165 58.6289 31.7828 58.4599 31.7448 58.2909H31.7364ZM32.0104 59.6387H14.0062C13.9556 59.8077 13.905 59.9767 13.8586 60.1457H32.1369L32.0104 59.6387ZM32.2719 60.9908H13.6098C13.5593 61.1598 13.5129 61.3245 13.4665 61.4936H32.3731C32.3435 61.3245 32.314 61.1555 32.2803 60.9908H32.2719ZM32.5206 62.3386H13.2346C13.1882 62.5076 13.1418 62.6766 13.0997 62.8414H32.6218C32.5923 62.6724 32.5586 62.5076 32.5291 62.3386H32.5206ZM32.761 63.6864H12.8762C12.8298 63.8554 12.7876 64.0244 12.7455 64.1934H32.858C32.8327 64.0244 32.8031 63.8554 32.7694 63.6864H32.761ZM33.0013 65.0384H12.5262C12.4883 65.2074 12.4461 65.3722 12.4039 65.5412H33.0899C33.0646 65.3764 33.035 65.2074 33.0097 65.0384H33.0013ZM33.2206 66.3863H12.1931C12.1552 66.5553 12.113 66.7243 12.0751 66.889H33.3133C33.288 66.7243 33.2585 66.5553 33.229 66.3863H33.2206ZM33.4398 67.7341H11.8727C11.8347 67.9073 11.7968 68.0763 11.7546 68.2411H33.5284C33.5031 68.0721 33.4778 67.9073 33.4483 67.7341H33.4398ZM33.6549 69.0819H11.5649C11.5269 69.2509 11.489 69.4241 11.451 69.5889H33.735C33.7097 69.4241 33.6844 69.2551 33.6633 69.0819H33.6549ZM33.853 70.4339H11.2655C11.2318 70.6029 11.1938 70.7719 11.1601 70.9367H33.9289L33.853 70.4339ZM34.047 71.7817H10.9788C10.9451 71.955 10.9113 72.1198 10.8776 72.2845H34.1271C34.1018 72.1198 34.0807 71.9508 34.0554 71.7817H34.047ZM34.2325 73.1296H10.7131C10.6738 73.3042 10.6401 73.4732 10.612 73.6366H34.3084C34.2873 73.4718 34.2452 73.3028 34.2452 73.1296H34.2325ZM34.4012 74.4774H10.4559C10.4222 74.6548 10.3927 74.8238 10.3632 74.9844H34.4728C34.456 74.8238 34.4349 74.6548 34.4096 74.4774H34.4012ZM34.5572 75.8294H10.2114C10.1819 76.0111 10.1608 76.1801 10.1355 76.3322H34.5909C34.5993 76.1843 34.5825 76.0153 34.5656 75.8294H34.5572ZM10.0512 77.1772C10.0324 77.2507 10.0324 77.3277 10.0512 77.4012C10.165 77.5152 25.2979 77.2829 31.7448 77.1772H10.0512Z" fill="black"/>
<path d="M21.115 49.6631C19.4706 51.9235 11.0377 61.2653 10.7256 62.1314C10.4136 62.9976 12.3658 64.9116 12.3321 65.2707C12.2056 66.7326 9.05593 76.4589 7.79521 75.4702C6.13393 74.1688 -0.899111 64.8482 0.0959714 60.8132C1.09105 56.7782 17.5141 47.09 20.1199 46.2492C22.7257 45.4084 22.7383 47.4322 21.115 49.6631Z" fill="#AD6359"/>
<path d="M14.4911 58.1684L9.70117 51.4293C9.70117 51.4293 15.0603 47.9056 18.6443 46.4014C22.2283 44.8973 23.9949 45.7339 20.7188 50.3773C18.8036 53.0994 16.7238 55.7013 14.4911 58.1684Z" fill="#FFA31A"/>
<path d="M11.1181 50.9899C11.877 51.8716 12.6149 52.7729 13.3317 53.694C13.6859 54.1461 14.0443 54.594 14.3858 55.0545C14.7273 55.515 15.0647 56.0305 15.4231 56.5037C15.4484 56.5375 15.3978 56.5798 15.3725 56.546C15.0098 56.1235 14.6219 55.701 14.2593 55.2362C13.8967 54.7714 13.5257 54.3067 13.163 53.8419C12.4462 52.9208 11.7505 51.9786 11.0801 51.0237C11.0548 50.9984 11.097 50.9646 11.1181 50.9899Z" fill="#263238"/>
<path d="M14.4829 58.2021C15.2166 57.2261 16.0809 56.3557 16.8736 55.4304C17.6663 54.5051 18.4548 53.5502 19.2095 52.5869C19.2095 52.5869 19.2644 52.5869 19.2475 52.6123C18.8975 53.1151 18.556 53.6221 18.1892 54.1122C18.0079 54.353 17.8181 54.5896 17.6242 54.8262L17.9067 54.5939C18.1957 54.3761 18.4954 54.1731 18.8048 53.9854C18.8048 53.9854 18.8385 53.9854 18.8048 54.0108C18.5364 54.2596 18.2549 54.4937 17.9615 54.7122C17.7507 54.8727 17.5398 55.0206 17.3164 55.1685L16.979 55.591C16.2431 56.543 15.4232 57.4268 14.5293 58.2317C14.504 58.2697 14.4576 58.2317 14.4829 58.2021Z" fill="#263238"/>
<path d="M11.9193 79.1631C13.0451 78.3984 11.4977 77.5027 11.4977 77.5027C11.4977 77.5027 14.0275 78.2547 14.8708 77.0168C15.7141 75.7788 13.7914 74.807 13.6565 74.731C13.7914 74.7732 16.1358 75.3985 16.8694 74.0676C17.6031 72.7367 15.5455 71.9931 15.4105 71.9551C15.5497 71.9551 17.3754 71.8748 17.7043 70.734C18.2651 68.7778 13.0198 68.5496 11.8898 67.3539C11.8898 67.3539 12.3958 64.7681 12.4379 64.6963C12.0987 65.2766 11.5722 65.7237 10.9453 65.9638C9.81109 66.2849 8.79071 66.4708 8.33112 67.0159C8.11669 67.2544 7.98452 67.5557 7.95415 67.8752C7.92378 68.1948 7.99681 68.5157 8.16246 68.7904C8.16246 68.7904 6.72887 68.6257 6.11748 69.6566C5.80547 70.1847 6.37469 71.1607 6.37469 71.1607C6.05027 71.1375 5.72573 71.204 5.43648 71.353C5.14723 71.5021 4.90439 71.7279 4.73449 72.0058C4.34236 72.7663 4.97482 73.624 4.97482 73.624C4.97482 73.624 3.82795 74.0465 3.68037 74.9591C3.39787 76.7886 9.50751 80.794 11.9193 79.1631Z" fill="#AD6359"/>
<path d="M5.0752 73.7803C5.0752 73.7803 5.02882 73.7803 5.04568 73.8098C6.79344 75.6965 9.07302 77.0051 11.5812 77.5618C11.6613 77.5618 11.7203 77.4519 11.636 77.4181C9.28473 76.5304 7.0747 75.305 5.0752 73.7803Z" fill="#263238"/>
<path d="M6.35734 71.1436C6.35457 71.1414 6.35139 71.1398 6.34799 71.1388C6.34458 71.1378 6.34102 71.1375 6.33749 71.1379C6.33397 71.1383 6.33056 71.1393 6.32745 71.1411C6.32435 71.1428 6.32161 71.1451 6.31939 71.1479C6.31718 71.1506 6.31553 71.1538 6.31454 71.1572C6.31356 71.1606 6.31325 71.1642 6.31364 71.1677C6.31403 71.1713 6.31511 71.1747 6.31682 71.1778C6.31853 71.1809 6.32084 71.1837 6.32361 71.1859C8.27202 73.2445 10.8905 74.5377 13.7066 74.8322C13.8036 74.8322 13.9006 74.7477 13.7867 74.7308C11.8978 74.4435 8.21258 72.5971 6.35734 71.1436Z" fill="#263238"/>
<path d="M15.6376 71.8917C12.8885 71.579 10.5146 70.4129 8.25039 68.8665C8.22088 68.8665 8.19558 68.8876 8.21245 68.9129C9.11477 69.9734 10.6622 70.81 11.9229 71.3593C13.0806 71.8904 14.3572 72.1075 15.625 71.9888C15.6924 71.9846 15.6924 71.9001 15.6376 71.8917Z" fill="#263238"/>
<path d="M4.92001 73.6239C4.69099 73.3929 4.53035 73.1028 4.45592 72.7858C4.38149 72.4688 4.39618 72.1373 4.49837 71.8282C4.63044 71.5372 4.86234 71.3033 5.15192 71.1691C5.49708 71.0495 5.86617 71.0161 6.22711 71.0719C6.02585 70.7877 5.9153 70.449 5.91003 70.1005C5.90476 69.752 6.00502 69.4101 6.1976 69.1199C6.41353 68.8717 6.71436 68.7134 7.04089 68.6763C7.41355 68.64 7.78938 68.6542 8.15825 68.7185C8.00459 68.5373 7.89524 68.3226 7.83888 68.0915C7.78252 67.8605 7.7807 67.6195 7.83358 67.3876C7.90337 67.1358 8.03135 66.904 8.20715 66.7109C8.38295 66.5179 8.60165 66.369 8.84553 66.2764C9.41925 66.0683 10.0148 65.9265 10.6207 65.8539C10.9316 65.8072 11.236 65.7235 11.5272 65.6046C11.841 65.4607 12.1041 65.225 12.2819 64.9286C12.3157 64.8779 12.3157 64.9286 12.2819 64.9751C12.1639 65.1764 12.0128 65.3564 11.835 65.5074C11.6504 65.6685 11.4447 65.8036 11.2236 65.9088C10.6748 66.1163 10.1109 66.2815 9.53703 66.4031C9.03395 66.5374 8.58924 66.8345 8.27209 67.2482C8.12715 67.4671 8.04567 67.722 8.03674 67.9846C8.02781 68.2472 8.09177 68.5071 8.22149 68.7354C8.22149 68.7354 8.2215 68.7903 8.18355 68.7861C7.84688 68.7847 7.5113 68.8244 7.18425 68.9044C6.91296 68.9694 6.66844 69.117 6.48432 69.3269C6.31373 69.5947 6.21617 69.9025 6.20137 70.2198C6.18657 70.5371 6.25506 70.8528 6.39999 71.1353C6.03636 71.1597 5.6804 71.2514 5.35009 71.4057C5.13565 71.5378 4.9631 71.7283 4.85255 71.955C4.72625 72.2161 4.67475 72.5072 4.70378 72.7959C4.73282 73.0845 4.84124 73.3595 5.01699 73.5901C5.01861 73.597 5.01861 73.6043 5.01699 73.6112C5.01699 73.6112 4.65016 73.7633 4.63329 73.7633C4.72592 73.711 4.82167 73.6644 4.92001 73.6239Z" fill="#263238"/>
<path d="M25.85 49.5745C24.5092 50.0688 21.8866 48.2394 20.7439 46.6423C20.668 46.5324 20.5921 41.7791 20.4825 40.8411C20.4572 40.6468 26.5415 41.5679 26.5415 41.5679C26.347 42.783 26.3017 44.0175 26.4066 45.2437C26.4235 45.3789 27.1445 49.1013 25.85 49.5745Z" fill="#AD6359"/>
<path d="M26.5415 41.5679C26.5415 41.5679 26.4741 41.9608 26.4193 42.5439C24.7327 44.6184 22.0257 44.8381 20.6512 44.7916C20.6048 43.3171 20.55 41.4115 20.4825 40.8411C20.4572 40.651 26.5415 41.5679 26.5415 41.5679Z" fill="#263238"/>
<path d="M20.5076 30.7134C20.5076 30.7134 18.5681 31.4655 18.1717 33.409C17.7754 35.3526 18.1717 37.4144 18.3319 37.5201C18.4922 37.6257 20.5076 30.7134 20.5076 30.7134Z" fill="#263238"/>
<path d="M28.3415 33.2232C28.8391 35.3653 27.3296 41.3608 25.7442 42.6114C23.4504 44.4282 19.8917 44.3775 18.3991 41.6608C16.9571 39.0285 19.0653 31.2543 20.8151 30.1346C23.3872 28.491 27.5952 30.0543 28.3415 33.2232Z" fill="#AD6359"/>
<path d="M22.3252 36.5906C22.3252 36.5906 22.3548 36.6159 22.3506 36.6328C22.2661 37.0553 22.2365 37.5328 22.5914 37.7356C22.5914 37.7356 22.5914 37.7609 22.5914 37.7567C22.1351 37.6131 22.1774 36.9666 22.3252 36.5906Z" fill="#263238"/>
<path d="M22.7677 36.2187C23.4465 36.282 23.2652 37.6341 22.6412 37.5749C22.0171 37.5158 22.2027 36.1637 22.7677 36.2187Z" fill="#263238"/>
<path d="M19.9728 36.1724C19.9728 36.1724 19.9391 36.1724 19.9349 36.2062C19.8969 36.6287 19.7831 37.0977 19.3867 37.1906V37.216C19.859 37.2075 20.0023 36.5738 19.9728 36.1724Z" fill="#263238"/>
<path d="M19.6561 35.6863C18.9899 35.5511 18.7664 36.8947 19.3862 37.0214C20.006 37.1482 20.2126 35.8004 19.6561 35.6863Z" fill="#263238"/>
<path d="M22.2321 40.0848C22.1224 40.1736 22.0086 40.3003 21.8568 40.3003C21.7008 40.2841 21.5499 40.2351 21.4141 40.1566C21.4658 40.2449 21.5407 40.3173 21.6307 40.3657C21.7207 40.4141 21.8223 40.4368 21.9243 40.4313C22.0131 40.4202 22.0962 40.3811 22.1614 40.3196C22.2266 40.258 22.2705 40.1773 22.2869 40.089C22.2869 40.089 22.2489 40.0637 22.2321 40.0848Z" fill="#263238"/>
<path d="M20.2801 38.1581C20.2801 38.1581 20.103 38.7665 20.0608 39.0623C20.634 39.1463 21.1921 39.3128 21.7179 39.5566C21.8401 39.6158 21.857 39.5102 21.7179 39.4003C21.3256 39.081 20.8468 38.8867 20.3433 38.8426C20.3433 38.7581 20.6342 37.9088 20.5879 37.8962C20.3601 37.883 20.1317 37.9015 19.909 37.9511C20.2379 36.6835 20.7523 35.4498 21.0812 34.1485C21.0812 34.102 21.0264 34.0766 21.0053 34.1147C20.3969 35.4051 19.9167 36.7523 19.5717 38.137C19.5169 38.3229 20.1536 38.1919 20.2801 38.1581Z" fill="#263238"/>
<path d="M23.2819 35.7584C23.1217 35.657 22.9952 35.5344 22.8603 35.4203C22.7254 35.3063 22.5483 35.2006 22.485 34.9978C22.4715 34.9368 22.4792 34.8729 22.5068 34.8169C22.5344 34.7608 22.5803 34.7158 22.6368 34.6894C22.7554 34.6505 22.8823 34.6445 23.0041 34.672C23.1258 34.6995 23.2379 34.7596 23.3283 34.8457C23.5413 34.989 23.692 35.208 23.75 35.4584C23.7611 35.5172 23.7544 35.578 23.7307 35.633C23.707 35.688 23.6675 35.7346 23.6171 35.7669C23.5668 35.7991 23.508 35.8156 23.4482 35.814C23.3885 35.8125 23.3306 35.7931 23.2819 35.7584Z" fill="#263238"/>
<path d="M19.3605 34.1992C19.546 34.1696 19.7147 34.1189 19.896 34.0724C20.0913 34.0557 20.2754 33.9739 20.4188 33.8401C20.4565 33.7902 20.4768 33.7294 20.4768 33.6668C20.4768 33.6043 20.4565 33.5435 20.4188 33.4936C20.3264 33.4093 20.2132 33.3512 20.091 33.3252C19.9687 33.2992 19.8417 33.3063 19.7231 33.3457C19.4697 33.3882 19.2412 33.5238 19.0822 33.726C19.0501 33.7736 19.0322 33.8294 19.0304 33.8869C19.0287 33.9443 19.0432 34.0011 19.0723 34.0506C19.1014 34.1001 19.144 34.1404 19.195 34.1667C19.246 34.193 19.3034 34.2042 19.3605 34.1992Z" fill="#263238"/>
<path d="M27.3471 38.344C26.1074 38.2215 26.7821 32.7415 26.7821 32.7415C26.0169 33.0027 25.2163 33.1452 24.4082 33.164C23.5917 33.1352 22.7811 33.0133 21.9922 32.8007C21.8235 32.7373 24.0625 32.1035 24.0625 32.1035C24.0625 32.1035 18.5558 32.5852 18.3702 31.5458C18.3028 31.1867 19.3274 27.9164 23.898 28.1234C27.2712 28.2755 28.8439 31.8077 28.8439 31.8077C28.8439 31.8077 30.4841 33.6372 30.2016 34.4654C29.7209 35.9188 28.6626 38.475 27.3471 38.344Z" fill="#263238"/>
<path d="M26.5968 38.3737C26.5968 38.3737 28.1358 36.5316 28.9834 37.1062C29.8309 37.6808 28.5617 40.4229 27.4739 40.7229C27.3383 40.7701 27.1947 40.7894 27.0515 40.7797C26.9084 40.77 26.7687 40.7314 26.6407 40.6663C26.5128 40.6012 26.3993 40.511 26.307 40.4009C26.2147 40.2908 26.1455 40.1632 26.1035 40.0257L26.5968 38.3737Z" fill="#AD6359"/>
<path d="M47.1342 63.5384C50.558 60.8893 47.286 47.4407 45.2958 42.4888C44.7098 41.0311 35.4125 43.7564 35.8468 45.3915C38.3303 54.6403 43.3858 66.4411 47.1342 63.5384Z" fill="#AD6359"/>
<path d="M37.3867 50.4658L38.4113 53.0009C38.7613 53.8459 39.1028 54.691 39.4823 55.536C39.8618 56.381 40.2286 57.1965 40.6165 58.0204C41.0044 58.8443 41.4345 59.6513 41.8562 60.4625C41.3227 59.718 40.8368 58.9405 40.4015 58.1344C39.9798 57.3274 39.5582 56.4993 39.1914 55.6627C38.8245 54.8262 38.4872 53.9727 38.1836 53.1023C37.88 52.2319 37.6186 51.3573 37.3867 50.4658Z" fill="#263238"/>
<path d="M36.7751 23.7335C36.8158 24.2086 36.715 24.6852 36.4855 25.1031C36.256 25.5209 35.908 25.8611 35.4856 26.0809C35.0632 26.3006 34.5853 26.39 34.1122 26.3376C33.6391 26.2853 33.1921 26.0937 32.8277 25.7869C32.4633 25.4801 32.1978 25.072 32.0647 24.6141C31.9317 24.1562 31.9371 23.669 32.0802 23.2142C32.2233 22.7593 32.4977 22.3572 32.8688 22.0586C33.2399 21.7599 33.691 21.5782 34.1651 21.5364C34.4806 21.5086 34.7983 21.5434 35.1003 21.6388C35.4023 21.7342 35.6825 21.8883 35.925 22.0924C36.1674 22.2965 36.3673 22.5465 36.5132 22.8281C36.6591 23.1097 36.7481 23.4173 36.7751 23.7335Z" fill="white"/>
<path d="M36.7752 23.7336C36.8274 24.3806 36.63 25.0229 36.2237 25.5283C35.8174 26.0338 35.233 26.3638 34.5911 26.4504C34.2416 26.5207 33.8811 26.5161 33.5334 26.4371C33.1857 26.358 32.8587 26.2062 32.5736 25.9916C32.2886 25.777 32.0521 25.5044 31.8795 25.1918C31.707 24.8791 31.6023 24.5335 31.5724 24.1775C31.5425 23.8215 31.588 23.4632 31.706 23.126C31.824 22.7889 32.0117 22.4806 32.2569 22.2212C32.5021 21.9619 32.7993 21.7574 33.1289 21.6212C33.4585 21.485 33.8131 21.4202 34.1695 21.4309C34.8151 21.4088 35.4447 21.635 35.9292 22.0632C36.4137 22.4913 36.7164 23.089 36.7752 23.7336ZM36.7752 23.7336C36.7483 23.4228 36.6588 23.1207 36.5122 22.8455C36.3656 22.5702 36.1649 22.3276 35.9222 22.1322C35.6795 21.9368 35.3999 21.7926 35.1001 21.7084C34.8003 21.6242 34.4866 21.6017 34.1779 21.6422C33.5877 21.7182 33.0497 22.0198 32.6762 22.484C32.3028 22.9483 32.1228 23.5392 32.174 24.1332C32.2252 24.7273 32.5035 25.2786 32.9508 25.6718C33.3981 26.065 33.9798 26.2698 34.5742 26.2433C34.8856 26.2303 35.191 26.1541 35.4722 26.0194C35.7533 25.8848 36.0043 25.6944 36.21 25.4599C36.4157 25.2253 36.5719 24.9514 36.669 24.6547C36.7661 24.358 36.8023 24.0447 36.7752 23.7336Z" fill="#263238"/>
<path d="M31.5382 28.1824C31.5606 28.4472 31.5041 28.7126 31.376 28.9452C31.2478 29.1778 31.0538 29.3671 30.8183 29.4892C30.5828 29.6113 30.3165 29.6607 30.053 29.6311C29.7895 29.6015 29.5406 29.4944 29.3379 29.3231C29.1352 29.1519 28.9877 28.9242 28.9141 28.669C28.8404 28.4138 28.844 28.1424 28.9242 27.8892C29.0045 27.636 29.1578 27.4123 29.3649 27.2464C29.572 27.0805 29.8236 26.9798 30.0877 26.9572C30.2634 26.9415 30.4404 26.9609 30.6086 27.0141C30.7767 27.0673 30.9327 27.1533 31.0675 27.2672C31.2023 27.3811 31.3133 27.5206 31.3941 27.6777C31.4749 27.8348 31.5239 28.0063 31.5382 28.1824Z" fill="white"/>
<path d="M31.5381 28.1825C31.5617 28.4724 31.4978 28.7628 31.3545 29.0159C31.2112 29.2689 30.9953 29.4729 30.7347 29.6012C30.4742 29.7296 30.1811 29.7764 29.8937 29.7356C29.6062 29.6947 29.3377 29.5682 29.123 29.3723C28.9083 29.1765 28.7574 28.9204 28.69 28.6374C28.6225 28.3545 28.6416 28.0577 28.7448 27.7858C28.8479 27.5138 29.0303 27.2793 29.2683 27.1127C29.5063 26.9461 29.7889 26.8551 30.0792 26.8516C30.4445 26.8501 30.797 26.986 31.0672 27.2324C31.3373 27.4789 31.5053 27.8179 31.5381 28.1825ZM31.5381 28.1825C31.5242 28.0111 31.4748 27.8444 31.3931 27.6932C31.3113 27.5419 31.1991 27.4094 31.0634 27.3041C30.9277 27.1987 30.7716 27.1229 30.6051 27.0814C30.4385 27.0398 30.2652 27.0335 30.096 27.0628C29.8586 27.1031 29.638 27.2118 29.4612 27.3756C29.2844 27.5394 29.1591 27.7513 29.1005 27.9854C29.0419 28.2194 29.0526 28.4655 29.1313 28.6935C29.21 28.9216 29.3532 29.1217 29.5436 29.2695C29.7339 29.4173 29.9631 29.5064 30.2031 29.5258C30.4432 29.5452 30.6836 29.4941 30.8952 29.3788C31.1067 29.2635 31.2802 29.089 31.3943 28.8765C31.5085 28.6641 31.5584 28.4229 31.5381 28.1825Z" fill="#263238"/>
<path d="M54.762 12.5116C54.9859 14.3664 54.466 16.2345 53.3165 17.7055C52.167 19.1766 50.482 20.1305 48.6313 20.3576C47.4133 20.5096 46.1768 20.3361 45.0473 19.8548C44.4963 20.5775 43.7865 21.1632 42.9729 21.5663C42.1594 21.9694 41.2641 22.1791 40.3565 22.1791C39.4489 22.1791 38.5536 21.9694 37.74 21.5663C36.9265 21.1632 36.2166 20.5775 35.6657 19.8548C35.4064 19.9316 35.1413 19.9867 34.873 20.0196C33.9549 20.1319 33.024 19.975 32.193 19.5679C31.3621 19.1607 30.6669 18.5208 30.1916 17.7257C29.7163 16.9306 29.4814 16.0144 29.5153 15.0882C29.5491 14.162 29.8504 13.2655 30.3825 12.5073C29.3463 11.1864 28.8153 9.5379 28.885 7.85918C28.9547 6.18045 29.6207 4.58193 30.7628 3.35181C31.9049 2.1217 33.4481 1.34094 35.114 1.1503C36.7799 0.959659 38.4589 1.37169 39.8484 2.3121C40.5001 1.50007 41.3544 0.874975 42.3246 0.500076C43.2949 0.125177 44.3468 0.0137811 45.3739 0.177162C46.4009 0.340542 47.3667 0.772901 48.1734 1.43048C48.9801 2.08806 49.5992 2.94752 49.9679 3.92187C50.2142 3.83885 50.4686 3.7822 50.7268 3.75287C51.5065 3.65923 52.2961 3.80594 52.9904 4.17346C53.6847 4.54097 54.2508 5.11182 54.6131 5.80991C54.9754 6.50799 55.1167 7.30016 55.0183 8.0808C54.9198 8.86143 54.5863 9.59346 54.0621 10.1793C54.4307 10.9093 54.6677 11.6989 54.762 12.5116Z" fill="white"/>
<path d="M54.7623 12.5115C54.9816 14.3658 54.4686 16.2324 53.333 17.7127C52.9523 18.1949 52.5132 18.6278 52.0259 19.0014C51.0389 19.7498 49.8744 20.2277 48.647 20.3877C47.4196 20.5477 46.1718 20.3845 45.0265 19.914H45.094C44.5399 20.6505 43.8236 21.2487 43.0007 21.6621C42.1779 22.0754 41.2709 22.2927 40.3505 22.297C39.4257 22.3002 38.5126 22.0906 37.6815 21.6843C36.8507 21.2709 36.1231 20.676 35.5522 19.9436L35.704 19.9943C34.7229 20.2911 33.6742 20.2764 32.7019 19.952C31.725 19.629 30.8741 19.0068 30.269 18.1732C29.9728 17.7542 29.7385 17.2946 29.5732 16.8085C29.4152 16.3196 29.3314 15.8097 29.3245 15.2959C29.3153 14.2603 29.6277 13.2474 30.2184 12.3975V12.6341C29.1399 11.2811 28.5898 9.58094 28.6709 7.85123C28.7167 6.56277 29.1077 5.3104 29.8029 4.22554C30.4981 3.14068 31.4718 2.26333 32.622 1.68554C33.7722 1.10775 35.0564 0.850829 36.3398 0.941741C37.6232 1.03265 38.8586 1.46805 39.9162 2.20223L39.7307 2.22758C40.4003 1.40163 41.2761 0.767986 42.2692 0.391006C43.2623 0.0140262 44.3373 -0.0928581 45.3849 0.0812114C46.4263 0.254343 47.4035 0.699873 48.2179 1.37277C49.0323 2.04566 49.655 2.92207 50.023 3.91341L49.9682 3.88383C50.7922 3.61532 51.6816 3.62721 52.4981 3.91763C53.0984 4.13276 53.6364 4.49298 54.0646 4.96637C54.4927 5.43975 54.7976 6.01167 54.9523 6.63141C55.107 7.25115 55.1068 7.89958 54.9515 8.51919C54.7963 9.13881 54.4909 9.71047 54.0624 10.1835C54.4314 10.9119 54.6684 11.7001 54.7623 12.5115ZM54.7623 12.5115C54.6628 11.6991 54.4201 10.9109 54.0455 10.1835C54.6186 9.55317 54.9657 8.74952 55.0321 7.89947C55.0986 7.04941 54.8805 6.20141 54.4124 5.48938C53.9495 4.77931 53.2643 4.2434 52.4645 3.9658C51.6647 3.68821 50.7956 3.68464 49.9935 3.95566H49.9514V3.91341C49.5771 2.95414 48.9594 2.10943 48.1594 1.46283C47.3589 0.817359 46.4012 0.39733 45.3849 0.245991C44.3733 0.0945977 43.3398 0.21113 42.387 0.584003C41.4402 0.960728 40.6095 1.58169 39.9795 2.38391L39.8993 2.48531L39.7897 2.40926C38.4325 1.50284 36.7977 1.10998 35.1778 1.30098C33.5579 1.49197 32.0588 2.25436 30.9486 3.45171C29.8384 4.64906 29.1896 6.20322 29.1184 7.83606C29.0472 9.46889 29.5582 11.0738 30.5599 12.3637L30.6527 12.482L30.5641 12.6045C30.0133 13.3837 29.7185 14.3156 29.7208 15.2706C29.7275 15.7451 29.8028 16.2162 29.9443 16.6691C30.0922 17.1211 30.3068 17.5483 30.581 17.9366C31.139 18.7186 31.9252 19.3079 32.8314 19.6235C33.7375 19.939 34.7191 19.9652 35.6407 19.6985L35.7377 19.6731L35.7925 19.7492C36.3291 20.4572 37.018 21.0348 37.808 21.4393C39.0108 22.0498 40.3883 22.2219 41.7039 21.9258C43.0195 21.6298 44.1913 20.8841 45.0181 19.8168L45.0476 19.7788H45.0898C46.2133 20.2658 47.4454 20.4465 48.6611 20.3027C49.884 20.1521 51.0467 19.6846 52.0343 18.9464C52.5208 18.5799 52.9599 18.1542 53.3414 17.6789C53.7159 17.1927 54.0288 16.6619 54.2732 16.0987C54.7413 14.965 54.9097 13.7295 54.7623 12.5115Z" fill="#263238"/>
<path d="M42.7407 12.7311C42.7319 12.2169 42.8236 11.7059 43.0106 11.227C43.2455 10.7244 43.6419 10.3152 44.1364 10.0651C44.3092 9.95945 44.5158 9.84537 44.7688 9.71439C45.0249 9.57926 45.269 9.42235 45.4983 9.24541C45.7341 9.06573 45.9391 8.84882 46.1054 8.60319C46.2719 8.35327 46.3586 8.05858 46.3542 7.75816C46.3585 7.53885 46.3109 7.32163 46.2151 7.12439C46.1285 6.94778 46.0065 6.79098 45.8567 6.66385C45.7044 6.53665 45.528 6.44178 45.3381 6.38499C45.1433 6.32157 44.9399 6.28879 44.7351 6.28781C44.5008 6.28345 44.2682 6.32806 44.052 6.41879C43.8543 6.50036 43.6685 6.60838 43.4997 6.7399C43.342 6.87203 43.2005 7.02236 43.078 7.18777C42.9571 7.33678 42.8458 7.49343 42.7449 7.65676L41.2607 6.63005C41.4046 6.28696 41.6041 5.97003 41.851 5.69207C42.0886 5.41798 42.3674 5.18276 42.6775 4.99492C42.9938 4.80809 43.3343 4.6659 43.6894 4.57241C44.0568 4.47534 44.4353 4.42704 44.8152 4.42875C45.2435 4.43098 45.6693 4.49356 46.0802 4.61466C46.4938 4.73833 46.8791 4.94218 47.2144 5.21463C47.5597 5.50031 47.8388 5.85786 48.0324 6.26246C48.2507 6.74201 48.3574 7.26502 48.3444 7.79196C48.3495 8.11754 48.3069 8.44212 48.2179 8.75529C48.1371 9.02685 48.0132 9.28363 47.8511 9.51581C47.6914 9.74479 47.5029 9.95214 47.2903 10.1327C47.0591 10.3267 46.8139 10.5032 46.5566 10.6608L45.8735 11.0538C45.6547 11.1757 45.4473 11.3171 45.2537 11.4763C45.0669 11.6223 44.9083 11.8013 44.7857 12.0044C44.6588 12.225 44.596 12.4767 44.6044 12.7311H42.7407ZM42.7744 16.7112V14.3536H44.6634V16.7112H42.7744Z" fill="#FFD246"/>
<path d="M38.5206 8.32023C38.6374 8.82057 38.6517 9.33944 38.5628 9.8455C38.4425 10.3835 38.1455 10.8656 37.7195 11.2144C37.5719 11.3496 37.3906 11.506 37.1713 11.6877C36.9483 11.8729 36.741 12.0765 36.5515 12.2961C36.3583 12.5199 36.2031 12.774 36.0919 13.0481C35.9806 13.3273 35.957 13.634 36.0245 13.927C36.0627 14.1411 36.1524 14.3427 36.2859 14.5143C36.4069 14.6708 36.5591 14.8003 36.7328 14.8945C36.9079 14.9885 37.1 15.046 37.2978 15.0635C37.5022 15.0821 37.7082 15.0708 37.9092 15.0297C38.1387 14.9857 38.3568 14.8951 38.5501 14.7636C38.7265 14.644 38.8867 14.502 39.0266 14.341C39.1616 14.1797 39.2763 14.0023 39.3681 13.8129C39.4543 13.6415 39.5304 13.4651 39.5958 13.2848L41.2571 13.9861C41.1891 14.3519 41.0594 14.7034 40.8734 15.0255C40.693 15.3402 40.4655 15.6252 40.1987 15.8705C39.9281 16.1195 39.6245 16.33 39.2964 16.4959C38.9574 16.6666 38.5973 16.7917 38.2255 16.8677C37.8017 16.958 37.3669 16.985 36.9352 16.9479C36.5054 16.9157 36.0865 16.7964 35.704 16.5973C35.3094 16.3909 34.963 16.1029 34.6879 15.7522C34.19 15.0534 33.9446 14.2054 33.9921 13.3481C34.0155 13.0672 34.0839 12.7919 34.1945 12.5327C34.3028 12.2757 34.4446 12.0341 34.6162 11.8144C34.8021 11.576 35.005 11.3515 35.2233 11.1426C35.4173 10.9652 35.6155 10.7877 35.8094 10.6187C35.9969 10.4511 36.1677 10.2657 36.3196 10.0652C36.4678 9.88224 36.5834 9.67497 36.6611 9.45256C36.7381 9.21036 36.7468 8.95158 36.6864 8.70471L38.5206 8.32023ZM37.6773 4.43311L38.1622 6.74003L36.3112 7.12874L35.8263 4.82182L37.6773 4.43311Z" fill="#FFD246"/>
</svg>
