<svg width="206" height="180" viewBox="0 0 206 180" fill="none" xmlns="http://www.w3.org/2000/svg">
<path d="M103 180C138.688 180 167.619 173.052 167.619 164.481C167.619 155.911 138.688 148.963 103 148.963C67.3117 148.963 38.3809 155.911 38.3809 164.481C38.3809 173.052 67.3117 180 103 180Z" fill="#EBEBEB"/>
<path d="M86.6562 156.53L145.395 148.66L170.075 166.179L112.133 177.772L86.6562 156.53Z" fill="#49495F"/>
<path d="M90.2168 156.717L113.535 176.232L167.831 165.406L143.953 148.594C143.953 148.594 128.099 148.695 127.342 148.831C126.586 148.968 119.349 150.973 119.349 150.973C119.349 150.973 109.491 151.448 108.805 151.585C108.119 151.721 90.2168 156.717 90.2168 156.717Z" fill="white"/>
<path d="M119.349 150.953L122.193 153.353L125.017 155.777L130.629 160.662L136.197 165.603L138.96 168.093L141.704 170.604L138.859 168.21L136.035 165.785L130.423 160.9L124.86 155.959L122.097 153.469L119.349 150.953Z" fill="#DBDBDB"/>
<path d="M122.707 163.461C123.393 163.33 124.079 163.228 124.77 163.138C125.46 163.047 126.156 162.966 126.852 162.895C127.548 162.824 128.244 162.764 128.94 162.723C129.636 162.683 130.337 162.643 131.038 162.637C130.347 162.774 129.656 162.87 128.965 162.966C128.274 163.062 127.583 163.133 126.893 163.203C126.202 163.274 125.501 163.335 124.805 163.375C124.109 163.415 123.413 163.456 122.707 163.461Z" fill="#DBDBDB"/>
<path d="M110.227 168.801C112.047 168.199 113.878 167.629 115.708 167.063C117.539 166.497 119.379 165.962 121.22 165.421C122.138 165.148 123.061 164.916 123.994 164.653C124.232 164.594 124.475 164.553 124.72 164.532L125.441 164.456L126.868 164.325C128.779 164.163 130.69 164.017 132.607 163.911C130.706 164.158 128.799 164.365 126.893 164.583L125.466 164.734C124.996 164.773 124.53 164.843 124.069 164.941C123.146 165.184 122.229 165.446 121.306 165.714L115.759 167.285C113.928 167.8 112.077 168.316 110.227 168.801Z" fill="#DBDBDB"/>
<path d="M111.855 170.195C113.62 169.589 115.385 169.018 117.171 168.457C118.956 167.896 120.731 167.351 122.516 166.81C123.409 166.537 124.301 166.28 125.204 166.032C125.431 165.972 125.653 165.911 125.895 165.861C126.137 165.81 126.364 165.8 126.596 165.77L127.988 165.633C129.848 165.477 131.704 165.335 133.565 165.234C131.719 165.482 129.868 165.684 128.018 165.901L126.631 166.052C126.399 166.083 126.167 166.103 125.945 166.148C125.723 166.194 125.506 166.26 125.285 166.32L122.602 167.103C120.812 167.608 119.031 168.164 117.236 168.674C115.441 169.185 113.656 169.705 111.855 170.195Z" fill="#DBDBDB"/>
<path d="M113.499 171.377C115.288 170.845 117.083 170.34 118.885 169.861C120.685 169.356 122.495 168.896 124.301 168.422C125.208 168.189 126.096 167.952 127.034 167.765L129.803 167.351C131.653 167.093 133.504 166.845 135.35 166.618C133.514 166.977 131.673 167.295 129.833 167.628L127.069 168.078C126.182 168.26 125.269 168.518 124.366 168.735C122.551 169.179 120.746 169.659 118.935 170.094C117.125 170.528 115.319 170.963 113.499 171.377Z" fill="#DBDBDB"/>
<path d="M140.09 166.128C141.771 165.559 143.46 165.044 145.158 164.582C145.587 164.466 146.01 164.35 146.444 164.249C146.661 164.199 146.872 164.148 147.104 164.113L147.76 164.022L150.382 163.663C152.132 163.421 153.882 163.203 155.632 162.976C157.382 162.749 159.137 162.537 160.887 162.334C159.147 162.617 157.402 162.895 155.657 163.158C153.912 163.421 152.167 163.693 150.423 163.936L147.8 164.315L147.145 164.406C146.943 164.446 146.726 164.497 146.514 164.552L145.234 164.865C143.524 165.305 141.83 165.739 140.09 166.128Z" fill="#DBDBDB"/>
<path d="M138.547 164.567C140.191 164.103 141.848 163.687 143.519 163.32C144.356 163.133 145.183 162.936 146.041 162.814L148.562 162.451C150.251 162.203 151.946 161.981 153.64 161.749C155.334 161.516 157.024 161.304 158.723 161.097C157.039 161.385 155.355 161.668 153.68 161.935C152.006 162.203 150.307 162.476 148.638 162.724L146.116 163.107C145.698 163.163 145.289 163.259 144.871 163.345L143.615 163.597C141.924 163.954 140.235 164.278 138.547 164.567Z" fill="#DBDBDB"/>
<path d="M137.039 163.163C138.678 162.713 140.322 162.299 141.981 161.94C142.813 161.759 143.635 161.561 144.502 161.435L147.024 161.142C148.708 160.945 150.398 160.768 152.067 160.592C153.736 160.415 155.445 160.248 157.135 160.086C155.456 160.329 153.771 160.561 152.092 160.773C150.413 160.986 148.728 161.213 147.049 161.415C146.212 161.516 145.36 161.612 144.528 161.723L142.042 162.228C140.384 162.568 138.717 162.88 137.039 163.163Z" fill="#DBDBDB"/>
<path d="M135.738 162.087C137.332 161.466 138.956 160.95 140.605 160.486C140.811 160.425 141.018 160.375 141.23 160.329C141.444 160.282 141.662 160.25 141.88 160.233L143.156 160.117L145.703 159.9C149.102 159.622 152.506 159.364 155.91 159.147C152.516 159.516 149.122 159.844 145.728 160.157L143.182 160.395L141.911 160.521C141.496 160.568 141.085 160.653 140.685 160.774C139.036 161.228 137.402 161.718 135.738 162.087Z" fill="#DBDBDB"/>
<path d="M134.321 160.829C135.915 160.208 137.544 159.692 139.188 159.228C139.394 159.167 139.601 159.116 139.813 159.071C140.027 159.025 140.245 158.993 140.463 158.975L141.739 158.859L144.286 158.642C147.69 158.364 151.089 158.106 154.493 157.889C151.104 158.258 147.705 158.586 144.311 158.899L141.765 159.137L140.494 159.263C140.079 159.31 139.668 159.395 139.268 159.516C137.624 159.955 135.985 160.44 134.321 160.829Z" fill="#DBDBDB"/>
<path d="M132.904 159.561C134.503 158.945 136.127 158.429 137.771 157.965C137.977 157.904 138.184 157.854 138.401 157.808C138.615 157.761 138.833 157.729 139.052 157.712L140.322 157.596L142.874 157.379C146.273 157.101 149.672 156.843 153.076 156.626C149.687 156.995 146.293 157.323 142.894 157.636L140.373 157.874L139.097 158C138.681 158.045 138.271 158.13 137.871 158.253C136.207 158.682 134.573 159.167 132.904 159.561Z" fill="#DBDBDB"/>
<path d="M131.492 158.278C133.086 157.662 134.71 157.141 136.359 156.677C136.565 156.621 136.772 156.571 136.984 156.525C137.198 156.476 137.415 156.444 137.634 156.429L138.91 156.313L141.457 156.091C144.856 155.818 148.26 155.555 151.664 155.343C148.27 155.712 144.876 156.035 141.482 156.353L138.935 156.591L137.665 156.712C137.248 156.761 136.836 156.848 136.434 156.97C134.77 157.409 133.156 157.894 131.492 158.278Z" fill="#DBDBDB"/>
<path d="M129.602 157.161C131.195 156.54 132.819 156.025 134.468 155.56C134.675 155.505 134.881 155.449 135.093 155.404C135.307 155.356 135.525 155.326 135.744 155.313L137.02 155.196L139.566 154.974C142.965 154.701 146.369 154.439 149.773 154.221C146.379 154.59 142.985 154.919 139.591 155.232L137.045 155.464L135.774 155.59C135.357 155.638 134.945 155.723 134.544 155.843C132.9 156.293 131.266 156.778 129.602 157.161Z" fill="#DBDBDB"/>
<path d="M127.761 156.06C129.354 155.439 130.983 154.924 132.627 154.459C132.834 154.398 133.041 154.348 133.252 154.302C133.467 154.256 133.684 154.224 133.903 154.206L135.179 154.09L137.73 153.873C141.129 153.595 144.528 153.338 147.932 153.12C144.543 153.489 141.144 153.817 137.751 154.131L135.204 154.368L133.933 154.494C133.518 154.542 133.108 154.626 132.708 154.747C131.064 155.186 129.425 155.676 127.761 156.06Z" fill="#DBDBDB"/>
<path d="M126.349 154.787C127.937 154.166 129.561 153.651 131.205 153.186C131.412 153.13 131.618 153.075 131.83 153.034C132.044 152.983 132.261 152.951 132.481 152.939L133.757 152.843L136.303 152.666C139.702 152.454 143.101 152.257 146.505 152.105C143.111 152.408 139.717 152.671 136.323 152.939L133.777 153.13L132.506 153.237C132.092 153.28 131.684 153.363 131.286 153.484C129.642 153.919 128.008 154.403 126.349 154.787Z" fill="#DBDBDB"/>
<path d="M124.932 153.499C126.52 152.883 128.139 152.368 129.783 151.908C129.99 151.847 130.191 151.797 130.403 151.751C130.618 151.699 130.838 151.668 131.059 151.66L132.335 151.585L134.881 151.458C138.273 151.31 141.671 151.194 145.073 151.11C141.679 151.342 138.285 151.534 134.891 151.731L132.37 151.873L131.099 151.953C130.685 151.997 130.276 152.081 129.879 152.206C128.215 152.646 126.591 153.125 124.932 153.499Z" fill="#DBDBDB"/>
<path d="M123.515 152.236C125.103 151.62 126.717 151.105 128.356 150.645C128.563 150.584 128.769 150.534 128.981 150.488C129.194 150.434 129.412 150.406 129.632 150.403L130.907 150.362L133.454 150.322C135.148 150.322 136.848 150.322 138.542 150.291C140.237 150.261 141.936 150.291 143.636 150.322C140.242 150.433 136.848 150.509 133.459 150.589L130.938 150.65L129.667 150.696C129.256 150.738 128.851 150.82 128.457 150.943C126.798 151.372 125.189 151.852 123.515 152.236Z" fill="#DBDBDB"/>
<path d="M115.103 173.105C116.928 172.599 118.759 172.16 120.589 171.71C122.42 171.261 124.26 170.836 126.096 170.402C127.019 170.19 127.932 169.988 128.875 169.801L131.663 169.326C133.524 169.028 135.385 168.73 137.256 168.472C135.41 168.871 133.559 169.225 131.709 169.584L128.925 170.089C128.017 170.276 127.089 170.508 126.172 170.705L120.65 171.938C118.804 172.342 116.958 172.736 115.103 173.105Z" fill="#DBDBDB"/>
<path d="M141.205 167.603C143.041 167.154 144.891 166.734 146.752 166.32C148.613 165.906 150.454 165.527 152.299 165.133C153.227 164.936 154.15 164.754 155.098 164.587L157.902 164.173C159.778 163.911 161.654 163.668 163.535 163.431C161.674 163.789 159.808 164.108 157.942 164.441L155.138 164.891C154.221 165.057 153.288 165.269 152.36 165.446L146.813 166.563C144.927 166.911 143.066 167.27 141.205 167.603Z" fill="#DBDBDB"/>
<path d="M0 145.957L25.7538 145.836L51.5025 145.79L103 145.709L154.497 145.79L180.251 145.836L206 145.957L180.251 146.083L154.497 146.129L103 146.21L51.5025 146.129L25.7538 146.083L0 145.957Z" fill="#263238"/>
<path d="M114.958 18.7655C114.081 26.2975 109.25 27.6816 108.443 29.6922C108.033 30.9548 107.696 32.24 107.434 33.5415H99.5825C99.3226 32.2379 98.9858 30.9509 98.574 29.6871C97.7722 27.6665 92.9361 26.2975 92.0586 18.7655C91.4787 13.8149 95.1953 6 103.506 6C111.816 6 115.518 13.8149 114.958 18.7655Z" fill="#FFD246"/>
<path d="M99.0835 21.641L98.5869 21.7339L100.921 34.2533L101.418 34.1604L99.0835 21.641Z" fill="white"/>
<path d="M107.123 21.656L104.786 34.175L105.283 34.268L107.619 21.749L107.123 21.656Z" fill="white"/>
<path d="M103.096 25.8847C102.471 25.8847 101.84 25.3795 101.321 24.4955C101.321 24.4652 101.285 24.4348 101.27 24.3995C101.189 24.5017 101.087 24.5859 100.972 24.6468C100.857 24.7076 100.73 24.7438 100.6 24.7531C99.4045 24.7531 98.9254 22.3031 98.9053 22.2273L99.1574 22.1768C99.2784 22.8335 99.7777 24.5258 100.6 24.5258C100.709 24.5108 100.814 24.4729 100.908 24.4146C101.002 24.3563 101.082 24.2789 101.144 24.1873C100.64 23.177 100.363 21.8383 100.726 21.2068C100.781 21.104 100.863 21.0183 100.964 20.9595C101.064 20.9006 101.179 20.8708 101.296 20.8734C101.431 20.869 101.566 20.902 101.684 20.9688C101.802 21.0356 101.9 21.1337 101.966 21.2523C102.334 21.8989 102.062 23.1669 101.598 23.9751C101.551 24.0577 101.499 24.137 101.442 24.2126L101.543 24.3944C101.815 24.8642 102.38 25.6573 103.096 25.6573C103.575 25.6573 104.054 25.2785 104.452 24.5864L104.543 24.4247C104.067 23.8253 103.814 23.0789 103.827 22.3132C103.827 21.4241 104.165 20.8734 104.71 20.8734C104.815 20.8753 104.917 20.9059 105.006 20.962C105.095 21.0181 105.167 21.0975 105.214 21.1917C105.562 21.7979 105.375 23.2427 104.831 24.3843C105.035 24.5778 105.306 24.6861 105.587 24.6874C106.293 24.6874 106.918 22.98 107.1 22.3233L107.347 22.3889C107.271 22.6516 106.611 24.94 105.587 24.94C105.266 24.9362 104.957 24.818 104.715 24.6066L104.654 24.7127C104.205 25.4957 103.646 25.9099 103.081 25.9099L103.096 25.8847ZM104.71 21.1008C104.246 21.1008 104.079 21.7423 104.079 22.2879C104.075 22.956 104.278 23.609 104.659 24.157C105.128 23.1214 105.305 21.8029 105.012 21.2927C104.985 21.2355 104.942 21.1872 104.888 21.1533C104.835 21.1193 104.773 21.1011 104.71 21.1008ZM101.296 21.1008C101.224 21.0975 101.152 21.1153 101.091 21.1521C101.029 21.1889 100.979 21.2431 100.948 21.3079C100.675 21.7777 100.852 22.9194 101.316 23.9297L101.376 23.8236C101.8 23.0911 102.057 21.8939 101.744 21.3533C101.702 21.2724 101.637 21.2055 101.557 21.1607C101.478 21.1159 101.387 21.0951 101.296 21.1008Z" fill="white"/>
<path d="M107.941 33.3662H98.249V35.2656H107.941V33.3662Z" fill="#263238"/>
<path d="M107.941 35.5686H98.249V37.468H107.941V35.5686Z" fill="#263238"/>
<path d="M107.941 37.7761H98.249V39.6755H107.941V37.7761Z" fill="#263238"/>
<path d="M102.945 3.13707C102.76 2.63584 102.665 2.10546 102.667 1.57106C102.644 1.03818 102.72 0.505655 102.889 0C103.074 0.499581 103.168 1.02823 103.167 1.56096C103.19 2.09551 103.115 2.62976 102.945 3.13707Z" fill="#263238"/>
<path d="M95.7939 5.13254C95.3889 4.79122 95.0474 4.38075 94.7853 3.92015C94.5011 3.4683 94.3012 2.96849 94.1953 2.44507C94.5994 2.7893 94.9406 3.20124 95.2039 3.66251C95.488 4.11257 95.688 4.61071 95.7939 5.13254Z" fill="#263238"/>
<path d="M90.5993 10.4468C90.0669 10.3582 89.5546 10.1751 89.0864 9.90629C88.6148 9.65878 88.1926 9.3266 87.8408 8.92627C88.3732 9.01491 88.8855 9.19796 89.3537 9.4668C89.8253 9.7143 90.2475 10.0465 90.5993 10.4468Z" fill="#263238"/>
<path d="M88.7537 17.6505C88.2533 17.8358 87.7239 17.9299 87.1904 17.9283C86.6584 17.951 86.1268 17.8757 85.6221 17.706C86.6323 17.3479 87.7314 17.3284 88.7537 17.6505Z" fill="#263238"/>
<path d="M90.7502 24.8086C90.0505 25.6208 89.1108 26.1887 88.0674 26.4302C88.4054 26.0217 88.8157 25.6792 89.2777 25.4198C89.7287 25.1307 90.2272 24.9237 90.7502 24.8086Z" fill="#263238"/>
<path d="M115.606 24.5559C116.138 24.643 116.651 24.8243 117.119 25.0914C117.59 25.3405 118.012 25.6725 118.365 26.0714C117.832 25.9865 117.32 25.805 116.852 25.5359C116.383 25.2838 115.962 24.9522 115.606 24.5559Z" fill="#263238"/>
<path d="M117.433 17.3525C117.933 17.168 118.462 17.0722 118.996 17.0696C119.528 17.051 120.059 17.128 120.564 17.2969C119.553 17.648 118.456 17.6674 117.433 17.3525Z" fill="#263238"/>
<path d="M115.44 10.1893C115.781 9.78356 116.191 9.4415 116.651 9.17893C117.101 8.89342 117.6 8.69309 118.123 8.58789C117.78 8.99264 117.368 9.3345 116.908 9.59822C116.459 9.88286 115.961 10.0831 115.44 10.1893Z" fill="#263238"/>
<path d="M110.136 4.98102C110.224 4.44774 110.407 3.93454 110.675 3.46553C110.922 2.99311 111.254 2.57017 111.654 2.21777C111.452 3.26966 110.923 4.23024 110.141 4.96081L110.136 4.98102Z" fill="#263238"/>
<path d="M122.212 84.0543C122.233 84.1584 122.216 84.2666 122.164 84.3593C122.112 84.4519 122.029 84.5229 121.93 84.5595L120.24 84.8525C118.223 80.7505 116.151 77.5427 116.741 78.8158C117.643 80.8246 118.261 82.95 118.576 85.1303C117.835 85.2516 116.1 85.5193 115.233 85.6355C113.009 78.2803 110.644 72.9003 110.956 74.6077C112.212 81.4729 112.096 83.7361 111.935 86.1558C103.866 87.3934 93.2763 88.8887 85.5607 89.793C84.174 85.7517 82.8578 81.3416 82.7569 81.6699C81.9904 84.1149 82.1114 87.5399 82.4039 90.1567C79.9481 90.4244 77.9864 90.5911 76.7812 90.6315C76.7812 90.6315 75.7726 87.2065 75.5658 86.0851C74.995 83.1813 74.9319 80.2004 75.3793 77.275C75.8482 74.2895 76.9476 71.5818 77.9713 68.8135C77.9684 68.7934 77.9684 68.773 77.9713 68.7529C78.6485 66.9414 79.1172 65.0584 79.3681 63.1405C79.3716 63.1256 79.3716 63.11 79.3681 63.095C79.532 61.697 79.5776 60.2877 79.5043 58.882C79.2471 53.7344 81.4055 49.0313 85.7372 47.2228C93.1956 37.8015 102.126 40.5243 105.48 46.8187C105.803 47.4299 106.13 48.1371 106.458 48.9151C107.684 51.7794 108.924 55.5327 109.988 58.4273C109.988 58.4273 109.988 58.4273 109.988 58.4576C110.396 59.5914 110.87 60.6997 111.41 61.7766C114.28 66.9242 119.539 69.45 122.212 84.0543Z" fill="#263238"/>
<path d="M83.9931 48.8089C81.2448 50.7588 79.7269 53.3554 79.7168 57.1239C79.7168 59.3315 79.8328 61.4683 79.2982 63.6001C78.7637 65.7319 77.6795 67.6717 76.5801 69.5459C74.8252 72.5162 73.7057 75.4108 73.8217 79.1086C73.9377 82.8064 74.6336 87.2367 76.2221 90.586C76.2221 90.586 76.2624 90.586 76.2524 90.586C74.8757 87.1609 74.2655 82.2912 74.4117 78.5428C74.568 74.4308 76.4036 71.6625 78.2241 68.3587C79.6971 65.7379 80.4651 62.7786 80.453 59.771C80.453 57.9018 80.1959 55.9873 80.68 54.1788C81.2599 52.0167 82.7526 50.5264 84.2503 49.1878C84.452 48.9857 84.2049 48.6624 83.9931 48.8089Z" fill="#263238"/>
<path d="M117.119 67.0201C114.688 64.3326 112.227 62.0846 110.563 58.6142C109.05 55.4518 108.012 52.047 106.489 48.8948C106.485 48.8847 106.477 48.8767 106.467 48.8724C106.457 48.8682 106.446 48.868 106.436 48.8721C106.426 48.8761 106.418 48.8839 106.413 48.8939C106.409 48.9038 106.409 48.9151 106.413 48.9251C108.854 54.5627 109.898 60.3923 113.977 64.9237C116.206 67.3838 118.405 69.6469 120.029 72.7032C121.707 75.9217 122.803 79.4124 123.266 83.0136C123.266 83.1449 123.438 83.1197 123.433 83.0136C123.266 77.1056 121.031 71.4443 117.119 67.0201Z" fill="#263238"/>
<path d="M111.24 87.8279C127.18 104.564 146.998 139.542 143.08 146.498C138.713 154.247 115.728 130.423 116.449 129.282C117.064 128.317 109.122 107.257 103.337 91.8541C97.5533 76.4516 107.301 83.6654 111.24 87.8279Z" fill="#F7A9A0"/>
<path d="M130.77 107.868L107.886 112C107.886 112 102.172 95.7539 101.037 86.7418C100.402 81.6902 103.367 81.478 107.089 84.1655C120.145 93.5565 130.77 107.868 130.77 107.868Z" fill="#FFBD1B"/>
<path d="M103.856 92.0106C103.856 92.0955 103.831 92.1786 103.784 92.2492C103.737 92.3198 103.67 92.3748 103.592 92.4073C103.513 92.4398 103.427 92.4483 103.344 92.4318C103.261 92.4152 103.185 92.3743 103.125 92.3142C103.065 92.2542 103.024 92.1777 103.007 92.0944C102.991 92.0111 102.999 91.9247 103.032 91.8463C103.064 91.7678 103.119 91.7008 103.19 91.6536C103.26 91.6064 103.343 91.5812 103.428 91.5812C103.541 91.5812 103.65 91.6265 103.731 91.707C103.811 91.7875 103.856 91.8967 103.856 92.0106ZM110.573 91.5812C110.489 91.5812 110.406 91.6064 110.335 91.6536C110.265 91.7008 110.21 91.7678 110.177 91.8463C110.145 91.9247 110.136 92.0111 110.153 92.0944C110.17 92.1777 110.21 92.2542 110.27 92.3142C110.33 92.3743 110.407 92.4152 110.49 92.4318C110.573 92.4483 110.659 92.4398 110.737 92.4073C110.816 92.3748 110.883 92.3198 110.93 92.2492C110.977 92.1786 111.002 92.0955 111.002 92.0106C111.002 91.9534 110.991 91.8967 110.968 91.8439C110.946 91.7912 110.914 91.7434 110.873 91.7034C110.832 91.6634 110.784 91.6319 110.73 91.611C110.677 91.59 110.62 91.5799 110.563 91.5812H110.573ZM107.003 86.0244C106.918 86.0244 106.835 86.0496 106.765 86.0968C106.694 86.144 106.639 86.211 106.607 86.2895C106.575 86.3679 106.566 86.4543 106.583 86.5376C106.599 86.6209 106.64 86.6974 106.7 86.7574C106.76 86.8175 106.836 86.8584 106.919 86.875C107.003 86.8915 107.089 86.883 107.167 86.8505C107.245 86.818 107.312 86.763 107.359 86.6924C107.407 86.6217 107.432 86.5387 107.432 86.4538C107.426 86.3435 107.379 86.2394 107.299 86.1632C107.219 86.087 107.113 86.0445 107.003 86.0446V86.0244ZM110.563 102.745C110.479 102.745 110.396 102.771 110.325 102.818C110.255 102.865 110.2 102.932 110.167 103.01C110.135 103.089 110.126 103.175 110.143 103.259C110.159 103.342 110.2 103.418 110.26 103.478C110.32 103.538 110.397 103.579 110.48 103.596C110.563 103.612 110.649 103.604 110.727 103.571C110.806 103.539 110.873 103.484 110.92 103.413C110.967 103.343 110.992 103.26 110.992 103.175C110.992 103.061 110.947 102.952 110.866 102.871C110.786 102.791 110.677 102.745 110.563 102.745ZM117.709 102.745C117.624 102.745 117.541 102.771 117.471 102.818C117.4 102.865 117.345 102.932 117.313 103.01C117.281 103.089 117.272 103.175 117.289 103.259C117.305 103.342 117.346 103.418 117.406 103.478C117.466 103.538 117.542 103.579 117.625 103.596C117.709 103.612 117.795 103.604 117.873 103.571C117.951 103.539 118.018 103.484 118.065 103.413C118.112 103.343 118.138 103.26 118.138 103.175C118.138 103.063 118.094 102.955 118.016 102.875C117.937 102.794 117.831 102.748 117.719 102.745H117.709ZM124.855 102.745C124.77 102.745 124.687 102.771 124.617 102.818C124.546 102.865 124.491 102.932 124.459 103.01C124.426 103.089 124.418 103.175 124.434 103.259C124.451 103.342 124.492 103.418 124.552 103.478C124.612 103.538 124.688 103.579 124.771 103.596C124.854 103.612 124.94 103.604 125.019 103.571C125.097 103.539 125.164 103.484 125.211 103.413C125.258 103.343 125.283 103.26 125.283 103.175C125.283 103.063 125.24 102.955 125.161 102.875C125.083 102.794 124.977 102.748 124.865 102.745H124.855ZM106.993 97.1885C106.908 97.1885 106.825 97.2137 106.755 97.2609C106.684 97.3081 106.629 97.3752 106.597 97.4536C106.565 97.5321 106.556 97.6184 106.573 97.7017C106.589 97.785 106.63 97.8615 106.69 97.9216C106.75 97.9816 106.826 98.0225 106.909 98.0391C106.992 98.0556 107.079 98.0471 107.157 98.0146C107.235 97.9821 107.302 97.9271 107.349 97.8565C107.396 97.7859 107.422 97.7029 107.422 97.6179C107.415 97.5097 107.369 97.4077 107.292 97.332C107.214 97.2563 107.111 97.2124 107.003 97.2088L106.993 97.1885ZM114.134 97.1885C114.049 97.1885 113.966 97.2137 113.895 97.2609C113.825 97.3081 113.77 97.3752 113.738 97.4536C113.705 97.5321 113.697 97.6184 113.713 97.7017C113.73 97.785 113.771 97.8615 113.831 97.9216C113.89 97.9816 113.967 98.0225 114.05 98.0391C114.133 98.0556 114.219 98.0471 114.298 98.0146C114.376 97.9821 114.443 97.9271 114.49 97.8565C114.537 97.7859 114.562 97.7029 114.562 97.6179C114.556 97.5097 114.51 97.4077 114.432 97.332C114.355 97.2563 114.252 97.2124 114.144 97.2088L114.134 97.1885ZM121.279 97.1885C121.195 97.1885 121.112 97.2137 121.041 97.2609C120.971 97.3081 120.916 97.3752 120.883 97.4536C120.851 97.5321 120.842 97.6184 120.859 97.7017C120.875 97.785 120.916 97.8615 120.976 97.9216C121.036 97.9816 121.113 98.0225 121.196 98.0391C121.279 98.0556 121.365 98.0471 121.443 98.0146C121.522 97.9821 121.589 97.9271 121.636 97.8565C121.683 97.7859 121.708 97.7029 121.708 97.6179C121.702 97.5097 121.655 97.4077 121.578 97.332C121.5 97.2563 121.398 97.2124 121.289 97.2088L121.279 97.1885ZM106.993 108.358C106.88 108.357 106.772 108.401 106.69 108.479C106.771 108.737 106.857 108.984 106.932 109.211H106.993C107.049 109.211 107.105 109.2 107.156 109.179C107.208 109.157 107.255 109.125 107.294 109.085C107.334 109.045 107.365 108.998 107.386 108.946C107.407 108.894 107.417 108.838 107.417 108.782C107.413 108.674 107.368 108.572 107.291 108.497C107.214 108.422 107.111 108.379 107.003 108.378L106.993 108.358ZM114.134 108.358C114.048 108.357 113.963 108.381 113.891 108.428C113.819 108.476 113.763 108.543 113.729 108.622C113.696 108.702 113.686 108.789 113.703 108.874C113.719 108.958 113.76 109.036 113.82 109.098C113.881 109.159 113.958 109.201 114.042 109.218C114.126 109.235 114.214 109.227 114.293 109.194C114.373 109.161 114.441 109.106 114.489 109.034C114.537 108.962 114.562 108.878 114.562 108.792C114.558 108.682 114.513 108.578 114.435 108.5C114.358 108.422 114.254 108.377 114.144 108.373L114.134 108.358ZM121.279 108.358C121.193 108.357 121.109 108.381 121.037 108.428C120.965 108.476 120.909 108.543 120.875 108.622C120.841 108.702 120.832 108.789 120.848 108.874C120.864 108.958 120.905 109.036 120.966 109.098C121.026 109.159 121.104 109.201 121.188 109.218C121.272 109.235 121.36 109.227 121.439 109.194C121.519 109.161 121.587 109.106 121.635 109.034C121.682 108.962 121.708 108.878 121.708 108.792C121.704 108.682 121.659 108.578 121.581 108.5C121.504 108.422 121.399 108.377 121.289 108.373L121.279 108.358Z" fill="white"/>
<path d="M108.042 108.242C111.511 107.317 120.992 105.074 127.346 104.423C127.386 104.423 127.416 104.564 127.376 104.574C122.177 105.913 111.627 107.832 108.092 108.459C108.042 108.469 107.966 108.262 108.042 108.242Z" fill="#263238"/>
<path opacity="0.1" d="M127.709 108.423L107.886 111.995C107.886 111.995 102.177 95.7488 101.043 86.7366C100.634 83.5036 101.708 82.2558 103.508 82.4781L127.709 108.423Z" fill="black"/>
<path d="M120.539 145.785H62.5459C62.5459 145.785 67.8258 105.251 86.5095 83.9332C91.5523 78.1844 100.695 79.8919 105.017 83.7766C106.543 85.26 107.951 86.8613 109.227 88.5655C113.156 93.6172 119.57 105.766 120.17 109.05C121.179 114.48 116.368 120.345 116.368 120.345L120.539 145.785Z" fill="#FFBD1B"/>
<path d="M96.7105 80.8466C96.7105 80.9316 96.6853 81.0146 96.6382 81.0852C96.5911 81.1558 96.5242 81.2108 96.4459 81.2433C96.3675 81.2758 96.2813 81.2843 96.1982 81.2678C96.1151 81.2512 96.0387 81.2103 95.9787 81.1503C95.9188 81.0902 95.878 81.0137 95.8614 80.9304C95.8449 80.8471 95.8534 80.7608 95.8858 80.6823C95.9183 80.6038 95.9732 80.5368 96.0437 80.4896C96.1142 80.4424 96.197 80.4172 96.2818 80.4172C96.3955 80.4172 96.5045 80.4625 96.5849 80.543C96.6653 80.6235 96.7105 80.7327 96.7105 80.8466ZM81.9955 91.5814C81.9107 91.5814 81.8278 91.6065 81.7573 91.6537C81.6868 91.7009 81.6319 91.768 81.5994 91.8464C81.567 91.9249 81.5585 92.0112 81.5751 92.0945C81.5916 92.1778 81.6324 92.2543 81.6924 92.3144C81.7523 92.3744 81.8287 92.4153 81.9118 92.4319C81.995 92.4485 82.0812 92.44 82.1595 92.4075C82.2378 92.375 82.3048 92.3199 82.3519 92.2493C82.399 92.1787 82.4241 92.0957 82.4241 92.0108C82.4241 91.9544 82.413 91.8985 82.3915 91.8464C82.3699 91.7943 82.3384 91.747 82.2986 91.7071C82.2587 91.6673 82.2115 91.6356 82.1595 91.614C82.1075 91.5925 82.0518 91.5814 81.9955 91.5814ZM89.1412 91.5814C89.0564 91.5814 88.9735 91.6065 88.903 91.6537C88.8325 91.7009 88.7776 91.768 88.7451 91.8464C88.7127 91.9249 88.7042 92.0112 88.7208 92.0945C88.7373 92.1778 88.7781 92.2543 88.8381 92.3144C88.898 92.3744 88.9744 92.4153 89.0575 92.4319C89.1407 92.4485 89.2269 92.44 89.3052 92.4075C89.3835 92.375 89.4505 92.3199 89.4976 92.2493C89.5447 92.1787 89.5698 92.0957 89.5698 92.0108C89.5698 91.8969 89.5246 91.7877 89.4443 91.7071C89.3639 91.6266 89.2548 91.5814 89.1412 91.5814ZM96.2818 91.5814C96.197 91.5814 96.1142 91.6065 96.0437 91.6537C95.9732 91.7009 95.9183 91.768 95.8858 91.8464C95.8534 91.9249 95.8449 92.0112 95.8614 92.0945C95.878 92.1778 95.9188 92.2543 95.9787 92.3144C96.0387 92.3744 96.1151 92.4153 96.1982 92.4319C96.2813 92.4485 96.3675 92.44 96.4459 92.4075C96.5242 92.375 96.5911 92.3199 96.6382 92.2493C96.6853 92.1787 96.7105 92.0957 96.7105 92.0108C96.7105 91.9544 96.6994 91.8985 96.6778 91.8464C96.6563 91.7943 96.6247 91.747 96.5849 91.7071C96.5451 91.6673 96.4979 91.6356 96.4459 91.614C96.3939 91.5925 96.3381 91.5814 96.2818 91.5814ZM103.428 91.5814C103.343 91.5814 103.26 91.6065 103.189 91.6537C103.119 91.7009 103.064 91.768 103.032 91.8464C102.999 91.9249 102.991 92.0112 103.007 92.0945C103.024 92.1778 103.064 92.2543 103.124 92.3144C103.184 92.3744 103.261 92.4153 103.344 92.4319C103.427 92.4485 103.513 92.44 103.592 92.4075C103.67 92.375 103.737 92.3199 103.784 92.2493C103.831 92.1787 103.856 92.0957 103.856 92.0108C103.856 91.9544 103.845 91.8985 103.824 91.8464C103.802 91.7943 103.77 91.747 103.731 91.7071C103.691 91.6673 103.644 91.6356 103.592 91.614C103.54 91.5925 103.484 91.5814 103.428 91.5814ZM110.573 91.5814C110.488 91.5814 110.406 91.6065 110.335 91.6537C110.265 91.7009 110.21 91.768 110.177 91.8464C110.145 91.9249 110.136 92.0112 110.153 92.0945C110.169 92.1778 110.21 92.2543 110.27 92.3144C110.33 92.3744 110.406 92.4153 110.49 92.4319C110.573 92.4485 110.659 92.44 110.737 92.4075C110.816 92.375 110.883 92.3199 110.93 92.2493C110.977 92.1787 111.002 92.0957 111.002 92.0108C111.002 91.9535 110.99 91.8968 110.968 91.8441C110.946 91.7913 110.914 91.7435 110.873 91.7035C110.832 91.6635 110.783 91.6321 110.73 91.6111C110.677 91.5901 110.62 91.58 110.563 91.5814H110.573ZM85.5658 86.0246C85.481 86.0246 85.3981 86.0497 85.3277 86.0969C85.2572 86.1441 85.2022 86.2112 85.1698 86.2896C85.1373 86.3681 85.1288 86.4544 85.1454 86.5377C85.1619 86.621 85.2028 86.6975 85.2627 86.7576C85.3226 86.8176 85.399 86.8585 85.4822 86.8751C85.5653 86.8917 85.6515 86.8832 85.7298 86.8507C85.8081 86.8182 85.8751 86.7631 85.9222 86.6925C85.9693 86.6219 85.9944 86.5389 85.9944 86.454C85.9892 86.3436 85.9418 86.2395 85.862 86.1633C85.7821 86.0871 85.6761 86.0446 85.5658 86.0448V86.0246ZM92.7115 86.0246C92.6267 86.0246 92.5438 86.0497 92.4734 86.0969C92.4029 86.1441 92.3479 86.2112 92.3155 86.2896C92.283 86.3681 92.2745 86.4544 92.2911 86.5377C92.3076 86.621 92.3485 86.6975 92.4084 86.7576C92.4683 86.8176 92.5447 86.8585 92.6279 86.8751C92.711 86.8917 92.7972 86.8832 92.8755 86.8507C92.9539 86.8182 93.0208 86.7631 93.0679 86.6925C93.115 86.6219 93.1401 86.5389 93.1401 86.454C93.1349 86.3436 93.0875 86.2395 93.0077 86.1633C92.9278 86.0871 92.8218 86.0446 92.7115 86.0448V86.0246ZM99.8572 86.0246C99.7724 86.0246 99.6895 86.0497 99.6191 86.0969C99.5486 86.1441 99.4936 86.2112 99.4612 86.2896C99.4287 86.3681 99.4202 86.4544 99.4368 86.5377C99.4533 86.621 99.4942 86.6975 99.5541 86.7576C99.6141 86.8176 99.6904 86.8585 99.7736 86.8751C99.8567 86.8917 99.9429 86.8832 100.021 86.8507C100.1 86.8182 100.167 86.7631 100.214 86.6925C100.261 86.6219 100.286 86.5389 100.286 86.454C100.281 86.3436 100.233 86.2395 100.153 86.1633C100.074 86.0871 99.9675 86.0446 99.8572 86.0448V86.0246ZM107.421 86.3024L107.245 86.0852C107.164 86.0374 107.069 86.0178 106.975 86.0295C106.882 86.0412 106.794 86.0835 106.727 86.1498C106.66 86.2162 106.617 86.3029 106.604 86.3965C106.591 86.4901 106.609 86.5853 106.655 86.6675C106.702 86.7497 106.774 86.8142 106.861 86.851C106.948 86.8879 107.045 86.8949 107.136 86.8712C107.227 86.8474 107.308 86.7942 107.366 86.7196C107.424 86.6451 107.456 86.5535 107.457 86.459C107.449 86.406 107.428 86.3557 107.396 86.3125L107.421 86.3024ZM74.875 102.725H74.8145C74.7186 102.948 74.6178 103.17 74.522 103.387C74.5637 103.448 74.6205 103.497 74.6868 103.53C74.7531 103.563 74.8267 103.578 74.9005 103.573C74.9742 103.569 75.0457 103.546 75.1078 103.506C75.1699 103.466 75.2206 103.41 75.255 103.345C75.2894 103.279 75.3064 103.206 75.3042 103.132C75.302 103.058 75.2807 102.986 75.2425 102.922C75.2042 102.859 75.1503 102.807 75.0859 102.77C75.0215 102.734 74.9489 102.715 74.875 102.715V102.725ZM82.0207 102.725C81.9359 102.725 81.853 102.75 81.7825 102.798C81.712 102.845 81.6571 102.912 81.6247 102.99C81.5922 103.069 81.5837 103.155 81.6003 103.238C81.6168 103.322 81.6576 103.398 81.7176 103.458C81.7775 103.518 81.8539 103.559 81.9371 103.576C82.0202 103.592 82.1064 103.584 82.1847 103.551C82.263 103.519 82.33 103.464 82.3771 103.393C82.4242 103.323 82.4493 103.24 82.4493 103.155C82.4467 103.098 82.4329 103.042 82.4086 102.991C82.3843 102.939 82.3501 102.893 82.3079 102.855C82.2656 102.817 82.2163 102.788 82.1626 102.769C82.109 102.75 82.0522 102.742 81.9955 102.745L82.0207 102.725ZM89.1664 102.725C89.0816 102.725 88.9987 102.75 88.9282 102.798C88.8577 102.845 88.8028 102.912 88.7704 102.99C88.7379 103.069 88.7294 103.155 88.746 103.238C88.7625 103.322 88.8033 103.398 88.8633 103.458C88.9232 103.518 88.9996 103.559 89.0828 103.576C89.1659 103.592 89.2521 103.584 89.3304 103.551C89.4087 103.519 89.4757 103.464 89.5228 103.393C89.5699 103.323 89.595 103.24 89.595 103.155C89.5924 103.098 89.5786 103.042 89.5543 102.991C89.5301 102.939 89.4958 102.893 89.4536 102.855C89.4113 102.817 89.362 102.788 89.3083 102.769C89.2547 102.75 89.1979 102.742 89.1412 102.745L89.1664 102.725ZM96.307 102.725C96.2223 102.725 96.1394 102.75 96.0689 102.798C95.9984 102.845 95.9435 102.912 95.911 102.99C95.8786 103.069 95.8701 103.155 95.8866 103.238C95.9032 103.322 95.944 103.398 96.0039 103.458C96.0639 103.518 96.1403 103.559 96.2234 103.576C96.3066 103.592 96.3927 103.584 96.4711 103.551C96.5494 103.519 96.6163 103.464 96.6634 103.393C96.7105 103.323 96.7357 103.24 96.7357 103.155C96.7331 103.098 96.7193 103.042 96.695 102.991C96.6707 102.939 96.6365 102.893 96.5942 102.855C96.552 102.817 96.5026 102.788 96.449 102.769C96.3954 102.75 96.3385 102.742 96.2818 102.745L96.307 102.725ZM103.453 102.725C103.368 102.725 103.285 102.75 103.215 102.798C103.144 102.845 103.089 102.912 103.057 102.99C103.024 103.069 103.016 103.155 103.032 103.238C103.049 103.322 103.09 103.398 103.15 103.458C103.21 103.518 103.286 103.559 103.369 103.576C103.452 103.592 103.538 103.584 103.617 103.551C103.695 103.519 103.762 103.464 103.809 103.393C103.856 103.323 103.881 103.24 103.881 103.155C103.879 103.098 103.865 103.042 103.841 102.991C103.816 102.939 103.782 102.893 103.74 102.855C103.698 102.817 103.648 102.788 103.595 102.769C103.541 102.75 103.484 102.742 103.428 102.745L103.453 102.725ZM110.598 102.725C110.514 102.725 110.431 102.75 110.36 102.798C110.29 102.845 110.235 102.912 110.202 102.99C110.17 103.069 110.161 103.155 110.178 103.238C110.195 103.322 110.235 103.398 110.295 103.458C110.355 103.518 110.432 103.559 110.515 103.576C110.598 103.592 110.684 103.584 110.762 103.551C110.841 103.519 110.908 103.464 110.955 103.393C111.002 103.323 111.027 103.24 111.027 103.155C111.025 103.097 111.01 103.04 110.986 102.988C110.961 102.936 110.925 102.889 110.882 102.851C110.839 102.813 110.788 102.784 110.733 102.766C110.679 102.748 110.621 102.741 110.563 102.745L110.598 102.725ZM117.658 102.725C117.566 102.747 117.484 102.799 117.426 102.873C117.367 102.948 117.335 103.04 117.336 103.134C117.336 103.249 117.381 103.359 117.461 103.44C117.541 103.521 117.65 103.568 117.764 103.569C117.858 103.569 117.949 103.537 118.022 103.478C117.86 103.266 117.739 103.018 117.623 102.766L117.658 102.725ZM78.4655 97.1685C78.3807 97.1685 78.2978 97.1937 78.2273 97.2408C78.1568 97.288 78.1019 97.3551 78.0695 97.4335C78.037 97.512 78.0285 97.5984 78.0451 97.6816C78.0616 97.7649 78.1024 97.8414 78.1624 97.9015C78.2223 97.9615 78.2987 98.0024 78.3818 98.019C78.465 98.0356 78.5512 98.0271 78.6295 97.9946C78.7078 97.9621 78.7748 97.907 78.8219 97.8364C78.869 97.7658 78.8941 97.6828 78.8941 97.5979C78.8826 97.4834 78.8263 97.3781 78.7374 97.3052C78.6485 97.2322 78.5344 97.1976 78.4201 97.2089L78.4655 97.1685ZM85.6112 97.1685C85.5264 97.1685 85.4435 97.1937 85.373 97.2408C85.3025 97.288 85.2476 97.3551 85.2152 97.4335C85.1827 97.512 85.1742 97.5984 85.1908 97.6816C85.2073 97.7649 85.2481 97.8414 85.3081 97.9015C85.368 97.9615 85.4444 98.0024 85.5276 98.019C85.6107 98.0356 85.6969 98.0271 85.7752 97.9946C85.8535 97.9621 85.9205 97.907 85.9676 97.8364C86.0147 97.7658 86.0398 97.6828 86.0398 97.5979C86.0283 97.4834 85.972 97.3781 85.8831 97.3052C85.7942 97.2322 85.6801 97.1976 85.5658 97.2089L85.6112 97.1685ZM92.7569 97.1685C92.6721 97.1685 92.5892 97.1937 92.5187 97.2408C92.4482 97.288 92.3933 97.3551 92.3609 97.4335C92.3284 97.512 92.3199 97.5984 92.3365 97.6816C92.353 97.7649 92.3938 97.8414 92.4538 97.9015C92.5137 97.9615 92.5901 98.0024 92.6733 98.019C92.7564 98.0356 92.8426 98.0271 92.9209 97.9946C92.9992 97.9621 93.0662 97.907 93.1133 97.8364C93.1604 97.7658 93.1855 97.6828 93.1855 97.5979C93.174 97.4834 93.1177 97.3781 93.0288 97.3052C92.9399 97.2322 92.8258 97.1976 92.7115 97.2089L92.7569 97.1685ZM99.9026 97.1685C99.8178 97.1685 99.7349 97.1937 99.6644 97.2408C99.594 97.288 99.539 97.3551 99.5066 97.4335C99.4741 97.512 99.4656 97.5984 99.4822 97.6816C99.4987 97.7649 99.5395 97.8414 99.5995 97.9015C99.6594 97.9615 99.7358 98.0024 99.819 98.019C99.9021 98.0356 99.9883 98.0271 100.067 97.9946C100.145 97.9621 100.212 97.907 100.259 97.8364C100.306 97.7658 100.331 97.6828 100.331 97.5979C100.32 97.4834 100.263 97.3781 100.175 97.3052C100.086 97.2322 99.9715 97.1976 99.8572 97.2089L99.9026 97.1685ZM107.048 97.1685C106.964 97.1685 106.881 97.1937 106.81 97.2408C106.74 97.288 106.685 97.3551 106.652 97.4335C106.62 97.512 106.611 97.5984 106.628 97.6816C106.644 97.7649 106.685 97.8414 106.745 97.9015C106.805 97.9615 106.882 98.0024 106.965 98.019C107.048 98.0356 107.134 98.0271 107.212 97.9946C107.291 97.9621 107.358 97.907 107.405 97.8364C107.452 97.7658 107.477 97.6828 107.477 97.5979C107.465 97.4834 107.409 97.3781 107.32 97.3052C107.231 97.2322 107.117 97.1976 107.003 97.2089L107.048 97.1685ZM114.189 97.1685C114.104 97.1685 114.021 97.1937 113.951 97.2408C113.88 97.288 113.825 97.3551 113.793 97.4335C113.76 97.512 113.752 97.5984 113.769 97.6816C113.785 97.7649 113.826 97.8414 113.886 97.9015C113.946 97.9615 114.022 98.0024 114.105 98.019C114.188 98.0356 114.275 98.0271 114.353 97.9946C114.431 97.9621 114.498 97.907 114.545 97.8364C114.592 97.7658 114.618 97.6828 114.618 97.5979C114.606 97.4834 114.55 97.3781 114.461 97.3052C114.372 97.2322 114.258 97.1976 114.144 97.2089L114.189 97.1685ZM74.8951 113.869C74.8104 113.869 74.7275 113.894 74.657 113.942C74.5865 113.989 74.5316 114.056 74.4991 114.134C74.4667 114.213 74.4582 114.299 74.4747 114.382C74.4913 114.466 74.5321 114.542 74.592 114.602C74.652 114.662 74.7284 114.703 74.8115 114.72C74.8947 114.736 74.9808 114.728 75.0592 114.695C75.1375 114.663 75.2044 114.608 75.2515 114.537C75.2986 114.467 75.3238 114.384 75.3238 114.299C75.3188 114.242 75.3024 114.186 75.2757 114.136C75.2491 114.085 75.2126 114.04 75.1684 114.004C75.1243 113.968 75.0733 113.941 75.0186 113.925C74.9639 113.908 74.9065 113.903 74.8498 113.91L74.8951 113.869ZM82.0408 113.869C81.9561 113.869 81.8732 113.894 81.8027 113.942C81.7322 113.989 81.6773 114.056 81.6448 114.134C81.6124 114.213 81.6039 114.299 81.6204 114.382C81.637 114.466 81.6778 114.542 81.7378 114.602C81.7977 114.662 81.8741 114.703 81.9572 114.72C82.0404 114.736 82.1266 114.728 82.2049 114.695C82.2832 114.663 82.3501 114.608 82.3972 114.537C82.4443 114.467 82.4695 114.384 82.4695 114.299C82.4645 114.242 82.4481 114.186 82.4215 114.136C82.3948 114.085 82.3583 114.04 82.3141 114.004C82.27 113.968 82.219 113.941 82.1643 113.925C82.1096 113.908 82.0522 113.903 81.9955 113.91L82.0408 113.869ZM89.1866 113.869C89.1018 113.869 89.0189 113.894 88.9484 113.942C88.8779 113.989 88.823 114.056 88.7905 114.134C88.7581 114.213 88.7496 114.299 88.7661 114.382C88.7827 114.466 88.8235 114.542 88.8835 114.602C88.9434 114.662 89.0198 114.703 89.1029 114.72C89.1861 114.736 89.2723 114.728 89.3506 114.695C89.4289 114.663 89.4958 114.608 89.5429 114.537C89.59 114.467 89.6152 114.384 89.6152 114.299C89.6102 114.242 89.5938 114.186 89.5672 114.136C89.5405 114.085 89.504 114.04 89.4598 114.004C89.4157 113.968 89.3648 113.941 89.31 113.925C89.2553 113.908 89.1979 113.903 89.1412 113.91L89.1866 113.869ZM96.3272 113.869C96.2424 113.869 96.1596 113.894 96.0891 113.942C96.0186 113.989 95.9636 114.056 95.9312 114.134C95.8988 114.213 95.8903 114.299 95.9068 114.382C95.9233 114.466 95.9642 114.542 96.0241 114.602C96.0841 114.662 96.1604 114.703 96.2436 114.72C96.3267 114.736 96.4129 114.728 96.4912 114.695C96.5696 114.663 96.6365 114.608 96.6836 114.537C96.7307 114.467 96.7558 114.384 96.7558 114.299C96.7508 114.242 96.7345 114.186 96.7078 114.136C96.6811 114.085 96.6447 114.04 96.6005 114.004C96.5563 113.968 96.5054 113.941 96.4507 113.925C96.396 113.908 96.3386 113.903 96.2818 113.91L96.3272 113.869ZM103.473 113.869C103.388 113.869 103.305 113.894 103.235 113.942C103.164 113.989 103.109 114.056 103.077 114.134C103.044 114.213 103.036 114.299 103.053 114.382C103.069 114.466 103.11 114.542 103.17 114.602C103.23 114.662 103.306 114.703 103.389 114.72C103.472 114.736 103.559 114.728 103.637 114.695C103.715 114.663 103.782 114.608 103.829 114.537C103.876 114.467 103.902 114.384 103.902 114.299C103.897 114.242 103.88 114.186 103.854 114.136C103.827 114.085 103.79 114.04 103.746 114.004C103.702 113.968 103.651 113.941 103.596 113.925C103.542 113.908 103.484 113.903 103.428 113.91L103.473 113.869ZM110.619 113.869C110.534 113.869 110.451 113.894 110.38 113.942C110.31 113.989 110.255 114.056 110.223 114.134C110.19 114.213 110.182 114.299 110.198 114.382C110.215 114.466 110.256 114.542 110.316 114.602C110.375 114.662 110.452 114.703 110.535 114.72C110.618 114.736 110.704 114.728 110.783 114.695C110.861 114.663 110.928 114.608 110.975 114.537C111.022 114.467 111.047 114.384 111.047 114.299C111.042 114.241 111.026 114.184 110.998 114.133C110.971 114.082 110.934 114.037 110.888 114C110.843 113.964 110.791 113.937 110.735 113.922C110.679 113.906 110.621 113.902 110.563 113.91L110.619 113.869ZM117.764 113.869C117.68 113.869 117.597 113.894 117.526 113.942C117.456 113.989 117.401 114.056 117.368 114.134C117.336 114.213 117.327 114.299 117.344 114.382C117.36 114.466 117.401 114.542 117.461 114.602C117.521 114.662 117.598 114.703 117.681 114.72C117.764 114.736 117.85 114.728 117.928 114.695C118.007 114.663 118.074 114.608 118.121 114.537C118.168 114.467 118.193 114.384 118.193 114.299C118.188 114.242 118.172 114.186 118.145 114.136C118.118 114.085 118.082 114.04 118.038 114.004C117.993 113.968 117.943 113.941 117.888 113.925C117.833 113.908 117.776 113.903 117.719 113.91L117.764 113.869ZM78.4655 108.312C78.3795 108.311 78.2952 108.336 78.2232 108.383C78.1512 108.43 78.0948 108.498 78.0612 108.577C78.0276 108.656 78.0183 108.744 78.0345 108.828C78.0506 108.913 78.0915 108.991 78.152 109.052C78.2124 109.113 78.2897 109.155 78.3739 109.173C78.4582 109.19 78.5457 109.181 78.6252 109.149C78.7048 109.116 78.7728 109.06 78.8207 108.989C78.8685 108.917 78.8941 108.833 78.8941 108.747C78.879 108.635 78.8211 108.534 78.7326 108.464C78.6442 108.394 78.5321 108.362 78.4201 108.373L78.4655 108.312ZM85.6112 108.312C85.5252 108.311 85.4409 108.336 85.3689 108.383C85.2969 108.43 85.2405 108.498 85.2069 108.577C85.1733 108.656 85.164 108.744 85.1802 108.828C85.1963 108.913 85.2372 108.991 85.2977 109.052C85.3581 109.113 85.4354 109.155 85.5197 109.173C85.6039 109.19 85.6914 109.181 85.7709 109.149C85.8505 109.116 85.9185 109.06 85.9664 108.989C86.0142 108.917 86.0398 108.833 86.0398 108.747C86.0247 108.635 85.9668 108.534 85.8783 108.464C85.7899 108.394 85.6778 108.362 85.5658 108.373L85.6112 108.312ZM92.7569 108.312C92.6709 108.311 92.5866 108.336 92.5146 108.383C92.4426 108.43 92.3862 108.498 92.3526 108.577C92.319 108.656 92.3097 108.744 92.3259 108.828C92.342 108.913 92.3829 108.991 92.4434 109.052C92.5038 109.113 92.5811 109.155 92.6654 109.173C92.7496 109.19 92.8371 109.181 92.9166 109.149C92.9962 109.116 93.0642 109.06 93.1121 108.989C93.1599 108.917 93.1855 108.833 93.1855 108.747C93.1704 108.635 93.1125 108.534 93.024 108.464C92.9356 108.394 92.8235 108.362 92.7115 108.373L92.7569 108.312ZM99.9026 108.312C99.8166 108.311 99.7323 108.336 99.6603 108.383C99.5883 108.43 99.5319 108.498 99.4983 108.577C99.4647 108.656 99.4554 108.744 99.4716 108.828C99.4877 108.913 99.5286 108.991 99.5891 109.052C99.6495 109.113 99.7268 109.155 99.8111 109.173C99.8953 109.19 99.9828 109.181 100.062 109.149C100.142 109.116 100.21 109.06 100.258 108.989C100.306 108.917 100.331 108.833 100.331 108.747C100.316 108.635 100.258 108.534 100.17 108.464C100.081 108.394 99.9692 108.362 99.8572 108.373L99.9026 108.312ZM107.048 108.312C106.962 108.311 106.878 108.336 106.806 108.383C106.734 108.43 106.678 108.498 106.644 108.577C106.61 108.656 106.601 108.744 106.617 108.828C106.633 108.913 106.674 108.991 106.735 109.052C106.795 109.113 106.873 109.155 106.957 109.173C107.041 109.19 107.128 109.181 107.208 109.149C107.288 109.116 107.356 109.06 107.403 108.989C107.451 108.917 107.477 108.833 107.477 108.747C107.462 108.635 107.404 108.534 107.315 108.464C107.227 108.394 107.115 108.362 107.003 108.373L107.048 108.312ZM114.189 108.312C114.103 108.311 114.019 108.336 113.947 108.383C113.875 108.43 113.818 108.498 113.785 108.577C113.751 108.656 113.742 108.744 113.758 108.828C113.774 108.913 113.815 108.991 113.875 109.052C113.936 109.113 114.013 109.155 114.097 109.173C114.182 109.19 114.269 109.181 114.349 109.149C114.428 109.116 114.496 109.06 114.544 108.989C114.592 108.917 114.618 108.833 114.618 108.747C114.602 108.635 114.545 108.534 114.456 108.464C114.368 108.394 114.256 108.362 114.144 108.373L114.189 108.312ZM67.699 125.074C67.6142 125.074 67.5314 125.099 67.4609 125.146C67.3904 125.193 67.3354 125.26 67.303 125.339C67.2706 125.417 67.2621 125.504 67.2786 125.587C67.2951 125.67 67.336 125.747 67.3959 125.807C67.4559 125.867 67.5322 125.908 67.6154 125.924C67.6985 125.941 67.7847 125.932 67.863 125.9C67.9414 125.867 68.0083 125.812 68.0554 125.742C68.1025 125.671 68.1277 125.588 68.1277 125.503C68.1277 125.447 68.1166 125.391 68.095 125.339C68.0735 125.287 68.0419 125.239 68.0021 125.2C67.9623 125.16 67.9151 125.128 67.863 125.106C67.811 125.085 67.7553 125.074 67.699 125.074ZM74.8447 125.074C74.7599 125.074 74.6771 125.099 74.6066 125.146C74.5361 125.193 74.4811 125.26 74.4487 125.339C74.4163 125.417 74.4078 125.504 74.4243 125.587C74.4408 125.67 74.4817 125.747 74.5416 125.807C74.6016 125.867 74.6779 125.908 74.7611 125.924C74.8442 125.941 74.9304 125.932 75.0087 125.9C75.0871 125.867 75.154 125.812 75.2011 125.742C75.2482 125.671 75.2734 125.588 75.2734 125.503C75.2734 125.39 75.2289 125.282 75.1496 125.201C75.0703 125.121 74.9626 125.075 74.8498 125.074H74.8447ZM81.9904 125.074C81.9056 125.074 81.8228 125.099 81.7523 125.146C81.6818 125.193 81.6268 125.26 81.5944 125.339C81.562 125.417 81.5535 125.504 81.57 125.587C81.5866 125.67 81.6274 125.747 81.6873 125.807C81.7473 125.867 81.8236 125.908 81.9068 125.924C81.9899 125.941 82.0761 125.932 82.1545 125.9C82.2328 125.867 82.2997 125.812 82.3468 125.742C82.3939 125.671 82.4191 125.588 82.4191 125.503C82.4191 125.39 82.3746 125.282 82.2953 125.201C82.216 125.121 82.1083 125.075 81.9955 125.074H81.9904ZM89.1361 125.074C89.0513 125.074 88.9685 125.099 88.898 125.146C88.8275 125.193 88.7726 125.26 88.7401 125.339C88.7077 125.417 88.6992 125.504 88.7157 125.587C88.7323 125.67 88.7731 125.747 88.833 125.807C88.893 125.867 88.9694 125.908 89.0525 125.924C89.1356 125.941 89.2218 125.932 89.3002 125.9C89.3785 125.867 89.4454 125.812 89.4925 125.742C89.5396 125.671 89.5648 125.588 89.5648 125.503C89.5648 125.39 89.5203 125.282 89.441 125.201C89.3617 125.121 89.254 125.075 89.1412 125.074H89.1361ZM96.2768 125.074C96.192 125.074 96.1091 125.099 96.0386 125.146C95.9682 125.193 95.9132 125.26 95.8808 125.339C95.8483 125.417 95.8398 125.504 95.8564 125.587C95.8729 125.67 95.9137 125.747 95.9737 125.807C96.0336 125.867 96.11 125.908 96.1932 125.924C96.2763 125.941 96.3625 125.932 96.4408 125.9C96.5191 125.867 96.5861 125.812 96.6332 125.742C96.6803 125.671 96.7054 125.588 96.7054 125.503C96.7054 125.39 96.661 125.282 96.5817 125.201C96.5024 125.121 96.3946 125.075 96.2818 125.074H96.2768ZM103.422 125.074C103.338 125.074 103.255 125.099 103.184 125.146C103.114 125.193 103.059 125.26 103.026 125.339C102.994 125.417 102.986 125.504 103.002 125.587C103.019 125.67 103.059 125.747 103.119 125.807C103.179 125.867 103.256 125.908 103.339 125.924C103.422 125.941 103.508 125.932 103.587 125.9C103.665 125.867 103.732 125.812 103.779 125.742C103.826 125.671 103.851 125.588 103.851 125.503C103.851 125.39 103.807 125.282 103.727 125.201C103.648 125.121 103.54 125.075 103.428 125.074H103.422ZM110.568 125.074C110.483 125.074 110.401 125.099 110.33 125.146C110.26 125.193 110.205 125.26 110.172 125.339C110.14 125.417 110.131 125.504 110.148 125.587C110.164 125.67 110.205 125.747 110.265 125.807C110.325 125.867 110.401 125.908 110.485 125.924C110.568 125.941 110.654 125.932 110.732 125.9C110.811 125.867 110.877 125.812 110.925 125.742C110.972 125.671 110.997 125.588 110.997 125.503C110.997 125.446 110.986 125.39 110.964 125.338C110.942 125.285 110.91 125.238 110.87 125.198C110.829 125.158 110.781 125.126 110.729 125.105C110.676 125.084 110.62 125.073 110.563 125.074H110.568ZM71.2744 119.517C71.1896 119.517 71.1067 119.542 71.0362 119.589C70.9658 119.636 70.9108 119.704 70.8784 119.782C70.8459 119.86 70.8374 119.947 70.854 120.03C70.8705 120.113 70.9113 120.19 70.9713 120.25C71.0312 120.31 71.1076 120.351 71.1908 120.367C71.2739 120.384 71.3601 120.376 71.4384 120.343C71.5167 120.311 71.5837 120.256 71.6308 120.185C71.6779 120.114 71.703 120.031 71.703 119.946C71.6955 119.838 71.6479 119.737 71.5695 119.662C71.4911 119.587 71.3876 119.544 71.2794 119.542L71.2744 119.517ZM78.415 119.517C78.3303 119.517 78.2474 119.542 78.1769 119.589C78.1064 119.636 78.0515 119.704 78.019 119.782C77.9866 119.86 77.9781 119.947 77.9946 120.03C78.0112 120.113 78.052 120.19 78.1119 120.25C78.1719 120.31 78.2483 120.351 78.3314 120.367C78.4146 120.384 78.5008 120.376 78.5791 120.343C78.6574 120.311 78.7243 120.256 78.7714 120.185C78.8185 120.114 78.8437 120.031 78.8437 119.946C78.8373 119.838 78.79 119.736 78.7114 119.661C78.6328 119.586 78.5287 119.543 78.4201 119.542L78.415 119.517ZM85.5607 119.517C85.476 119.517 85.3931 119.542 85.3226 119.589C85.2521 119.636 85.1972 119.704 85.1647 119.782C85.1323 119.86 85.1238 119.947 85.1403 120.03C85.1569 120.113 85.1977 120.19 85.2577 120.25C85.3176 120.31 85.394 120.351 85.4771 120.367C85.5603 120.384 85.6465 120.376 85.7248 120.343C85.8031 120.311 85.8701 120.256 85.9172 120.185C85.9643 120.114 85.9894 120.031 85.9894 119.946C85.983 119.838 85.9357 119.736 85.8571 119.661C85.7785 119.586 85.6744 119.543 85.5658 119.542L85.5607 119.517ZM92.7064 119.517C92.6217 119.517 92.5388 119.542 92.4683 119.589C92.3978 119.636 92.3429 119.704 92.3104 119.782C92.278 119.86 92.2695 119.947 92.286 120.03C92.3026 120.113 92.3434 120.19 92.4034 120.25C92.4633 120.31 92.5397 120.351 92.6228 120.367C92.706 120.384 92.7922 120.376 92.8705 120.343C92.9488 120.311 93.0158 120.256 93.0629 120.185C93.11 120.114 93.1351 120.031 93.1351 119.946C93.1287 119.838 93.0814 119.736 93.0028 119.661C92.9242 119.586 92.8201 119.543 92.7115 119.542L92.7064 119.517ZM99.8522 119.517C99.7674 119.517 99.6845 119.542 99.614 119.589C99.5435 119.636 99.4886 119.704 99.4561 119.782C99.4237 119.86 99.4152 119.947 99.4318 120.03C99.4483 120.113 99.4891 120.19 99.5491 120.25C99.609 120.31 99.6854 120.351 99.7685 120.367C99.8517 120.384 99.9379 120.376 100.016 120.343C100.095 120.311 100.161 120.256 100.209 120.185C100.256 120.114 100.281 120.031 100.281 119.946C100.274 119.838 100.227 119.736 100.149 119.661C100.07 119.586 99.9658 119.543 99.8572 119.542L99.8522 119.517ZM106.998 119.517C106.913 119.517 106.83 119.542 106.76 119.589C106.689 119.636 106.634 119.704 106.602 119.782C106.569 119.86 106.561 119.947 106.577 120.03C106.594 120.113 106.635 120.19 106.695 120.25C106.755 120.31 106.831 120.351 106.914 120.367C106.997 120.384 107.084 120.376 107.162 120.343C107.24 120.311 107.307 120.256 107.354 120.185C107.401 120.114 107.426 120.031 107.426 119.946C107.42 119.838 107.373 119.736 107.294 119.661C107.216 119.586 107.111 119.543 107.003 119.542L106.998 119.517ZM114.139 119.517C114.054 119.517 113.971 119.542 113.9 119.589C113.83 119.636 113.775 119.704 113.743 119.782C113.71 119.86 113.702 119.947 113.718 120.03C113.735 120.113 113.775 120.19 113.835 120.25C113.895 120.31 113.972 120.351 114.055 120.367C114.138 120.384 114.224 120.376 114.303 120.343C114.381 120.311 114.448 120.256 114.495 120.185C114.542 120.114 114.567 120.031 114.567 119.946C114.561 119.838 114.514 119.736 114.435 119.661C114.356 119.586 114.252 119.543 114.144 119.542L114.139 119.517ZM67.699 136.238C67.6142 136.238 67.5314 136.263 67.4609 136.31C67.3904 136.357 67.3354 136.424 67.303 136.503C67.2706 136.581 67.2621 136.668 67.2786 136.751C67.2951 136.834 67.336 136.911 67.3959 136.971C67.4559 137.031 67.5322 137.072 67.6154 137.088C67.6985 137.105 67.7847 137.096 67.863 137.064C67.9414 137.031 68.0083 136.976 68.0554 136.906C68.1025 136.835 68.1277 136.752 68.1277 136.667C68.1277 136.553 68.0825 136.444 68.0021 136.364C67.9217 136.283 67.8127 136.238 67.699 136.238ZM74.8447 136.238C74.7599 136.238 74.6771 136.263 74.6066 136.31C74.5361 136.357 74.4811 136.424 74.4487 136.503C74.4163 136.581 74.4078 136.668 74.4243 136.751C74.4408 136.834 74.4817 136.911 74.5416 136.971C74.6016 137.031 74.6779 137.072 74.7611 137.088C74.8442 137.105 74.9304 137.096 75.0087 137.064C75.0871 137.031 75.154 136.976 75.2011 136.906C75.2482 136.835 75.2734 136.752 75.2734 136.667C75.2734 136.554 75.2289 136.446 75.1496 136.365C75.0703 136.285 74.9626 136.239 74.8498 136.238H74.8447ZM81.9904 136.238C81.9056 136.238 81.8228 136.263 81.7523 136.31C81.6818 136.357 81.6268 136.424 81.5944 136.503C81.562 136.581 81.5535 136.668 81.57 136.751C81.5866 136.834 81.6274 136.911 81.6873 136.971C81.7473 137.031 81.8236 137.072 81.9068 137.088C81.9899 137.105 82.0761 137.096 82.1545 137.064C82.2328 137.031 82.2997 136.976 82.3468 136.906C82.3939 136.835 82.4191 136.752 82.4191 136.667C82.4191 136.554 82.3746 136.446 82.2953 136.365C82.216 136.285 82.1083 136.239 81.9955 136.238H81.9904ZM89.1361 136.238C89.0513 136.238 88.9685 136.263 88.898 136.31C88.8275 136.357 88.7726 136.424 88.7401 136.503C88.7077 136.581 88.6992 136.668 88.7157 136.751C88.7323 136.834 88.7731 136.911 88.833 136.971C88.893 137.031 88.9694 137.072 89.0525 137.088C89.1356 137.105 89.2218 137.096 89.3002 137.064C89.3785 137.031 89.4454 136.976 89.4925 136.906C89.5396 136.835 89.5648 136.752 89.5648 136.667C89.5648 136.554 89.5203 136.446 89.441 136.365C89.3617 136.285 89.254 136.239 89.1412 136.238H89.1361ZM96.2768 136.238C96.192 136.238 96.1091 136.263 96.0386 136.31C95.9682 136.357 95.9132 136.424 95.8808 136.503C95.8483 136.581 95.8398 136.668 95.8564 136.751C95.8729 136.834 95.9137 136.911 95.9737 136.971C96.0336 137.031 96.11 137.072 96.1932 137.088C96.2763 137.105 96.3625 137.096 96.4408 137.064C96.5191 137.031 96.5861 136.976 96.6332 136.906C96.6803 136.835 96.7054 136.752 96.7054 136.667C96.7054 136.554 96.661 136.446 96.5817 136.365C96.5024 136.285 96.3946 136.239 96.2818 136.238H96.2768ZM103.422 136.238C103.338 136.238 103.255 136.263 103.184 136.31C103.114 136.357 103.059 136.424 103.026 136.503C102.994 136.581 102.986 136.668 103.002 136.751C103.019 136.834 103.059 136.911 103.119 136.971C103.179 137.031 103.256 137.072 103.339 137.088C103.422 137.105 103.508 137.096 103.587 137.064C103.665 137.031 103.732 136.976 103.779 136.906C103.826 136.835 103.851 136.752 103.851 136.667C103.851 136.554 103.807 136.446 103.727 136.365C103.648 136.285 103.54 136.239 103.428 136.238H103.422ZM110.568 136.238C110.483 136.238 110.401 136.263 110.33 136.31C110.26 136.357 110.205 136.424 110.172 136.503C110.14 136.581 110.131 136.668 110.148 136.751C110.164 136.834 110.205 136.911 110.265 136.971C110.325 137.031 110.401 137.072 110.485 137.088C110.568 137.105 110.654 137.096 110.732 137.064C110.811 137.031 110.877 136.976 110.925 136.906C110.972 136.835 110.997 136.752 110.997 136.667C110.997 136.61 110.986 136.554 110.964 136.502C110.942 136.449 110.91 136.402 110.87 136.362C110.829 136.322 110.781 136.29 110.729 136.269C110.676 136.248 110.62 136.237 110.563 136.238H110.568ZM117.714 136.238C117.629 136.238 117.546 136.263 117.476 136.31C117.405 136.357 117.35 136.424 117.318 136.503C117.285 136.581 117.277 136.668 117.293 136.751C117.31 136.834 117.351 136.911 117.411 136.971C117.471 137.031 117.547 137.072 117.63 137.088C117.713 137.105 117.8 137.096 117.878 137.064C117.956 137.031 118.023 136.976 118.07 136.906C118.117 136.835 118.143 136.752 118.143 136.667C118.143 136.554 118.098 136.446 118.019 136.365C117.939 136.285 117.832 136.239 117.719 136.238H117.714ZM71.2794 130.706C71.1947 130.706 71.1118 130.732 71.0413 130.779C70.9708 130.826 70.9159 130.893 70.8834 130.971C70.851 131.05 70.8425 131.136 70.859 131.219C70.8756 131.303 70.9164 131.379 70.9763 131.439C71.0363 131.499 71.1127 131.54 71.1958 131.557C71.2789 131.573 71.3651 131.565 71.4435 131.532C71.5218 131.5 71.5887 131.445 71.6358 131.374C71.6829 131.304 71.7081 131.221 71.7081 131.136C71.7068 131.022 71.6612 130.914 71.5811 130.834C71.501 130.753 71.3927 130.708 71.2794 130.706ZM78.4201 130.706C78.3353 130.706 78.2524 130.732 78.1819 130.779C78.1115 130.826 78.0565 130.893 78.0241 130.971C77.9916 131.05 77.9831 131.136 77.9997 131.219C78.0162 131.303 78.057 131.379 78.117 131.439C78.1769 131.499 78.2533 131.54 78.3365 131.557C78.4196 131.573 78.5058 131.565 78.5841 131.532C78.6624 131.5 78.7294 131.445 78.7765 131.374C78.8236 131.304 78.8487 131.221 78.8487 131.136C78.8487 131.022 78.8036 130.913 78.7232 130.832C78.6428 130.752 78.5338 130.706 78.4201 130.706ZM85.5658 130.706C85.481 130.706 85.3981 130.732 85.3277 130.779C85.2572 130.826 85.2022 130.893 85.1698 130.971C85.1373 131.05 85.1288 131.136 85.1454 131.219C85.1619 131.303 85.2028 131.379 85.2627 131.439C85.3226 131.499 85.399 131.54 85.4822 131.557C85.5653 131.573 85.6515 131.565 85.7298 131.532C85.8081 131.5 85.8751 131.445 85.9222 131.374C85.9693 131.304 85.9944 131.221 85.9944 131.136C85.9944 131.022 85.9493 130.913 85.8689 130.832C85.7885 130.752 85.6795 130.706 85.5658 130.706ZM92.7115 130.706C92.6267 130.706 92.5438 130.732 92.4734 130.779C92.4029 130.826 92.3479 130.893 92.3155 130.971C92.283 131.05 92.2745 131.136 92.2911 131.219C92.3076 131.303 92.3485 131.379 92.4084 131.439C92.4683 131.499 92.5447 131.54 92.6279 131.557C92.711 131.573 92.7972 131.565 92.8755 131.532C92.9539 131.5 93.0208 131.445 93.0679 131.374C93.115 131.304 93.1401 131.221 93.1401 131.136C93.1401 131.022 93.095 130.913 93.0146 130.832C92.9342 130.752 92.8252 130.706 92.7115 130.706ZM99.8572 130.706C99.7724 130.706 99.6895 130.732 99.6191 130.779C99.5486 130.826 99.4936 130.893 99.4612 130.971C99.4287 131.05 99.4202 131.136 99.4368 131.219C99.4533 131.303 99.4942 131.379 99.5541 131.439C99.6141 131.499 99.6904 131.54 99.7736 131.557C99.8567 131.573 99.9429 131.565 100.021 131.532C100.1 131.5 100.167 131.445 100.214 131.374C100.261 131.304 100.286 131.221 100.286 131.136C100.286 131.022 100.241 130.913 100.16 130.832C100.08 130.752 99.9709 130.706 99.8572 130.706ZM107.003 130.706C106.918 130.706 106.835 130.732 106.765 130.779C106.694 130.826 106.639 130.893 106.607 130.971C106.574 131.05 106.566 131.136 106.582 131.219C106.599 131.303 106.64 131.379 106.7 131.439C106.76 131.499 106.836 131.54 106.919 131.557C107.002 131.573 107.089 131.565 107.167 131.532C107.245 131.5 107.312 131.445 107.359 131.374C107.406 131.304 107.432 131.221 107.432 131.136C107.432 131.022 107.386 130.913 107.306 130.832C107.226 130.752 107.117 130.706 107.003 130.706ZM114.144 130.706C114.059 130.706 113.976 130.732 113.905 130.779C113.835 130.826 113.78 130.893 113.748 130.971C113.715 131.05 113.707 131.136 113.723 131.219C113.74 131.303 113.781 131.379 113.84 131.439C113.9 131.499 113.977 131.54 114.06 131.557C114.143 131.573 114.229 131.565 114.308 131.532C114.386 131.5 114.453 131.445 114.5 131.374C114.547 131.304 114.572 131.221 114.572 131.136C114.572 131.022 114.527 130.913 114.447 130.832C114.366 130.752 114.257 130.706 114.144 130.706ZM64.1337 141.881C64.0489 141.881 63.9661 141.906 63.8956 141.953C63.8251 142 63.7701 142.067 63.7377 142.146C63.7053 142.224 63.6968 142.31 63.7133 142.394C63.7299 142.477 63.7707 142.554 63.8306 142.614C63.8906 142.674 63.967 142.715 64.0501 142.731C64.1332 142.748 64.2194 142.739 64.2978 142.707C64.3761 142.674 64.443 142.619 64.4901 142.549C64.5372 142.478 64.5624 142.395 64.5624 142.31C64.5624 142.254 64.5513 142.198 64.5297 142.146C64.5082 142.094 64.4766 142.046 64.4368 142.006C64.397 141.966 64.3498 141.935 64.2978 141.913C64.2457 141.892 64.19 141.881 64.1337 141.881ZM71.2794 141.881C71.1947 141.881 71.1118 141.906 71.0413 141.953C70.9708 142 70.9159 142.067 70.8834 142.146C70.851 142.224 70.8425 142.31 70.859 142.394C70.8756 142.477 70.9164 142.554 70.9763 142.614C71.0363 142.674 71.1127 142.715 71.1958 142.731C71.2789 142.748 71.3651 142.739 71.4435 142.707C71.5218 142.674 71.5887 142.619 71.6358 142.549C71.6829 142.478 71.7081 142.395 71.7081 142.31C71.7068 142.196 71.6612 142.088 71.5811 142.008C71.501 141.928 71.3927 141.882 71.2794 141.881ZM78.4201 141.881C78.3353 141.881 78.2524 141.906 78.1819 141.953C78.1115 142 78.0565 142.067 78.0241 142.146C77.9916 142.224 77.9831 142.31 77.9997 142.394C78.0162 142.477 78.057 142.554 78.117 142.614C78.1769 142.674 78.2533 142.715 78.3365 142.731C78.4196 142.748 78.5058 142.739 78.5841 142.707C78.6624 142.674 78.7294 142.619 78.7765 142.549C78.8236 142.478 78.8487 142.395 78.8487 142.31C78.8487 142.254 78.8376 142.198 78.8161 142.146C78.7946 142.094 78.763 142.046 78.7232 142.006C78.6834 141.966 78.6361 141.935 78.5841 141.913C78.5321 141.892 78.4764 141.881 78.4201 141.881ZM85.5658 141.881C85.481 141.881 85.3981 141.906 85.3277 141.953C85.2572 142 85.2022 142.067 85.1698 142.146C85.1373 142.224 85.1288 142.31 85.1454 142.394C85.1619 142.477 85.2028 142.554 85.2627 142.614C85.3226 142.674 85.399 142.715 85.4822 142.731C85.5653 142.748 85.6515 142.739 85.7298 142.707C85.8081 142.674 85.8751 142.619 85.9222 142.549C85.9693 142.478 85.9944 142.395 85.9944 142.31C85.9944 142.196 85.9493 142.087 85.8689 142.006C85.7885 141.926 85.6795 141.881 85.5658 141.881ZM92.7115 141.881C92.6267 141.881 92.5438 141.906 92.4734 141.953C92.4029 142 92.3479 142.067 92.3155 142.146C92.283 142.224 92.2745 142.31 92.2911 142.394C92.3076 142.477 92.3485 142.554 92.4084 142.614C92.4683 142.674 92.5447 142.715 92.6279 142.731C92.711 142.748 92.7972 142.739 92.8755 142.707C92.9539 142.674 93.0208 142.619 93.0679 142.549C93.115 142.478 93.1401 142.395 93.1401 142.31C93.1401 142.254 93.129 142.198 93.1075 142.146C93.086 142.094 93.0544 142.046 93.0146 142.006C92.9748 141.966 92.9275 141.935 92.8755 141.913C92.8235 141.892 92.7678 141.881 92.7115 141.881ZM99.8572 141.881C99.7724 141.881 99.6895 141.906 99.6191 141.953C99.5486 142 99.4936 142.067 99.4612 142.146C99.4287 142.224 99.4202 142.31 99.4368 142.394C99.4533 142.477 99.4942 142.554 99.5541 142.614C99.6141 142.674 99.6904 142.715 99.7736 142.731C99.8567 142.748 99.9429 142.739 100.021 142.707C100.1 142.674 100.167 142.619 100.214 142.549C100.261 142.478 100.286 142.395 100.286 142.31C100.286 142.196 100.241 142.087 100.16 142.006C100.08 141.926 99.9709 141.881 99.8572 141.881ZM107.003 141.881C106.918 141.881 106.835 141.906 106.765 141.953C106.694 142 106.639 142.067 106.607 142.146C106.574 142.224 106.566 142.31 106.582 142.394C106.599 142.477 106.64 142.554 106.7 142.614C106.76 142.674 106.836 142.715 106.919 142.731C107.002 142.748 107.089 142.739 107.167 142.707C107.245 142.674 107.312 142.619 107.359 142.549C107.406 142.478 107.432 142.395 107.432 142.31C107.432 142.254 107.42 142.198 107.399 142.146C107.377 142.094 107.346 142.046 107.306 142.006C107.266 141.966 107.219 141.935 107.167 141.913C107.115 141.892 107.059 141.881 107.003 141.881ZM114.144 141.881C114.059 141.881 113.976 141.906 113.905 141.953C113.835 142 113.78 142.067 113.748 142.146C113.715 142.224 113.707 142.31 113.723 142.394C113.74 142.477 113.781 142.554 113.84 142.614C113.9 142.674 113.977 142.715 114.06 142.731C114.143 142.748 114.229 142.739 114.308 142.707C114.386 142.674 114.453 142.619 114.5 142.549C114.547 142.478 114.572 142.395 114.572 142.31C114.572 142.196 114.527 142.087 114.447 142.006C114.366 141.926 114.257 141.881 114.144 141.881Z" fill="white"/>
<path d="M120.745 108.757C120.211 106.519 118.97 104.498 117.876 102.478C116.721 100.366 115.511 98.2847 114.27 96.2236L114.134 96.0014C113.927 95.3447 113.63 94.6981 113.383 94.0615C113.06 93.2432 112.717 92.4349 112.399 91.6115C112.399 91.5862 112.344 91.6115 112.354 91.6115C112.611 92.4652 112.858 93.319 113.181 94.1373C113.262 94.3495 113.342 94.5718 113.423 94.794C113.004 94.102 112.581 93.42 112.147 92.738C111.411 91.5812 110.634 90.4547 109.893 89.2979C109.893 89.2979 109.827 89.2979 109.848 89.3282C111.033 91.3488 112.167 93.4099 113.352 95.4356C114.537 97.4613 115.687 99.5072 116.792 101.578C117.34 102.589 117.871 103.624 118.385 104.685C118.894 105.666 119.338 106.678 119.716 107.716C120.404 109.731 120.42 111.915 119.762 113.94C119.046 116.228 117.775 118.309 116.565 120.36C116.514 120.446 116.64 120.542 116.701 120.461C119.242 117.127 121.799 113.147 120.745 108.757Z" fill="#263238"/>
<path d="M143.08 146.472C139.343 151.64 129.394 152.489 104.512 156.919C101.068 157.536 90.2008 134.384 93.8418 133.535C98.4307 132.469 116.454 129.327 117.8 129.267C129.177 128.746 145.617 142.967 143.08 146.472Z" fill="#F7A9A0"/>
<path d="M98.8389 132.484C98.8389 132.484 88.3145 133.899 83.0144 136.359C75.9192 139.648 71.1436 145.417 69.2878 147.942C65.4149 153.242 59.7064 168.735 63.8718 171.18C67.6439 173.372 72.6817 157.242 72.6817 157.242C72.6817 157.242 64.8401 172.842 69.8678 174.645C74.8955 176.449 79.6761 157.394 79.6761 157.394C79.6761 157.394 71.9757 173.605 77.4522 174.645C81.5924 175.433 86.8974 158.414 86.8974 158.414C86.8974 158.414 80.372 172.392 84.5979 173.382C89.2625 174.484 95.1425 159.081 95.1425 159.081C106.297 159.799 111.905 155.545 115.536 152.08C116.413 151.226 98.8389 132.484 98.8389 132.484Z" fill="#F7A9A0"/>
<path d="M75.0463 151.666C74.0629 153.464 73.0292 155.277 72.2273 157.157C71.4255 159.036 70.6389 160.951 69.9934 162.895C68.4099 167.679 68.1628 170.922 68.2032 170.72C69.0756 166.027 71.9248 159.248 72.7417 157.364C73.5587 155.48 74.2949 153.57 75.1169 151.691C75.1421 151.645 75.0715 151.62 75.0463 151.666Z" fill="#263238"/>
<path d="M81.8802 154.51C80.7203 156.859 79.4798 159.152 78.4208 161.582C77.3618 164.012 76.5802 166.335 75.6926 168.791C75.6271 168.982 75.7481 168.957 75.8237 168.791C76.8071 166.366 77.9064 164.204 78.915 161.799C79.9236 159.394 80.8464 156.939 81.9407 154.575C81.9558 154.51 81.9004 154.51 81.8802 154.51Z" fill="#263238"/>
<path d="M88.1886 155.919C86.227 159.425 84.9158 163.284 83.7207 167.103C83.6602 167.29 83.8165 167.24 83.8871 167.048C85.3041 163.304 86.4085 160.359 88.3096 155.99C88.3399 155.919 88.229 155.848 88.1886 155.919Z" fill="#263238"/>
<path d="M128.788 132.055C127.134 131.009 122.454 128.544 117.85 129.226C117.839 129.226 117.829 129.23 117.821 129.238C117.814 129.246 117.81 129.256 117.81 129.267C117.81 129.277 117.814 129.288 117.821 129.295C117.829 129.303 117.839 129.307 117.85 129.307C121.642 129.307 127.058 131.237 128.747 132.121C128.793 132.146 128.828 132.08 128.788 132.055Z" fill="#263238"/>
<path d="M92.9944 80.3969C91.1034 81.3719 91.058 83.9886 93.2314 86.9034C96.711 91.5812 106.529 95.4053 106.529 95.4053C106.529 95.4053 107.079 86.3124 104.074 82.1245C102.056 79.3411 95.2637 79.2401 92.9944 80.3969Z" fill="#F7A9A0"/>
<path d="M93.4179 82.4226C93.7507 83.3521 99.0507 89.0301 103.398 88.3077C104.81 88.0703 103.862 80.2756 103.862 80.2756L103.922 79.6846L104.769 71.4049L94.5929 66.4442L93.1304 65.7976C93.1304 65.7976 93.0498 68.0809 92.9741 70.92C92.9741 71.0513 92.9741 71.1827 92.9741 71.3241C92.9741 71.4656 92.9741 71.6373 92.9741 71.7889C92.9741 72.2132 92.9439 72.6476 92.9338 73.077C92.9338 73.4054 92.9338 73.7236 92.9338 74.0873C92.9338 74.4511 92.9338 74.7693 92.9338 75.0977C92.9274 77.5475 93.0892 79.9949 93.4179 82.4226Z" fill="#F7A9A0"/>
<path d="M92.9941 70.92C94.0751 73.089 95.6143 74.9964 97.5048 76.5098C99.3953 78.0233 101.592 79.1066 103.942 79.6846L104.789 71.4049L94.6129 66.4442L93.1505 65.7976C93.1505 65.7976 93.0698 68.0809 92.9941 70.92Z" fill="#263238"/>
<path d="M114.462 57.4725C118.264 71.5766 110.261 75.4462 107.225 76.2646C104.467 77.0071 94.9865 79.1844 89.752 65.55C84.5176 51.9157 89.8579 45.687 96.0758 43.6562C102.294 41.6255 110.66 43.3733 114.462 57.4725Z" fill="#F7A9A0"/>
<path d="M110.851 54.9215C110.508 54.9518 110.185 54.9215 109.842 54.9215C109.494 54.967 109.141 54.8998 108.834 54.7296C108.744 54.6566 108.682 54.5552 108.658 54.4421C108.635 54.329 108.65 54.2112 108.702 54.1082C108.83 53.9177 109.006 53.7651 109.213 53.6665C109.42 53.5678 109.649 53.5267 109.877 53.5475C110.346 53.5131 110.811 53.6575 111.179 53.9516C111.26 54.0241 111.319 54.1192 111.347 54.2248C111.375 54.3304 111.371 54.442 111.336 54.5455C111.301 54.649 111.236 54.7399 111.15 54.8068C111.064 54.8737 110.96 54.9136 110.851 54.9215Z" fill="#263238"/>
<path d="M101.824 56.9473C102.152 56.8311 102.434 56.6745 102.742 56.5331C103.087 56.4354 103.389 56.2235 103.599 55.9319C103.65 55.8295 103.665 55.7127 103.641 55.6008C103.617 55.4888 103.556 55.3883 103.468 55.3156C103.273 55.1941 103.049 55.1273 102.819 55.1219C102.589 55.1166 102.362 55.173 102.162 55.2853C101.727 55.4562 101.369 55.7793 101.153 56.1946C101.111 56.292 101.098 56.3994 101.114 56.5041C101.131 56.6089 101.178 56.7066 101.248 56.7858C101.319 56.865 101.411 56.9223 101.513 56.9509C101.615 56.9795 101.723 56.9782 101.824 56.9473Z" fill="#263238"/>
<path d="M104.512 60.1348C104.512 60.0995 104.446 60.2005 104.456 60.2409C104.719 61.2007 104.86 62.3424 104.063 62.8728C104.038 62.8728 104.063 62.9385 104.063 62.9284C105.102 62.5192 104.9 61.0037 104.512 60.1348Z" fill="#263238"/>
<path d="M103.398 59.3367C101.815 59.5892 102.44 62.7415 103.902 62.504C105.365 62.2666 104.719 59.1194 103.398 59.3367Z" fill="#263238"/>
<path d="M102.812 59.6246C102.57 59.857 102.363 60.2257 102.041 60.3268C101.718 60.4278 101.31 60.1651 100.997 59.9024C100.967 59.8721 100.941 59.9024 100.951 59.9479C101.062 60.5541 101.415 61.1249 102.081 61.0845C102.747 61.0441 103.004 60.4329 103.034 59.7963C103.039 59.6751 102.908 59.5387 102.812 59.6246Z" fill="#263238"/>
<path d="M109.893 58.6244C109.893 58.584 109.978 58.6547 109.984 58.6951C110.14 59.6802 110.488 60.7764 111.426 60.933C111.456 60.933 111.461 60.9885 111.426 60.9885C110.321 61.0542 109.883 59.5791 109.893 58.6244Z" fill="#263238"/>
<path d="M110.563 57.4373C112.106 57.018 112.832 60.145 111.4 60.5339C109.968 60.9229 109.272 57.7909 110.563 57.4373Z" fill="#263238"/>
<path d="M111.264 57.5179C111.552 57.624 111.864 57.8665 112.162 57.821C112.459 57.7756 112.666 57.3664 112.827 56.9926C112.827 56.9522 112.873 56.9926 112.883 56.9926C113.039 57.5887 112.989 58.2555 112.439 58.5081C111.889 58.7606 111.431 58.311 111.158 57.7503C111.108 57.6341 111.153 57.4472 111.264 57.5179Z" fill="#263238"/>
<path d="M105.627 68.0254C105.894 68.2224 106.176 68.5002 106.539 68.475C106.901 68.4128 107.245 68.2732 107.548 68.0658C107.548 68.0658 107.613 68.0658 107.598 68.1112C107.488 68.3267 107.321 68.5081 107.116 68.6362C106.911 68.7643 106.675 68.8343 106.433 68.8387C106.225 68.8167 106.028 68.7336 105.866 68.5997C105.705 68.4658 105.586 68.2871 105.526 68.086C105.521 68.0304 105.586 68.0001 105.627 68.0254Z" fill="#263238"/>
<path d="M109.353 63.3932C109.353 63.3932 109.858 64.8127 110.009 65.4997C109.397 65.7915 108.718 65.913 108.042 65.8517C107.367 65.7904 106.721 65.5484 106.171 65.1512C106.106 65.1006 106.171 65.0047 106.252 65.035C107.256 65.4487 108.367 65.5266 109.419 65.2572C109.419 65.0552 108.466 62.8577 108.572 62.8274C109.117 62.7606 109.668 62.7691 110.211 62.8527C109.232 59.8671 107.785 57.0635 106.852 54.078C106.822 53.9719 106.973 53.9062 107.024 53.9971C108.748 56.8261 109.948 60.2359 111.058 63.2922C111.179 63.671 109.651 63.4538 109.353 63.3932Z" fill="#263238"/>
<path d="M109.05 65.6258C108.769 66.1831 108.351 66.6594 107.835 67.01C107.547 67.1904 107.211 67.2769 106.872 67.2575C106.13 67.212 105.989 66.5654 106.014 65.9845C106.028 65.6764 106.079 65.3711 106.166 65.0752C107.044 65.563 108.055 65.756 109.05 65.6258Z" fill="#263238"/>
<path d="M107.841 67.01C107.553 67.1905 107.216 67.277 106.878 67.2575C106.136 67.2121 105.995 66.5655 106.02 65.9845C106.787 65.9189 107.634 66.2876 107.841 67.01Z" fill="#FF9ABB"/>
<path d="M89.5756 65.3077C89.5756 65.3077 84.4722 61.1603 84.5328 54.1486C84.5933 47.1369 92.2685 41.1457 101.013 42.0247C101.013 42.0247 89.5252 44.899 88.0073 51.2894C86.4894 57.6797 89.5756 65.3077 89.5756 65.3077Z" fill="#FFE685"/>
<path d="M92.2883 66.3432C94.9357 65.8381 93.6902 59.7761 93.6902 59.7761C93.6902 59.7761 103.922 54.4012 101.965 45.2627C101.965 45.2627 105.657 50.3144 112.157 50.9863C112.157 50.9863 108.627 41.4184 100.347 42.0448C100.347 42.0448 89.7063 41.6811 86.8168 50.9913C83.9272 60.3015 90.5132 66.6868 92.2883 66.3432Z" fill="#263238"/>
<path d="M101.789 44.606C102.36 45.9285 102.644 47.3579 102.621 48.7988C102.621 50.2573 102.32 51.7002 101.738 53.0371C101.591 53.3707 101.422 53.6946 101.234 54.0071L100.982 54.487C100.881 54.6385 100.775 54.785 100.669 54.9315C100.453 55.2245 100.246 55.5226 100.019 55.8054C99.792 56.0883 99.5146 56.3106 99.2725 56.5884C99.1465 56.7147 99.0254 56.8511 98.8943 56.9724L98.4808 57.3159L97.6437 57.9928C97.0487 58.3868 96.4385 58.7506 95.8232 59.1042C96.3578 58.6293 96.9276 58.2151 97.447 57.7453L98.2035 57.0128L98.5766 56.6491C98.6926 56.5228 98.7985 56.3813 98.9145 56.25C99.1313 55.9772 99.3532 55.7095 99.5802 55.4518C99.8071 55.1942 99.9634 54.8759 100.16 54.5931L100.448 54.1637L100.685 53.704C100.856 53.4061 101.008 53.0973 101.138 52.7795C101.701 51.5136 102.042 50.1603 102.147 48.7786C102.205 48.0844 102.205 47.3865 102.147 46.6923C102.088 45.9878 101.968 45.2898 101.789 44.606Z" fill="#263238"/>
<path d="M92.228 65.5452C92.228 65.5452 88.2946 61.615 86.464 63.1002C84.6334 64.5854 88.1483 70.6776 90.6949 71.1272C91.0178 71.2108 91.3542 71.2277 91.6838 71.177C92.0133 71.1263 92.3292 71.0091 92.6122 70.8324C92.8951 70.6557 93.1393 70.4233 93.3298 70.1492C93.5204 69.8751 93.6534 69.5651 93.7206 69.2379L92.228 65.5452Z" fill="#F7A9A0"/>
<path d="M87.5124 64.8176C87.5059 64.8202 87.5003 64.8247 87.4963 64.8306C87.4923 64.8364 87.4902 64.8433 87.4902 64.8504C87.4902 64.8575 87.4923 64.8644 87.4963 64.8702C87.5003 64.8761 87.5059 64.8806 87.5124 64.8832C89.3077 65.2621 90.4675 66.6614 91.3702 68.1618C90.76 67.6566 90.0238 67.4141 89.3026 68.1618C89.2623 68.2022 89.3026 68.2628 89.3632 68.2476C89.6402 68.1009 89.9559 68.0439 90.2667 68.0846C90.5774 68.1253 90.8679 68.2617 91.0979 68.475C91.4761 68.8329 91.8142 69.2309 92.1065 69.6621C92.2124 69.7985 92.4695 69.6621 92.3788 69.5105C92.3806 69.4971 92.3806 69.4835 92.3788 69.4701C92.0359 67.3181 89.8422 64.6206 87.5124 64.8176Z" fill="#263238"/>
<path d="M91.9761 70.238C91.991 70.319 91.9891 70.4022 91.9704 70.4824C91.9516 70.5625 91.9165 70.638 91.8673 70.7039C91.818 70.7698 91.7556 70.8248 91.6841 70.8653C91.6126 70.9059 91.5334 70.9312 91.4517 70.9396C91.3699 70.948 91.2873 70.9393 91.209 70.9141C91.1307 70.889 91.0585 70.8478 90.997 70.7933C90.9354 70.7388 90.8857 70.6721 90.8511 70.5974C90.8165 70.5227 90.7978 70.4416 90.796 70.3593C90.7929 70.2095 90.846 70.0641 90.945 69.9519C91.044 69.8397 91.1815 69.7689 91.3302 69.7536C91.479 69.7383 91.628 69.7797 91.7476 69.8694C91.8673 69.9592 91.9488 70.0908 91.9761 70.238Z" fill="white"/>
<path d="M90.4271 69.4247C90.4334 69.4802 90.4285 69.5364 90.4128 69.59C90.3971 69.6436 90.3708 69.6935 90.3356 69.7368C90.3004 69.7801 90.2569 69.8159 90.2076 69.8421C90.1584 69.8683 90.1044 69.8844 90.0489 69.8894C89.9655 69.898 89.8815 69.8816 89.8074 69.8423C89.7333 69.803 89.6726 69.7426 89.6328 69.6687C89.593 69.5948 89.576 69.5108 89.5839 69.4272C89.5919 69.3436 89.6243 69.2643 89.6773 69.1992C89.7303 69.1341 89.8013 69.0862 89.8814 69.0616C89.9615 69.037 90.0472 69.0368 90.1274 69.0609C90.2077 69.085 90.279 69.1325 90.3324 69.1972C90.3857 69.262 90.4187 69.3411 90.4271 69.4247Z" fill="white"/>
<path d="M86.5899 64.7571H85.7124C85.6716 64.7585 85.6309 64.7517 85.5927 64.7371C85.5546 64.7225 85.5197 64.7005 85.4901 64.6723C85.4606 64.6441 85.4369 64.6102 85.4205 64.5728C85.4041 64.5353 85.3953 64.4949 85.3947 64.454C85.3933 64.4127 85.4003 64.3716 85.4152 64.333C85.43 64.2944 85.4525 64.2593 85.4812 64.2296C85.5099 64.1999 85.5442 64.1763 85.5822 64.1602C85.6202 64.1441 85.6611 64.1358 85.7023 64.1358H86.5798C86.6208 64.1351 86.6616 64.1425 86.6998 64.1577C86.738 64.1728 86.7728 64.1953 86.8023 64.2239C86.8318 64.2525 86.8554 64.2867 86.8717 64.3244C86.8881 64.3622 86.8968 64.4028 86.8975 64.4439C86.8975 64.5261 86.8652 64.605 86.8077 64.6636C86.7501 64.7222 86.6719 64.7558 86.5899 64.7571Z" fill="#FFBD1B"/>
<path d="M86.7158 65.6562L85.8585 65.8583C85.7783 65.8765 85.6941 65.8623 85.6243 65.8189C85.5544 65.7754 85.5045 65.706 85.4853 65.6259C85.4756 65.5861 85.474 65.5447 85.4804 65.5043C85.4869 65.4638 85.5013 65.425 85.5229 65.3902C85.5445 65.3554 85.5728 65.3253 85.6062 65.3015C85.6396 65.2778 85.6774 65.261 85.7173 65.2521L86.5746 65.05C86.6143 65.0403 86.6556 65.0387 86.696 65.0451C86.7364 65.0516 86.7751 65.0661 86.8099 65.0877C86.8447 65.1093 86.8747 65.1377 86.8984 65.1711C86.9221 65.2046 86.9389 65.2424 86.9478 65.2824C86.9575 65.3222 86.9591 65.3636 86.9527 65.4041C86.9462 65.4445 86.9318 65.4833 86.9102 65.5181C86.8886 65.553 86.8602 65.5831 86.8269 65.6068C86.7935 65.6305 86.7557 65.6473 86.7158 65.6562Z" fill="#FFBD1B"/>
<path d="M119.137 73.1782C119.137 73.1782 117.311 68.0862 113.942 69.6421C110.574 71.198 113.201 75.9011 113.201 75.9011L119.137 73.1782Z" fill="#FF9ABB"/>
<path d="M128.806 110.358L134.743 107.658L119.034 72.9991L113.097 75.6995L128.806 110.358Z" fill="#E27D17"/>
<path d="M113.144 77.119L120.073 73.9675L119.448 72.5876L112.519 75.7391L113.144 77.119Z" fill="#37474F"/>
<path d="M113.832 78.6381L120.761 75.4866L120.135 74.1067L113.206 77.2581L113.832 78.6381Z" fill="#37474F"/>
<path d="M128.809 110.348L132.979 113.611L134.351 114.693L134.457 112.94L134.749 107.645L133.74 107.054C133.74 107.054 133.554 108.166 133.544 108.186L132.535 107.595C132.535 107.595 132.344 108.706 132.339 108.727L131.36 108.13C131.36 108.13 131.159 109.247 131.148 109.267L130.231 108.671C130.231 108.671 130.029 109.787 130.019 109.808L129.041 109.211C129.041 109.211 128.814 110.328 128.809 110.348Z" fill="#EBEBEB"/>
<path d="M132.979 113.612L134.35 114.693L134.456 112.94L132.979 113.612Z" fill="#37474F"/>
<path d="M80.5992 91.1114C73.0349 103.503 60.3623 129.948 65.2286 139.673C69.9134 149.039 107.155 135.495 114.709 132.712C117.815 131.57 114.053 105.872 110.614 106.681C103.05 108.444 87.0137 116.102 86.6556 115.864C86.2976 115.627 88.582 104.498 90.3924 93.4503C93.0399 77.381 86.0303 82.2003 80.5992 91.1114Z" fill="#F7A9A0"/>
<path d="M133.302 94.4454C135.354 96.8046 132.888 98.8909 132.888 98.8909C134.24 99.0659 135.488 99.7072 136.418 100.704C137.977 102.543 135.778 105.796 135.778 105.796C137.149 106.273 138.344 107.153 139.207 108.322C140.518 110.232 138.768 113.829 138.768 113.829C139.785 114.958 140.361 116.416 140.392 117.936C140.317 121.977 135.022 125.22 131.643 127.241C126.625 130.272 116.837 131.999 114.704 132.732L101.32 111.257C101.32 111.257 113.872 97.9816 118.042 95.865C122.309 93.6826 131.285 92.1217 133.302 94.4454Z" fill="#F7A9A0"/>
<path d="M132.525 98.6384C128.284 99.386 124.492 101.341 120.594 103.084C120.579 103.094 120.568 103.109 120.563 103.126C120.559 103.143 120.56 103.161 120.567 103.177C120.574 103.194 120.587 103.207 120.603 103.215C120.619 103.223 120.637 103.225 120.654 103.22C124.512 101.442 128.668 100.457 132.586 98.8354C132.606 98.8232 132.622 98.8045 132.63 98.7824C132.639 98.7602 132.64 98.7358 132.633 98.7131C132.626 98.6904 132.611 98.6706 132.592 98.6571C132.572 98.6436 132.549 98.637 132.525 98.6384Z" fill="#263238"/>
<path d="M135.54 105.554C134.593 105.82 133.685 106.207 132.837 106.706C131.909 107.174 130.99 107.661 130.079 108.166C128.253 109.176 126.448 110.217 124.678 111.313C124.597 111.363 124.653 111.495 124.738 111.449C126.559 110.439 128.394 109.479 130.26 108.56C131.188 108.1 132.126 107.645 133.064 107.201C133.977 106.837 134.846 106.373 135.656 105.817C135.68 105.795 135.696 105.767 135.702 105.736C135.709 105.705 135.705 105.673 135.692 105.644C135.68 105.615 135.658 105.59 135.631 105.574C135.603 105.558 135.572 105.551 135.54 105.554Z" fill="#263238"/>
<path d="M138.697 113.849C137.86 113.985 137.043 114.592 136.317 115.011C135.497 115.486 134.671 115.956 133.841 116.42C132.187 117.355 130.533 118.284 128.844 119.158C128.763 119.204 128.844 119.335 128.904 119.295C130.624 118.416 132.353 117.557 134.063 116.663C134.903 116.228 135.744 115.785 136.584 115.334C137.295 114.955 138.228 114.556 138.758 113.93C138.768 113.922 138.776 113.91 138.777 113.897C138.779 113.883 138.776 113.87 138.768 113.859C138.76 113.848 138.748 113.841 138.735 113.839C138.721 113.837 138.708 113.841 138.697 113.849Z" fill="#263238"/>
<path d="M86.6652 115.708C85.4025 116.716 84.239 117.842 83.1907 119.072C82.1705 120.243 81.2127 121.468 80.3213 122.74C80.3213 122.77 80.3768 122.795 80.402 122.77C81.4105 121.573 82.5502 120.436 83.6244 119.269C84.6985 118.102 85.9088 117.011 86.9022 115.819C86.9678 115.738 86.7509 115.642 86.6652 115.708Z" fill="#263238"/>
<path d="M73.6699 142.926C77.1875 142.618 80.6812 142.08 84.1288 141.315L86.7158 140.744L89.2876 140.133C90.1449 139.926 90.9971 139.693 91.8544 139.476C92.7117 139.259 93.5589 139.031 94.4061 138.789C97.81 137.865 101.179 136.814 104.542 135.733L109.555 134.051L114.547 132.282H114.577C116.479 131.833 118.38 131.343 120.276 130.858C122.172 130.373 124.058 129.848 125.929 129.297C127.806 128.778 129.63 128.081 131.375 127.216C133.116 126.32 134.779 125.281 136.347 124.109C134.861 125.403 133.254 126.55 131.547 127.534C130.692 128.033 129.808 128.478 128.899 128.868C127.981 129.251 127.053 129.585 126.126 129.903C124.26 130.54 122.374 131.1 120.488 131.646C118.602 132.192 116.706 132.697 114.804 133.192H114.855L109.862 135.025C108.188 135.591 106.514 136.187 104.82 136.728C101.441 137.794 98.047 138.839 94.6078 139.693C91.1686 140.547 87.7092 141.35 84.2095 141.931C83.3354 142.079 82.4596 142.216 81.5821 142.34C80.6996 142.446 79.8222 142.573 78.9397 142.659C77.1902 142.855 75.4303 142.944 73.6699 142.926Z" fill="#263238"/>
<path d="M65.3994 111.283L88.6419 112.076C88.6419 112.076 91.9752 95.178 91.8037 86.0851C91.713 80.993 88.7478 81.2102 85.4397 84.4079C73.8563 95.5973 65.3994 111.283 65.3994 111.283Z" fill="#FFBD1B"/>
<path d="M82.4242 92.0106C82.4242 92.0955 82.3991 92.1786 82.352 92.2492C82.3049 92.3198 82.2379 92.3748 82.1596 92.4073C82.0813 92.4398 81.9951 92.4483 81.912 92.4318C81.8288 92.4152 81.7524 92.3743 81.6925 92.3142C81.6325 92.2542 81.5917 92.1777 81.5752 92.0944C81.5586 92.0111 81.5671 91.9247 81.5996 91.8463C81.632 91.7678 81.6869 91.7008 81.7574 91.6536C81.8279 91.6064 81.9108 91.5812 81.9956 91.5812C82.1093 91.5812 82.2183 91.6265 82.2987 91.707C82.3791 91.7875 82.4242 91.8967 82.4242 92.0106ZM89.1413 91.5812C89.0565 91.5812 88.9736 91.6064 88.9031 91.6536C88.8326 91.7008 88.7777 91.7678 88.7453 91.8463C88.7128 91.9247 88.7043 92.0111 88.7209 92.0944C88.7374 92.1777 88.7782 92.2542 88.8382 92.3142C88.8981 92.3743 88.9745 92.4152 89.0577 92.4318C89.1408 92.4483 89.227 92.4398 89.3053 92.4073C89.3836 92.3748 89.4506 92.3198 89.4977 92.2492C89.5448 92.1786 89.5699 92.0955 89.5699 92.0106C89.5699 91.8967 89.5248 91.7875 89.4444 91.707C89.364 91.6265 89.255 91.5812 89.1413 91.5812ZM85.5659 86.0244C85.4811 86.0244 85.3983 86.0496 85.3278 86.0968C85.2573 86.144 85.2023 86.211 85.1699 86.2895C85.1375 86.3679 85.129 86.4543 85.1455 86.5376C85.162 86.6209 85.2029 86.6974 85.2628 86.7574C85.3228 86.8175 85.3991 86.8584 85.4823 86.875C85.5654 86.8915 85.6516 86.883 85.7299 86.8505C85.8083 86.818 85.8752 86.763 85.9223 86.6924C85.9694 86.6217 85.9945 86.5387 85.9945 86.4538C85.9894 86.3435 85.9419 86.2394 85.8621 86.1632C85.7823 86.087 85.6762 86.0445 85.5659 86.0446V86.0244ZM74.8499 102.725C74.7651 102.725 74.6822 102.75 74.6117 102.798C74.5412 102.845 74.4863 102.912 74.4539 102.99C74.4214 103.069 74.4129 103.155 74.4295 103.238C74.446 103.322 74.4868 103.398 74.5468 103.458C74.6067 103.518 74.6831 103.559 74.7663 103.576C74.8494 103.592 74.9356 103.584 75.0139 103.551C75.0922 103.519 75.1592 103.464 75.2063 103.393C75.2534 103.322 75.2785 103.239 75.2785 103.155C75.2733 103.044 75.2259 102.94 75.1461 102.864C75.0662 102.788 74.9601 102.745 74.8499 102.745V102.725ZM81.9956 102.725C81.9108 102.725 81.8279 102.75 81.7574 102.798C81.6869 102.845 81.632 102.912 81.5996 102.99C81.5671 103.069 81.5586 103.155 81.5752 103.238C81.5917 103.322 81.6325 103.398 81.6925 103.458C81.7524 103.518 81.8288 103.559 81.912 103.576C81.9951 103.592 82.0813 103.584 82.1596 103.551C82.2379 103.519 82.3049 103.464 82.352 103.393C82.3991 103.322 82.4242 103.239 82.4242 103.155C82.419 103.044 82.3716 102.94 82.2918 102.864C82.2119 102.788 82.1059 102.745 81.9956 102.745V102.725ZM89.1413 102.725C89.0565 102.725 88.9736 102.75 88.9031 102.798C88.8326 102.845 88.7777 102.912 88.7453 102.99C88.7128 103.069 88.7043 103.155 88.7209 103.238C88.7374 103.322 88.7782 103.398 88.8382 103.458C88.8981 103.518 88.9745 103.559 89.0577 103.576C89.1408 103.592 89.227 103.584 89.3053 103.551C89.3836 103.519 89.4506 103.464 89.4977 103.393C89.5448 103.322 89.5699 103.239 89.5699 103.155C89.5647 103.044 89.5173 102.94 89.4375 102.864C89.3576 102.788 89.2516 102.745 89.1413 102.745V102.725ZM78.4202 97.1683C78.3354 97.1683 78.2526 97.1935 78.1821 97.2407C78.1116 97.2879 78.0566 97.3549 78.0242 97.4334C77.9917 97.5119 77.9833 97.5982 77.9998 97.6815C78.0163 97.7648 78.0572 97.8413 78.1171 97.9014C78.1771 97.9614 78.2534 98.0023 78.3366 98.0189C78.4197 98.0354 78.5059 98.0269 78.5842 97.9944C78.6626 97.9619 78.7295 97.9069 78.7766 97.8363C78.8237 97.7657 78.8488 97.6827 78.8488 97.5977C78.8377 97.4914 78.7878 97.393 78.7087 97.3212C78.6296 97.2495 78.5269 97.2094 78.4202 97.2088V97.1683ZM85.5659 97.1683C85.4811 97.1683 85.3983 97.1935 85.3278 97.2407C85.2573 97.2879 85.2023 97.3549 85.1699 97.4334C85.1375 97.5119 85.129 97.5982 85.1455 97.6815C85.162 97.7648 85.2029 97.8413 85.2628 97.9014C85.3228 97.9614 85.3991 98.0023 85.4823 98.0189C85.5654 98.0354 85.6516 98.0269 85.7299 97.9944C85.8083 97.9619 85.8752 97.9069 85.9223 97.8363C85.9694 97.7657 85.9945 97.6827 85.9945 97.5977C85.9834 97.4914 85.9335 97.393 85.8544 97.3212C85.7753 97.2495 85.6726 97.2094 85.5659 97.2088V97.1683ZM71.2795 108.332C71.1936 108.331 71.1092 108.356 71.0372 108.403C70.9653 108.45 70.9089 108.518 70.8753 108.597C70.8417 108.676 70.8324 108.764 70.8485 108.849C70.8647 108.933 70.9056 109.011 70.9661 109.072C71.0265 109.134 71.1038 109.175 71.188 109.193C71.2723 109.21 71.3597 109.201 71.4393 109.169C71.5188 109.136 71.5868 109.08 71.6347 109.009C71.6826 108.937 71.7082 108.853 71.7082 108.767C71.6971 108.66 71.6474 108.561 71.5684 108.488C71.4895 108.416 71.3867 108.375 71.2795 108.373V108.332ZM78.4202 108.332C78.3342 108.331 78.2499 108.356 78.1779 108.403C78.1059 108.45 78.0496 108.518 78.016 108.597C77.9824 108.676 77.973 108.764 77.9892 108.849C78.0054 108.933 78.0463 109.011 78.1067 109.072C78.1672 109.134 78.2444 109.175 78.3287 109.193C78.4129 109.21 78.5004 109.201 78.5799 109.169C78.6595 109.136 78.7275 109.08 78.7754 109.009C78.8233 108.937 78.8488 108.853 78.8488 108.767C78.8389 108.66 78.7895 108.56 78.7103 108.487C78.6311 108.414 78.5277 108.374 78.4202 108.373V108.332ZM85.5659 108.332C85.4799 108.331 85.3956 108.356 85.3236 108.403C85.2516 108.45 85.1953 108.518 85.1617 108.597C85.1281 108.676 85.1187 108.764 85.1349 108.849C85.1511 108.933 85.192 109.011 85.2524 109.072C85.3129 109.134 85.3901 109.175 85.4744 109.193C85.5586 109.21 85.6461 109.201 85.7256 109.169C85.8052 109.136 85.8732 109.08 85.9211 109.009C85.969 108.937 85.9945 108.853 85.9945 108.767C85.9846 108.66 85.9352 108.56 85.856 108.487C85.7768 108.414 85.6734 108.374 85.5659 108.373V108.332Z" fill="white"/>
<path d="M87.9561 108.388C84.3908 107.969 74.6884 107.11 68.289 107.378C68.2487 107.378 68.2386 107.529 68.289 107.529C73.6294 108.11 84.3454 108.499 87.9561 108.605C88.0065 108.61 88.0217 108.398 87.9561 108.388Z" fill="#263238"/>
<path d="M91.7891 94.769C91.5218 95.7793 91.2848 96.7896 91.0276 97.7999L91.073 97.4312C91.2142 96.0167 91.3554 94.6023 91.4562 93.1827C91.4562 93.1474 91.4008 93.1423 91.3957 93.1827C90.7048 98.1283 88.7533 110.631 88.6423 112C88.5314 112 87.4724 112.03 87.2253 112C87.1698 112 87.1749 112.076 87.2253 112.081C87.3514 112.081 88.9449 112.288 88.955 112.253C89.6458 109.843 90.6998 100.73 90.9217 98.7143C91.2848 97.411 91.5823 96.0958 91.8143 94.769H91.7891Z" fill="#263238"/>
</svg>
