<svg width="166" height="180" viewBox="0 0 166 180" fill="none" xmlns="http://www.w3.org/2000/svg">
<path d="M166 165.792L145.25 165.693L124.5 165.656L83 165.586L41.5 165.656L20.75 165.693L0 165.792L20.75 165.89L41.5 165.927L83 165.997L124.5 165.927L145.25 165.89L166 165.792Z" fill="#263238"/>
<path d="M67.5192 85.8118C46.843 107.492 21.0981 152.832 26.1586 161.877C31.7968 171.938 60.578 141.553 60.451 139.806C60.3485 138.486 70.2236 111.024 77.7304 91.0706C85.2371 71.1168 72.633 80.4502 67.5192 85.8118Z" fill="#EB9481"/>
<path d="M60.6474 139.814C61.4997 136.883 74.952 100.684 78.7832 89.2409C82.6144 77.7982 78.8528 74.3321 67.5805 84.9319C56.3081 95.5317 31.7802 130.732 26.3468 149.3C21.1101 167.185 30.2436 167.046 42.1716 158.658C51.9401 151.787 60.6474 139.814 60.6474 139.814Z" fill="#FFBD1B"/>
<path d="M79.6891 80.2447C79.767 80.2159 79.8448 80.1872 79.9268 80.1502C79.8946 80.0487 79.8521 79.9509 79.7997 79.8582C79.644 79.9199 79.4842 79.9775 79.3244 80.0309C78.0337 80.4421 76.4561 80.5778 75.3211 79.6855C75.193 79.5849 75.075 79.472 74.9687 79.3484L74.6573 79.5046C75.8128 80.8944 78.0337 80.8532 79.6891 80.2447ZM70.7769 82.1361L71.0924 81.8853C71.2727 81.973 71.453 82.0552 71.6333 82.132C74.2148 83.2709 77.4027 84.418 79.6358 86.3423L79.5375 86.7535C78.3512 85.7267 77.0201 84.8815 75.5875 84.2454C74.0099 83.4806 72.3463 82.8762 70.7769 82.1361ZM67.9086 89.8495C67.1477 88.8729 66.3032 87.9648 65.3846 87.1359C65.4665 87.0454 65.5525 86.959 65.6345 86.8727C67.9906 88.9285 69.6788 92.0698 71.9201 94.064C73.1527 95.2114 74.6339 96.0559 76.2472 96.531C76.2103 96.6379 76.1734 96.7448 76.1324 96.8517C75.0148 96.531 73.9601 96.0207 73.0142 95.3427C70.8958 93.8995 69.478 91.8231 67.9045 89.8331L67.9086 89.8495ZM56.2675 97.9906C59.6767 102.633 65.8599 103.747 71.285 104.569C71.9406 104.668 72.5962 104.775 73.2518 104.906C73.2068 105.026 73.1658 105.149 73.1207 105.272C70.8302 104.804 68.4741 104.606 66.1959 104.084C62.3974 103.212 58.4105 101.407 56.0298 98.299L56.2675 97.9906ZM51.625 138.009C53.9688 137.421 56.0995 138.203 58.1606 139.296C58.8367 139.658 59.521 140.04 60.2093 140.398L59.9758 140.702C57.1976 139.267 54.5219 137.479 51.3218 138.523C50.2769 138.864 49.273 139.535 48.8632 140.579C48.3305 141.94 48.9288 143.359 49.8753 144.366C51.1988 145.768 53.0058 146.327 54.7555 146.989L54.4523 147.33L52.9403 146.738C50.8546 145.916 48.4043 144.386 48.2527 141.87C48.1421 139.843 49.7893 138.466 51.6209 138.009H51.625ZM59.7791 112.928C58.1401 110.589 56.6035 108.159 54.9522 105.815C54.2392 104.799 53.4894 103.759 52.6699 102.785L52.9034 102.468C53.3418 102.986 53.7557 103.517 54.1573 104.051C55.8209 106.267 57.3124 108.607 58.8612 110.901C61.1968 114.359 63.9381 118.253 67.5358 120.65C67.4907 120.777 67.4456 120.901 67.3965 121.028C64.3151 118.976 61.8361 115.831 59.775 112.924L59.7791 112.928ZM58.9596 119.096C59.0867 120.1 58.9405 121.12 58.5365 122.047C58.1325 122.974 57.4858 123.775 56.665 124.363C54.7555 125.678 52.6207 124.868 51.2644 123.183C50.4449 122.188 49.8835 121.045 49.1664 119.992C48.3372 118.754 47.3083 117.663 46.122 116.764C45.4249 116.246 44.6578 115.831 43.8437 115.531L44.0773 115.173C44.5847 115.367 45.0731 115.608 45.536 115.893C47.8511 117.307 49.2607 119.49 50.6784 121.731C51.4078 122.874 52.2847 124.091 53.6328 124.523C54.2079 124.684 54.8158 124.688 55.3926 124.532C55.9694 124.377 56.4938 124.068 56.9108 123.639C58.8776 121.797 59.0047 118.964 57.5213 116.797C55.9561 114.503 53.2476 113.269 50.6866 112.447C49.3754 112.036 48.0232 111.682 46.6997 111.259L46.9251 110.926C49.5885 111.785 52.4281 112.385 54.7104 113.742C56.6732 114.914 58.5785 116.74 58.9391 119.104L58.9596 119.096ZM37.2426 126.213C38.3503 127.554 39.6644 128.709 41.1352 129.634C43.5357 131.233 46.2964 132.206 49.1664 132.463C52.0058 132.72 54.835 131.871 57.0665 130.09C59.0129 128.52 60.7543 126.571 63.3358 126.143C64.0673 126.021 64.8126 126.006 65.5485 126.098C65.4952 126.242 65.446 126.382 65.3927 126.509C64.3795 126.396 63.3539 126.503 62.3851 126.821C61.0248 127.278 59.902 128.211 58.8367 129.136C57.8465 130.073 56.7585 130.901 55.5914 131.603C54.4434 132.22 53.1943 132.626 51.9036 132.8C49.3281 133.114 46.7152 132.76 44.3149 131.772C41.7212 130.744 38.8898 128.976 37.0049 126.632L37.2426 126.213ZM37.2221 161.733C36.841 161.939 36.464 162.145 36.0952 162.309C34.8308 162.597 33.6157 163.071 32.4894 163.715C32.0141 163.849 31.531 163.953 31.043 164.028C32.2895 163.245 33.6253 162.616 35.0217 162.153C35.7377 161.94 36.4737 161.802 37.218 161.742L37.2221 161.733ZM35.1733 129.856L35.3536 129.535C38.8119 130.279 42.0408 132.763 43.3274 135.925C44.3436 138.42 43.7372 140.859 42.6636 143.227C41.9887 144.551 41.3961 145.916 40.8894 147.314C40.4855 148.599 40.2607 149.935 40.2215 151.282C40.1317 153.881 40.7919 156.451 42.1227 158.683L41.8031 158.905C40.7776 157.214 40.1367 155.318 39.9265 153.35C39.6515 150.857 40.0052 148.335 40.955 146.015C42.0736 143.285 43.9748 140.595 43.4135 137.495C42.6923 133.787 39.0332 130.674 35.1569 129.864L35.1733 129.856ZM26.1341 150.098C27.2529 150.459 28.4003 150.724 29.5638 150.891C30.9569 151.064 32.6369 151.002 33.4564 149.658C34.0465 148.687 33.9399 147.441 33.6203 146.397C32.9196 144.119 31.0839 142.812 29.3507 141.368C29.3958 141.253 29.449 141.138 29.5023 141.023C30.3751 141.743 31.2929 142.421 32.0797 143.178C33.4892 144.534 34.5382 146.689 34.2063 148.687C33.7965 151.195 31.256 151.545 29.1458 151.216C28.0963 151.021 27.0613 150.755 26.0481 150.418C26.044 150.328 26.0849 150.217 26.1177 150.106L26.1341 150.098Z" fill="white"/>
<path opacity="0.1" d="M42.1716 158.658C51.9401 151.791 60.6474 139.814 60.6474 139.814C61.4956 136.883 74.9561 100.684 78.7832 89.2408C80.1968 85.01 80.5779 81.8728 79.9223 80.1335L42.1716 158.658Z" fill="black"/>
<path d="M61.3112 165.718H141.16C141.16 165.718 124.827 102.028 97.8449 75.6725C94.2268 72.1365 80.1353 72.7327 76.886 78.0572C64.7121 98.0275 61.0899 165.434 61.3112 165.718Z" fill="#FFBD1B"/>
<path d="M71.4649 130.037C74.6037 134.51 71.1904 140.604 66.1873 141.656C65.1596 141.866 64.0971 141.831 63.0854 141.553L63.0486 141.965C63.9825 142.22 64.9591 142.279 65.9168 142.137C70.3668 141.442 74.1119 136.685 72.9196 132.154C72.0017 128.622 68.4122 126.163 64.8556 126.052C64.8556 126.2 64.8187 126.344 64.7982 126.492C65.1041 126.496 65.4094 126.521 65.712 126.566C66.8537 126.729 67.9513 127.119 68.9396 127.715C69.9278 128.312 70.7866 129.101 71.4649 130.037ZM137.731 154.386L137.853 154.283C137.899 154.419 137.939 154.554 137.98 154.694C134.862 157.28 134.219 161.939 133.219 165.726H132.809C133.875 161.758 134.457 157.182 137.731 154.386ZM124.385 131.361C121.947 131.204 119.468 130.386 117.984 128.334C116.837 126.751 116.239 124.523 117.087 122.673C118.07 120.531 120.472 119.963 122.619 120.017C123.549 120.037 124.467 120.128 125.38 120.23L125.553 120.642C124.063 120.395 122.548 120.344 121.045 120.489C119.726 120.67 118.427 121.25 117.689 122.41C117.397 122.912 117.206 123.469 117.129 124.046C117.051 124.623 117.089 125.21 117.239 125.773C117.861 128.466 120.05 130.164 122.656 130.732C124.963 131.233 127.31 130.962 129.621 130.629L129.769 131.003C127.99 131.3 126.187 131.419 124.385 131.361ZM120.947 161.33C123.274 160.919 127.011 163.148 128.265 160.097C129.208 157.811 127.855 155.257 126.413 153.539C124.655 151.454 122.385 149.896 120.144 148.379C116.005 145.57 105.979 136.973 110.765 133.33C115.227 129.938 120.959 139.835 124.315 142.939C127.282 145.677 131.625 148.157 135.87 148.095L135.993 148.461C131.703 148.535 127.462 146.084 124.274 143.432C120.078 139.946 115.944 130.88 111.096 133.659C107.073 135.966 114.575 144.053 118.73 146.927C120.824 148.379 123 149.74 124.909 151.45C126.597 152.955 128.253 154.813 128.765 157.083C129.142 158.761 128.949 160.915 127.249 161.795C126.167 162.358 124.942 162.144 123.799 161.927C122.361 161.647 121.013 161.478 119.677 162.206C119.01 162.575 118.426 163.077 117.961 163.682C117.495 164.287 117.159 164.981 116.972 165.722H116.534C116.534 165.722 116.534 165.722 116.534 165.701C117.095 163.616 118.8 161.733 120.959 161.334L120.947 161.33ZM91.7355 110.58C92.744 109.997 93.8985 109.717 95.0612 109.775C96.2238 109.833 97.3453 110.225 98.2916 110.905C100.34 112.361 101.598 114.713 102.561 116.982C103.635 119.519 104.61 122.327 106.7 124.206C107.831 125.23 109.613 126.126 111.002 125.029C111.908 124.313 112.231 123.051 112.285 121.937C112.363 119.552 110.945 117.299 109.527 115.498C108.06 113.627 106.347 111.97 104.868 110.107C103.495 108.381 102.291 106.407 101.967 104.187C101.807 103.089 101.967 101.901 102.864 101.165C103.639 100.614 104.596 100.384 105.536 100.523C107.863 100.749 109.851 102.447 111.252 104.224C112.034 105.23 112.719 106.308 113.301 107.443C113.936 108.656 114.407 109.951 115.051 111.144C115.796 112.542 117.079 113.22 118.628 112.743C119.646 112.405 120.53 111.748 121.148 110.868C121.205 110.987 121.262 111.107 121.316 111.226C120.177 112.628 118.472 113.722 116.657 113.13C115.505 112.751 114.887 111.707 114.411 110.663C113.862 109.429 113.33 108.224 112.682 107.057C111.383 104.709 109.576 102.304 107.011 101.263C105.934 100.827 104.553 100.651 103.483 101.214C101.996 101.999 102.184 103.833 102.574 105.219C103.877 109.811 108.183 112.714 110.769 116.534C111.949 118.286 112.928 120.399 112.649 122.566C112.395 124.515 111.01 126.328 108.859 125.855C106.331 125.304 104.684 122.627 103.655 120.465C102.483 117.998 101.697 115.362 100.029 113.175C98.3612 110.987 95.8003 109.524 93.0262 110.473C90.0555 111.489 88.355 114.433 88.2444 117.463C88.0395 123.002 91.9322 127.586 95.8986 130.929C99.7175 134.14 104.032 136.755 107.564 140.312C111.478 144.269 114.024 149.38 114.829 154.896C115.325 158.28 115.321 162.35 113.957 165.709H113.44C113.844 164.714 114.144 163.679 114.334 162.621C115.382 156.972 114.104 150.854 111.285 145.899C108.568 141.126 104.299 137.857 99.9757 134.638C96.1732 131.805 92.1903 128.852 89.7851 124.654C87.2118 120.226 86.6013 113.454 91.7478 110.584L91.7355 110.58ZM78.4308 136.726C78.4744 135.47 78.8094 134.242 79.409 133.138C80.0086 132.035 80.8564 131.087 81.885 130.37C82.8171 129.727 83.9176 129.375 85.0484 129.358C86.1791 129.342 87.2896 129.661 88.2403 130.275C90.2112 131.541 91.4856 133.782 91.9732 136.031C92.682 139.3 92.092 142.655 92.0264 145.953C91.9177 152.275 93.6201 158.496 96.9312 163.875C97.3205 164.505 97.7507 165.109 98.1932 165.718H97.636C96.3024 163.888 95.1909 161.906 94.3252 159.813C93.1261 157.022 92.3114 154.08 91.9035 151.068C91.4733 147.894 91.674 144.781 91.842 141.611C92.0019 138.56 91.9035 135.365 90.1293 132.759C88.5681 130.464 85.8391 129.058 83.1307 130.201C80.4222 131.344 78.902 134.239 78.8446 137.117C78.6807 143.066 82.9422 148.062 85.8637 152.852C87.2569 155.13 88.5066 157.539 89.0926 160.163C89.4983 161.991 89.5594 163.879 89.2729 165.73H88.8631C89.1949 163.63 89.0719 161.483 88.5025 159.435C86.9987 154.09 83.0774 149.892 80.5738 145.044C79.2585 142.462 78.2628 139.633 78.4431 136.73L78.4308 136.726ZM66.5274 154.818C68.0517 152.992 70.2602 151.779 72.6737 152.017C74.8864 152.235 76.8286 153.662 77.3039 155.903C77.8489 158.493 76.4844 161.182 75.0708 163.259C74.5217 164.081 73.8989 164.875 73.3047 165.705H72.8417C73.9562 164.102 75.206 162.58 76.0542 160.808C77.2834 158.243 77.6932 154.723 74.8249 153.074C72.4033 151.672 69.4202 152.486 67.4903 154.328C65.4005 156.326 64.4212 159.18 63.8394 161.947C63.5812 163.181 63.3846 164.414 63.1879 165.705H62.7986C63.3969 161.828 63.9787 157.893 66.5397 154.83L66.5274 154.818ZM91.7273 73.5549C91.9513 73.5769 92.1726 73.6015 92.3911 73.6289C93.3256 74.7224 94.4035 75.6837 95.5954 76.4865C97.2356 77.6078 99.0533 78.442 100.971 78.9535L101.471 79.5209C101.008 79.4264 100.549 79.307 100.099 79.1632C97.0951 78.1929 93.8089 76.2398 91.7273 73.5549ZM91.1537 84.9565C91.6463 83.9722 91.7727 82.8437 91.5101 81.7741C91.0512 79.6854 89.3876 77.6625 87.2077 77.313C84.3845 76.8525 82.1554 79.3441 79.6887 80.2446C78.4349 80.7051 76.8614 80.8408 75.6649 80.2775C75.71 80.1788 75.7592 80.0842 75.8042 79.9938C76.8737 80.5365 78.2095 80.4049 79.324 80.0308C81.8317 79.2084 83.8313 76.8936 86.6218 76.9265C90.3096 76.9758 93.1369 81.6837 91.5388 85.0018C90.9775 86.153 89.8998 86.9342 88.9779 87.7566C88.0144 88.5585 87.2428 89.5674 86.7201 90.7087C86.2491 91.7797 86.0001 92.9355 85.9881 94.106C85.9762 95.2765 86.2015 96.4372 86.6504 97.5176C87.077 98.5646 87.7941 99.4668 88.7165 100.117C89.639 100.767 90.7281 101.138 91.8543 101.185C92.929 101.212 93.9955 100.992 94.9726 100.543C95.9497 100.093 96.8116 99.4254 97.4926 98.5907C98.1463 97.7713 98.5186 96.7617 98.5538 95.7126C98.5907 94.3064 98.0621 92.9413 97.7343 91.6009C97.2139 89.6068 97.1361 86.9918 99.4102 86.079C101.234 85.343 103.393 86.2599 104.819 87.4235C106.724 88.9736 107.495 91.42 108.56 93.5499C109.699 95.8236 111.363 97.9822 114.071 98.2289C114.243 98.2289 114.411 98.2536 114.579 98.2536C114.653 98.3852 114.727 98.5209 114.805 98.6648H114.698C112.51 98.6853 110.683 97.5423 109.416 95.7866C107.925 93.7308 107.286 91.1816 105.843 89.0846C104.614 87.3043 101.979 85.6596 99.7585 86.3627C96.5255 87.3865 98.1482 91.3995 98.6809 93.6444C99.1644 95.6715 98.939 97.5834 97.509 99.1705C94.8742 102.086 89.8998 102.46 87.3265 99.2938C84.6877 96.0292 85.2532 90.7827 88.2485 87.9416C89.2155 87 90.4858 86.2188 91.1537 84.9565ZM79.3814 96.794C77.2056 97.6163 74.8044 96.6089 73.0097 95.3631C72.2483 94.8288 71.5452 94.2155 70.9118 93.5334L71.0101 93.1798C71.301 93.4923 71.6042 93.7925 71.9157 94.0721C73.8046 95.7537 76.6811 97.4436 79.2708 96.4568C81.9383 95.4412 82.5037 92.3164 81.6596 89.8782C80.709 87.111 78.0989 85.4335 75.5871 84.2493C75.1199 84.03 74.6487 83.8203 74.1734 83.6202C74.2103 83.5133 74.2554 83.4105 74.3004 83.3036C78.1439 84.9771 82.1677 87.1439 82.4013 91.7654C82.5078 93.8953 81.4671 96.0004 79.3814 96.794ZM65.7898 119.334C67.4271 120.788 69.3633 121.862 71.4608 122.479C74.3906 123.302 77.3613 122.586 79.2216 120.082C80.0218 118.959 80.6259 117.708 81.0081 116.382C81.5121 114.737 81.8768 112.965 81.4179 111.275C80.6721 108.438 77.9595 106.662 75.3207 105.831C73.0589 105.116 70.6823 104.877 68.3549 104.495C68.3836 104.364 68.4082 104.232 68.4327 104.084C69.3916 104.257 70.3463 104.409 71.2764 104.549C74.0423 104.96 76.8819 105.535 79.1355 107.303C80.1605 108.06 80.9634 109.08 81.4602 110.256C81.9569 111.431 82.1292 112.719 81.9587 113.985C81.635 116.526 80.6229 119.33 78.8077 121.164C76.9925 122.997 74.452 123.52 71.9771 122.993C69.6608 122.447 67.5145 121.335 65.7284 119.758C65.757 119.63 65.7898 119.482 65.7898 119.334Z" fill="white"/>
<path d="M26.9039 161.413C32.6405 167.375 44.089 167.905 76.7752 169.11C81.2825 169.278 91.0552 137.565 86.2364 137.138C80.1639 136.599 56.4841 135.834 54.7467 135.995C40.0816 137.372 23.0194 157.371 26.9039 161.413Z" fill="#EB9481"/>
<path d="M75.7182 137.902C75.7182 137.902 88.5968 135.024 95.829 135.62C105.511 136.414 113.547 141.101 116.796 143.268C123.578 147.791 136.874 163.415 133.035 168.057C129.572 172.243 116.804 155.566 116.804 155.566C116.804 155.566 132.621 170.413 127.532 174.685C122.443 178.957 108.716 158.748 108.716 158.748C108.716 158.748 124.622 174.373 118.681 177.942C114.174 180.643 100.73 163.045 100.73 163.045C100.73 163.045 114.313 176.589 109.814 179.541C104.84 182.83 91.3995 167.366 91.3995 167.366C78.6971 172.999 70.3463 170.467 64.6261 167.954C63.2412 167.346 75.7182 137.902 75.7182 137.902Z" fill="#EB9481"/>
<path d="M111.662 150.077C113.584 151.754 115.538 153.44 117.304 155.282C119.07 157.124 120.771 159.028 122.361 161.039C126.253 165.944 127.925 169.624 127.798 169.406C124.77 164.299 118.55 157.605 116.784 155.763C115.018 153.921 113.35 151.997 111.588 150.155C111.543 150.097 111.617 150.04 111.662 150.077Z" fill="#263238"/>
<path d="M104.917 156.355C107.278 158.6 109.703 160.747 111.965 163.098C114.227 165.45 116.149 167.86 118.239 170.351C118.398 170.54 118.239 170.565 118.075 170.38C115.895 167.975 113.69 165.919 111.482 163.542C109.273 161.166 107.155 158.695 104.868 156.409C104.823 156.372 104.881 156.322 104.917 156.355Z" fill="#263238"/>
<path d="M98.1602 160.697C101.942 163.946 105.126 167.893 108.15 171.836C108.302 172.033 108.097 172.041 107.933 171.836C104.679 168.07 102.159 165.089 98.0496 160.812C97.984 160.763 98.0824 160.627 98.1602 160.697Z" fill="#263238"/>
<path d="M82.4668 136.249L59.5779 171.692C59.5779 171.692 31.3048 169.077 26.0353 162.502C22.5606 158.177 39.8646 136.217 56.1851 135.929L82.4668 136.249Z" fill="#FFBD1B"/>
<path d="M78.4435 136.73C78.3652 138.341 78.5833 139.952 79.0868 141.483L79.3613 141.072C78.989 139.789 78.8149 138.457 78.845 137.121C78.8532 136.82 78.8778 136.519 78.9188 136.221H78.509C78.4763 136.385 78.4544 136.555 78.4435 136.73ZM72.2972 152.005L72.0513 152.383C70.3507 152.453 68.7356 153.15 67.5153 154.341C65.4256 156.339 64.4462 159.192 63.8644 161.959C63.5735 163.329 63.3645 164.747 63.1473 166.174L62.6392 166.963C63.2989 162.683 63.7087 158.222 66.5442 154.83C67.9783 153.107 70.0271 151.919 72.2931 152.005H72.2972ZM40.9427 146.035C41.7622 144.066 42.9628 142.121 43.3643 140.024L43.7454 139.798C43.545 140.99 43.1766 142.147 42.6514 143.235C41.9764 144.559 41.3839 145.924 40.8771 147.322C40.4732 148.607 40.2485 149.943 40.2092 151.29C40.0453 156.705 42.9997 162.013 48.3838 163.534C53.2271 164.903 58.722 162.802 60.0783 157.65C60.6775 155.457 60.4332 153.118 59.394 151.096C58.0213 148.543 55.4808 147.758 52.9485 146.75C50.8629 145.928 48.4125 144.399 48.2609 141.882C48.1421 139.826 49.7893 138.461 51.6209 138.005C53.9647 137.417 56.0954 138.198 58.1565 139.292C60.6601 140.62 63.2293 142.277 66.1877 141.652C67.5912 141.33 68.8891 140.653 69.9578 139.684C71.0266 138.716 71.8305 137.49 72.2931 136.122H72.7889C72.2858 137.649 71.383 139.012 70.1748 140.069C68.9666 141.126 67.4976 141.837 65.9214 142.129C60.5945 142.951 56.6814 136.784 51.3259 138.515C50.281 138.856 49.2771 139.526 48.8674 140.571C48.3347 141.932 48.9329 143.35 49.8795 144.357C51.9528 146.553 55.2063 146.676 57.5828 148.391C60.9551 150.825 61.5657 155.771 59.8529 159.377C57.8328 163.633 52.7682 165.08 48.4494 163.933C43.561 162.634 40.4469 158.275 39.906 153.346C39.6365 150.86 39.9915 148.347 40.9386 146.035H40.9427ZM30.4693 151.335L30.7685 150.965C31.8215 150.936 32.8541 150.636 33.4442 149.674C33.8105 149.03 33.9546 148.283 33.8539 147.548L34.2104 147.19C34.2879 147.692 34.2879 148.202 34.2104 148.703C33.8662 150.685 32.1903 151.323 30.4653 151.335H30.4693ZM35.0176 162.161C36.9517 161.585 39.2217 161.482 41.0902 162.35C43.0816 163.271 43.9257 165.228 43.6512 167.374C43.5518 168.01 43.4149 168.639 43.2414 169.258L42.8972 169.192C43.307 167.506 43.6471 165.824 42.7333 164.291C41.5532 162.317 38.9226 161.947 36.8369 162.19C34.2227 162.494 32.0551 163.966 29.8096 165.22L29.363 164.994C31.2233 163.962 33.0098 162.757 35.0176 162.161Z" fill="white"/>
<path d="M37.8732 143.918C46.0888 137.199 48.8669 136.04 61.7988 135.884C61.9053 135.884 61.9258 136.019 61.8193 136.023C47.6376 136.665 41.0897 141.924 37.9674 144.025C37.8855 144.074 37.7994 143.979 37.8732 143.918Z" fill="#263238"/>
<path d="M51.1661 167.7C53.473 163.666 55.9971 159.76 58.5417 155.862C61.0863 151.964 63.6021 148.05 66.2328 144.222C67.7202 142.051 69.1953 139.876 70.7401 137.759C70.7811 137.705 70.8835 137.759 70.8466 137.82C68.5438 141.85 66.0361 145.768 63.5325 149.674C61.0289 153.58 58.4761 157.486 55.8906 161.355C54.4277 163.539 52.928 165.697 51.3833 167.815C51.289 167.917 51.0964 167.815 51.1661 167.7Z" fill="#263238"/>
<path opacity="0.1" d="M53.6041 136.147L72.4528 151.771L82.4795 136.249L56.1896 135.929C55.8823 135.929 55.5709 135.949 55.2595 135.97L53.7884 136.13L53.6041 136.147Z" fill="black"/>
<path d="M107.482 97.5794C110.838 135.596 105.593 165.878 89.6863 168.061C79.1228 169.509 81.7698 137.364 81.7944 136.677C81.8763 134.325 83.0933 114.708 90.5836 93.369C98.8238 69.8956 105.982 80.5941 107.482 97.5794Z" fill="#EB9481"/>
<path d="M107.482 97.5794C110.838 135.596 105.593 165.878 89.6863 168.061C79.1228 169.509 77.6436 142.4 77.6682 141.714C77.7542 139.362 83.0933 114.708 90.5836 93.369C98.8238 69.8956 105.982 80.5941 107.482 97.5794Z" fill="#FFBD1B"/>
<path d="M89.666 96.0744C87.3509 103.233 85.2448 110.465 83.2001 117.702C81.2537 124.967 79.1763 132.224 77.9552 139.654C80.7293 126.908 86.2118 108.858 89.666 96.0703V96.0744Z" fill="#263238"/>
<path d="M87.708 97.8508C87.1835 99.9067 86.7902 102.098 87.2737 104.179C87.2122 102.094 87.5974 99.9313 87.708 97.8508Z" fill="#263238"/>
<path d="M105.807 89.0971C105.991 89.3644 106.159 89.6357 106.323 89.9194C106.238 89.5384 106.148 89.1642 106.052 88.7969C105.689 88.2916 105.262 87.8355 104.782 87.4401C103.356 86.2765 101.197 85.3596 99.3735 86.0956C97.0993 87.0084 97.1772 89.6234 97.6976 91.6175C98.0459 92.9579 98.5745 94.323 98.5171 95.7292C98.4818 96.7783 98.1096 97.7879 97.4558 98.6073C96.7749 99.442 95.913 100.11 94.9359 100.559C93.9588 101.009 92.8922 101.229 91.8176 101.202C90.5561 101.168 89.3431 100.707 88.3757 99.8943C88.3306 100.022 88.2896 100.149 88.2486 100.281C90.9571 102.378 95.1202 101.777 97.4517 99.1994C98.8818 97.6123 99.0908 95.7004 98.6236 93.6734C98.091 91.4284 96.4683 87.4154 99.7013 86.3916C101.943 85.6721 104.581 87.3168 105.807 89.0971ZM101.963 104.199C101.803 103.101 101.963 101.913 102.86 101.177C103.635 100.621 104.594 100.386 105.536 100.523C106.327 100.605 107.094 100.841 107.794 101.218C107.794 101.362 107.819 101.506 107.827 101.65C107.563 101.501 107.289 101.371 107.007 101.259C105.93 100.824 104.549 100.647 103.479 101.21C101.992 101.995 102.18 103.829 102.57 105.215C103.524 108.578 106.089 111.037 108.4 113.611C108.4 113.796 108.4 113.981 108.4 114.162C107.224 112.809 105.975 111.522 104.86 110.116C103.487 108.393 102.287 106.424 101.963 104.199ZM89.7565 124.663C87.212 120.226 86.6014 113.454 91.7479 110.585C92.7564 110.001 93.911 109.722 95.0736 109.779C96.2362 109.837 97.3577 110.229 98.304 110.909C100.353 112.365 101.611 114.717 102.574 116.986C103.647 119.523 104.622 122.332 106.712 124.211C107.194 124.654 107.749 125.011 108.351 125.267C108.351 125.415 108.351 125.559 108.331 125.703C106.098 124.922 104.61 122.471 103.655 120.465C102.484 117.998 101.697 115.362 100.029 113.175C98.3614 110.987 95.8004 109.524 93.0264 110.474C90.0557 111.489 88.3552 114.433 88.2445 117.463C88.0397 123.002 91.9323 127.586 95.8988 130.929C99.5333 133.984 103.614 136.5 107.044 139.802C107.015 139.995 106.987 140.188 106.954 140.378C104.767 138.3 102.439 136.377 99.9881 134.621C96.1446 131.813 92.1659 128.861 89.7565 124.663ZM80.5657 145.015C79.3365 142.651 78.4063 140.036 78.4227 137.351C78.4227 137.142 78.4227 136.94 78.4432 136.731C78.5094 135.607 78.7875 134.506 79.2627 133.486C79.8386 132.223 80.7538 131.145 81.9056 130.374C82.8377 129.731 83.9383 129.38 85.069 129.363C86.1998 129.346 87.3103 129.665 88.2609 130.279C90.2318 131.546 91.5062 133.787 91.9938 136.036C92.7027 139.304 92.1126 142.66 92.0471 145.957C91.933 152.276 93.6282 158.495 96.9313 163.876C97.0215 164.024 97.1157 164.168 97.21 164.316C97.0993 164.422 96.9846 164.525 96.8699 164.628C95.8794 163.103 95.0278 161.492 94.3253 159.813C93.1262 157.022 92.3115 154.08 91.9036 151.068C91.4734 147.894 91.6742 144.781 91.8422 141.611C92.002 138.56 91.9036 135.365 90.1294 132.759C88.5682 130.464 85.8393 129.058 83.1308 130.201C80.4223 131.344 78.9021 134.239 78.8447 137.117C78.6808 143.067 82.9423 148.062 85.8639 152.852C87.257 155.13 88.5068 157.54 89.0927 160.163C89.6418 162.651 89.5558 165.237 88.8428 167.683C88.8018 167.831 88.7526 167.979 88.7076 168.127C88.5682 168.127 88.4289 168.127 88.2978 168.098C89.2117 165.293 89.2816 162.28 88.4986 159.435C86.9907 154.073 83.0693 149.863 80.5657 145.015Z" fill="white"/>
<path d="M108.203 102.793C108.248 112.073 108.01 121.365 107.244 130.608C106.273 142.174 103.556 166.556 88.8053 167.708C86.4942 167.847 84.3635 167.395 82.495 165.944C79.6964 163.933 77.3567 161.347 75.1194 158.732C70.6654 153.452 66.6252 147.593 62.8801 141.899L63.7774 140.982L62.8473 141.866C64.0274 143.872 65.2771 145.834 66.5351 147.783C70.2843 153.395 78.9343 166.285 85.2896 168.131C93.0749 169.862 98.9262 164.496 102.09 157.877C109.055 143.103 108.646 119.153 108.215 102.781L108.203 102.793Z" fill="#263238"/>
<path d="M108.966 105.091C108.769 106.851 108.483 108.549 108.294 110.309C108.929 108.648 109.159 106.859 108.966 105.091Z" fill="#263238"/>
<path d="M81.1641 96.0005C81.1641 96.0005 94.7966 83.4846 103.34 84.0767L110.384 90.7787C110.384 90.7787 112.74 91.6421 113.531 90.1496C115.477 86.4491 116.141 77.4035 108.568 71.2689C101.631 65.6401 86.9908 66.2527 77.1853 68.4976C67.761 70.6522 62.4342 75.9932 65.1017 82.1977C67.7692 88.4021 81.1641 96.0005 81.1641 96.0005Z" fill="#FFBD1B"/>
<path opacity="0.1" d="M80.3236 93.0976C80.3236 93.0976 69.8748 85.0675 68.9201 80.4789C67.9653 75.8903 77.1848 71.8445 83.1017 70.3437C92.2597 68.0124 98.4183 68.8059 103.339 73.8345C108.261 78.863 80.3236 93.0976 80.3236 93.0976Z" fill="black"/>
<path d="M78.8156 91.5682C83.6999 92.1849 91.1083 83.9986 93.6939 77.7283C93.8701 77.3172 92.7924 73.0863 91.7229 67.9056C91.0878 64.7602 90.4527 61.2448 90.1044 57.9924C90.0347 57.3222 70.3091 65.1344 70.3091 65.1344C70.3091 65.1344 73.034 71.7377 73.6077 77.4118C73.6465 77.8604 73.6465 78.3117 73.6077 78.7604C73.6077 78.8221 73.6077 78.9002 73.6077 78.9865C73.4642 81.5645 74.0953 90.9679 78.8156 91.5682Z" fill="#EB9481"/>
<path d="M75.7013 78.8673C75.0081 78.9682 74.3074 79.0067 73.6074 78.9825C73.6074 78.8961 73.6074 78.8221 73.6074 78.7563C73.6503 78.3078 73.6503 77.8562 73.6074 77.4077C73.0379 71.7418 70.3294 65.1385 70.3294 65.1385C70.3294 65.1385 86.3426 58.7943 89.5879 58.0254C89.3175 61.8492 87.662 77.3131 75.7013 78.8673Z" fill="#263238"/>
<path d="M96.5706 41.6241C97.0828 49.2101 88.6132 68.8062 82.5324 72.1983C73.7186 77.1323 61.6349 74.9654 58.0864 64.8795C54.6322 55.0979 66.1217 29.7579 72.6942 26.9208C82.3685 22.7393 95.8125 30.4157 96.5706 41.6241Z" fill="#EB9481"/>
<path d="M73.7883 49.8061C73.8211 49.7609 73.8662 49.913 73.8416 49.9665C73.2351 51.274 72.7598 52.8693 73.7637 53.8191C73.7965 53.852 73.7637 53.9137 73.7228 53.889C72.346 53.0585 73.0057 50.9451 73.7883 49.8061Z" fill="#263238"/>
<path d="M75.5542 48.9304C77.7423 49.6829 76.091 54.0206 74.0627 53.3258C72.0345 52.6309 73.7185 48.3055 75.5542 48.9304Z" fill="#263238"/>
<path d="M65.6426 46.4757C65.6426 46.4182 65.5155 46.4757 65.4951 46.5539C65.0279 47.9148 64.2658 49.3909 62.8767 49.3745C62.8358 49.3745 62.8153 49.4402 62.8767 49.4526C64.4174 49.8103 65.4172 47.8367 65.6426 46.4757Z" fill="#263238"/>
<path d="M64.9706 44.6049C62.8809 43.614 61.0574 47.8942 62.9956 48.7988C64.9337 49.7033 66.7367 45.4272 64.9706 44.6049Z" fill="#263238"/>
<path d="M77.415 49.1031C76.8178 48.8907 76.2324 48.6464 75.6613 48.3712C74.9893 48.0834 74.432 47.9231 74.0222 47.2816C73.9247 47.0883 73.894 46.8679 73.9348 46.6551C73.9755 46.4422 74.0856 46.249 74.2476 46.1057C74.9729 45.526 75.8866 45.674 76.7062 45.9906C77.5431 46.2738 78.2445 46.8603 78.673 47.6353C79.1196 48.4494 78.2345 49.358 77.415 49.1031Z" fill="#263238"/>
<path d="M64.8724 41.0155C65.498 41.1195 66.1285 41.1908 66.7614 41.2293C67.4866 41.3034 68.0603 41.4349 68.7282 41.0772C68.9071 40.9554 69.0409 40.7777 69.1091 40.5719C69.1772 40.366 69.1758 40.1433 69.1052 39.9383C68.7446 39.079 67.8759 38.7665 67.0113 38.6431C66.1376 38.488 65.2376 38.6654 64.4872 39.1406C63.7005 39.6176 64.0365 40.8429 64.8724 41.0155Z" fill="#263238"/>
<path d="M70.3384 62.2849C69.8999 62.4781 69.4123 62.7865 68.9124 62.6426C68.4177 62.441 67.9709 62.137 67.6012 61.7504C67.5942 61.7409 67.5841 61.7343 67.5727 61.7317C67.5613 61.7291 67.5493 61.7306 67.5389 61.7361C67.5285 61.7416 67.5204 61.7505 67.5161 61.7615C67.5117 61.7724 67.5114 61.7845 67.5151 61.7956C67.6063 62.1334 67.7865 62.4403 68.0367 62.6841C68.2868 62.9279 68.5978 63.0996 68.937 63.1812C69.5844 63.3046 70.0843 62.8934 70.4449 62.3959C70.4941 62.3178 70.4039 62.2479 70.3384 62.2849Z" fill="#263238"/>
<path d="M69.5108 60.1592C68.0767 58.8229 65.8231 58.1897 64.3602 57.8238C64.2168 57.7416 64.1922 57.3798 64.225 57.2235L65.4092 54.4194C64.9626 54.4605 62.7335 54.5756 62.9712 54.0534C64.9462 49.7362 67.1425 44.9338 70.0148 41.0524C70.0322 41.0219 70.061 40.9995 70.0948 40.9903C70.1286 40.981 70.1647 40.9856 70.1951 41.0031C70.2256 41.0205 70.2478 41.0494 70.2571 41.0833C70.2663 41.1172 70.2617 41.1534 70.2443 41.184C68.511 45.4066 66.0484 49.3004 64.2373 53.5189C64.9339 53.5189 66.0853 53.4819 66.6139 53.7039C66.745 53.7985 65.2084 56.6068 65.0814 57.0837C65.0814 57.0837 68.0972 57.3263 69.7567 59.5959C70.191 60.1716 70.1992 60.7965 69.5108 60.1592Z" fill="#263238"/>
<path d="M92.2148 60.2292C88.9122 59.9249 87.9657 54.4975 87.9083 52.3348C87.851 50.1721 90.8749 42.1256 90.4816 38.7664C90.0882 35.4071 86.9864 33.2033 84.2533 33.01C81.5202 32.8168 77.1154 34.8356 75.3657 33.9804C73.6161 33.1252 74.6691 29.0135 73.4071 28.5325C70.6289 27.4758 66.851 33.2197 65.1874 36.0856C65.1874 36.0856 68.7728 22.106 83.5157 26.2176C96.9598 29.9181 97.7424 40.5385 97.386 44.8968C96.7099 53.2065 92.2148 60.2292 92.2148 60.2292Z" fill="#263238"/>
<path d="M72.4768 58.6791C73.5734 58.9961 74.7366 58.9979 75.8342 58.6843C76.9318 58.3707 77.9197 57.7543 78.6854 56.9052C79.4511 56.0561 79.964 55.0085 80.1657 53.8814C80.3674 52.7543 80.2498 51.593 79.8263 50.5296C79.4028 49.4662 78.6904 48.5435 77.7701 47.8663C76.8499 47.1891 75.7587 46.7847 74.6206 46.699C73.4826 46.6134 72.3435 46.8499 71.3328 47.3818C70.3222 47.9136 69.4805 48.7194 68.9037 49.7075C68.0887 51.1081 67.8604 52.776 68.2691 54.3453C68.6777 55.9146 69.6899 57.2572 71.0836 58.0788C71.5217 58.3354 71.9896 58.537 72.4768 58.6791ZM75.6237 47.7051C76.046 47.8264 76.4509 48.0019 76.8284 48.2273C77.9823 48.9099 78.8336 50.0082 79.2088 51.2986C79.5841 52.5889 79.4551 53.9743 78.8482 55.1725C78.2412 56.3708 77.2019 57.2919 75.942 57.7483C74.682 58.2046 73.296 58.162 72.0663 57.6289C70.8365 57.0959 69.8555 56.1126 69.3229 54.8792C68.7904 53.6458 68.7463 52.2552 69.1997 50.9903C69.6531 49.7255 70.5699 48.6816 71.7634 48.0713C72.9569 47.4609 74.3373 47.33 75.6237 47.7051Z" fill="#EBEBEB"/>
<path d="M59.6063 53.1735C61.8476 53.8232 64.5233 52.1086 65.7526 49.1647C66.3666 47.7682 66.5285 46.2137 66.2156 44.72C66.0992 44.0786 65.8306 43.4748 65.4327 42.9596C65.0347 42.4443 64.519 42.0327 63.9292 41.7596C62.7819 41.2744 61.4707 41.4348 60.2209 42.1954C58.94 43.0175 57.9472 44.2208 57.3813 45.6369C56.0824 48.7494 56.9019 52.0716 59.2088 53.0378C59.3379 53.0926 59.4707 53.1379 59.6063 53.1735ZM63.3309 42.4133C63.4311 42.4421 63.5296 42.4764 63.626 42.5161C64.0968 42.7397 64.507 43.0739 64.8215 43.4905C65.1361 43.9071 65.3459 44.3938 65.433 44.9091C65.7075 46.2329 65.5643 47.6097 65.0232 48.8481C63.8923 51.5412 61.442 53.0913 59.5448 52.2895C57.6476 51.4877 57.0289 48.6507 58.1557 45.9535C58.6534 44.6964 59.5302 43.6269 60.6634 42.8944C61.0503 42.6325 61.4873 42.4545 61.9466 42.3716C62.406 42.2888 62.8774 42.303 63.3309 42.4133Z" fill="#EBEBEB"/>
<path d="M68.8216 50.4393L69.5469 50.0652C68.9937 48.9879 67.4243 47.187 65.4493 48.0875L65.7812 48.8317C67.5514 48.0258 68.7683 50.3612 68.8216 50.4393Z" fill="#EBEBEB"/>
<path d="M93.243 62.4413L94.0625 62.3755C94.0338 61.9972 93.7224 58.6339 92.1571 57.6553C90.6943 56.7425 80.2251 53.445 79.7825 53.3052L79.5367 54.0864C82.5402 55.028 90.6001 57.6389 91.7269 58.3461C92.7677 58.9957 93.1856 61.5202 93.243 62.4413Z" fill="#EBEBEB"/>
<path d="M87.003 57.6593C87.003 57.6593 93.2436 52.2401 95.825 54.6413C98.4065 57.0425 92.5183 65.7099 88.6912 66.1293C84.8641 66.5487 84.4133 62.9962 84.4133 62.9962L87.003 57.6593Z" fill="#EB9481"/>
<path d="M94.0631 57.0837C94.0762 57.0837 94.0887 57.0889 94.0979 57.0981C94.1071 57.1074 94.1123 57.1199 94.1123 57.133C94.1123 57.1461 94.1071 57.1586 94.0979 57.1679C94.0887 57.1771 94.0762 57.1823 94.0631 57.1823C91.3588 57.5565 89.4903 59.5095 87.9906 61.6435C88.9494 60.9198 90.068 60.6731 91.0637 61.8532C91.1129 61.9148 91.0268 62.0012 90.9613 61.9683C90.0148 61.4954 89.2444 61.4872 88.3634 62.1204C87.7591 62.6072 87.2095 63.1587 86.7244 63.7651C86.5523 63.9542 86.1876 63.7363 86.3352 63.506C86.3436 63.4868 86.3547 63.4689 86.3679 63.4526C87.0973 60.3154 90.6458 56.5286 94.0631 57.0837Z" fill="#263238"/>
<path d="M80.3239 93.0977C80.3239 93.0977 91.5062 75.4752 104.782 74.1389L103.34 84.0768C103.34 84.0768 95.4562 83.8301 81.1639 96.0005L80.3239 93.0977Z" fill="#FFBD1B"/>
<path d="M106.896 84.3686C104.487 83.9863 102.065 84.4427 99.7708 85.0841C97.472 85.7709 95.2586 86.7186 93.1738 87.9088C91.0723 89.0731 89.0504 90.3766 87.1217 91.8107L84.2821 94.0433L81.5408 96.4075L81.2335 96.6748L80.9057 96.4939C78.4832 95.1376 76.1558 93.6169 73.9399 91.9423C72.8189 91.1203 71.7488 90.2305 70.7356 89.2779C69.7127 88.3389 68.7836 87.302 67.9615 86.1819C69.8546 88.2048 72.096 89.8042 74.3619 91.342C75.501 92.1027 76.6729 92.8181 77.8571 93.5047C79.0413 94.1914 80.2296 94.8862 81.4343 95.5071L80.8033 95.5893L83.5486 93.1429C84.4952 92.3658 85.4622 91.6093 86.4169 90.8568C87.3716 90.1044 88.4288 89.4424 89.4655 88.801C90.5022 88.1596 91.5675 87.5182 92.6821 86.9919C94.8709 85.8488 97.1968 84.9921 99.6028 84.4427C100.197 84.2946 100.812 84.2124 101.418 84.1096C102.024 84.0068 102.647 83.9821 103.258 83.9739C104.484 83.8977 105.715 84.0312 106.896 84.3686Z" fill="#263238"/>
<path d="M110.384 90.7788C109.073 89.8174 107.829 88.7679 106.659 87.6375C105.473 86.5256 104.364 85.3331 103.34 84.0686C104.653 85.0274 105.899 86.0756 107.069 87.2058C108.252 88.3213 109.359 89.515 110.384 90.7788Z" fill="#263238"/>
<path d="M85.3844 89.5863C85.804 93.781 85.8616 98.0043 85.5565 102.209C85.3639 105.145 83.3315 115.551 80.1191 114.889C76.9066 114.227 82.7784 107.9 84.1879 102.448C85.6139 96.905 84.4666 92.8016 84.5567 89.467L85.3844 89.5863Z" fill="#9DA3BD"/>
<g opacity="0.1">
<path d="M85.3844 89.5863C85.804 93.781 85.8616 98.0043 85.5565 102.209C85.3639 105.145 83.3315 115.551 80.1191 114.889C76.9066 114.227 82.7784 107.9 84.1879 102.448C85.6139 96.905 84.4666 92.8016 84.5567 89.467L85.3844 89.5863Z" fill="black"/>
</g>
<path d="M74.4279 90.1084C72.9912 93.6485 71.8616 97.3063 71.0515 101.041C70.4655 103.644 69.5682 113.22 72.5307 113.471C75.4932 113.722 72.0062 106.715 72.1783 101.6C72.3463 96.4116 74.3951 93.1222 75.1777 90.2153L74.4279 90.1084Z" fill="#FFC727"/>
<g opacity="0.1">
<path d="M74.4279 90.1084C72.9912 93.6485 71.8616 97.3063 71.0515 101.041C70.4655 103.644 69.5682 113.22 72.5307 113.471C75.4932 113.722 72.0062 106.715 72.1783 101.6C72.3463 96.4116 74.3951 93.1222 75.1777 90.2153L74.4279 90.1084Z" fill="black"/>
</g>
<path d="M86.7278 165.755C78.0082 164.41 63.7201 144.699 54.6645 122.171C52.9394 117.883 86.1214 100.544 87.4449 105.313C91.6572 120.613 99.9056 140.624 99.6392 152.967C99.422 162.564 92.7553 166.688 86.7278 165.755Z" fill="#EB9481"/>
<path d="M71.2071 89.0764C73.3214 86.4779 73.6451 79.2085 75.5423 74.9241C77.4394 70.6398 82.9998 68.6292 83.9791 70.204C84.9584 71.7787 83.5079 73.3658 83.0531 80.405C82.7622 84.9278 86.2164 93.9734 84.7413 102.197C83.9996 106.321 69.0681 91.675 71.2071 89.0764Z" fill="#EB9481"/>
<path d="M71.2071 89.0764C73.3214 86.4779 73.6451 79.2085 75.5423 74.9241C77.4394 70.6398 82.9998 68.6292 83.9791 70.204C84.9584 71.7787 83.5079 73.3658 83.0531 80.405C82.7622 84.9278 86.2164 93.9734 84.7413 102.197C83.9996 106.321 69.0681 91.675 71.2071 89.0764Z" fill="#EB9481"/>
<path opacity="0.06" d="M71.2071 89.0764C73.3214 86.4779 73.6451 79.2085 75.5423 74.9241C77.4394 70.6398 82.9998 68.6292 83.9791 70.204C84.9584 71.7787 83.5079 73.3658 83.0531 80.405C82.7622 84.9278 86.2164 93.9734 84.7413 102.197C83.9996 106.321 69.0681 91.675 71.2071 89.0764Z" fill="black"/>
<path d="M54.7266 66.9681C51.7641 69.7394 59.197 76.4866 59.197 76.4866C59.197 76.4866 56.4967 75.7547 54.1488 77.0705C51.4609 78.5712 52.6328 83.4641 52.6328 83.4641C52.6328 83.4641 49.744 83.2914 47.4043 84.9278C44.9744 86.63 45.4579 91.7326 45.4579 91.7326C45.4579 91.7326 42.6798 93.0566 41.6718 95.9265C39.9426 100.84 45.3596 106.732 47.982 111.045C50.7971 115.662 54.3291 121.394 56.3533 124.239L88.0889 108.039C88.0889 108.039 82.6514 83.6861 78.3449 79.5169C74.7022 76.0055 59.2339 62.729 54.7266 66.9681Z" fill="#EB9481"/>
<path d="M59.3243 76.466C64.0774 79.2701 68.1504 83.2091 72.0267 87.0535C72.0446 87.0715 72.0547 87.0959 72.0547 87.1213C72.0547 87.1467 72.0446 87.1712 72.0267 87.1891C72.0088 87.2071 71.9844 87.2172 71.9591 87.2172C71.9337 87.2172 71.9094 87.2071 71.8915 87.1891C68.0685 83.3201 63.1227 80.3844 59.1563 76.6757C59.1286 76.6533 59.1108 76.6208 59.107 76.5853C59.1032 76.5499 59.1135 76.5143 59.1358 76.4865C59.1581 76.4587 59.1904 76.4409 59.2258 76.4371C59.2611 76.4332 59.2966 76.4436 59.3243 76.466Z" fill="#263238"/>
<path d="M53.0179 83.2872C54.0751 83.9533 54.9069 84.9689 55.7428 85.8817C56.6443 86.8644 57.5293 87.8676 58.3939 88.8791C60.1313 90.9075 61.8181 92.9784 63.4544 95.0918C63.5281 95.1864 63.4011 95.322 63.3192 95.2275C61.5859 93.2086 59.8199 91.2145 57.9924 89.2738C57.0827 88.3007 56.1648 87.3413 55.2388 86.3956C54.3824 85.5034 53.399 84.6359 52.7516 83.5668C52.7333 83.5493 52.7186 83.5283 52.7084 83.505C52.6982 83.4818 52.6926 83.4568 52.6921 83.4314C52.6915 83.406 52.6959 83.3808 52.7051 83.3571C52.7142 83.3334 52.728 83.3118 52.7454 83.2934C52.7629 83.275 52.7838 83.2603 52.807 83.2501C52.8302 83.2398 52.8551 83.2343 52.8804 83.2337C52.9057 83.2331 52.9309 83.2376 52.9545 83.2467C52.9781 83.2559 52.9996 83.2697 53.0179 83.2872Z" fill="#263238"/>
<path d="M45.5189 91.8148C46.4614 92.3575 47.158 93.4594 47.8505 94.2818C48.6208 95.2247 49.398 96.1622 50.182 97.0941C51.7472 98.9567 53.3125 100.819 54.9433 102.628C55.0253 102.719 54.8901 102.855 54.8081 102.764C53.1445 100.934 51.4563 99.1294 49.8091 97.2833C48.9896 96.3787 48.1851 95.4687 47.3956 94.5531C46.7154 93.776 45.7771 92.8838 45.4247 91.8929C45.4205 91.8803 45.4203 91.8668 45.4239 91.854C45.4276 91.8413 45.435 91.8299 45.4452 91.8215C45.4554 91.813 45.4679 91.8079 45.481 91.8067C45.4942 91.8055 45.5074 91.8083 45.5189 91.8148Z" fill="#263238"/>
<path d="M58.2542 66.1416C63.6425 68.3783 70.1002 73.1314 73.8863 76.0836C75.2995 77.1828 76.6549 78.3548 77.947 79.5949C79.2009 80.8572 80.0204 82.4731 80.8153 84.056C81.3603 85.1292 81.8233 86.2434 82.2822 87.3454C81.4627 84.4672 80.4793 81.4081 78.4387 79.1221C77.1638 77.8164 75.8031 76.598 74.3658 75.475C70.555 72.5352 66.646 69.5543 62.2124 67.6341L58.2542 66.1416Z" fill="#263238"/>
<path d="M94.2716 114.199L62.8638 141.882C62.8638 141.882 79.2868 168.518 86.9451 167.996C94.6035 167.473 102.926 162.498 102.299 144.025C102.147 139.399 94.2716 114.199 94.2716 114.199Z" fill="#FFBD1B"/>
<path d="M99.9467 134.65L100.356 134.946C100.299 134.724 100.238 134.502 100.18 134.276C98.7256 133.195 97.271 132.109 95.886 130.941C92.3908 128.006 88.9694 124.108 88.3342 119.429L88.0228 119.704C88.3085 121.44 88.901 123.111 89.7725 124.638C92.1654 128.861 96.1442 131.813 99.9467 134.65ZM81.897 130.378C82.8291 129.735 83.9296 129.384 85.0604 129.367C86.1911 129.35 87.3016 129.669 88.2523 130.283C90.2232 131.55 91.4975 133.791 91.9851 136.04C92.694 139.309 92.104 142.664 92.0384 145.961C91.9275 152.217 93.5916 158.376 96.8366 163.719C96.726 163.835 96.6113 163.946 96.4966 164.052C95.6673 162.694 94.94 161.276 94.3208 159.809C93.1217 157.018 92.307 154.076 91.8991 151.064C91.4689 147.89 91.6696 144.777 91.8376 141.607C91.9974 138.556 91.8991 135.361 90.1249 132.755C88.5637 130.46 85.8347 129.054 83.1262 130.197C80.4178 131.34 78.9017 134.239 78.8443 137.117C78.6804 143.067 82.9419 148.062 85.8634 152.852C87.2566 155.13 88.5063 157.54 89.0923 160.163C89.6413 162.651 89.5554 165.237 88.8423 167.683C88.8333 167.718 88.8223 167.752 88.8095 167.786L88.3711 167.856C89.2126 165.118 89.2553 162.196 88.494 159.435C86.9902 154.09 83.0689 149.892 80.5653 145.044C79.2582 142.499 78.2624 139.662 78.4427 136.759C78.482 135.498 78.8148 134.264 79.4146 133.155C80.0144 132.046 80.8646 131.094 81.897 130.374V130.378ZM72.6939 152.034C74.9066 152.252 76.8488 153.679 77.3241 155.92C77.6601 157.523 77.2667 159.168 76.5824 160.677C76.4882 160.566 76.3858 160.455 76.2874 160.344C77.3405 157.836 77.5167 154.637 74.8451 153.091C74.1444 152.699 73.3682 152.463 72.5688 152.398C71.7694 152.332 70.9653 152.44 70.2108 152.712C70.1288 152.601 70.051 152.49 69.9649 152.379C70.8372 152.06 71.7696 151.941 72.6939 152.03V152.034ZM63.2039 141.586C64.1856 141.831 65.2096 141.849 66.1993 141.64C70.0673 140.817 72.9848 137.002 72.6611 133.244L73.0708 132.87C73.706 137.166 70.1329 141.463 65.9206 142.121C64.9047 142.269 63.8689 142.195 62.8843 141.903L62.8638 141.866L63.2039 141.586Z" fill="white"/>
<path d="M94.6203 125.65C93.0837 126.937 91.6495 128.359 90.1908 129.733C88.7321 131.106 87.2815 132.5 85.8515 133.91C82.9941 136.731 80.16 139.572 77.3491 142.433C76.5828 143.219 75.8166 144.004 75.0626 144.806C74.3087 145.608 73.5588 146.619 72.7434 147.462C72.7338 147.476 72.7294 147.493 72.731 147.511C72.7327 147.528 72.7402 147.544 72.7523 147.556C72.7644 147.568 72.7804 147.576 72.7975 147.577C72.8146 147.579 72.8317 147.574 72.8459 147.565C73.5588 146.886 74.3702 146.307 75.0995 145.641C75.8289 144.974 76.5951 144.243 77.3327 143.531C78.775 142.136 80.2119 140.735 81.6433 139.329C84.5116 136.517 87.3512 133.684 90.117 130.781C91.6782 129.136 93.3049 127.525 94.7678 125.794C94.7868 125.774 94.7972 125.748 94.7969 125.72C94.7965 125.693 94.7853 125.667 94.7657 125.648C94.7462 125.629 94.7198 125.618 94.6926 125.618C94.6653 125.619 94.6393 125.63 94.6203 125.65Z" fill="#263238"/>
<path d="M90.7153 117.336L94.3458 114.285L94.1696 114.236C95.8946 120.765 97.8 127.245 99.5865 133.754C100.412 136.568 101.095 139.423 101.635 142.306C102.103 146.06 102.114 149.857 101.668 153.613C102.571 149.882 102.861 146.028 102.529 142.203C101.639 135.892 99.6234 129.802 97.7467 123.738C96.6773 120.469 95.5464 117.225 94.3212 114.01L94.2024 114.116L90.7194 117.336H90.7153Z" fill="#263238"/>
<path d="M39.5941 40.7729C39.5219 41.6218 39.7021 42.473 40.112 43.2191C40.5218 43.9652 41.1429 44.5727 41.8966 44.9647C42.6504 45.3568 43.5031 45.5158 44.3469 45.4217C45.1907 45.3277 45.9878 44.9847 46.6375 44.4362C47.2871 43.8877 47.7602 43.1583 47.9968 42.3401C48.2335 41.522 48.2231 40.6517 47.967 39.8395C47.711 39.0272 47.2207 38.3093 46.5582 37.7766C45.8956 37.2438 45.0906 36.9201 44.2448 36.8463C43.6824 36.7972 43.1158 36.8599 42.5776 37.0307C42.0394 37.2016 41.54 37.4772 41.108 37.8419C40.6761 38.2067 40.32 38.6532 40.0602 39.1562C39.8004 39.6591 39.642 40.2085 39.5941 40.7729Z" fill="white"/>
<path d="M39.5946 40.7727C39.2258 44.6048 43.77 47.0306 46.753 44.576C47.2051 44.1988 47.5781 43.7354 47.8505 43.2126C48.1229 42.6899 48.2892 42.118 48.3399 41.5303C48.3906 40.9426 48.3246 40.3506 48.1457 39.7886C47.9669 39.2267 47.6788 38.7059 47.298 38.2564C44.7821 35.3207 39.8855 36.9283 39.5946 40.7727ZM39.5946 40.7727C39.9265 37.0188 44.6796 35.5633 47.0275 38.4825C47.7111 39.3298 48.0413 40.4097 47.9488 41.4958C47.8564 42.582 47.3486 43.59 46.5317 44.3087C43.7208 46.7757 39.2832 44.5225 39.5987 40.7727H39.5946Z" fill="#263238"/>
<path d="M50.9771 45.2463C50.9367 45.7186 51.0368 46.1923 51.2647 46.6076C51.4926 47.0228 51.8381 47.3609 52.2574 47.5792C52.6768 47.7974 53.1513 47.886 53.6208 47.8337C54.0903 47.7813 54.5339 47.5905 54.8954 47.2853C55.2568 46.9801 55.52 46.5742 55.6516 46.1189C55.7831 45.6636 55.7772 45.1794 55.6346 44.7274C55.492 44.2755 55.219 43.8762 54.8502 43.5799C54.4814 43.2836 54.0333 43.1038 53.5626 43.063C52.9315 43.0094 52.3048 43.2092 51.8202 43.6184C51.3355 44.0277 51.0323 44.6131 50.9771 45.2463Z" fill="white"/>
<path d="M50.9775 45.2463C50.9437 45.6594 51.0126 46.0745 51.1781 46.4544C51.3436 46.8342 51.6005 47.1668 51.9257 47.4225C52.2509 47.6781 52.6343 47.8487 53.0414 47.919C53.4485 47.9893 53.8667 47.9571 54.2584 47.8252C54.65 47.6934 55.0029 47.466 55.2854 47.1635C55.5679 46.861 55.7711 46.4929 55.8768 46.0922C55.9826 45.6914 55.9875 45.2706 55.8912 44.8675C55.7949 44.4644 55.6003 44.0916 55.325 43.7825C54.9989 43.4215 54.5752 43.1635 54.1055 43.0398C53.6358 42.9161 53.1405 42.9322 52.6797 43.086C52.219 43.2398 51.8127 43.5248 51.5105 43.9061C51.2083 44.2875 51.0231 44.7488 50.9775 45.2339V45.2463ZM50.9775 45.2463C51.3381 42.216 55.7061 42.6189 55.534 45.6574C55.1857 48.6672 50.8136 48.3094 50.9775 45.2463Z" fill="#263238"/>
<path d="M2.08111 22.2909C1.81667 24.4805 2.13012 26.7013 2.99006 28.7311C3.84999 30.7609 5.22625 32.5284 6.98103 33.8566C8.73581 35.1848 10.8075 36.0271 12.9888 36.2992C15.17 36.5714 17.3842 36.2637 19.4097 35.4071C20.3944 36.6978 21.6628 37.7429 23.116 38.461C24.5693 39.1792 26.1681 39.5509 27.788 39.5474C29.408 39.5438 31.0052 39.165 32.4552 38.4404C33.9053 37.7158 35.1691 36.6651 36.1482 35.3701C36.6069 35.5108 37.0772 35.6099 37.5536 35.6661C39.1915 35.8662 40.8521 35.5857 42.3343 34.8584C43.8166 34.1312 45.057 32.9884 45.9055 31.5685C46.754 30.1485 47.1741 28.5122 47.115 26.8576C47.0559 25.203 46.5201 23.6011 45.5725 22.2457C47.4249 19.8863 48.3753 16.94 48.2521 13.939C48.1288 10.938 46.9401 8.08012 44.9006 5.88168C42.8611 3.68323 40.1053 2.28915 37.131 1.95128C34.1567 1.61341 31.1601 2.35402 28.6824 4.03932C27.5215 2.583 25.997 1.46118 24.2638 0.787954C22.5307 0.11473 20.6507 -0.0858756 18.8152 0.206542C16.9797 0.498959 15.2542 1.27397 13.814 2.45274C12.3739 3.6315 11.2706 5.17198 10.6163 6.91747C10.1789 6.76796 9.72704 6.66461 9.26822 6.6091C7.8725 6.43774 6.45796 6.69937 5.21486 7.35881C3.97176 8.01825 2.95971 9.04387 2.31486 10.2977C1.67001 11.5515 1.42327 12.9735 1.60785 14.3722C1.79241 15.771 2.39943 17.0795 3.34725 18.1217C2.68192 19.425 2.25319 20.8368 2.08111 22.2909Z" fill="white"/>
<path d="M2.08117 22.2909C1.81573 24.4856 2.12866 26.7118 2.98868 28.7473C3.84871 30.7827 5.22573 32.5561 6.98233 33.8906C8.73893 35.2251 10.8136 36.0738 12.9993 36.3522C15.185 36.6306 17.4053 36.3288 19.4384 35.477L19.3524 35.4523C20.3438 36.7572 21.6221 37.8148 23.0876 38.5428C24.5531 39.2708 26.1663 39.6495 27.8015 39.6495C29.4367 39.6495 31.0499 39.2708 32.5154 38.5428C33.9809 37.8148 35.2592 36.7572 36.2507 35.4523L36.1113 35.4975C36.7511 35.6951 37.4135 35.8098 38.0823 35.8388C45.3021 36.287 49.8627 28.0884 45.7119 22.1388V22.3608C51.8992 14.5775 46.9944 2.88807 37.1439 1.80259C34.1365 1.46522 31.1083 2.22087 28.6087 3.93243L28.7767 3.96121C23.6589 -2.44885 13.4191 -0.80008 10.5549 6.89281L10.6328 6.85581C10.0919 6.66985 9.52782 6.56052 8.95686 6.53099C7.57603 6.42815 6.19623 6.74353 4.99602 7.43632C3.7958 8.12911 2.83043 9.16742 2.22484 10.4169C1.61925 11.6663 1.40132 13.0694 1.59924 14.4445C1.79717 15.8196 2.40184 17.1035 3.33501 18.1299C2.6656 19.4281 2.23923 20.8384 2.07708 22.2909H2.08117ZM2.08117 22.2909C2.25747 20.8348 2.69036 19.4217 3.35961 18.1176C2.34956 16.9866 1.74116 15.5518 1.62941 14.0373C1.51765 12.5227 1.90883 11.0137 2.74186 9.74576C3.5749 8.47782 4.8029 7.52236 6.23413 7.02855C7.66537 6.53474 9.21928 6.53039 10.6532 7.01616C13.4683 -0.561604 23.5687 -2.21449 28.5882 4.13801L28.6579 4.22847L28.7562 4.16268C31.2062 2.49249 34.1733 1.76276 37.1152 2.10686C46.6871 3.217 51.3624 14.5446 45.4251 22.1347L45.339 22.2457L45.4169 22.3567C49.4325 28.0678 45.0563 35.9745 38.0986 35.5757C37.4197 35.5476 36.7474 35.4301 36.099 35.2262C35.138 36.5246 33.89 37.5817 32.4531 38.3145C31.0162 39.0472 29.4295 39.4357 27.8177 39.4492C26.206 39.4627 24.613 39.1011 23.1641 38.3926C21.7151 37.6841 20.4497 36.6481 19.4671 35.366L19.4302 35.3207L19.381 35.3454C17.3626 36.1992 15.1564 36.5067 12.9825 36.2373C10.8087 35.968 8.74324 35.1312 6.99244 33.8104C5.24163 32.4897 3.86671 30.7312 3.00491 28.7106C2.14312 26.69 1.8246 24.4778 2.08117 22.295V22.2909Z" fill="#263238"/>
<path d="M23.4826 21.6003L23.5851 23.3395C23.59 23.5128 23.6302 23.6833 23.703 23.8404C23.7759 23.9976 23.8799 24.1383 24.0088 24.2537C24.1377 24.3692 24.2887 24.457 24.4525 24.5119C24.6164 24.5668 24.7897 24.5876 24.9619 24.573C25.3072 24.5529 25.6306 24.3961 25.861 24.1372C26.0914 23.8782 26.2101 23.5381 26.1911 23.1915L26.0354 20.412C26.0354 20.3832 26.0067 20.3874 26.0026 20.3586C25.9985 20.3298 26.0436 20.3462 26.0436 20.3051C26.0154 19.9616 25.8568 19.6421 25.6006 19.4126C25.3444 19.183 25.0102 19.061 24.6668 19.0716C24.2678 19.1066 23.8658 19.0607 23.4847 18.9368C23.1037 18.8129 22.7513 18.6135 22.4485 18.3504C22.1457 18.0872 21.8986 17.7657 21.722 17.4049C21.5454 17.0442 21.4428 16.6515 21.4203 16.2502C21.3977 15.8488 21.4558 15.4471 21.591 15.0687C21.7261 14.6903 21.9357 14.343 22.2071 14.0474C22.4786 13.7519 22.8064 13.514 23.1713 13.348C23.5361 13.182 23.9304 13.0912 24.3308 13.081C24.8482 13.0503 25.3645 13.1568 25.8277 13.39C26.2909 13.6231 26.6848 13.9746 26.9697 14.409C27.0598 14.5622 27.1799 14.6955 27.3228 14.8008C27.4657 14.9061 27.6284 14.9813 27.801 15.0217C27.9737 15.0621 28.1527 15.067 28.3273 15.036C28.5019 15.005 28.6684 14.9388 28.8168 14.8414C28.9651 14.744 29.0923 14.6174 29.1905 14.4693C29.2887 14.3212 29.356 14.1547 29.3883 13.9797C29.4205 13.8048 29.4171 13.6251 29.3782 13.4516C29.3393 13.278 29.2657 13.1142 29.1618 12.9699C28.6514 12.1905 27.956 11.5506 27.138 11.1077C26.3201 10.6647 25.4052 10.4327 24.4758 10.4324C23.5463 10.4321 22.6314 10.6635 21.8131 11.1059C20.9949 11.5483 20.299 12.1878 19.7881 12.9669C19.2771 13.7459 18.9671 14.6402 18.8859 15.5693C18.8046 16.4984 18.9548 17.4332 19.3227 18.2896C19.6907 19.1461 20.2649 19.8974 20.9939 20.4759C21.7229 21.0545 22.5837 21.4423 23.499 21.6044L23.4826 21.6003ZM23.8104 27.4553L23.8391 27.9363C23.8447 28.1094 23.8852 28.2796 23.9582 28.4365C24.0313 28.5934 24.1353 28.7338 24.2641 28.8492C24.3928 28.9645 24.5436 29.0524 24.7072 29.1075C24.8708 29.1626 25.0439 29.1838 25.2159 29.1698C25.5613 29.1476 25.884 28.9897 26.1141 28.7303C26.3442 28.4709 26.4631 28.131 26.4452 27.7842L26.4165 27.3031C26.3923 26.9581 26.2349 26.6362 25.9777 26.4059C25.7206 26.1755 25.3841 26.0549 25.0397 26.0697C24.8676 26.0775 24.6988 26.1198 24.5432 26.1941C24.3876 26.2684 24.2484 26.3732 24.1339 26.5023C24.0193 26.6315 23.9317 26.7823 23.8761 26.946C23.8206 27.1097 23.7982 27.2828 23.8104 27.4553Z" fill="#FFD246"/>
</svg>
