<svg width="22" height="26" viewBox="0 0 22 26" fill="none" xmlns="http://www.w3.org/2000/svg">
<path d="M10.75 24.4276C15.0357 24.4276 20.75 21.549 20.75 15.0942C20.7549 10.1591 18.1607 6.91936 17.3393 6.01739C17.2488 5.91799 17.2035 5.86829 17.1205 5.85312C17.0985 5.8491 17.0615 5.84844 17.0394 5.85168C16.9558 5.86389 16.9129 5.90783 16.8269 5.99571C16.4317 6.39995 15.6761 7.38906 15.1172 9.43577C14.0691 5.04566 11.9657 2.4614 10.7261 1.25652C10.4108 0.949987 10.2531 0.796719 9.92045 0.755149C9.83838 0.744892 9.67972 0.750826 9.59865 0.767186C9.27006 0.833488 9.12544 0.996786 8.8362 1.32338C7.57733 2.74483 5.38788 5.94572 4.70767 11.5457C4.21575 10.4471 3.66106 9.5125 3.31037 8.9606C3.17973 8.755 3.11441 8.65219 3.00794 8.63207C2.97646 8.62612 2.93767 8.62681 2.90642 8.63387C2.80073 8.65774 2.73967 8.7618 2.61754 8.96992C2.00321 10.0168 0.768143 12.4473 0.75 15.0942C0.75 21.7609 6.46428 24.4276 10.75 24.4276ZM10.75 24.4276C12.4643 24.4276 14.75 22.9883 14.75 19.7609C14.75 17.7014 13.1211 15.2841 11.9423 13.8043C11.5082 13.2595 11.2911 12.987 10.9233 12.9192C10.8192 12.9 10.6714 12.8996 10.5673 12.9181C10.199 12.9834 9.98099 13.2534 9.54505 13.7934C8.36722 15.2523 6.74995 17.6413 6.74995 19.7609C6.74995 23.0942 9.03571 24.4276 10.75 24.4276Z" stroke="#979EAE" stroke-width="1.5" stroke-linecap="round" stroke-linejoin="round"/>
</svg>
