<svg width="48" height="48" viewBox="0 0 48 48" fill="none" xmlns="http://www.w3.org/2000/svg">
<g clip-path="url(#clip0_1166_5697)">
<path d="M24 48C37.2548 48 48 37.2548 48 24C48 10.7452 37.2548 0 24 0C10.7452 0 0 10.7452 0 24C0 37.2548 10.7452 48 24 48Z" fill="#F0F0F0"/>
<path d="M48 23.9999C48 13.6807 41.487 4.88371 32.3478 1.49268V46.5072C41.487 43.1161 48 34.319 48 23.9999Z" fill="#D80027"/>
<path d="M0 23.9999C0 34.319 6.51309 43.1161 15.6522 46.5071V1.49268C6.51309 4.88371 0 13.6807 0 23.9999Z" fill="#0052B4"/>
</g>
<defs>
<clipPath id="clip0_1166_5697">
<rect width="48" height="48" fill="white"/>
</clipPath>
</defs>
</svg>
