<svg width="350" height="350" viewBox="0 0 350 350" fill="none" xmlns="http://www.w3.org/2000/svg">
<path d="M135.191 283.759C135.147 283.736 135.108 283.704 135.077 283.666C135.046 283.627 135.023 283.583 135.009 283.535C131.509 270.235 118.363 262.339 112.749 258.972C111.839 258.433 111.125 257.999 110.649 257.677C109.67 257.055 108.867 256.191 108.32 255.168C107.773 254.146 107.5 252.998 107.527 251.839C107.616 250.826 107.97 249.855 108.554 249.023C109.138 248.191 109.93 247.528 110.852 247.1C115.703 244.573 124.852 249.599 131.607 258.531C141.106 271.061 139.405 281.75 139.391 281.855C139.38 281.91 139.357 281.962 139.323 282.007C139.289 282.052 139.245 282.088 139.195 282.114L135.471 283.759C135.427 283.769 135.382 283.769 135.338 283.759C135.29 283.768 135.24 283.768 135.191 283.759ZM131.068 258.944C124.481 250.264 115.745 245.329 111.174 247.702C110.351 248.074 109.643 248.66 109.122 249.399C108.601 250.137 108.288 251.001 108.213 251.902C108.191 252.942 108.437 253.969 108.927 254.887C109.418 255.804 110.136 256.579 111.013 257.138C111.468 257.453 112.175 257.873 113.071 258.412C118.671 261.786 131.817 269.612 135.534 282.996L138.719 281.596C138.922 280.14 139.713 270.347 131.068 258.944Z" fill="#FFA31A"/>
<path d="M137.459 282.849H137.501C137.546 282.843 137.588 282.828 137.627 282.805C137.665 282.783 137.699 282.753 137.726 282.717C137.753 282.681 137.772 282.64 137.783 282.597C137.793 282.553 137.795 282.508 137.788 282.464C135.443 266.609 121.961 253.204 114.079 251.293C114.035 251.279 113.987 251.274 113.94 251.278C113.893 251.283 113.848 251.297 113.807 251.321C113.766 251.344 113.73 251.375 113.701 251.412C113.673 251.45 113.653 251.493 113.641 251.539C113.63 251.585 113.629 251.632 113.637 251.679C113.645 251.725 113.663 251.769 113.689 251.809C113.715 251.848 113.748 251.882 113.788 251.907C113.828 251.933 113.872 251.95 113.918 251.958C121.716 253.841 134.918 267.526 137.116 282.562C137.13 282.643 137.172 282.716 137.235 282.769C137.298 282.822 137.377 282.85 137.459 282.849Z" fill="#FFA31A"/>
<path d="M139.069 282.142C139.118 282.141 139.166 282.129 139.209 282.107L141.715 280.868C141.766 280.844 141.811 280.808 141.844 280.763C141.877 280.718 141.898 280.665 141.904 280.609C141.904 280.455 144.06 264.579 137.242 244.804C133.742 234.731 126.042 225.631 118.874 223.16C115.423 221.977 112.28 222.278 109.529 224.063C108.841 224.443 108.249 224.977 107.8 225.623C107.351 226.269 107.056 227.009 106.939 227.787C106.491 231.819 111.44 236.887 116.683 242.242C120.351 245.994 124.145 249.872 126.182 253.512C126.202 253.555 126.231 253.594 126.266 253.626C126.301 253.658 126.343 253.682 126.388 253.696C126.434 253.711 126.481 253.716 126.529 253.712C126.576 253.707 126.622 253.692 126.663 253.669C126.705 253.646 126.741 253.614 126.77 253.576C126.798 253.538 126.818 253.494 126.829 253.448C126.84 253.401 126.841 253.353 126.832 253.306C126.823 253.26 126.804 253.215 126.777 253.176C124.677 249.459 120.869 245.546 117.173 241.766C112.042 236.523 107.205 231.567 107.618 227.857C107.758 226.597 108.5 225.547 109.9 224.637C112.462 222.971 115.409 222.691 118.65 223.804C125.65 226.212 133.189 235.137 136.598 245.028C142.975 263.522 141.498 278.551 141.253 280.336L138.908 281.498C138.868 281.517 138.832 281.545 138.802 281.578C138.773 281.612 138.75 281.651 138.736 281.693C138.721 281.735 138.716 281.78 138.719 281.825C138.722 281.87 138.734 281.913 138.754 281.953C138.784 282.011 138.829 282.059 138.885 282.092C138.941 282.125 139.005 282.143 139.069 282.142Z" fill="#FFA31A"/>
<path d="M138.117 272.412C138.207 272.405 138.29 272.362 138.349 272.294C138.408 272.226 138.438 272.138 138.432 272.048C136.332 247.261 119.441 229.957 114.842 227.248C114.765 227.215 114.679 227.211 114.6 227.238C114.52 227.264 114.453 227.318 114.411 227.39C114.369 227.463 114.355 227.548 114.371 227.63C114.387 227.712 114.433 227.785 114.499 227.836C119.028 230.482 135.688 247.562 137.753 272.083C137.754 272.129 137.764 272.174 137.783 272.216C137.802 272.258 137.83 272.295 137.864 272.326C137.898 272.357 137.938 272.381 137.982 272.395C138.025 272.41 138.071 272.416 138.117 272.412Z" fill="#FFA31A"/>
<path d="M177.983 327.747C210.805 327.747 237.413 312.384 237.413 293.433C237.413 274.482 210.805 259.119 177.983 259.119C145.16 259.119 118.553 274.482 118.553 293.433C118.553 312.384 145.16 327.747 177.983 327.747Z" fill="#E0E0E0"/>
<path d="M303.345 71.4C303.321 71.4706 303.311 71.5457 303.317 71.6203C303.323 71.6949 303.344 71.7674 303.38 71.8333C303.415 71.8991 303.464 71.9568 303.523 72.0027C303.583 72.0487 303.651 72.0818 303.723 72.1L310.688 74.109C310.757 74.1292 310.829 74.1356 310.901 74.1279C310.972 74.1202 311.041 74.0985 311.104 74.0641C311.168 74.0296 311.223 73.9831 311.268 73.9272C311.313 73.8712 311.347 73.8069 311.367 73.738C311.387 73.669 311.394 73.5968 311.386 73.5253C311.378 73.4539 311.357 73.3847 311.322 73.3216C311.288 73.2586 311.241 73.2029 311.185 73.1579C311.129 73.1128 311.065 73.0792 310.996 73.059L303.996 71.05C303.864 71.0177 303.724 71.0356 303.604 71.1002C303.483 71.1648 303.391 71.2716 303.345 71.4ZM310.429 74.991L303.429 72.982C303.359 72.9583 303.285 72.9493 303.211 72.9553C303.137 72.9613 303.065 72.9824 302.999 73.0171C302.934 73.0518 302.876 73.0995 302.83 73.1572C302.783 73.215 302.749 73.2816 302.729 73.353C302.455 74.4126 302.606 75.5373 303.149 76.4875C303.692 77.4377 304.585 78.1384 305.637 78.4404C306.689 78.7424 307.817 78.6219 308.781 78.1044C309.746 77.587 310.47 76.7135 310.8 75.67C310.82 75.6015 310.827 75.5297 310.819 75.4587C310.811 75.3877 310.79 75.3189 310.755 75.2564C310.721 75.1938 310.674 75.1388 310.618 75.0944C310.562 75.0501 310.498 75.0173 310.429 74.998V74.991ZM311.199 59.199C311.741 58.7961 312.101 58.1943 312.2 57.526C312.199 57.4228 312.162 57.3232 312.095 57.2441C312.029 57.1651 311.938 57.1113 311.836 57.092C311.741 57.0521 311.635 57.0479 311.537 57.0801C311.44 57.1122 311.357 57.1786 311.304 57.267C311.163 57.5624 311.083 57.8829 311.067 58.2098C311.051 58.5367 311.101 58.8635 311.213 59.171L311.199 59.199ZM308 61.537H307.965C308.062 62.0284 308.116 62.5273 308.126 63.028C308.099 65.2723 307.696 67.4962 306.936 69.608C306.887 69.776 306.831 69.958 306.775 70.126L306.6 70.7L309.001 71.4C309.099 71.05 309.204 70.7 309.295 70.343C309.78 68.1561 310.619 66.0634 311.78 64.148C312.054 63.7287 312.366 63.3351 312.711 62.972C312.2 62.5918 311.749 62.1363 311.374 61.621C311.162 61.3464 310.975 61.0535 310.814 60.746C310.514 60.918 310.2 61.0655 309.876 61.187C309.272 61.3982 308.64 61.5162 308 61.537ZM315 48.181C312.622 47.3323 310.026 47.3123 307.635 48.1242C305.244 48.9361 303.197 50.5323 301.827 52.6536C300.458 54.775 299.845 57.2971 300.088 59.8105C300.332 62.324 301.418 64.6813 303.17 66.5C303.524 66.8775 303.775 67.3401 303.897 67.8429C304.02 68.3458 304.011 68.8718 303.87 69.37C303.835 69.4953 303.851 69.6292 303.914 69.743C303.977 69.8569 304.082 69.9416 304.206 69.979L305.69 70.406C305.788 70.063 305.893 69.706 306.005 69.328C306.735 67.323 307.125 65.2104 307.16 63.077C307.144 62.5566 307.081 62.0388 306.971 61.53C306.103 61.4925 305.279 61.1332 304.661 60.522C304.501 60.3445 304.405 60.1189 304.387 59.8807C304.37 59.6425 304.431 59.4052 304.563 59.206C304.716 58.9742 304.94 58.7991 305.202 58.708C305.464 58.6169 305.749 58.6148 306.012 58.702C306.421 58.8674 306.785 59.1255 307.077 59.4559C307.368 59.7864 307.579 60.1801 307.692 60.606C308.639 60.5513 309.559 60.2678 310.373 59.78C310.161 59.2983 310.06 58.775 310.079 58.249C310.097 57.723 310.233 57.2079 310.478 56.742C310.637 56.4795 310.878 56.2766 311.164 56.1645C311.45 56.0524 311.765 56.0374 312.06 56.1218C312.355 56.2061 312.614 56.3851 312.798 56.6313C312.981 56.8774 313.079 57.177 313.075 57.484C313.036 58.0105 312.879 58.5213 312.615 58.9783C312.35 59.4353 311.986 59.8267 311.549 60.123C311.703 60.4255 311.883 60.7137 312.088 60.984C312.447 61.4954 312.893 61.9407 313.404 62.3C313.731 62.0054 314.122 61.7892 314.545 61.6679C314.968 61.5466 315.414 61.5234 315.847 61.6C316.117 61.6681 316.357 61.8239 316.53 62.0431C316.702 62.2622 316.797 62.5322 316.799 62.811C316.806 63.0496 316.732 63.2835 316.59 63.4752C316.448 63.6669 316.245 63.8053 316.015 63.868C315.166 64.0558 314.278 63.9211 313.523 63.49C313.158 63.8584 312.83 64.2617 312.543 64.694C311.433 66.5314 310.634 68.5393 310.177 70.637V70.749C310.093 71.064 310.009 71.372 309.918 71.687L311.395 72.107C311.521 72.145 311.657 72.1325 311.773 72.072C311.887 72.0047 311.972 71.8974 312.011 71.771C312.158 71.272 312.433 70.8201 312.809 70.4603C313.185 70.1005 313.648 69.8453 314.153 69.72C316.069 69.2261 317.821 68.2332 319.229 66.8426C320.636 65.4519 321.651 63.713 322.168 61.803C322.895 59.041 322.556 56.1067 321.219 53.583C319.882 51.0593 317.645 49.1309 314.951 48.181H315ZM305.368 59.731C305.368 59.78 305.368 59.829 305.424 59.934C305.704 60.1994 306.049 60.3855 306.425 60.473L306.649 60.529H306.691V60.487C306.523 60.0877 306.214 59.7639 305.823 59.577C305.78 59.5538 305.733 59.5393 305.684 59.5345C305.635 59.5297 305.586 59.5346 305.539 59.5489C305.492 59.5633 305.449 59.5867 305.411 59.618C305.373 59.6492 305.342 59.6876 305.319 59.731H305.368ZM315.791 62.923C315.91 62.874 315.952 62.839 315.945 62.769C315.945 62.6891 315.917 62.6119 315.866 62.5505C315.815 62.4892 315.744 62.4476 315.665 62.433C315.233 62.3796 314.796 62.4894 314.44 62.741H314.405H314.447C314.522 62.7739 314.599 62.7997 314.678 62.818C315.018 62.9442 315.384 62.9804 315.742 62.923H315.791Z" fill="#EBEBEB"/>
<path d="M36.8064 153.468C36.8425 153.537 36.8919 153.598 36.9516 153.647C37.0113 153.697 37.0802 153.734 37.1544 153.757C37.2286 153.779 37.3066 153.787 37.3838 153.78C37.461 153.772 37.536 153.75 37.6044 153.713L44.5554 150.066C44.6938 149.993 44.7973 149.867 44.8432 149.718C44.8892 149.568 44.8738 149.406 44.8004 149.268C44.7271 149.13 44.6018 149.026 44.4522 148.98C44.3025 148.934 44.1408 148.95 44.0024 149.023L37.0584 152.67C36.9212 152.744 36.8181 152.869 36.7711 153.018C36.7241 153.167 36.7368 153.328 36.8064 153.468ZM45.0314 150.969L38.0804 154.616C37.9418 154.685 37.8352 154.806 37.7831 154.952C37.7309 155.098 37.7371 155.258 37.8004 155.4C38.3574 156.46 39.3127 157.256 40.4561 157.611C41.5995 157.967 42.8374 157.854 43.8974 157.297C44.9575 156.74 45.7529 155.785 46.1087 154.641C46.4644 153.498 46.3514 152.26 45.7944 151.2C45.7207 151.071 45.6006 150.976 45.4588 150.933C45.317 150.89 45.1641 150.903 45.0314 150.969ZM33.8314 138.054V138.019C33.937 137.312 33.7583 136.592 33.3344 136.017C33.2516 135.947 33.1497 135.903 33.0418 135.891C32.9339 135.879 32.8249 135.9 32.7288 135.95C32.6326 136.001 32.5536 136.078 32.5019 136.174C32.4502 136.269 32.4281 136.378 32.4384 136.486C32.6683 137.163 33.1565 137.721 33.7964 138.04L33.8314 138.054ZM33.0544 142.303C33.499 142.63 33.9157 142.993 34.3004 143.388C36.1694 145.208 37.2894 147.448 38.2904 149.422C38.3814 149.59 38.4724 149.772 38.5564 149.947L38.8294 150.465L41.2304 149.205C41.0414 148.855 40.8664 148.505 40.6704 148.162C39.4108 146.092 38.5003 143.829 37.9754 141.463C37.8723 140.93 37.8207 140.389 37.8214 139.846C36.761 139.969 35.6865 139.862 34.6714 139.531C34.5594 139.887 34.4238 140.236 34.2654 140.574C33.9464 141.21 33.5308 141.794 33.0334 142.303H33.0544ZM28.5184 126.644C26.0467 127.778 24.0275 129.71 22.7847 132.129C21.542 134.548 21.1477 137.315 21.665 139.985C22.1824 142.655 23.5815 145.074 25.6379 146.853C27.6943 148.633 30.2888 149.671 33.0054 149.8C33.5609 149.826 34.1004 149.994 34.5723 150.288C35.0441 150.582 35.4326 150.993 35.7004 151.48C35.7647 151.601 35.8735 151.693 36.004 151.736C36.1344 151.779 36.2765 151.77 36.4004 151.711L37.8844 150.934C37.7024 150.591 37.5204 150.234 37.3244 149.856C36.4081 147.748 35.1498 145.807 33.6004 144.109C33.1983 143.712 32.7601 143.354 32.2914 143.038C31.5819 143.656 30.6703 143.992 29.7294 143.983C29.472 143.96 29.229 143.855 29.037 143.682C28.845 143.509 28.7146 143.278 28.6654 143.024C28.6158 142.732 28.6602 142.431 28.7923 142.166C28.9244 141.9 29.1373 141.684 29.4004 141.547C29.8441 141.373 30.322 141.303 30.7969 141.345C31.2717 141.386 31.7306 141.537 32.1374 141.785C32.5937 141.306 32.9674 140.755 33.2434 140.154C33.3987 139.825 33.5252 139.483 33.6214 139.132C33.0956 138.914 32.6256 138.581 32.2463 138.157C31.867 137.733 31.5881 137.229 31.4304 136.682C31.3866 136.366 31.4411 136.044 31.5865 135.76C31.732 135.476 31.9614 135.243 32.2436 135.094C32.5258 134.945 32.847 134.887 33.1637 134.926C33.4803 134.966 33.777 135.103 34.0134 135.317C34.3772 135.758 34.6366 136.275 34.7723 136.83C34.9081 137.385 34.9167 137.964 34.7974 138.523C35.1434 138.645 35.4994 138.737 35.8614 138.796C36.5103 138.904 37.1726 138.904 37.8214 138.796C37.853 138.317 37.9959 137.851 38.239 137.437C38.482 137.022 38.8184 136.671 39.2214 136.409C39.4844 136.264 39.787 136.208 40.0844 136.248C40.3819 136.289 40.6585 136.424 40.8734 136.633C41.0532 136.814 41.1673 137.051 41.1977 137.304C41.2281 137.558 41.1732 137.814 41.0414 138.033C40.5234 138.816 39.7323 139.377 38.8224 139.608C38.8117 140.171 38.8586 140.734 38.9624 141.288C39.4658 143.55 40.3334 145.716 41.5314 147.7L41.5944 147.805C41.7694 148.113 41.9304 148.421 42.0914 148.736L43.5684 147.959C43.6874 147.892 43.7767 147.783 43.8183 147.653C43.8598 147.523 43.8506 147.382 43.7924 147.259C43.532 146.759 43.4079 146.2 43.4324 145.637C43.457 145.074 43.6295 144.528 43.9324 144.053C45.0577 142.232 45.6814 140.145 45.7404 138.005C45.7994 135.865 45.2916 133.747 44.2684 131.866C42.7684 129.182 40.3172 127.156 37.3979 126.19C34.4786 125.223 31.3031 125.385 28.4974 126.644H28.5184ZM29.6384 142.87C29.6384 142.933 29.6944 142.961 29.8274 142.989C30.2468 142.99 30.6584 142.877 31.0174 142.66L31.2344 142.541H31.2764H31.2274C30.7977 142.353 30.3132 142.333 29.8694 142.485C29.7916 142.514 29.725 142.566 29.6796 142.636C29.6342 142.705 29.6124 142.787 29.6174 142.87H29.6384ZM40.1384 137.564C40.1944 137.438 40.2014 137.382 40.1384 137.326C40.0781 137.265 39.9983 137.226 39.9127 137.217C39.8272 137.208 39.7412 137.23 39.6694 137.277C39.2977 137.559 39.0474 137.972 38.9694 138.432V138.481L39.2074 138.362C39.5908 138.193 39.9167 137.915 40.1454 137.564H40.1384Z" fill="#EBEBEB"/>
<path d="M301.987 135.1C302.715 134.8 303.464 134.552 304.227 134.358C305.034 134.145 305.859 134.012 306.691 133.959C307.586 133.9 308.484 133.93 309.372 134.05C310.369 134.182 311.35 134.417 312.298 134.75C313.582 135.178 314.788 135.812 315.868 136.626C316.817 137.339 317.615 138.233 318.213 139.258C318.776 140.241 319.116 141.335 319.207 142.464C319.298 143.68 319.131 144.901 318.717 146.048C318.372 147.12 317.828 148.117 317.114 148.988C316.509 149.702 315.802 150.323 315.014 150.829C314.292 151.286 313.516 151.653 312.704 151.921L310.471 152.621C309.832 152.827 309.208 153.074 308.602 153.363C308.096 153.599 307.677 153.988 307.405 154.476L305.662 157.759L301.644 156.359L302.582 152.348C302.704 151.641 303.053 150.992 303.576 150.5C304.102 150.034 304.7 149.655 305.347 149.38C306.06 149.081 306.792 148.828 307.538 148.624C308.316 148.412 309.077 148.141 309.813 147.812C310.538 147.499 311.211 147.076 311.808 146.559C312.439 145.993 312.905 145.267 313.159 144.459C313.35 143.952 313.423 143.409 313.375 142.87C313.326 142.33 313.157 141.809 312.879 141.344C312.595 140.869 312.219 140.455 311.773 140.126C311.28 139.753 310.729 139.462 310.142 139.265C309.372 138.98 308.562 138.812 307.741 138.768C307.132 138.746 306.522 138.786 305.921 138.887C305.403 138.978 304.955 139.076 304.584 139.167C304.287 139.255 303.971 139.255 303.674 139.167C303.416 139.096 303.185 138.951 303.01 138.749C302.834 138.547 302.722 138.298 302.687 138.033L301.987 135.1ZM297.696 162.043C297.86 161.562 298.117 161.117 298.452 160.734C298.771 160.368 299.159 160.069 299.593 159.852C300.513 159.417 301.566 159.361 302.526 159.698C303.014 159.863 303.462 160.127 303.842 160.475C304.202 160.804 304.498 161.195 304.717 161.63C304.936 162.067 305.065 162.543 305.095 163.03C305.132 163.538 305.063 164.048 304.892 164.528C304.734 165.003 304.481 165.44 304.149 165.814C303.817 166.189 303.413 166.492 302.96 166.705C302.267 167.019 301.499 167.127 300.746 167.015C299.994 166.903 299.29 166.577 298.718 166.075C298.352 165.756 298.053 165.368 297.836 164.934C297.623 164.497 297.501 164.02 297.479 163.534C297.446 163.016 297.52 162.497 297.696 162.008V162.043Z" fill="#F0F0F0"/>
<path d="M81.7947 238.833C81.5604 239.618 81.2751 240.388 80.9407 241.136C80.5802 241.923 80.1516 242.677 79.6597 243.39C79.1247 244.147 78.5175 244.85 77.8467 245.49C77.0899 246.209 76.262 246.849 75.3757 247.401C74.1963 248.165 72.9008 248.732 71.5397 249.081C70.3438 249.385 69.0995 249.449 67.8787 249.27C66.718 249.088 65.6115 248.653 64.6377 247.996C63.592 247.28 62.7113 246.35 62.0547 245.266C61.4071 244.292 60.951 243.204 60.7107 242.06C60.5228 241.106 60.478 240.129 60.5777 239.162C60.681 238.28 60.8878 237.413 61.1937 236.579C61.5017 235.774 61.7817 235.011 62.0547 234.297C62.3058 233.647 62.5116 232.98 62.6707 232.302C62.8051 231.738 62.7611 231.146 62.5447 230.608L61.0187 227.059L64.7497 224.7L67.3957 228.067C67.8873 228.628 68.1844 229.333 68.2427 230.076C68.2869 230.805 68.2064 231.537 68.0047 232.239C67.7855 233.009 67.5166 233.765 67.1997 234.5C66.8696 235.27 66.5959 236.063 66.3807 236.873C66.1662 237.662 66.0718 238.478 66.1007 239.295C66.1546 240.175 66.4395 241.025 66.9267 241.759C67.209 242.25 67.5987 242.67 68.0666 242.989C68.5345 243.308 69.0686 243.517 69.6287 243.6C70.1995 243.675 70.7794 243.64 71.3367 243.495C71.9591 243.332 72.5519 243.072 73.0937 242.725C73.825 242.291 74.484 241.746 75.0467 241.108C75.4639 240.63 75.8299 240.109 76.1387 239.554C76.4047 239.071 76.6147 238.651 76.7757 238.287C76.8945 237.987 77.096 237.728 77.3567 237.538C77.5844 237.378 77.8534 237.287 78.1314 237.276C78.4095 237.265 78.6849 237.334 78.9247 237.475L81.7947 238.833ZM62.7407 217.833C63.0237 218.279 63.2163 218.776 63.3077 219.296C63.4061 219.79 63.4061 220.3 63.3077 220.794C63.1934 221.296 62.9843 221.771 62.6917 222.194C62.3774 222.642 61.9719 223.019 61.5017 223.3C61.0538 223.588 60.5507 223.778 60.0247 223.86C59.523 223.943 59.01 223.931 58.5127 223.825C57.7428 223.652 57.0426 223.252 56.5023 222.676C55.962 222.101 55.6065 221.377 55.4817 220.598C55.3983 220.098 55.4173 219.586 55.5377 219.093C55.7837 218.075 56.4231 217.197 57.3157 216.65C57.7664 216.359 58.2711 216.161 58.7997 216.069C59.2941 215.977 59.802 215.986 60.2927 216.096C60.7835 216.205 61.2471 216.413 61.6557 216.706C62.0887 217.014 62.4572 217.404 62.7407 217.854V217.833Z" fill="#E0E0E0"/>
<path d="M260.575 261.296C260.192 261.182 259.836 260.992 259.529 260.735C259.222 260.479 258.971 260.162 258.79 259.805L254.408 251.139C254.226 250.795 254.115 250.419 254.08 250.032C254.045 249.644 254.088 249.254 254.206 248.883C254.324 248.513 254.515 248.169 254.767 247.873C255.019 247.577 255.328 247.334 255.675 247.159C256.022 246.983 256.4 246.879 256.788 246.851C257.176 246.824 257.566 246.874 257.934 246.999C258.302 247.124 258.642 247.321 258.933 247.579C259.225 247.837 259.462 248.15 259.63 248.5L262.479 254.1L275.891 244.559C276.524 244.109 277.31 243.929 278.076 244.058C278.842 244.187 279.526 244.616 279.976 245.249C280.426 245.882 280.606 246.668 280.477 247.434C280.348 248.2 279.919 248.883 279.286 249.333L263.095 260.841C262.752 261.087 262.36 261.256 261.945 261.334C261.53 261.413 261.104 261.4 260.694 261.296H260.575Z" fill="#E0E0E0"/>
<path d="M41.174 75.9501C40.7172 76.0373 40.2475 76.03 39.7937 75.9289C39.3398 75.8278 38.9115 75.6349 38.535 75.3621L29.4 68.7261C28.6713 68.1961 28.183 67.3983 28.0425 66.5082C27.9021 65.6182 28.1209 64.7088 28.651 63.9801C29.181 63.2514 29.9788 62.7631 30.8688 62.6227C31.7589 62.4822 32.6683 62.7011 33.397 63.2311L39.319 67.5361L48.146 50.5751C48.5788 49.8057 49.2937 49.2347 50.1397 48.9827C50.9857 48.7306 51.8966 48.8173 52.6799 49.2244C53.4632 49.6315 54.0575 50.3271 54.3374 51.1643C54.6174 52.0015 54.5609 52.9148 54.18 53.7111L43.547 74.2001C43.3188 74.6322 42.9998 75.0098 42.6119 75.3071C42.2241 75.6043 41.7765 75.8141 41.3 75.9221L41.174 75.9501Z" fill="#F0F0F0"/>
<path d="M140.637 145.558C140.915 145.509 141.201 145.551 141.453 145.677C141.705 145.803 141.91 146.007 142.037 146.258C142.24 146.118 142.359 145.852 142.597 145.789C142.835 145.726 143.164 145.957 143.339 146.202C144.007 147.17 144.353 148.325 144.328 149.501C144.303 150.677 143.908 151.815 143.199 152.754C143.117 152.876 143.007 152.977 142.877 153.048C142.721 153.107 142.552 153.124 142.387 153.097C141.508 153.041 140.639 152.881 139.797 152.621C139.365 152.537 138.957 152.354 138.606 152.087C138.255 151.82 137.971 151.476 137.774 151.081C137.628 150.455 137.672 149.799 137.9 149.198C138.071 148.375 138.452 147.611 139.006 146.979C139.433 146.531 140.077 145.684 140.637 145.558Z" fill="#F28F8F"/>
<path d="M163.646 86.9189C155.981 88.2559 152.824 87.9619 145.649 96.3759C137.515 105.917 132.629 111.468 131.18 113.876C128.38 118.517 128.674 120.211 134.82 128.8C139.72 135.597 142.009 137.396 143.458 140.364C144.354 142.212 142.849 143.976 142.436 144.991C141.778 146.58 142.436 148.351 141.904 151.417C140.821 150.86 139.671 150.446 138.481 150.185C138.481 150.185 140.903 147.777 139.881 146.097C139.846 146.04 139.8 145.99 139.746 145.952C139.691 145.913 139.629 145.885 139.564 145.871C139.499 145.856 139.431 145.855 139.365 145.868C139.3 145.88 139.237 145.906 139.181 145.943C138.614 146.349 137.725 147.28 136.682 148.218C134.855 149.856 135.282 150.241 136.038 153.181C136.332 154.357 137.228 154.721 140.714 155.54C144.2 156.359 145.271 155.939 149.716 152.46C154.161 148.981 153.916 139.594 152.761 135.625C151.396 130.956 145.67 119.658 145.67 119.658L157.654 104.895L163.646 86.9189Z" fill="#FFA8A7"/>
<path d="M145.684 119.644C144.574 120.414 143.32 120.953 141.998 121.229C140.675 121.506 139.31 121.514 137.984 121.254C140.938 122.955 144.865 122.248 146.3 120.967L145.684 119.644Z" fill="#F28F8F"/>
<path d="M210.7 253.141L190.533 253.953C193.459 266.833 196.791 275.373 197.533 282.03C197.764 283.703 200.592 300.93 201.509 304.689C202.426 308.448 211.778 308.483 212.331 301.994C212.702 297.668 211.666 282.135 211.477 280.07C210.7 271.124 211.029 264.803 210.7 253.141Z" fill="#FFA8A7"/>
<path d="M148.638 251.3C148.82 261.1 149.072 267.743 149.072 271.516C149.072 275.289 147.882 278.978 145.929 280.812C141.841 284.641 138.355 288.288 133.231 291.634C133.973 293.342 140.133 293.279 143.185 291.977C147.147 290.18 150.953 288.062 154.567 285.642C158.767 282.919 164.157 280.742 164.227 276.598C164.227 276.08 166.894 275.352 165.886 270.487C165.886 270.487 167.286 261.926 168.728 250.593L148.638 251.3Z" fill="#FFA8A7"/>
<path d="M126.918 294.364C126.666 294.364 126.253 297.164 127.618 298.382C129.2 299.782 133.848 302.099 140.029 301.357C146.21 300.615 149.584 298.739 152.076 296.688C154.568 294.637 158.061 291.739 160.868 291.144C163.465 290.598 166.3 289.45 167.133 288.652C167.966 287.854 167.896 284.263 167.896 284.263L126.918 294.364Z" fill="#263238"/>
<path d="M165.9 270.438C165.9 270.438 166.362 270.438 166.516 271.292C166.698 272.279 166.873 275.156 167.258 276.78C167.804 279.041 168.133 283.668 167.776 285.502C167.419 287.336 163.17 288.561 160.454 289.569C157.738 290.577 154.469 292.74 151.634 295.036C148.799 297.332 142.576 299.761 138.551 299.775C132.405 299.775 128.443 298.081 127.239 295.848C126.623 294.707 126.434 293.517 127.239 292.432C128.275 291.074 129.913 290.206 131.341 289.324C133.945 287.721 136.507 286.062 138.985 284.291C140.255 283.411 141.477 282.465 142.646 281.456C143.835 280.475 144.912 279.367 145.859 278.152C146.646 276.897 147.218 275.52 147.553 274.078C147.615 273.773 147.739 273.485 147.917 273.231C148.141 272.998 148.42 272.827 148.729 272.734C150.291 272.255 151.942 272.148 153.552 272.419C155.258 272.579 156.884 273.212 158.249 274.246C158.483 274.48 158.661 274.762 158.771 275.074C158.881 275.385 158.921 275.717 158.886 276.045C158.943 276.813 158.893 277.586 158.739 278.341C158.69 278.565 158.69 278.88 158.914 278.936C159.138 278.992 159.229 278.831 159.327 278.691C160.685 276.857 161.35 274.435 163.247 273.042C163.828 272.615 164.703 272.461 165.2 271.971C165.581 271.541 165.825 271.007 165.9 270.438Z" fill="#37474F"/>
<path d="M134.211 287.546C143.703 287.546 146.65 294.273 146.986 297.696C144.886 298.928 140.385 299.796 138.544 299.796C132.398 299.796 128.184 298.102 126.98 295.869C125.573 293.237 126.938 290.248 134.211 287.546Z" fill="#FAFAFA"/>
<path d="M146.518 288.071C146.625 288.059 146.726 288.012 146.805 287.938C146.848 287.895 146.883 287.844 146.907 287.787C146.93 287.731 146.942 287.67 146.942 287.609C146.942 287.548 146.93 287.487 146.907 287.431C146.883 287.374 146.848 287.323 146.805 287.28C145.314 285.782 141.24 284.004 137.768 284.711C137.707 284.722 137.65 284.745 137.598 284.778C137.546 284.812 137.502 284.855 137.468 284.906C137.433 284.957 137.409 285.014 137.397 285.074C137.385 285.135 137.385 285.197 137.397 285.257C137.409 285.318 137.434 285.376 137.469 285.427C137.504 285.478 137.549 285.522 137.601 285.556C137.653 285.59 137.711 285.613 137.772 285.624C137.833 285.635 137.896 285.634 137.957 285.621C141.198 284.977 144.957 286.748 146.133 287.931C146.183 287.981 146.243 288.02 146.31 288.044C146.376 288.068 146.447 288.077 146.518 288.071Z" fill="#F0F0F0"/>
<path d="M150.185 285.264C150.293 285.252 150.393 285.205 150.472 285.131C150.516 285.09 150.551 285.04 150.575 284.984C150.599 284.929 150.612 284.869 150.612 284.809C150.612 284.749 150.599 284.689 150.575 284.633C150.551 284.578 150.516 284.528 150.472 284.487C148.96 283.087 144.837 281.372 141.337 282.1C141.277 282.109 141.22 282.13 141.168 282.163C141.117 282.195 141.072 282.237 141.038 282.287C141.003 282.336 140.979 282.393 140.966 282.452C140.954 282.511 140.954 282.573 140.966 282.632C140.994 282.752 141.069 282.857 141.174 282.922C141.279 282.988 141.405 283.009 141.526 282.982C142.979 282.768 144.46 282.848 145.881 283.217C147.302 283.586 148.635 284.237 149.8 285.131C149.85 285.181 149.911 285.218 149.977 285.241C150.044 285.264 150.115 285.272 150.185 285.264Z" fill="#F0F0F0"/>
<path d="M153.44 282.8C153.549 282.792 153.651 282.745 153.727 282.667C153.82 282.574 153.871 282.448 153.871 282.317C153.871 282.186 153.82 282.06 153.727 281.967C152.271 280.392 148.274 278.467 144.886 279.167C144.764 279.194 144.658 279.267 144.59 279.372C144.521 279.477 144.497 279.604 144.522 279.727C144.532 279.789 144.553 279.848 144.586 279.901C144.619 279.954 144.662 280 144.713 280.036C144.764 280.072 144.822 280.097 144.883 280.11C144.944 280.123 145.007 280.124 145.068 280.112C148.239 279.482 151.907 281.379 153.062 282.618C153.105 282.677 153.162 282.725 153.228 282.757C153.294 282.788 153.367 282.803 153.44 282.8Z" fill="#F0F0F0"/>
<path d="M156.177 279.706C156.281 279.702 156.38 279.662 156.457 279.594C156.548 279.512 156.602 279.398 156.609 279.276C156.616 279.154 156.574 279.034 156.492 278.943C154.574 276.78 150.444 275.52 147.084 276.094C147.025 276.104 146.968 276.125 146.917 276.156C146.866 276.188 146.822 276.229 146.786 276.278C146.751 276.327 146.726 276.382 146.712 276.44C146.699 276.499 146.696 276.56 146.706 276.619C146.716 276.678 146.737 276.735 146.769 276.786C146.8 276.837 146.842 276.881 146.89 276.917C146.939 276.952 146.994 276.977 147.053 276.991C147.111 277.004 147.172 277.006 147.231 276.997C150.262 276.486 154.105 277.641 155.813 279.559C155.858 279.61 155.915 279.65 155.978 279.675C156.041 279.701 156.109 279.711 156.177 279.706Z" fill="#F0F0F0"/>
<path d="M198.59 307.65C198.716 311.675 199.395 313.999 200.928 316.197C202.461 318.395 205.569 319.2 208.467 318.535C211.365 317.87 214.515 315.896 215.824 312.816C217.224 309.463 217.056 307.146 216.377 303.66L198.59 307.65Z" fill="#263238"/>
<path d="M197.316 280.525C197.554 281.771 198.464 284.816 198.59 285.271C198.625 285.369 198.66 285.488 198.758 285.523C198.814 285.536 198.873 285.529 198.924 285.503C198.975 285.478 199.015 285.435 199.038 285.383C199.156 284.732 199.182 284.067 199.115 283.409C199.105 282.974 199.186 282.543 199.353 282.142C199.537 281.851 199.776 281.599 200.057 281.4C200.338 281.202 200.656 281.062 200.991 280.987C203.718 280.183 206.594 280.027 209.391 280.532C209.536 280.546 209.676 280.589 209.804 280.658C209.94 280.78 210.047 280.93 210.117 281.098C210.188 281.267 210.219 281.449 210.21 281.631C210.28 282.366 210.343 283.101 210.406 283.843C210.406 284.004 210.49 284.221 210.651 284.214C210.812 284.207 210.826 284.123 210.882 284.046C211.24 283.498 211.414 282.851 211.379 282.198C211.428 281.365 211.449 280.532 211.428 279.699C211.428 279.377 211.428 279.048 211.386 278.726C212.583 278.803 212.086 283.045 213.199 289.499C214.137 294.882 215.544 298.144 216.237 302.582C217.028 307.65 216.09 309.925 214.088 313.012C212.086 316.099 204.946 319.151 201.39 314.783C198.485 311.22 198.338 307.251 198.59 302.183C198.821 296.947 197.834 292.558 197.561 288.582C197.26 284.781 196.28 280.952 197.316 280.525Z" fill="#37474F"/>
<path d="M216.566 305.522C216.797 308.672 215.957 310.583 214.389 312.998C212.387 316.078 204.673 319.41 201.089 315.035C199.318 312.865 198.828 310.282 198.569 307.643C200.683 304.241 213.213 302.659 216.566 305.522Z" fill="#FAFAFA"/>
<path d="M201.034 301.497C201.082 301.506 201.132 301.506 201.181 301.497C201.23 301.497 206.781 299.397 212.129 300.482C212.238 300.509 212.354 300.493 212.452 300.439C212.551 300.384 212.625 300.295 212.661 300.188C212.671 300.135 212.67 300.081 212.658 300.029C212.646 299.977 212.624 299.927 212.593 299.884C212.561 299.841 212.521 299.804 212.475 299.777C212.429 299.75 212.378 299.732 212.325 299.726C206.627 298.606 201.006 300.706 200.796 300.797C200.746 300.814 200.7 300.842 200.661 300.878C200.623 300.915 200.593 300.959 200.574 301.009C200.555 301.058 200.546 301.111 200.55 301.164C200.553 301.217 200.568 301.268 200.593 301.315C200.642 301.384 200.709 301.437 200.787 301.469C200.865 301.502 200.951 301.511 201.034 301.497Z" fill="#F0F0F0"/>
<path d="M211.834 296.667C211.916 296.663 211.995 296.635 212.062 296.588C212.129 296.541 212.181 296.476 212.212 296.401C212.228 296.35 212.233 296.297 212.228 296.244C212.222 296.192 212.206 296.141 212.179 296.095C212.153 296.049 212.117 296.009 212.075 295.977C212.032 295.945 211.984 295.923 211.932 295.911C206.563 294.357 200.634 296.793 200.417 296.898C200.368 296.917 200.323 296.946 200.287 296.985C200.25 297.023 200.222 297.068 200.205 297.118C200.187 297.168 200.181 297.221 200.186 297.274C200.192 297.326 200.208 297.377 200.235 297.423C200.3 297.515 200.395 297.581 200.504 297.611C200.612 297.64 200.728 297.631 200.83 297.584C200.879 297.584 206.654 295.197 211.645 296.653C211.707 296.668 211.771 296.673 211.834 296.667Z" fill="#F0F0F0"/>
<path d="M211.624 293.104C211.703 293.098 211.78 293.071 211.845 293.025C211.911 292.98 211.962 292.917 211.995 292.845C212.012 292.794 212.018 292.741 212.014 292.688C212.009 292.635 211.993 292.583 211.968 292.536C211.942 292.49 211.907 292.449 211.865 292.416C211.822 292.384 211.774 292.36 211.722 292.348C205.8 290.535 200.2 293.188 199.99 293.3C199.943 293.322 199.901 293.354 199.867 293.395C199.833 293.435 199.808 293.482 199.794 293.532C199.78 293.583 199.778 293.635 199.786 293.687C199.794 293.739 199.814 293.788 199.843 293.832C199.913 293.921 200.013 293.983 200.124 294.006C200.236 294.029 200.352 294.012 200.452 293.958C200.501 293.958 205.933 291.389 211.428 293.076C211.491 293.099 211.557 293.108 211.624 293.104Z" fill="#F0F0F0"/>
<path d="M211.176 288.687C211.254 288.682 211.329 288.656 211.393 288.612C211.457 288.567 211.508 288.506 211.54 288.435C211.561 288.386 211.57 288.332 211.568 288.279C211.566 288.225 211.552 288.173 211.527 288.126C211.503 288.078 211.468 288.037 211.425 288.004C211.383 287.972 211.333 287.949 211.281 287.938C205.751 286.153 199.696 288.883 199.472 289.002C199.423 289.022 199.378 289.053 199.342 289.092C199.306 289.132 199.28 289.178 199.264 289.229C199.249 289.28 199.245 289.334 199.253 289.387C199.261 289.44 199.281 289.49 199.311 289.534C199.377 289.626 199.476 289.691 199.587 289.716C199.698 289.74 199.814 289.723 199.913 289.667C199.969 289.667 205.835 287.014 210.973 288.666C211.039 288.687 211.108 288.694 211.176 288.687Z" fill="#EBEBEB"/>
<path d="M199.101 129.766C201.565 134.106 204.134 138.299 206.101 147.084C207.893 155.127 207.914 161.917 207.809 175.784C207.606 201.397 207.809 205.513 207.886 208.6C207.963 211.687 208.649 214.319 210.231 229.53C211.813 244.741 211.057 263.522 211.057 263.522C208.057 265.255 204.71 266.302 201.257 266.588C195.895 267.071 192.857 265.692 192.857 265.692C192.857 265.692 183.855 235.242 181.818 226.086C179.781 216.93 175.518 191.66 175.518 191.66L173.138 212.331C173.138 212.331 173.67 220.5 172.039 233.8C170.408 247.1 167.517 260.799 167.517 260.799C167.517 260.799 165.697 262.857 158.452 262.626C150.899 262.381 148.337 260.26 148.337 260.26C148.337 260.26 145.537 218.169 145.537 203.049C145.537 187.929 147.238 149.807 150.598 129.864L199.101 129.766Z" fill="#455A64"/>
<path d="M155.029 151.97C157.304 158.214 165.599 162.582 169.246 163.457L173.327 190.659L173.138 212.359L175.518 191.688L170.751 158.585C170.751 158.585 160.643 157.843 155.029 151.97ZM189.609 148.925C190.204 151.375 190.743 153.825 191.324 156.31C191.905 158.795 192.451 161.252 193.067 163.737C193.093 161.177 192.922 158.619 192.556 156.086C192.227 153.552 191.751 151.046 191.156 148.554C190.577 146.063 189.857 143.606 189 141.197C188.157 138.772 187.056 136.444 185.717 134.253C186.487 136.703 187.159 139.153 187.817 141.575C188.475 143.997 189.042 146.461 189.609 148.925ZM193.9 144.2C194.719 145.677 195.503 147.175 196.287 148.673L198.618 153.258C198.445 151.52 198.05 149.812 197.442 148.176C196.87 146.54 196.168 144.953 195.342 143.43C194.511 141.911 193.575 140.451 192.542 139.062C191.516 137.661 190.358 136.363 189.084 135.184C189.84 136.752 190.666 138.25 191.492 139.741C192.318 141.232 193.109 142.709 193.9 144.2ZM190.099 213.234C188.643 205.401 187.6 197.484 186.599 189.56C185.598 181.636 184.611 173.698 183.505 165.76C183.988 173.747 184.562 181.727 185.353 189.686C186.144 197.645 187.096 205.611 188.538 213.486C189.98 221.361 191.625 229.18 193.27 237.013C194.915 244.846 196.616 252.651 198.443 260.442C197.23 252.536 195.916 244.645 194.502 236.768C193.095 228.942 191.604 221.06 190.106 213.234H190.099ZM153.699 186.634L155.008 165.781C153.93 172.669 153.097 179.592 152.453 186.536C151.809 193.48 151.235 200.41 151.207 207.459C151.445 214.459 151.977 221.396 152.551 228.354C153.125 235.312 153.811 242.228 154.651 249.151C154.46 242.183 154.184 235.223 153.825 228.27L153.3 217.84C153.125 214.34 152.915 210.875 152.838 207.431C152.761 203.987 152.992 200.515 153.146 197.05C153.3 193.585 153.531 190.099 153.72 186.627L153.699 186.634Z" fill="#37474F"/>
<path d="M194.055 50.2249C198.626 53.1299 198.507 57.2249 198.528 67.1299C198.549 77.0349 197.926 104.097 197.926 104.097L164.977 103.908V73.7309L162.667 62.6779C162.667 62.6779 159.412 58.0649 159.867 53.3399C160.322 48.6149 163.157 42.4759 171.683 40.7399C178.76 39.2489 192.333 40.8309 194.055 50.2249Z" fill="#263238"/>
<path d="M199.101 129.766C201.131 126.966 198.457 125.118 199.346 120.498C200.487 114.569 200.928 111.86 201.355 109.025C202.818 99.225 201.355 94.325 199.255 89.6C199.255 89.6 188.335 86.618 186.067 86.1C182.247 85.1351 178.282 84.8812 174.37 85.351C173.306 85.456 163.688 86.947 163.681 86.947C163.674 86.947 154.546 93.198 151.291 99.008C148.806 103.446 146.475 110.04 150.85 117.831C151.172 124.831 148.596 127.134 150.528 130.382C155.071 136.164 184.191 141.722 199.101 129.766Z" fill="#37474F"/>
<path d="M189.792 75.5369C190.673 75.7145 191.585 75.6657 192.442 75.3952C193.298 75.1246 194.073 74.6411 194.692 73.9899C197.359 71.3649 197.751 68.5649 196.687 66.6259C195.812 65.0299 193.502 63.9099 191.787 64.8619C189.939 65.8699 189.834 66.7799 189.092 67.9979C188.35 69.2159 186.677 68.1379 187.545 63.0979C184.696 62.5799 179.439 59.8079 177.556 56.9379C175.393 53.6409 174.707 51.9469 173.097 50.5259C170.759 48.4679 167.434 48.7409 166.146 49.6229C164.403 51.6039 162.576 53.6409 161.883 62.2229C160.532 71.3229 161.799 77.2169 163.801 79.2749C165.201 80.6749 168.323 82.1939 171.55 82.1869L171.382 86.3449C171.382 86.3449 161.295 94.8849 173.209 94.6819C175.877 94.5948 178.496 93.9375 180.889 92.7543C183.282 91.5711 185.394 89.8892 187.083 87.8219L187.944 73.9339C187.944 73.9339 188.035 75.1029 189.792 75.5369Z" fill="#FFA8A7"/>
<path d="M174.895 64.0919C174.978 64.3765 175.142 64.6306 175.368 64.8225C175.594 65.0144 175.871 65.1358 176.165 65.1714C176.46 65.2071 176.758 65.1556 177.023 65.0232C177.288 64.8908 177.508 64.6835 177.657 64.4269C177.805 64.1703 177.875 63.8758 177.857 63.58C177.839 63.2842 177.735 63.0001 177.557 62.7631C177.379 62.526 177.136 62.3465 176.856 62.2467C176.577 62.1469 176.275 62.1314 175.987 62.2019C175.593 62.3086 175.256 62.5673 175.051 62.9215C174.847 63.2757 174.791 63.6965 174.895 64.0919Z" fill="#263238"/>
<path d="M168.281 55.2578L164.83 56.3638C164.891 56.5923 164.997 56.8059 165.144 56.9917C165.29 57.1775 165.472 57.3314 165.68 57.4442C165.888 57.5569 166.116 57.626 166.352 57.6473C166.587 57.6685 166.824 57.6415 167.049 57.5678C167.512 57.4148 167.898 57.0895 168.127 56.6594C168.357 56.2293 168.412 55.7274 168.281 55.2578Z" fill="#263238"/>
<path d="M166.755 63.0839C166.627 63.3509 166.422 63.5743 166.168 63.7263C165.913 63.8782 165.62 63.952 165.324 63.9384C165.028 63.9249 164.742 63.8246 164.503 63.6501C164.263 63.4756 164.08 63.2345 163.976 62.9568C163.873 62.6791 163.853 62.3771 163.92 62.0883C163.986 61.7994 164.136 61.5366 164.351 61.3323C164.566 61.1281 164.836 60.9915 165.128 60.9395C165.419 60.8875 165.72 60.9224 165.992 61.0399C166.364 61.2106 166.652 61.5215 166.795 61.9045C166.938 62.2875 166.924 62.7115 166.755 63.0839Z" fill="#263238"/>
<path d="M175.624 57.5468L178.921 59.5838C179.065 59.3761 179.164 59.1412 179.214 58.8936C179.264 58.6459 179.262 58.3907 179.21 58.1436C179.158 57.8965 179.055 57.6628 178.909 57.4566C178.763 57.2505 178.577 57.0763 178.361 56.9448C177.914 56.6759 177.382 56.5884 176.873 56.7004C176.363 56.8124 175.917 57.1153 175.624 57.5468Z" fill="#263238"/>
<path d="M159.503 59.241C159.507 59.7423 159.663 60.2304 159.951 60.641C160.056 60.7934 160.123 60.9686 160.147 61.152C160.252 62.111 160.203 63.91 160.532 64.946C160.861 65.982 161.617 67.655 164.375 67.942C164.859 67.9979 165.347 67.9979 165.831 67.942H165.943C166.366 67.8928 166.779 67.7795 167.168 67.606H167.245L167.357 67.557L167.49 67.48L167.616 67.41L167.763 67.319L167.896 67.228L168.155 67.032C168.603 66.6492 168.988 66.198 169.296 65.695C170.087 64.449 170.192 62.615 171.221 62.489H171.501C172.866 62.622 172.432 64.589 172.992 66.066C173.552 67.543 174.609 69.034 177.563 69.321H177.941H178.249C178.508 69.321 178.753 69.321 178.949 69.321L179.201 69.3H179.418H179.565C179.856 69.2308 180.14 69.1323 180.412 69.006L180.706 68.859C180.888 68.757 181.061 68.64 181.224 68.509C181.65 68.1362 182.01 67.6936 182.288 67.2C182.883 66.262 183.261 64.491 183.618 63.581C183.689 63.3914 183.793 63.216 183.926 63.063C184.338 62.7258 184.642 62.2757 184.801 61.768C184.854 61.5181 184.817 61.2574 184.697 61.0321C184.576 60.8067 184.38 60.631 184.143 60.536C183.919 60.48 183.681 60.431 183.443 60.382C181.154 59.92 178.13 59.549 176.24 59.864C173.874 60.263 172.985 60.893 171.718 60.767C170.451 60.641 169.863 59.857 167.798 59.01C166.146 58.31 163.304 58.114 161.106 58.114H160.406C160.151 58.1736 159.923 58.317 159.76 58.5214C159.596 58.7258 159.505 58.9792 159.503 59.241ZM174.301 61.845C174.499 61.6468 174.738 61.494 175.001 61.397L175.127 61.341H175.19L175.533 61.222L175.848 61.131C176.182 61.0435 176.521 60.9734 176.863 60.921L177.262 60.872C177.604 60.8313 177.947 60.8079 178.291 60.802H178.522C180.748 60.802 182.022 61.425 182.484 61.894C182.946 62.363 182.428 64.281 182.078 65.24C182.082 65.2632 182.082 65.2868 182.078 65.31V65.387C182.036 65.506 181.987 65.632 181.924 65.772L181.819 66.01C181.758 66.1442 181.69 66.275 181.616 66.402L181.532 66.542L181.483 66.619L181.427 66.71L181.35 66.822C181.321 66.8647 181.288 66.9046 181.252 66.941C181.223 66.9899 181.188 67.0346 181.147 67.074L181.035 67.207C180.619 67.6408 180.105 67.9683 179.536 68.162C178.967 68.3556 178.36 68.4098 177.766 68.32C177.181 68.3124 176.604 68.1799 176.074 67.9312C175.544 67.6825 175.073 67.3234 174.693 66.878C174.242 66.265 173.972 65.5372 173.916 64.778C173.776 63.7 173.797 62.405 174.301 61.845ZM161.526 59.745C161.705 59.6242 161.901 59.5299 162.107 59.465H162.156L162.401 59.402H162.555H162.681H162.765H162.891C163.052 59.402 163.227 59.402 163.409 59.402H163.983H164.333H164.459H164.578C164.893 59.444 165.222 59.5 165.579 59.577C167.112 59.927 168.652 60.746 168.988 61.397C169.324 62.048 169.051 63.301 168.694 64.372C168.613 64.6131 168.512 64.8472 168.393 65.072C168.393 65.072 168.393 65.107 168.393 65.128L168.351 65.198C168.355 65.2141 168.355 65.2309 168.351 65.247C168.337 65.2765 168.321 65.3046 168.302 65.331C168.269 65.3919 168.231 65.4504 168.19 65.506C168.19 65.555 168.127 65.604 168.092 65.653L168.05 65.702L167.973 65.8L167.896 65.884C167.465 66.356 166.92 66.709 166.313 66.9088C165.706 67.1087 165.058 67.1487 164.431 67.025C163.871 66.9714 163.329 66.7971 162.842 66.514C161.393 65.632 161.232 63.945 161.155 63.161C161.043 62.09 161.001 60.13 161.54 59.745H161.526Z" fill="#455A64"/>
<path d="M166.601 67.9629L171.501 70.4269L172.628 64.4349C172.495 63.4619 172.383 62.6079 171.557 62.4819L166.601 67.9629Z" fill="#F28F8F"/>
<path d="M175.001 72.5129C174.512 73.1346 173.841 73.5895 173.083 73.8149C172.219 74.0084 171.329 74.0487 170.451 73.9339C170.318 73.9339 170.276 73.5629 170.451 73.5559C171.292 73.5393 172.125 73.3832 172.915 73.0939C173.591 72.8712 174.197 72.4754 174.672 71.9459C174.952 71.5749 175.204 72.2609 175.001 72.5129Z" fill="#B16668"/>
<path d="M184.213 60.7109L191.752 64.8619C191.307 65.1175 190.887 65.4152 190.499 65.7509L183.926 62.2999L184.213 60.7109Z" fill="#455A64"/>
<path d="M171.501 82.236C176.156 82.327 182.274 81.095 184.101 78.197C182.988 81.368 179.642 82.943 176.975 83.44C175.144 83.7966 173.283 83.9795 171.417 83.986L171.501 82.236Z" fill="#F28F8F"/>
<path d="M199.22 89.5999C205.52 90.6499 207.62 92.6029 210.259 99.4419C212.786 106.043 218.617 120.918 216.888 130.9C215.838 136.99 200.466 121.688 200.466 121.688L193.109 104.727C193.109 104.727 194.306 94.0379 199.22 89.5999Z" fill="#F28F8F"/>
<path d="M197.463 97.9996C196.112 96.0886 194.712 94.1286 194.005 91.2796C193.298 88.4306 191.051 85.8056 190.281 84.7276C189.511 83.6496 187.866 82.0606 186.606 80.5276C185.346 78.9946 184.982 78.5886 183.169 78.2806C180.677 77.8606 178.724 77.4686 177.751 77.7696C176.778 78.0706 176.806 78.7006 177.653 79.5616C178.5 80.4226 180.278 80.6326 180.838 80.8076C181.398 80.9826 182.602 81.5076 182.602 81.5076L184.905 84.9026C184.905 84.9026 180.999 85.6026 180.229 86.0366C179.459 86.4706 178.829 88.4376 179.151 89.5366C179.151 89.5366 177.716 90.5096 178.276 91.9166C178.276 91.9166 177.401 93.0576 178.003 94.0166C178.677 94.9635 179.456 95.8302 180.327 96.5996C180.803 97.0126 182.686 97.1106 182.686 97.1106C183.513 98.3767 184.504 99.5278 185.633 100.534C186.97 101.528 187.852 101.465 189.322 103.544L197.463 97.9996Z" fill="#FFA8A7"/>
<path d="M183.148 85.2387C182.224 84.8397 182.021 84.2097 181.146 84.5387C180.271 84.8677 180.607 85.8687 180.607 85.8687L183.148 85.2387Z" fill="#F28F8F"/>
<path d="M179.2 89.5997C179.779 89.108 180.419 88.6938 181.104 88.3677C181.741 88.0597 183.078 87.5837 183.078 87.5837C182.147 87.6677 181.232 87.8846 180.362 88.2277C179.917 88.3984 179.49 88.6142 179.088 88.8717C179.084 89.0876 179.115 89.3026 179.179 89.5087L179.2 89.5997Z" fill="#B16668"/>
<path d="M179.053 90.9225C178.742 91.0492 178.44 91.1989 178.15 91.3705C178.173 91.5865 178.225 91.7983 178.304 92.0005C178.815 91.3005 180.761 90.4675 180.761 90.4675C180.177 90.5536 179.604 90.7062 179.053 90.9225Z" fill="#B16668"/>
<path d="M183.037 97.5799C182.497 96.4979 181.858 95.469 181.126 94.5069C180.89 94.2418 180.562 94.0762 180.208 94.0437C179.855 94.0112 179.502 94.1142 179.222 94.3319C178.977 94.7029 180.244 94.6539 180.622 94.8149C181.56 95.6109 182.374 96.5429 183.037 97.5799Z" fill="#B16668"/>
<path d="M185.977 84.7837C185.977 84.7837 185.277 83.7757 183.982 82.1727C182.687 80.5697 182.778 80.7727 181.539 80.5487C180.3 80.3247 177.941 79.8907 177.297 79.1487C177.405 79.2951 177.525 79.4331 177.654 79.5617C178.473 80.4017 180.279 80.6327 180.839 80.8077C181.399 80.9827 182.603 81.5077 182.603 81.5077L184.976 85.0077L185.977 84.7837Z" fill="#F28F8F"/>
<path d="M197.463 97.9998C201.663 103.04 212.898 115.157 215.502 119.98C217.308 123.312 217.756 131.068 215.922 133.889C214.088 136.71 208.831 135.52 204.575 131.789C200.9 128.569 197.841 120.806 195.174 115.29C192.507 109.774 189.322 103.537 189.322 103.537L197.463 97.9998Z" fill="#FFA8A7"/>
<path d="M194.985 93.9048C194.647 93.1835 194.373 92.434 194.166 91.6648C193.986 90.8859 193.731 90.1263 193.403 89.3968C192.703 87.9578 191.849 86.5989 190.855 85.3438C189.911 84.0594 188.877 82.8431 187.761 81.7038C187.222 81.1158 186.718 80.5068 186.207 79.8978C185.724 79.2357 185.057 78.7295 184.289 78.4418C183.516 78.2339 182.73 78.0727 181.937 77.9588C181.153 77.8258 180.362 77.6928 179.564 77.6018C179.165 77.5541 178.762 77.5377 178.36 77.5528C177.935 77.5553 177.52 77.6871 177.17 77.9308C177.078 78.0044 177.006 78.1001 176.961 78.2091C176.916 78.318 176.899 78.4366 176.911 78.5538C176.947 78.7715 177.033 78.9778 177.163 79.1558C177.396 79.4979 177.696 79.7886 178.045 80.0098C178.761 80.3962 179.534 80.6656 180.334 80.8078C181.088 80.999 181.822 81.2615 182.525 81.5918L184.716 84.8118C183.348 85.0563 181.993 85.3694 180.656 85.7498C180.478 85.8071 180.304 85.8797 180.138 85.9668C179.978 86.0764 179.838 86.2139 179.725 86.3728C179.514 86.677 179.347 87.0092 179.228 87.3598C178.979 88.0306 178.918 88.757 179.053 89.4598C178.688 89.7323 178.399 90.0938 178.213 90.5098C178.036 90.9428 178.036 91.4279 178.213 91.8608C177.999 92.1337 177.855 92.4556 177.795 92.7976C177.735 93.1397 177.761 93.4912 177.87 93.8208C178.227 94.4081 178.652 94.9509 179.137 95.4378C179.371 95.6898 179.604 95.9231 179.837 96.1378C180.066 96.402 180.351 96.6123 180.67 96.7538C181.32 96.941 181.99 97.0492 182.665 97.0758C183.099 97.7128 183.568 98.3288 184.065 98.9168C184.556 99.5255 185.12 100.071 185.745 100.541C186.382 101.003 187.145 101.297 187.74 101.759C188.361 102.232 188.902 102.802 189.343 103.446C188.91 102.794 188.376 102.215 187.761 101.731C187.138 101.262 186.41 100.954 185.787 100.492C185.162 100.036 184.595 99.505 184.1 98.9098C183.61 98.3078 183.148 97.6778 182.7 97.0338C182.029 97.0058 181.364 96.8953 180.719 96.7048C180.418 96.5689 180.15 96.3681 179.935 96.1168C179.697 95.8788 179.459 95.6408 179.235 95.4168C178.77 94.9347 178.357 94.4044 178.003 93.8348C177.904 93.5244 177.886 93.1939 177.95 92.8744C178.013 92.5548 178.157 92.2567 178.367 92.0078V91.9658V91.9238C178.287 91.7212 178.247 91.5049 178.248 91.2868C178.25 91.07 178.295 90.8557 178.381 90.6568C178.553 90.2365 178.836 89.871 179.2 89.5998L179.249 89.5578V89.4948C179.101 88.7927 179.162 88.0627 179.424 87.3948C179.669 86.7438 180.005 86.0438 180.733 85.9108C182.133 85.5048 183.533 85.2108 184.933 84.9658H185.101L185.003 84.8258L182.7 81.4238H182.665C181.94 81.0761 181.183 80.7995 180.404 80.5978C179.629 80.4694 178.88 80.2165 178.185 79.8488C177.861 79.6477 177.582 79.3806 177.366 79.0648C177.149 78.7568 177.037 78.3648 177.331 78.1478C177.926 77.7068 178.794 77.7978 179.557 77.8608C180.32 77.9238 181.132 78.0778 181.916 78.2038C182.7 78.3099 183.476 78.4642 184.24 78.6658C184.979 78.9405 185.619 79.4276 186.081 80.0658C186.592 80.6678 187.11 81.2838 187.649 81.8648C188.767 82.9982 189.806 84.2075 190.757 85.4838C191.745 86.728 192.599 88.0724 193.305 89.4948C193.637 90.2173 193.9 90.9697 194.089 91.7418C194.31 92.509 194.596 93.256 194.943 93.9748C195.662 95.3984 196.51 96.7528 197.477 98.0208C196.521 96.7289 195.687 95.351 194.985 93.9048Z" fill="#B16668"/>
<path d="M104.999 29.0921C106.266 25.3051 110.809 23.7861 113.903 25.0811C115.303 25.6761 117.228 27.1111 117.207 29.3301C121.897 23.6671 134.798 29.015 130.99 37.219C137.444 36.393 142.029 47.425 134.056 50.302C141.462 53.872 138.2 66.402 128.792 64.645C129.919 67.368 127.959 69.7621 125.796 70.6791C123.339 71.715 120.035 71.3791 119.09 69.7621C117.158 76.6781 107.834 77.952 103.585 72.17C100.785 75.719 93.8904 75.593 93.4424 70.371C88.7804 74.69 77.5734 70.301 80.4084 62.818C72.9954 63.98 70.8814 53.823 76.6494 51.8C74.9152 51.2685 73.4624 50.0711 72.6096 48.4703C71.7567 46.8695 71.5732 44.9959 72.0994 43.26C72.8414 40.642 75.9984 36.491 79.9324 37.863C78.2944 32.893 84.6434 28.9871 88.3324 32.6901C88.5214 24.836 100.953 21.5531 104.999 29.0921Z" fill="#FFA31A"/>
<path opacity="0.8" d="M104.999 29.0921C106.266 25.3051 110.809 23.7861 113.903 25.0811C115.303 25.6761 117.228 27.1111 117.207 29.3301C121.897 23.6671 134.798 29.015 130.99 37.219C137.444 36.393 142.029 47.425 134.056 50.302C141.462 53.872 138.2 66.402 128.792 64.645C129.919 67.368 127.959 69.7621 125.796 70.6791C123.339 71.715 120.035 71.3791 119.09 69.7621C117.158 76.6781 107.834 77.952 103.585 72.17C100.785 75.719 93.8904 75.593 93.4424 70.371C88.7804 74.69 77.5734 70.301 80.4084 62.818C72.9954 63.98 70.8814 53.823 76.6494 51.8C74.9152 51.2685 73.4624 50.0711 72.6096 48.4703C71.7567 46.8695 71.5732 44.9959 72.0994 43.26C72.8414 40.642 75.9984 36.491 79.9324 37.863C78.2944 32.893 84.6434 28.9871 88.3324 32.6901C88.5214 24.836 100.953 21.5531 104.999 29.0921Z" fill="white"/>
<path d="M129.107 72.8001C129.684 72.3956 130.369 72.1745 131.074 72.1657C131.778 72.157 132.469 72.361 133.055 72.7511C133.657 69.4191 137.745 69.9511 138.844 72.7511C142.813 70.9731 145.144 76.7411 141.063 78.1551C142.785 81.1231 139.537 84.8331 136.366 83.5171C135.029 86.1841 130.766 86.8701 130.066 83.4751C124.984 85.5751 123.395 78.9531 128.057 76.9581C127.723 76.2507 127.645 75.4493 127.837 74.6908C128.028 73.9323 128.477 73.264 129.107 72.8001Z" fill="#FFA31A"/>
<path d="M146.251 80.759H146.349C146.406 80.481 146.541 80.2253 146.74 80.0229C146.939 79.8204 147.192 79.6798 147.469 79.618C147.614 79.5878 147.764 79.5883 147.908 79.6194C148.053 79.6504 148.19 79.7114 148.31 79.7984C148.43 79.8854 148.53 79.9964 148.605 80.1245C148.679 80.2525 148.726 80.3947 148.743 80.542C148.961 80.4433 149.202 80.4043 149.441 80.4289C149.679 80.4535 149.907 80.5408 150.101 80.682C150.296 80.8086 150.44 81.0007 150.507 81.2239C150.574 81.4471 150.559 81.6868 150.465 81.9C150.403 82.0772 150.304 82.2393 150.175 82.3757C150.046 82.512 149.889 82.6195 149.716 82.691C149.776 82.9783 149.767 83.2756 149.69 83.5589C149.614 83.8422 149.471 84.1034 149.275 84.3216C149.079 84.5397 148.834 84.7085 148.56 84.8144C148.287 84.9202 147.992 84.9602 147.7 84.931C147.658 85.0949 147.579 85.2471 147.469 85.3758C147.359 85.5046 147.221 85.6066 147.066 85.6741C146.911 85.7416 146.742 85.7728 146.573 85.7653C146.404 85.7579 146.238 85.7119 146.09 85.631C145.929 85.5469 145.79 85.4255 145.685 85.2769C145.581 85.1284 145.513 84.957 145.488 84.777C145.292 84.8674 145.07 84.8831 144.864 84.8212C144.658 84.7593 144.481 84.6241 144.368 84.441C144.208 84.1793 144.148 83.8684 144.2 83.566C144.247 83.2883 144.397 83.0386 144.62 82.866C144.396 82.6336 144.267 82.3255 144.259 82.0027C144.251 81.6798 144.365 81.3659 144.578 81.123C144.793 80.9089 145.065 80.7609 145.361 80.6964C145.658 80.6319 145.966 80.6536 146.251 80.759Z" fill="#FFA31A"/>
<path d="M155.308 79.5482C155.474 79.6553 155.597 79.8159 155.658 80.0032C155.754 79.8974 155.884 79.8293 156.025 79.8113C156.167 79.7933 156.31 79.8266 156.428 79.9052C156.49 79.9626 156.536 80.0339 156.564 80.1131C156.592 80.1922 156.601 80.277 156.589 80.3602C156.565 80.5254 156.494 80.6805 156.386 80.8082C156.386 80.8082 156.337 80.8642 156.337 80.8992C156.324 80.9425 156.324 80.9888 156.337 81.0322C156.398 81.1633 156.419 81.3094 156.398 81.4524C156.377 81.5954 156.315 81.7292 156.218 81.8372C156.119 81.9438 155.988 82.0167 155.845 82.0456C155.702 82.0745 155.554 82.0579 155.42 81.9982C155.351 82.1888 155.233 82.3578 155.077 82.4881C154.965 82.5757 154.828 82.6267 154.685 82.6342C154.542 82.6417 154.401 82.6054 154.279 82.5302C154.215 82.4886 154.16 82.4332 154.119 82.368C154.079 82.3027 154.053 82.2292 154.044 82.1528C154.036 82.0764 154.044 81.999 154.069 81.9262C154.094 81.8535 154.135 81.7872 154.188 81.7322C154.077 81.748 153.964 81.7313 153.862 81.6841C153.76 81.6369 153.674 81.5612 153.614 81.4661C153.559 81.3678 153.53 81.2569 153.53 81.1441C153.53 81.0314 153.559 80.9205 153.614 80.8222C153.67 80.7247 153.747 80.6409 153.839 80.5767C153.931 80.5125 154.036 80.4696 154.146 80.4512C154.077 80.2848 154.068 80.0996 154.12 79.9272C154.173 79.7548 154.283 79.606 154.433 79.5062C154.562 79.4126 154.719 79.3657 154.878 79.3734C155.037 79.381 155.189 79.4427 155.308 79.5482Z" fill="#FFA31A"/>
<path opacity="0.8" d="M129.107 72.8001C129.684 72.3956 130.369 72.1745 131.074 72.1657C131.778 72.157 132.469 72.361 133.055 72.7511C133.657 69.4191 137.745 69.9511 138.844 72.7511C142.813 70.9731 145.144 76.7411 141.063 78.1551C142.785 81.1231 139.537 84.8331 136.366 83.5171C135.029 86.1841 130.766 86.8701 130.066 83.4751C124.984 85.5751 123.395 78.9531 128.057 76.9581C127.723 76.2507 127.645 75.4493 127.837 74.6908C128.028 73.9323 128.477 73.264 129.107 72.8001Z" fill="white"/>
<path opacity="0.8" d="M146.251 80.759H146.349C146.406 80.481 146.541 80.2253 146.74 80.0229C146.939 79.8204 147.192 79.6798 147.469 79.618C147.614 79.5878 147.764 79.5883 147.908 79.6194C148.053 79.6504 148.19 79.7114 148.31 79.7984C148.43 79.8854 148.53 79.9964 148.605 80.1245C148.679 80.2525 148.726 80.3947 148.743 80.542C148.961 80.4433 149.202 80.4043 149.441 80.4289C149.679 80.4535 149.907 80.5408 150.101 80.682C150.296 80.8086 150.44 81.0007 150.507 81.2239C150.574 81.4471 150.559 81.6868 150.465 81.9C150.403 82.0772 150.304 82.2393 150.175 82.3757C150.046 82.512 149.889 82.6195 149.716 82.691C149.776 82.9783 149.767 83.2756 149.69 83.5589C149.614 83.8422 149.471 84.1034 149.275 84.3216C149.079 84.5397 148.834 84.7085 148.56 84.8144C148.287 84.9202 147.992 84.9602 147.7 84.931C147.658 85.0949 147.579 85.2471 147.469 85.3758C147.359 85.5046 147.221 85.6066 147.066 85.6741C146.911 85.7416 146.742 85.7728 146.573 85.7653C146.404 85.7579 146.238 85.7119 146.09 85.631C145.929 85.5469 145.79 85.4255 145.685 85.2769C145.581 85.1284 145.513 84.957 145.488 84.777C145.292 84.8674 145.07 84.8831 144.864 84.8212C144.658 84.7593 144.481 84.6241 144.368 84.441C144.208 84.1793 144.148 83.8684 144.2 83.566C144.247 83.2883 144.397 83.0386 144.62 82.866C144.396 82.6336 144.267 82.3255 144.259 82.0027C144.251 81.6798 144.365 81.3659 144.578 81.123C144.793 80.9089 145.065 80.7609 145.361 80.6964C145.658 80.6319 145.966 80.6536 146.251 80.759Z" fill="white"/>
<path opacity="0.8" d="M155.308 79.5482C155.474 79.6553 155.597 79.8159 155.658 80.0032C155.754 79.8974 155.884 79.8293 156.025 79.8113C156.167 79.7933 156.31 79.8266 156.428 79.9052C156.49 79.9626 156.536 80.0339 156.564 80.1131C156.592 80.1922 156.601 80.277 156.589 80.3602C156.565 80.5254 156.494 80.6805 156.386 80.8082C156.386 80.8082 156.337 80.8642 156.337 80.8992C156.324 80.9425 156.324 80.9888 156.337 81.0322C156.398 81.1633 156.419 81.3094 156.398 81.4524C156.377 81.5954 156.315 81.7292 156.218 81.8372C156.119 81.9438 155.988 82.0167 155.845 82.0456C155.702 82.0745 155.554 82.0579 155.42 81.9982C155.351 82.1888 155.233 82.3578 155.077 82.4881C154.965 82.5757 154.828 82.6267 154.685 82.6342C154.542 82.6417 154.401 82.6054 154.279 82.5302C154.215 82.4886 154.16 82.4332 154.119 82.368C154.079 82.3027 154.053 82.2292 154.044 82.1528C154.036 82.0764 154.044 81.999 154.069 81.9262C154.094 81.8535 154.135 81.7872 154.188 81.7322C154.077 81.748 153.964 81.7313 153.862 81.6841C153.76 81.6369 153.674 81.5612 153.614 81.4661C153.559 81.3678 153.53 81.2569 153.53 81.1441C153.53 81.0314 153.559 80.9205 153.614 80.8222C153.67 80.7247 153.747 80.6409 153.839 80.5767C153.931 80.5125 154.036 80.4696 154.146 80.4512C154.077 80.2848 154.068 80.0996 154.12 79.9272C154.173 79.7548 154.283 79.606 154.433 79.5062C154.562 79.4126 154.719 79.3657 154.878 79.3734C155.037 79.381 155.189 79.4427 155.308 79.5482Z" fill="white"/>
<path d="M256.536 223.356C255.136 227.087 250.516 228.424 247.436 227.003C246.036 226.352 244.202 224.833 244.314 222.621C239.414 228.088 226.723 222.222 230.853 214.179C224.378 214.739 220.241 203.532 228.326 200.984C221.074 197.113 224.826 184.716 234.164 186.865C233.156 184.065 235.207 181.783 237.405 180.957C239.904 180.019 243.194 180.453 244.076 182.147C246.281 175.315 255.654 174.447 259.658 180.369C262.619 176.939 269.458 177.345 269.724 182.574C274.554 178.451 285.579 183.274 282.443 190.652C289.898 189.798 291.599 200.032 285.754 201.852C287.459 202.454 288.858 203.705 289.645 205.334C290.431 206.962 290.542 208.836 289.954 210.546C289.107 213.136 285.754 217.154 281.904 215.628C283.339 220.654 276.836 224.294 273.301 220.444C272.832 228.277 260.281 231.049 256.536 223.356Z" fill="#FFA31A"/>
<path opacity="0.8" d="M256.536 223.356C255.136 227.087 250.516 228.424 247.436 227.003C246.036 226.352 244.202 224.833 244.314 222.621C239.414 228.088 226.723 222.222 230.853 214.179C224.378 214.739 220.241 203.532 228.326 200.984C221.074 197.113 224.826 184.716 234.164 186.865C233.156 184.065 235.207 181.783 237.405 180.957C239.904 180.019 243.194 180.453 244.076 182.147C246.281 175.315 255.654 174.447 259.658 180.369C262.619 176.939 269.458 177.345 269.724 182.574C274.554 178.451 285.579 183.274 282.443 190.652C289.898 189.798 291.599 200.032 285.754 201.852C287.459 202.454 288.858 203.705 289.645 205.334C290.431 206.962 290.542 208.836 289.954 210.546C289.107 213.136 285.754 217.154 281.904 215.628C283.339 220.654 276.836 224.294 273.301 220.444C272.832 228.277 260.281 231.049 256.536 223.356Z" fill="white"/>
<path d="M234.871 176.4C234.2 176.61 233.481 176.613 232.808 176.408C232.135 176.203 231.539 175.801 231.098 175.252C229.516 178.248 225.785 176.498 225.568 173.516C221.256 174.013 220.759 167.811 225.085 167.699C224.336 164.346 228.55 161.791 231.175 163.996C233.275 161.861 237.475 162.477 237.181 165.935C242.648 165.487 242.179 172.235 237.132 172.76C237.235 173.535 237.066 174.321 236.654 174.985C236.241 175.649 235.611 176.149 234.871 176.4Z" fill="#FFA31A"/>
<path d="M220.927 163.66L220.843 163.597C220.706 163.843 220.501 164.045 220.253 164.178C220.005 164.311 219.723 164.369 219.443 164.346C219.295 164.332 219.152 164.288 219.023 164.215C218.894 164.142 218.782 164.044 218.693 163.925C218.605 163.806 218.542 163.67 218.51 163.525C218.477 163.381 218.476 163.231 218.505 163.086C218.266 163.112 218.025 163.076 217.804 162.981C217.584 162.887 217.391 162.737 217.245 162.547C217.095 162.368 217.014 162.143 217.014 161.91C217.014 161.677 217.095 161.452 217.245 161.273C217.356 161.122 217.499 160.997 217.663 160.906C217.828 160.816 218.009 160.762 218.197 160.748C218.224 160.455 218.321 160.173 218.478 159.924C218.636 159.676 218.851 159.468 219.104 159.319C219.357 159.169 219.643 159.082 219.936 159.064C220.23 159.046 220.524 159.098 220.794 159.215C220.881 159.068 221 158.942 221.144 158.849C221.287 158.755 221.45 158.696 221.62 158.675C221.79 158.655 221.963 158.674 222.124 158.731C222.285 158.789 222.431 158.882 222.551 159.005C222.679 159.134 222.774 159.293 222.828 159.468C222.882 159.642 222.892 159.827 222.859 160.006C223.072 159.977 223.289 160.027 223.469 160.147C223.648 160.267 223.777 160.448 223.832 160.657C223.906 160.956 223.869 161.272 223.727 161.546C223.601 161.811 223.378 162.016 223.104 162.12C223.247 162.409 223.277 162.741 223.188 163.05C223.098 163.36 222.896 163.625 222.621 163.793C222.355 163.934 222.054 163.997 221.754 163.973C221.454 163.95 221.167 163.841 220.927 163.66Z" fill="#FFA31A"/>
<path d="M211.925 162.085C211.8 161.933 211.731 161.743 211.729 161.546C211.605 161.62 211.459 161.646 211.317 161.62C211.176 161.595 211.048 161.518 210.959 161.406C210.922 161.332 210.903 161.25 210.903 161.168C210.903 161.085 210.922 161.004 210.959 160.93C211.035 160.78 211.148 160.653 211.288 160.559C211.319 160.543 211.346 160.519 211.365 160.489C211.379 160.443 211.379 160.395 211.365 160.349C211.336 160.203 211.354 160.052 211.416 159.917C211.479 159.782 211.583 159.671 211.713 159.599C211.844 159.527 211.993 159.499 212.141 159.518C212.288 159.537 212.426 159.602 212.534 159.705C212.655 159.544 212.817 159.419 213.003 159.341C213.136 159.286 213.283 159.276 213.422 159.313C213.561 159.349 213.684 159.431 213.773 159.544C213.823 159.602 213.859 159.671 213.879 159.745C213.899 159.819 213.902 159.896 213.887 159.971C213.873 160.047 213.843 160.118 213.797 160.179C213.752 160.241 213.693 160.292 213.626 160.328C213.736 160.346 213.839 160.396 213.921 160.472C214.004 160.547 214.061 160.646 214.088 160.755C214.112 160.865 214.107 160.98 214.074 161.088C214.041 161.196 213.98 161.293 213.899 161.371C213.816 161.446 213.719 161.503 213.612 161.537C213.506 161.571 213.393 161.581 213.283 161.567C213.296 161.746 213.248 161.924 213.146 162.072C213.044 162.22 212.895 162.328 212.723 162.379C212.576 162.424 212.418 162.42 212.274 162.367C212.13 162.314 212.007 162.215 211.925 162.085Z" fill="#FFA31A"/>
<path opacity="0.8" d="M234.871 176.4C234.2 176.61 233.481 176.613 232.808 176.408C232.135 176.203 231.539 175.801 231.098 175.252C229.516 178.248 225.785 176.498 225.568 173.516C221.256 174.013 220.759 167.811 225.085 167.699C224.336 164.346 228.55 161.791 231.175 163.996C233.275 161.861 237.475 162.477 237.181 165.935C242.648 165.487 242.179 172.235 237.132 172.76C237.235 173.535 237.066 174.321 236.654 174.985C236.241 175.649 235.611 176.149 234.871 176.4Z" fill="white"/>
<path opacity="0.8" d="M220.927 163.66L220.843 163.597C220.706 163.843 220.501 164.045 220.253 164.178C220.005 164.311 219.723 164.369 219.443 164.346C219.295 164.332 219.152 164.288 219.023 164.215C218.894 164.142 218.782 164.044 218.693 163.925C218.605 163.806 218.542 163.67 218.51 163.525C218.477 163.381 218.476 163.231 218.505 163.086C218.266 163.112 218.025 163.076 217.804 162.981C217.584 162.887 217.391 162.737 217.245 162.547C217.095 162.368 217.014 162.143 217.014 161.91C217.014 161.677 217.095 161.452 217.245 161.273C217.356 161.122 217.499 160.997 217.663 160.906C217.828 160.816 218.009 160.762 218.197 160.748C218.224 160.455 218.321 160.173 218.478 159.924C218.636 159.676 218.851 159.468 219.104 159.319C219.357 159.169 219.643 159.082 219.936 159.064C220.23 159.046 220.524 159.098 220.794 159.215C220.881 159.068 221 158.942 221.144 158.849C221.287 158.755 221.45 158.696 221.62 158.675C221.79 158.655 221.963 158.674 222.124 158.731C222.285 158.789 222.431 158.882 222.551 159.005C222.679 159.134 222.774 159.293 222.828 159.468C222.882 159.642 222.892 159.827 222.859 160.006C223.072 159.977 223.289 160.027 223.469 160.147C223.648 160.267 223.777 160.448 223.832 160.657C223.906 160.956 223.869 161.272 223.727 161.546C223.601 161.811 223.378 162.016 223.104 162.12C223.247 162.409 223.277 162.741 223.188 163.05C223.098 163.36 222.896 163.625 222.621 163.793C222.355 163.934 222.054 163.997 221.754 163.973C221.454 163.95 221.167 163.841 220.927 163.66Z" fill="white"/>
<path opacity="0.8" d="M211.925 162.085C211.8 161.933 211.731 161.743 211.729 161.546C211.605 161.62 211.459 161.646 211.317 161.62C211.176 161.595 211.048 161.518 210.959 161.406C210.922 161.332 210.903 161.25 210.903 161.168C210.903 161.085 210.922 161.004 210.959 160.93C211.035 160.78 211.148 160.653 211.288 160.559C211.319 160.543 211.346 160.519 211.365 160.489C211.379 160.443 211.379 160.395 211.365 160.349C211.336 160.203 211.354 160.052 211.416 159.917C211.479 159.782 211.583 159.671 211.713 159.599C211.844 159.527 211.993 159.499 212.141 159.518C212.288 159.537 212.426 159.602 212.534 159.705C212.655 159.544 212.817 159.419 213.003 159.341C213.136 159.286 213.283 159.276 213.422 159.313C213.561 159.349 213.684 159.431 213.773 159.544C213.823 159.602 213.859 159.671 213.879 159.745C213.899 159.819 213.902 159.896 213.887 159.971C213.873 160.047 213.843 160.118 213.797 160.179C213.752 160.241 213.693 160.292 213.626 160.328C213.736 160.346 213.839 160.396 213.921 160.472C214.004 160.547 214.061 160.646 214.088 160.755C214.112 160.865 214.107 160.98 214.074 161.088C214.041 161.196 213.98 161.293 213.899 161.371C213.816 161.446 213.719 161.503 213.612 161.537C213.506 161.571 213.393 161.581 213.283 161.567C213.296 161.746 213.248 161.924 213.146 162.072C213.044 162.22 212.895 162.328 212.723 162.379C212.576 162.424 212.418 162.42 212.274 162.367C212.13 162.314 212.007 162.215 211.925 162.085Z" fill="white"/>
<path d="M253.19 96.4671C252.371 100.373 248.038 102.417 244.79 101.493C243.313 101.073 241.255 99.8692 241.01 97.6642C237.02 103.838 223.58 100.037 226.394 91.4482C220.094 93.0231 214.235 82.6072 221.816 78.8482C214.046 76.1741 215.803 63.3362 225.358 63.9872C223.923 61.4112 225.582 58.8071 227.626 57.6451C229.943 56.3221 233.261 56.2451 234.395 57.7641C235.501 50.6731 244.608 48.3071 249.508 53.5641C251.888 49.7071 258.734 49.0212 259.791 54.1522C263.914 49.3222 275.562 52.3601 273.623 60.1231C280.854 58.1001 284.123 67.9422 278.663 70.6231C280.441 70.9442 282.021 71.9548 283.058 73.4349C284.095 74.915 284.505 76.7449 284.2 78.5261C283.773 81.2141 281.12 85.7081 277.053 84.8261C279.265 89.5722 273.413 94.1921 269.311 90.9441C270.06 98.7561 258.097 103.474 253.19 96.4671Z" fill="#FFA31A"/>
<path opacity="0.8" d="M253.19 96.4671C252.371 100.373 248.038 102.417 244.79 101.493C243.313 101.073 241.255 99.8692 241.01 97.6642C237.02 103.838 223.58 100.037 226.394 91.4482C220.094 93.0231 214.235 82.6072 221.816 78.8482C214.046 76.1741 215.803 63.3362 225.358 63.9872C223.923 61.4112 225.582 58.8071 227.626 57.6451C229.943 56.3221 233.261 56.2451 234.395 57.7641C235.501 50.6731 244.608 48.3071 249.508 53.5641C251.888 49.7071 258.734 49.0212 259.791 54.1522C263.914 49.3222 275.562 52.3601 273.623 60.1231C280.854 58.1001 284.123 67.9422 278.663 70.6231C280.441 70.9442 282.021 71.9548 283.058 73.4349C284.095 74.915 284.505 76.7449 284.2 78.5261C283.773 81.2141 281.12 85.7081 277.053 84.8261C279.265 89.5722 273.413 94.1921 269.311 90.9441C270.06 98.7561 258.097 103.474 253.19 96.4671Z" fill="white"/>
<path d="M229.376 53.312C228.736 53.6066 228.022 53.7014 227.328 53.584C226.634 53.4666 225.991 53.1425 225.484 52.654C224.301 55.825 220.374 54.558 219.786 51.632C215.586 52.668 214.291 46.585 218.561 45.92C217.399 42.693 221.256 39.62 224.161 41.482C225.953 39.095 230.244 39.172 230.363 42.637C235.732 41.503 236.124 48.286 231.182 49.413C231.381 50.1715 231.309 50.9757 230.98 51.6872C230.65 52.3987 230.083 52.9733 229.376 53.312Z" fill="#FFA31A"/>
<path d="M211.4 45.045L211.309 44.982C211.191 45.2401 211 45.4582 210.76 45.6098C210.521 45.7615 210.242 45.8401 209.958 45.836C209.81 45.8322 209.664 45.7975 209.53 45.7342C209.397 45.6709 209.277 45.5803 209.181 45.4683C209.084 45.3563 209.011 45.2253 208.968 45.0837C208.925 44.9421 208.911 44.7931 208.929 44.646C208.693 44.6894 208.451 44.6717 208.224 44.5945C207.997 44.5173 207.794 44.3832 207.634 44.205C207.476 44.034 207.382 43.8132 207.37 43.5806C207.357 43.3481 207.426 43.1184 207.564 42.931C207.666 42.7737 207.799 42.6394 207.956 42.5369C208.113 42.4344 208.289 42.3659 208.474 42.336C208.487 42.0429 208.566 41.7565 208.706 41.4983C208.845 41.2401 209.041 41.0168 209.279 40.845C209.522 40.6814 209.799 40.5755 210.089 40.5355C210.379 40.4954 210.674 40.5223 210.952 40.614C211.028 40.4609 211.139 40.3274 211.275 40.2239C211.411 40.1204 211.569 40.0496 211.737 40.0171C211.905 39.9846 212.078 39.9912 212.243 40.0365C212.408 40.0817 212.56 40.1644 212.688 40.278C212.825 40.3963 212.932 40.5458 212.999 40.714C213.066 40.8821 213.091 41.0639 213.073 41.244C213.285 41.2014 213.505 41.2367 213.693 41.3435C213.88 41.4503 214.023 41.6213 214.095 41.825C214.186 42.117 214.172 42.432 214.053 42.714C213.946 42.9885 213.738 43.2116 213.472 43.337C213.636 43.615 213.69 43.9442 213.624 44.2602C213.558 44.5761 213.377 44.856 213.115 45.045C212.859 45.2099 212.562 45.2976 212.257 45.2976C211.953 45.2976 211.656 45.2099 211.4 45.045Z" fill="#FFA31A"/>
<path d="M202.09 45.5421C201.988 45.374 201.942 45.1781 201.957 44.9821C201.827 45.0396 201.681 45.0486 201.544 45.0075C201.408 44.9664 201.291 44.8779 201.215 44.7581C201.183 44.6812 201.17 44.5978 201.178 44.515C201.185 44.4321 201.212 44.3522 201.257 44.2821C201.347 44.1395 201.476 44.0254 201.628 43.9531C201.66 43.9379 201.688 43.9165 201.712 43.8901C201.725 43.8468 201.725 43.8004 201.712 43.7571C201.699 43.6092 201.734 43.4611 201.811 43.3343C201.889 43.2074 202.004 43.1084 202.141 43.0515C202.278 42.9947 202.43 42.9829 202.574 43.0178C202.719 43.0528 202.848 43.1327 202.944 43.2461C203.085 43.0988 203.264 42.9945 203.462 42.9451C203.599 42.9071 203.745 42.9145 203.877 42.9662C204.01 43.018 204.122 43.1112 204.197 43.2321C204.24 43.2957 204.268 43.3681 204.279 43.4441C204.291 43.5201 204.285 43.5976 204.262 43.6709C204.239 43.7443 204.2 43.8115 204.147 43.8676C204.095 43.9237 204.031 43.9673 203.959 43.9951C204.067 44.0255 204.163 44.0868 204.237 44.1714C204.31 44.2559 204.357 44.3601 204.372 44.4711C204.383 44.5831 204.364 44.6959 204.319 44.7989C204.274 44.9018 204.203 44.9914 204.113 45.0591C204.022 45.124 203.918 45.1688 203.808 45.1905C203.698 45.2122 203.585 45.2104 203.476 45.1851C203.47 45.3651 203.402 45.5374 203.283 45.6728C203.165 45.8081 203.003 45.898 202.825 45.9271C202.677 45.9497 202.526 45.9245 202.394 45.8552C202.262 45.786 202.155 45.6763 202.09 45.5421Z" fill="#FFA31A"/>
<path opacity="0.8" d="M229.376 53.312C228.736 53.6066 228.022 53.7014 227.328 53.584C226.634 53.4666 225.991 53.1425 225.484 52.654C224.301 55.825 220.374 54.558 219.786 51.632C215.586 52.668 214.291 46.585 218.561 45.92C217.399 42.693 221.256 39.62 224.161 41.482C225.953 39.095 230.244 39.172 230.363 42.637C235.732 41.503 236.124 48.286 231.182 49.413C231.381 50.1715 231.309 50.9757 230.98 51.6872C230.65 52.3987 230.083 52.9733 229.376 53.312Z" fill="white"/>
<path opacity="0.8" d="M211.4 45.045L211.309 44.982C211.191 45.2401 211 45.4582 210.76 45.6098C210.521 45.7615 210.242 45.8401 209.958 45.836C209.81 45.8322 209.664 45.7975 209.53 45.7342C209.397 45.6709 209.277 45.5803 209.181 45.4683C209.084 45.3563 209.011 45.2253 208.968 45.0837C208.925 44.9421 208.911 44.7931 208.929 44.646C208.693 44.6894 208.451 44.6717 208.224 44.5945C207.997 44.5173 207.794 44.3832 207.634 44.205C207.476 44.034 207.382 43.8132 207.37 43.5806C207.357 43.3481 207.426 43.1184 207.564 42.931C207.666 42.7737 207.799 42.6394 207.956 42.5369C208.113 42.4344 208.289 42.3659 208.474 42.336C208.487 42.0429 208.566 41.7565 208.706 41.4983C208.845 41.2401 209.041 41.0168 209.279 40.845C209.522 40.6814 209.799 40.5755 210.089 40.5355C210.379 40.4954 210.674 40.5223 210.952 40.614C211.028 40.4609 211.139 40.3274 211.275 40.2239C211.411 40.1204 211.569 40.0496 211.737 40.0171C211.905 39.9846 212.078 39.9912 212.243 40.0365C212.408 40.0817 212.56 40.1644 212.688 40.278C212.825 40.3963 212.932 40.5458 212.999 40.714C213.066 40.8821 213.091 41.0639 213.073 41.244C213.285 41.2014 213.505 41.2367 213.693 41.3435C213.88 41.4503 214.023 41.6213 214.095 41.825C214.186 42.117 214.172 42.432 214.053 42.714C213.946 42.9885 213.738 43.2116 213.472 43.337C213.636 43.615 213.69 43.9442 213.624 44.2602C213.558 44.5761 213.377 44.856 213.115 45.045C212.859 45.2099 212.562 45.2976 212.257 45.2976C211.953 45.2976 211.656 45.2099 211.4 45.045Z" fill="white"/>
<path opacity="0.8" d="M202.09 45.5421C201.988 45.374 201.942 45.1781 201.957 44.9821C201.827 45.0396 201.681 45.0486 201.544 45.0075C201.408 44.9664 201.291 44.8779 201.215 44.7581C201.183 44.6812 201.17 44.5978 201.178 44.515C201.185 44.4321 201.212 44.3522 201.257 44.2821C201.347 44.1395 201.476 44.0254 201.628 43.9531C201.66 43.9379 201.688 43.9165 201.712 43.8901C201.725 43.8468 201.725 43.8004 201.712 43.7571C201.699 43.6092 201.734 43.4611 201.811 43.3343C201.889 43.2074 202.004 43.1084 202.141 43.0515C202.278 42.9947 202.43 42.9829 202.574 43.0178C202.719 43.0528 202.848 43.1327 202.944 43.2461C203.085 43.0988 203.264 42.9945 203.462 42.9451C203.599 42.9071 203.745 42.9145 203.877 42.9662C204.01 43.018 204.122 43.1112 204.197 43.2321C204.24 43.2957 204.268 43.3681 204.279 43.4441C204.291 43.5201 204.285 43.5976 204.262 43.6709C204.239 43.7443 204.2 43.8115 204.147 43.8676C204.095 43.9237 204.031 43.9673 203.959 43.9951C204.067 44.0255 204.163 44.0868 204.237 44.1714C204.31 44.2559 204.357 44.3601 204.372 44.4711C204.383 44.5831 204.364 44.6959 204.319 44.7989C204.274 44.9018 204.203 44.9914 204.113 45.0591C204.022 45.124 203.918 45.1688 203.808 45.1905C203.698 45.2122 203.585 45.2104 203.476 45.1851C203.47 45.3651 203.402 45.5374 203.283 45.6728C203.165 45.8081 203.003 45.898 202.825 45.9271C202.677 45.9497 202.526 45.9245 202.394 45.8552C202.262 45.786 202.155 45.6763 202.09 45.5421Z" fill="white"/>
<path d="M98.4266 201.6C100.282 205.1 105.007 205.912 107.863 204.134C109.165 203.329 110.817 201.6 110.439 199.416C115.976 204.26 127.855 196.924 122.801 189.434C129.297 189.217 132.069 177.604 123.739 176.029C130.48 171.325 125.272 159.467 116.263 162.729C116.963 159.859 114.625 157.829 112.343 157.248C109.753 156.618 106.533 157.437 105.861 159.222C102.858 152.698 93.4496 152.922 90.1736 159.313C86.8276 156.254 80.0586 157.479 80.4436 162.701C75.1586 159.201 64.7916 165.298 68.7816 172.235C61.2706 172.27 60.8016 182.637 66.8216 183.736C65.2065 184.535 63.9715 185.938 63.3844 187.642C62.7973 189.346 62.9055 191.212 63.6856 192.836C64.8336 195.307 68.5856 198.898 72.2816 196.924C71.4556 202.09 78.3436 204.932 81.3816 200.683C82.8306 208.397 95.6266 209.65 98.4266 201.6Z" fill="#FFA31A"/>
<path opacity="0.8" d="M98.4266 201.6C100.282 205.1 105.007 205.912 107.863 204.134C109.165 203.329 110.817 201.6 110.439 199.416C115.976 204.26 127.855 196.924 122.801 189.434C129.297 189.217 132.069 177.604 123.739 176.029C130.48 171.325 125.272 159.467 116.263 162.729C116.963 159.859 114.625 157.829 112.343 157.248C109.753 156.618 106.533 157.437 105.861 159.222C102.858 152.698 93.4496 152.922 90.1736 159.313C86.8276 156.254 80.0586 157.479 80.4436 162.701C75.1586 159.201 64.7916 165.298 68.7816 172.235C61.2706 172.27 60.8016 182.637 66.8216 183.736C65.2065 184.535 63.9715 185.938 63.3844 187.642C62.7973 189.346 62.9055 191.212 63.6856 192.836C64.8336 195.307 68.5856 198.898 72.2816 196.924C71.4556 202.09 78.3436 204.932 81.3816 200.683C82.8306 208.397 95.6266 209.65 98.4266 201.6Z" fill="white"/>
<path d="M109.493 153.538C110.19 153.648 110.903 153.545 111.54 153.243C112.177 152.941 112.708 152.453 113.063 151.844C115.072 154.567 118.495 152.278 118.264 149.296C122.604 149.142 122.163 142.94 117.872 143.472C118.11 140.049 113.56 138.152 111.292 140.728C108.912 138.929 104.81 140.175 105.643 143.528C100.169 143.906 101.653 150.528 106.714 150.269C106.724 151.053 107.007 151.808 107.514 152.405C108.022 153.002 108.722 153.403 109.493 153.538Z" fill="#FFA31A"/>
<path d="M124.558 140.651L124.628 140.574C124.813 140.789 125.056 140.945 125.328 141.024C125.6 141.104 125.889 141.103 126.161 141.022C126.299 140.978 126.426 140.905 126.535 140.81C126.644 140.714 126.733 140.597 126.794 140.465C126.856 140.334 126.89 140.191 126.894 140.046C126.898 139.901 126.873 139.757 126.819 139.622C127.059 139.604 127.289 139.523 127.487 139.386C127.685 139.25 127.844 139.063 127.946 138.845C128.053 138.638 128.083 138.399 128.032 138.171C127.981 137.943 127.851 137.741 127.666 137.599C127.525 137.474 127.359 137.381 127.179 137.326C126.999 137.27 126.809 137.254 126.623 137.277C126.534 136.998 126.382 136.743 126.177 136.533C125.973 136.323 125.723 136.163 125.447 136.066C125.169 135.974 124.873 135.947 124.583 135.987C124.293 136.027 124.016 136.133 123.774 136.297C123.658 136.172 123.514 136.074 123.355 136.013C123.196 135.951 123.024 135.927 122.854 135.942C122.684 135.957 122.519 136.01 122.373 136.099C122.226 136.187 122.102 136.307 122.01 136.451C121.911 136.603 121.85 136.776 121.831 136.956C121.813 137.137 121.838 137.319 121.905 137.487C121.69 137.505 121.489 137.6 121.339 137.754C121.188 137.909 121.098 138.112 121.086 138.327C121.075 138.634 121.174 138.934 121.366 139.174C121.536 139.401 121.786 139.556 122.066 139.608C121.984 139.921 122.021 140.253 122.172 140.539C122.322 140.825 122.574 141.045 122.878 141.155C123.176 141.245 123.495 141.246 123.794 141.156C124.092 141.066 124.358 140.891 124.558 140.651Z" fill="#FFA31A"/>
<path d="M133.609 138.6C133.672 138.414 133.672 138.212 133.609 138.026C133.749 138.044 133.892 138.012 134.011 137.935C134.13 137.858 134.218 137.742 134.26 137.606C134.27 137.523 134.26 137.438 134.229 137.36C134.199 137.282 134.149 137.212 134.085 137.158C133.961 137.045 133.808 136.97 133.644 136.941C133.609 136.938 133.575 136.926 133.546 136.906C133.512 136.873 133.492 136.828 133.49 136.78C133.462 136.633 133.387 136.499 133.277 136.397C133.167 136.296 133.028 136.232 132.879 136.215C132.73 136.199 132.58 136.231 132.451 136.306C132.321 136.381 132.219 136.496 132.16 136.633C131.988 136.539 131.795 136.493 131.6 136.5C131.456 136.5 131.317 136.547 131.203 136.634C131.089 136.722 131.007 136.844 130.97 136.983C130.946 137.056 130.94 137.133 130.95 137.209C130.961 137.285 130.988 137.358 131.03 137.422C131.073 137.485 131.129 137.539 131.195 137.578C131.261 137.617 131.334 137.641 131.411 137.648C131.314 137.706 131.238 137.792 131.19 137.895C131.143 137.997 131.127 138.111 131.145 138.222C131.163 138.333 131.21 138.438 131.281 138.525C131.353 138.612 131.445 138.679 131.551 138.719C131.657 138.755 131.77 138.769 131.882 138.759C131.994 138.75 132.103 138.717 132.202 138.663C132.254 138.834 132.365 138.98 132.515 139.077C132.665 139.174 132.844 139.216 133.021 139.195C133.17 139.172 133.307 139.102 133.413 138.995C133.519 138.888 133.588 138.749 133.609 138.6Z" fill="#FFA31A"/>
<path opacity="0.8" d="M109.493 153.538C110.19 153.648 110.903 153.545 111.54 153.243C112.177 152.941 112.708 152.453 113.063 151.844C115.072 154.567 118.495 152.278 118.264 149.296C122.604 149.142 122.163 142.94 117.872 143.472C118.11 140.049 113.56 138.152 111.292 140.728C108.912 138.929 104.81 140.175 105.643 143.528C100.169 143.906 101.653 150.528 106.714 150.269C106.724 151.053 107.007 151.808 107.514 152.405C108.022 153.002 108.722 153.403 109.493 153.538Z" fill="white"/>
<path opacity="0.8" d="M124.558 140.651L124.628 140.574C124.813 140.789 125.056 140.945 125.328 141.024C125.6 141.104 125.889 141.103 126.161 141.022C126.299 140.978 126.426 140.905 126.535 140.81C126.644 140.714 126.733 140.597 126.794 140.465C126.856 140.334 126.89 140.191 126.894 140.046C126.898 139.901 126.873 139.757 126.819 139.622C127.059 139.604 127.289 139.523 127.487 139.386C127.685 139.25 127.844 139.063 127.946 138.845C128.053 138.638 128.083 138.399 128.032 138.171C127.981 137.943 127.851 137.741 127.666 137.599C127.525 137.474 127.359 137.381 127.179 137.326C126.999 137.27 126.809 137.254 126.623 137.277C126.534 136.998 126.382 136.743 126.177 136.533C125.973 136.323 125.723 136.163 125.447 136.066C125.169 135.974 124.873 135.947 124.583 135.987C124.293 136.027 124.016 136.133 123.774 136.297C123.658 136.172 123.514 136.074 123.355 136.013C123.196 135.951 123.024 135.927 122.854 135.942C122.684 135.957 122.519 136.01 122.373 136.099C122.226 136.187 122.102 136.307 122.01 136.451C121.911 136.603 121.85 136.776 121.831 136.956C121.813 137.137 121.838 137.319 121.905 137.487C121.69 137.505 121.489 137.6 121.339 137.754C121.188 137.909 121.098 138.112 121.086 138.327C121.075 138.634 121.174 138.934 121.366 139.174C121.536 139.401 121.786 139.556 122.066 139.608C121.984 139.921 122.021 140.253 122.172 140.539C122.322 140.825 122.574 141.045 122.878 141.155C123.176 141.245 123.495 141.246 123.794 141.156C124.092 141.066 124.358 140.891 124.558 140.651Z" fill="white"/>
<path opacity="0.8" d="M133.609 138.6C133.672 138.414 133.672 138.212 133.609 138.026C133.749 138.044 133.892 138.012 134.011 137.935C134.13 137.858 134.218 137.742 134.26 137.606C134.27 137.523 134.26 137.438 134.229 137.36C134.199 137.282 134.149 137.212 134.085 137.158C133.961 137.045 133.808 136.97 133.644 136.941C133.609 136.938 133.575 136.926 133.546 136.906C133.512 136.873 133.492 136.828 133.49 136.78C133.462 136.633 133.387 136.499 133.277 136.397C133.167 136.296 133.028 136.232 132.879 136.215C132.73 136.199 132.58 136.231 132.451 136.306C132.321 136.381 132.219 136.496 132.16 136.633C131.988 136.539 131.795 136.493 131.6 136.5C131.456 136.5 131.317 136.547 131.203 136.634C131.089 136.722 131.007 136.844 130.97 136.983C130.946 137.056 130.94 137.133 130.95 137.209C130.961 137.285 130.988 137.358 131.03 137.422C131.073 137.485 131.129 137.539 131.195 137.578C131.261 137.617 131.334 137.641 131.411 137.648C131.314 137.706 131.238 137.792 131.19 137.895C131.143 137.997 131.127 138.111 131.145 138.222C131.163 138.333 131.21 138.438 131.281 138.525C131.353 138.612 131.445 138.679 131.551 138.719C131.657 138.755 131.77 138.769 131.882 138.759C131.994 138.75 132.103 138.717 132.202 138.663C132.254 138.834 132.365 138.98 132.515 139.077C132.665 139.174 132.844 139.216 133.021 139.195C133.17 139.172 133.307 139.102 133.413 138.995C133.519 138.888 133.588 138.749 133.609 138.6Z" fill="white"/>
</svg>
