<svg width="14" height="13" viewBox="0 0 14 13" fill="none" xmlns="http://www.w3.org/2000/svg">
<path d="M11.4474 4.37439V7.90827C11.4474 8.58428 11.4474 8.92229 11.3172 9.21405C11.2744 9.30997 11.2216 9.40112 11.1598 9.48601C10.9716 9.74425 10.6786 9.91263 10.0924 10.2494L8.34505 11.2533C7.76298 11.5877 7.47195 11.7549 7.15617 11.788C7.05234 11.7988 6.94767 11.7988 6.84385 11.788C6.52806 11.7549 6.23703 11.5877 5.65497 11.2533L3.90759 10.2494C3.32143 9.91263 3.02835 9.74425 2.84023 9.48601C2.77839 9.40112 2.72563 9.30997 2.68283 9.21405C2.55263 8.92229 2.55263 8.58428 2.55263 7.90827V4.37439M13.5 3.3699L8.13904 0.875453C7.64199 0.644176 7.39346 0.528537 7.13049 0.505573C7.04366 0.497992 6.95634 0.497992 6.86951 0.505573C6.60654 0.528537 6.35801 0.644176 5.86096 0.875453L0.5 3.3699L5.8132 5.97C6.33019 6.223 6.58869 6.3495 6.86366 6.37459C6.95437 6.38287 7.04564 6.38287 7.13635 6.37459C7.41132 6.3495 7.66982 6.223 8.18681 5.97L13.5 3.3699ZM13.5 3.3699V9.77224C13.5 10.3562 13.5 10.6482 13.3991 10.9092C13.3658 10.9952 13.3247 11.0781 13.2762 11.1566C13.1292 11.3946 12.8965 11.571 12.4312 11.9238L11.875 12.3455" stroke="#787878" stroke-linecap="round" stroke-linejoin="round"/>
</svg>
