<svg width="21" height="15" viewBox="0 0 21 15" fill="none" xmlns="http://www.w3.org/2000/svg">
<path d="M0.750017 13.5593L14.9873 13.5593M0.750017 7.45763L14.9873 7.45763M0.750017 1.35594L14.9873 1.35594" stroke="#FFA31A" stroke-width="1.5" stroke-linecap="round" stroke-linejoin="round"/>
<path d="M19.3945 2.21216C18.9218 2.21216 18.5381 1.82843 18.5381 1.35571C18.5382 0.883109 18.9219 0.500244 19.3945 0.500244C19.867 0.500494 20.2499 0.883264 20.25 1.35571C20.25 1.82828 19.867 2.21191 19.3945 2.21216ZM19.3945 8.31372C18.9218 8.31372 18.5381 7.92999 18.5381 7.45728C18.5383 6.98473 18.9219 6.60181 19.3945 6.60181C19.8669 6.60206 20.2498 6.98489 20.25 7.45728C20.25 7.92984 19.867 8.31347 19.3945 8.31372ZM19.3945 14.4153C18.922 14.4153 18.5383 14.0323 18.5381 13.5598C18.5381 13.0871 18.9218 12.7034 19.3945 12.7034C19.867 12.7036 20.25 13.0873 20.25 13.5598C20.2497 14.0322 19.8669 14.415 19.3945 14.4153Z" fill="#FFA31A" stroke="#FFA31A"/>
</svg>
