<svg width="19" height="20" viewBox="0 0 19 20" fill="none" xmlns="http://www.w3.org/2000/svg">
<path d="M0 9.75C0 14.7206 4.02944 18.75 9 18.75C13.9706 18.75 18 14.7206 18 9.75C18 4.77944 13.9706 0.75 9 0.75C4.02944 0.75 0 4.77944 0 9.75Z" stroke="#CCCCCC" stroke-width="1.5" stroke-linejoin="round"/>
<path d="M9 14.25C8.72386 14.25 8.5 14.0261 8.5 13.75C8.5 13.4739 8.72386 13.25 9 13.25C9.27614 13.25 9.5 13.4739 9.5 13.75C9.5 14.0261 9.27614 14.25 9 14.25Z" fill="#292556" stroke="#CCCCCC"/>
<path d="M11.25 7.66274C11.25 6.46829 10.2426 5.5 9 5.5C7.75736 5.5 6.75 6.46829 6.75 7.66274C6.75 8.38398 7.11729 9.02276 7.68189 9.41569C7.99496 9.63357 8.371 9.76306 8.63549 10.0379C8.95997 10.375 9.00691 10.8015 9 11.25" stroke="#CCCCCC" stroke-width="1.5" stroke-linecap="round" stroke-linejoin="round"/>
</svg>
