<svg width="24" height="24" viewBox="0 0 24 24" fill="none" xmlns="http://www.w3.org/2000/svg">
<path d="M22.75 11.75C22.75 17.8251 17.8251 22.75 11.75 22.75C5.67487 22.75 0.75 17.8251 0.75 11.75C0.75 5.67487 5.67487 0.75 11.75 0.75C17.8251 0.75 22.75 5.67487 22.75 11.75Z" stroke="#FB8D00" stroke-width="1.5" stroke-linejoin="round"/>
<path d="M11.7504 17.3611C12.149 17.3608 12.472 17.0372 12.472 16.6384C12.4718 16.2399 12.1489 15.917 11.7504 15.9167C11.3516 15.9167 11.0279 16.2398 11.0277 16.6384C11.0277 17.0373 11.3515 17.3611 11.7504 17.3611Z" fill="#292556" stroke="#FB8D00"/>
<path d="M9 9.19876C9 7.73889 10.2312 6.55542 11.75 6.55542C13.2688 6.55542 14.5 7.73889 14.5 9.19876C14.5 10.0803 14.0511 10.861 13.361 11.3413C12.9784 11.6076 12.5188 11.7658 12.1955 12.1017C11.7989 12.5138 11.7415 13.035 11.75 13.5832" stroke="#FB8D00" stroke-width="1.5" stroke-linecap="round" stroke-linejoin="round"/>
</svg>
