<svg width="22" height="22" viewBox="0 0 22 22" fill="none" xmlns="http://www.w3.org/2000/svg">
<path d="M16.3056 6.30556C16.3056 3.23731 13.8182 0.75 10.75 0.75C7.68175 0.75 5.19444 3.23731 5.19444 6.30556M12.9722 13.5278C12.9722 14.7551 11.9773 15.75 10.75 15.75C9.5227 15.75 8.52778 14.7551 8.52778 13.5278C8.52778 12.3005 9.5227 11.3056 10.75 11.3056C11.9773 11.3056 12.9722 12.3005 12.9722 13.5278ZM7.95 20.75H13.55C16.5498 20.75 18.0497 20.75 19.1011 19.9861C19.4407 19.7394 19.7394 19.4407 19.9861 19.1011C20.75 18.0497 20.75 16.5424 20.75 13.5278C20.75 10.5132 20.75 9.00588 19.9861 7.95441C19.7394 7.61484 19.4407 7.31621 19.1011 7.06949C18.0497 6.30556 16.5498 6.30556 13.55 6.30556H7.95C4.95021 6.30556 3.45032 6.30556 2.39886 7.06949C2.05928 7.31621 1.76065 7.61484 1.51393 7.95441C0.75 9.00588 0.75 10.5132 0.75 13.5278C0.75 16.5424 0.75 18.0497 1.51393 19.1011C1.76065 19.4407 2.05928 19.7394 2.39886 19.9861C3.45032 20.75 4.95021 20.75 7.95 20.75Z" stroke="#F15223" stroke-width="1.5" stroke-linecap="round" stroke-linejoin="round"/>
</svg>
