<svg width="312" height="312" viewBox="0 0 312 312" fill="none" xmlns="http://www.w3.org/2000/svg">
<g style="mix-blend-mode:luminosity" opacity="0.7">
<path d="M108.202 149.685C108.042 149.502 107.871 149.329 107.69 149.167C107.527 148.987 107.354 148.816 107.172 148.655C107.011 148.474 106.84 148.301 106.66 148.138C106.499 147.956 106.326 147.785 106.142 147.626C105.98 147.445 105.805 147.27 105.631 147.108C105.473 146.925 105.302 146.754 105.119 146.596C104.956 146.414 104.783 146.241 104.601 146.078C104.443 145.896 104.272 145.725 104.089 145.567C103.926 145.387 103.753 145.216 103.572 145.055C103.043 144.473 102.426 143.978 101.743 143.589V92.0212C101.743 91.7467 101.612 91.6094 101.612 91.3348C101.646 91.0548 101.598 90.771 101.475 90.5174C101.475 90.3801 101.344 90.1055 101.344 89.9683C101.269 89.6877 101.175 89.4126 101.063 89.1446C100.919 88.9938 100.825 88.8019 100.795 88.5955C100.638 88.349 100.453 88.1208 100.246 87.9153C100.102 87.778 99.9711 87.5097 99.8338 87.3662L99.2847 86.8171C99.2847 86.7359 99.1786 86.6486 99.06 86.5987L98.7917 86.3241H98.7605C98.7605 86.2367 98.6607 86.1556 98.5421 86.0995L98.2676 85.8311C98.2676 85.75 98.1615 85.6627 98.0429 85.6065L97.7746 85.3382C97.7746 85.2508 97.6685 85.1697 97.55 85.1135L97.2816 84.839C97.2816 84.7579 97.1756 84.6705 97.057 84.6143L96.7824 84.346V84.3148C96.7824 84.2337 96.6764 84.1526 96.5578 84.0964L96.2895 83.8219H96.2583C96.2583 83.7407 96.1584 83.6534 96.0399 83.5972L95.7653 83.3289V83.2977C95.7653 83.2166 95.6592 83.1355 95.5407 83.0793L95.2724 82.8047H95.2412C95.2412 82.7174 95.1413 82.6363 95.0228 82.5801L94.7482 82.3118C94.7482 82.2307 94.6421 82.1433 94.5236 82.0934L94.224 81.7939C94.224 81.6566 93.9557 81.5193 93.8122 81.5193C93.813 81.5016 93.8103 81.4839 93.8041 81.4672C93.7979 81.4506 93.7884 81.4354 93.7761 81.4226C93.7638 81.4097 93.7491 81.3995 93.7328 81.3926C93.7165 81.3856 93.6989 81.382 93.6812 81.382C93.4066 81.251 93.2631 81.1075 92.9948 80.9702C92.7587 80.799 92.5317 80.6157 92.3146 80.4211C92.1773 80.4211 91.9028 80.29 91.7655 80.29C91.4909 80.1527 91.0791 80.1527 90.9418 80.0092C90.7054 80.0285 90.4681 79.9832 90.2554 79.8782H87.9341C87.7712 79.9828 87.5776 80.029 87.385 80.0092C86.9732 80.1527 86.7048 80.1527 86.5613 80.29C86.293 80.29 86.1557 80.4211 86.0122 80.7019C85.7192 80.7087 85.4348 80.802 85.1948 80.9702C85.0637 81.1075 84.7829 81.251 84.6456 81.382C84.4633 81.582 84.2271 81.725 83.9655 81.7939C83.8632 82.0007 83.7236 82.1869 83.5536 82.343C83.4164 82.4803 83.4164 82.6113 83.2853 82.6113L32.448 145.392C31.2459 146.835 30.6458 148.686 30.7725 150.561C30.8992 152.435 31.7428 154.188 33.1282 155.457C33.2886 155.646 33.4639 155.821 33.6524 155.981C33.809 156.169 33.9824 156.342 34.1703 156.499C34.3307 156.688 34.506 156.863 34.6944 157.023C34.8527 157.212 35.0259 157.387 35.2124 157.547C35.3728 157.734 35.5481 157.907 35.7365 158.065C35.8947 158.254 36.0679 158.429 36.2544 158.59C36.4149 158.776 36.5902 158.949 36.7786 159.107C36.9368 159.296 37.11 159.471 37.2965 159.632C37.457 159.818 37.6323 159.991 37.8207 160.15C38.1434 160.516 38.503 160.849 38.894 161.142C40.1791 162.259 41.841 162.846 43.5428 162.783H81.432V167.968C81.4208 169.024 81.633 170.07 82.0545 171.038C82.4761 172.006 83.0975 172.873 83.8781 173.584C84.0404 173.759 84.2088 173.927 84.3773 174.083C84.5363 174.261 84.705 174.43 84.8828 174.589C85.045 174.764 85.2135 174.932 85.3882 175.088C85.5472 175.266 85.7159 175.435 85.8936 175.594C86.0559 175.768 86.2244 175.937 86.3991 176.099C86.5565 176.278 86.7253 176.447 86.9045 176.604C87.0605 176.779 87.229 176.948 87.4037 177.11C87.5627 177.288 87.7315 177.456 87.9092 177.615C88.0652 177.784 88.2336 177.952 88.4084 178.115C89.439 179.229 90.7814 180.007 92.2606 180.347C93.7398 180.688 95.2873 180.575 96.7014 180.023C98.1156 179.472 99.3308 178.507 100.189 177.255C101.047 176.003 101.508 174.522 101.512 173.004V162.758H102.885C103.884 162.774 104.876 162.592 105.804 162.221C106.732 161.851 107.577 161.299 108.289 160.599C109.002 159.898 109.568 159.063 109.955 158.142C110.341 157.221 110.541 156.232 110.542 155.232C110.557 154.196 110.357 153.168 109.954 152.213C109.551 151.258 108.954 150.397 108.202 149.685ZM81.4196 120.357V142.472H63.5981L81.4196 120.357Z" fill="#FFC727"/>
<path opacity="0.1" d="M108.202 149.685C108.042 149.502 107.871 149.329 107.69 149.167C107.527 148.987 107.354 148.816 107.172 148.655C107.011 148.474 106.84 148.301 106.66 148.138C106.499 147.956 106.326 147.785 106.142 147.626C105.98 147.445 105.805 147.27 105.631 147.108C105.473 146.925 105.302 146.754 105.119 146.596C104.956 146.414 104.783 146.241 104.601 146.078C104.443 145.896 104.272 145.725 104.089 145.567C103.926 145.387 103.753 145.216 103.572 145.055C103.043 144.473 102.426 143.978 101.743 143.589V92.0212C101.743 91.7467 101.612 91.6094 101.612 91.3348C101.646 91.0548 101.598 90.771 101.475 90.5174C101.475 90.3801 101.344 90.1055 101.344 89.9683C101.269 89.6877 101.175 89.4126 101.063 89.1446C100.919 88.9938 100.825 88.8019 100.795 88.5955C100.638 88.349 100.453 88.1208 100.246 87.9153C100.102 87.778 99.9711 87.5097 99.8338 87.3662L99.2847 86.8171C99.2847 86.7359 99.1786 86.6486 99.06 86.5987L98.7917 86.3241H98.7605C98.7605 86.2367 98.6607 86.1556 98.5421 86.0995L98.2676 85.8311C98.2676 85.75 98.1615 85.6627 98.0429 85.6065L97.7746 85.3382C97.7746 85.2508 97.6685 85.1697 97.55 85.1135L97.2816 84.839C97.2816 84.7579 97.1756 84.6705 97.057 84.6143L96.7824 84.346V84.3148C96.7824 84.2337 96.6764 84.1526 96.5578 84.0964L96.2895 83.8219H96.2583C96.2583 83.7407 96.1584 83.6534 96.0399 83.5972L95.7653 83.3289V83.2977C95.7653 83.2166 95.6592 83.1355 95.5407 83.0793L95.2724 82.8047H95.2412C95.2412 82.7174 95.1413 82.6363 95.0228 82.5801L94.7482 82.3118C94.7482 82.2307 94.6421 82.1433 94.5236 82.0934L94.224 81.7939C94.224 81.6566 93.9557 81.5193 93.8122 81.5193C93.813 81.5016 93.8103 81.4839 93.8041 81.4672C93.7979 81.4506 93.7884 81.4354 93.7761 81.4226C93.7638 81.4097 93.7491 81.3995 93.7328 81.3926C93.7165 81.3856 93.6989 81.382 93.6812 81.382C93.4066 81.251 93.2631 81.1075 92.9948 80.9702C92.7587 80.799 92.5317 80.6157 92.3146 80.4211C92.1773 80.4211 91.9028 80.29 91.7655 80.29C91.4909 80.1527 91.0791 80.1527 90.9418 80.0092C90.7054 80.0285 90.4681 79.9832 90.2554 79.8782H87.9341C87.7712 79.9828 87.5776 80.029 87.385 80.0092C86.9732 80.1527 86.7048 80.1527 86.5613 80.29C86.293 80.29 86.1557 80.4211 86.0122 80.7019C85.7192 80.7087 85.4348 80.802 85.1948 80.9702C85.0637 81.1075 84.7829 81.251 84.6456 81.382C84.4633 81.582 84.2271 81.725 83.9655 81.7939C83.8632 82.0007 83.7236 82.1869 83.5536 82.343C83.4164 82.4803 83.4164 82.6113 83.2853 82.6113L32.448 145.392C31.2459 146.835 30.6458 148.686 30.7725 150.561C30.8992 152.435 31.7428 154.188 33.1282 155.457C33.2886 155.646 33.4639 155.821 33.6524 155.981C33.809 156.169 33.9824 156.342 34.1703 156.499C34.3307 156.688 34.506 156.863 34.6944 157.023C34.8527 157.212 35.0259 157.387 35.2124 157.547C35.3728 157.734 35.5481 157.907 35.7365 158.065C35.8947 158.254 36.0679 158.429 36.2544 158.59C36.4149 158.776 36.5902 158.949 36.7786 159.107C36.9368 159.296 37.11 159.471 37.2965 159.632C37.457 159.818 37.6323 159.991 37.8207 160.15C38.1434 160.516 38.503 160.849 38.894 161.142C40.1791 162.259 41.841 162.846 43.5428 162.783H81.432V167.968C81.4208 169.024 81.633 170.07 82.0545 171.038C82.4761 172.006 83.0975 172.873 83.8781 173.584C84.0404 173.759 84.2088 173.927 84.3773 174.083C84.5363 174.261 84.705 174.43 84.8828 174.589C85.045 174.764 85.2135 174.932 85.3882 175.088C85.5472 175.266 85.7159 175.435 85.8936 175.594C86.0559 175.768 86.2244 175.937 86.3991 176.099C86.5565 176.278 86.7253 176.447 86.9045 176.604C87.0605 176.779 87.229 176.948 87.4037 177.11C87.5627 177.288 87.7315 177.456 87.9092 177.615C88.0652 177.784 88.2336 177.952 88.4084 178.115C89.439 179.229 90.7814 180.007 92.2606 180.347C93.7398 180.688 95.2873 180.575 96.7014 180.023C98.1156 179.472 99.3308 178.507 100.189 177.255C101.047 176.003 101.508 174.522 101.512 173.004V162.758H102.885C103.884 162.774 104.876 162.592 105.804 162.221C106.732 161.851 107.577 161.299 108.289 160.599C109.002 159.898 109.568 159.063 109.955 158.142C110.341 157.221 110.541 156.232 110.542 155.232C110.557 154.196 110.357 153.168 109.954 152.213C109.551 151.258 108.954 150.397 108.202 149.685ZM81.4196 120.357V142.472H63.5981L81.4196 120.357Z" fill="black"/>
<path d="M105.494 150.016C105.493 151.015 105.294 152.005 104.907 152.927C104.519 153.848 103.953 154.684 103.24 155.384C102.526 156.085 101.681 156.636 100.752 157.006C99.8237 157.377 98.8307 157.559 97.8312 157.541H96.4646V167.943C96.4646 169.939 95.6718 171.853 94.2605 173.265C92.8492 174.676 90.9351 175.469 88.9392 175.469C86.9433 175.469 85.0292 174.676 83.6179 173.265C82.2066 171.853 81.4138 169.939 81.4138 167.943V157.541H38.3141C36.6226 157.599 34.9723 157.012 33.6965 155.9C32.906 155.306 32.2441 154.557 31.7508 153.7C31.2576 152.843 30.9431 151.895 30.8265 150.913C30.7098 149.931 30.7934 148.935 31.0722 147.986C31.351 147.037 31.8192 146.155 32.4485 145.392L83.0549 82.424C83.1922 82.424 83.1922 82.293 83.3294 82.1557C83.4994 81.9996 83.639 81.8135 83.7413 81.6066C84.0038 81.5356 84.2415 81.393 84.4277 81.1948C84.5587 81.0575 84.8333 80.9202 84.9706 80.7829C85.2113 80.6107 85.4983 80.515 85.7942 80.5084C85.9315 80.24 86.0688 80.1028 86.3434 80.1028C86.4744 79.9655 86.749 79.9655 87.1608 79.8282C87.3543 79.8487 87.5488 79.8001 87.7099 79.6909H90.0374C90.2458 79.8024 90.4823 79.8502 90.7176 79.8282C90.8549 79.9655 91.2667 79.9655 91.5413 80.1028C91.6786 80.1028 91.9531 80.24 92.0904 80.24C92.3587 80.5084 92.6333 80.6456 92.7706 80.7829C93.0451 80.9202 93.1824 81.0575 93.457 81.1948C93.4934 81.1948 93.5283 81.2092 93.554 81.235C93.5798 81.2607 93.5942 81.2956 93.5942 81.332C93.7315 81.332 94.0061 81.4693 94.0061 81.6066L94.549 82.1557C94.6862 82.293 94.8235 82.5613 94.9608 82.6986C95.1702 82.905 95.3545 83.1354 95.5099 83.385C95.5442 83.5915 95.6399 83.7828 95.7845 83.9341C95.8973 84.1984 95.987 84.4719 96.0528 84.7516C96.0528 84.8888 96.1901 85.1634 96.1901 85.3007C96.3137 85.5565 96.3613 85.8423 96.3274 86.1244C96.3274 86.3927 96.4646 86.53 96.4646 86.8045V142.49H97.8312C99.8428 142.48 101.777 143.266 103.212 144.675C104.647 146.085 105.468 148.004 105.494 150.016ZM81.4138 108.694L54.1886 142.49H81.4138V108.694Z" fill="#FFC727"/>
<path d="M185.534 100.089C183.99 97.7388 182.195 95.5629 180.181 93.5998C180.106 93.5182 180.027 93.4411 179.943 93.3689L179.875 93.3003C179.812 93.2317 179.75 93.163 179.681 93.1006C179.507 92.9134 179.319 92.7387 179.138 92.5577L179.089 92.5141L178.901 92.3269C178.88 92.3024 178.857 92.2795 178.833 92.2582C178.77 92.1896 178.708 92.1209 178.639 92.0585C178.465 91.8713 178.277 91.6966 178.096 91.5157L178.046 91.472L177.859 91.2848L177.791 91.2161C177.728 91.1475 177.666 91.0789 177.597 91.0165C177.422 90.8293 177.235 90.6545 177.054 90.4736L177.004 90.4299L176.817 90.2427C176.817 90.2427 176.773 90.1928 176.749 90.1741C176.687 90.1029 176.62 90.0362 176.549 89.9744C176.38 89.7809 176.193 89.6125 176.012 89.4315L175.962 89.3878C175.905 89.3208 175.842 89.2582 175.775 89.2006C175.775 89.2006 175.731 89.1507 175.706 89.132C170.209 83.4661 163.045 79.7158 155.008 79.7158C144.194 79.7158 135.309 86.1493 129.555 94.8977C123.534 103.634 120.395 115.022 120.258 127.602C120.395 140.082 123.534 151.544 129.555 160.305C131.097 162.621 132.873 164.773 134.853 166.726L135.128 166.995V167.026L135.614 167.513C135.696 167.606 135.783 167.687 135.864 167.768L136.139 168.037L136.17 168.068L136.657 168.555L136.906 168.817L137.181 169.079C137.194 169.086 137.205 169.097 137.212 169.11L137.699 169.597L137.948 169.859L138.223 170.121C138.23 170.125 138.237 170.13 138.242 170.136C138.248 170.143 138.252 170.15 138.254 170.158L138.741 170.645L138.997 170.901L139.265 171.163L139.302 171.2L139.789 171.687C145.193 177.085 152.169 180.71 160.188 180.71C170.721 180.71 179.75 174.139 185.503 165.516C191.381 156.78 194.67 145.267 194.67 132.818C194.689 120.207 191.413 108.85 185.534 100.089ZM167.732 151.8C163.763 157.678 159.245 160.28 155.008 160.28C152.401 160.217 149.878 159.345 147.789 157.784C147.595 157.535 147.408 157.273 147.221 156.998C143.389 151.251 140.65 142.496 140.65 132.781C140.65 122.928 143.389 114.31 147.221 108.445C151.333 102.698 155.957 99.9646 160.219 100.096C162.689 100.084 165.097 100.872 167.083 102.342C167.301 102.635 167.513 102.922 167.707 103.228C171.538 109.112 174.271 117.73 174.271 127.564C174.296 137.28 171.563 146.047 167.732 151.8Z" fill="#FFC727"/>
<path opacity="0.1" d="M185.534 100.089C183.99 97.7388 182.195 95.5629 180.181 93.5998C180.106 93.5182 180.027 93.4411 179.943 93.3689L179.875 93.3003C179.812 93.2317 179.75 93.163 179.681 93.1006C179.507 92.9134 179.319 92.7387 179.138 92.5577L179.089 92.5141L178.901 92.3269C178.88 92.3024 178.857 92.2795 178.833 92.2582C178.77 92.1896 178.708 92.1209 178.639 92.0585C178.465 91.8713 178.277 91.6966 178.096 91.5157L178.046 91.472L177.859 91.2848L177.791 91.2161C177.728 91.1475 177.666 91.0789 177.597 91.0165C177.422 90.8293 177.235 90.6545 177.054 90.4736L177.004 90.4299L176.817 90.2427C176.817 90.2427 176.773 90.1928 176.749 90.1741C176.687 90.1029 176.62 90.0362 176.549 89.9744C176.38 89.7809 176.193 89.6125 176.012 89.4315L175.962 89.3878C175.905 89.3208 175.842 89.2582 175.775 89.2006C175.775 89.2006 175.731 89.1507 175.706 89.132C170.209 83.4661 163.045 79.7158 155.008 79.7158C144.194 79.7158 135.309 86.1493 129.555 94.8977C123.534 103.634 120.395 115.022 120.258 127.602C120.395 140.082 123.534 151.544 129.555 160.305C131.097 162.621 132.873 164.773 134.853 166.726L135.128 166.995V167.026L135.614 167.513C135.696 167.606 135.783 167.687 135.864 167.768L136.139 168.037L136.17 168.068L136.657 168.555L136.906 168.817L137.181 169.079C137.194 169.086 137.205 169.097 137.212 169.11L137.699 169.597L137.948 169.859L138.223 170.121C138.23 170.125 138.237 170.13 138.242 170.136C138.248 170.143 138.252 170.15 138.254 170.158L138.741 170.645L138.997 170.901L139.265 171.163L139.302 171.2L139.789 171.687C145.193 177.085 152.169 180.71 160.188 180.71C170.721 180.71 179.75 174.139 185.503 165.516C191.381 156.78 194.67 145.267 194.67 132.818C194.689 120.207 191.413 108.85 185.534 100.089ZM167.732 151.8C163.763 157.678 159.245 160.28 155.008 160.28C152.401 160.217 149.878 159.345 147.789 157.784C147.595 157.535 147.408 157.273 147.221 156.998C143.389 151.251 140.65 142.496 140.65 132.781C140.65 122.928 143.389 114.31 147.221 108.445C151.333 102.698 155.957 99.9646 160.219 100.096C162.689 100.084 165.097 100.872 167.083 102.342C167.301 102.635 167.513 102.922 167.707 103.228C171.538 109.112 174.271 117.73 174.271 127.564C174.296 137.28 171.563 146.047 167.732 151.8Z" fill="black"/>
<path d="M120.252 127.577C120.389 114.991 123.54 103.634 129.556 94.8791C135.303 86.1431 144.195 79.6909 155.009 79.6909C165.542 79.6909 174.571 86.1244 180.318 94.8791C186.203 103.615 189.485 114.991 189.485 127.577C189.485 140.057 186.203 151.526 180.318 160.281C174.571 168.898 165.542 175.469 155.009 175.469C144.195 175.469 135.303 168.898 129.556 160.281C123.553 151.526 120.389 140.032 120.252 127.577ZM174.297 127.577C174.297 117.73 171.563 109.106 167.732 103.241C163.763 97.4936 159.252 94.7605 155.009 94.8978C150.766 94.7605 146.111 97.4936 142.011 103.241C138.179 109.125 135.44 117.749 135.44 127.577C135.44 137.292 138.179 146.053 142.011 151.794C146.111 157.678 150.747 160.281 155.009 160.281C159.271 160.281 163.745 157.678 167.732 151.794C171.563 146.053 174.297 137.28 174.297 127.577Z" fill="#FFC727"/>
<path d="M278.748 149.685C278.585 149.504 278.411 149.329 278.236 149.167C278.068 148.986 277.893 148.818 277.718 148.655C277.55 148.474 277.381 148.3 277.206 148.138C277.038 147.957 276.863 147.782 276.688 147.626C276.52 147.445 276.352 147.27 276.177 147.108C276.008 146.927 275.834 146.752 275.659 146.596C275.49 146.415 275.316 146.241 275.147 146.078C274.986 145.899 274.815 145.728 274.636 145.567C274.467 145.386 274.292 145.217 274.118 145.055C273.589 144.471 272.969 143.976 272.283 143.589V92.0212C272.283 91.7467 272.152 91.6094 272.152 91.3348C272.186 91.0548 272.138 90.771 272.015 90.5174C272.015 90.3801 271.884 90.1055 271.884 89.9683C271.809 89.6877 271.715 89.4126 271.603 89.1446C271.461 88.992 271.368 88.801 271.335 88.5955C271.18 88.3475 270.995 88.1191 270.785 87.9153C270.642 87.778 270.511 87.5097 270.374 87.3662L269.825 86.8171C269.825 86.7359 269.718 86.6486 269.6 86.5987L269.332 86.3241H269.3C269.3 86.2367 269.201 86.1556 269.082 86.0995L268.807 85.8311C268.807 85.75 268.701 85.6627 268.583 85.6065L268.314 85.3382C268.314 85.2508 268.208 85.1697 268.09 85.1135L267.821 84.839C267.821 84.7579 267.715 84.6705 267.597 84.6143L267.322 84.346V84.3148C267.322 84.2337 267.216 84.1526 267.098 84.0964L266.829 83.8219H266.798C266.798 83.7407 266.698 83.6534 266.58 83.5972L266.305 83.3289V83.2977C266.305 83.2166 266.199 83.1355 266.08 83.0793L265.812 82.8047H265.781C265.781 82.7174 265.681 82.6363 265.563 82.5801L265.288 82.3118C265.288 82.2307 265.182 82.1433 265.063 82.0934L264.764 81.7939C264.764 81.6566 264.496 81.5193 264.352 81.5193C264.352 81.5013 264.348 81.4834 264.342 81.4668C264.335 81.4501 264.325 81.435 264.312 81.4222C264.299 81.4095 264.284 81.3994 264.267 81.3925C264.251 81.3856 264.233 81.382 264.215 81.382C263.946 81.251 263.803 81.1075 263.535 80.9702C263.299 80.799 263.072 80.6157 262.854 80.4211C262.717 80.4211 262.443 80.29 262.305 80.29C262.031 80.1527 261.625 80.1527 261.482 80.0092C261.245 80.0291 261.008 79.9838 260.795 79.8782H258.474C258.311 79.9828 258.117 80.029 257.925 80.0092C257.513 80.1527 257.245 80.1527 257.101 80.29C256.833 80.29 256.696 80.4211 256.552 80.7019C256.259 80.7094 255.975 80.8027 255.735 80.9702C255.604 81.1075 255.323 81.251 255.192 81.382C255.006 81.5803 254.768 81.7229 254.505 81.7939C254.401 81.9994 254.262 82.1853 254.093 82.343C253.956 82.4803 253.956 82.6113 253.825 82.6113L202.975 145.392C201.773 146.835 201.173 148.686 201.3 150.561C201.426 152.435 202.27 154.188 203.656 155.457C203.816 155.646 203.991 155.821 204.18 155.981C204.336 156.169 204.51 156.342 204.698 156.499C204.858 156.688 205.033 156.863 205.222 157.023C205.745 157.542 206.265 158.064 206.782 158.59C207.133 158.933 207.481 159.28 207.824 159.632C207.984 159.818 208.16 159.991 208.348 160.15C208.671 160.516 209.03 160.849 209.421 161.142C210.706 162.259 212.368 162.846 214.07 162.783H251.959V167.968C251.948 169.024 252.16 170.07 252.582 171.038C253.003 172.006 253.625 172.873 254.405 173.584C254.568 173.765 254.742 173.934 254.911 174.09C255.067 174.264 255.235 174.427 255.41 174.589C255.571 174.767 255.742 174.935 255.922 175.094C256.084 175.269 256.246 175.431 256.421 175.594C256.583 175.774 256.758 175.943 256.933 176.105C257.095 176.28 257.257 176.448 257.432 176.604C257.594 176.785 257.769 176.954 257.944 177.116C258.106 177.291 258.268 177.459 258.443 177.615C258.602 177.795 258.77 177.966 258.948 178.127C259.979 179.242 261.322 180.02 262.802 180.36C264.282 180.7 265.83 180.587 267.244 180.035C268.659 179.483 269.874 178.517 270.731 177.264C271.589 176.011 272.049 174.529 272.052 173.01V162.758H273.425C274.425 162.775 275.418 162.594 276.347 162.223C277.276 161.853 278.122 161.302 278.836 160.601C279.549 159.901 280.117 159.066 280.504 158.144C280.892 157.222 281.092 156.232 281.094 155.232C281.108 154.196 280.907 153.167 280.503 152.212C280.099 151.258 279.502 150.397 278.748 149.685ZM251.959 120.357V142.472H234.138L251.959 120.357Z" fill="#FFC727"/>
<path opacity="0.1" d="M278.748 149.685C278.585 149.504 278.411 149.329 278.236 149.167C278.068 148.986 277.893 148.818 277.718 148.655C277.55 148.474 277.381 148.3 277.206 148.138C277.038 147.957 276.863 147.782 276.688 147.626C276.52 147.445 276.352 147.27 276.177 147.108C276.008 146.927 275.834 146.752 275.659 146.596C275.49 146.415 275.316 146.241 275.147 146.078C274.986 145.899 274.815 145.728 274.636 145.567C274.467 145.386 274.292 145.217 274.118 145.055C273.589 144.471 272.969 143.976 272.283 143.589V92.0212C272.283 91.7467 272.152 91.6094 272.152 91.3348C272.186 91.0548 272.138 90.771 272.015 90.5174C272.015 90.3801 271.884 90.1055 271.884 89.9683C271.809 89.6877 271.715 89.4126 271.603 89.1446C271.461 88.992 271.368 88.801 271.335 88.5955C271.18 88.3475 270.995 88.1191 270.785 87.9153C270.642 87.778 270.511 87.5097 270.374 87.3662L269.825 86.8171C269.825 86.7359 269.718 86.6486 269.6 86.5987L269.332 86.3241H269.3C269.3 86.2367 269.201 86.1556 269.082 86.0995L268.807 85.8311C268.807 85.75 268.701 85.6627 268.583 85.6065L268.314 85.3382C268.314 85.2508 268.208 85.1697 268.09 85.1135L267.821 84.839C267.821 84.7579 267.715 84.6705 267.597 84.6143L267.322 84.346V84.3148C267.322 84.2337 267.216 84.1526 267.098 84.0964L266.829 83.8219H266.798C266.798 83.7407 266.698 83.6534 266.58 83.5972L266.305 83.3289V83.2977C266.305 83.2166 266.199 83.1355 266.08 83.0793L265.812 82.8047H265.781C265.781 82.7174 265.681 82.6363 265.563 82.5801L265.288 82.3118C265.288 82.2307 265.182 82.1433 265.063 82.0934L264.764 81.7939C264.764 81.6566 264.496 81.5193 264.352 81.5193C264.352 81.5013 264.348 81.4834 264.342 81.4668C264.335 81.4501 264.325 81.435 264.312 81.4222C264.299 81.4095 264.284 81.3994 264.267 81.3925C264.251 81.3856 264.233 81.382 264.215 81.382C263.946 81.251 263.803 81.1075 263.535 80.9702C263.299 80.799 263.072 80.6157 262.854 80.4211C262.717 80.4211 262.443 80.29 262.305 80.29C262.031 80.1527 261.625 80.1527 261.482 80.0092C261.245 80.0291 261.008 79.9838 260.795 79.8782H258.474C258.311 79.9828 258.117 80.029 257.925 80.0092C257.513 80.1527 257.245 80.1527 257.101 80.29C256.833 80.29 256.696 80.4211 256.552 80.7019C256.259 80.7094 255.975 80.8027 255.735 80.9702C255.604 81.1075 255.323 81.251 255.192 81.382C255.006 81.5803 254.768 81.7229 254.505 81.7939C254.401 81.9994 254.262 82.1853 254.093 82.343C253.956 82.4803 253.956 82.6113 253.825 82.6113L202.975 145.392C201.773 146.835 201.173 148.686 201.3 150.561C201.426 152.435 202.27 154.188 203.656 155.457C203.816 155.646 203.991 155.821 204.18 155.981C204.336 156.169 204.51 156.342 204.698 156.499C204.858 156.688 205.033 156.863 205.222 157.023C205.745 157.542 206.265 158.064 206.782 158.59C207.133 158.933 207.481 159.28 207.824 159.632C207.984 159.818 208.16 159.991 208.348 160.15C208.671 160.516 209.03 160.849 209.421 161.142C210.706 162.259 212.368 162.846 214.07 162.783H251.959V167.968C251.948 169.024 252.16 170.07 252.582 171.038C253.003 172.006 253.625 172.873 254.405 173.584C254.568 173.765 254.742 173.934 254.911 174.09C255.067 174.264 255.235 174.427 255.41 174.589C255.571 174.767 255.742 174.935 255.922 175.094C256.084 175.269 256.246 175.431 256.421 175.594C256.583 175.774 256.758 175.943 256.933 176.105C257.095 176.28 257.257 176.448 257.432 176.604C257.594 176.785 257.769 176.954 257.944 177.116C258.106 177.291 258.268 177.459 258.443 177.615C258.602 177.795 258.77 177.966 258.948 178.127C259.979 179.242 261.322 180.02 262.802 180.36C264.282 180.7 265.83 180.587 267.244 180.035C268.659 179.483 269.874 178.517 270.731 177.264C271.589 176.011 272.049 174.529 272.052 173.01V162.758H273.425C274.425 162.775 275.418 162.594 276.347 162.223C277.276 161.853 278.122 161.302 278.836 160.601C279.549 159.901 280.117 159.066 280.504 158.144C280.892 157.222 281.092 156.232 281.094 155.232C281.108 154.196 280.907 153.167 280.503 152.212C280.099 151.258 279.502 150.397 278.748 149.685ZM251.959 120.357V142.472H234.138L251.959 120.357Z" fill="black"/>
<path d="M276.032 150.016C276.031 151.015 275.832 152.005 275.445 152.927C275.058 153.848 274.491 154.684 273.778 155.384C273.064 156.085 272.219 156.636 271.29 157.006C270.362 157.377 269.369 157.559 268.369 157.541H267.003V167.943C267.003 169.939 266.21 171.853 264.799 173.265C263.387 174.676 261.473 175.469 259.477 175.469C257.481 175.469 255.567 174.676 254.156 173.265C252.745 171.853 251.952 169.939 251.952 167.943V157.541H208.852C207.15 157.607 205.487 157.02 204.203 155.9C203.409 155.306 202.744 154.556 202.248 153.697C201.753 152.837 201.437 151.886 201.32 150.901C201.204 149.916 201.288 148.917 201.569 147.966C201.851 147.015 202.322 146.13 202.955 145.367L253.593 82.424C253.73 82.424 253.73 82.293 253.868 82.1557C254.037 81.9996 254.177 81.8135 254.279 81.6066C254.542 81.5356 254.78 81.393 254.966 81.1948C255.103 81.0575 255.378 80.9202 255.515 80.7829C255.753 80.6098 256.038 80.5139 256.332 80.5084C256.47 80.24 256.607 80.1028 256.875 80.1028C257.012 79.9655 257.287 79.9655 257.699 79.8282C257.892 79.8487 258.087 79.8001 258.248 79.6909H260.576C260.784 79.8024 261.02 79.8502 261.256 79.8282C261.393 79.9655 261.805 79.9655 262.079 80.1028C262.217 80.1028 262.491 80.24 262.628 80.24C262.903 80.5084 263.171 80.6456 263.309 80.7829C263.583 80.9202 263.72 81.0575 263.995 81.1948C264.031 81.1948 264.066 81.2092 264.092 81.235C264.118 81.2607 264.132 81.2956 264.132 81.332C264.27 81.332 264.538 81.4693 264.538 81.6066L265.087 82.1557C265.224 82.293 265.362 82.5613 265.499 82.6986C265.708 82.905 265.893 83.1354 266.048 83.385C266.082 83.5915 266.178 83.7828 266.323 83.9341C266.435 84.1992 266.527 84.4724 266.597 84.7516C266.597 84.8888 266.728 85.1634 266.728 85.3007C266.852 85.5565 266.899 85.8423 266.865 86.1244C266.865 86.3927 267.003 86.53 267.003 86.8045V142.49H268.369C270.381 142.48 272.315 143.266 273.75 144.675C275.186 146.085 276.006 148.004 276.032 150.016ZM251.952 108.694L224.727 142.49H251.952V108.694Z" fill="#FFC727"/>
<path d="M174.888 157.716C174.866 157.859 174.895 158.005 174.969 158.129C175.043 158.253 175.158 158.347 175.293 158.396C175.949 158.496 176.747 158.602 177.633 158.727C180.273 152.999 182.969 148.487 182.207 150.272C181.045 153.076 180.282 156.029 179.942 159.045C180.972 159.182 183.374 159.476 184.572 159.619C187.33 149.398 190.369 141.885 190.014 144.244C188.566 153.76 188.822 156.867 189.152 160.193C200.341 161.554 215.036 163.164 225.688 164.081C227.429 158.465 229.057 152.325 229.207 152.774C230.374 156.112 230.349 160.83 230.056 164.449C233.45 164.717 236.171 164.861 237.837 164.861C237.837 164.861 239.085 160.106 239.31 158.534C239.978 154.51 239.94 150.401 239.197 146.39C238.43 142.297 236.795 138.615 235.266 134.853C235.261 134.829 235.255 134.807 235.247 134.784C234.233 132.319 233.505 129.746 233.076 127.115C233.072 127.095 233.072 127.073 233.076 127.053C232.791 125.134 232.667 123.195 232.708 121.256C232.845 114.155 229.663 107.771 223.616 105.462C213.289 94.9105 199.105 99.7527 195.099 108.676C193.533 112.676 191.979 117.899 190.625 121.923C190.629 121.93 190.631 121.938 190.631 121.945C190.631 121.953 190.629 121.96 190.625 121.967C190.114 123.546 189.508 125.092 188.809 126.597C185.096 133.786 177.945 137.492 174.888 157.716Z" fill="#263238"/>
<path d="M226.106 107.559C229.981 110.124 232.19 113.624 232.346 118.828C232.446 121.861 232.346 124.813 233.201 127.727C234.056 130.734 235.603 133.268 237.207 135.795C239.747 139.814 241.419 143.757 241.413 148.849C241.406 153.941 240.639 160.081 238.586 164.755C238.586 164.786 238.536 164.755 238.549 164.755C240.296 159.981 240.932 153.255 240.577 148.1C240.183 142.434 237.538 138.703 234.879 134.229C232.738 130.677 231.553 126.631 231.441 122.485C231.366 119.914 231.641 117.262 230.892 114.791C230.006 111.846 227.884 109.855 225.763 108.077C225.482 107.821 225.813 107.366 226.106 107.559Z" fill="#263238"/>
<path d="M181.183 134.041C184.416 130.241 187.717 127.04 189.851 122.185C191.792 117.761 193.096 113.038 195.061 108.626C195.061 108.551 195.192 108.588 195.161 108.67C192.041 116.532 190.843 124.607 185.389 131.015C182.419 134.497 179.48 137.711 177.346 141.985C175.164 146.493 173.799 151.352 173.315 156.337C173.315 156.512 173.084 156.487 173.084 156.337C173.081 148.184 175.948 140.291 181.183 134.041Z" fill="#263238"/>
<path d="M149.759 230.88C149.759 230.88 179.879 238.992 184.859 238.119C189.838 237.245 206.649 214.619 210.381 206.413C214.112 198.208 220.308 157.385 219.117 152.893C217.925 148.4 211.691 148.337 206.431 159.919C201.17 171.5 188.734 196.96 186.519 199.056C184.304 201.153 147.332 228.709 149.759 230.88Z" fill="#DD6A57"/>
<path d="M182.245 235.435C177.628 233.02 172.005 227.161 168.174 226.549C167.237 226.366 166.265 226.489 165.404 226.9C164.542 227.312 163.835 227.989 163.388 228.833C163.388 228.833 161.628 224.921 158.059 224.94C156.231 224.94 154.633 227.885 154.633 227.885C154.633 227.885 153.079 224.808 149.916 225.021C147.389 225.189 146.172 228.109 146.172 228.109C146.172 228.109 143.314 225.851 140.793 226.861C135.689 228.877 134.84 250.573 142.702 254.243C146.365 255.952 146.284 250.642 146.284 250.642C146.284 250.642 148.243 258.255 152.711 258.542C157.179 258.829 156.661 251.94 156.661 251.94C156.661 251.94 158.627 259.297 163.288 259.128C168.143 258.96 166.446 252.152 166.446 252.152C166.446 252.152 169.528 257.107 173.066 256.158C178.913 254.598 172.629 242.855 173.952 238.131H181.297L182.245 235.435Z" fill="#DD6A57"/>
<path d="M175.58 230.818C180.154 232.727 185.371 225.507 190.076 227.186C196.178 229.364 190.537 236.895 181.29 238.118H173.945L175.58 230.818Z" fill="#DD6A57"/>
<path d="M145.904 228.54C145.904 228.525 145.898 228.511 145.887 228.5C145.877 228.49 145.863 228.484 145.848 228.484C145.833 228.484 145.819 228.49 145.808 228.5C145.797 228.511 145.792 228.525 145.792 228.54C143.776 235.61 143.72 243.997 146.247 250.948C146.328 251.173 146.74 251.141 146.696 250.873C145.461 243.185 144.974 236.284 145.904 228.54Z" fill="#263238"/>
<path d="M154.589 227.76C154.589 227.673 154.457 227.654 154.433 227.76C152.392 235.061 152.561 244.502 156.448 252.177C156.579 252.439 156.966 252.539 156.835 252.227C154.657 246.936 153.715 234.743 154.589 227.76Z" fill="#263238"/>
<path d="M166.895 252.608C163.481 245.12 162.814 237.276 163.288 229.127C163.288 229.021 163.144 229.021 163.113 229.127C161.797 233.052 162.04 238.275 162.57 242.324C162.985 246.083 164.377 249.667 166.608 252.72C166.72 252.851 166.97 252.77 166.895 252.608Z" fill="#263238"/>
<path d="M190.438 226.612C187.443 225.614 184.367 228.01 181.846 229.351C181.039 229.831 180.189 230.235 179.306 230.556C177.309 231.18 175.83 230.78 174.938 230.225C173.54 229.333 169.179 224.977 166.027 226.425C164.94 226.933 164.009 227.724 163.332 228.715C162.371 226.968 161.141 225.064 159.014 224.715C158.545 224.635 158.064 224.656 157.604 224.775C157.144 224.895 156.714 225.11 156.343 225.408C155.946 225.714 155.594 226.073 155.295 226.475C154.998 226.836 154.755 227.237 154.571 227.666C154.57 227.652 154.57 227.637 154.571 227.623L154.502 227.492L154.371 227.223C154.193 226.864 153.94 226.547 153.628 226.294C153.569 226.233 153.498 226.185 153.42 226.153C153.342 226.121 153.258 226.105 153.173 226.106C153.16 226.106 153.147 226.112 153.138 226.121C153.128 226.13 153.123 226.143 153.123 226.156C153.123 226.17 153.128 226.182 153.138 226.192C153.147 226.201 153.16 226.206 153.173 226.206C153.319 226.276 153.438 226.392 153.51 226.537C153.61 226.687 153.703 226.843 153.809 226.986C153.916 227.13 154.015 227.28 154.121 227.423L154.277 227.654L154.346 227.773C154.376 227.811 154.41 227.846 154.446 227.879C154.455 227.89 154.466 227.9 154.479 227.906C154.492 227.913 154.506 227.916 154.521 227.916C154.535 227.916 154.55 227.913 154.563 227.906C154.576 227.9 154.587 227.89 154.596 227.879C154.917 227.593 155.207 227.275 155.463 226.93C155.777 226.565 156.126 226.23 156.505 225.932C156.865 225.654 157.279 225.454 157.721 225.347C158.163 225.239 158.622 225.226 159.07 225.308C160.979 225.682 162.19 227.379 163.207 228.896C163.207 228.896 163.207 228.896 163.238 228.896C163.207 228.946 163.276 228.989 163.313 228.952C164.361 228.035 165.36 227.005 166.807 226.793C168.367 226.562 169.846 227.311 171.138 228.097C171.785 228.478 172.41 228.894 173.01 229.345C173.54 229.757 174.046 230.219 174.614 230.593C177.041 232.122 179.699 230.936 180.361 230.655C181.665 230.068 182.93 229.397 184.148 228.646C185.373 227.825 186.754 227.266 188.204 227.005C188.87 226.907 189.55 226.979 190.181 227.215C190.812 227.45 191.373 227.842 191.811 228.353C192.267 228.939 192.847 230.038 191.655 232.54C191.655 232.54 191.655 232.59 191.692 232.571C192.316 231.922 194.301 227.904 190.438 226.612Z" fill="#263238"/>
<path d="M216.751 190.807L188.328 186.264C188.328 186.264 201.906 159.376 210.062 151.576C218.112 143.876 222.03 151.763 220.845 163.657C219.534 176.842 216.751 190.807 216.751 190.807Z" fill="#37474F"/>
<path d="M215.828 185.515C215.029 185.328 214.212 185.209 213.413 185.028C212.614 184.848 211.847 184.735 211.06 184.617C209.457 184.367 207.847 184.142 206.243 183.924C203.073 183.487 199.903 183.007 196.721 182.676C194.911 182.476 193.114 182.202 191.298 182.052C191.242 182.052 191.236 182.139 191.298 182.152C194.45 182.888 197.657 183.4 200.852 183.955C204.047 184.511 207.192 184.96 210.374 185.303C211.266 185.403 212.165 185.515 213.057 185.559C213.95 185.603 214.898 185.69 215.815 185.702C215.84 185.704 215.865 185.696 215.883 185.679C215.902 185.663 215.914 185.64 215.915 185.615C215.917 185.59 215.909 185.566 215.892 185.547C215.876 185.528 215.853 185.517 215.828 185.515Z" fill="#263238"/>
<path d="M200.927 238.368H276.2C276.2 238.368 244.913 160.718 229.007 149.373C224.233 145.966 216.627 145.586 211.498 152.425C207.292 158.041 195.617 180.349 195.086 188.373C194.556 196.398 200.852 204.329 200.852 204.329L200.927 238.368Z" fill="#455A64"/>
<path d="M225.85 185.752C226.043 185.702 226.23 185.677 226.417 185.64C226.583 185.603 226.754 185.603 226.919 185.64C227.084 185.678 227.238 185.753 227.371 185.858C227.503 185.963 227.61 186.097 227.684 186.25C227.757 186.402 227.796 186.569 227.796 186.738C227.792 186.889 227.826 187.038 227.896 187.171C227.966 187.305 228.069 187.418 228.196 187.5C228.337 187.589 228.498 187.644 228.664 187.662C228.855 187.69 229.044 187.727 229.232 187.774C229.044 187.824 228.857 187.849 228.664 187.886C228.455 187.928 228.238 187.908 228.04 187.83C227.829 187.74 227.649 187.59 227.524 187.397C227.398 187.205 227.332 186.98 227.335 186.751C227.331 186.601 227.29 186.454 227.215 186.324C227.139 186.194 227.033 186.086 226.904 186.008C226.756 185.927 226.592 185.878 226.424 185.865C226.23 185.827 226.043 185.802 225.85 185.752Z" fill="white"/>
<path d="M197.059 185.752C197.246 185.702 197.433 185.677 197.62 185.64C197.785 185.603 197.957 185.603 198.122 185.64C198.287 185.678 198.441 185.753 198.573 185.858C198.706 185.963 198.813 186.097 198.887 186.25C198.96 186.402 198.999 186.569 198.999 186.738C198.996 186.889 199.031 187.039 199.102 187.172C199.173 187.305 199.278 187.418 199.405 187.5C199.546 187.59 199.706 187.646 199.873 187.662C200.06 187.699 200.247 187.718 200.434 187.774C200.247 187.824 200.06 187.849 199.873 187.886C199.664 187.927 199.447 187.907 199.249 187.83C199.039 187.738 198.861 187.587 198.736 187.395C198.61 187.204 198.544 186.98 198.544 186.751C198.54 186.601 198.499 186.454 198.424 186.324C198.348 186.194 198.242 186.086 198.113 186.008C197.965 185.926 197.801 185.877 197.633 185.865C197.433 185.827 197.246 185.802 197.059 185.752Z" fill="white"/>
<path d="M236.309 223.155C236.496 223.105 236.689 223.08 236.876 223.043C237.041 223.007 237.212 223.009 237.376 223.048C237.541 223.087 237.694 223.163 237.825 223.268C237.957 223.374 238.063 223.508 238.136 223.66C238.21 223.812 238.248 223.978 238.249 224.147C238.248 224.298 238.284 224.447 238.355 224.58C238.426 224.713 238.529 224.826 238.655 224.908C238.797 224.995 238.957 225.049 239.123 225.064C239.31 225.102 239.503 225.127 239.691 225.177C239.503 225.233 239.31 225.258 239.123 225.295C238.913 225.334 238.697 225.313 238.499 225.233C238.288 225.142 238.107 224.992 237.981 224.8C237.855 224.608 237.787 224.383 237.787 224.153C237.786 224.004 237.746 223.857 237.671 223.728C237.595 223.598 237.487 223.491 237.357 223.417C237.212 223.332 237.05 223.283 236.883 223.273C236.689 223.236 236.496 223.211 236.309 223.155Z" fill="white"/>
<path d="M249.324 187.774C249.511 187.718 249.705 187.699 249.892 187.662C250.057 187.624 250.228 187.624 250.393 187.662C250.557 187.7 250.711 187.774 250.843 187.88C250.975 187.985 251.082 188.119 251.155 188.272C251.228 188.424 251.265 188.591 251.265 188.76C251.263 188.911 251.299 189.06 251.37 189.193C251.44 189.326 251.544 189.439 251.67 189.521C251.811 189.612 251.972 189.666 252.138 189.677C252.326 189.721 252.519 189.74 252.706 189.796C252.519 189.846 252.326 189.871 252.138 189.908C251.929 189.95 251.713 189.931 251.514 189.852C251.303 189.762 251.123 189.611 250.997 189.419C250.87 189.227 250.803 189.002 250.803 188.773C250.802 188.622 250.762 188.475 250.686 188.344C250.611 188.214 250.503 188.106 250.373 188.03C250.227 187.948 250.065 187.899 249.898 187.887C249.705 187.824 249.511 187.824 249.324 187.774Z" fill="white"/>
<path d="M216.047 168.748C216.24 168.698 216.428 168.673 216.615 168.636C216.823 168.591 217.039 168.606 217.239 168.68C217.455 168.761 217.642 168.905 217.775 169.095C217.907 169.284 217.979 169.509 217.981 169.741C217.981 169.891 218.017 170.039 218.088 170.172C218.159 170.305 218.262 170.418 218.387 170.502C218.53 170.586 218.69 170.639 218.855 170.658C219.048 170.695 219.236 170.72 219.423 170.77C219.236 170.826 219.048 170.845 218.855 170.889C218.645 170.925 218.429 170.903 218.231 170.826C218.017 170.735 217.835 170.582 217.709 170.386C217.584 170.19 217.52 169.961 217.526 169.728C217.523 169.579 217.482 169.433 217.406 169.304C217.331 169.175 217.224 169.067 217.095 168.992C216.949 168.906 216.784 168.855 216.615 168.842C216.428 168.823 216.24 168.805 216.047 168.748Z" fill="white"/>
<path d="M236.533 168.318C236.72 168.268 236.908 168.243 237.101 168.205C237.309 168.162 237.525 168.177 237.725 168.249C237.941 168.331 238.128 168.476 238.262 168.665C238.395 168.854 238.469 169.079 238.474 169.31C238.471 169.461 238.507 169.61 238.578 169.743C238.649 169.876 238.753 169.989 238.879 170.071C239.021 170.159 239.181 170.212 239.347 170.227C239.535 170.265 239.722 170.29 239.915 170.34C239.722 170.396 239.535 170.421 239.347 170.458C239.138 170.498 238.921 170.476 238.723 170.396C238.512 170.305 238.332 170.155 238.206 169.963C238.079 169.771 238.012 169.546 238.012 169.316C238.01 169.167 237.969 169.02 237.894 168.891C237.818 168.762 237.711 168.655 237.582 168.58C237.437 168.495 237.274 168.446 237.107 168.436C236.914 168.407 236.722 168.367 236.533 168.318Z" fill="white"/>
<path d="M223.273 148.656C223.461 148.606 223.654 148.581 223.841 148.543C224.006 148.506 224.177 148.506 224.342 148.544C224.507 148.581 224.661 148.656 224.793 148.761C224.924 148.867 225.031 149.001 225.104 149.153C225.177 149.306 225.215 149.472 225.214 149.641C225.211 149.792 225.246 149.942 225.317 150.075C225.388 150.209 225.492 150.321 225.62 150.403C225.761 150.493 225.921 150.548 226.088 150.565C226.275 150.602 226.468 150.621 226.656 150.677C226.468 150.727 226.275 150.752 226.088 150.79C225.879 150.832 225.662 150.812 225.464 150.733C225.252 150.643 225.072 150.492 224.946 150.301C224.819 150.109 224.752 149.884 224.752 149.654C224.751 149.503 224.711 149.356 224.635 149.226C224.56 149.095 224.452 148.987 224.322 148.911C224.176 148.83 224.014 148.781 223.848 148.768C223.654 148.73 223.461 148.705 223.273 148.656Z" fill="white"/>
<path d="M211.023 201.402C211.211 201.353 211.398 201.328 211.585 201.29C211.793 201.244 212.01 201.259 212.209 201.334C212.426 201.413 212.613 201.557 212.747 201.745C212.881 201.933 212.954 202.157 212.958 202.388C212.954 202.539 212.99 202.689 213.061 202.822C213.132 202.955 213.236 203.068 213.363 203.15C213.504 203.241 213.665 203.296 213.831 203.312C214.019 203.349 214.206 203.374 214.393 203.424C214.206 203.48 214.019 203.499 213.831 203.537C213.622 203.577 213.406 203.558 213.207 203.48C212.998 203.388 212.819 203.237 212.694 203.045C212.569 202.854 212.502 202.63 212.502 202.401C212.499 202.251 212.457 202.104 212.382 201.974C212.307 201.845 212.2 201.736 212.072 201.658C211.923 201.577 211.76 201.529 211.591 201.515C211.398 201.477 211.211 201.459 211.023 201.402Z" fill="white"/>
<path d="M233.375 235.679C233.562 235.623 233.756 235.598 233.943 235.56C234.108 235.525 234.279 235.527 234.443 235.566C234.607 235.605 234.76 235.68 234.892 235.786C235.023 235.892 235.13 236.026 235.203 236.178C235.276 236.33 235.315 236.496 235.316 236.665C235.314 236.815 235.35 236.964 235.421 237.097C235.492 237.23 235.595 237.343 235.721 237.426C235.862 237.516 236.023 237.569 236.189 237.582C236.376 237.619 236.57 237.644 236.757 237.694C236.57 237.75 236.376 237.775 236.189 237.813C235.98 237.852 235.763 237.83 235.565 237.75C235.353 237.661 235.173 237.51 235.046 237.318C234.92 237.126 234.853 236.901 234.854 236.671C234.853 236.521 234.813 236.374 234.737 236.245C234.661 236.116 234.553 236.009 234.423 235.935C234.279 235.85 234.116 235.801 233.949 235.791C233.737 235.754 233.543 235.729 233.375 235.679Z" fill="white"/>
<path d="M222.361 217.258C222.549 217.208 222.736 217.183 222.923 217.146C223.131 217.103 223.347 217.118 223.547 217.19C223.764 217.27 223.952 217.415 224.086 217.604C224.219 217.793 224.293 218.019 224.296 218.25C224.293 218.401 224.329 218.55 224.4 218.684C224.471 218.817 224.574 218.93 224.701 219.012C224.842 219.101 225.003 219.154 225.169 219.168C225.357 219.205 225.544 219.23 225.737 219.28C225.544 219.336 225.357 219.355 225.169 219.399C224.959 219.434 224.744 219.412 224.545 219.336C224.336 219.244 224.157 219.093 224.032 218.901C223.907 218.71 223.84 218.486 223.84 218.257C223.836 218.108 223.795 217.962 223.719 217.833C223.644 217.705 223.538 217.597 223.41 217.52C223.264 217.432 223.099 217.383 222.929 217.377C222.767 217.333 222.549 217.314 222.361 217.258Z" fill="white"/>
<path d="M202.014 220.609C202.207 220.553 202.394 220.528 202.582 220.49C202.747 220.455 202.917 220.457 203.082 220.496C203.246 220.535 203.399 220.61 203.531 220.716C203.662 220.822 203.768 220.956 203.842 221.108C203.915 221.26 203.953 221.426 203.954 221.595C203.953 221.746 203.989 221.894 204.06 222.027C204.131 222.16 204.234 222.273 204.36 222.356C204.501 222.446 204.661 222.499 204.828 222.512C205.021 222.55 205.209 222.575 205.396 222.624C205.209 222.674 205.019 222.713 204.828 222.743C204.618 222.782 204.402 222.761 204.204 222.681C203.992 222.591 203.812 222.44 203.685 222.248C203.559 222.056 203.492 221.831 203.493 221.601C203.492 221.452 203.452 221.306 203.378 221.177C203.303 221.048 203.197 220.94 203.068 220.865C202.921 220.781 202.757 220.732 202.588 220.721C202.394 220.684 202.207 220.659 202.014 220.609Z" fill="white"/>
<path d="M231.729 201.852C231.916 201.802 232.103 201.777 232.29 201.739C232.455 201.704 232.627 201.706 232.791 201.745C232.955 201.784 233.109 201.859 233.241 201.965C233.373 202.071 233.48 202.204 233.554 202.356C233.628 202.508 233.667 202.675 233.669 202.844C233.666 202.995 233.702 203.144 233.773 203.277C233.844 203.41 233.948 203.523 234.075 203.605C234.216 203.694 234.376 203.747 234.543 203.761C234.73 203.798 234.917 203.823 235.104 203.873C234.917 203.93 234.73 203.948 234.543 203.992C234.333 204.03 234.117 204.008 233.919 203.93C233.709 203.837 233.531 203.686 233.406 203.495C233.28 203.303 233.214 203.079 233.214 202.85C233.21 202.701 233.168 202.555 233.093 202.427C233.018 202.298 232.911 202.19 232.783 202.114C232.637 202.027 232.472 201.978 232.303 201.97C232.128 201.926 231.916 201.908 231.729 201.852Z" fill="white"/>
<path d="M257.742 227.067C257.929 227.018 258.123 226.993 258.31 226.955C258.518 226.91 258.735 226.925 258.934 226.999C259.151 227.08 259.338 227.224 259.47 227.414C259.603 227.603 259.675 227.828 259.677 228.06C259.676 228.21 259.713 228.358 259.784 228.491C259.854 228.624 259.957 228.737 260.082 228.821C260.226 228.905 260.385 228.958 260.55 228.977C260.744 229.014 260.931 229.039 261.118 229.089C260.931 229.145 260.744 229.164 260.55 229.208C260.384 229.238 260.214 229.232 260.051 229.188C259.888 229.145 259.736 229.065 259.608 228.956C259.479 228.846 259.377 228.71 259.308 228.556C259.239 228.402 259.205 228.235 259.209 228.066C259.208 227.916 259.167 227.769 259.092 227.64C259.016 227.511 258.908 227.404 258.778 227.33C258.634 227.243 258.472 227.191 258.304 227.18C258.123 227.136 257.929 227.136 257.742 227.067Z" fill="white"/>
<path d="M247.416 211.673C247.603 211.624 247.797 211.599 247.984 211.561C248.149 211.526 248.32 211.528 248.484 211.567C248.648 211.606 248.801 211.681 248.933 211.787C249.064 211.893 249.171 212.026 249.244 212.178C249.317 212.33 249.356 212.497 249.357 212.666C249.354 212.817 249.39 212.966 249.461 213.099C249.532 213.232 249.635 213.345 249.762 213.427C249.903 213.517 250.064 213.571 250.23 213.583C250.417 213.62 250.611 213.645 250.798 213.695C250.611 213.751 250.417 213.776 250.23 213.814C250.021 213.853 249.804 213.832 249.606 213.751C249.394 213.662 249.214 213.511 249.087 213.319C248.961 213.127 248.894 212.902 248.895 212.672C248.894 212.522 248.854 212.375 248.778 212.246C248.702 212.117 248.594 212.01 248.464 211.936C248.32 211.851 248.157 211.802 247.99 211.792C247.797 211.755 247.603 211.73 247.416 211.673Z" fill="white"/>
<path d="M269.367 234.106C269.561 234.056 269.748 234.031 269.935 233.994C270.1 233.959 270.271 233.961 270.435 234C270.599 234.039 270.753 234.114 270.884 234.22C271.016 234.325 271.122 234.459 271.195 234.611C271.268 234.763 271.307 234.93 271.308 235.098C271.306 235.249 271.342 235.398 271.413 235.531C271.484 235.664 271.587 235.777 271.713 235.86C271.854 235.949 272.015 236.003 272.181 236.016C272.375 236.053 272.562 236.078 272.749 236.128C272.562 236.177 272.373 236.217 272.181 236.246C271.972 236.286 271.755 236.264 271.557 236.184C271.346 236.095 271.166 235.944 271.04 235.752C270.915 235.56 270.849 235.334 270.852 235.105C270.848 234.955 270.807 234.81 270.731 234.681C270.656 234.552 270.55 234.445 270.422 234.368C270.275 234.285 270.11 234.235 269.941 234.225C269.748 234.187 269.567 234.162 269.367 234.106Z" fill="white"/>
<path d="M217.776 179.375C217.682 179.544 217.564 179.693 217.458 179.856C217.367 179.999 217.245 180.12 217.102 180.209C216.958 180.299 216.796 180.355 216.627 180.374C216.459 180.392 216.289 180.373 216.129 180.317C215.969 180.261 215.824 180.169 215.704 180.049C215.6 179.94 215.47 179.86 215.325 179.816C215.181 179.772 215.028 179.767 214.881 179.8C214.718 179.836 214.566 179.911 214.438 180.018C214.283 180.133 214.123 180.239 213.957 180.336C214.057 180.168 214.169 180.018 214.275 179.856C214.398 179.676 214.569 179.536 214.768 179.45C214.979 179.367 215.21 179.348 215.431 179.394C215.653 179.441 215.856 179.551 216.016 179.712C216.124 179.816 216.257 179.891 216.403 179.929C216.548 179.968 216.701 179.968 216.846 179.931C217.008 179.886 217.158 179.805 217.283 179.693C217.483 179.587 217.632 179.469 217.776 179.375Z" fill="white"/>
<path d="M210.243 166.739C210.149 166.907 210.031 167.057 209.924 167.219C209.834 167.363 209.712 167.483 209.568 167.573C209.425 167.663 209.263 167.719 209.094 167.738C208.926 167.756 208.755 167.737 208.596 167.68C208.436 167.624 208.291 167.533 208.171 167.413C208.067 167.303 207.937 167.223 207.792 167.179C207.648 167.135 207.494 167.13 207.347 167.163C207.184 167.2 207.032 167.275 206.904 167.382C206.75 167.496 206.59 167.603 206.424 167.7C206.524 167.531 206.636 167.382 206.742 167.219C206.864 167.04 207.035 166.899 207.235 166.814C207.446 166.731 207.676 166.712 207.898 166.758C208.12 166.805 208.323 166.915 208.483 167.076C208.591 167.181 208.724 167.256 208.869 167.294C209.015 167.332 209.168 167.332 209.313 167.294C209.475 167.25 209.624 167.169 209.75 167.057C209.924 166.951 210.074 166.833 210.243 166.739Z" fill="white"/>
<path d="M248.351 201.371C248.251 201.546 248.138 201.696 248.032 201.852C247.914 202.033 247.747 202.177 247.552 202.27C247.345 202.36 247.116 202.387 246.894 202.347C246.672 202.307 246.466 202.202 246.304 202.045C246.199 201.937 246.068 201.858 245.924 201.814C245.78 201.771 245.627 201.764 245.48 201.795C245.317 201.832 245.165 201.907 245.037 202.014C244.875 202.12 244.725 202.238 244.557 202.332C244.65 202.164 244.769 202.014 244.875 201.852C244.995 201.673 245.164 201.532 245.362 201.446C245.573 201.365 245.803 201.347 246.024 201.394C246.245 201.44 246.449 201.549 246.61 201.708C246.716 201.813 246.848 201.888 246.993 201.926C247.137 201.965 247.289 201.965 247.433 201.926C247.596 201.884 247.748 201.805 247.876 201.696C248.051 201.59 248.201 201.471 248.351 201.371Z" fill="white"/>
<path d="M229.293 160.418C229.2 160.586 229.081 160.736 228.975 160.898C228.859 161.077 228.694 161.22 228.501 161.31C228.29 161.405 228.056 161.435 227.828 161.397C227.6 161.358 227.389 161.252 227.222 161.092C227.117 160.983 226.987 160.903 226.843 160.858C226.699 160.813 226.546 160.806 226.398 160.836C226.236 160.874 226.084 160.949 225.955 161.054C225.793 161.161 225.643 161.279 225.475 161.379C225.568 161.204 225.687 161.054 225.793 160.892C225.914 160.713 226.085 160.574 226.286 160.493C226.497 160.41 226.727 160.391 226.949 160.437C227.171 160.484 227.374 160.594 227.534 160.755C227.643 160.864 227.778 160.943 227.927 160.985C228.076 161.026 228.233 161.029 228.382 160.992C228.543 160.945 228.692 160.864 228.819 160.755C229.006 160.63 229.125 160.512 229.293 160.418Z" fill="white"/>
<path d="M216.079 151.083C215.985 151.251 215.866 151.401 215.76 151.563C215.643 151.743 215.479 151.887 215.286 151.982C215.075 152.076 214.84 152.105 214.612 152.065C214.384 152.025 214.173 151.918 214.007 151.757C213.903 151.648 213.772 151.567 213.628 151.524C213.484 151.48 213.33 151.474 213.183 151.507C213.02 151.543 212.868 151.618 212.74 151.726C212.578 151.832 212.428 151.95 212.26 152.044C212.353 151.875 212.472 151.726 212.578 151.563C212.699 151.383 212.87 151.242 213.071 151.158C213.282 151.075 213.512 151.056 213.734 151.102C213.956 151.149 214.159 151.259 214.319 151.42C214.426 151.525 214.56 151.601 214.705 151.639C214.851 151.677 215.003 151.677 215.149 151.638C215.311 151.594 215.46 151.513 215.586 151.401C215.76 151.295 215.904 151.177 216.079 151.083Z" fill="white"/>
<path d="M228.552 172.299C228.608 172.486 228.627 172.68 228.67 172.867C228.709 173.075 228.694 173.29 228.627 173.491C228.544 173.707 228.399 173.893 228.21 174.025C228.021 174.157 227.797 174.23 227.566 174.233C227.415 174.231 227.266 174.267 227.133 174.338C227 174.409 226.887 174.513 226.805 174.639C226.714 174.779 226.66 174.94 226.649 175.107C226.605 175.294 226.586 175.488 226.53 175.675C226.48 175.488 226.455 175.294 226.418 175.107C226.375 174.898 226.397 174.68 226.48 174.483C226.569 174.271 226.719 174.09 226.912 173.963C227.104 173.837 227.329 173.77 227.56 173.772C227.709 173.77 227.856 173.729 227.985 173.654C228.114 173.579 228.221 173.471 228.296 173.341C228.378 173.195 228.427 173.034 228.439 172.867C228.477 172.68 228.502 172.486 228.552 172.299Z" fill="white"/>
<path d="M224.052 205.54C224.102 205.727 224.127 205.92 224.164 206.107C224.2 206.272 224.198 206.443 224.159 206.607C224.12 206.772 224.044 206.925 223.939 207.056C223.833 207.188 223.699 207.294 223.547 207.367C223.395 207.441 223.229 207.479 223.06 207.48C222.909 207.477 222.76 207.513 222.627 207.584C222.493 207.655 222.381 207.759 222.299 207.886C222.211 208.027 222.157 208.188 222.143 208.354C222.105 208.541 222.08 208.734 222.03 208.922C221.974 208.734 221.949 208.541 221.912 208.354C221.872 208.144 221.894 207.927 221.974 207.73C222.065 207.518 222.215 207.338 222.407 207.212C222.599 207.086 222.824 207.018 223.054 207.018C223.203 207.017 223.35 206.977 223.479 206.902C223.609 206.826 223.716 206.718 223.79 206.588C223.875 206.443 223.924 206.281 223.934 206.114C223.971 205.92 224.015 205.727 224.052 205.54Z" fill="white"/>
<path d="M267.695 220.94C267.752 221.127 267.777 221.314 267.814 221.501C267.849 221.667 267.847 221.838 267.808 222.002C267.769 222.167 267.694 222.32 267.588 222.452C267.483 222.584 267.349 222.691 267.197 222.765C267.045 222.839 266.879 222.878 266.71 222.88C266.559 222.877 266.409 222.913 266.276 222.984C266.143 223.055 266.03 223.159 265.948 223.286C265.857 223.426 265.803 223.587 265.792 223.754C265.755 223.941 265.73 224.128 265.68 224.316C265.624 224.128 265.599 223.941 265.561 223.754C265.523 223.544 265.545 223.328 265.624 223.13C265.715 222.92 265.866 222.741 266.058 222.616C266.25 222.49 266.474 222.424 266.703 222.425C266.852 222.421 266.998 222.379 267.127 222.304C267.255 222.229 267.363 222.122 267.44 221.994C267.523 221.847 267.572 221.683 267.583 221.514C267.627 221.314 267.652 221.127 267.695 220.94Z" fill="white"/>
<path d="M247.478 176.904C247.527 177.091 247.552 177.278 247.59 177.472C247.634 177.68 247.619 177.896 247.546 178.096C247.464 178.312 247.319 178.499 247.13 178.633C246.941 178.766 246.717 178.84 246.485 178.845C246.334 178.842 246.185 178.878 246.052 178.949C245.919 179.02 245.806 179.123 245.724 179.25C245.636 179.392 245.583 179.552 245.568 179.718C245.531 179.905 245.506 180.093 245.456 180.286C245.4 180.093 245.381 179.905 245.337 179.718C245.307 179.552 245.313 179.382 245.357 179.219C245.4 179.056 245.48 178.904 245.589 178.776C245.699 178.648 245.835 178.545 245.989 178.476C246.143 178.407 246.31 178.373 246.479 178.377C246.629 178.374 246.775 178.334 246.904 178.258C247.033 178.183 247.14 178.075 247.215 177.946C247.303 177.803 247.352 177.64 247.359 177.472C247.403 177.278 247.421 177.091 247.478 176.904Z" fill="white"/>
<path d="M247.477 230.256C247.527 230.443 247.552 230.63 247.589 230.818C247.625 230.983 247.623 231.154 247.583 231.319C247.544 231.483 247.469 231.637 247.364 231.769C247.258 231.901 247.124 232.008 246.972 232.082C246.82 232.156 246.654 232.195 246.485 232.197C246.334 232.194 246.185 232.23 246.052 232.301C245.918 232.372 245.806 232.475 245.724 232.602C245.635 232.744 245.581 232.904 245.568 233.07C245.53 233.258 245.505 233.445 245.455 233.632C245.399 233.445 245.38 233.258 245.337 233.07C245.302 232.861 245.323 232.645 245.399 232.446C245.491 232.237 245.642 232.058 245.834 231.933C246.026 231.808 246.25 231.741 246.479 231.741C246.628 231.737 246.773 231.696 246.902 231.62C247.031 231.545 247.138 231.439 247.215 231.311C247.303 231.165 247.353 231 247.359 230.83C247.402 230.649 247.421 230.462 247.477 230.256Z" fill="white"/>
<path d="M257.743 199.711C257.799 199.898 257.818 200.092 257.856 200.279C257.893 200.444 257.893 200.615 257.855 200.78C257.817 200.944 257.743 201.098 257.637 201.23C257.532 201.362 257.398 201.469 257.246 201.542C257.093 201.615 256.926 201.652 256.757 201.652C256.606 201.65 256.458 201.686 256.324 201.757C256.191 201.827 256.078 201.931 255.996 202.057C255.905 202.198 255.852 202.359 255.84 202.525C255.796 202.713 255.778 202.906 255.721 203.093C255.672 202.906 255.647 202.713 255.609 202.525C255.567 202.316 255.588 202.098 255.672 201.901C255.76 201.69 255.909 201.51 256.1 201.383C256.291 201.257 256.516 201.189 256.745 201.19C256.895 201.189 257.043 201.149 257.173 201.073C257.303 200.998 257.412 200.89 257.487 200.76C257.569 200.614 257.618 200.452 257.631 200.285C257.668 200.092 257.712 199.898 257.743 199.711Z" fill="white"/>
<path d="M205.727 206.731C205.783 206.918 205.801 207.106 205.839 207.293C205.876 207.458 205.876 207.629 205.838 207.794C205.801 207.959 205.726 208.114 205.621 208.246C205.515 208.378 205.382 208.485 205.229 208.559C205.077 208.633 204.91 208.671 204.741 208.672C204.59 208.668 204.44 208.704 204.307 208.775C204.174 208.846 204.061 208.95 203.979 209.077C203.888 209.217 203.834 209.379 203.823 209.545C203.78 209.733 203.761 209.92 203.705 210.107C203.655 209.92 203.63 209.733 203.592 209.545C203.551 209.336 203.573 209.119 203.655 208.921C203.745 208.711 203.894 208.532 204.085 208.407C204.276 208.281 204.5 208.215 204.728 208.216C204.878 208.213 205.025 208.171 205.155 208.096C205.284 208.021 205.393 207.914 205.471 207.786C205.553 207.638 205.602 207.474 205.614 207.305C205.652 207.106 205.677 206.918 205.727 206.731Z" fill="white"/>
<path d="M206.738 176.904C206.785 177.091 206.822 177.281 206.85 177.472C206.896 177.679 206.883 177.895 206.813 178.096C206.73 178.312 206.586 178.499 206.397 178.633C206.208 178.766 205.983 178.84 205.752 178.845C205.601 178.841 205.451 178.877 205.318 178.948C205.185 179.019 205.072 179.123 204.99 179.25C204.9 179.391 204.846 179.552 204.834 179.718C204.791 179.905 204.772 180.093 204.716 180.286C204.666 180.093 204.641 179.905 204.604 179.718C204.562 179.509 204.581 179.293 204.66 179.094C204.75 178.883 204.901 178.703 205.093 178.576C205.285 178.45 205.509 178.383 205.739 178.383C205.889 178.381 206.037 178.34 206.167 178.264C206.297 178.189 206.405 178.082 206.482 177.952C206.564 177.807 206.613 177.645 206.625 177.478C206.663 177.278 206.688 177.091 206.738 176.904Z" fill="white"/>
<path d="M217.62 157.516C217.67 157.704 217.694 157.891 217.732 158.084C217.776 158.292 217.761 158.508 217.688 158.708C217.606 158.925 217.461 159.111 217.272 159.245C217.083 159.378 216.859 159.452 216.627 159.457C216.477 159.454 216.327 159.49 216.194 159.561C216.061 159.632 215.948 159.736 215.866 159.863C215.778 160.004 215.725 160.165 215.71 160.331C215.673 160.518 215.648 160.705 215.598 160.898C215.542 160.705 215.523 160.518 215.479 160.331C215.441 160.121 215.463 159.905 215.542 159.707C215.634 159.497 215.785 159.319 215.977 159.193C216.168 159.068 216.392 159.002 216.621 159.001C216.771 158.999 216.917 158.958 217.046 158.883C217.175 158.808 217.282 158.7 217.358 158.571C217.445 158.428 217.494 158.264 217.501 158.097C217.545 157.872 217.563 157.704 217.62 157.516Z" fill="white"/>
<path d="M214.7 187.487C214.75 187.681 214.775 187.868 214.812 188.055C214.847 188.22 214.845 188.391 214.806 188.556C214.767 188.72 214.692 188.874 214.586 189.006C214.481 189.138 214.347 189.245 214.195 189.319C214.043 189.393 213.877 189.432 213.708 189.434C213.557 189.431 213.407 189.467 213.274 189.538C213.141 189.609 213.028 189.713 212.946 189.84C212.857 189.981 212.804 190.141 212.79 190.308C212.753 190.495 212.728 190.682 212.678 190.869C212.622 190.682 212.597 190.495 212.559 190.308C212.521 190.098 212.543 189.882 212.622 189.684C212.714 189.474 212.865 189.296 213.057 189.17C213.248 189.045 213.472 188.978 213.701 188.978C213.85 188.974 213.996 188.933 214.125 188.858C214.253 188.782 214.361 188.676 214.438 188.548C214.521 188.401 214.57 188.236 214.581 188.067C214.619 187.868 214.656 187.681 214.7 187.487Z" fill="white"/>
<path d="M240.925 191.518C240.975 191.705 241 191.899 241.037 192.086C241.073 192.251 241.071 192.422 241.031 192.586C240.992 192.75 240.917 192.903 240.812 193.035C240.706 193.166 240.572 193.273 240.42 193.346C240.268 193.419 240.102 193.458 239.933 193.459C239.782 193.457 239.633 193.493 239.5 193.564C239.367 193.635 239.254 193.738 239.172 193.864C239.085 194.006 239.031 194.166 239.016 194.332C238.978 194.519 238.953 194.713 238.903 194.9C238.847 194.713 238.828 194.519 238.785 194.332C238.745 194.123 238.767 193.906 238.847 193.708C238.938 193.497 239.088 193.317 239.28 193.19C239.472 193.064 239.697 192.997 239.927 192.997C240.076 192.996 240.223 192.956 240.352 192.88C240.481 192.804 240.589 192.696 240.663 192.566C240.75 192.423 240.799 192.26 240.806 192.092C240.863 191.899 240.863 191.705 240.925 191.518Z" fill="white"/>
<path d="M216.683 225.177C216.733 225.37 216.758 225.557 216.795 225.745C216.832 225.91 216.832 226.081 216.795 226.246C216.757 226.411 216.682 226.565 216.577 226.698C216.472 226.83 216.338 226.937 216.185 227.011C216.033 227.085 215.866 227.123 215.697 227.124C215.546 227.119 215.396 227.154 215.262 227.225C215.129 227.296 215.016 227.401 214.936 227.529C214.846 227.668 214.79 227.826 214.773 227.991C214.745 228.182 214.708 228.372 214.661 228.559C214.611 228.372 214.586 228.184 214.549 227.991C214.507 227.782 214.527 227.565 214.605 227.367C214.695 227.156 214.845 226.976 215.038 226.851C215.23 226.725 215.455 226.66 215.684 226.662C215.834 226.658 215.981 226.617 216.111 226.542C216.241 226.467 216.349 226.36 216.427 226.231C216.508 226.083 216.557 225.919 216.57 225.751C216.608 225.557 216.633 225.37 216.683 225.177Z" fill="white"/>
<path d="M236.426 182.002C236.526 181.834 236.644 181.684 236.75 181.522C236.865 181.341 237.03 181.198 237.225 181.11C237.431 181.02 237.659 180.993 237.881 181.031C238.103 181.07 238.309 181.173 238.473 181.328C238.578 181.437 238.71 181.518 238.855 181.562C239 181.607 239.154 181.614 239.302 181.584C239.463 181.546 239.612 181.471 239.739 181.366C239.901 181.253 240.051 181.141 240.226 181.041C240.126 181.216 240.008 181.366 239.901 181.528C239.781 181.705 239.612 181.844 239.415 181.927C239.204 182.009 238.973 182.027 238.752 181.981C238.531 181.934 238.327 181.825 238.167 181.665C238.059 181.563 237.927 181.489 237.783 181.451C237.639 181.412 237.488 181.411 237.343 181.447C237.182 181.494 237.033 181.574 236.906 181.684C236.75 181.79 236.601 181.909 236.426 182.002Z" fill="white"/>
<path d="M221.133 195.861C221.226 195.693 221.345 195.543 221.451 195.381C221.542 195.238 221.663 195.117 221.807 195.027C221.951 194.937 222.113 194.881 222.281 194.863C222.45 194.844 222.62 194.863 222.78 194.92C222.94 194.976 223.085 195.067 223.204 195.187C223.308 195.297 223.439 195.378 223.583 195.421C223.728 195.465 223.881 195.471 224.028 195.437C224.191 195.4 224.343 195.326 224.471 195.218C224.626 195.104 224.786 194.998 224.952 194.9C224.852 195.069 224.74 195.218 224.633 195.381C224.538 195.52 224.413 195.637 224.266 195.722C224.12 195.807 223.957 195.858 223.788 195.872C223.619 195.886 223.45 195.862 223.291 195.802C223.133 195.741 222.991 195.647 222.874 195.524C222.767 195.42 222.635 195.345 222.491 195.307C222.346 195.269 222.195 195.268 222.05 195.306C221.889 195.353 221.74 195.433 221.613 195.543C221.451 195.649 221.301 195.768 221.133 195.861Z" fill="white"/>
<path d="M210.762 216.278C210.862 216.104 210.98 215.954 211.086 215.798C211.177 215.655 211.299 215.534 211.442 215.444C211.586 215.355 211.748 215.298 211.916 215.28C212.085 215.261 212.255 215.281 212.415 215.337C212.575 215.393 212.72 215.485 212.84 215.604C212.944 215.713 213.075 215.792 213.219 215.836C213.363 215.88 213.516 215.886 213.663 215.854C213.826 215.818 213.978 215.743 214.106 215.636C214.261 215.521 214.421 215.415 214.587 215.317C214.487 215.486 214.375 215.636 214.269 215.798C214.174 215.938 214.049 216.054 213.903 216.139C213.757 216.224 213.594 216.276 213.426 216.289C213.258 216.303 213.089 216.279 212.931 216.219C212.774 216.159 212.631 216.064 212.515 215.941C212.407 215.837 212.274 215.762 212.129 215.723C211.983 215.685 211.831 215.685 211.685 215.723C211.524 215.765 211.374 215.844 211.248 215.954C211.086 216.066 210.911 216.179 210.762 216.278Z" fill="white"/>
<path d="M215.242 237.488C215.342 237.32 215.461 237.17 215.567 237.008C215.682 236.827 215.846 236.684 216.041 236.596C216.248 236.507 216.476 236.481 216.697 236.52C216.919 236.559 217.124 236.661 217.289 236.814C217.393 236.924 217.523 237.004 217.668 237.049C217.812 237.094 217.965 237.101 218.113 237.07C218.276 237.031 218.428 236.954 218.556 236.846C218.712 236.739 218.861 236.627 219.036 236.527C218.936 236.702 218.824 236.852 218.718 237.008C218.596 237.187 218.425 237.328 218.225 237.413C218.014 237.495 217.784 237.513 217.562 237.467C217.341 237.42 217.138 237.311 216.977 237.151C216.869 237.049 216.737 236.975 216.593 236.937C216.449 236.898 216.298 236.897 216.153 236.933C215.992 236.98 215.843 237.061 215.716 237.17C215.567 237.276 215.417 237.395 215.242 237.488Z" fill="white"/>
<path d="M235.303 214.176C235.396 214.007 235.515 213.857 235.621 213.695C235.738 213.516 235.902 213.374 236.095 213.283C236.306 213.188 236.54 213.158 236.768 213.197C236.996 213.236 237.207 213.342 237.374 213.502C237.479 213.611 237.609 213.692 237.753 213.737C237.897 213.781 238.05 213.789 238.198 213.758C238.36 213.718 238.511 213.644 238.641 213.539C238.797 213.433 238.947 213.314 239.122 213.215C239.022 213.389 238.909 213.539 238.803 213.701C238.682 213.881 238.511 214.02 238.31 214.101C238.1 214.184 237.869 214.203 237.647 214.156C237.425 214.11 237.222 213.999 237.062 213.839C236.953 213.736 236.82 213.662 236.675 213.624C236.53 213.586 236.378 213.585 236.232 213.62C236.072 213.667 235.923 213.748 235.796 213.857C235.621 213.963 235.471 214.082 235.303 214.176Z" fill="white"/>
<path d="M249.105 222.624C249.199 222.456 249.318 222.306 249.424 222.144C249.542 221.967 249.706 221.824 249.898 221.732C250.105 221.644 250.333 221.617 250.554 221.656C250.776 221.695 250.981 221.797 251.146 221.951C251.25 222.059 251.381 222.14 251.525 222.185C251.669 222.229 251.822 222.237 251.97 222.206C252.132 222.169 252.284 222.094 252.413 221.988C252.575 221.882 252.725 221.763 252.893 221.664C252.8 221.838 252.681 221.988 252.575 222.15C252.455 222.331 252.283 222.47 252.082 222.55C251.871 222.633 251.641 222.652 251.419 222.605C251.197 222.559 250.994 222.448 250.834 222.288C250.725 222.185 250.592 222.111 250.447 222.073C250.302 222.035 250.15 222.033 250.004 222.069C249.843 222.116 249.694 222.197 249.567 222.306C249.424 222.412 249.274 222.531 249.105 222.624Z" fill="white"/>
<path d="M225.887 229.039C225.98 228.871 226.099 228.721 226.205 228.559C226.32 228.379 226.485 228.236 226.679 228.147C226.89 228.052 227.124 228.022 227.352 228.061C227.58 228.1 227.791 228.206 227.958 228.365C228.063 228.475 228.193 228.556 228.337 228.6C228.481 228.645 228.634 228.652 228.782 228.621C228.945 228.582 229.097 228.505 229.225 228.397C229.381 228.291 229.531 228.178 229.706 228.078C229.606 228.253 229.493 228.403 229.387 228.559C229.267 228.74 229.095 228.881 228.894 228.964C228.684 229.047 228.453 229.067 228.231 229.02C228.009 228.974 227.806 228.863 227.646 228.702C227.537 228.6 227.404 228.526 227.259 228.488C227.114 228.45 226.962 228.448 226.816 228.484C226.656 228.531 226.507 228.612 226.38 228.721C226.205 228.827 226.055 228.946 225.887 229.039Z" fill="white"/>
<path d="M255.84 237.488C255.94 237.32 256.052 237.17 256.158 237.008C256.275 236.829 256.439 236.686 256.632 236.596C256.843 236.501 257.077 236.471 257.305 236.51C257.533 236.549 257.744 236.655 257.912 236.814C258.016 236.923 258.146 237.004 258.29 237.048C258.434 237.093 258.587 237.101 258.735 237.07C258.898 237.032 259.049 236.958 259.178 236.852C259.34 236.74 259.49 236.627 259.659 236.527C259.565 236.702 259.447 236.852 259.34 237.014C259.22 237.191 259.051 237.33 258.854 237.413C258.643 237.496 258.412 237.514 258.191 237.468C257.969 237.421 257.766 237.311 257.606 237.151C257.498 237.049 257.366 236.976 257.222 236.937C257.078 236.899 256.927 236.898 256.782 236.933C256.619 236.978 256.467 237.059 256.339 237.17C256.152 237.276 256.002 237.395 255.84 237.488Z" fill="white"/>
<path d="M259.215 214.656C259.308 214.481 259.427 214.332 259.533 214.169C259.651 213.992 259.815 213.85 260.007 213.758C260.218 213.662 260.452 213.632 260.68 213.671C260.908 213.71 261.119 213.816 261.287 213.976C261.391 214.085 261.521 214.165 261.665 214.21C261.809 214.255 261.962 214.262 262.11 214.232C262.273 214.194 262.424 214.119 262.553 214.013C262.715 213.907 262.865 213.789 263.034 213.689C262.94 213.864 262.822 214.013 262.715 214.176C262.596 214.356 262.424 214.496 262.223 214.575C262.012 214.658 261.781 214.677 261.559 214.631C261.338 214.584 261.134 214.474 260.975 214.313C260.866 214.211 260.734 214.137 260.59 214.099C260.447 214.061 260.295 214.059 260.151 214.095C259.987 214.14 259.836 214.221 259.708 214.332C259.533 214.444 259.383 214.563 259.215 214.656Z" fill="white"/>
<path d="M204.516 231.966C204.615 231.791 204.728 231.641 204.834 231.479C204.952 231.302 205.116 231.159 205.308 231.067C205.519 230.972 205.753 230.942 205.981 230.981C206.209 231.02 206.42 231.126 206.587 231.286C206.692 231.394 206.822 231.475 206.966 231.52C207.11 231.564 207.263 231.572 207.411 231.541C207.573 231.504 207.725 231.429 207.854 231.323C208.016 231.217 208.166 231.098 208.335 230.999C208.241 231.173 208.122 231.323 208.016 231.485C207.898 231.664 207.728 231.803 207.53 231.885C207.319 231.967 207.088 231.986 206.867 231.939C206.645 231.893 206.442 231.783 206.282 231.623C206.174 231.52 206.041 231.447 205.897 231.409C205.753 231.372 205.602 231.373 205.458 231.41C205.294 231.451 205.142 231.53 205.015 231.641C204.834 231.747 204.672 231.866 204.516 231.966Z" fill="white"/>
<path d="M202.799 196.342C202.892 196.173 203.011 196.023 203.117 195.861C203.235 195.682 203.399 195.538 203.591 195.443C203.803 195.349 204.037 195.32 204.265 195.36C204.493 195.4 204.704 195.507 204.871 195.668C204.975 195.777 205.105 195.857 205.249 195.901C205.394 195.945 205.547 195.95 205.694 195.917C205.859 195.885 206.011 195.81 206.137 195.699C206.299 195.593 206.449 195.474 206.618 195.381C206.52 195.546 206.414 195.707 206.299 195.861C206.18 196.04 206.011 196.181 205.813 196.267C205.602 196.349 205.371 196.368 205.15 196.321C204.928 196.275 204.725 196.165 204.565 196.005C204.458 195.901 204.326 195.827 204.181 195.788C204.037 195.75 203.886 195.749 203.741 195.786C203.578 195.832 203.426 195.913 203.298 196.023C203.123 196.13 202.974 196.248 202.799 196.342Z" fill="white"/>
<path d="M223.16 148.812C222.929 149.978 217.663 157.66 212.371 157.591C210.649 157.56 210.374 148.15 210.374 148.15L210.193 147.464L207.697 137.804L218.886 130.085L220.508 129.062C220.508 129.062 221.013 131.751 221.619 135.102C221.619 135.258 221.675 135.414 221.7 135.583C221.725 135.751 221.781 135.945 221.806 136.126C221.906 136.625 221.999 137.137 222.087 137.648C222.155 138.035 222.218 138.41 222.274 138.821C222.33 139.233 222.392 139.633 222.461 140.069C222.893 142.964 223.126 145.885 223.16 148.812Z" fill="#DD6A57"/>
<path d="M221.619 135.102C220.725 137.868 219.24 140.406 217.267 142.541C215.294 144.676 212.88 146.355 210.193 147.464L207.697 137.804L218.886 130.085L220.508 129.062C220.508 129.062 221.013 131.751 221.619 135.102Z" fill="#263238"/>
<path d="M193.982 123.459C193.52 140.968 203.966 143.221 207.71 143.314C211.135 143.402 222.817 143.264 225.088 125.898C227.359 108.532 219.36 102.81 211.535 102.186C203.71 101.562 194.443 105.949 193.982 123.459Z" fill="#DD6A57"/>
<path d="M196.641 118.161C197.052 118.092 197.414 117.967 197.814 117.861C198.24 117.809 198.638 117.621 198.949 117.325C199.029 117.212 199.069 117.076 199.063 116.939C199.058 116.801 199.007 116.669 198.918 116.563C198.71 116.382 198.458 116.259 198.187 116.208C197.916 116.156 197.637 116.178 197.377 116.27C196.824 116.374 196.33 116.682 195.992 117.131C195.921 117.238 195.882 117.364 195.881 117.492C195.879 117.621 195.915 117.747 195.984 117.855C196.052 117.964 196.151 118.051 196.267 118.105C196.384 118.159 196.513 118.178 196.641 118.161Z" fill="#263238"/>
<path d="M208.347 120.719C207.944 120.675 207.544 120.608 207.149 120.519C206.721 120.508 206.309 120.357 205.975 120.089C205.886 119.984 205.834 119.852 205.827 119.715C205.82 119.577 205.859 119.441 205.938 119.328C206.129 119.128 206.369 118.983 206.635 118.907C206.9 118.832 207.181 118.828 207.448 118.897C208.008 118.955 208.527 119.219 208.902 119.64C208.984 119.739 209.035 119.861 209.048 119.989C209.062 120.117 209.038 120.247 208.979 120.362C208.92 120.476 208.828 120.571 208.716 120.635C208.604 120.698 208.475 120.728 208.347 120.719Z" fill="#263238"/>
<path d="M199.223 123.858C199.223 123.814 199.136 123.92 199.136 123.97C199.254 125.156 199.192 126.535 198.144 127.003C198.106 127.003 198.144 127.078 198.144 127.072C199.454 126.797 199.523 124.962 199.223 123.858Z" fill="#263238"/>
<path d="M198.076 122.685C196.154 122.685 196.26 126.516 198.044 126.535C199.829 126.554 199.679 122.704 198.076 122.685Z" fill="#263238"/>
<path d="M197.282 122.966C196.983 123.178 196.696 123.552 196.328 123.59C195.959 123.627 195.585 123.221 195.304 122.828C195.304 122.791 195.248 122.828 195.248 122.872C195.248 123.608 195.516 124.37 196.221 124.488C196.927 124.607 197.326 123.958 197.469 123.24C197.513 123.084 197.401 122.878 197.282 122.966Z" fill="#263238"/>
<path d="M207.055 134.048C206.762 134.316 206.462 134.672 206.026 134.715C205.59 134.686 205.165 134.567 204.778 134.366C204.769 134.362 204.759 134.36 204.75 134.362C204.741 134.364 204.732 134.369 204.726 134.376C204.72 134.383 204.716 134.392 204.715 134.401C204.714 134.411 204.716 134.42 204.721 134.428C204.884 134.67 205.109 134.862 205.373 134.986C205.637 135.109 205.93 135.158 206.219 135.127C206.466 135.075 206.691 134.949 206.864 134.766C207.038 134.584 207.153 134.353 207.193 134.104C207.168 134.035 207.099 134.01 207.055 134.048Z" fill="#263238"/>
<path d="M201.089 129.262C201.089 129.262 200.952 131.046 200.996 131.883C202.63 131.793 204.269 131.936 205.863 132.307C206.237 132.407 206.212 132.101 205.788 131.876C204.524 131.218 203.092 130.953 201.676 131.115C201.601 130.884 201.944 128.369 201.813 128.369C201.168 128.464 200.538 128.645 199.941 128.906C200.128 125.162 200.915 121.518 201.046 117.805C201.047 117.778 201.039 117.751 201.023 117.729C201.006 117.708 200.982 117.693 200.956 117.687C200.929 117.682 200.901 117.687 200.877 117.7C200.854 117.714 200.836 117.736 200.827 117.761C199.729 121.549 199.417 125.83 199.124 129.674C199.086 130.148 200.765 129.424 201.089 129.262Z" fill="#263238"/>
<path d="M209.42 123.92C208.719 123.646 207.953 123.585 207.217 123.746C206.823 123.835 206.45 124 206.119 124.232C205.778 124.487 205.499 124.816 205.302 125.193L204.934 125.873L205.689 125.792C206.22 125.736 206.755 125.736 207.286 125.792C207.84 125.841 208.373 126.03 208.834 126.341C208.532 125.79 208.025 125.38 207.423 125.2C206.837 125.006 206.216 124.936 205.601 124.994L205.988 125.618C206.311 125.076 206.808 124.66 207.398 124.438C208.048 124.182 208.727 124.008 209.42 123.92Z" fill="#263238"/>
<path d="M207.254 127.022C206.689 126.889 206.145 126.679 205.638 126.398C205.519 126.323 205.063 125.979 205.088 125.88C205.153 125.589 205.253 125.309 205.388 125.043C205.178 125.279 205.019 125.555 204.92 125.855C204.955 126.02 205.025 126.175 205.127 126.31C205.228 126.444 205.358 126.555 205.506 126.635C206.043 126.92 206.647 127.053 207.254 127.022Z" fill="#263238"/>
<path d="M203.111 131.758C203.111 131.758 204.197 133.318 205.445 133.505C206.88 133.729 207.049 132.438 205.445 131.701C204.634 131.321 203.111 131.758 203.111 131.758Z" fill="#263238"/>
<path d="M205.439 133.536C204.896 133.423 204.395 133.157 203.998 132.769C204.298 132.326 204.984 131.833 206.525 132.662C206.75 133.187 206.351 133.648 205.439 133.536Z" fill="#FF99BA"/>
<path d="M224.983 126.316C222.1 126.678 221.139 120.644 221.139 120.644C221.139 120.644 215.261 120.944 212.908 112.582C213.2 115.108 214.224 117.494 215.854 119.446C215.854 119.446 205.427 118.822 200.641 110.379C200.641 110.379 202.6 114.716 204.31 116.208C204.31 116.208 199.898 115.209 197.608 111.777C197.608 111.777 196.035 116.875 194.706 118.329C194.706 118.329 194.251 100.165 211.155 101.275C211.155 101.275 221.713 101.462 225.9 109.612C230.087 117.761 224.983 126.316 224.983 126.316Z" fill="#263238"/>
<path d="M222.286 127.165C222.286 127.165 225.774 121.48 228.333 122.691C230.891 123.901 228.495 131.988 225.656 133.243C225.303 133.429 224.915 133.543 224.517 133.576C224.119 133.609 223.719 133.561 223.34 133.435C222.961 133.309 222.611 133.108 222.312 132.843C222.013 132.578 221.771 132.256 221.6 131.895L222.286 127.165Z" fill="#DD6A57"/>
<path d="M227.591 124.993C227.634 124.993 227.647 125.05 227.591 125.068C225.6 126.017 224.645 127.97 224.009 129.979C224.57 129.187 225.369 128.731 226.424 129.355C226.48 129.386 226.424 129.474 226.374 129.467C226.009 129.374 225.625 129.396 225.273 129.532C224.922 129.667 224.622 129.909 224.414 130.223C224.065 130.746 223.776 131.307 223.553 131.895C223.466 132.082 223.135 132.007 223.191 131.795C223.188 131.779 223.188 131.762 223.191 131.745C223.017 129.168 224.814 125.424 227.591 124.993Z" fill="#263238"/>
<path d="M224.015 132.332C224.024 132.493 224.081 132.649 224.178 132.778C224.275 132.907 224.409 133.005 224.562 133.058C224.714 133.112 224.88 133.119 225.036 133.078C225.193 133.038 225.334 132.951 225.442 132.831C225.549 132.71 225.619 132.56 225.641 132.399C225.663 132.239 225.638 132.076 225.567 131.93C225.497 131.785 225.384 131.663 225.245 131.581C225.105 131.5 224.944 131.461 224.783 131.471C224.676 131.476 224.571 131.503 224.474 131.549C224.377 131.596 224.291 131.661 224.219 131.741C224.148 131.821 224.093 131.915 224.058 132.016C224.023 132.117 224.009 132.225 224.015 132.332Z" fill="white"/>
<path d="M225.976 130.978C225.981 131.081 226.017 131.181 226.079 131.265C226.141 131.348 226.226 131.411 226.324 131.446C226.422 131.481 226.528 131.485 226.628 131.46C226.729 131.434 226.82 131.379 226.889 131.302C226.959 131.225 227.003 131.129 227.018 131.026C227.033 130.923 227.016 130.818 226.971 130.724C226.926 130.631 226.854 130.553 226.765 130.5C226.675 130.447 226.572 130.423 226.469 130.429C226.4 130.432 226.333 130.449 226.271 130.478C226.209 130.507 226.153 130.549 226.107 130.6C226.061 130.651 226.026 130.711 226.003 130.776C225.981 130.841 225.971 130.909 225.976 130.978Z" fill="white"/>
<path d="M169.191 165.033L160.129 167.138L166.648 195.195L175.71 193.089L169.191 165.033Z" fill="#EBEBEB"/>
<path d="M147.101 90.5612C139.53 92.3228 132.65 96.2895 127.333 101.96C122.015 107.631 118.499 114.75 117.227 122.419C115.955 130.088 116.986 137.962 120.188 145.046C123.391 152.129 128.621 158.104 135.219 162.215C141.816 166.326 149.485 168.389 157.255 168.143C165.024 167.897 172.547 165.352 178.871 160.832C185.195 156.311 190.037 150.017 192.784 142.745C195.532 135.473 196.061 127.55 194.307 119.977C193.141 114.944 190.994 110.191 187.99 105.989C184.986 101.787 181.184 98.2179 176.8 95.4861C172.416 92.7543 167.536 90.9132 162.441 90.0682C157.345 89.2232 152.132 89.3907 147.101 90.5612ZM163.026 159.12C157.043 160.512 150.783 160.098 145.036 157.93C139.289 155.763 134.314 151.941 130.74 146.946C127.165 141.951 125.153 136.008 124.957 129.869C124.76 123.73 126.389 117.671 129.637 112.458C132.885 107.245 137.606 103.113 143.202 100.583C148.799 98.0532 155.021 97.2402 161.08 98.2467C167.138 99.2532 172.763 102.034 177.241 106.237C181.719 110.441 184.85 115.878 186.238 121.861C188.098 129.88 186.698 138.309 182.345 145.296C177.992 152.283 171.043 157.255 163.026 159.12Z" fill="#A6A6A6"/>
<path d="M172.284 185.15L166.205 186.562C164.101 187.051 162.791 189.154 163.28 191.258L171.054 224.718C171.543 226.823 173.646 228.133 175.75 227.644L181.829 226.232C183.933 225.743 185.243 223.64 184.754 221.535L176.98 188.075C176.491 185.97 174.388 184.661 172.284 185.15Z" fill="#263238"/>
<g opacity="0.3">
<path d="M186.238 121.848C187.626 127.829 187.208 134.087 185.039 139.83C182.87 145.574 179.046 150.545 174.052 154.116C169.058 157.687 163.117 159.696 156.98 159.891C150.844 160.085 144.788 158.456 139.577 155.208C134.367 151.961 130.236 147.242 127.708 141.647C125.18 136.052 124.367 129.833 125.372 123.777C126.378 117.72 129.157 112.098 133.358 107.621C137.559 103.143 142.993 100.012 148.973 98.6232C152.945 97.6997 157.06 97.568 161.083 98.2356C165.106 98.9032 168.958 100.357 172.418 102.514C175.879 104.671 178.881 107.489 181.252 110.806C183.624 114.124 185.318 117.876 186.238 121.848Z" fill="white"/>
<path d="M186.999 130.597C186.541 138.77 182.875 146.431 176.799 151.916C170.723 157.401 162.727 160.265 154.551 159.887L186.999 130.597Z" fill="#EBEBEB"/>
<path d="M172.716 102.711L128.269 142.828C127.163 140.625 126.325 138.297 125.773 135.895C125.126 133.143 124.865 130.314 124.999 127.49L157.815 97.8684C163.115 98.1802 168.245 99.8475 172.716 102.711Z" fill="#EBEBEB"/>
<path d="M185.384 118.872L143.045 157.079C141.195 156.229 139.433 155.199 137.785 154.003L182.869 113.318C183.894 115.079 184.736 116.94 185.384 118.872Z" fill="#EBEBEB"/>
<path d="M176.129 105.244L130.415 146.49C130.203 146.178 129.991 145.866 129.791 145.548L175.243 104.532C175.555 104.757 175.848 104.988 176.129 105.244Z" fill="#EBEBEB"/>
<path d="M147.464 99.0164L127.184 117.312C127.527 116.445 127.914 115.596 128.338 114.772L144.83 99.8837C145.685 99.5655 146.565 99.2722 147.464 99.0164Z" fill="#EBEBEB"/>
</g>
<path d="M133.96 134.241C133.957 134.2 133.957 134.158 133.96 134.116C133.847 133.492 134.041 134.709 133.96 134.304C133.879 133.898 133.835 133.343 133.797 132.862C133.654 131.168 133.654 129.465 133.797 127.77C133.797 127.527 133.841 127.29 133.86 127.053C133.86 126.978 133.791 127.614 133.86 127.109L133.916 126.672C133.991 126.111 134.084 125.549 134.197 124.994C134.433 123.769 134.752 122.562 135.152 121.381C135.245 121.1 135.351 120.819 135.451 120.538C135.582 120.158 135.276 120.956 135.482 120.457L135.688 119.964C135.956 119.34 136.25 118.716 136.562 118.092C136.874 117.468 137.279 116.8 137.672 116.183C137.86 115.896 138.047 115.615 138.24 115.334C138.571 114.854 138.084 115.528 138.34 115.191L138.708 114.704C139.845 113.275 141.115 111.959 142.502 110.773C142.502 110.773 142.789 110.542 142.577 110.716C142.365 110.891 142.689 110.623 142.727 110.592L143.351 110.099C143.769 109.787 144.193 109.475 144.63 109.2C145.545 108.589 146.491 108.024 147.463 107.509C147.724 107.345 147.949 107.132 148.127 106.881C148.305 106.629 148.432 106.346 148.501 106.045C148.569 105.745 148.578 105.435 148.526 105.131C148.474 104.828 148.363 104.537 148.199 104.277C148.035 104.016 147.822 103.79 147.571 103.612C147.32 103.434 147.036 103.308 146.736 103.239C146.436 103.171 146.125 103.162 145.821 103.214C145.518 103.266 145.228 103.377 144.967 103.54C138.802 106.829 133.735 112.021 131.189 118.566C129.465 122.968 128.731 127.695 129.036 132.413C129.099 133.461 129.232 134.503 129.436 135.533C129.613 136.127 130.019 136.626 130.564 136.922C131.109 137.218 131.749 137.286 132.344 137.112C132.929 136.919 133.418 136.51 133.712 135.968C134.005 135.426 134.08 134.793 133.922 134.198L133.96 134.241Z" fill="white"/>
<path d="M136.031 140.88C136.16 141.316 136.157 141.78 136.023 142.213C135.889 142.647 135.629 143.031 135.276 143.317C134.923 143.603 134.494 143.778 134.042 143.82C133.59 143.862 133.135 143.769 132.736 143.553C132.337 143.337 132.011 143.007 131.799 142.605C131.587 142.204 131.499 141.749 131.545 141.297C131.592 140.845 131.772 140.418 132.062 140.068C132.351 139.719 132.738 139.463 133.173 139.333C133.462 139.246 133.766 139.217 134.067 139.247C134.367 139.278 134.659 139.368 134.924 139.512C135.19 139.656 135.424 139.851 135.614 140.086C135.804 140.32 135.946 140.591 136.031 140.88Z" fill="white"/>
<path d="M235.328 160.555C240.944 180.86 243.64 201.246 240.533 211.761C238.548 218.463 233.762 222.993 230.717 224.49C223.597 228.01 199.979 223.018 184.591 219.923C180.809 219.161 189.726 188.691 193.527 190.308C199.143 192.685 216.334 195.892 216.808 196.048C217.825 196.398 219.928 174.364 221.413 161.448C223.466 143.451 232.09 148.83 235.328 160.555Z" fill="#DD6A57"/>
<path d="M155.019 184.504C153.347 187.231 155.518 189.727 155.518 189.727C154.093 190.44 152.962 191.63 152.323 193.091C151.319 195.711 154.988 198.438 154.988 198.438C153.664 199.485 152.687 200.907 152.186 202.519C151.475 205.128 154.788 208.404 154.788 208.404C154.104 210.037 154.031 211.862 154.582 213.545C156.236 217.982 163.318 219.436 167.811 220.409C172.304 221.383 185.957 219.91 188.59 219.898L195.049 191.113C195.049 191.113 176.135 181.035 170.713 180.648C166.101 180.336 156.897 181.447 155.019 184.504Z" fill="#DD6A57"/>
<path d="M155.818 189.309C160.81 188.492 165.715 189.178 170.676 189.584C170.699 189.584 170.721 189.593 170.737 189.609C170.754 189.626 170.763 189.648 170.763 189.671C170.763 189.694 170.754 189.716 170.737 189.733C170.721 189.749 170.699 189.758 170.676 189.758C165.74 189.297 160.779 189.815 155.843 189.553C155.814 189.55 155.788 189.537 155.767 189.517C155.747 189.496 155.734 189.47 155.731 189.441C155.728 189.412 155.735 189.384 155.751 189.36C155.767 189.336 155.791 189.318 155.818 189.309Z" fill="#263238"/>
<path d="M155.17 198.083C156.314 198.003 157.464 198.076 158.589 198.301C159.791 198.459 160.991 198.638 162.19 198.838C164.59 199.254 166.978 199.713 169.353 200.217C169.459 200.217 169.453 200.404 169.353 200.385C166.957 199.992 164.561 199.636 162.158 199.343C160.954 199.193 159.75 199.062 158.539 198.931C157.394 198.885 156.258 198.711 155.151 198.413C155.117 198.4 155.088 198.376 155.068 198.345C155.049 198.314 155.039 198.278 155.041 198.241C155.043 198.205 155.057 198.17 155.08 198.141C155.103 198.113 155.134 198.092 155.17 198.083Z" fill="#263238"/>
<path d="M154.888 208.416C155.862 208.248 156.997 208.597 157.958 208.778C159.05 208.984 160.136 209.177 161.228 209.371C163.412 209.758 165.596 210.138 167.792 210.45C167.899 210.45 167.886 210.637 167.792 210.619C165.559 210.319 163.325 210.045 161.097 209.726C160.005 209.57 158.907 209.402 157.815 209.233C156.885 209.09 155.712 209.015 154.882 208.528C154.872 208.523 154.863 208.514 154.857 208.504C154.852 208.494 154.849 208.482 154.85 208.47C154.85 208.458 154.854 208.447 154.861 208.438C154.868 208.428 154.877 208.421 154.888 208.416Z" fill="#263238"/>
<path d="M161.185 181.522C158.92 181.815 156.324 182.314 154.858 184.242C154.18 185.06 153.846 186.11 153.928 187.169C154.057 188.158 154.556 189.061 155.326 189.696C154.42 189.988 153.616 190.529 153.004 191.258C152.392 191.986 151.999 192.872 151.869 193.815C151.831 194.286 151.89 194.761 152.044 195.209C152.197 195.656 152.441 196.067 152.761 196.417C153.073 196.785 153.429 197.109 153.772 197.446C154.115 197.783 154.496 198.07 154.851 198.364C154.467 198.664 154.106 198.994 153.772 199.349C153.397 199.709 153.061 200.107 152.767 200.535C152.16 201.384 151.817 202.393 151.781 203.437C151.833 204.473 152.194 205.471 152.817 206.301C153.324 207.159 154.038 207.876 154.895 208.385C154.906 208.39 154.918 208.391 154.929 208.388C154.941 208.385 154.951 208.378 154.958 208.368C154.965 208.359 154.968 208.347 154.966 208.335C154.965 208.323 154.96 208.312 154.951 208.304C154.278 207.689 153.707 206.971 153.26 206.176C152.72 205.328 152.425 204.348 152.405 203.343C152.488 202.39 152.81 201.474 153.341 200.679C153.606 200.247 153.893 199.831 154.202 199.431C154.51 199.103 154.798 198.757 155.063 198.395C155.063 198.395 154.321 197.608 154.059 197.272C153.797 196.935 153.541 196.573 153.304 196.204C152.801 195.506 152.579 194.644 152.68 193.79C152.827 192.992 153.19 192.25 153.728 191.643C154.252 191.019 154.932 190.526 155.482 189.915C155.501 189.882 155.514 189.846 155.52 189.809C155.525 189.771 155.523 189.733 155.513 189.696C154.265 187.749 154.421 185.902 155.756 184.461C156.436 183.762 157.232 183.185 158.109 182.757C159.117 182.299 160.16 181.921 161.229 181.628C161.272 181.622 161.254 181.516 161.185 181.522Z" fill="#263238"/>
<path d="M202.555 223.448C201.226 223.036 199.822 222.824 198.462 222.525C197.101 222.225 195.728 221.944 194.356 221.67C192.983 221.395 191.554 221.121 190.156 220.859C188.758 220.597 187.454 220.303 186.094 220.141C184.781 220.014 183.457 220.043 182.15 220.228C180.831 220.378 179.509 220.484 178.182 220.547C175.508 220.676 172.829 220.617 170.163 220.372C167.147 220.092 164.161 219.56 161.234 218.781C161.171 218.781 161.153 218.856 161.234 218.874C166.308 220.568 171.628 221.412 176.977 221.37C178.3 221.37 179.629 221.289 180.946 221.158C182.261 220.971 183.586 220.859 184.915 220.821C186.319 220.914 187.713 221.123 189.083 221.445C190.462 221.701 191.835 221.963 193.214 222.207C194.774 222.481 196.334 222.762 197.9 223.005C199.466 223.249 201.02 223.598 202.555 223.71C202.667 223.685 202.674 223.479 202.555 223.448Z" fill="#263238"/>
<path d="M221.938 197.309C219.941 196.629 217.832 196.204 215.779 195.712C213.726 195.219 211.648 194.744 209.582 194.276C205.639 193.384 201.645 192.629 197.726 191.537C196.697 191.25 195.68 190.913 194.675 190.576C194.17 190.395 193.677 190.195 193.184 189.952C192.691 189.709 192.123 189.559 191.636 189.328C191.58 189.291 191.536 189.378 191.593 189.415C191.986 189.659 192.348 189.952 192.753 190.189C193.159 190.426 193.652 190.663 194.113 190.876C194.958 191.261 195.822 191.601 196.703 191.893C198.538 192.517 200.447 192.947 202.319 193.384C206.437 194.326 210.562 195.256 214.693 196.148C215.854 196.398 217.021 196.648 218.187 196.878C219.354 197.109 220.627 197.396 221.863 197.534C221.892 197.542 221.923 197.538 221.95 197.524C221.977 197.51 221.997 197.486 222.007 197.457C222.016 197.428 222.015 197.397 222.002 197.369C221.989 197.342 221.966 197.32 221.938 197.309Z" fill="#263238"/>
<path d="M215.441 189.758L243.983 193.64C243.983 193.64 238.767 163.968 233.219 154.14C227.747 144.444 221.706 150.852 219.404 162.583C216.82 175.587 215.441 189.758 215.441 189.758Z" fill="#37474F"/>
<path d="M241.843 189.34C241.044 189.153 240.227 189.035 239.428 188.86C238.629 188.685 237.862 188.567 237.076 188.442C235.472 188.192 233.862 187.968 232.252 187.749C229.082 187.312 225.919 186.832 222.736 186.501C220.927 186.302 219.123 186.033 217.314 185.877C217.3 185.877 217.288 185.882 217.278 185.892C217.269 185.901 217.264 185.914 217.264 185.927C217.264 185.94 217.269 185.953 217.278 185.962C217.288 185.972 217.3 185.977 217.314 185.977C220.465 186.713 223.678 187.262 226.873 187.78C230.068 188.298 233.213 188.785 236.396 189.134C237.288 189.228 238.18 189.347 239.079 189.39C239.977 189.434 240.92 189.515 241.837 189.534C241.862 189.535 241.887 189.525 241.906 189.508C241.925 189.49 241.936 189.466 241.937 189.44C241.937 189.415 241.928 189.39 241.911 189.371C241.893 189.352 241.869 189.341 241.843 189.34Z" fill="#263238"/>
<path d="M72.944 32.624L72.832 40.784H71.68L71.552 32.624H72.944ZM71.296 43.2C71.296 42.672 71.728 42.24 72.256 42.24C72.784 42.24 73.216 42.672 73.216 43.2C73.216 43.728 72.784 44.16 72.256 44.16C71.728 44.16 71.296 43.728 71.296 43.2ZM78.0885 36.592L79.2405 35.984L81.4325 41.168C81.8645 42.208 82.3445 42.56 83.2725 42.56H83.4485L83.5285 43.28L83.4485 44H83.2725C82.3285 44 81.5765 43.68 80.9845 42.944C80.3765 43.44 79.4165 44.064 77.9445 44.064C76.2965 44.064 75.2405 43.36 74.6325 42.912L75.2565 41.856C75.7205 42.128 76.6005 42.688 77.8325 42.688C78.9845 42.688 79.8325 42.256 80.3605 41.904L80.3285 41.824L78.0885 36.592ZM92.0593 44C90.9553 43.984 90.2673 43.376 90.0113 42.32C89.5473 43.264 88.7473 43.984 87.7873 44H87.7393C86.7473 44 86.0593 43.36 85.9313 42.368C85.2593 43.44 84.3313 44 83.2273 44H83.1633L83.0833 43.28L83.1633 42.56H83.2433C84.0433 42.56 84.7953 42.144 85.1793 41.568C85.6593 40.912 85.8673 40.016 85.9953 39.52L87.1953 39.648C87.0513 40.192 86.8753 40.816 86.8593 41.392C86.8433 42.144 87.0993 42.56 87.7553 42.56H87.7873C88.4433 42.56 88.9233 42.144 89.3233 41.44C89.6433 40.848 89.8033 39.84 89.8833 39.36L91.0673 39.424C91.0033 39.776 90.8593 40.48 90.8593 41.04C90.8593 42.032 91.2113 42.56 92.0913 42.56C92.6673 42.56 93.2273 42.288 93.5153 41.904C93.3873 41.488 93.2433 40.784 92.9713 39.36L94.1393 39.056C94.4433 40.752 94.5553 41.216 94.6833 41.584C94.8913 42.224 95.3233 42.56 96.0913 42.56H96.1713L96.2513 43.28L96.1713 44H96.0913C95.2593 44 94.5393 43.664 94.0433 43.008C93.5793 43.6 92.8913 43.984 92.1233 44H92.0913H92.0593ZM88.1233 36.56C88.4913 36.192 88.8433 35.84 89.1953 35.472L90.2833 36.56C89.9153 36.912 89.5633 37.264 89.1953 37.632C88.8433 37.264 88.4913 36.912 88.1233 36.56ZM89.7073 34.816L90.6673 33.84C90.9873 34.16 91.3073 34.496 91.6273 34.816L90.6673 35.776C90.3473 35.456 90.0273 35.136 89.7073 34.816ZM91.0673 36.56C91.4353 36.192 91.7873 35.84 92.1393 35.472L93.2273 36.56C92.8593 36.912 92.5073 37.264 92.1393 37.632C91.7873 37.264 91.4353 36.912 91.0673 36.56ZM95.8306 44V42.56H96.6626C98.4226 42.56 99.0946 42.096 99.0786 41.152C99.0786 40.4 98.4386 38.624 98.2306 38.176L99.3826 37.568C99.7026 38.256 100.327 40.048 100.327 41.2C100.311 43.056 98.9826 44 96.6626 44H95.8306ZM97.2066 35.424C97.5906 35.04 97.9586 34.656 98.3426 34.288C98.7266 34.656 99.0946 35.04 99.4786 35.424L98.3426 36.56C97.9586 36.176 97.5906 35.808 97.2066 35.424ZM108.583 38.608C108.343 39.28 108.039 40.192 108.151 40.912C108.311 42.048 109.847 42.72 112.919 42.72C116.791 42.72 118.359 41.76 119.095 39.52L120.279 39.648C119.703 41.472 119.991 42.56 121.383 42.56L121.463 43.28L121.383 44C120.103 44 119.143 43.232 118.983 41.936C117.751 43.52 115.751 44.144 112.967 44.16C109.255 44.176 107.111 43.088 106.919 41.12C106.823 40.08 107.159 38.848 107.495 38.064L108.583 38.608ZM110.759 38.368C111.111 38.016 111.479 37.664 111.831 37.296L112.903 38.368C112.551 38.736 112.199 39.088 111.831 39.456C111.479 39.088 111.111 38.736 110.759 38.368ZM113.607 38.368C113.959 38.016 114.327 37.664 114.679 37.296L115.751 38.368C115.399 38.736 115.047 39.088 114.679 39.456C114.327 39.088 113.959 38.736 113.607 38.368ZM121.053 44V42.56H121.245C123.869 42.56 125.517 42.224 126.221 41.344C124.621 41.52 122.941 41.2 122.317 40.032C121.389 38.256 122.685 35.456 124.637 35.456C126.669 35.456 127.789 38.336 127.565 40.624C127.373 42.768 125.261 44 121.245 44H121.053ZM123.293 39.184C123.725 39.888 125.213 40.176 126.525 39.968C126.365 38.56 125.741 36.944 124.637 36.864C123.597 36.8 122.797 38.352 123.293 39.184ZM123.341 33.072C123.725 32.688 124.093 32.304 124.477 31.936C124.861 32.304 125.229 32.688 125.613 33.072L124.477 34.208C124.093 33.824 123.725 33.456 123.341 33.072ZM130.483 32.864C130.675 34.176 130.787 38.4 130.755 40.096C130.707 41.92 130.803 42.56 132.435 42.56H132.515L132.595 43.28L132.515 44H132.435C130.051 44 129.443 42.784 129.491 40.24C129.507 38.368 129.411 34.48 129.203 33.136L130.483 32.864ZM132.203 44V42.56H132.843C135.179 42.56 135.963 42.128 135.963 41.152C135.947 40.4 135.323 38.64 135.099 38.176L136.251 37.568C136.587 38.256 137.211 40 137.195 41.152C137.179 43.008 135.819 44 133.019 44H132.203ZM131.307 46.608C131.659 46.256 132.027 45.904 132.379 45.536L133.451 46.608C133.099 46.976 132.747 47.328 132.379 47.696C132.027 47.328 131.659 46.976 131.307 46.608ZM134.155 46.608C134.507 46.256 134.875 45.904 135.227 45.536L136.299 46.608C135.947 46.976 135.595 47.328 135.227 47.696C134.875 47.328 134.507 46.976 134.155 46.608ZM147.774 44C147.342 44 146.99 43.888 146.702 43.712V43.952C146.702 45.888 144.83 47.728 142.382 48.592L141.838 47.344C143.934 46.624 145.47 45.12 145.47 43.952C145.47 43.296 144.99 41.264 144.654 39.952L145.886 39.488C146.046 40 146.19 40.544 146.302 41.104C146.622 42.16 147.022 42.56 147.774 42.56H147.886L147.966 43.28L147.886 44H147.774ZM147.566 42.56H149.054C149.422 41.888 149.806 41.264 150.206 40.704C150.35 38.48 149.998 34.176 149.822 33.152L151.102 32.864C151.262 33.792 151.534 36.736 151.454 39.216C152.654 38 153.934 37.344 155.134 37.328C156.91 37.344 158.222 38.592 158.078 40.304C157.998 41.28 157.47 42.096 156.638 42.704C157.438 42.624 158.286 42.56 158.766 42.56L158.846 43.28L158.766 44C157.262 44 155.582 43.872 154.67 43.648C153.854 43.872 152.926 44 151.934 44H147.566V42.56ZM150.43 42.56H151.742C154.766 42.56 156.798 41.456 156.91 40.16C156.974 39.344 156.318 38.672 155.134 38.72C153.582 38.784 151.886 40.24 150.43 42.56ZM153.758 34.304C154.142 33.92 154.51 33.536 154.894 33.168C155.278 33.536 155.646 33.92 156.03 34.304L154.894 35.44C154.51 35.056 154.142 34.688 153.758 34.304ZM158.453 44V42.56H159.285C161.045 42.56 161.717 42.096 161.701 41.152C161.701 40.4 161.061 38.624 160.853 38.176L162.005 37.568C162.325 38.256 162.949 40.048 162.949 41.2C162.933 43.056 161.605 44 159.285 44H158.453ZM159.829 35.424C160.213 35.04 160.581 34.656 160.965 34.288C161.349 34.656 161.717 35.04 162.101 35.424L160.965 36.56C160.581 36.176 160.213 35.808 159.829 35.424ZM169.989 41.856C170.453 42.112 171.301 42.672 172.837 42.672C174.101 42.672 174.789 42.224 174.965 41.872C175.317 41.104 174.517 39.328 171.717 37.264L172.437 36.016C175.317 38.192 176.805 40.72 176.005 42.512C175.557 43.52 174.325 44.048 172.949 44.048C171.061 44.048 169.893 43.36 169.365 42.912L169.989 41.856ZM175.584 47.344C177.68 46.624 179.216 45.12 179.216 43.952C179.216 43.296 178.736 41.264 178.4 39.952L179.632 39.488C180.08 40.96 180.448 42.848 180.448 43.952C180.448 45.888 178.576 47.728 176.128 48.592L175.584 47.344ZM181.404 47.312C184.428 46.656 186.044 45.6 186.364 44.016C184.476 44.032 182.668 43.904 182.044 42.672C181.196 40.96 182.588 37.888 184.396 37.888C186.204 37.888 187.308 40.368 187.516 42.56H188.108L188.188 43.28L188.108 44H187.5C187.132 46.304 185.068 47.936 181.82 48.592L181.404 47.312ZM183.068 41.872C183.436 42.448 184.908 42.56 186.38 42.56C186.188 41.008 185.516 39.376 184.364 39.296C183.42 39.232 182.572 41.088 183.068 41.872ZM187.747 44L187.763 42.56H188.067C188.931 42.56 189.699 42.08 190.195 41.072C190.963 39.52 191.923 38.096 193.171 38.032C195.939 37.872 196.851 42.672 194.531 43.92C193.715 44.352 192.339 43.84 190.595 42.72C189.939 43.568 189.059 44 188.035 44H187.747ZM191.251 41.584C192.659 42.464 193.731 42.88 194.131 42.656C195.203 42.112 194.691 39.344 193.283 39.344C192.659 39.344 192.003 40.176 191.251 41.584ZM207.373 36.24C207.501 37.632 207.677 39.52 207.805 40.56C207.965 42.128 208.237 42.56 209.373 42.56H209.597L209.677 43.28L209.597 44H209.373C208.365 44 207.645 43.664 207.181 42.912C204.557 43.728 202.189 42.72 202.429 40.672C202.605 39.12 204.221 38.128 206.189 37.456L206.077 36.496L207.373 36.24ZM203.629 40.688C203.533 41.568 204.893 42.096 206.685 41.536C206.621 41.296 206.589 41.04 206.557 40.752L206.333 38.816C204.877 39.264 203.693 40.032 203.629 40.688ZM221.363 42.56H221.523L221.603 43.28L221.523 44H221.363C219.507 43.984 218.339 43.328 217.779 42C215.635 43.088 213.459 44 210.707 44H209.235V42.56H210.707C213.539 42.56 215.779 41.792 217.923 40.656C218.147 40.528 218.371 40.416 218.595 40.32C217.875 40.192 217.187 39.936 216.451 39.568C215.571 39.104 214.739 38.752 213.907 38.752C212.931 38.736 212.163 39.456 211.843 40.096L210.979 39.504C211.667 38.112 212.707 37.376 213.955 37.392C214.931 37.408 215.715 37.808 216.915 38.416C217.955 38.944 218.819 39.408 220.003 39.648L220.051 40.912C219.667 41.024 219.315 41.2 218.739 41.504C219.219 42.128 220.115 42.544 221.363 42.56ZM221.153 44V42.56H221.537C222.241 42.56 222.865 42.528 223.393 42.48C222.737 41.856 222.417 41.072 222.545 40.224C222.801 38.432 224.161 37.04 225.553 37.2C227.041 37.36 228.049 39.168 227.841 40.704C227.745 41.44 227.457 42.048 226.977 42.544C227.185 42.56 227.393 42.56 227.617 42.56H229.025L229.105 43.28L229.025 44H228.065C226.993 44 226.017 43.84 225.201 43.552C224.241 43.856 223.009 44 221.537 44H221.153ZM223.729 40.384C223.681 41.088 224.177 41.728 225.121 42.128C226.097 41.776 226.481 41.232 226.657 40.592C226.753 39.712 226.257 38.752 225.425 38.64C224.561 38.544 223.857 39.392 223.729 40.384ZM224.337 35.12C224.721 34.736 225.089 34.352 225.473 33.984C225.857 34.352 226.225 34.736 226.609 35.12L225.473 36.256C225.089 35.872 224.721 35.504 224.337 35.12ZM228.665 44V42.56H228.905C230.537 42.56 231.177 41.552 231.529 39.056L232.697 39.296C232.489 40.768 232.665 41.712 233.257 42.256C234.889 39.376 237.001 37.664 238.953 37.664C240.745 37.664 242.057 38.928 241.913 40.624C241.721 42.896 239.161 44.352 235.753 44.336C233.193 44.336 232.169 43.44 231.849 42.272C231.353 43.28 230.601 44 228.889 44H228.665ZM234.329 42.784C234.681 42.864 235.097 42.896 235.561 42.896C238.585 42.912 240.633 41.776 240.745 40.496C240.809 39.664 240.153 39.008 238.953 39.04C237.369 39.104 235.737 40.464 234.329 42.784Z" fill="#3A3A3A"/>
</g>
</svg>
