<svg width="430" height="604" viewBox="0 0 430 604" fill="none" xmlns="http://www.w3.org/2000/svg">
<rect opacity="0.16" x="-1" width="431" height="568" fill="#FFA31A"/>
<g filter="url(#filter0_f_3297_3217)">
<path d="M24.8226 246.433L-64.3135 246.287C-64.3135 246.287 -59.8691 240.239 -54.9782 239.489C-54.9782 239.489 -45.4347 209.822 -29.5221 209.634C-14.7405 209.468 -8.84772 227.924 -8.84772 227.924C-8.84772 227.924 -1.9827 219.659 4.56486 223.458C11.1124 227.258 14.7929 238.095 14.7929 238.095C14.7929 238.095 22.1639 242.269 24.8226 246.433Z" fill="#EBEBEB"/>
<path d="M411.446 324.422L524.163 324.609C524.163 324.609 524.163 317.052 508.647 315.543C508.647 315.543 494.511 282.492 472.864 286.895C459.402 289.643 452.457 309.057 452.457 309.057C452.457 309.057 442.299 293.755 434.144 296.701C425.989 299.647 421.128 315.907 421.128 315.907C421.128 315.907 412.775 320.165 411.446 324.422Z" fill="#EBEBEB"/>
<path d="M247.251 435.525L323.897 435.65C323.897 435.65 316.675 428.571 313.461 428.571C310.246 428.571 300.891 404.837 288.907 405.826C276.923 406.815 270.525 424.459 270.525 424.459C270.525 424.459 255.961 419.65 247.251 435.525Z" fill="#EBEBEB"/>
<path d="M408.599 233.316L474.144 233.42C474.144 233.42 470.89 228.965 467.299 228.403C467.299 228.403 460.354 206.543 448.648 206.387C437.735 206.22 433.39 219.784 433.39 219.784C433.39 219.784 428.36 213.694 423.549 216.463C418.737 219.232 415.989 227.206 415.989 227.206C415.989 227.206 410.573 230.256 408.599 233.316Z" fill="#EBEBEB"/>
<path d="M100.814 223.011H74.4254L44.0288 561.742H79.3459L100.814 223.011Z" fill="#EBEBEB"/>
<path d="M99.0184 251.304L95.685 303.977L67.2627 302.801L71.9849 250.19L99.0184 251.304Z" fill="#C7C7C7"/>
<path d="M105.873 261.548H61.8857V269.115H105.873V261.548Z" fill="#EBEBEB"/>
<path d="M238.342 261.548H194.354V269.115H238.342V261.548Z" fill="#EBEBEB"/>
<path d="M331.883 223.011H358.271L388.668 561.742H353.351L331.883 223.011Z" fill="#EBEBEB"/>
<path d="M397.428 204.544L388.668 223.011H44.0284L35.2686 204.544H397.428Z" fill="#EBEBEB"/>
<path d="M437.011 174.522L418.092 204.544H14.604L-4.31445 174.522C-4.31445 174.522 180.723 187.93 216.348 187.93C251.973 187.93 437.011 174.522 437.011 174.522Z" fill="#C7C7C7"/>
<path d="M333.679 251.304L337.012 303.977L365.434 302.801L360.712 250.19L333.679 251.304Z" fill="#C7C7C7"/>
<path d="M392.637 269.115H40.0605V292.891H392.637V269.115Z" fill="#EBEBEB"/>
<path d="M326.823 269.115H370.811V261.547H326.823V269.115Z" fill="#EBEBEB"/>
<path d="M229.632 223.011H203.065V261.547H229.632V223.011Z" fill="#EBEBEB"/>
<path d="M203.065 227.508V223.011H229.632V230.048L203.065 227.508Z" fill="#C7C7C7"/>
<path d="M229.632 257.05V261.547H203.065V254.51L229.632 257.05Z" fill="#C7C7C7"/>
</g>
<path d="M413.599 434.449C413.599 434.449 413.123 440.07 412.327 449.368C410.553 470.134 407.195 509.296 403.985 544.98H340.478C344.978 507.934 349.902 467.582 352.376 447.434L353.934 434.649V434.449H413.599Z" fill="#263238"/>
<path d="M404.885 442.676L404.366 449.195C401.77 481.175 398.949 513.136 395.158 544.98H394.146C395.496 533.8 396.748 522.601 397.902 511.384C400.065 490.654 402.012 469.907 404.019 449.15C404.227 446.971 404.443 444.809 404.651 442.63C404.668 442.512 404.902 442.521 404.885 442.676Z" fill="#263238"/>
<path d="M428.119 434.449C428.119 434.449 427.159 440.133 425.584 449.54C422.071 470.342 415.494 509.35 409.463 544.98H378.562L371.847 498.563L371.648 497.219L371.587 496.856L370.86 491.853L370.601 489.983L364.543 447.915L362.596 434.449H428.119Z" fill="#37474F"/>
<path d="M447.234 544.98H388.772C387.327 524.541 386.099 507.57 385.882 504.765V504.347C385.233 503.975 384.584 503.593 383.927 503.23C380.855 501.514 378.155 500.152 375.896 499.09C375.464 498.89 375.031 498.699 374.667 498.527C373.534 498.009 372.53 497.619 371.673 497.219C369.501 496.311 368.299 495.93 368.299 495.93C368.229 495.73 368.152 495.549 368.091 495.358C362.501 480.512 358.373 460.536 356.054 447.579C354.825 440.705 354.098 435.775 353.934 434.649C353.934 434.476 353.934 434.395 353.934 434.395H433.026C450.523 472.83 442.207 500.161 442.207 500.161C443.834 514.589 445.582 530.034 447.234 544.98Z" fill="#263238"/>
<path d="M365.27 494.287C372.399 497.004 379.287 500.37 385.856 504.347C385.906 504.378 385.944 504.426 385.962 504.484C385.979 504.542 385.976 504.604 385.952 504.66C385.929 504.715 385.886 504.759 385.833 504.784C385.781 504.808 385.721 504.811 385.666 504.792C378.743 501.669 371.656 498.672 364.898 495.149C364.789 495.097 364.704 495.002 364.662 494.885C364.62 494.767 364.624 494.637 364.673 494.523C364.722 494.408 364.813 494.319 364.925 494.275C365.037 494.231 365.161 494.235 365.27 494.287Z" fill="#37474F"/>
<path d="M363.072 444.355C363.072 444.101 363.505 444.047 363.505 444.355C363.503 452.461 363.89 460.561 364.664 468.626C364.984 472.376 367.857 493.097 374.053 491.58C375.083 491.326 375.619 490.255 375.784 488.62C375.983 486.65 375.273 484.226 374.918 482.264C374.235 477.933 373.681 473.575 373.326 469.198C372.609 461.039 372.693 452.824 373.577 444.682C373.577 444.627 373.598 444.574 373.636 444.535C373.673 444.495 373.723 444.473 373.776 444.473C373.829 444.473 373.88 444.495 373.917 444.535C373.954 444.574 373.975 444.627 373.975 444.682C373.975 456.005 374.252 467.301 375.862 478.505C376.64 483.899 379.228 492.007 373.854 492.834C368.48 493.66 364.846 480.122 364.18 476.381C362.362 466.048 362.285 454.843 363.072 444.355Z" fill="#37474F"/>
<path d="M373.897 492.144C374.444 493.541 374.909 494.972 375.29 496.429C375.687 497.56 375.884 498.757 375.87 499.961C375.861 500.01 375.838 500.054 375.805 500.089C375.772 500.124 375.73 500.148 375.685 500.159C375.639 500.17 375.591 500.166 375.547 500.149C375.503 500.131 375.465 500.101 375.437 500.061C374.797 499 374.312 497.842 374.001 496.629C373.525 495.294 373.032 493.978 372.59 492.634C372.528 492.452 372.538 492.252 372.616 492.077C372.695 491.903 372.837 491.768 373.01 491.703C373.183 491.638 373.374 491.648 373.54 491.731C373.707 491.813 373.835 491.962 373.897 492.144Z" fill="#37474F"/>
<path d="M410.207 286.981C417.502 297.114 417.995 312.078 417.995 312.078C417.995 312.078 424.165 327.995 420.816 335.623C419.906 337.799 418.508 339.711 416.74 341.196C414.972 342.681 412.888 343.694 410.665 344.149L412.067 339.854C412.067 339.854 408.606 345.129 399.139 346.065C389.672 347 378.034 342.251 372.201 337.983C368.738 335.475 365.954 332.069 364.119 328.095L365.607 334.86C365.607 334.86 356.798 333.225 352.87 322.556C348.941 311.887 365.971 299.92 367.667 297.051C369.363 294.181 373.993 272.108 395.842 279.281C395.816 279.281 405.179 280.008 410.207 286.981Z" fill="#263238"/>
<path d="M413.988 344.058C416.584 342.569 419.18 340.798 420.772 338.437C422.533 335.965 423.447 332.942 423.368 329.857C423.238 326.152 421.854 322.702 420.504 319.333C419.154 315.964 417.475 312.469 416.177 308.964C416.099 308.764 416.376 308.655 416.48 308.818C418.142 311.56 419.65 314.401 420.997 317.326C422.418 320.024 423.536 322.885 424.329 325.852C425.062 328.595 425.032 331.5 424.242 334.224C423.498 336.424 422.254 338.4 420.616 339.981C418.687 341.888 416.402 342.959 414.109 344.267C413.901 344.312 413.815 344.14 413.988 344.058Z" fill="#263238"/>
<path d="M352.333 312.096C356.115 304.287 363.86 300.12 369.103 293.591C371.95 290.059 374.295 286.037 377.757 283.113C377.852 283.04 377.982 283.204 377.887 283.285C375.005 285.955 373.075 289.387 370.817 292.592C368.451 295.762 365.787 298.673 362.864 301.282C357.672 306.203 351.485 312.015 351.442 319.969C351.442 323.646 352.922 327.932 356.288 329.584C356.418 329.648 356.288 329.866 356.175 329.784C354.865 328.995 353.722 327.933 352.817 326.664C351.913 325.394 351.265 323.944 350.914 322.402C350.183 318.9 350.688 315.238 352.333 312.096Z" fill="#263238"/>
<path d="M351.684 314.266C351.869 311.119 352.971 308.108 354.842 305.64C356.755 303.225 359.429 301.672 362.085 300.338C365.149 298.803 368.342 297.387 370.54 294.554C370.635 294.436 370.79 294.599 370.704 294.717C367.191 299.402 361.514 300.991 357.309 304.705C352.497 309 351.528 316.155 353.622 322.193C354.978 325.882 357.145 329.183 359.948 331.827C359.948 331.872 359.948 331.954 359.879 331.909C355.145 327.514 351.199 321.231 351.684 314.266Z" fill="#263238"/>
<path d="M377.298 358.377C354.799 379.47 326.451 392.245 312.709 390.248C299.807 388.368 277.932 332.227 276.244 321.83C275.561 317.635 312.476 316.782 314.18 320.922C318.94 332.653 325.43 356.225 327.411 356.888C329.393 357.551 349.625 353.583 371.05 345.611C382.464 341.397 390.555 345.947 377.298 358.377Z" fill="#FFC4C0"/>
<path d="M277.265 324.218C275.595 320.286 270.075 308.274 268.863 295.952C268.318 290.341 267.669 274.06 271.719 273.143C275.768 272.226 276.305 276.984 276.305 276.984C276.305 276.984 277.084 270.065 281.246 269.538C285.408 269.012 286.005 276.421 286.005 276.421C286.005 276.421 287.303 269.384 291.483 269.157C295.662 268.93 295.083 276.512 295.083 276.512C295.083 276.512 295.948 270.01 299.505 271.354C303.736 272.961 300.785 284.747 301.884 290.885C302.135 292.284 308.876 318.779 308.876 318.779L277.265 324.218Z" fill="#FFC4C0"/>
<path d="M295.126 275.858C292.971 284.529 293.465 288.706 295.991 297.105C296.043 297.269 295.827 297.387 295.758 297.223C292.547 289.233 291.215 284.084 294.711 275.731C294.901 275.304 295.221 275.449 295.126 275.858Z" fill="#263238"/>
<path d="M286.187 275.74C284.707 284.947 285.192 289.487 287.251 298.485C287.251 298.612 287.078 298.676 287.035 298.558C284.318 289.896 283.098 284.729 285.737 275.731C285.85 275.304 286.256 275.304 286.187 275.74Z" fill="#263238"/>
<path d="M276.4 277.438C275.578 286.463 275.915 291.467 278.996 299.938C279.013 299.978 279.015 300.023 279 300.064C278.985 300.105 278.956 300.138 278.918 300.156C278.88 300.174 278.837 300.176 278.798 300.16C278.759 300.145 278.728 300.114 278.71 300.074C274.782 291.748 274.323 285.546 276.158 277.438C276.279 276.893 276.469 276.866 276.4 277.438Z" fill="#263238"/>
<path d="M314.345 322.992C314.345 322.992 317.616 312.314 318.066 307.284C318.516 302.254 313.618 282.877 309.569 283.748C304.377 284.874 305.069 296.651 306.107 302.362C306.107 302.362 293.993 304.959 292.79 313.522C291.587 322.084 314.345 322.992 314.345 322.992Z" fill="#FFC4C0"/>
<path d="M308.236 284.557C304.168 289.187 306.038 296.597 306.687 302.226C306.701 302.309 306.696 302.394 306.672 302.474C306.648 302.554 306.605 302.626 306.548 302.685C306.49 302.743 306.42 302.786 306.343 302.809C306.266 302.832 306.185 302.834 306.107 302.817C301.105 304.26 294.451 307.82 292.625 313.231C292.621 313.248 292.614 313.264 292.604 313.278C292.594 313.291 292.582 313.303 292.568 313.312C292.554 313.321 292.538 313.327 292.522 313.329C292.506 313.332 292.489 313.331 292.474 313.327C292.458 313.322 292.443 313.315 292.429 313.305C292.416 313.295 292.405 313.282 292.397 313.267C292.388 313.252 292.383 313.236 292.38 313.219C292.378 313.202 292.379 313.184 292.383 313.168C293.594 307.084 299.859 303.025 305.432 301.818C304.679 296.052 303.113 288.543 308.192 284.511C308.218 284.493 308.262 284.529 308.236 284.557Z" fill="#263238"/>
<path d="M355.509 382.748L352.385 351.286C352.385 351.286 366.637 345.901 374.936 344.085C385.908 341.697 389.326 345.411 381.045 356.906C375.498 364.606 355.509 382.748 355.509 382.748Z" fill="#FFC727"/>
<path d="M382.473 354.827C382.178 355.281 381.858 355.735 381.521 356.234C381.768 355.377 382.104 354.552 382.525 353.773C382.516 354.128 382.507 354.482 382.473 354.827ZM354.739 356.434C354.146 357.579 353.695 358.8 353.397 360.066C353.397 360.211 353.337 360.365 353.302 360.502L353.51 362.563C353.786 361.818 354.02 361.057 354.211 360.284C354.547 359.03 354.724 357.736 354.739 356.434ZM363.037 374.276C361.951 374.919 360.95 375.71 360.06 376.628C361.256 376.245 362.401 375.708 363.47 375.03C363.816 374.812 364.162 374.585 364.5 374.34L366.126 372.778C365.049 373.162 364.014 373.664 363.037 374.276ZM366.55 346.391L365.815 346.627C366.272 347.336 366.791 347.998 367.364 348.607C367.164 347.842 366.892 347.099 366.55 346.391Z" fill="white"/>
<path d="M358.036 379.243C357.88 374.63 357.664 370.036 357.257 365.441C357.049 363.144 355.777 354.028 355.526 351.749C355.531 351.734 355.532 351.718 355.529 351.702C355.527 351.687 355.521 351.672 355.512 351.66C355.503 351.647 355.492 351.637 355.478 351.63C355.465 351.623 355.45 351.619 355.436 351.619C355.421 351.619 355.406 351.623 355.393 351.63C355.379 351.637 355.368 351.647 355.359 351.66C355.35 351.672 355.344 351.687 355.342 351.702C355.339 351.718 355.34 351.734 355.345 351.749C355.345 354.591 356.262 363.662 356.478 365.959C356.902 370.499 357.517 374.657 357.845 379.243C357.863 379.406 358.045 379.37 358.036 379.243Z" fill="#263238"/>
<path opacity="0.1" d="M381.045 356.906C375.498 364.606 355.509 382.748 355.509 382.748L353.155 359.049L385.173 345.256C386.419 347.308 385.216 351.131 381.045 356.906Z" fill="black"/>
<path d="M433.026 434.395L353.969 434.649L359.862 395.56C359.862 395.56 353.415 386.325 356.011 377.4C359.654 364.924 377.714 343.686 379.288 342.396C385.623 337.202 394.934 337.811 399.529 342.215C427.686 369.237 433.026 434.395 433.026 434.395Z" fill="#FFC727"/>
<path d="M368.991 399.882C368.866 398.578 368.898 397.263 369.086 395.968C369.239 394.667 369.55 393.391 370.012 392.173C370.145 393.476 370.113 394.792 369.916 396.086C369.766 397.388 369.454 398.664 368.991 399.882ZM395.954 429.137C395.49 430.355 395.179 431.631 395.028 432.933C394.959 433.45 394.907 433.977 394.881 434.513H395.608C395.712 434.031 395.79 433.541 395.859 433.051C396.067 431.758 396.111 430.442 395.989 429.137H395.954ZM385.778 353.955C385.966 352.66 385.998 351.345 385.873 350.041C385.41 351.257 385.099 352.529 384.947 353.828C384.759 355.126 384.728 356.444 384.852 357.75C385.322 356.532 385.644 355.257 385.813 353.955H385.778ZM412.733 385.799C412.928 384.504 412.963 383.189 412.837 381.885C412.37 383.103 412.056 384.378 411.902 385.68C411.715 386.976 411.683 388.29 411.807 389.594C412.281 388.377 412.604 387.102 412.768 385.799H412.733ZM389.603 394.079C388.369 393.882 387.115 393.849 385.873 393.98C387.034 394.468 388.249 394.798 389.49 394.96C390.725 395.157 391.978 395.191 393.22 395.06C392.069 394.578 390.866 394.248 389.637 394.079H389.603ZM365.607 429.882C364.373 429.685 363.12 429.651 361.878 429.782C364.218 430.716 366.73 431.082 369.224 430.853C368.073 430.375 366.87 430.049 365.642 429.882H365.607ZM422.52 403.55C421.286 403.353 420.033 403.319 418.79 403.45C421.131 404.384 423.643 404.75 426.137 404.521C424.987 404.034 423.784 403.695 422.555 403.514L422.52 403.55ZM381.365 416.952C382.373 416.17 383.28 415.254 384.065 414.228C382.918 414.743 381.839 415.412 380.854 416.217C379.848 417.004 378.938 417.919 378.146 418.941C379.296 418.425 380.377 417.757 381.365 416.952ZM419.716 424.643C420.727 423.861 421.637 422.945 422.425 421.919C421.263 422.441 420.172 423.121 419.18 423.944C418.173 424.731 417.264 425.646 416.471 426.668C417.632 426.147 418.723 425.469 419.716 424.652V424.643ZM369.311 373.459C370.319 372.677 371.226 371.761 372.011 370.735C370.865 371.257 369.786 371.928 368.8 372.732C367.79 373.512 366.883 374.428 366.1 375.456C367.246 374.934 368.325 374.263 369.311 373.459ZM405.655 349.143L405.343 349.533L405.793 349.333L405.655 349.143ZM355.751 385.717C355.812 386.053 355.889 386.38 355.967 386.707L356.357 387.042C356.183 386.587 355.981 386.144 355.751 385.717ZM402.903 409.061C403.648 410.122 404.521 411.077 405.499 411.904C404.465 409.506 402.93 407.383 401.008 405.693C401.503 406.895 402.139 408.026 402.903 409.061ZM395.677 374.557C396.423 375.615 397.296 376.567 398.273 377.39C397.782 376.187 397.145 375.055 396.378 374.022C395.628 372.966 394.756 372.011 393.782 371.18C394.273 372.381 394.91 373.51 395.677 374.539V374.557Z" fill="white"/>
<path d="M385.96 393.735C382.26 393.381 378.541 393.317 374.832 393.544C372.989 393.68 371.172 393.907 369.346 394.17C368.428 394.307 367.52 394.406 366.603 394.497C365.649 394.62 364.684 394.62 363.73 394.497C363.643 394.497 363.626 394.615 363.73 394.634C364.616 394.849 365.515 395 366.421 395.088C367.285 395.153 368.153 395.153 369.017 395.088C370.886 394.969 372.755 394.761 374.624 394.615C378.389 394.334 382.153 394.052 385.934 394.052C386.125 394.061 386.133 393.753 385.96 393.735Z" fill="#263238"/>
<path d="M394.371 398.837C391.43 397.936 388.442 397.208 385.423 396.658C383.909 396.386 382.395 396.213 380.863 396.077C380.136 396.014 379.409 395.968 378.674 395.923C377.938 395.877 377.064 395.923 376.26 395.923C376.173 395.923 376.147 396.05 376.26 396.059C377.021 396.132 377.765 396.34 378.518 396.468L380.777 396.831C382.291 397.085 383.797 397.348 385.311 397.584C388.331 398.048 391.368 398.547 394.354 399.119C394.492 399.128 394.518 398.883 394.371 398.837Z" fill="#263238"/>
<path d="M381.737 348.153L377.783 359.421C376.479 363.18 375.227 366.954 374.027 370.744C373.439 372.642 372.859 374.548 372.383 376.473C372.123 377.427 371.924 378.398 371.743 379.361C371.599 380.322 371.539 381.294 371.561 382.266C371.734 386.213 372.68 390.079 374.339 393.625L374.382 393.734V393.834C373.972 400.602 373.531 407.364 373.058 414.119C372.617 420.884 372.115 427.639 371.595 434.395C371.872 427.621 372.181 420.85 372.521 414.083C372.862 407.315 373.219 400.55 373.594 393.789V393.998C372.752 392.168 372.069 390.263 371.552 388.305C371.03 386.343 370.74 384.321 370.687 382.285C370.672 381.254 370.745 380.224 370.903 379.206C371.102 378.208 371.319 377.218 371.578 376.246C372.089 374.303 372.686 372.396 373.309 370.49C374.529 366.694 375.905 362.953 377.315 359.23C378.726 355.508 380.24 351.812 381.737 348.153Z" fill="#263238"/>
<path d="M382.482 355.562L375.343 355.035L375.169 356.161L382.3 357.342L382.482 355.562Z" fill="#263238"/>
<path d="M378.336 367.339L371.197 366.812L371.016 367.947L378.155 369.128L378.336 367.339Z" fill="#263238"/>
<path d="M374.537 380.242L367.424 381.013L367.433 382.167L374.658 382.03L374.537 380.242Z" fill="#263238"/>
<path d="M376.926 392.908L369.804 393.689L369.822 394.833L377.038 394.706L376.926 392.908Z" fill="#263238"/>
<path d="M376.788 405.656H369.631L369.527 406.791L376.727 407.454L376.788 405.656Z" fill="#263238"/>
<path d="M376.121 418.895L368.965 418.886L368.861 420.03L376.06 420.693L376.121 418.895Z" fill="#263238"/>
<path d="M354.869 390.384C328.095 383.837 307.552 409.688 280.822 403.241L271.84 356.824C298.224 361.364 318.351 333.489 344.744 338.074L354.869 390.384Z" fill="white"/>
<path d="M344.614 338.047L344.77 338.21C318.377 333.67 298.258 361.518 271.883 357.033L272.065 356.86C275.041 372.333 278.015 387.805 280.986 403.277L280.796 403.096C294.165 406.337 305.977 401.516 317.78 396.694C329.583 391.873 341.464 387.07 354.868 390.384L344.614 338.047ZM317.936 396.876C306.107 401.734 294.286 406.61 280.891 403.386H280.727V403.232C277.704 387.766 274.689 372.296 271.684 356.824L271.641 356.624H271.866C298.25 361.164 318.377 333.334 344.779 337.938H344.908V338.065C348.249 355.498 351.58 372.929 354.903 390.357C341.508 387.151 329.704 392 317.936 396.876Z" fill="#263238"/>
<path d="M324.426 367.23C325.767 374.203 321.726 381.758 315.461 384.482C309.196 387.206 303.009 383.683 301.711 376.964C300.413 370.244 304.472 362.753 310.667 359.712C316.863 356.67 323.059 360.202 324.426 367.23Z" fill="#FF1515"/>
<path opacity="0.05" d="M339.094 389.885C332.171 391.001 325.62 393.607 319.044 396.295L316.327 343.513C320.59 341.471 325.029 339.86 329.584 338.701L339.094 389.885Z" fill="black"/>
<path d="M367 455.088C366.759 455.133 366.511 455.076 366.31 454.93C366.109 454.784 365.972 454.56 365.927 454.307L342.503 333.089C342.479 332.97 342.478 332.847 342.499 332.727C342.521 332.607 342.564 332.493 342.628 332.391C342.691 332.289 342.773 332.201 342.869 332.133C342.965 332.064 343.073 332.016 343.186 331.991C343.3 331.965 343.417 331.964 343.531 331.987C343.645 332.009 343.754 332.055 343.851 332.122C343.949 332.188 344.032 332.274 344.098 332.375C344.164 332.475 344.21 332.589 344.233 332.708L367.658 453.953C367.708 454.195 367.668 454.447 367.546 454.659C367.423 454.87 367.228 455.024 367 455.088Z" fill="#455A64"/>
<path fill-rule="evenodd" clip-rule="evenodd" d="M345.912 329.92C346.039 330.556 345.984 331.218 345.753 331.821C345.521 332.424 345.125 332.941 344.614 333.308C344.102 333.675 343.499 333.874 342.88 333.881C342.26 333.888 341.653 333.702 341.134 333.347C340.616 332.991 340.209 332.483 339.966 331.885C339.722 331.287 339.653 330.628 339.767 329.989C339.882 329.35 340.173 328.761 340.606 328.296C341.039 327.832 341.594 327.512 342.2 327.378C342.603 327.289 343.019 327.284 343.423 327.363C343.828 327.443 344.214 327.605 344.558 327.842C344.903 328.078 345.2 328.383 345.433 328.739C345.665 329.096 345.828 329.497 345.912 329.92Z" fill="#455A64"/>
<path d="M415.018 348.752C432.991 361.673 455.913 387.669 455.974 404.512C456.026 420.738 394.743 434.649 383.554 436.292C378.717 437.01 370.574 397.448 375.688 396.286C384.117 394.379 418.384 388.668 418.955 388.486C418.955 388.486 409.358 374.067 400.714 357.914C388.997 335.949 402.306 339.618 415.018 348.752Z" fill="#FFC4C0"/>
<path d="M330.181 408.326C329.54 412.521 333.287 414.482 333.287 414.482C331.97 416.083 331.226 418.116 331.184 420.23C331.271 423.962 336.887 425.442 336.887 425.442C335.85 427.403 335.398 429.646 335.589 431.88C336.022 435.439 341.482 437.782 341.482 437.782C341.472 440.136 342.271 442.414 343.732 444.201C347.816 448.805 356.815 447.052 362.535 445.89C371.024 444.165 383.528 436.056 386.592 434.703L380.24 396.068C380.24 396.068 353.224 393.344 346.665 395.605C341.118 397.548 330.916 403.613 330.181 408.326Z" fill="#FFC4C0"/>
<path d="M333.443 413.81C338.843 410.278 344.952 408.617 350.957 406.601C350.982 406.601 351.006 406.609 351.025 406.624C351.045 406.64 351.059 406.661 351.066 406.686C351.073 406.71 351.072 406.737 351.063 406.761C351.055 406.785 351.039 406.805 351.018 406.819C345.03 408.753 339.474 411.922 333.573 414.083C333.542 414.086 333.51 414.079 333.483 414.063C333.456 414.047 333.433 414.023 333.419 413.993C333.405 413.964 333.4 413.93 333.404 413.898C333.409 413.865 333.422 413.835 333.443 413.81Z" fill="#263238"/>
<path d="M336.921 424.915C338.223 424.234 339.605 423.739 341.032 423.444C342.52 423.027 344.008 422.636 345.514 422.273C348.508 421.547 351.571 420.884 354.557 420.321C354.695 420.321 354.765 420.502 354.626 420.539C351.632 421.274 348.655 422.055 345.696 422.918C344.213 423.347 342.739 423.792 341.274 424.252C339.908 424.773 338.492 425.136 337.051 425.333C337.003 425.336 336.956 425.322 336.916 425.294C336.877 425.266 336.847 425.225 336.832 425.177C336.818 425.129 336.818 425.077 336.834 425.03C336.85 424.983 336.881 424.942 336.921 424.915Z" fill="#263238"/>
<path d="M341.612 437.745C342.796 437.148 344.069 436.771 345.376 436.628L349.486 435.72C352.229 435.085 354.972 434.449 357.69 433.705C357.718 433.698 357.747 433.703 357.772 433.719C357.796 433.734 357.815 433.759 357.822 433.788C357.83 433.817 357.827 433.848 357.814 433.875C357.8 433.902 357.777 433.922 357.75 433.932C354.998 434.694 352.247 435.493 349.486 436.229C348.125 436.592 346.766 436.946 345.411 437.291C344.199 437.736 342.921 437.948 341.638 437.918C341.616 437.921 341.594 437.916 341.576 437.902C341.558 437.889 341.546 437.868 341.543 437.845C341.539 437.822 341.544 437.799 341.557 437.78C341.57 437.761 341.59 437.749 341.612 437.745Z" fill="#263238"/>
<path d="M418.592 388.296C421.357 388.248 424.117 388.553 426.812 389.204C428.162 389.522 429.494 389.92 430.802 390.393C432.111 390.862 433.381 391.442 434.6 392.127L430.603 391.074C429.279 390.738 427.955 390.393 426.622 390.094C423.957 389.467 421.292 388.913 418.592 388.296Z" fill="#263238"/>
<path d="M436.115 363.38L407.481 373.268C407.481 373.268 399.433 359.793 395.989 351.676C391.429 340.934 394.163 336.639 406.633 342.687C414.975 346.709 436.115 363.38 436.115 363.38Z" fill="#FFC727"/>
<path d="M423.853 364.615C421.358 364.843 418.847 364.477 416.506 363.543C417.748 363.404 419.002 363.437 420.236 363.643C421.476 363.803 422.692 364.129 423.853 364.615ZM410.821 345.038C408.707 346.116 406.832 347.647 405.317 349.533C406.467 349.018 407.549 348.349 408.536 347.544C409.44 346.842 410.267 346.039 411.003 345.147L410.821 345.038Z" fill="white"/>
<path d="M410.319 372.287C409.36 372.52 408.412 372.805 407.481 373.141C406.572 371.534 405.681 369.908 404.764 368.31C404.297 367.511 403.821 366.712 403.336 365.931C402.852 365.151 402.237 364.052 401.761 363.289C401.755 363.277 401.747 363.266 401.737 363.257C401.727 363.248 401.716 363.242 401.703 363.238C401.691 363.234 401.678 363.233 401.665 363.234C401.652 363.236 401.64 363.24 401.628 363.247C401.617 363.254 401.607 363.263 401.599 363.274C401.592 363.285 401.586 363.298 401.583 363.311C401.58 363.324 401.58 363.338 401.582 363.351C401.585 363.365 401.59 363.378 401.597 363.389C402.116 364.442 402.54 365.205 402.999 366.113C403.319 366.758 403.665 367.393 404.011 368.029L403.63 367.62C402.964 366.867 402.237 366.186 401.614 365.387C401.536 365.296 401.389 365.432 401.476 365.523C402.133 366.286 402.696 367.121 403.336 367.893C403.805 368.498 404.314 369.069 404.859 369.6C405.603 370.962 406.287 372.596 407.092 373.886C408.212 373.466 409.302 372.962 410.354 372.378C410.406 372.369 410.371 372.287 410.319 372.287Z" fill="#263238"/>
<path d="M432.316 361.51C428.059 362.645 423.818 363.843 419.63 365.242C417.536 365.941 409.315 369.182 407.247 369.909C407.126 369.954 407.195 370.127 407.308 370.099C409.956 369.455 418.22 366.622 420.288 365.913C424.459 364.506 428.171 362.999 432.403 361.691C432.506 361.655 432.437 361.473 432.316 361.51Z" fill="#263238"/>
<path d="M395.34 343.667C394.769 345.12 386.384 353.719 379.868 352.266C377.739 351.785 379.712 339.554 379.712 339.554L379.66 338.646L378.942 325.48L394.657 318.361L396.907 317.453C396.907 317.453 396.907 321.085 396.803 325.571C396.803 325.78 396.803 325.989 396.803 326.206C396.803 326.424 396.803 326.706 396.803 326.942C396.803 327.614 396.803 328.304 396.803 328.985C396.803 329.503 396.803 330.011 396.751 330.556C396.699 331.101 396.699 331.636 396.682 332.19C396.481 336.043 396.033 339.878 395.34 343.667Z" fill="#FFC4C0"/>
<path d="M396.802 325.507C395.02 328.861 392.563 331.767 389.603 334.025C386.643 336.283 383.25 337.838 379.66 338.583L378.942 325.417L394.656 318.298L396.906 317.39C396.906 317.39 396.88 321.004 396.802 325.507Z" fill="#263238"/>
<path d="M365.339 304.151C361.644 326.96 374.252 331.863 378.942 332.69C383.2 333.443 397.78 335.414 403.699 313.149C409.618 290.885 400.679 281.842 391.031 279.553C381.382 277.265 368.991 281.333 365.339 304.151Z" fill="#FFC4C0"/>
<path d="M403.119 313.576C399.476 313.64 399.113 305.604 399.113 305.604C399.113 305.604 391.74 305.15 389.975 293.873C389.988 297.219 390.932 300.489 392.692 303.279C392.692 303.279 379.781 300.982 374.987 289.215C374.987 289.215 376.822 295.171 378.752 297.387C378.752 297.387 373.395 295.434 371.015 290.622C371.015 290.622 368.35 297.06 366.49 298.794C366.49 298.794 368.437 274.968 389.352 278.882C389.352 278.882 402.479 280.698 406.563 291.92C410.648 303.143 403.119 313.576 403.119 313.576Z" fill="#263238"/>
<path d="M399.961 314.285C399.961 314.285 405.318 307.502 408.294 309.563C411.271 311.624 406.849 321.748 403.102 322.865C402.629 323.042 402.127 323.116 401.625 323.084C401.124 323.052 400.634 322.914 400.184 322.678C399.735 322.443 399.336 322.114 399.01 321.712C398.685 321.311 398.44 320.844 398.291 320.341L399.961 314.285Z" fill="#FFC4C0"/>
<path d="M406.953 312.432C406.962 312.436 406.97 312.443 406.976 312.452C406.981 312.461 406.984 312.471 406.984 312.482C406.984 312.493 406.981 312.503 406.976 312.512C406.97 312.521 406.962 312.528 406.953 312.532C404.305 313.44 402.756 315.783 401.614 318.289C402.479 317.381 403.535 316.899 404.729 317.962C404.79 318.016 404.729 318.116 404.651 318.098C404.211 317.907 403.725 317.865 403.26 317.975C402.795 318.086 402.374 318.344 402.055 318.715C401.533 319.341 401.075 320.023 400.688 320.749C400.549 320.985 400.143 320.822 400.255 320.55V320.486C400.506 317.072 403.422 312.478 406.953 312.432Z" fill="#263238"/>
<path d="M372.011 300.401C372.522 300.395 373.034 300.362 373.542 300.301C374.084 300.345 374.625 300.202 375.083 299.893C375.208 299.764 375.29 299.596 375.315 299.414C375.34 299.231 375.307 299.045 375.221 298.885C375.008 298.596 374.724 298.372 374.399 298.238C374.075 298.104 373.722 298.064 373.378 298.122C372.663 298.116 371.974 298.395 371.448 298.903C371.345 299.028 371.276 299.181 371.249 299.345C371.222 299.508 371.239 299.677 371.297 299.831C371.355 299.986 371.452 300.12 371.578 300.221C371.704 300.321 371.853 300.384 372.011 300.401Z" fill="#263238"/>
<path d="M387.491 303.516C387.003 303.357 386.523 303.169 386.055 302.953C385.521 302.833 385.039 302.529 384.688 302.09C384.602 301.93 384.57 301.745 384.597 301.564C384.623 301.383 384.707 301.216 384.835 301.091C385.119 300.879 385.451 300.751 385.798 300.719C386.145 300.687 386.493 300.753 386.808 300.91C387.491 301.128 388.073 301.603 388.443 302.244C388.51 302.396 388.535 302.564 388.517 302.731C388.498 302.897 388.436 303.054 388.338 303.185C388.239 303.317 388.108 303.417 387.959 303.476C387.81 303.534 387.648 303.548 387.491 303.516Z" fill="#263238"/>
<path d="M381.729 320.995C381.357 321.349 380.976 321.848 380.422 321.903C379.863 321.863 379.318 321.703 378.821 321.43C378.769 321.43 378.717 321.43 378.752 321.512C378.96 321.825 379.243 322.074 379.573 322.234C379.903 322.394 380.268 322.458 380.63 322.42C380.941 322.349 381.226 322.182 381.448 321.941C381.669 321.701 381.818 321.397 381.876 321.067C381.902 320.986 381.789 320.949 381.729 320.995Z" fill="#263238"/>
<path d="M375.239 313.948C375.239 313.948 374.607 316.255 374.46 317.372C375.419 317.768 376.461 317.888 377.479 317.719C378.497 317.55 379.454 317.097 380.249 316.409C380.344 316.318 380.249 316.173 380.11 316.228C378.627 316.991 376.949 317.233 375.325 316.918C375.325 316.6 376.537 313.004 376.372 312.968C375.539 312.916 374.703 312.987 373.889 313.177C375.065 308.328 376.987 303.715 378.094 298.867C378.099 298.832 378.093 298.796 378.076 298.765C378.06 298.735 378.033 298.711 378.002 298.698C377.971 298.686 377.936 298.685 377.904 298.695C377.872 298.706 377.844 298.728 377.826 298.758C375.49 303.434 374.018 308.991 372.634 313.958C372.495 314.584 374.789 314.076 375.239 313.948Z" fill="#263238"/>
<path d="M382.083 309.345C382.083 309.345 382.247 309.345 382.23 309.418C381.936 310.326 381.979 311.433 383.909 311.642C383.969 311.642 383.909 311.697 383.909 311.697C381.469 311.679 381.451 310.253 382.083 309.345Z" fill="#263238"/>
<path d="M384.29 308.255C385.484 308.146 386.488 308.564 386.583 309.363C386.678 310.162 385.873 310.843 384.35 310.934C381.036 311.143 381.253 308.519 384.29 308.255Z" fill="#263238"/>
<path d="M381.78 310.126C383.819 309.989 385.844 309.686 387.838 309.218C387.354 308.686 386.748 308.294 386.078 308.079C385.408 307.864 384.697 307.834 384.013 307.992C383.48 308.071 382.981 308.317 382.583 308.698C382.185 309.079 381.905 309.576 381.78 310.126Z" fill="#263238"/>
<path d="M385.432 307.992C386.034 308.178 386.651 308.302 387.275 308.364C387.555 308.321 387.821 308.209 388.051 308.037C388.281 307.865 388.469 307.638 388.599 307.375C388.599 307.32 388.677 307.375 388.686 307.429C388.733 307.856 388.643 308.287 388.43 308.654C388.217 309.021 387.892 309.303 387.509 309.454C387.071 309.61 386.593 309.582 386.175 309.375C385.757 309.169 385.431 308.8 385.268 308.346C385.268 308.183 385.259 307.992 385.432 307.992Z" fill="#263238"/>
<path d="M374.183 307.42H374.044C373.94 308.41 373.542 309.418 372.019 309.054C371.967 309.054 371.967 309.054 372.019 309.109C373.819 309.808 374.321 308.473 374.183 307.42Z" fill="#263238"/>
<path d="M372.867 305.731C371.552 305.086 370.86 305.386 370.583 305.876C370.306 306.367 370.583 307.565 371.907 308.292C374.278 309.581 375.091 306.812 372.867 305.731Z" fill="#263238"/>
<path d="M374.122 308.255C372.496 307.4 370.944 306.398 369.484 305.259C370.08 305.022 370.719 304.928 371.354 304.985C371.989 305.041 372.604 305.247 373.153 305.586C373.534 305.893 373.827 306.305 373.998 306.776C374.169 307.248 374.212 307.76 374.122 308.255Z" fill="#263238"/>
<path d="M371.838 305.032C371.275 305.021 370.715 304.948 370.167 304.814C369.932 304.674 369.731 304.478 369.58 304.241C369.43 304.005 369.335 303.734 369.302 303.452C369.302 303.389 369.242 303.452 369.216 303.452C369.041 303.826 368.984 304.248 369.05 304.659C369.117 305.07 369.305 305.448 369.588 305.74C369.753 305.879 369.944 305.981 370.148 306.039C370.352 306.097 370.566 306.111 370.776 306.078C370.985 306.046 371.186 305.968 371.366 305.851C371.546 305.733 371.7 305.578 371.82 305.395C371.95 305.268 372.019 305.068 371.838 305.032Z" fill="#263238"/>
<path d="M375.688 317.29C376.132 318.214 376.794 319.005 377.61 319.587C378.067 319.887 378.602 320.033 379.141 320.005C380.318 319.923 380.543 318.852 380.5 317.889C380.478 317.375 380.396 316.866 380.257 316.373C378.867 317.182 377.266 317.503 375.688 317.29Z" fill="#263238"/>
<path d="M377.644 319.587C378.102 319.888 378.636 320.033 379.176 320.005C380.353 319.923 380.578 318.852 380.534 317.889C379.941 317.79 379.333 317.904 378.808 318.212C378.284 318.52 377.874 319.005 377.644 319.587Z" fill="#FF98B9"/>
<path d="M377.514 344.003C377.514 344.003 377.765 339.373 378.033 339.082C378.302 338.791 381.495 342.805 381.763 343.731C381.935 345.826 381.987 347.931 381.919 350.032C381.919 350.032 384.324 343.894 385.285 343.259C386.245 342.623 395.859 335.495 396.759 335.831C397.659 336.167 396.863 343.095 396.508 343.849C396.153 344.603 384.567 354.427 380.932 353.392C377.298 352.357 377.514 344.003 377.514 344.003Z" fill="#FFC727"/>
<path d="M85.3863 544.889H27.0801C24.8649 520.219 22.5112 493.133 20.7286 472.494C20.7286 471.941 20.6334 471.387 20.5815 470.824C18.946 451.81 17.8384 438.662 17.8384 438.662H72.4236C72.4236 438.662 72.4236 438.726 72.4236 438.835C72.8649 442.294 79.6405 497.664 85.3863 544.889Z" fill="#37474F"/>
<path d="M36.2527 544.889H35.3268C32.0212 518.003 29.5031 491.018 27.2532 464.014L26.9157 460C26.5408 455.406 26.1715 450.808 25.8081 446.208C25.8081 446.063 26.0071 446.063 26.0244 446.208C26.4225 450.288 26.8177 454.362 27.2099 458.43C27.3484 459.919 27.4955 461.39 27.634 462.87C29.1137 478.306 30.5847 493.742 32.2029 509.114C33.4721 521.057 34.822 532.982 36.2527 544.889Z" fill="#263238"/>
<path d="M64.5403 438.662L57.1936 489.465L56.9427 491.181L56.285 495.794L56.2331 496.112L56.06 497.346L49.1374 544.889H22.4678C18.5824 521.871 14.3423 496.765 10.9589 476.735C10.9069 476.372 10.8464 476.017 10.7858 475.672C7.14274 454.08 4.53809 438.662 4.53809 438.662H64.5403Z" fill="#263238"/>
<path d="M72.4756 438.608C72.4756 438.608 72.4756 438.681 72.4756 438.835C72.0429 441.795 67.3441 473.566 59.4956 494.404C59.435 494.586 59.3744 494.75 59.3052 494.922C59.3052 494.922 58.2062 495.285 56.2246 496.112C55.4458 496.429 54.4939 496.829 53.4815 497.292L52.3566 497.828C50.0721 498.899 47.2944 500.316 44.1186 502.113C43.8157 502.277 43.5215 502.458 43.2533 502.631C43.2533 502.631 43.2533 502.767 43.2533 503.012C43.0456 505.836 41.7303 523.987 40.2592 544.889H-14.5337C-10.0686 495.857 -4.46121 438.653 -4.46121 438.653L72.4756 438.608Z" fill="#37474F"/>
<path d="M1.63947 447.452C0.0818715 468.726 -1.39785 490.001 -3.02467 511.257C-3.89001 522.462 -4.78995 533.66 -5.72451 544.853H-6.58984C-3.83808 512.395 -1.25939 479.919 1.14624 447.424C1.22412 447.152 1.65678 447.152 1.63947 447.452Z" fill="#263238"/>
<path d="M62.0657 493.424C55.544 495.914 49.2408 498.995 43.2274 502.631C43.1852 502.661 43.1543 502.705 43.1403 502.756C43.1262 502.808 43.1298 502.863 43.1505 502.911C43.1711 502.96 43.2075 503 43.2533 503.023C43.299 503.047 43.3511 503.052 43.4005 503.04C49.7434 500.179 56.2161 497.446 62.4378 494.223C62.5388 494.171 62.616 494.079 62.6525 493.968C62.6891 493.856 62.6818 493.734 62.6325 493.628C62.5832 493.522 62.4957 493.441 62.3894 493.403C62.2831 493.364 62.1667 493.372 62.0657 493.424Z" fill="#263238"/>
<path d="M64.082 447.733C64.082 447.497 63.6839 447.452 63.6839 447.733C63.7358 455.642 63.2512 462.597 62.6195 469.988C62.3253 473.412 59.6947 492.371 54.0268 490.99C53.0749 490.763 52.5903 489.783 52.4432 488.266C52.2615 486.45 52.9105 484.253 53.1961 482.455C53.8278 478.487 54.3297 474.501 54.6498 470.497C55.3103 463.033 55.2349 455.517 54.4248 448.069C54.4248 448.019 54.4057 447.97 54.3716 447.934C54.3375 447.899 54.2913 447.879 54.2431 447.879C54.1949 447.879 54.1487 447.899 54.1146 447.934C54.0805 447.97 54.0614 448.019 54.0614 448.069C54.0614 458.43 53.8104 468.772 52.3307 479.032C51.6212 483.962 49.2588 491.39 54.1739 492.144C59.089 492.897 62.4119 480.485 63.0262 477.08C64.731 467.582 64.8002 457.331 64.082 447.733Z" fill="#263238"/>
<path d="M54.1737 491.462C53.6672 492.742 53.2423 494.055 52.9017 495.394C52.5346 496.428 52.3556 497.524 52.3738 498.627C52.3738 498.835 52.6594 498.854 52.7632 498.708C53.3527 497.738 53.7963 496.678 54.0785 495.567C54.5112 494.359 54.9439 493.151 55.3679 491.935C55.4276 491.768 55.4219 491.584 55.3521 491.422C55.2823 491.261 55.1541 491.135 54.9958 491.072C54.8374 491.009 54.6619 491.015 54.5077 491.089C54.3535 491.162 54.2334 491.296 54.1737 491.462Z" fill="#263238"/>
<path d="M28.5252 453.935C28.5364 453.107 28.4551 452.282 28.2829 451.474C28.2759 451.447 28.2607 451.424 28.2396 451.407C28.2185 451.39 28.1927 451.381 28.1661 451.381C28.1396 451.381 28.1138 451.39 28.0927 451.407C28.0716 451.424 28.0563 451.447 28.0493 451.474C27.889 452.173 27.802 452.889 27.7897 453.608C27.7118 454.416 27.608 455.233 27.5215 456.05C27.3421 457.719 27.053 459.372 26.6561 460.999C25.9408 464.082 24.4461 466.905 22.3295 469.171C20.2288 471.344 17.7413 473.063 15.0087 474.229C11.9628 475.581 8.76103 476.09 5.61122 477.062C5.48142 477.062 5.52468 477.298 5.61122 477.307C9.09822 477.299 12.5509 476.584 15.7789 475.2C18.6396 474.078 21.243 472.336 23.4198 470.088C25.6058 467.771 27.1442 464.869 27.8676 461.698C28.2278 460.065 28.4336 458.398 28.482 456.722C28.5487 455.795 28.5632 454.864 28.5252 453.935Z" fill="#263238"/>
<path d="M42.7601 358.404C54.5805 375.32 73.1938 401.598 83.6038 406.964C95.1733 412.93 124.69 386.479 143.857 370.508C147.664 367.33 126.014 334.76 122.111 338.365C111.918 347.79 91.0111 369.436 87.9737 369.037C85.4816 368.71 67.6557 355.417 55.2988 347.744C35.673 335.55 34.4702 346.5 42.7601 358.404Z" fill="#F7A9A0"/>
<path d="M159.9 359.548C154.89 366.558 139.314 376.682 134.667 377.608C130.02 378.535 112.731 351.276 114.28 346.482C115.829 341.688 134.416 319.433 142.663 317.208C150.91 314.984 165.084 352.293 159.9 359.548Z" fill="#F7A9A0"/>
<path d="M125.746 316.209C142.62 293.428 174.075 299.983 190.983 277.274L170.111 235.279C152.32 256.218 119.983 247.882 102.217 268.875C110.057 284.662 117.9 300.44 125.746 316.209Z" fill="white"/>
<path d="M125.745 316.209C134.174 304.769 146.262 300.692 158.342 296.606C170.423 292.52 182.477 288.497 190.914 277.138C190.914 277.229 190.914 277.32 190.914 277.411L169.964 235.452H170.206C152.398 256.336 120.017 248.019 102.278 268.993C102.273 268.918 102.273 268.842 102.278 268.766L125.745 316.209ZM125.745 316.209C117.871 300.471 109.999 284.732 102.13 268.993L102.07 268.875L102.156 268.766C119.904 247.746 152.233 256.054 170.024 235.107L170.172 234.934L170.258 235.116L191.087 277.12L191.156 277.256L191.052 277.392C182.58 288.751 170.466 292.774 158.36 296.815C146.254 300.855 134.191 304.868 125.745 316.209Z" fill="#263238"/>
<path d="M135.507 278.101C138.639 284.411 146.315 287.598 152.813 285.601C159.312 283.603 162.003 276.748 158.983 270.673C155.963 264.599 148.314 261.448 141.677 263.173C135.039 264.898 132.348 271.745 135.507 278.101Z" fill="#FF1515"/>
<path opacity="0.05" d="M137.704 305.395C143.718 301.763 150.407 299.384 157.122 297.123L127.563 254.32C123.026 255.555 118.611 257.236 114.375 259.341L137.704 305.395Z" fill="black"/>
<path d="M155.167 374.512C155.274 374.451 155.368 374.369 155.444 374.27C155.521 374.17 155.577 374.056 155.611 373.934C155.645 373.811 155.655 373.683 155.641 373.556C155.627 373.429 155.59 373.307 155.53 373.195L100.98 263.5C100.927 263.385 100.853 263.282 100.762 263.197C100.672 263.111 100.566 263.046 100.451 263.004C100.336 262.961 100.214 262.944 100.093 262.951C99.971 262.958 99.852 262.99 99.7423 263.046C99.6366 263.107 99.5433 263.189 99.4678 263.287C99.3923 263.386 99.3361 263.499 99.3023 263.621C99.2686 263.742 99.2579 263.869 99.2711 263.995C99.2842 264.121 99.3209 264.243 99.3789 264.354L153.938 374.031C153.988 374.148 154.059 374.254 154.148 374.342C154.237 374.43 154.342 374.498 154.456 374.543C154.571 374.588 154.692 374.608 154.814 374.603C154.937 374.597 155.056 374.567 155.167 374.512Z" fill="#263238"/>
<path fill-rule="evenodd" clip-rule="evenodd" d="M96.4109 263.318C96.6943 263.896 97.1346 264.373 97.676 264.688C98.2174 265.003 98.8357 265.143 99.4528 265.09C100.07 265.036 100.658 264.792 101.143 264.389C101.628 263.985 101.988 263.439 102.178 262.82C102.368 262.202 102.378 261.538 102.209 260.914C102.039 260.289 101.697 259.731 101.225 259.31C100.753 258.889 100.173 258.624 99.5582 258.549C98.9432 258.474 98.3207 258.592 97.7695 258.887C97.0302 259.287 96.472 259.978 96.2174 260.808C95.9627 261.639 96.0323 262.542 96.4109 263.318Z" fill="#263238"/>
<path d="M130.643 323.31C130.202 327.923 135.636 325.825 135.636 325.825C135.636 325.825 128.506 330.828 129.804 335.813C131.076 340.571 137.592 337.793 138.025 337.629C137.644 337.901 131.206 342.668 133.006 347.499C134.875 352.511 140.923 348.552 141.313 348.289C141.036 348.661 137.436 353.61 139.582 356.951C143.294 362.69 152.839 350.296 158.178 349.932C158.178 349.932 159.788 359.358 159.909 359.621C159.909 359.621 169.22 348.026 168.355 340.489C168.243 339.392 167.778 338.368 167.037 337.586C166.296 336.803 165.323 336.309 164.279 336.185C164.279 336.185 167.68 332.789 166.382 328.921C165.707 326.951 162.055 326.324 162.055 326.324C162.055 326.324 164.651 323.482 163.31 320.141C162.237 317.417 158.784 317.254 158.784 317.254C158.784 317.254 160.091 313.313 158.144 310.952C154.267 306.176 131.586 313.44 130.643 323.31Z" fill="#F7A9A0"/>
<path d="M158.282 317.072C158.295 317.067 158.307 317.058 158.315 317.045C158.323 317.033 158.327 317.019 158.327 317.004C158.327 316.989 158.323 316.975 158.315 316.962C158.307 316.95 158.295 316.941 158.282 316.936C150.269 317.426 141.607 320.568 135.351 325.889C135.143 326.061 135.351 326.488 135.584 326.343C143.026 322.13 149.966 319.006 158.282 317.072Z" fill="#263238"/>
<path d="M162.176 326.152C162.263 326.152 162.237 325.979 162.176 325.979C153.921 326.524 144.255 330.311 137.739 337.375C137.514 337.62 137.54 338.074 137.817 337.811C142.473 333.498 154.7 327.877 162.176 326.152Z" fill="#263238"/>
<path d="M141.019 348.852C147.517 342.323 155.357 338.646 163.933 336.086C164.036 336.086 163.984 335.886 163.881 335.886C159.364 335.949 154.068 338.174 150.035 340.28C146.303 342.158 143.105 345.029 140.759 348.607C140.707 348.779 140.88 349.015 141.019 348.852Z" fill="#263238"/>
<path d="M135.636 325.825C134.352 326.918 133.167 328.134 132.097 329.457C131.007 330.688 130.252 332.202 129.908 333.843C129.78 334.605 129.931 335.39 130.332 336.04C130.741 336.694 131.304 337.226 131.967 337.584C132.655 337.887 133.396 338.034 134.142 338.015C134.887 337.996 135.621 337.812 136.294 337.475L139.625 335.986L136.986 338.601C135.806 339.752 134.81 341.095 134.035 342.578C133.637 343.248 133.38 344 133.28 344.782C133.18 345.565 133.24 346.361 133.456 347.118C133.662 347.813 134.089 348.413 134.664 348.82C135.24 349.226 135.931 349.413 136.623 349.351C138.179 349.174 139.667 348.587 140.949 347.644L144.532 345.166L141.936 348.725C141.208 349.712 140.603 350.792 140.136 351.939C139.656 353.012 139.487 354.208 139.651 355.381C139.744 355.906 139.976 356.393 140.32 356.787C140.664 357.18 141.107 357.464 141.598 357.605C142.719 357.735 143.852 357.533 144.869 357.024C147.132 355.945 149.31 354.682 151.385 353.247C152.458 352.557 153.531 351.867 154.639 351.222C155.718 350.517 156.927 350.059 158.187 349.878C156.972 350.197 155.829 350.761 154.821 351.54C153.774 352.257 152.753 353.029 151.731 353.801C149.711 355.421 147.55 356.837 145.276 358.032C144.052 358.7 142.668 358.977 141.295 358.831C140.557 358.668 139.88 358.282 139.348 357.721C138.816 357.159 138.452 356.447 138.301 355.671C138.055 354.222 138.23 352.729 138.803 351.385C139.298 350.091 139.953 348.87 140.75 347.753L141.728 348.834C140.243 349.972 138.502 350.685 136.675 350.904C135.656 350.988 134.641 350.699 133.802 350.087C133 349.463 132.396 348.599 132.071 347.608C131.799 346.657 131.723 345.655 131.849 344.67C131.974 343.686 132.297 342.74 132.798 341.897C133.665 340.275 134.782 338.814 136.103 337.575L136.804 338.701C135.958 339.083 135.043 339.267 134.122 339.239C133.201 339.211 132.297 338.971 131.474 338.537C130.68 338.049 130.018 337.355 129.553 336.521C129.088 335.67 128.934 334.669 129.12 333.707C129.583 331.964 130.5 330.392 131.768 329.167C132.933 327.903 134.23 326.782 135.636 325.825Z" fill="#263238"/>
<path d="M116.807 342.115C116.807 342.115 125.183 306.022 137.021 316.373C140.543 319.442 151.489 336.476 148.27 338.855C144.108 341.915 138.276 335.704 135.204 331.191C135.204 331.191 134.001 343.903 125.33 345.647C123.737 345.937 122.099 345.761 120.595 345.138C119.091 344.515 117.781 343.469 116.807 342.115Z" fill="#F7A9A0"/>
<path d="M135.991 315.574C137.506 316.609 138.867 317.873 140.032 319.324C141.238 320.738 142.351 322.237 143.364 323.809C145.433 326.93 147.243 330.232 148.772 333.679C149.185 334.599 149.477 335.573 149.637 336.576C149.713 337.154 149.669 337.742 149.507 338.301C149.42 338.606 149.285 338.894 149.109 339.154C148.926 339.403 148.707 339.621 148.46 339.799C147.56 340.44 146.47 340.724 145.388 340.598C144.406 340.465 143.452 340.158 142.567 339.69C140.917 338.749 139.431 337.521 138.172 336.058C136.913 334.662 135.756 333.169 134.71 331.591L135.844 331.264C135.656 332.705 135.34 334.125 134.901 335.504C134.473 336.879 133.911 338.202 133.222 339.454C132.52 340.705 131.645 341.84 130.626 342.823C129.621 343.8 128.445 344.564 127.165 345.075C128.349 344.406 129.42 343.534 130.332 342.496C131.204 341.459 131.94 340.305 132.521 339.064C133.107 337.827 133.571 336.531 133.905 335.196C134.254 333.874 134.483 332.522 134.589 331.155L134.702 329.475L135.723 330.828C136.785 332.304 137.941 333.703 139.184 335.014C140.356 336.327 141.724 337.431 143.234 338.283C144.679 339.046 146.453 339.391 147.56 338.546C148.607 337.892 148.097 335.895 147.465 334.26C146.785 332.553 146.022 330.883 145.181 329.257C144.315 327.596 143.502 325.952 142.585 324.363C140.672 321.212 138.751 317.98 135.991 315.574Z" fill="#263238"/>
<path d="M111.537 345.819L135.766 379.551C135.766 379.551 96.4108 412.085 86.2432 409.07C76.0755 406.056 49.2156 371.997 40.7786 356.452C32.3416 340.907 40.8478 339.2 50.851 344.648C60.8543 350.096 86.3297 367.974 87.896 367.348C89.4622 366.721 111.537 345.819 111.537 345.819Z" fill="#FFC727"/>
<path d="M99.8722 384.001C99.6287 384.229 99.3287 384.38 99.0069 384.437C98.725 384.505 98.4311 384.496 98.1537 384.41C97.8762 384.324 97.6247 384.164 97.4233 383.946C97.1123 383.623 96.7154 383.405 96.2845 383.323C95.8536 383.24 95.409 383.296 95.0091 383.483C94.6445 383.678 94.3321 383.965 94.1004 384.319C93.8741 384.629 93.666 384.953 93.4774 385.29C93.8024 385.098 94.1147 384.882 94.412 384.645C94.6537 384.41 94.9534 384.249 95.2773 384.182C95.5521 384.109 95.8403 384.11 96.1145 384.186C96.3887 384.263 96.6397 384.411 96.8436 384.618C97.1526 384.947 97.5472 385.174 97.9781 385.269C98.409 385.364 98.8571 385.324 99.2665 385.154C99.6416 384.982 99.9625 384.701 100.192 384.346C100.391 384.019 100.634 383.719 100.815 383.374C100.426 383.556 100.14 383.792 99.8722 384.001ZM126.871 374.276C126.623 374.498 126.325 374.648 126.005 374.712C125.727 374.781 125.436 374.771 125.162 374.683C124.889 374.595 124.642 374.433 124.448 374.213C124.128 373.894 123.726 373.682 123.292 373.602C122.857 373.523 122.411 373.581 122.007 373.768C121.635 373.95 121.32 374.24 121.099 374.603C120.9 374.93 120.658 375.229 120.476 375.575C120.813 375.366 121.099 375.139 121.41 374.93C121.651 374.692 121.951 374.531 122.276 374.467C122.553 374.386 122.845 374.382 123.124 374.455C123.403 374.528 123.66 374.676 123.868 374.884C124.09 375.129 124.361 375.318 124.662 375.439C124.963 375.559 125.285 375.608 125.606 375.581C125.927 375.554 126.238 375.452 126.517 375.283C126.795 375.114 127.035 374.881 127.217 374.603C127.416 374.276 127.632 373.976 127.814 373.631C127.468 373.877 127.182 374.113 126.871 374.276ZM111.658 349.379C111.409 349.598 111.111 349.748 110.793 349.815C110.514 349.883 110.223 349.873 109.95 349.785C109.676 349.698 109.43 349.535 109.235 349.315C108.987 349.073 108.692 348.891 108.37 348.779L107.6 349.515C107.989 349.533 108.359 349.701 108.638 349.987C108.941 350.317 109.332 350.543 109.759 350.637C110.187 350.731 110.631 350.688 111.035 350.514C111.412 350.359 111.741 350.098 111.987 349.76C112.186 349.433 112.402 349.134 112.584 348.789C112.246 348.979 111.987 349.215 111.658 349.415V349.379ZM70.4509 368.429C70.2035 368.65 69.9052 368.801 69.5856 368.864C69.3063 368.932 69.0149 368.921 68.7412 368.831C68.4676 368.742 68.2214 368.578 68.028 368.356C67.705 368.04 67.301 367.831 66.8657 367.753C66.4305 367.676 65.9832 367.734 65.5791 367.92C65.2219 368.108 64.9221 368.398 64.7137 368.755C64.506 369.073 64.2724 369.382 64.0907 369.727C64.4195 369.518 64.7137 369.291 65.0166 369.073C65.2596 368.841 65.5591 368.684 65.8819 368.619C66.1569 368.536 66.4478 368.53 66.7257 368.602C67.0036 368.673 67.2587 368.82 67.4655 369.028C67.7692 369.36 68.1609 369.588 68.5898 369.684C69.0188 369.779 69.4651 369.737 69.8711 369.564C70.2503 369.39 70.5767 369.111 70.8143 368.755C71.0313 368.441 71.2307 368.114 71.4114 367.775C71.0566 367.993 70.7711 368.22 70.4509 368.429ZM51.4136 360.801C51.1607 361.014 50.8646 361.163 50.5482 361.237C50.2676 361.305 49.975 361.293 49.7 361.204C49.425 361.115 49.1773 360.951 48.982 360.729C48.661 360.413 48.2584 360.203 47.8244 360.125C47.3904 360.048 46.9443 360.106 46.5417 360.293C46.1843 360.476 45.8842 360.763 45.6764 361.119C45.4774 361.446 45.2351 361.746 45.062 362.091C45.3908 361.882 45.6764 361.655 45.9879 361.446C46.2322 361.214 46.5308 361.054 46.8532 360.983C47.1303 360.901 47.423 360.897 47.7023 360.97C47.9815 361.043 48.2377 361.192 48.4455 361.401C48.6676 361.645 48.9389 361.834 49.2396 361.955C49.5404 362.075 49.8629 362.124 50.1838 362.097C50.5046 362.07 50.8157 361.968 51.0943 361.799C51.3729 361.63 51.6121 361.398 51.7943 361.119C51.9933 360.801 52.2097 360.493 52.3914 360.148C51.9674 360.356 51.6732 360.593 51.4136 360.801ZM88.1556 367.484C88.1556 367.421 88.1556 367.366 88.1556 367.303C88.1026 367.344 88.0443 367.378 87.9825 367.403C87.914 367.417 87.8434 367.417 87.7749 367.403C87.7749 367.403 87.7749 367.448 87.7749 367.475C87.7483 367.818 87.6476 368.15 87.4806 368.447C87.3385 368.705 87.1342 368.92 86.8882 369.07C86.6423 369.219 86.3632 369.299 86.0788 369.3C85.6395 369.297 85.2093 369.432 84.8437 369.688C84.4781 369.943 84.194 370.308 84.028 370.735C83.8557 371.124 83.816 371.563 83.9155 371.979C83.9847 372.378 84.028 372.742 84.1145 373.114C84.2098 372.741 84.2821 372.362 84.3308 371.979C84.3735 371.657 84.4796 371.348 84.6423 371.071C84.7963 370.815 85.0116 370.605 85.2666 370.464C85.5217 370.322 85.8076 370.253 86.0961 370.263C86.5375 370.253 86.966 370.105 87.3268 369.838C87.6876 369.572 87.9642 369.198 88.121 368.765C88.2151 368.343 88.2121 367.904 88.1123 367.484H88.1556ZM90.3536 397.821C90.267 397.448 90.2238 397.085 90.1286 396.695C90.0333 397.065 89.961 397.441 89.9122 397.821C89.8868 398.163 89.7893 398.494 89.6267 398.792C89.4822 399.051 89.2765 399.267 89.0294 399.418C88.7823 399.569 88.5022 399.65 88.2162 399.655C87.7766 399.65 87.3459 399.785 86.9801 400.04C86.6143 400.296 86.3304 400.662 86.1653 401.089C85.9917 401.478 85.9549 401.919 86.0615 402.333C86.1221 402.724 86.1653 403.096 86.2519 403.468C86.3492 403.095 86.4244 402.716 86.4769 402.333C86.513 402.01 86.6195 401.699 86.7884 401.425C86.939 401.168 87.1523 400.957 87.4063 400.815C87.6604 400.673 87.9459 400.605 88.2335 400.617C88.6746 400.602 89.102 400.453 89.4633 400.186C89.8245 399.92 90.1038 399.549 90.267 399.119C90.3915 398.699 90.4211 398.255 90.3536 397.821ZM107.193 399.509C107.089 399.9 107.046 400.272 106.977 400.635L107.366 400.39C107.34 400.118 107.297 399.818 107.219 399.509H107.193ZM108.872 366.467C108.785 366.104 108.742 365.732 108.655 365.341C108.561 365.712 108.489 366.088 108.439 366.467C108.412 366.812 108.315 367.146 108.153 367.448C108.009 367.706 107.803 367.92 107.555 368.07C107.308 368.219 107.028 368.299 106.743 368.301C106.308 368.302 105.883 368.439 105.522 368.695C105.161 368.95 104.882 369.313 104.718 369.736C104.549 370.126 104.51 370.564 104.606 370.98C104.675 371.37 104.718 371.743 104.805 372.115C104.898 371.741 104.973 371.362 105.03 370.98C105.068 370.658 105.171 370.349 105.332 370.072C105.487 369.817 105.702 369.608 105.957 369.466C106.212 369.324 106.498 369.255 106.786 369.264C107.228 369.254 107.656 369.107 108.017 368.84C108.378 368.573 108.654 368.199 108.811 367.766C108.94 367.347 108.969 366.901 108.898 366.467H108.872ZM76.7678 387.197C76.4575 387.167 76.1596 387.055 75.9025 386.87C75.6581 386.709 75.4588 386.484 75.325 386.215C75.1912 385.947 75.1277 385.647 75.141 385.345C75.1289 384.881 74.9859 384.432 74.7302 384.053C74.4745 383.675 74.1175 383.385 73.7045 383.22C73.3139 383.084 72.8959 383.059 72.4931 383.147C72.1383 383.22 71.7835 383.265 71.4114 383.356C71.7669 383.456 72.1282 383.532 72.4931 383.583C72.8208 383.607 73.1384 383.713 73.419 383.892C73.6641 384.042 73.8679 384.257 74.0104 384.515C74.153 384.773 74.2294 385.065 74.2324 385.363C74.2283 385.82 74.3534 386.269 74.5922 386.652C74.8309 387.035 75.1724 387.335 75.5737 387.515C75.9583 387.687 76.3832 387.734 76.7938 387.651C77.1659 387.56 77.5207 387.515 77.8668 387.424C77.5067 387.318 77.1392 387.242 76.7678 387.197ZM118.235 389.467C117.911 389.437 117.599 389.325 117.326 389.14C117.088 388.974 116.894 388.748 116.759 388.483C116.625 388.219 116.555 387.924 116.556 387.624C116.552 387.289 116.478 386.96 116.339 386.658C116.199 386.357 115.999 386.092 115.751 385.881C115.503 385.671 115.214 385.52 114.905 385.44C114.595 385.36 114.273 385.352 113.96 385.417C113.598 385.473 113.24 385.552 112.887 385.653C113.233 385.744 113.605 385.79 113.96 385.88C114.279 385.904 114.589 386 114.868 386.162C115.119 386.313 115.329 386.528 115.481 386.786C115.632 387.045 115.719 387.339 115.734 387.642C115.733 388.101 115.859 388.551 116.097 388.936C116.335 389.321 116.675 389.625 117.075 389.812C117.463 389.97 117.886 390.011 118.295 389.93C118.657 389.874 119.015 389.795 119.368 389.694C118.961 389.585 118.589 389.54 118.235 389.467ZM57.5401 348.607L57.2892 348.671C57.4709 348.716 57.6353 348.743 57.8084 348.77L57.5401 348.607ZM62.6629 352.484C62.3559 352.445 62.0607 352.337 61.7976 352.166C61.5739 352.021 61.387 351.822 61.2529 351.585C61.1187 351.347 61.0414 351.08 61.0274 350.804L60.0409 350.187C60.0926 350.342 60.1189 350.504 60.1188 350.668C60.1191 351.128 60.249 351.578 60.4923 351.961C60.7356 352.344 61.0813 352.643 61.486 352.82C61.8634 352.985 62.2779 353.032 62.6802 352.956C63.0523 352.865 63.4071 352.82 63.7532 352.72C63.3933 352.636 63.0293 352.572 62.6629 352.53V352.484Z" fill="white"/>
<path opacity="0.1" d="M91.9632 408.453C89.6181 409.225 87.6365 409.488 86.2433 409.071C76.1016 406.047 49.2157 371.997 40.7787 356.452C35.9155 347.499 36.677 343.15 40.1124 342.115L91.9632 408.453Z" fill="black"/>
<path d="M105.254 353.056C109.183 358.041 112.964 363.162 116.703 368.311C118.537 370.835 125.443 381.204 127.441 384.137C127.519 384.255 127.208 384.509 127.121 384.4C125.07 381.849 117.603 371.579 115.829 369.019C112.177 363.798 108.56 358.55 105.107 353.174C105.064 353.083 105.185 352.974 105.254 353.056Z" fill="#263238"/>
<path d="M75.8936 446.716C74.7254 448.405 -7.04861 449.685 -7.5505 449.177C-8.91773 447.788 2.73831 363.307 20.4603 344.757C24.2765 340.762 39.29 340.026 41.4706 341.025C46.4896 343.313 51.3354 348.507 55.5929 358.332C64.1251 377.981 76.906 445.236 75.8936 446.716Z" fill="#FFC727"/>
<path d="M74.111 440.56C73.8574 440.774 73.5619 440.926 73.2456 441.005C72.9622 441.066 72.6688 441.051 72.3921 440.962C72.1155 440.874 71.8645 440.713 71.6621 440.497C71.3456 440.179 70.9458 439.968 70.5141 439.89C70.0824 439.812 69.6384 439.872 69.2392 440.061C68.8786 440.239 68.5773 440.527 68.3738 440.887C68.1502 441.197 67.945 441.522 67.7594 441.859C68.0883 441.65 68.3738 441.423 68.6853 441.214C68.9329 440.983 69.2297 440.818 69.5507 440.733C69.824 440.657 70.1114 440.657 70.3845 440.734C70.6577 440.81 70.9071 440.96 71.1083 441.168C71.4189 441.495 71.8139 441.719 72.2445 441.813C72.6752 441.906 73.1225 441.865 73.5312 441.695C73.9081 441.526 74.2298 441.245 74.4571 440.887C74.6648 440.56 74.8984 440.26 75.0802 439.915C74.7081 440.106 74.4138 440.342 74.111 440.56ZM47.4674 426.404C47.2143 426.617 46.9183 426.766 46.602 426.84C46.3226 426.896 46.0342 426.879 45.7626 426.791C45.4909 426.702 45.2442 426.544 45.0444 426.332C44.7266 426.004 44.3211 425.786 43.8819 425.706C43.4428 425.627 42.991 425.69 42.5869 425.887C42.2364 426.085 41.9389 426.372 41.7216 426.722C41.5225 427.031 41.3062 427.321 41.1072 427.63C41.428 427.439 41.7372 427.226 42.0331 426.995C42.2944 426.788 42.5869 426.628 42.8984 426.522C43.1781 426.452 43.4702 426.456 43.7482 426.533C44.0262 426.611 44.2814 426.76 44.4906 426.967C44.7979 427.293 45.19 427.517 45.6178 427.611C46.0457 427.705 46.4903 427.664 46.8962 427.494C47.2782 427.325 47.6056 427.045 47.8395 426.686C48.0525 426.374 48.249 426.049 48.4279 425.714C48.0644 425.923 47.7789 426.15 47.4674 426.386V426.404ZM2.3662 429.482C2.12269 429.71 1.8227 429.862 1.50086 429.918C1.22037 429.987 0.927713 429.978 0.651614 429.892C0.375515 429.806 0.12545 429.646 -0.0740478 429.428C-0.387046 429.105 -0.78548 428.888 -1.21758 428.805C-1.64967 428.722 -2.09545 428.778 -2.49698 428.965C-2.8458 429.166 -3.14281 429.452 -3.36232 429.8C-3.59067 430.109 -3.79882 430.434 -3.98535 430.772C-3.65832 430.579 -3.34588 430.361 -3.0508 430.118C-2.80626 429.888 -2.50743 429.731 -2.18546 429.664C-1.91065 429.59 -1.62243 429.592 -1.34827 429.668C-1.0741 429.744 -0.823115 429.893 -0.619212 430.1C-0.308335 430.426 0.0862217 430.65 0.516406 430.746C0.94659 430.841 1.39385 430.802 1.80372 430.636C2.17546 430.458 2.49513 430.179 2.72964 429.828C2.92866 429.501 3.17096 429.201 3.35268 428.856C3.01252 429.038 2.6831 429.241 2.3662 429.464V429.482ZM16.324 366.449C16.0805 366.677 15.7805 366.828 15.4587 366.885C15.1781 366.953 14.8852 366.942 14.6101 366.853C14.3349 366.764 14.0872 366.599 13.8924 366.376C13.5695 366.061 13.1654 365.851 12.7302 365.774C12.295 365.696 11.8477 365.754 11.4435 365.941C11.0863 366.129 10.7865 366.418 10.5782 366.776C10.3792 367.094 10.1369 367.403 9.95516 367.748C10.284 367.539 10.5782 367.303 10.8811 367.094C11.1241 366.862 11.4236 366.705 11.7464 366.64C12.0196 366.55 12.3105 366.537 12.5899 366.603C12.8693 366.668 13.1275 366.809 13.3386 367.012C13.6424 367.344 14.0341 367.572 14.463 367.668C14.8919 367.763 15.3382 367.722 15.7442 367.548C16.1235 367.375 16.4498 367.095 16.6875 366.74C16.9045 366.425 17.1038 366.098 17.2845 365.759C16.9211 365.995 16.6355 366.222 16.324 366.431V366.449ZM24.4755 390.32C24.2292 390.544 23.9304 390.695 23.6101 390.756C23.3295 390.824 23.0369 390.812 22.7619 390.723C22.4869 390.634 22.2392 390.47 22.0439 390.248C21.7229 389.932 21.3203 389.722 20.8863 389.644C20.4523 389.567 20.0062 389.625 19.6036 389.812C19.2303 389.988 18.9144 390.276 18.695 390.638C18.5047 390.965 18.2537 391.265 18.0806 391.619C18.4095 391.401 18.695 391.174 19.0066 390.965C19.2503 390.732 19.5492 390.572 19.8719 390.502C20.1476 390.421 20.4388 390.417 20.7166 390.49C20.9943 390.563 21.249 390.711 21.4555 390.92C21.6776 391.164 21.9489 391.353 22.2496 391.474C22.5504 391.594 22.8729 391.643 23.1937 391.616C23.5146 391.589 23.8257 391.487 24.1043 391.318C24.3829 391.149 24.6221 390.917 24.8043 390.638C25.0033 390.32 25.2196 390.012 25.4014 389.667C25.0639 389.866 24.7783 390.084 24.4755 390.302V390.32ZM51.4133 360.801C51.1604 361.014 50.8644 361.163 50.548 361.237C50.2673 361.305 49.9747 361.293 49.6997 361.204C49.4247 361.114 49.177 360.951 48.9817 360.729C48.6607 360.413 48.2581 360.203 47.8241 360.125C47.3902 360.048 46.944 360.106 46.5415 360.293C46.1841 360.476 45.8839 360.763 45.6761 361.119C45.4771 361.446 45.2348 361.746 45.0617 362.091C45.3906 361.882 45.6761 361.655 45.9876 361.446C46.2319 361.214 46.5305 361.054 46.853 360.983C47.1301 360.901 47.4227 360.897 47.702 360.97C47.9813 361.043 48.2374 361.192 48.4452 361.401C48.6673 361.645 48.9387 361.834 49.2394 361.955C49.5401 362.075 49.8626 362.124 50.1835 362.097C50.5043 362.07 50.8154 361.968 51.094 361.799C51.3727 361.63 51.6118 361.398 51.794 361.119C51.9931 360.801 52.2094 360.493 52.3911 360.148C51.9671 360.356 51.6729 360.593 51.4133 360.801ZM7.28129 448.596C7.22566 448.802 7.18231 449.011 7.15149 449.222H7.40243C7.38513 449.014 7.35051 448.805 7.28129 448.596ZM53.7929 382.312C53.7064 381.94 53.6632 381.567 53.568 381.177C53.4795 381.551 53.4102 381.93 53.3603 382.312C53.3337 382.655 53.2331 382.987 53.0661 383.283C52.9236 383.544 52.7183 383.761 52.4707 383.913C52.2232 384.064 51.9421 384.145 51.6556 384.146C51.2179 384.14 50.7888 384.273 50.4244 384.527C50.0599 384.782 49.7773 385.146 49.6134 385.572C49.4411 385.96 49.4014 386.4 49.5009 386.816C49.5701 387.215 49.6134 387.578 49.6999 387.951C49.7953 387.578 49.8675 387.198 49.9163 386.816C49.9589 386.493 50.065 386.184 50.2278 385.908C50.3818 385.651 50.597 385.442 50.852 385.3C51.1071 385.158 51.3931 385.089 51.6815 385.099C52.1229 385.09 52.5515 384.942 52.9122 384.675C53.273 384.408 53.5496 384.034 53.7064 383.601C53.8449 383.175 53.8806 382.72 53.8103 382.276L53.7929 382.312ZM5.74964 382.067C5.69675 381.685 5.62453 381.306 5.53331 380.932C5.44678 381.304 5.39486 381.667 5.30833 382.067C5.28601 382.387 5.19426 382.697 5.04008 382.975C4.91816 383.192 4.753 383.379 4.55587 383.523C4.35875 383.667 4.13428 383.765 3.89783 383.81L3.63823 384.782C4.07887 384.764 4.50512 384.612 4.86477 384.345C5.22441 384.077 5.50186 383.705 5.66312 383.274C5.80833 382.878 5.84432 382.447 5.76695 382.03L5.74964 382.067ZM21.5593 410.424C21.5139 410.04 21.4416 409.661 21.343 409.289C21.2564 409.661 21.2045 410.033 21.1266 410.424C21.1006 410.743 21.0091 411.053 20.8584 411.332C20.7161 411.592 20.5107 411.808 20.2629 411.958C20.0151 412.108 19.7339 412.186 19.4479 412.185C19.122 412.175 18.7982 412.243 18.5008 412.383C18.2033 412.523 17.9399 412.732 17.7302 412.994C17.5205 413.256 17.3699 413.564 17.2898 413.896C17.2096 414.228 17.2019 414.574 17.2672 414.909C17.3365 415.3 17.3797 415.672 17.4836 416.062C17.5793 415.683 17.6544 415.298 17.7086 414.909C17.7383 414.584 17.8455 414.272 18.0201 414.001C18.1714 413.744 18.3848 413.534 18.6387 413.392C18.8925 413.25 19.1777 413.182 19.4652 413.193C19.9063 413.178 20.3337 413.028 20.695 412.762C21.0562 412.496 21.3355 412.125 21.4987 411.695C21.6502 411.277 21.6774 410.821 21.5766 410.387L21.5593 410.424ZM30.1607 343.822C30.0828 343.422 30.0396 343.059 29.953 342.687C29.8618 343.061 29.7896 343.44 29.7367 343.822C29.704 344.142 29.6067 344.452 29.4511 344.73C29.3086 344.991 29.1033 345.208 28.8558 345.359C28.6083 345.51 28.3271 345.591 28.0406 345.592C27.6026 345.595 27.1749 345.732 26.8104 345.987C26.4459 346.242 26.1606 346.604 25.9898 347.027C25.8291 347.425 25.784 347.864 25.86 348.289C25.9465 348.661 25.9898 349.034 26.085 349.424C26.1888 349.034 26.2321 348.661 26.3013 348.289C26.3306 347.965 26.4346 347.654 26.6042 347.381C26.7644 347.129 26.9821 346.923 27.2375 346.782C27.4929 346.641 27.7779 346.569 28.0666 346.573C28.5084 346.565 28.9374 346.416 29.2972 346.147C29.6571 345.878 29.931 345.501 30.0828 345.066C30.2313 344.657 30.2644 344.213 30.178 343.785L30.1607 343.822ZM67.5085 401.126C67.3008 401.271 67.1018 401.425 66.8855 401.561C66.6331 401.787 66.3382 401.954 66.0201 402.052C65.7404 402.122 65.4483 402.119 65.1703 402.041C64.8923 401.963 64.6371 401.814 64.4279 401.607C64.1201 401.285 63.7296 401.063 63.304 400.97C62.8784 400.876 62.4361 400.915 62.0309 401.08C61.6444 401.241 61.3148 401.523 61.0877 401.888C60.8887 402.215 60.6637 402.515 60.4647 402.86C60.8022 402.651 61.0877 402.424 61.3992 402.215C61.6504 402 61.9471 401.85 62.2646 401.779C62.5486 401.716 62.8433 401.728 63.1215 401.815C63.3998 401.903 63.6526 402.062 63.8568 402.279C64.1744 402.601 64.5768 402.815 65.0118 402.894C65.4468 402.974 65.8945 402.914 66.297 402.724C66.6471 402.525 66.9445 402.238 67.1623 401.888C67.2748 401.698 67.4046 401.507 67.5171 401.325C67.5256 401.247 67.5285 401.168 67.5258 401.089L67.5085 401.126ZM66.6432 425.406C66.3319 425.38 66.0329 425.268 65.7778 425.079C65.5337 424.917 65.3341 424.691 65.199 424.424C65.0639 424.156 64.9979 423.856 65.0077 423.553C64.9985 423.09 64.8577 422.64 64.6033 422.262C64.3489 421.883 63.9925 421.593 63.5799 421.429C63.1862 421.293 62.7655 421.268 62.3597 421.356C62.0136 421.429 61.6588 421.474 61.2867 421.565C61.6395 421.664 61.9979 421.74 62.3597 421.792C62.6878 421.814 63.0056 421.92 63.2857 422.1C63.5332 422.25 63.7387 422.466 63.8815 422.726C64.0243 422.986 64.0994 423.281 64.0991 423.58C64.0985 424.037 64.2262 424.484 64.4663 424.865C64.7064 425.246 65.0482 425.545 65.449 425.723C65.8293 425.901 66.253 425.948 66.6605 425.86C67.0325 425.769 67.3873 425.723 67.7421 425.633C67.3883 425.517 67.0267 425.429 66.6605 425.369L66.6432 425.406ZM43.0282 407.99C42.7225 407.957 42.4273 407.855 42.1629 407.69C41.9175 407.53 41.717 407.305 41.5817 407.037C41.4464 406.769 41.3812 406.468 41.3927 406.165C41.3783 405.702 41.2345 405.254 40.9791 404.876C40.7236 404.498 40.3679 404.208 39.9563 404.04C39.5768 403.881 39.1595 403.849 38.7621 403.95C38.39 404.04 38.0439 404.086 37.6631 404.177C38.0251 404.276 38.392 404.355 38.7621 404.413C39.0805 404.432 39.3908 404.525 39.6707 404.685C39.9116 404.843 40.1118 405.06 40.2536 405.318C40.3955 405.577 40.4747 405.867 40.4841 406.165C40.4833 406.628 40.6125 407.081 40.8557 407.467C41.0989 407.853 41.4453 408.155 41.8513 408.335C42.2303 408.494 42.6449 408.535 43.0455 408.453C43.4176 408.381 43.7724 408.335 44.1445 408.226C43.7724 408.09 43.4176 408.045 43.0455 407.954L43.0282 407.99ZM1.77776 407.809C1.47193 407.765 1.17765 407.656 0.912432 407.491C0.67228 407.323 0.476018 407.094 0.341506 406.826C0.206995 406.558 0.138506 406.259 0.142285 405.956C0.135851 405.586 0.0444036 405.222 -0.124302 404.897C-0.293008 404.571 -0.533999 404.293 -0.826884 404.086C-0.887457 404.413 -0.956693 404.73 -1.02592 405.057C-0.838992 405.32 -0.735996 405.638 -0.731696 405.965C-0.741159 406.423 -0.618001 406.873 -0.378504 407.255C-0.139008 407.638 0.205532 407.935 0.60956 408.108C0.989742 408.274 1.40827 408.318 1.81237 408.235C2.16716 408.163 2.52195 408.108 2.89404 407.999C2.50464 407.872 2.14986 407.872 1.79508 407.772L1.77776 407.809ZM26.0071 438.444C25.7004 438.404 25.4054 438.296 25.1418 438.127C24.8988 437.964 24.7002 437.738 24.5653 437.47C24.4303 437.203 24.3636 436.904 24.3716 436.601C24.3619 436.137 24.221 435.687 23.9668 435.307C23.7126 434.927 23.3565 434.635 22.9438 434.467C22.5597 434.331 22.1486 434.3 21.7497 434.377C21.3689 434.467 21.0228 434.513 20.668 434.613C21.0225 434.717 21.3841 434.793 21.7497 434.84C22.0572 434.864 22.3544 434.966 22.615 435.139C22.8655 435.291 23.076 435.505 23.2272 435.764C23.3783 436.022 23.4654 436.316 23.4803 436.619C23.4703 437.078 23.5931 437.53 23.8326 437.914C24.072 438.298 24.4169 438.597 24.8216 438.771C25.2015 438.939 25.6214 438.981 26.0244 438.889C26.3894 438.835 26.7507 438.756 27.1061 438.653C26.7426 438.526 26.3878 438.481 26.0331 438.408L26.0071 438.444ZM49.224 448.087C48.9838 447.919 48.7876 447.691 48.6531 447.423C48.5186 447.155 48.4501 446.856 48.4538 446.553C48.4464 446.088 48.3052 445.637 48.0489 445.257C47.7925 444.878 47.433 444.589 47.0174 444.428C46.6357 444.292 46.2261 444.267 45.8319 444.356C45.4858 444.428 45.105 444.474 44.7589 444.564C45.1111 444.666 45.4696 444.742 45.8319 444.791C46.1377 444.83 46.4325 444.935 46.6972 445.1C46.9509 445.245 47.1641 445.457 47.3159 445.715C47.4676 445.973 47.5526 446.268 47.5626 446.571C47.5599 446.93 47.6366 447.285 47.7867 447.608C47.9369 447.931 48.1563 448.214 48.4279 448.432L49.9768 448.378C49.7159 448.322 49.4686 448.211 49.25 448.051L49.224 448.087ZM34.3489 375.456C34.041 375.416 33.7455 375.304 33.4836 375.13C33.2392 374.969 33.0399 374.743 32.9061 374.475C32.7723 374.207 32.7088 373.906 32.7221 373.604C32.7199 373.269 32.6468 372.939 32.5081 372.637C32.3695 372.336 32.1687 372.07 31.9203 371.86C31.6719 371.65 31.3821 371.5 31.0718 371.422C30.7615 371.343 30.4385 371.338 30.1261 371.407C29.7558 371.464 29.3889 371.542 29.0271 371.643C29.3992 371.734 29.754 371.779 30.1261 371.852C30.4301 371.887 30.7243 371.986 30.9914 372.142C31.2335 372.301 31.4344 372.52 31.5764 372.78C31.7183 373.039 31.7968 373.332 31.8048 373.631C31.8051 374.092 31.9351 374.541 32.1783 374.924C32.4216 375.307 32.7673 375.606 33.1721 375.783C33.5494 375.948 33.964 375.995 34.3662 375.92C34.7383 375.829 35.0931 375.783 35.4392 375.683C35.08 375.587 34.716 375.511 34.3489 375.456Z" fill="white"/>
<path d="M12.7502 349.097C-12.1801 370.581 -26.3716 396.867 -28.1974 403.223C-32.8616 419.485 -37.2228 439.652 -37.2661 451.856C-37.2661 456.396 0.808552 461.117 0.964314 456.296C1.46621 441.168 2.51326 408.925 2.62575 408.344C3.40455 404.313 15.225 380.759 23.3245 361.337C31.424 341.915 23.2467 340.063 12.7502 349.097Z" fill="#F7A9A0"/>
<path d="M0.938534 448.469C0.938534 448.469 0.83469 467.446 1.73464 477.924C2.23653 483.772 2.25384 493.878 0.748158 498.354C-1.49306 505.046 -14.9663 531.523 -21.1534 528.237C-26.7608 525.258 -12.4309 504.047 -12.4309 504.047C-12.4309 504.047 -25.082 526.82 -31.2 521.908C-37.3179 516.995 -18.0988 495.312 -18.0988 495.312C-18.0988 495.312 -31.598 518.376 -37.1361 512.292C-41.333 507.688 -25.0215 487.004 -25.0215 487.004C-25.0215 487.004 -36.7554 506.744 -41.2638 502.204C-46.2394 497.192 -32.2903 477.107 -32.2903 477.107C-41.8955 463.56 -37.4823 449.241 -36.0804 441.777C-35.717 439.97 0.938534 448.469 0.938534 448.469Z" fill="#F7A9A0"/>
<path d="M-38.3218 448.278L3.5517 458.32C3.5517 458.32 2.68637 411.232 3.2921 408.617C3.89783 406.001 22.0266 369.972 26.1023 354.191C30.178 338.41 19.0931 343.059 13.0531 347.98C7.01303 352.902 -21.768 382.648 -27.808 398.356C-33.848 414.064 -38.3218 448.278 -38.3218 448.278Z" fill="#FFC727"/>
<path d="M-19.665 400.79C-19.9942 401.116 -20.4323 401.295 -20.8853 401.286C-21.3384 401.278 -21.7701 401.083 -22.088 400.744C-22.3997 400.419 -22.7982 400.2 -23.2308 400.118C-23.6635 400.035 -24.1098 400.092 -24.5109 400.281C-24.8749 400.472 -25.1873 400.757 -25.4195 401.107C-25.6461 401.416 -25.8514 401.74 -26.0339 402.079C-25.711 401.888 -25.4016 401.672 -25.108 401.434C-24.8614 401.206 -24.5637 401.046 -24.2426 400.971C-23.9671 400.899 -23.6784 400.902 -23.4042 400.979C-23.13 401.057 -22.8794 401.208 -22.6764 401.416C-22.3658 401.743 -21.9707 401.967 -21.5401 402.06C-21.1095 402.154 -20.6622 402.113 -20.2535 401.943C-19.8807 401.771 -19.5603 401.494 -19.3275 401.144C-19.1285 400.817 -18.8862 400.517 -18.7045 400.163C-19.0679 400.345 -19.3622 400.608 -19.665 400.79ZM3.14516 428.938C2.86826 429.101 2.62597 429.292 2.36637 429.473C2.12286 429.701 1.82288 429.852 1.50104 429.909C1.22054 429.978 0.927887 429.969 0.651787 429.883C0.375687 429.797 0.125622 429.637 -0.0738754 429.419C-0.386871 429.096 -0.785309 428.879 -1.2174 428.796C-1.6495 428.713 -2.09528 428.769 -2.49681 428.956C-2.84563 429.156 -3.14264 429.443 -3.36214 429.791C-3.59049 430.1 -3.79865 430.424 -3.98518 430.763C-3.65815 430.57 -3.34571 430.352 -3.05062 430.109C-2.80609 429.879 -2.50725 429.722 -2.18529 429.655C-1.91048 429.581 -1.62226 429.583 -1.34809 429.659C-1.07393 429.735 -0.822941 429.884 -0.619038 430.091C-0.308163 430.417 0.0863953 430.641 0.516579 430.736C0.946762 430.832 1.39402 430.793 1.8039 430.627C2.17564 430.449 2.4953 430.17 2.72981 429.818C2.87691 429.573 3.04997 429.346 3.20573 429.11C3.19121 429.048 3.17093 428.987 3.14516 428.929V428.938ZM16.3242 366.44C16.0807 366.668 15.7807 366.819 15.4589 366.876C15.1783 366.944 14.8854 366.933 14.6102 366.844C14.335 366.754 14.0874 366.59 13.8926 366.367C13.5697 366.052 13.1656 365.842 12.7304 365.764C12.2951 365.687 11.8478 365.745 11.4437 365.932C11.0865 366.12 10.7867 366.409 10.5784 366.767C10.3793 367.085 10.1371 367.393 9.95534 367.738C10.2842 367.53 10.5784 367.294 10.8812 367.085C11.1243 366.853 11.4238 366.695 11.7466 366.631C12.0206 366.542 12.3119 366.531 12.5913 366.598C12.8708 366.665 13.1285 366.808 13.3388 367.012C13.6425 367.344 14.0342 367.572 14.4631 367.668C14.8921 367.763 15.3384 367.722 15.7444 367.548C16.1236 367.374 16.45 367.095 16.6876 366.74C16.9046 366.425 17.104 366.098 17.2847 365.759C16.9213 365.995 16.6357 366.222 16.3242 366.431V366.44ZM3.46534 452.7C3.41635 452.783 3.37575 452.871 3.34419 452.963C3.18601 453.369 3.14391 453.814 3.22304 454.244C3.22304 454.298 3.22305 454.371 3.26631 454.425H3.49129C3.47399 453.893 3.46534 453.317 3.46534 452.7ZM-31.0268 430.953C-31.0714 430.573 -31.1437 430.196 -31.2432 429.827C-31.3211 430.191 -31.373 430.563 -31.4595 430.953C-31.4807 431.288 -31.5723 431.614 -31.7278 431.907C-31.8727 432.165 -32.0787 432.379 -32.3259 432.528C-32.5731 432.678 -32.8529 432.758 -33.1383 432.76C-33.4642 432.751 -33.7879 432.818 -34.0854 432.958C-34.3828 433.099 -34.6462 433.307 -34.8559 433.569C-35.0656 433.831 -35.2162 434.14 -35.2964 434.471C-35.3765 434.803 -35.3842 435.149 -35.3189 435.484C-35.2497 435.875 -35.2064 436.247 -35.1026 436.637C-34.9986 436.26 -34.9234 435.874 -34.8776 435.484C-34.8464 435.159 -34.7394 434.848 -34.5661 434.576C-34.413 434.32 -34.1977 434.111 -33.9422 433.97C-33.6868 433.83 -33.4004 433.763 -33.1123 433.777C-32.6717 433.76 -32.2454 433.608 -31.8858 433.34C-31.5261 433.073 -31.2487 432.701 -31.0874 432.27C-30.9399 431.848 -30.9187 431.389 -31.0268 430.953ZM-14.2394 417.924C-14.2839 417.543 -14.3563 417.167 -14.4557 416.798C-14.5423 417.161 -14.5942 417.533 -14.6807 417.924C-14.7003 418.257 -14.7889 418.583 -14.9403 418.877C-15.0852 419.135 -15.2913 419.349 -15.5384 419.499C-15.7856 419.648 -16.0655 419.728 -16.3508 419.731C-16.6767 419.721 -17.0005 419.789 -17.2979 419.929C-17.5953 420.069 -17.8588 420.278 -18.0685 420.54C-18.2782 420.802 -18.4287 421.11 -18.5089 421.441C-18.5891 421.773 -18.5968 422.119 -18.5314 422.455C-18.4622 422.845 -18.4189 423.208 -18.3151 423.608C-18.2202 423.228 -18.1451 422.843 -18.0901 422.455C-18.0589 422.13 -17.9519 421.818 -17.7786 421.547C-17.6267 421.29 -17.4131 421.081 -17.1594 420.939C-16.9057 420.797 -16.6208 420.728 -16.3335 420.738C-15.8921 420.725 -15.4642 420.575 -15.1027 420.309C-14.7413 420.043 -14.4622 419.671 -14.3 419.24C-14.1571 418.817 -14.1361 418.359 -14.2394 417.924ZM5.76712 382.03C5.71423 381.648 5.64202 381.269 5.55079 380.895C5.46426 381.268 5.41234 381.631 5.32581 382.03C5.30349 382.351 5.21173 382.661 5.05754 382.938C4.91462 383.198 4.70901 383.414 4.46139 383.564C4.21377 383.713 3.9329 383.792 3.64706 383.792C3.32089 383.78 2.99644 383.847 2.69841 383.986C2.40038 384.126 2.13662 384.335 1.9272 384.597C1.71777 384.86 1.56819 385.169 1.48984 385.502C1.4115 385.834 1.40644 386.181 1.47507 386.516C1.52211 386.905 1.59439 387.29 1.6914 387.669C1.78841 387.29 1.86069 386.905 1.90773 386.516C1.93604 386.19 2.04328 385.878 2.21925 385.608C2.37193 385.35 2.58689 385.14 2.84225 384.998C3.09762 384.856 3.38427 384.788 3.67302 384.8C4.11366 384.782 4.5399 384.631 4.89955 384.363C5.25919 384.095 5.53664 383.723 5.6979 383.292C5.83488 382.887 5.85889 382.449 5.76712 382.03ZM-5.97545 367.502C-5.97961 367.575 -5.97961 367.648 -5.97545 367.72C-5.9413 367.604 -5.91527 367.486 -5.89757 367.366L-5.97545 367.502ZM-3.55251 364.778C-3.18693 364.699 -2.84628 364.524 -2.56197 364.27C-2.27766 364.016 -2.05885 363.692 -1.92569 363.326C-1.87271 363.186 -1.84061 363.039 -1.8305 362.89L-3.55251 364.778ZM26.7341 346.055C26.4274 346.285 26.1877 346.599 26.0419 346.963C25.8812 347.362 25.8361 347.801 25.9121 348.226C25.9986 348.598 26.0419 348.97 26.1371 349.361C26.2409 348.97 26.2842 348.598 26.3534 348.226C26.3827 347.902 26.4866 347.59 26.6563 347.318C26.7339 347.196 26.8239 347.083 26.9245 346.982C26.8685 346.692 26.7934 346.407 26.6995 346.128L26.7341 346.055ZM-12.3876 444.955C-12.6937 444.912 -12.9882 444.804 -13.2529 444.637C-13.4931 444.469 -13.6893 444.24 -13.8238 443.972C-13.9583 443.704 -14.0268 443.405 -14.0231 443.102C-14.0288 442.768 -14.1041 442.439 -14.2436 442.139C-14.383 441.838 -14.5834 441.573 -14.8306 441.362C-15.0778 441.151 -15.3659 440.999 -15.6748 440.917C-15.9837 440.835 -16.306 440.825 -16.6191 440.887C-16.9911 440.978 -17.3373 441.023 -17.6921 441.114C-17.3403 441.217 -16.9816 441.293 -16.6191 441.341C-16.3113 441.37 -16.0147 441.476 -15.7537 441.65C-15.5001 441.795 -15.2868 442.007 -15.1351 442.265C-14.9833 442.523 -14.8983 442.818 -14.8884 443.121C-14.8953 443.58 -14.7703 444.031 -14.5295 444.415C-14.2887 444.799 -13.9434 445.098 -13.5385 445.273C-13.1583 445.439 -12.7398 445.483 -12.3356 445.4C-11.9809 445.327 -11.6261 445.273 -11.254 445.164C-11.678 445.1 -12.0328 445.027 -12.3876 444.955ZM-12.3876 384.909C-12.6946 384.87 -12.9899 384.762 -13.2529 384.591C-13.4931 384.423 -13.6893 384.194 -13.8238 383.926C-13.9583 383.658 -14.0268 383.359 -14.0231 383.056C-14.0329 382.592 -14.1749 382.142 -14.431 381.763C-14.687 381.384 -15.0452 381.095 -15.4595 380.932C-15.8436 380.795 -16.2548 380.763 -16.6537 380.841L-16.9998 380.914L-17.2075 381.204L-16.6537 381.304C-16.3467 381.331 -16.0501 381.433 -15.7883 381.604C-15.5346 381.751 -15.3214 381.965 -15.1698 382.224C-15.0181 382.483 -14.9331 382.78 -14.923 383.084C-14.9288 383.543 -14.8032 383.993 -14.5626 384.377C-14.322 384.76 -13.9773 385.06 -13.5731 385.236C-13.1932 385.404 -12.7732 385.445 -12.3703 385.354C-12.0053 385.299 -11.644 385.22 -11.2886 385.118C-11.678 385.027 -12.0328 384.981 -12.3876 384.909ZM14.0484 349.179C13.7417 349.139 13.4466 349.03 13.183 348.861C12.98 348.721 12.8062 348.539 12.6725 348.325L12.0494 348.87C12.2762 349.162 12.5758 349.382 12.9148 349.506C13.2947 349.674 13.7146 349.715 14.1176 349.624C14.4817 349.568 14.8428 349.493 15.1993 349.397C14.7579 349.306 14.4032 349.261 14.0484 349.179ZM1.79525 407.772C1.48941 407.728 1.19513 407.62 0.929916 407.454C0.689762 407.286 0.493488 407.058 0.358978 406.79C0.224464 406.522 0.155991 406.223 0.159767 405.92C0.157005 405.585 0.0837479 405.254 -0.0547829 404.952C-0.193314 404.649 -0.393707 404.383 -0.641659 404.171C-0.889606 403.96 -1.179 403.808 -1.4892 403.728C-1.79941 403.647 -2.12278 403.639 -2.43624 403.704C-2.81699 403.795 -3.16312 403.841 -3.5179 403.94C-3.16144 404.036 -2.80037 404.112 -2.43624 404.167C-2.12872 404.191 -1.83152 404.294 -1.5709 404.467C-1.32035 404.618 -1.10989 404.833 -0.958736 405.092C-0.807583 405.35 -0.720539 405.644 -0.705566 405.947C-0.715027 406.405 -0.591869 406.855 -0.352371 407.237C-0.112877 407.62 0.231678 407.917 0.635704 408.09C1.01589 408.256 1.43441 408.3 1.83852 408.217C2.19331 408.144 2.54809 408.09 2.92019 407.981C2.50483 407.872 2.15004 407.872 1.79525 407.772Z" fill="white"/>
<path d="M-34.9383 438.662C-28.8809 439.779 -22.8236 441.096 -16.7663 442.467C-13.8068 443.139 -2.14212 446.326 1.18941 447.198C1.31921 447.198 1.24132 447.633 1.11152 447.615C-2.02964 447.07 -14.0491 444.328 -16.9913 443.602C-22.9967 442.122 -28.9934 440.587 -34.9469 438.853C-34.9661 438.846 -34.9825 438.832 -34.9938 438.815C-35.0051 438.797 -35.0106 438.776 -35.0097 438.754C-35.0087 438.733 -35.0012 438.713 -34.9884 438.696C-34.9755 438.679 -34.958 438.668 -34.9383 438.662Z" fill="#263238"/>
<path d="M3.40476 449.295C3.21438 445.799 3.11054 442.312 2.96343 438.826L2.68653 428.356C2.59134 424.861 2.57403 421.374 2.53076 417.878V412.63C2.53076 411.722 2.53076 410.887 2.57403 409.997C2.57403 409.57 2.6173 409.089 2.64326 408.635C2.73509 408.148 2.88329 407.676 3.08457 407.227C5.76711 400.78 8.66598 394.515 11.6081 388.25L16.0646 378.87C17.5876 375.774 19.0846 372.651 20.6595 369.573C19.3442 372.787 17.9683 375.929 16.627 379.161L12.4734 388.695L8.32851 398.211C6.95263 401.389 5.53347 404.567 4.26143 407.745C4.11217 408.084 3.9934 408.436 3.90665 408.798C3.90665 409.207 3.84608 409.606 3.83742 410.051C3.83742 410.959 3.79415 411.776 3.77684 412.648V417.878L3.70762 428.347L3.61243 438.817C3.53455 442.303 3.5086 445.799 3.40476 449.295Z" fill="#263238"/>
<path d="M15.9868 379.57C17.037 377.906 18.3207 376.418 19.7943 375.157C19.2785 375.991 18.6998 376.78 18.0636 377.518C17.4272 378.261 16.7325 378.948 15.9868 379.57Z" fill="#263238"/>
<path d="M46.2214 342.169C50.7817 347.136 52.1229 360.592 43.1581 361.9C34.1932 363.207 25.8514 354.019 22.6064 347.944C19.3614 341.869 26.4658 337.411 33.9596 337.402C41.4534 337.393 43.859 339.636 46.2214 342.169Z" fill="#FFC727"/>
<path opacity="0.1" d="M46.2214 342.169C50.7817 347.136 52.1229 360.592 43.1581 361.9C34.1932 363.207 25.8514 354.019 22.6064 347.944C19.3614 341.869 26.4658 337.411 33.9596 337.402C41.4534 337.393 43.859 339.636 46.2214 342.169Z" fill="black"/>
<path d="M43.6687 357.115C38.8748 359.003 29.4253 352.203 25.289 346.219C25.0121 345.81 25.09 341.08 24.9256 335.323C24.8131 331.827 24.6141 327.95 24.1814 324.427C24.0949 323.7 45.9359 326.978 45.9359 326.978C45.9359 326.978 44.759 334.66 45.5378 340.807C45.6076 341.292 45.7176 341.769 45.8667 342.233C45.8667 342.296 45.8667 342.378 45.9186 342.469C46.6801 345.22 48.3069 355.281 43.6687 357.115Z" fill="#F7A9A0"/>
<path d="M25.4536 324.336C27.1843 330.174 32.4542 344.112 43.7381 342.877C44.4623 342.798 45.1796 342.662 45.8841 342.469C45.8712 342.385 45.851 342.303 45.8236 342.224C45.6764 341.759 45.5692 341.282 45.5034 340.798C44.7159 334.642 45.9014 326.969 45.9014 326.969C45.9014 326.969 30.1783 324.617 25.4536 324.336Z" fill="#263238"/>
<path d="M20.3478 296.188C18.3488 304.251 23.2812 327.06 28.8886 331.972C37.0054 339.064 49.847 339.236 55.4716 329.067C60.9232 319.242 54.0006 289.614 47.7788 285.219C38.6236 278.718 23.2985 284.248 20.3478 296.188Z" fill="#F7A9A0"/>
<path d="M46.611 320.068C46.1555 321.049 45.4671 321.89 44.6121 322.511C44.1366 322.834 43.5769 322.992 43.0112 322.965C41.7738 322.892 41.5315 321.775 41.5575 320.758C41.5755 320.221 41.654 319.688 41.7911 319.169C43.2639 320.005 44.9541 320.32 46.611 320.068Z" fill="white"/>
<path d="M45.252 322.002C45.2094 322.055 45.1599 322.101 45.1049 322.139C44.7547 322.103 44.4094 322.027 44.0752 321.912C44.4906 321.939 44.8626 321.984 45.252 322.002Z" fill="#DBDBDB"/>
<path d="M42.8292 321.458C42.6382 321.404 42.4528 321.331 42.2754 321.24C42.1043 321.149 41.9395 321.046 41.7821 320.931L41.5571 320.74V320.531C41.9638 320.849 42.3878 321.14 42.8292 321.458Z" fill="#DBDBDB"/>
<path d="M35.7164 306.494C36.3736 306.419 37.0264 306.306 37.672 306.158C38.3794 306.136 39.0605 305.872 39.6104 305.404C39.7569 305.224 39.8416 304.997 39.851 304.76C39.8604 304.523 39.794 304.289 39.6623 304.097C39.3498 303.754 38.9555 303.504 38.5204 303.375C38.0852 303.246 37.625 303.241 37.1875 303.361C36.2676 303.462 35.4164 303.919 34.7991 304.641C34.6646 304.813 34.5812 305.023 34.5591 305.244C34.537 305.465 34.5774 305.688 34.6751 305.885C34.7728 306.083 34.9235 306.245 35.1087 306.354C35.2938 306.462 35.5051 306.51 35.7164 306.494Z" fill="#263238"/>
<path d="M50.9981 303.152C50.3363 303.155 49.6749 303.122 49.0165 303.053C48.3141 303.114 47.6119 302.932 47.0175 302.535C46.8515 302.373 46.7419 302.157 46.7058 301.922C46.6698 301.686 46.7094 301.445 46.8185 301.237C47.096 300.863 47.4614 300.572 47.8787 300.392C48.296 300.212 48.7508 300.15 49.1982 300.21C50.1253 300.202 51.0225 300.555 51.7163 301.2C51.8658 301.357 51.9686 301.556 52.0124 301.773C52.0562 301.989 52.039 302.215 51.9629 302.422C51.8868 302.628 51.7552 302.808 51.5839 302.937C51.4126 303.067 51.2091 303.142 50.9981 303.152Z" fill="#263238"/>
<path d="M40.6661 323.619C40.9777 324.036 41.2546 324.59 41.7911 324.726C42.3428 324.796 42.9024 324.747 43.4352 324.581C43.4463 324.578 43.4583 324.578 43.4691 324.582C43.48 324.587 43.4892 324.595 43.4952 324.605C43.5012 324.616 43.5036 324.628 43.5022 324.64C43.5007 324.652 43.4954 324.663 43.4871 324.672C43.2321 324.944 42.9119 325.139 42.5601 325.237C42.2084 325.334 41.8381 325.33 41.4882 325.226C41.1978 325.095 40.9507 324.877 40.7783 324.599C40.6058 324.321 40.5156 323.996 40.519 323.664C40.5104 323.573 40.6229 323.555 40.6661 323.619Z" fill="#263238"/>
<path d="M41.7909 319.215C42.2826 319.744 42.873 320.16 43.5252 320.438C44.1774 320.716 44.8773 320.85 45.581 320.831C46.1968 320.817 46.808 320.717 47.3982 320.532L47.7357 320.414L48.0472 320.296C48.1212 320.261 48.1829 320.203 48.2233 320.13C48.2638 320.056 48.2809 319.971 48.2722 319.887C48.2588 319.834 48.2414 319.782 48.2203 319.733V319.596C48.0126 318.407 47.554 316.627 47.554 316.627C48.0126 316.754 50.3144 317.29 50.15 316.682C48.852 311.615 47.4155 305.976 45.1051 301.246C45.0911 301.212 45.0652 301.184 45.0326 301.17C45.0001 301.155 44.9635 301.154 44.9302 301.167C44.8969 301.179 44.8696 301.205 44.8539 301.238C44.8381 301.272 44.8351 301.31 44.8455 301.346C45.9012 306.267 47.779 310.961 48.9212 315.874C48.1036 315.663 47.2609 315.581 46.4204 315.628C46.2646 315.71 47.3723 319.052 47.4155 319.596C47.4215 319.614 47.4215 319.633 47.4155 319.651C45.5724 320.314 44.0234 320.023 41.912 319.079C41.7735 318.979 41.6784 319.106 41.7909 319.215Z" fill="#263238"/>
<path d="M41.2543 310.907C41.2543 310.907 41.0986 310.961 41.1159 310.998C41.462 311.906 41.4966 312.913 39.6534 313.268C39.6015 313.268 39.6534 313.322 39.6534 313.313C42.0072 313.113 41.8947 311.742 41.2543 310.907Z" fill="#263238"/>
<path d="M39.0565 310.026C37.9057 310.026 36.9624 310.498 36.9278 311.279C36.8932 312.06 37.7066 312.641 39.1863 312.614C42.3881 312.532 41.9987 310.053 39.0565 310.026Z" fill="#263238"/>
<path d="M41.6006 311.624C39.4352 311.627 37.2722 311.469 35.1279 311.152C35.7043 310.65 36.3696 310.273 37.0854 310.043C37.8013 309.812 38.5535 309.732 39.2988 309.808C39.8105 309.839 40.3021 310.027 40.7117 310.35C41.1213 310.674 41.4306 311.117 41.6006 311.624Z" fill="#263238"/>
<path d="M49.354 309.191H49.4838C49.5703 310.153 49.9338 311.134 51.4135 310.807C51.4654 310.807 51.4654 310.807 51.4135 310.861C49.6828 311.524 49.1809 310.208 49.354 309.191Z" fill="#263238"/>
<path d="M50.6172 307.583C51.8979 306.984 52.5642 307.284 52.8324 307.765C53.1007 308.246 52.8324 309.39 51.5085 310.071C49.198 311.27 48.4538 308.582 50.6172 307.583Z" fill="#263238"/>
<path d="M49.371 309.99C50.9539 309.199 52.4657 308.259 53.888 307.184C53.3211 306.931 52.7054 306.821 52.0906 306.863C51.4757 306.906 50.8791 307.1 50.3488 307.429C49.9699 307.713 49.6765 308.106 49.5032 308.559C49.3299 309.013 49.2841 309.509 49.371 309.99Z" fill="#263238"/>
<path d="M23.2988 316.809C23.2988 316.809 15.658 303.915 16.2637 296.397C16.5406 293.001 20.9278 290.658 20.9278 290.658C20.5729 289.28 20.5923 287.826 20.9837 286.459C21.3752 285.091 22.1231 283.867 23.1431 282.922C26.9246 279.09 36.1923 279.826 36.1923 279.826C36.1923 279.826 42.0939 270.646 50.6261 274.151C59.1583 277.656 53.7413 287.825 53.7413 287.825C53.7413 287.825 56.917 292.429 49.3454 296.152C41.9727 299.784 26.7775 296.488 26.7775 296.488C27.5434 301.95 27.5288 307.501 26.7342 312.959C26.5536 313.869 26.1375 314.711 25.5316 315.39C24.9256 316.069 24.1531 316.56 23.2988 316.809Z" fill="#263238"/>
<path d="M37.6632 279.926C35.7575 279.144 33.7198 278.78 31.675 278.854C29.8492 278.866 28.0383 279.2 26.3186 279.844C23.2813 281.033 20.5901 283.431 20.1142 286.954C19.9991 287.82 20.05 288.701 20.264 289.546C20.4779 290.391 20.8507 291.183 21.3603 291.875C21.4035 291.929 21.4814 291.875 21.4382 291.793C19.4392 289.269 20.4344 285.283 22.4333 283.122C24.7005 280.679 28.2051 279.717 31.3549 279.535C33.4621 279.477 35.5684 279.684 37.6285 280.153C37.6572 280.158 37.6866 280.15 37.7101 280.132C37.7336 280.114 37.7494 280.087 37.754 280.057C37.7586 280.027 37.7516 279.996 37.7346 279.972C37.7175 279.947 37.6918 279.931 37.6632 279.926Z" fill="#263238"/>
<path d="M56.7524 278.373C56.3441 277.196 55.6665 276.143 54.7793 275.305C53.8921 274.468 52.8224 273.872 51.6643 273.57C49.0165 272.764 46.1887 272.905 43.6253 273.969C41.0527 275.063 38.8038 276.856 37.1094 279.163C37.1094 279.217 37.1526 279.29 37.1959 279.236C40.3457 275.231 45.3127 272.88 50.2624 273.951C52.4777 274.405 54.7016 275.576 55.7486 277.774C56.1902 278.819 56.409 279.953 56.3895 281.096C56.3701 282.24 56.113 283.365 55.6362 284.393C54.3935 286.825 52.5219 288.839 50.2365 290.204C50.2282 290.213 50.2229 290.224 50.2214 290.236C50.22 290.248 50.2224 290.261 50.2284 290.271C50.2344 290.281 50.2436 290.29 50.2545 290.294C50.2653 290.298 50.2773 290.299 50.2884 290.295C52.45 289.146 54.301 287.444 55.6708 285.346C56.3145 284.332 56.7441 283.185 56.9307 281.982C57.1173 280.78 57.0565 279.549 56.7524 278.373Z" fill="#263238"/>
<path d="M51.1884 296.551C47.8168 298.033 44.1813 298.739 40.5275 298.621C36.7378 298.563 32.9655 298.07 29.2781 297.15C27.1235 296.633 24.9947 296.034 22.8747 295.389C22.8609 295.389 22.8477 295.395 22.838 295.405C22.8282 295.415 22.8228 295.429 22.8228 295.443C22.8228 295.458 22.8282 295.472 22.838 295.482C22.8477 295.492 22.8609 295.498 22.8747 295.498C26.5917 297.116 30.4609 298.318 34.4182 299.084C38.0992 299.757 41.8697 299.674 45.5204 298.839C47.5161 298.355 49.4463 297.61 51.2663 296.624L51.1884 296.551Z" fill="#263238"/>
<path d="M26.6563 315.356C26.6563 315.356 20.8499 308.618 17.8818 310.888C14.9137 313.158 19.8894 323.364 23.818 324.336C24.3133 324.497 24.8346 324.552 25.3505 324.496C25.8664 324.44 26.3663 324.275 26.8199 324.012C27.2735 323.748 27.6714 323.39 27.9898 322.961C28.3082 322.531 28.5405 322.038 28.6725 321.512L26.6563 315.356Z" fill="#F7A9A0"/>
<path d="M19.396 313.776C19.3354 313.776 19.3354 313.867 19.396 313.885C22.1564 314.657 23.8525 317.027 25.1418 319.551C24.2332 318.643 23.0996 318.216 21.9141 319.369C21.8536 319.424 21.9141 319.533 22.0007 319.505C22.4455 319.291 22.9426 319.225 23.4242 319.318C23.9059 319.41 24.3485 319.657 24.6919 320.023C25.2573 320.641 25.759 321.32 26.1889 322.048C26.3446 322.284 26.7513 322.093 26.6302 321.821C26.6286 321.8 26.6286 321.778 26.6302 321.757C26.2148 318.234 23.0218 313.658 19.396 313.776Z" fill="#263238"/>
<path d="M359.83 247.839C363.151 242.914 364.948 237.12 364.997 231.18C364.997 210.072 341.809 192.959 313.241 192.959C284.673 192.959 261.511 210.072 261.511 231.18C261.511 252.288 284.673 269.388 313.241 269.388C327.103 269.388 339.705 265.381 348.942 258.816L366.761 263.352L359.83 247.839Z" fill="white"/>
<path d="M359.83 247.385C363.07 242.739 364.904 237.258 365.112 231.597C365.32 225.937 363.893 220.336 361.002 215.465C358.12 210.602 354.257 206.392 349.66 203.103C345.086 199.789 340.022 197.212 334.651 195.466C329.296 193.695 323.743 192.586 318.118 192.164C312.487 191.781 306.832 192.069 301.269 193.021C299.896 193.298 298.484 193.487 297.123 193.853L293.04 194.949L289.045 196.361C287.71 196.839 286.449 197.482 285.152 198.037C280.024 200.44 275.337 203.691 271.29 207.652C267.193 211.639 264.123 216.56 262.342 221.993C260.61 227.484 260.553 233.367 262.178 238.892C263.865 244.355 266.858 249.326 270.899 253.371C274.87 257.383 279.499 260.686 284.584 263.137C289.671 265.602 295.08 267.337 300.652 268.292C306.204 269.29 311.858 269.611 317.488 269.249C323.114 268.914 328.675 267.86 334.034 266.111C339.408 264.371 344.486 261.821 349.093 258.55H348.853L366.71 262.936L367 263.011L366.874 262.747L359.83 247.385ZM359.83 247.385L366.635 262.898L366.798 262.709L349.005 258.034H348.879L348.765 258.109C339.461 264.323 328.628 267.859 317.45 268.329C311.893 268.629 306.321 268.257 300.853 267.22C295.385 266.285 290.074 264.588 285.076 262.18C280.081 259.777 275.537 256.533 271.642 252.59C267.75 248.673 264.87 243.868 263.25 238.589C261.715 233.294 261.785 227.663 263.451 222.408C265.162 217.162 268.115 212.407 272.058 208.547C276.006 204.665 280.582 201.478 285.593 199.12C286.853 198.579 288.113 197.936 289.373 197.47L293.28 196.071L297.3 194.974C298.635 194.609 300.022 194.433 301.37 194.143C306.848 193.199 312.418 192.895 317.966 193.235C323.534 193.602 329.035 194.648 334.349 196.348C339.644 198.001 344.649 200.471 349.181 203.67C353.739 206.865 357.598 210.956 360.523 215.692C363.421 220.48 364.915 225.986 364.832 231.583C364.664 237.212 362.932 242.684 359.83 247.385Z" fill="#263238"/>
<path d="M287.98 213.98C289.42 214.14 291.26 214.22 293.28 214.22C295.2 214.22 297.22 214.1 298.66 213.94V215.58C297.3 215.68 295.12 215.82 293.28 215.82C291.28 215.82 289.56 215.74 287.98 215.6V213.98ZM288.78 222.04C288.54 222.82 288.38 223.56 288.38 224.3C288.38 225.84 289.94 226.88 293.14 226.88C295.88 226.88 298.46 226.58 299.98 226.1L300 227.82C298.56 228.2 296.02 228.5 293.18 228.5C289.12 228.5 286.76 227.18 286.76 224.66C286.76 223.62 286.98 222.68 287.16 221.88L288.78 222.04ZM314.44 213.16C314.26 213.4 314.02 213.76 313.8 214.14C312.9 215.52 311.06 218.84 310.04 220.78C311 219.92 312.04 219.54 313 219.54C314.34 219.54 315.3 220.4 315.36 221.98C315.4 223.16 315.36 224.68 315.44 225.66C315.5 226.66 316.18 227.1 317.04 227.1C319.28 227.1 320.6 224.34 321.1 222.2L322.44 223.28C321.38 226.5 319.7 228.74 316.8 228.74C314.66 228.74 313.96 227.4 313.9 226.22C313.84 225.04 313.86 223.5 313.8 222.4C313.76 221.54 313.24 221 312.34 221C310.74 221 309.22 222.64 308.46 224.22C307.84 225.4 307 227.78 306.72 228.76L305 228.16C306.46 224.12 310.84 215.92 311.94 214C312.16 213.52 312.42 213.04 312.66 212.44L314.44 213.16ZM332.8 214.5C334.98 214.88 339.04 214.8 341.02 214.5V216.12C338.88 216.36 335 216.36 332.82 216.12L332.8 214.5ZM333.58 222.66C333.4 223.38 333.3 223.94 333.3 224.48C333.3 225.4 333.94 226.3 336.68 226.3C338.46 226.3 340.02 226.14 341.62 225.76L341.66 227.44C340.42 227.7 338.74 227.86 336.66 227.86C333.32 227.86 331.82 226.74 331.82 224.86C331.82 224.2 331.92 223.48 332.14 222.52L333.58 222.66ZM329 212.96C328.88 213.3 328.72 213.94 328.64 214.3C328.26 216.16 327.64 219.72 327.64 221.98C327.64 222.94 327.7 223.78 327.82 224.76C328.16 223.86 328.62 222.66 328.96 221.84L329.8 222.5C329.3 223.92 328.56 226.02 328.38 226.98C328.32 227.26 328.28 227.64 328.28 227.88C328.3 228.08 328.32 228.36 328.34 228.58L326.92 228.68C326.52 227.26 326.18 224.96 326.18 222.24C326.18 219.3 326.84 215.88 327.08 214.22C327.14 213.76 327.2 213.26 327.22 212.82L329 212.96ZM301.86 236.34C301.7 236.88 301.6 237.5 301.48 238.02C301.2 239.62 300.4 243.48 299.72 245.34C301.46 244.12 303.26 243.62 305.34 243.62C308.52 243.62 310.38 245.24 310.38 247.58C310.38 251.76 306.12 253.3 300.04 252.66L299.62 251.06C304.26 251.7 308.74 250.92 308.74 247.62C308.74 246.14 307.52 244.98 305.18 244.98C302.8 244.98 300.58 245.8 299.26 247.38C299.02 247.68 298.84 247.96 298.64 248.3L297.16 247.78C298.68 244.8 299.74 239.84 299.98 237.92C300.06 237.28 300.1 236.8 300.06 236.26L301.86 236.34ZM295.64 238.9C296.7 239.08 298.22 239.22 299.42 239.22C301.98 239.22 305.92 238.92 309.06 238.22L309.1 239.76C306.26 240.26 302.18 240.66 299.44 240.66C298.08 240.66 296.8 240.56 295.66 240.46L295.64 238.9ZM321.56 240.18C322.7 240.3 323.78 240.36 324.96 240.36C327.36 240.36 329.82 240.18 331.84 239.76V241.3C329.72 241.66 327.28 241.82 324.94 241.82C323.78 241.82 322.74 241.78 321.58 241.7L321.56 240.18ZM328.56 236.6C328.5 237 328.46 237.42 328.44 237.8C328.4 238.54 328.38 239.96 328.38 241.14C328.38 244.22 328.68 247.34 328.68 249.4C328.68 251.04 327.92 252.64 325.22 252.64C322.54 252.64 321.08 251.56 321.08 249.76C321.08 248.08 322.56 246.76 325.2 246.76C328.56 246.76 330.9 248.46 332.58 249.98L331.72 251.3C329.62 249.34 327.6 247.98 325.06 247.98C323.56 247.98 322.52 248.64 322.52 249.6C322.52 250.64 323.5 251.18 324.96 251.18C326.64 251.18 327.12 250.34 327.12 249C327.12 247.56 326.86 243.82 326.86 241.18C326.86 239.8 326.84 238.54 326.84 237.84C326.84 237.48 326.82 236.96 326.76 236.6H328.56ZM318.7 236.74C318.58 237.06 318.42 237.72 318.34 238.08C317.94 239.94 317.34 243.9 317.34 246.14C317.34 247.12 317.4 247.96 317.54 248.94C317.86 248.02 318.36 246.8 318.7 245.98L319.52 246.62C319.02 248.02 318.28 250.06 318.08 251.04C318.02 251.32 317.98 251.72 318 251.94C318.02 252.14 318.04 252.44 318.06 252.64L316.64 252.76C316.26 251.32 315.88 249.12 315.88 246.42C315.88 243.48 316.56 239.66 316.8 238.02C316.88 237.54 316.92 237.02 316.94 236.58L318.7 236.74Z" fill="black"/>
<defs>
<filter id="filter0_f_3297_3217" x="-110.323" y="168.522" width="640.486" height="399.22" filterUnits="userSpaceOnUse" color-interpolation-filters="sRGB">
<feFlood flood-opacity="0" result="BackgroundImageFix"/>
<feBlend mode="normal" in="SourceGraphic" in2="BackgroundImageFix" result="shape"/>
<feGaussianBlur stdDeviation="3" result="effect1_foregroundBlur_3297_3217"/>
</filter>
</defs>
</svg>
