<svg width="14" height="17" viewBox="0 0 14 17" fill="none" xmlns="http://www.w3.org/2000/svg">
<path d="M6.99634 2.46015C4.28441 0.651995 2.92844 -0.252083 1.81996 0.061255C1.47237 0.15951 1.1502 0.331921 0.875623 0.566619C0 1.31507 0 2.9448 0 6.20425V10.7209C0 13.98 0 15.6096 0.875546 16.358C1.1501 16.5927 1.47225 16.7652 1.81982 16.8634C2.92821 17.1768 4.28413 16.273 6.99597 14.4653L10.3835 12.2072C12.6227 10.7145 13.7424 9.96817 13.9449 8.95138C14.0091 8.62906 14.0091 8.29724 13.9449 7.97491C13.7425 6.9581 12.623 6.21165 10.3839 4.71874L6.99634 2.46015Z" fill="#F15223" fill-opacity="0.8"/>
</svg>
