<svg width="24" height="24" viewBox="0 0 24 24" fill="none" xmlns="http://www.w3.org/2000/svg">
<path d="M12.449 11.56C15.4866 11.56 17.949 9.19606 17.949 6.28C17.949 3.36394 15.4866 1 12.449 1C9.41143 1 6.949 3.36394 6.949 6.28C6.949 9.19606 9.41143 11.56 12.449 11.56Z" fill="#FFA31A"/>
<path d="M21.898 22.12C21.898 18.0333 17.663 14.728 12.449 14.728C7.235 14.728 3 18.0333 3 22.12" fill="#FFA31A"/>
<path d="M21.898 22.12C21.898 18.0333 17.663 14.728 12.449 14.728C7.235 14.728 3 18.0333 3 22.12M17.949 6.28C17.949 9.19606 15.4866 11.56 12.449 11.56C9.41143 11.56 6.949 9.19606 6.949 6.28C6.949 3.36394 9.41143 1 12.449 1C15.4866 1 17.949 3.36394 17.949 6.28Z" stroke="#FFA31A" stroke-width="1.5" stroke-linecap="round" stroke-linejoin="round"/>
</svg>
