<svg width="350" height="256" viewBox="0 0 350 256" fill="none" xmlns="http://www.w3.org/2000/svg">
<g clip-path="url(#clip0_1174_7109)">
<path d="M350 215.68H0V215.855H350V215.68Z" fill="#E0E0E0"/>
<path d="M84.6375 223.723H75.3975V223.898H84.6375V223.723Z" fill="#E0E0E0"/>
<path d="M70.266 223.807H56.252V223.982H70.266V223.807Z" fill="#E0E0E0"/>
<path d="M153.293 222.631H116.9V222.806H153.293V222.631Z" fill="#E0E0E0"/>
<path d="M167.3 220.741H147.77V220.916H167.3V220.741Z" fill="#E0E0E0"/>
<path d="M280.301 226.278H234.731V226.453H280.301V226.278Z" fill="#E0E0E0"/>
<path d="M230.846 226.278H219.632V226.453H230.846V226.278Z" fill="#E0E0E0"/>
<path d="M293.069 222.05H273.028V222.225H293.069V222.05Z" fill="#E0E0E0"/>
<path d="M165.9 184.46H30.7371C29.6782 184.458 28.6634 184.036 27.9153 183.287C27.1672 182.537 26.7471 181.522 26.7471 180.463V-9.538C26.7563 -10.5908 27.1805 -11.5974 27.9276 -12.3392C28.6747 -13.0811 29.6842 -13.4982 30.7371 -13.5H165.9C166.96 -13.5 167.977 -13.0789 168.726 -12.3293C169.476 -11.5797 169.897 -10.5631 169.897 -9.503V180.463C169.897 181.523 169.476 182.54 168.726 183.289C167.977 184.039 166.96 184.46 165.9 184.46ZM30.7371 -13.36C29.7246 -13.3581 28.7543 -12.9547 28.039 -12.2381C27.3238 -11.5215 26.9221 -10.5504 26.9221 -9.538V180.463C26.9221 181.475 27.3238 182.447 28.039 183.163C28.7543 183.88 29.7246 184.283 30.7371 184.285H165.9C166.913 184.283 167.884 183.88 168.601 183.164C169.317 182.447 169.72 181.476 169.722 180.463V-9.538C169.72 -10.5511 169.317 -11.5222 168.601 -12.2385C167.884 -12.9549 166.913 -13.3581 165.9 -13.36H30.7371Z" fill="#E0E0E0"/>
<path d="M317.317 184.46H182.147C181.088 184.458 180.072 184.036 179.323 183.287C178.574 182.538 178.152 181.522 178.15 180.463V-9.538C178.161 -10.5914 178.587 -11.598 179.335 -12.3397C180.084 -13.0813 181.094 -13.4982 182.147 -13.5H317.317C318.369 -13.4964 319.377 -13.0784 320.122 -12.3368C320.868 -11.5952 321.291 -10.5896 321.3 -9.538V180.463C321.3 181.521 320.881 182.535 320.135 183.284C319.388 184.034 318.375 184.456 317.317 184.46ZM182.147 -13.36C181.134 -13.3581 180.163 -12.9549 179.447 -12.2385C178.731 -11.5222 178.327 -10.5511 178.325 -9.538V180.463C178.327 181.476 178.731 182.447 179.447 183.164C180.163 183.88 181.134 184.283 182.147 184.285H317.317C318.33 184.283 319.302 183.88 320.018 183.164C320.734 182.447 321.138 181.476 321.139 180.463V-9.538C321.138 -10.5511 320.734 -11.5222 320.018 -12.2385C319.302 -12.9549 318.33 -13.3581 317.317 -13.36H182.147Z" fill="#E0E0E0"/>
<path d="M44.002 215.68H63.252L63.252 142.138H44.002L44.002 215.68Z" fill="#E0E0E0"/>
<path d="M47.6628 215.68H44.0088V205.278H51.4988L47.6628 215.68Z" fill="#EBEBEB"/>
<path d="M153.853 215.68H173.103V142.138H153.853V215.68Z" fill="#E0E0E0"/>
<path d="M44.0021 209.296H157.038V142.138H44.0021L44.0021 209.296Z" fill="#EBEBEB"/>
<path d="M119.777 145.54V196.29H153.286V145.54H119.777Z" fill="#E0E0E0"/>
<path d="M133.217 148.452H139.846C141.27 148.452 142.68 148.163 143.99 147.601C145.299 147.039 146.48 146.216 147.462 145.183H125.601C126.582 146.216 127.763 147.039 129.072 147.601C130.382 148.163 131.792 148.452 133.217 148.452Z" fill="#EBEBEB"/>
<path d="M83.7686 145.54V196.29H117.278V145.54H83.7686Z" fill="#E0E0E0"/>
<path d="M96.8728 148.452H103.502C104.926 148.452 106.334 148.161 107.642 147.599C108.95 147.037 110.13 146.215 111.111 145.183H89.2568C90.2381 146.216 91.4193 147.039 92.7287 147.601C94.038 148.163 95.448 148.452 96.8728 148.452Z" fill="#EBEBEB"/>
<path d="M47.7607 145.547V196.297H81.2698V145.547H47.7607Z" fill="#E0E0E0"/>
<path d="M60.9 148.452H67.529C68.9539 148.452 70.3639 148.163 71.6732 147.601C72.9825 147.039 74.1638 146.216 75.145 145.183H53.249C54.2343 146.221 55.4212 147.046 56.7369 147.608C58.0526 148.17 59.4693 148.457 60.9 148.452Z" fill="#EBEBEB"/>
<path d="M153.391 215.68H157.045V205.278H149.555L153.391 215.68Z" fill="#EBEBEB"/>
<path d="M199.052 99.123L305.102 99.123V-0.206947L199.052 -0.206947V99.123Z" fill="#E0E0E0"/>
<path d="M195.244 99.123L303.324 99.123V-0.206947L195.244 -0.206947V99.123Z" fill="#EBEBEB"/>
<path d="M199.052 106.193L305.102 106.193V99.1161L199.052 99.1161V106.193Z" fill="#E0E0E0"/>
<path d="M188.902 106.193L296.982 106.193V99.1161L188.902 99.1161V106.193Z" fill="#EBEBEB"/>
<path d="M297.997 93.789V5.12695L200.578 5.12695V93.789H297.997Z" fill="#F5F5F5"/>
<path d="M287.791 93.789L256.494 5.12695H241.724L273.021 93.789H287.791Z" fill="#FAFAFA"/>
<path d="M295.526 63.7101C295.424 63.7101 295.326 63.6696 295.253 63.5974C295.181 63.5252 295.141 63.4272 295.141 63.3251V8.59211C295.142 8.49122 295.184 8.39508 295.256 8.32439C295.328 8.25369 295.425 8.21409 295.526 8.21411C295.626 8.21411 295.722 8.25394 295.793 8.32483C295.864 8.39572 295.904 8.49186 295.904 8.59211V63.3251C295.904 63.426 295.864 63.5229 295.793 63.5949C295.723 63.6669 295.627 63.7083 295.526 63.7101Z" fill="#EBEBEB"/>
<path d="M269.843 93.789L238.546 5.12695H232.792L264.082 93.789H269.843Z" fill="#FAFAFA"/>
<path d="M201.25 93.789V5.12695H200.571V93.789H201.25Z" fill="#E0E0E0"/>
<path d="M193.984 11.945H300.034L300.524 7.19897H194.474L193.984 11.945Z" fill="#E0E0E0"/>
<path d="M193.984 15.4239H300.034L300.524 10.6709H194.474L193.984 15.4239Z" fill="#E0E0E0"/>
<path d="M193.984 19.596H300.034L300.524 14.843H194.474L193.984 19.596Z" fill="#E0E0E0"/>
<path d="M193.984 24.237H300.034L300.524 19.491H194.474L193.984 24.237Z" fill="#E0E0E0"/>
<path d="M193.984 29.8021H300.034L300.524 25.0491H194.474L193.984 29.8021Z" fill="#E0E0E0"/>
<path d="M193.984 36.0529H300.034L300.524 31.3069H194.474L193.984 36.0529Z" fill="#E0E0E0"/>
<path d="M192.85 215.68H224.238V149.74H192.85V215.68Z" fill="#E0E0E0"/>
<path d="M196 215.68H192.85V206.699H199.311L196 215.68Z" fill="#EBEBEB"/>
<path d="M270.06 215.68H301.448V149.74H270.06V215.68Z" fill="#E0E0E0"/>
<path d="M192.85 210.171H272.811V149.74H192.85V210.171Z" fill="#EBEBEB"/>
<path d="M195.293 168.99H270.361V152.414H195.293V168.99Z" fill="#E0E0E0"/>
<path d="M229.285 157.566H236.376C239.456 157.566 242.396 155.522 244.517 151.91H221.137C223.258 155.522 226.205 157.566 229.285 157.566Z" fill="#EBEBEB"/>
<path d="M269.654 215.68H272.811V206.699H266.343L269.654 215.68Z" fill="#EBEBEB"/>
<path d="M195.293 188.24H270.361V171.664H195.293V188.24Z" fill="#E0E0E0"/>
<path d="M229.285 176.816H236.376C239.456 176.816 242.396 174.772 244.517 171.16H221.137C223.258 174.8 226.205 176.816 229.285 176.816Z" fill="#EBEBEB"/>
<path d="M195.293 207.49H270.361V190.914H195.293V207.49Z" fill="#E0E0E0"/>
<path d="M229.285 196.066H236.376C239.456 196.066 242.396 194.022 244.517 190.41H221.137C223.258 194.022 226.205 196.066 229.285 196.066Z" fill="#EBEBEB"/>
<path d="M66.3881 94.9299L127.33 94.9299L127.33 13.4219L66.3881 13.4219V94.9299Z" fill="#E0E0E0"/>
<path d="M62.1531 94.9299L126.203 94.9299L126.203 13.4219L62.1531 13.4219L62.1531 94.9299Z" fill="#EBEBEB"/>
<path d="M120.841 89.568V18.791L67.5218 18.791V89.568H120.841Z" fill="#FAFAFA"/>
<path d="M95.0456 67.7001H81.1996C81.0623 67.7001 80.9305 67.6455 80.8334 67.5484C80.7362 67.4512 80.6816 67.3195 80.6816 67.1821V53.3151C80.6927 49.9768 82.0238 46.7783 84.3843 44.4178C86.7449 42.0572 89.9433 40.7262 93.2816 40.7151H107.121C107.189 40.7151 107.256 40.7285 107.319 40.7545C107.382 40.7806 107.439 40.8187 107.487 40.8668C107.535 40.9149 107.573 40.972 107.599 41.0349C107.625 41.0977 107.639 41.1651 107.639 41.2331V55.0721C107.635 58.4141 106.308 61.6186 103.948 63.985C101.588 66.3514 98.3876 67.6871 95.0456 67.7001ZM81.7456 66.6711H95.0456C98.1201 66.6674 101.067 65.4439 103.241 63.2693C105.414 61.0947 106.636 58.1466 106.638 55.0721V41.7721H93.3376C90.2637 41.7758 87.3167 42.9981 85.1425 45.171C82.9682 47.3439 81.7442 50.2902 81.7386 53.3641L81.7456 66.6711Z" fill="#EBEBEB"/>
<path d="M149.8 109.469H97.3774L89.7754 140.43H142.198L149.8 109.469Z" fill="#E0E0E0"/>
<path d="M142.198 140.43L141.988 142.138H89.5654L89.7754 140.43H142.198Z" fill="#E0E0E0"/>
<path d="M148.183 109.469H95.76L88.165 140.43H140.588L148.183 109.469Z" fill="#F0F0F0"/>
<path d="M139.475 139.016L146.384 110.883H96.8729L89.9639 139.016H139.475Z" fill="#FAFAFA"/>
<path d="M126.924 140.43L126.714 142.138H68.9854L69.2023 140.43H126.924Z" fill="#F0F0F0"/>
<path d="M267.344 144.308H266.511C266.511 142.586 266.511 138.218 266.427 128.208C266.273 110.064 265.986 108.958 265.986 108.958L267.974 117.358C269.241 126.612 267.61 135.929 267.344 144.308Z" fill="#E0E0E0"/>
<path d="M271.054 114.236C275.436 109.903 283.983 109.336 292.719 108.965C296.149 108.818 283.143 115.405 276.619 120.34C271.558 124.169 268.464 125.072 266.784 129.209C266.623 123.84 267.281 117.967 271.054 114.236Z" fill="#E0E0E0"/>
<path d="M266.238 104.8C263.27 99.1651 255.801 93.8521 247.422 91.8361C244.132 91.0451 255.045 102.252 259.189 109.476C262.416 115.076 266.686 121.684 267.351 126.423C268.352 117.05 269.206 110.456 266.238 104.8Z" fill="#E0E0E0"/>
<path d="M266.623 149.733C268.028 149.734 269.38 149.197 270.401 148.232C271.423 147.268 272.037 145.949 272.118 144.546L272.601 139.569H260.638L261.128 144.546C261.208 145.949 261.822 147.268 262.844 148.232C263.866 149.197 265.218 149.734 266.623 149.733Z" fill="#EBEBEB"/>
<path d="M259.868 141.487H273.378L273.763 135.943H259.476L259.868 141.487Z" fill="#EBEBEB"/>
<path d="M175 247.292C249.958 247.292 310.723 243.744 310.723 239.368C310.723 234.992 249.958 231.444 175 231.444C100.043 231.444 39.2773 234.992 39.2773 239.368C39.2773 243.744 100.043 247.292 175 247.292Z" fill="#F5F5F5"/>
<path d="M100.869 89.645H67.248V239.242H100.869V89.645Z" fill="#FFA31F"/>
<path opacity="0.7" d="M100.869 89.645H67.248V239.242H100.869V89.645Z" fill="#FAFAFA"/>
<path d="M152.306 40.197H118.685V239.235H152.306V40.197Z" fill="#FFA31F"/>
<path opacity="0.1" d="M152.306 40.197H118.685V239.235H152.306V40.197Z" fill="black"/>
<path d="M203.748 89.645H170.127V239.242H203.748V89.645Z" fill="#FFA31F"/>
<path opacity="0.4" d="M203.748 89.645H170.127V239.242H203.748V89.645Z" fill="black"/>
<path d="M88.9413 89.645H55.3203V239.242H88.9413V89.645Z" fill="#FFA31F"/>
<path opacity="0.8" d="M88.9413 89.645H55.3203V239.242H88.9413V89.645Z" fill="#FAFAFA"/>
<path d="M140.385 40.197H106.764V239.235H140.385V40.197Z" fill="#FFA31F"/>
<path opacity="0.2" d="M140.385 40.197H106.764V239.235H140.385V40.197Z" fill="#FAFAFA"/>
<path d="M191.82 89.645H158.199V239.242H191.82V89.645Z" fill="#FFA31F"/>
<path opacity="0.2" d="M191.82 89.645H158.199V239.242H191.82V89.645Z" fill="black"/>
<path d="M317.576 170.6H316.876C316.859 157.696 313.305 145.043 306.6 134.018L307.202 133.654C313.97 144.79 317.558 157.568 317.576 170.6ZM302.708 128.292C300.733 125.679 298.576 123.209 296.254 120.9L296.751 120.41C299.099 122.748 301.277 125.251 303.268 127.9L302.708 128.292Z" fill="#FFA31F"/>
<path opacity="0.3" d="M317.576 170.6H316.876C316.859 157.696 313.305 145.043 306.6 134.018L307.202 133.654C313.97 144.79 317.558 157.568 317.576 170.6ZM302.708 128.292C300.733 125.679 298.576 123.209 296.254 120.9L296.751 120.41C299.099 122.748 301.277 125.251 303.268 127.9L302.708 128.292Z" fill="black"/>
<path d="M295.021 122.104C282.152 109.239 264.702 102.008 246.504 102H236.599V102.735C228.011 103.988 219.738 106.858 212.218 111.191C179.612 130 168.265 172.315 187.074 204.9C192.255 213.878 199.402 221.566 207.98 227.385C216.557 233.205 226.342 237.005 236.599 238.5V239.2H246.518C260.092 239.207 273.362 235.186 284.65 227.648C295.938 220.11 304.735 209.392 309.93 196.852C315.124 184.312 316.481 170.512 313.83 157.2C311.179 143.888 304.638 131.662 295.035 122.069L295.021 122.104ZM246.504 221.336C236.473 221.337 226.666 218.364 218.324 212.792C209.983 207.22 203.48 199.3 199.64 190.033C195.799 180.765 194.793 170.567 196.748 160.728C198.703 150.889 203.532 141.85 210.624 134.756C217.716 127.661 226.753 122.828 236.591 120.869C246.429 118.91 256.628 119.912 265.897 123.748C275.166 127.585 283.089 134.084 288.664 142.423C294.239 150.763 297.217 160.568 297.219 170.6C297.237 177.266 295.937 183.87 293.395 190.032C290.853 196.194 287.118 201.793 282.406 206.507C277.693 211.222 272.096 214.959 265.935 217.504C259.774 220.048 253.17 221.351 246.504 221.336Z" fill="#FFA31F"/>
<path opacity="0.3" d="M295.021 122.104C282.152 109.239 264.702 102.008 246.504 102H236.599V102.735C228.011 103.988 219.738 106.858 212.218 111.191C179.612 130 168.265 172.315 187.074 204.9C192.255 213.878 199.402 221.566 207.98 227.385C216.557 233.205 226.342 237.005 236.599 238.5V239.2H246.518C260.092 239.207 273.362 235.186 284.65 227.648C295.938 220.11 304.735 209.392 309.93 196.852C315.124 184.312 316.481 170.512 313.83 157.2C311.179 143.888 304.638 131.662 295.035 122.069L295.021 122.104ZM246.504 221.336C236.473 221.337 226.666 218.364 218.324 212.792C209.983 207.22 203.48 199.3 199.64 190.033C195.799 180.765 194.793 170.567 196.748 160.728C198.703 150.889 203.532 141.85 210.624 134.756C217.716 127.661 226.753 122.828 236.591 120.869C246.429 118.91 256.628 119.912 265.897 123.748C275.166 127.585 283.089 134.084 288.664 142.423C294.239 150.763 297.217 160.568 297.219 170.6C297.237 177.266 295.937 183.87 293.395 190.032C290.853 196.194 287.118 201.793 282.406 206.507C277.693 211.222 272.096 214.959 265.935 217.504C259.774 220.048 253.17 221.351 246.504 221.336Z" fill="black"/>
<path d="M287.3 170.6H305.199C305.213 185.712 300.235 200.406 291.04 212.399C281.845 224.392 268.947 233.014 254.35 236.924C239.752 240.834 224.272 239.815 210.313 234.024C196.354 228.233 184.698 217.995 177.155 204.9L192.667 195.947C198.246 205.619 206.861 213.179 217.175 217.455C227.489 221.73 238.927 222.482 249.712 219.593C260.497 216.704 270.027 210.336 276.824 201.478C283.62 192.619 287.303 181.765 287.3 170.6Z" fill="#FFA31F"/>
<path opacity="0.2" d="M287.3 170.6H305.199C305.213 185.712 300.235 200.406 291.04 212.399C281.845 224.392 268.947 233.014 254.35 236.924C239.752 240.834 224.272 239.815 210.313 234.024C196.354 228.233 184.698 217.995 177.155 204.9L192.667 195.947C198.246 205.619 206.861 213.179 217.175 217.455C227.489 221.73 238.927 222.482 249.712 219.593C260.497 216.704 270.027 210.336 276.824 201.478C283.62 192.619 287.303 181.765 287.3 170.6Z" fill="#FAFAFA"/>
<path d="M236.6 102C254.79 102.011 272.232 109.242 285.095 122.105C297.957 134.967 305.188 152.41 305.2 170.6H287.301C287.293 157.156 281.949 144.264 272.442 134.757C262.936 125.25 250.044 119.906 236.6 119.899V102Z" fill="#FFA31F"/>
<path d="M236.6 102V119.899C227.697 119.896 218.951 122.237 211.241 126.687C203.531 131.137 197.128 137.539 192.676 145.248C188.225 152.957 185.882 161.703 185.883 170.605C185.884 179.507 188.229 188.253 192.682 195.961L177.156 204.9C158.347 172.301 169.687 130 202.286 111.177C212.721 105.163 224.555 101.998 236.6 102Z" fill="#FFA31F"/>
<path opacity="0.8" d="M236.6 102V119.899C227.697 119.896 218.951 122.237 211.241 126.687C203.531 131.137 197.128 137.539 192.676 145.248C188.225 152.957 185.882 161.703 185.883 170.605C185.884 179.507 188.229 188.253 192.682 195.961L177.156 204.9C158.347 172.301 169.687 130 202.286 111.177C212.721 105.163 224.555 101.998 236.6 102Z" fill="#FAFAFA"/>
<path d="M219.778 149.901L214.276 153.121L205.981 140.878L211.483 137.658L219.778 149.901Z" fill="#E4897B"/>
<path d="M211.217 149.642L217.251 145.799C217.354 145.73 217.479 145.701 217.601 145.718C217.724 145.734 217.836 145.796 217.916 145.89L221.647 150.23C221.737 150.343 221.801 150.473 221.837 150.612C221.873 150.751 221.879 150.896 221.855 151.038C221.831 151.18 221.778 151.315 221.699 151.435C221.62 151.555 221.516 151.657 221.395 151.735C219.295 153.037 218.175 153.562 215.522 155.235C213.884 156.271 210.622 158.595 208.361 160.037C206.1 161.479 204.567 159.337 205.379 158.518C209.012 154.927 209.873 152.624 210.531 150.524C210.653 150.16 210.895 149.849 211.217 149.642Z" fill="#263238"/>
<path d="M208.453 152.337H208.292C208.163 152.315 208.042 152.261 207.939 152.182C207.835 152.103 207.752 152 207.697 151.882C207.659 151.816 207.639 151.741 207.639 151.665C207.639 151.589 207.659 151.514 207.697 151.448C208.117 150.685 210.931 150.419 211.253 150.391C211.275 150.388 211.297 150.393 211.316 150.404C211.335 150.416 211.35 150.433 211.358 150.454C211.371 150.471 211.378 150.492 211.378 150.514C211.378 150.535 211.371 150.556 211.358 150.573C210.63 151.245 209.349 152.337 208.453 152.337ZM210.959 150.629C209.979 150.741 208.159 151.042 207.886 151.546C207.865 151.581 207.854 151.621 207.854 151.662C207.854 151.702 207.865 151.742 207.886 151.777C207.925 151.866 207.986 151.943 208.063 152.002C208.14 152.061 208.231 152.099 208.327 152.113C208.866 152.204 209.839 151.651 210.959 150.629Z" fill="#FFA31F"/>
<path d="M210.902 150.622C209.971 150.622 208.452 150.286 208.207 149.719C208.144 149.572 208.13 149.348 208.438 149.11C208.551 149.018 208.681 148.95 208.821 148.912C208.961 148.873 209.107 148.864 209.25 148.886C210.265 149.019 211.301 150.37 211.35 150.426C211.36 150.442 211.366 150.46 211.366 150.479C211.366 150.497 211.36 150.515 211.35 150.531C211.345 150.548 211.335 150.563 211.321 150.574C211.308 150.585 211.291 150.592 211.273 150.594C211.151 150.614 211.027 150.624 210.902 150.622ZM209.096 149.089C208.905 149.089 208.719 149.156 208.571 149.278C208.326 149.467 208.382 149.593 208.403 149.635C208.592 150.076 210.132 150.461 211.056 150.405C210.596 149.788 209.955 149.331 209.222 149.096L209.096 149.089Z" fill="#FFA31F"/>
<path d="M234.926 54.7501C234.821 55.3031 234.737 55.6951 234.632 56.1501L234.303 57.4451C234.072 58.3061 233.827 59.1461 233.603 59.9861C233.071 61.6591 232.483 63.2971 231.86 64.8861C231.237 66.4751 230.551 68.1061 229.844 69.6811C229.494 70.4721 229.144 71.2491 228.738 72.0261L228.451 72.6141L228.29 72.9361C228.213 73.0971 228.129 73.2581 228.038 73.4121C227.699 73.9895 227.288 74.5211 226.813 74.9941C225.991 75.7951 225.046 76.4592 224.013 76.9611C223.112 77.4027 222.176 77.7679 221.213 78.0531C219.45 78.5651 217.643 78.9165 215.816 79.1031C212.326 79.4661 208.807 79.4661 205.316 79.1031L205.372 75.8131C206.968 75.6381 208.634 75.4561 210.272 75.1831C211.91 74.9101 213.485 74.6371 215.039 74.2731C216.544 73.9246 218.019 73.4564 219.449 72.8731C220.622 72.466 221.685 71.7955 222.557 70.9131C222.671 70.7811 222.763 70.6323 222.83 70.4721L223.187 69.5551C223.495 68.7921 223.782 68.0221 224.069 67.2521C224.657 65.7191 225.189 64.1651 225.728 62.6251C226.267 61.0851 226.757 59.5241 227.205 57.9701C227.443 57.1931 227.667 56.4231 227.905 55.6531L228.206 54.4981L228.465 53.4341L234.926 54.7501Z" fill="#E4897B"/>
<path d="M230.482 46.5669C227.857 47.2669 226.016 58.0399 226.016 58.0399L233.254 62.9399C233.254 62.9399 240.191 52.0409 238.154 49.1569C236.068 46.1679 234.311 45.5939 230.482 46.5669Z" fill="#FFA31F"/>
<path opacity="0.6" d="M230.482 46.5669C227.857 47.2669 226.016 58.0399 226.016 58.0399L233.254 62.9399C233.254 62.9399 240.191 52.0409 238.154 49.1569C236.068 46.1679 234.311 45.5939 230.482 46.5669Z" fill="#FAFAFA"/>
<path d="M230.243 50.4939L235.843 51.7959L236.382 57.2909C235.429 59.2332 234.378 61.1256 233.232 62.9609L228.899 59.9999C229.053 57.4519 229.529 52.2019 230.243 50.4939Z" fill="#FFA31F"/>
<path opacity="0.3" d="M230.243 50.4939L235.843 51.7959L236.382 57.2909C235.429 59.2332 234.378 61.1256 233.232 62.9609L228.899 59.9999C229.053 57.4519 229.529 52.2019 230.243 50.4939Z" fill="#FAFAFA"/>
<path d="M206.297 75.806L201.782 71.2L201.187 77.654C201.187 77.654 204.575 79.9429 206.92 78.7109L206.297 75.806Z" fill="#E4897B"/>
<path d="M196.469 70.542L196.259 75.974L201.187 77.682L201.775 71.228L196.469 70.542Z" fill="#E4897B"/>
<path d="M195.083 151.644L190.561 147.157L199.486 135.236L204.008 139.716L195.083 151.644Z" fill="#E4897B"/>
<path d="M193.095 144L199.619 146.954C199.733 147.001 199.824 147.089 199.876 147.2C199.928 147.312 199.936 147.439 199.899 147.556L198.31 153.051C198.265 153.188 198.191 153.314 198.094 153.421C197.997 153.527 197.879 153.613 197.747 153.671C197.615 153.729 197.472 153.758 197.328 153.758C197.184 153.757 197.041 153.726 196.91 153.667C194.656 152.596 193.62 151.966 190.75 150.671C188.986 149.873 184.38 148.004 181.944 146.905C179.508 145.806 180.467 143.335 181.58 143.573C186.578 144.658 189.854 144.511 191.968 143.916C192.342 143.813 192.74 143.843 193.095 144Z" fill="#263238"/>
<path d="M205.988 140.878L210.265 147.192L215.767 143.972L211.49 137.665L205.988 140.878Z" fill="#CE6F64"/>
<path d="M204.008 139.716L199.479 135.236L194.88 141.382L199.409 145.869L204.008 139.716Z" fill="#CE6F64"/>
<path d="M259.399 85.025H233.499C227.416 47.638 230.454 46.574 230.454 46.574C230.454 46.574 234.619 45.72 238.98 45.174C239.729 45.083 240.478 44.999 241.22 44.929C245.133 44.6487 249.06 44.6487 252.973 44.929C253.715 44.964 254.457 45.02 255.185 45.083C258.131 45.3498 261.059 45.7822 263.956 46.378C258.951 68.001 259 74.49 259.399 85.025Z" fill="#FFA31F"/>
<path opacity="0.6" d="M259.399 85.025H233.499C227.416 47.638 230.454 46.574 230.454 46.574C230.454 46.574 234.619 45.72 238.98 45.174C239.729 45.083 240.478 44.999 241.22 44.929C245.133 44.6487 249.06 44.6487 252.973 44.929C253.715 44.964 254.457 45.02 255.185 45.083C258.131 45.3498 261.059 45.7822 263.956 46.378C258.951 68.001 259 74.49 259.399 85.025Z" fill="#FAFAFA"/>
<path d="M255.213 45.0901L254.933 45.7481C254.786 46.1121 251.181 54.5821 244.195 60.2381L242.487 61.6381L241.178 59.8671C237.251 54.5471 238.427 47.6311 239.008 45.2021C239.757 45.1111 240.506 45.0271 241.248 44.9571C245.161 44.6767 249.088 44.6767 253.001 44.9571C253.743 44.9711 254.485 45.0271 255.213 45.0901Z" fill="#FFA31F"/>
<path opacity="0.1" d="M255.213 45.0901L254.933 45.7481C254.786 46.1121 251.181 54.5821 244.195 60.2381L242.487 61.6381L241.178 59.8671C237.251 54.5471 238.427 47.6311 239.008 45.2021C239.757 45.1111 240.506 45.0271 241.248 44.9571C245.161 44.6767 249.088 44.6767 253.001 44.9571C253.743 44.9711 254.485 45.0271 255.213 45.0901Z" fill="#FAFAFA"/>
<path d="M239.981 12.708C234.325 10.181 230.923 19.792 231.308 26.596C231.693 33.4 232.708 41.744 229.726 40.344C226.744 38.944 228.858 36.844 228.858 36.844C228.858 36.844 224.658 40.169 229.425 41.996C234.192 43.823 242.669 43.648 247.625 41.296C250.46 37.019 249.242 21.031 249.242 21.031L239.981 12.708Z" fill="#263238"/>
<path d="M251.832 31.7061C251.097 35.4861 250.355 42.416 253.001 44.9361C253.001 44.9361 249.501 53.2171 242.872 58.6001C238.714 52.9651 241.248 44.9361 241.248 44.9361C245.448 43.9281 245.357 40.7991 244.622 37.8661L251.832 31.7061Z" fill="#E4897B"/>
<path d="M248.891 34.219L244.621 37.859C244.806 38.5464 244.928 39.2493 244.985 39.959C246.595 39.728 248.807 37.957 248.982 36.27C249.078 35.5866 249.048 34.8912 248.891 34.219Z" fill="#CE6F64"/>
<path d="M252.28 21.7451C252.98 28.0451 253.449 30.6701 250.88 34.4151C247.016 40.0571 239.141 39.5811 236.551 33.6451C234.22 28.3041 233.415 18.9451 239.057 15.3681C240.297 14.5756 241.719 14.1134 243.187 14.0256C244.656 13.9378 246.123 14.2273 247.448 14.8664C248.773 15.5055 249.913 16.4731 250.759 17.6772C251.605 18.8812 252.128 20.2815 252.28 21.7451Z" fill="#E4897B"/>
<path d="M239.757 17.4189C242.018 20.0719 248.857 27.7929 253.631 26.7919C258.531 25.7629 258.699 16.6419 252.791 12.8689C246.883 9.09589 233.688 10.2999 239.757 17.4189Z" fill="#263238"/>
<path d="M253.918 6.34497C249.417 4.85397 249.018 9.24998 249.368 11.987L254.898 16.054C256.665 15.7751 258.376 15.215 259.966 14.395C262.136 13.156 258.419 7.83597 253.918 6.34497Z" fill="#263238"/>
<path d="M254.933 27.1421C254.803 28.3533 254.22 29.4707 253.302 30.2711C252.07 31.3141 250.845 30.3901 250.67 28.8711C250.516 27.5131 250.971 25.3711 252.455 24.8741C253.939 24.3771 255.073 25.6581 254.933 27.1421Z" fill="#E4897B"/>
<path d="M208.257 112.5C208.068 118.184 209.804 125.1 211.708 130.868C212.114 132.1 212.527 133.283 212.933 134.368C214.669 139.1 216.223 142.397 216.223 142.397L208.6 146.737C208.6 146.737 207.564 145.435 206.038 143.146C205.338 142.138 204.596 140.927 203.777 139.555C199.507 132.415 193.921 120.746 193.655 108.328C193.235 88.8959 233.513 85.0249 233.513 85.0249H252.56L247.226 100.18C247.226 100.18 208.6 102.161 208.257 112.5Z" fill="#FFA31F"/>
<path opacity="0.6" d="M208.257 112.5C208.068 118.184 209.804 125.1 211.708 130.868C212.114 132.1 212.527 133.283 212.933 134.368C214.669 139.1 216.223 142.397 216.223 142.397L208.6 146.737C208.6 146.737 207.564 145.435 206.038 143.146C205.338 142.138 204.596 140.927 203.777 139.555C199.507 132.415 193.921 120.746 193.655 108.328C193.235 88.8959 233.513 85.0249 233.513 85.0249H252.56L247.226 100.18C247.226 100.18 208.6 102.161 208.257 112.5Z" fill="black"/>
<path d="M212.933 134.403C211.939 136.055 209.251 140.262 206.052 143.146C205.352 142.138 204.61 140.927 203.791 139.555L211.708 130.889C212.1 132.1 212.527 133.304 212.933 134.403Z" fill="#263238"/>
<path d="M219.491 96.3999L218.679 104.66C213.079 106.424 208.711 108.86 208.284 112.122C207.332 104.8 212.428 100.502 219.491 96.3999Z" fill="#263238"/>
<path d="M240.358 85.0181C240.358 85.0181 216.516 94.7481 212.883 105.5C208.249 119.22 195.649 138.61 195.649 138.61L200.941 145.498C200.941 145.498 215.487 131.4 225.399 115.258C237.817 94.9581 267.735 116.399 259.433 85.0181H240.358Z" fill="#FFA31F"/>
<path opacity="0.6" d="M240.358 85.0181C240.358 85.0181 216.516 94.7481 212.883 105.5C208.249 119.22 195.649 138.61 195.649 138.61L200.941 145.498C200.941 145.498 215.487 131.4 225.399 115.258C237.817 94.9581 267.735 116.399 259.433 85.0181H240.358Z" fill="black"/>
<path d="M243.165 25.1681C243.256 25.6721 243.06 26.1341 242.731 26.1901C242.402 26.2461 242.031 25.8891 241.968 25.3781C241.905 24.8671 242.073 24.4191 242.402 24.3561C242.731 24.2931 243.074 24.6641 243.165 25.1681Z" fill="#263238"/>
<path d="M237.446 26.1899C237.537 26.6939 237.341 27.1559 237.012 27.2119C236.683 27.2679 236.312 26.9109 236.249 26.4069C236.186 25.9029 236.354 25.4409 236.683 25.3779C237.012 25.3149 237.355 25.6999 237.446 26.1899Z" fill="#263238"/>
<path d="M236.838 25.385L235.557 25.252C235.557 25.252 236.355 26.085 236.838 25.385Z" fill="#263238"/>
<path d="M239.113 26.792C238.869 28.0255 238.457 29.2197 237.888 30.341C238.18 30.4769 238.499 30.5474 238.822 30.5474C239.145 30.5474 239.464 30.4769 239.757 30.341L239.113 26.792Z" fill="#DE5753"/>
<path d="M242.669 31.671C242.649 31.67 242.63 31.6636 242.614 31.6525C242.598 31.6414 242.585 31.626 242.578 31.608C242.568 31.5839 242.569 31.5571 242.58 31.5335C242.59 31.5099 242.61 31.4914 242.634 31.482C243.591 31.017 244.341 30.2105 244.734 29.221C244.738 29.2094 244.744 29.1986 244.752 29.1894C244.76 29.1803 244.77 29.1728 244.781 29.1676C244.792 29.1624 244.804 29.1594 244.817 29.159C244.829 29.1586 244.841 29.1606 244.853 29.165C244.877 29.1745 244.897 29.1926 244.908 29.2159C244.92 29.2392 244.923 29.2659 244.916 29.291C244.5 30.3369 243.701 31.1853 242.683 31.664L242.669 31.671Z" fill="#263238"/>
<path d="M243.802 22.9C243.754 22.9008 243.706 22.8833 243.669 22.851C243.383 22.5811 243.038 22.3817 242.661 22.2687C242.285 22.1557 241.887 22.1321 241.499 22.2C241.475 22.2074 241.449 22.2098 241.424 22.2071C241.399 22.2044 241.374 22.1966 241.352 22.1842C241.33 22.1718 241.31 22.155 241.295 22.1348C241.279 22.1147 241.268 22.0916 241.261 22.067C241.248 22.0178 241.255 21.9655 241.28 21.9211C241.305 21.8767 241.346 21.8436 241.394 21.829C241.845 21.7336 242.312 21.7473 242.757 21.8691C243.201 21.9909 243.61 22.2171 243.949 22.529C243.985 22.5656 244.005 22.6145 244.005 22.6655C244.005 22.7165 243.985 22.7654 243.949 22.802C243.935 22.8291 243.914 22.8521 243.888 22.8692C243.862 22.8863 243.833 22.8969 243.802 22.9Z" fill="#263238"/>
<path d="M234.325 23.915H234.255C234.207 23.8935 234.17 23.8546 234.151 23.8064C234.131 23.7583 234.131 23.7044 234.15 23.656C234.324 23.229 234.598 22.8498 234.949 22.5503C235.299 22.2507 235.717 22.0394 236.166 21.934C236.216 21.9257 236.267 21.9375 236.309 21.9671C236.35 21.9966 236.378 22.0414 236.386 22.0915C236.395 22.1416 236.383 22.193 236.353 22.2344C236.324 22.2757 236.279 22.3037 236.229 22.312C235.844 22.4086 235.488 22.5946 235.188 22.8549C234.889 23.1152 234.656 23.4424 234.507 23.81C234.49 23.843 234.463 23.8704 234.431 23.8889C234.399 23.9075 234.362 23.9166 234.325 23.915Z" fill="#263238"/>
<path d="M192.303 144.525C191.477 144.364 190.049 143.986 189.734 143.258C189.683 143.128 189.666 142.987 189.684 142.849C189.702 142.71 189.756 142.579 189.839 142.467C189.878 142.393 189.937 142.332 190.008 142.288C190.08 142.245 190.162 142.222 190.245 142.222C191.036 142.222 192.275 144.14 192.408 144.364C192.42 144.38 192.426 144.4 192.426 144.42C192.426 144.44 192.42 144.459 192.408 144.476C192.396 144.492 192.38 144.506 192.362 144.514C192.344 144.523 192.323 144.526 192.303 144.525ZM190.203 142.425C190.156 142.426 190.109 142.439 190.069 142.463C190.028 142.488 189.995 142.523 189.972 142.565C189.91 142.649 189.869 142.748 189.855 142.852C189.84 142.956 189.852 143.062 189.888 143.16C190.077 143.587 190.875 143.986 192.051 144.245C191.603 143.594 190.714 142.425 190.203 142.425Z" fill="#FFA31F"/>
<path d="M192.304 144.525C192.288 144.524 192.272 144.52 192.257 144.513C192.243 144.506 192.23 144.496 192.22 144.483C191.765 143.86 191.359 142.194 191.751 141.641C191.816 141.551 191.91 141.486 192.017 141.458C192.124 141.43 192.238 141.44 192.339 141.487C192.444 141.516 192.542 141.568 192.623 141.641C192.705 141.714 192.768 141.805 192.808 141.907C193.179 142.733 192.437 144.392 192.402 144.462C192.394 144.479 192.382 144.493 192.368 144.504C192.353 144.515 192.336 144.522 192.318 144.525H192.304ZM192.122 141.662C192.082 141.66 192.042 141.669 192.006 141.688C191.971 141.706 191.941 141.733 191.919 141.767C191.625 142.18 191.919 143.538 192.29 144.189C192.465 143.734 192.878 142.586 192.612 141.998C192.582 141.924 192.536 141.857 192.476 141.804C192.417 141.75 192.346 141.711 192.269 141.69C192.222 141.672 192.172 141.662 192.122 141.662Z" fill="#FFA31F"/>
<path d="M242.556 24.363L241.275 24.23C241.275 24.23 242.073 25.063 242.556 24.363Z" fill="#263238"/>
<path d="M259.791 83.5059L259.994 85.8159C260.085 85.9979 259.875 86.1799 259.574 86.1799H233.394C233.163 86.1799 232.967 86.0679 232.953 85.9209L232.722 83.6039C232.722 83.4429 232.911 83.3099 233.163 83.3099H259.364C259.446 83.3028 259.528 83.3171 259.603 83.3515C259.678 83.3859 259.743 83.439 259.791 83.5059Z" fill="#FFA31F"/>
<path opacity="0.2" d="M259.791 83.5059L259.994 85.8159C260.085 85.9979 259.875 86.1799 259.574 86.1799H233.394C233.163 86.1799 232.967 86.0679 232.953 85.9209L232.722 83.6039C232.722 83.4429 232.911 83.3099 233.163 83.3099H259.364C259.446 83.3028 259.528 83.3171 259.603 83.3515C259.678 83.3859 259.743 83.439 259.791 83.5059Z" fill="#FAFAFA"/>
<path d="M256.269 86.4321H256.969C257.109 86.4321 257.214 86.3621 257.207 86.2711L256.878 83.2611C256.878 83.1771 256.745 83.1001 256.605 83.1001H255.905C255.765 83.1001 255.66 83.1771 255.667 83.2611L255.996 86.2711C256.003 86.3621 256.129 86.4321 256.269 86.4321Z" fill="#FFA31F"/>
<path opacity="0.6" d="M256.269 86.4321H256.969C257.109 86.4321 257.214 86.3621 257.207 86.2711L256.878 83.2611C256.878 83.1771 256.745 83.1001 256.605 83.1001H255.905C255.765 83.1001 255.66 83.1771 255.667 83.2611L255.996 86.2711C256.003 86.3621 256.129 86.4321 256.269 86.4321Z" fill="black"/>
<path d="M235.368 86.4321H236.068C236.208 86.4321 236.32 86.3621 236.306 86.2711L235.977 83.2611C235.977 83.1771 235.844 83.1001 235.704 83.1001H235.004C234.864 83.1001 234.759 83.1771 234.766 83.2611L235.095 86.2711C235.109 86.3621 235.2 86.4321 235.368 86.4321Z" fill="#FFA31F"/>
<path opacity="0.6" d="M235.368 86.4321H236.068C236.208 86.4321 236.32 86.3621 236.306 86.2711L235.977 83.2611C235.977 83.1771 235.844 83.1001 235.704 83.1001H235.004C234.864 83.1001 234.759 83.1771 234.766 83.2611L235.095 86.2711C235.109 86.3621 235.2 86.4321 235.368 86.4321Z" fill="black"/>
<path d="M245.818 86.4321H246.518C246.658 86.4321 246.763 86.3621 246.756 86.2711L246.427 83.2611C246.427 83.1771 246.294 83.1001 246.154 83.1001H245.454C245.314 83.1001 245.209 83.1771 245.216 83.2611L245.545 86.2711C245.559 86.3621 245.699 86.4321 245.818 86.4321Z" fill="#FFA31F"/>
<path opacity="0.6" d="M245.818 86.4321H246.518C246.658 86.4321 246.763 86.3621 246.756 86.2711L246.427 83.2611C246.427 83.1771 246.294 83.1001 246.154 83.1001H245.454C245.314 83.1001 245.209 83.1771 245.216 83.2611L245.545 86.2711C245.559 86.3621 245.699 86.4321 245.818 86.4321Z" fill="black"/>
<path d="M257.9 56.416L261.239 59.258C260.539 63.038 260.049 66.188 259.741 68.988C259.118 66.181 257.529 58.6 257.9 56.416Z" fill="#FFA31F"/>
<path opacity="0.3" d="M257.9 56.416L261.239 59.258C260.539 63.038 260.049 66.188 259.741 68.988C259.118 66.181 257.529 58.6 257.9 56.416Z" fill="#FAFAFA"/>
<path d="M187.158 67.1399H232.574L239.154 93.9499H193.745L187.158 67.1399Z" fill="#FAFAFA"/>
<path d="M210.168 88.959L237.944 95.434L255.766 90.443L255.584 88.959H210.168Z" fill="#FAFAFA"/>
<path d="M185.766 67.1399H231.175L237.755 93.9499H192.346L185.766 67.1399Z" fill="#FFA31F"/>
<path opacity="0.2" d="M185.766 67.1399H231.175L237.755 93.9499H192.346L185.766 67.1399Z" fill="#FAFAFA"/>
<path d="M192.346 93.95L192.528 95.4339H237.944L237.755 93.95H192.346Z" fill="#FFA31F"/>
<path opacity="0.2" d="M192.346 93.95L192.528 95.4339H237.944L237.755 93.95H192.346Z" fill="#FAFAFA"/>
<path d="M266.427 53.4971C267.714 57.2571 268.802 61.082 269.689 64.9561C270.151 66.9021 270.536 68.8691 270.83 70.9131C270.977 71.9351 271.096 72.9781 271.159 74.0701C271.159 74.6161 271.201 75.1761 271.159 75.7641V76.2191V76.4641L271.124 76.8001C271.072 77.2351 270.978 77.664 270.844 78.0811C270.367 79.4504 269.553 80.678 268.478 81.6511C267.62 82.446 266.681 83.1497 265.678 83.7511C263.873 84.8228 261.972 85.725 260.001 86.4461C258.09 87.1461 256.165 87.7411 254.24 88.2661C252.315 88.7911 250.39 89.1971 248.381 89.5191L247.59 86.3201C249.347 85.6761 251.16 84.9971 252.896 84.2201C254.632 83.4431 256.396 82.7291 258.02 81.8821C259.625 81.0917 261.163 80.1716 262.619 79.1311C263.254 78.6766 263.84 78.1582 264.369 77.5841C264.723 77.2265 264.987 76.7898 265.139 76.3101C265.143 75.7176 265.103 75.1257 265.02 74.5391C264.915 73.6921 264.761 72.8101 264.593 71.9141C264.236 70.1291 263.774 68.3091 263.312 66.4821C262.85 64.6551 262.297 62.8281 261.751 61.0081C261.205 59.1881 260.645 57.3401 260.099 55.5621L266.427 53.4971Z" fill="#E4897B"/>
<path d="M263.984 46.3851C266.581 47.1691 270.55 57.3471 270.55 57.3471L260.491 64.5361C260.491 64.5361 255.969 55.8351 257.054 52.4891C258.188 48.9961 261.03 45.4821 263.984 46.3851Z" fill="#FFA31F"/>
<path opacity="0.6" d="M263.984 46.3851C266.581 47.1691 270.55 57.3471 270.55 57.3471L260.491 64.5361C260.491 64.5361 255.969 55.8351 257.054 52.4891C258.188 48.9961 261.03 45.4821 263.984 46.3851Z" fill="#FAFAFA"/>
<path d="M248.912 86.5511L242.899 85.0181L245.776 90.8281C245.776 90.8281 249.864 91.0031 251.215 88.7281L248.912 86.5511Z" fill="#E4897B"/>
<path d="M237.992 87.2299L240.659 91.9549L245.748 90.8279L242.871 85.0249L237.992 87.2299Z" fill="#E4897B"/>
</g>
<defs>
<clipPath id="clip0_1174_7109">
<rect width="350" height="256" fill="white"/>
</clipPath>
</defs>
</svg>
