<svg width="20" height="22" viewBox="0 0 20 22" fill="none" xmlns="http://www.w3.org/2000/svg">
<path d="M12.5313 10.8326C12.5313 12.3242 11.329 13.5333 9.84595 13.5333C8.36287 13.5333 7.1606 12.3242 7.1606 10.8326C7.1606 9.34109 8.36287 8.13196 9.84595 8.13196C11.329 8.13196 12.5313 9.34109 12.5313 10.8326Z" stroke="#FB8D00" stroke-width="1.5" stroke-linejoin="round"/>
<path d="M6.72343 2.7529C7.52672 1.84397 7.92836 1.3895 8.36189 1.14273C9.28196 0.619019 10.4099 0.619019 11.33 1.14273C11.7635 1.3895 12.1652 1.84397 12.9685 2.7529C13.223 3.04089 13.3502 3.18489 13.4912 3.30902C13.7869 3.56942 14.1311 3.76901 14.5039 3.89639C14.6817 3.95711 14.8703 3.99615 15.2474 4.07421C16.4442 4.32197 17.0426 4.44584 17.4748 4.70278C18.3723 5.23623 18.9279 6.19789 18.9417 7.24183C18.9484 7.74466 18.7546 8.33157 18.3671 9.50538C18.2415 9.88559 18.1788 10.0757 18.1422 10.2656C18.0701 10.6402 18.0701 11.0251 18.1422 11.3997C18.1788 11.5896 18.2415 11.7797 18.3671 12.1599C18.7546 13.3337 18.9484 13.9206 18.9417 14.4234C18.9279 15.4674 18.3723 16.429 17.4748 16.9625C17.0426 17.2194 16.4442 17.3433 15.2474 17.5911C14.8703 17.6691 14.6817 17.7082 14.5039 17.7689C14.1311 17.8963 13.7869 18.0958 13.4912 18.3562C13.3502 18.4804 13.223 18.6244 12.9685 18.9124C12.1652 19.8213 11.7635 20.2758 11.33 20.5225C10.4099 21.0462 9.28196 21.0462 8.36189 20.5225C7.92836 20.2758 7.52672 19.8213 6.72343 18.9124C6.46891 18.6244 6.34165 18.4804 6.20067 18.3562C5.90495 18.0958 5.56082 17.8963 5.18795 17.7689C5.0102 17.7082 4.82164 17.6691 4.44453 17.5911C3.24773 17.3433 2.64933 17.2194 2.21706 16.9625C1.3196 16.429 0.764012 15.4674 0.750167 14.4234C0.743499 13.9206 0.937276 13.3337 1.32483 12.1599C1.45036 11.7797 1.51313 11.5896 1.54968 11.3997C1.62178 11.0251 1.62178 10.6402 1.54968 10.2656C1.51313 10.0757 1.45036 9.88559 1.32483 9.50538C0.937276 8.33157 0.743499 7.74466 0.750167 7.24183C0.764012 6.1979 1.3196 5.23623 2.21706 4.70278C2.64933 4.44584 3.24773 4.32197 4.44453 4.07421C4.82164 3.99615 5.0102 3.95711 5.18795 3.89639C5.56082 3.76901 5.90495 3.56942 6.20067 3.30902C6.34165 3.18489 6.46891 3.04089 6.72343 2.7529Z" stroke="#FB8D00" stroke-width="1.5" stroke-linejoin="round"/>
</svg>
