<svg width="17" height="17" viewBox="0 0 17 17" fill="none" xmlns="http://www.w3.org/2000/svg">
<path d="M1.71045 6.23745C0.880587 3.66424 0.465658 2.37764 0.96825 1.58537C1.12553 1.33745 1.33546 1.12719 1.58314 0.96953C2.37464 0.465718 3.66188 0.878668 6.23637 1.70457L10.5165 3.07765C13.601 4.06717 15.1433 4.56193 15.5307 5.20554C15.9494 5.9013 15.9059 6.78119 15.4205 7.43224C14.9716 8.03449 13.3856 8.3752 10.2136 9.05662C9.88481 9.12724 9.72044 9.16255 9.58543 9.23992C9.42992 9.32903 9.30121 9.4583 9.21279 9.6142C9.13602 9.74955 9.10147 9.91386 9.03238 10.2425C8.37817 13.3543 8.05107 14.9102 7.47214 15.3602C6.81118 15.874 5.90018 15.9217 5.18912 15.4799C4.56631 15.0929 4.07832 13.5797 3.10233 10.5534L1.71045 6.23745Z" stroke="#FB8D00" stroke-width="1.5" stroke-linejoin="round"/>
</svg>
