<svg width="20" height="22" viewBox="0 0 20 22" fill="none" xmlns="http://www.w3.org/2000/svg">
<path fill-rule="evenodd" clip-rule="evenodd" d="M3.30655 0H16.6258C19.3079 0 20.8697 3.02973 19.3138 5.21436L14.7715 11.5923C14.3734 12.1513 14.1595 12.8204 14.1595 13.5067V17.9622C14.1595 20.1922 12.3517 22 10.1217 22C7.89169 22 6.08394 20.1922 6.08394 17.9622V13.5724C6.08394 12.8557 5.85062 12.1585 5.41927 11.5862L0.671175 5.28618C-0.967749 3.11171 0.583574 0 3.30655 0ZM16.6258 2.2H3.30655C2.39885 2.2 1.88175 3.23722 2.42806 3.96204L7.17612 10.262C7.89506 11.2158 8.28394 12.3778 8.28394 13.5724V17.9622C8.28394 18.9772 9.10672 19.8 10.1217 19.8C11.1367 19.8 11.9595 18.9772 11.9595 17.9622V13.5067C11.9595 12.363 12.316 11.2477 12.9795 10.316L17.5218 3.93812C18.0405 3.20991 17.5198 2.2 16.6258 2.2Z" fill="#091B3D" fill-opacity="0.4"/>
</svg>
