<svg width="11" height="11" viewBox="0 0 11 11" fill="none" xmlns="http://www.w3.org/2000/svg">
<path d="M8.21314 6.33425C8.09443 6.44929 8.03989 6.61566 8.06693 6.77883L8.47439 9.03383C8.50877 9.22496 8.4281 9.41837 8.26814 9.52883C8.11139 9.64342 7.90285 9.65717 7.73189 9.5655L5.70193 8.50675C5.63135 8.46916 5.55298 8.449 5.47277 8.44671H5.34856C5.30548 8.45312 5.26331 8.46687 5.22481 8.48796L3.19439 9.55175C3.09402 9.60217 2.98035 9.62004 2.86898 9.60217C2.59764 9.55083 2.4166 9.29233 2.46106 9.01962L2.86898 6.76462C2.89602 6.60008 2.84148 6.43279 2.72277 6.31591L1.06773 4.71175C0.92931 4.57746 0.881185 4.37579 0.944435 4.19383C1.00585 4.01233 1.1626 3.87987 1.35189 3.85008L3.62981 3.51962C3.80306 3.50175 3.95523 3.39633 4.03314 3.2405L5.03689 1.18258C5.06073 1.13675 5.09144 1.09458 5.12856 1.05883L5.16981 1.02675C5.19135 1.00291 5.2161 0.983206 5.2436 0.967165L5.29356 0.948831L5.37148 0.916748H5.56444C5.73677 0.934623 5.88848 1.03775 5.96777 1.19175L6.98481 3.2405C7.05814 3.39037 7.20069 3.49441 7.36523 3.51962L9.64314 3.85008C9.83564 3.87758 9.99652 4.0105 10.0602 4.19383C10.1203 4.37762 10.0685 4.57929 9.92731 4.71175L8.21314 6.33425Z" fill="#FAA224"/>
</svg>
