<svg width="11" height="12" viewBox="0 0 11 12" fill="none" xmlns="http://www.w3.org/2000/svg">
<path d="M8.21217 6.91C8.09346 7.0355 8.03892 7.217 8.06596 7.395L8.47342 9.855C8.50779 10.0635 8.42712 10.2745 8.26717 10.395C8.11042 10.52 7.90188 10.535 7.73092 10.435L5.70096 9.28C5.63037 9.239 5.552 9.217 5.47179 9.2145H5.34758C5.3045 9.2215 5.26233 9.2365 5.22383 9.2595L3.19342 10.42C3.09304 10.475 2.97938 10.4945 2.868 10.475C2.59667 10.419 2.41563 10.137 2.46008 9.8395L2.868 7.3795C2.89504 7.2 2.8405 7.0175 2.72179 6.89L1.06675 5.14C0.928334 4.9935 0.880209 4.7735 0.943459 4.575C1.00488 4.377 1.16163 4.2325 1.35092 4.2L3.62883 3.8395C3.80208 3.82 3.95425 3.705 4.03217 3.535L5.03592 1.29C5.05975 1.24 5.09046 1.194 5.12758 1.155L5.16883 1.12C5.19037 1.094 5.21513 1.0725 5.24263 1.055L5.29258 1.035L5.3705 1H5.56346C5.73579 1.0195 5.8875 1.132 5.96679 1.3L6.98383 3.535C7.05717 3.6985 7.19971 3.812 7.36425 3.8395L9.64217 4.2C9.83467 4.23 9.99554 4.375 10.0592 4.575C10.1193 4.7755 10.0675 4.9955 9.92633 5.14L8.21217 6.91Z" fill="#FAA224"/>
</svg>
