<svg width="14" height="14" viewBox="0 0 14 14" fill="none" xmlns="http://www.w3.org/2000/svg">
<path d="M12.3884 3.08495L7.13836 1.33495C7.04855 1.30502 6.95145 1.30502 6.86164 1.33495L1.61164 3.08495C1.52453 3.11399 1.44876 3.16971 1.39507 3.24421C1.34138 3.3187 1.31249 3.40821 1.3125 3.50003V7.87503C1.3125 7.99106 1.35859 8.10234 1.44064 8.18439C1.52269 8.26644 1.63397 8.31253 1.75 8.31253C1.86603 8.31253 1.97731 8.26644 2.05936 8.18439C2.14141 8.10234 2.1875 7.99106 2.1875 7.87503V4.10706L4.02445 4.71902C3.5364 5.5075 3.3812 6.45745 3.59293 7.36026C3.80467 8.26308 4.36603 9.04497 5.15375 9.53425C4.16938 9.92035 3.31844 10.6187 2.69609 11.5735C2.66373 11.6217 2.64125 11.6757 2.62996 11.7326C2.61867 11.7895 2.61879 11.848 2.63033 11.9048C2.64186 11.9616 2.66458 12.0156 2.69715 12.0636C2.72973 12.1115 2.77151 12.1525 2.82007 12.1842C2.86864 12.2159 2.92301 12.2376 2.98004 12.2481C3.03706 12.2586 3.0956 12.2576 3.15225 12.2452C3.2089 12.2329 3.26253 12.2094 3.31003 12.1762C3.35752 12.1429 3.39793 12.1005 3.42891 12.0515C4.25305 10.7871 5.55461 10.0625 7 10.0625C8.44539 10.0625 9.74695 10.7871 10.5711 12.0515C10.6353 12.1469 10.7344 12.2132 10.847 12.236C10.9597 12.2589 11.0768 12.2365 11.1731 12.1737C11.2694 12.1109 11.3371 12.0128 11.3615 11.9005C11.386 11.7881 11.3653 11.6707 11.3039 11.5735C10.6816 10.6187 9.82734 9.92035 8.84625 9.53425C9.63322 9.04499 10.194 8.26361 10.4057 7.36145C10.6174 6.4593 10.4627 5.51001 9.97555 4.72175L12.3884 3.91784C12.4755 3.88882 12.5513 3.83311 12.605 3.75862C12.6587 3.68412 12.6876 3.59461 12.6876 3.50277C12.6876 3.41093 12.6587 3.32142 12.605 3.24692C12.5513 3.17242 12.4755 3.11671 12.3884 3.08769V3.08495ZM9.625 6.56253C9.62512 6.97753 9.52684 7.38665 9.33823 7.75631C9.14962 8.12597 8.87604 8.44564 8.53996 8.68911C8.20388 8.93257 7.81486 9.09287 7.40483 9.15687C6.99479 9.22087 6.57543 9.18675 6.18114 9.05729C5.78685 8.92783 5.42887 8.70673 5.13657 8.41213C4.84428 8.11753 4.626 7.75783 4.49964 7.36254C4.37328 6.96724 4.34244 6.54762 4.40966 6.1381C4.47688 5.72858 4.64024 5.34083 4.88633 5.00667L6.86164 5.66292C6.95145 5.69286 7.04855 5.69286 7.13836 5.66292L9.11367 5.00667C9.44602 5.45731 9.62523 6.00259 9.625 6.56253ZM7 4.78902L3.13359 3.50003L7 2.21105L10.8664 3.50003L7 4.78902Z" fill="#787878"/>
</svg>
