<svg width="98" height="99" viewBox="0 0 98 99" fill="none" xmlns="http://www.w3.org/2000/svg">
<g filter="url(#filter0_d_1162_4790)">
<path fill-rule="evenodd" clip-rule="evenodd" d="M48.8084 67.6175C32.8978 67.6175 19.9997 54.7194 19.9997 38.8087C19.9997 22.8981 32.8978 10 48.8084 10C64.7191 10 77.6172 22.8981 77.6172 38.8087C77.6172 43.18 76.6436 47.3239 74.9015 51.0354C74.4895 51.9131 74.3479 52.9002 74.5671 53.8447L76.903 63.9072C77.5993 66.9067 74.7874 69.5351 71.8417 68.6384L61.8697 65.6027C60.952 65.3234 59.9685 65.3936 59.0722 65.7354C55.8839 66.9515 52.4239 67.6175 48.8084 67.6175Z" fill="#FFA31A"/>
</g>
<path fill-rule="evenodd" clip-rule="evenodd" d="M33.1035 45.8936C33.4383 49.3214 36.3605 52 39.8761 52C42.1177 52 43.9348 50.1829 43.9348 47.9413V41.1819C43.9348 38.9404 42.1177 37.1232 39.8761 37.1232C38.3428 37.1232 36.9283 37.6329 35.793 38.492V36C35.793 28.6488 41.7523 22.6895 49.1035 22.6895C56.4547 22.6895 62.414 28.6488 62.414 36V38.492C61.2788 37.6329 59.8642 37.1232 58.3309 37.1232C56.0893 37.1232 54.2722 38.9404 54.2722 41.1819V47.9413C54.2722 50.1829 56.0893 52 58.3309 52C61.8465 52 64.7687 49.3214 65.1035 45.8936V36C65.1035 27.1634 57.9401 20 49.1035 20C40.267 20 33.1035 27.1634 33.1035 36V45.8936ZM62.414 43.8959C62.414 41.6408 60.5859 39.8127 58.3309 39.8127C57.5747 39.8127 56.9617 40.4257 56.9617 41.1819V47.9413C56.9617 48.6975 57.5747 49.3105 58.3309 49.3105C60.5859 49.3105 62.414 47.4824 62.414 45.2274V43.8959ZM41.2453 41.1819C41.2453 40.4257 40.6323 39.8127 39.8761 39.8127C37.6211 39.8127 35.793 41.6408 35.793 43.8959V45.2274C35.793 47.4824 37.6211 49.3105 39.8761 49.3105C40.6323 49.3105 41.2453 48.6975 41.2453 47.9413V41.1819Z" fill="white"/>
<defs>
<filter id="filter0_d_1162_4790" x="0" y="0" width="97.6172" height="98.8167" filterUnits="userSpaceOnUse" color-interpolation-filters="sRGB">
<feFlood flood-opacity="0" result="BackgroundImageFix"/>
<feColorMatrix in="SourceAlpha" type="matrix" values="0 0 0 0 0 0 0 0 0 0 0 0 0 0 0 0 0 0 127 0" result="hardAlpha"/>
<feOffset dy="10"/>
<feGaussianBlur stdDeviation="10"/>
<feComposite in2="hardAlpha" operator="out"/>
<feColorMatrix type="matrix" values="0 0 0 0 1 0 0 0 0 0.639216 0 0 0 0 0.0980392 0 0 0 0.15 0"/>
<feBlend mode="normal" in2="BackgroundImageFix" result="effect1_dropShadow_1162_4790"/>
<feBlend mode="normal" in="SourceGraphic" in2="effect1_dropShadow_1162_4790" result="shape"/>
</filter>
</defs>
</svg>
