<svg width="26" height="26" viewBox="0 0 26 26" fill="none" xmlns="http://www.w3.org/2000/svg">
<path d="M3.41667 4.75L3.41667 15.75C3.41667 19.4997 3.41667 21.3746 4.37158 22.6889C4.67998 23.1134 5.05327 23.4867 5.47774 23.7951C6.79207 24.75 8.66693 24.75 12.4167 24.75H13.0833C16.8331 24.75 18.7079 24.75 20.0223 23.7951C20.4467 23.4867 20.82 23.1134 21.1284 22.6889C22.0833 21.3746 22.0833 19.4997 22.0833 15.75L22.0833 4.75M3.41667 4.75H0.75M3.41667 4.75L8.75 4.75M22.0833 4.75H24.75M22.0833 4.75L16.75 4.75M8.75 4.75V4.35C8.75 2.85011 8.75 2.10016 9.13197 1.57443C9.25533 1.40464 9.40464 1.25533 9.57443 1.13197C10.1002 0.75 10.8501 0.75 12.35 0.75L13.15 0.75C14.6499 0.75 15.3998 0.75 15.9256 1.13197C16.0954 1.25533 16.2447 1.40464 16.368 1.57443C16.75 2.10016 16.75 2.85011 16.75 4.35V4.75M8.75 4.75L16.75 4.75M9.41667 9.41667V18.75M16.0833 9.41667V18.75" stroke="#979EAE" stroke-width="1.5" stroke-linecap="round" stroke-linejoin="round"/>
</svg>
