<svg width="221" height="220" viewBox="0 0 221 220" fill="none" xmlns="http://www.w3.org/2000/svg">
<g opacity="0.85">
<path d="M199.992 183.814L177.618 183.709L155.244 183.669L110.5 183.599L65.7563 183.669L43.3823 183.709L21.0082 183.814L43.3823 183.924L65.7563 183.964L110.5 184.034L155.244 183.964L177.618 183.924L199.992 183.814Z" fill="#263238"/>
<path d="M149.993 84.0401C152.715 77.9593 158.625 73.9685 164.305 75.4821C176.49 78.7249 174.833 97.0641 183.585 108.922C194.157 123.248 194.285 135.291 185.083 137.038C174.776 138.992 165.144 127.987 166.24 104.94C166.926 90.5257 163.871 85.4216 159.951 84.3128C157.069 83.4988 153.851 86.9528 153.851 86.9528L149.993 84.0401Z" fill="#263238"/>
<path d="M166.413 96.9629C166.47 99.2553 166.267 101.543 166.148 103.827C166.028 106.11 165.856 108.385 165.785 110.66C165.701 112.931 165.732 115.204 165.878 117.471C166.002 119.726 166.356 121.963 166.935 124.146C167.476 126.324 168.433 128.378 169.754 130.196C171.161 131.985 172.867 133.518 174.798 134.728C176.746 135.961 178.952 136.732 181.246 136.981C182.402 137.108 183.57 137.087 184.721 136.919C185.298 136.838 185.868 136.715 186.427 136.55C186.993 136.407 187.537 136.185 188.04 135.89C187.053 136.543 185.943 136.992 184.778 137.21C183.607 137.459 182.408 137.56 181.211 137.509C180.012 137.444 178.825 137.236 177.675 136.888C176.523 136.531 175.416 136.045 174.373 135.441C173.334 134.844 172.355 134.15 171.447 133.368L170.784 132.77L170.143 132.15C169.714 131.728 169.314 131.278 168.946 130.803C167.525 128.895 166.49 126.729 165.9 124.428C164.698 119.882 164.667 115.188 164.959 110.634C165.105 108.341 165.357 106.062 165.635 103.787C165.914 101.512 166.227 99.2421 166.413 96.9629Z" fill="#263238"/>
<path d="M152.662 80.52C153.626 79.2521 154.747 78.1107 155.999 77.1232C157.236 76.1697 158.675 75.5086 160.207 75.19C161.738 74.8713 163.322 74.9035 164.839 75.284C165.597 75.4791 166.337 75.7397 167.049 76.0628C167.754 76.3704 168.427 76.7478 169.056 77.1892C170.274 78.1221 171.321 79.2579 172.15 80.5464C172.979 81.8666 173.668 83.2689 174.205 84.7308C175.341 87.6612 176.128 90.7588 177.047 93.8256C177.923 96.9305 179.037 99.9637 180.38 102.898C181.838 105.774 183.518 108.532 185.406 111.148C187.227 113.788 189.118 116.354 190.564 119.17C191.324 120.558 191.904 122.036 192.292 123.57L192.548 124.727C192.601 125.118 192.628 125.514 192.668 125.906L192.712 126.478V127.076L192.685 128.269C193.211 125.101 192.495 121.788 191.116 118.879C189.737 115.971 187.929 113.282 186.21 110.594C184.491 107.906 182.776 105.23 181.454 102.37C180.169 99.4784 179.099 96.4959 178.254 93.4472C177.317 90.4068 176.526 87.2872 175.31 84.282C174.718 82.755 173.967 81.2936 173.069 79.9216C172.139 78.5424 170.958 77.3485 169.586 76.4016C168.891 75.9465 168.15 75.5631 167.376 75.2576C166.614 74.9386 165.824 74.6897 165.016 74.514C163.401 74.1477 161.721 74.1697 160.116 74.5783C158.511 74.9869 157.027 75.7703 155.787 76.8636C154.576 77.9282 153.524 79.1594 152.662 80.52Z" fill="#263238"/>
<path d="M147.628 85.1708C147.628 84.0136 148.512 82.5308 149.25 82.3592C149.988 82.1876 155.522 84.6824 155.964 86.1168C156.406 87.5512 153.904 88.7568 153.904 88.7568L147.628 85.1708Z" fill="#FFC727"/>
<path d="M153.1 130.847C149.9 149.921 145.113 165.145 140.048 169.079C135.959 172.256 130.058 174.728 123.937 176.62C117.385 178.56 110.713 180.068 103.963 181.135C101.885 181.478 100.153 181.724 98.924 181.914C95.883 182.354 89.2309 162.664 91.1978 160.037C91.6398 159.434 93.6288 158.84 96.4267 158.25C105.846 156.292 125.563 154.757 126.593 153.604C127.623 152.451 137.139 138.547 144.79 127.846C150.147 120.358 154.872 120.27 153.1 130.847Z" fill="#F7A9A0"/>
<path d="M104.891 179.388C104.524 179.595 99.3172 182.367 96.0729 183.458C93.6508 184.276 86.6141 186.441 85.4649 183.876C84.6649 182.116 88.6518 180.356 91.4452 179.062C92.9127 178.376 94.6895 176.73 94.2077 175.793C93.3591 174.152 89.5756 176.004 87.1048 177.584C82.3267 180.637 76.0194 186.036 72.9121 183.691C71.7408 182.811 72.9784 181.051 74.8304 179.291C71.7939 181.377 68.5363 183.123 67.1927 182.191C66.4236 181.658 66.3529 180.871 66.7286 179.991C65.7783 180.347 64.9252 180.325 64.302 179.722C63.2412 178.71 63.6655 177.131 64.7042 175.481C64.5124 175.468 64.3264 175.41 64.1613 175.312C63.9961 175.215 63.8565 175.079 63.7539 174.917C61.4599 171.754 71.7983 161.911 75.4802 160.868C86.3092 157.788 97.9956 158.228 97.9956 158.228C102.429 161.44 104.9 179.379 104.891 179.388Z" fill="#F7A9A0"/>
<path d="M88.3469 169.941C85.752 170.443 83.3008 171.51 81.1688 173.065C78.6936 174.922 76.7709 177.399 74.499 179.476C74.4372 179.533 74.53 179.626 74.5919 179.568C75.6527 178.499 76.8328 177.531 77.9422 176.488C79.0517 175.446 80.0771 174.442 81.2263 173.514C83.3018 171.81 85.74 170.599 88.3558 169.972C88.4 169.981 88.3734 169.937 88.3469 169.941Z" fill="#263238"/>
<path d="M86.0972 165.409C83.2595 166.32 80.3512 167.244 77.7345 168.714C74.8792 170.324 72.7002 172.845 70.5565 175.27C69.2717 176.736 68.0179 178.221 66.795 179.722C66.742 179.784 66.8304 179.876 66.8834 179.815C69.0581 177.31 71.3064 174.872 73.6284 172.502C75.7652 170.293 78.3186 168.526 81.1424 167.301C82.7601 166.602 84.4264 166.03 86.0928 165.462C86.0962 165.462 86.0997 165.462 86.1031 165.461C86.1064 165.46 86.1095 165.458 86.1122 165.456C86.1148 165.454 86.117 165.451 86.1186 165.448C86.1202 165.445 86.1212 165.441 86.1215 165.438C86.1218 165.434 86.1214 165.431 86.1203 165.428C86.1193 165.424 86.1175 165.421 86.1153 165.418C86.113 165.416 86.1103 165.414 86.1072 165.412C86.1041 165.41 86.1007 165.409 86.0972 165.409Z" fill="#263238"/>
<path d="M82.844 161.502C80.077 162.197 77.6593 162.796 75.2504 164.393C72.0636 166.514 69.0624 169.976 67.9928 171.208C66.8259 172.564 65.7032 173.958 64.6026 175.366C64.5584 175.424 64.6601 175.503 64.7043 175.446C67.2276 172.347 69.9502 169.415 72.8548 166.668C74.2178 165.335 75.7805 164.222 77.4869 163.368C79.2194 162.602 81.0146 161.985 82.8528 161.524C82.8528 161.524 82.8572 161.502 82.844 161.502Z" fill="#263238"/>
<path d="M150.054 150.819L133.391 141.038C133.391 141.038 140.503 129.598 146.58 124.199C152.658 118.8 155.111 123.037 154.187 130.882C153.263 138.728 150.054 150.819 150.054 150.819Z" fill="#FFC727"/>
<path d="M144.587 145.842C144.691 146.503 144.891 147.144 145.179 147.748C145.228 147.844 145.272 147.946 145.321 148.042L146.006 148.443C145.904 148.135 145.78 147.831 145.648 147.532C145.377 146.921 145.02 146.352 144.587 145.842ZM151.372 137.1C151.977 136.811 152.622 136.612 153.285 136.51C152.247 137.364 151.002 137.933 149.674 138.16C150.187 137.729 150.759 137.372 151.372 137.1ZM145.656 127.42C145.432 128.048 145.118 128.641 144.724 129.18C144.85 127.844 145.327 126.565 146.107 125.47C146.05 126.141 145.898 126.8 145.656 127.428V127.42ZM137.997 135.296C138.551 135.37 139.095 135.506 139.619 135.7C140.25 135.926 140.845 136.24 141.387 136.633C140.716 136.58 140.057 136.432 139.429 136.193C138.907 136.004 138.408 135.759 137.939 135.463C137.953 135.408 137.972 135.355 137.997 135.304V135.296Z" fill="white"/>
<path d="M136.016 138.552C138.668 139.911 145.816 143.832 150.099 146.987C150.125 146.987 150.059 147.114 150.032 147.101C146.054 145.029 138.456 140.312 135.919 138.719C135.871 138.688 135.963 138.525 136.016 138.552Z" fill="#263238"/>
<path d="M134.761 141.847L150.05 150.819C150.05 150.819 153.263 138.732 154.187 130.882C154.779 125.818 153.971 122.258 151.685 121.823L134.761 141.847Z" fill="#263238"/>
<path d="M133.957 183.801H189.048C189.048 183.801 177.083 137.799 166.006 124.841C165.759 124.542 165.503 124.265 165.246 124.001C165.193 123.939 165.149 123.895 165.096 123.842C164.239 122.93 163.241 122.161 162.139 121.563C161.944 121.458 161.75 121.361 161.547 121.273C157.281 119.319 152.777 120.938 149.524 123.71C148.494 124.59 136.817 139.713 135.782 145.477C134.898 150.568 138.346 156.037 138.346 156.037L133.957 183.801Z" fill="#FFC727"/>
<path d="M158.298 127.688C158.404 128.35 158.605 128.993 158.894 129.598C159.165 130.21 159.524 130.779 159.96 131.287C159.854 130.627 159.653 129.985 159.363 129.382C159.091 128.769 158.732 128.199 158.298 127.688ZM166.59 153.437C166.876 154.041 167.075 154.682 167.182 155.342C166.324 154.308 165.752 153.069 165.524 151.747C165.957 152.258 166.316 152.827 166.59 153.437ZM173.396 180.308C173.687 180.912 173.887 181.555 173.989 182.217C173.136 181.178 172.565 179.939 172.331 178.618C172.764 179.129 173.123 179.697 173.396 180.308ZM145.648 147.532C145.937 148.137 146.138 148.78 146.244 149.442C145.807 148.932 145.448 148.362 145.179 147.748C144.891 147.144 144.691 146.502 144.587 145.842C145.02 146.352 145.377 146.921 145.648 147.532ZM136.918 165.088C137.2 165.685 137.397 166.319 137.502 166.971C137.227 166.656 136.986 166.314 136.781 165.95L136.918 165.088ZM157.9 177.571C158.186 178.177 158.386 178.819 158.492 179.48C158.055 178.971 157.696 178.4 157.427 177.786C157.141 177.182 156.941 176.541 156.835 175.881C157.268 176.392 157.626 176.961 157.9 177.571ZM151.372 137.091C151.977 136.802 152.622 136.603 153.285 136.501C152.247 137.356 151.002 137.924 149.674 138.151C150.188 137.723 150.759 137.369 151.372 137.1V137.091ZM147.729 158.928C148.336 158.643 148.981 158.444 149.643 158.338C149.132 158.771 148.56 159.128 147.946 159.399C147.339 159.684 146.695 159.882 146.032 159.988C146.546 159.56 147.117 159.206 147.729 158.937V158.928ZM146.403 182.807C147.012 182.522 147.658 182.323 148.322 182.217C147.281 183.07 146.035 183.639 144.706 183.867C145.22 183.439 145.791 183.085 146.403 182.816V182.807ZM173.052 162.708C173.66 162.423 174.306 162.224 174.97 162.118C174.457 162.552 173.884 162.909 173.268 163.178C172.661 163.463 172.017 163.662 171.354 163.768C171.868 163.34 172.439 162.986 173.052 162.716V162.708ZM137.228 151.945C137.193 152.393 137.108 152.836 136.976 153.265C136.9 153.08 136.821 152.887 136.746 152.689C136.887 152.432 137.048 152.186 137.228 151.954V151.945ZM138.297 177.421C138.071 178.049 137.757 178.641 137.365 179.181C137.417 178.515 137.566 177.86 137.807 177.236C138.034 176.609 138.349 176.016 138.744 175.476C138.687 176.145 138.537 176.803 138.297 177.43V177.421ZM166.846 140.501C166.622 141.129 166.308 141.722 165.913 142.261C165.967 141.595 166.116 140.94 166.355 140.316C166.585 139.689 166.9 139.097 167.292 138.556C167.239 139.225 167.089 139.883 166.846 140.51V140.501ZM158.099 163.073C157.873 163.7 157.559 164.293 157.166 164.833C157.217 164.166 157.366 163.511 157.608 162.888C157.832 162.26 158.146 161.667 158.541 161.128C158.488 161.797 158.339 162.455 158.099 163.082V163.073ZM181.856 172.282C181.631 172.91 181.317 173.502 180.924 174.042C180.977 173.375 181.126 172.718 181.366 172.093C181.595 171.466 181.91 170.874 182.303 170.333C182.249 171.001 182.098 171.657 181.856 172.282ZM147.928 171.27C147.297 171.044 146.702 170.73 146.16 170.337C146.83 170.388 147.488 170.536 148.114 170.777C148.745 171 149.341 171.313 149.882 171.706C149.213 171.653 148.556 171.507 147.928 171.27ZM179.863 153.877C179.934 154.084 180.009 154.286 180.079 154.493L179.792 154.396C179.16 154.173 178.564 153.859 178.024 153.463C178.653 153.515 179.272 153.654 179.863 153.877ZM140.454 136.07C140.785 136.231 141.101 136.422 141.396 136.642C140.997 136.618 140.603 136.55 140.22 136.44C140.299 136.316 140.379 136.193 140.454 136.07ZM166.563 171.27C165.933 171.042 165.338 170.728 164.795 170.337C165.464 170.388 166.123 170.536 166.749 170.777C167.379 171.002 167.975 171.314 168.517 171.706C167.848 171.653 167.19 171.507 166.563 171.27ZM187.576 181.188C187.872 181.302 188.164 181.421 188.46 181.562C188.501 181.72 188.541 181.867 188.579 182.002C188.181 181.915 187.79 181.802 187.408 181.663C186.777 181.438 186.182 181.126 185.64 180.734C186.304 180.793 186.955 180.945 187.576 181.188ZM157.52 146.775C156.89 146.547 156.295 146.233 155.752 145.842C156.421 145.893 157.079 146.041 157.705 146.282C158.336 146.507 158.931 146.82 159.473 147.211C158.807 147.156 158.15 147.01 157.524 146.775H157.52Z" fill="white"/>
<path d="M146.611 154.075C148.959 154.303 151.286 154.704 153.573 155.276C154.704 155.575 155.814 155.923 156.923 156.297C157.476 156.486 158.033 156.653 158.594 156.816C159.174 157.007 159.775 157.126 160.384 157.168C160.393 157.171 160.401 157.177 160.406 157.184C160.412 157.192 160.415 157.201 160.415 157.21C160.415 157.219 160.412 157.228 160.406 157.236C160.401 157.243 160.393 157.249 160.384 157.252C159.808 157.277 159.23 157.262 158.656 157.208C158.1 157.134 157.549 157.026 157.007 156.882C155.858 156.592 154.722 156.244 153.573 155.94C151.252 155.324 148.936 154.713 146.58 154.264C146.474 154.246 146.501 154.062 146.611 154.075Z" fill="#263238"/>
<path d="M140.795 156.09C142.729 155.907 144.673 155.832 146.616 155.866C147.592 155.866 148.556 155.962 149.524 156.064C149.966 156.112 150.448 156.169 150.907 156.231C151.367 156.292 151.911 156.433 152.419 156.495C152.472 156.495 152.468 156.587 152.419 156.578C151.942 156.534 151.451 156.578 150.969 156.556L149.515 156.504C148.547 156.473 147.579 156.451 146.607 156.411C144.666 156.328 142.735 156.266 140.795 156.253C140.684 156.248 140.693 156.103 140.795 156.09Z" fill="#263238"/>
<path d="M167.385 125.629C176.124 134.944 195.673 168.414 188.95 174.86C182.228 181.306 139.977 181.43 132.45 181.43C129.024 181.43 136.043 158.99 139.716 158.55C142.775 158.176 165.012 157.458 165.463 156.561C165.975 155.549 163.071 147.382 160.503 133.588C157.75 118.8 163.54 121.515 167.385 125.629Z" fill="#F7A9A0"/>
<path d="M127.526 153.93C119.932 152.874 117.802 153.767 111.883 149.49C107.989 146.683 104.52 147.954 106.738 152.412C110.376 159.707 119.888 163.112 123.534 163.35L127.526 153.93Z" fill="#F7A9A0"/>
<path d="M147.699 161.207C147.699 161.207 139.164 156.49 131.186 154.567C125.665 153.247 112.759 151.157 101.536 163.807C98.0002 167.794 97.8102 173.43 103.234 170.064C107.446 167.451 109.713 164.841 112.542 164.054C112.542 164.054 110.991 172.066 113.992 174.746C116.615 177.087 119.402 179.24 122.332 181.187C122.815 180.735 123.267 180.252 123.685 179.74C123.685 179.74 126.726 181.979 132.45 181.438L147.699 161.207Z" fill="#F7A9A0"/>
<path d="M125.713 154.141C123.061 155.509 117.532 158.506 113.85 162.527C109.766 166.993 103.105 176.695 106.447 179.665C108.9 181.839 111.751 178.345 111.751 178.345C111.751 178.345 109.846 182.934 112.493 184.417C114.907 185.768 116.962 182.943 116.962 182.943C116.962 182.943 116.29 185.926 118.862 186.784C121.956 187.814 122.867 181.399 126.911 179.744C127.835 179.384 125.713 154.141 125.713 154.141Z" fill="#F7A9A0"/>
<path d="M119.437 166.1C117.165 167.794 113.002 172.955 111.852 178.301C111.826 178.424 111.901 178.508 111.95 178.402C113.946 174.027 116.469 169.909 119.464 166.14C119.499 166.113 119.459 166.078 119.437 166.1Z" fill="#263238"/>
<path d="M123.72 170.28C121.917 171.943 117.864 177.452 116.882 182.912C116.86 183.031 116.944 183.11 116.988 183.005C118.755 178.531 121.026 174.273 123.76 170.311C123.786 170.28 123.76 170.253 123.72 170.28Z" fill="#263238"/>
<path d="M130.77 181.513C129.87 181.502 128.973 181.432 128.083 181.302C127.192 181.198 126.321 180.96 125.501 180.598H125.479C124.603 181.396 123.811 182.281 123.115 183.238C122.764 183.719 122.445 184.221 122.16 184.743C121.892 185.261 121.54 185.731 121.117 186.133C120.698 186.529 120.154 186.767 119.579 186.807C119.004 186.814 118.449 186.597 118.032 186.204C117.628 185.798 117.354 185.282 117.245 184.721C117.12 184.156 117.078 183.577 117.121 183.001L117.148 182.622L116.909 182.917C116.334 183.685 115.534 184.257 114.619 184.554C114.163 184.675 113.683 184.675 113.227 184.554C112.772 184.439 112.359 184.2 112.034 183.863C111.415 183.159 111.313 182.129 111.375 181.188C111.45 180.225 111.654 179.277 111.981 178.367L112.241 177.615L111.733 178.231C111.128 179.001 110.337 179.606 109.435 179.991C108.99 180.171 108.507 180.239 108.029 180.189C107.557 180.124 107.109 179.943 106.725 179.661C106.353 179.369 106.079 178.972 105.938 178.521C105.8 178.059 105.744 177.577 105.77 177.096C105.833 176.114 106.043 175.147 106.394 174.227C107.105 172.369 108.026 170.598 109.138 168.947C110.235 167.281 111.428 165.68 112.71 164.151L113.108 163.68L112.493 163.865C111.802 164.094 111.139 164.396 110.513 164.767C109.894 165.122 109.292 165.503 108.705 165.911C107.53 166.716 106.438 167.631 105.306 168.463C104.208 169.33 103.012 170.068 101.744 170.663C101.125 170.909 100.418 171.103 99.8786 170.786C99.3393 170.469 99.1758 169.774 99.22 169.114C99.2691 168.433 99.4288 167.764 99.6929 167.134C99.9738 166.502 100.317 165.899 100.718 165.335C101.535 164.194 102.455 163.131 103.468 162.158C104.476 161.176 105.54 160.254 106.654 159.395C107.762 158.527 108.93 157.741 110.151 157.041L110.345 156.931L110.186 156.772C108.897 155.543 107.804 154.124 106.946 152.566C106.521 151.799 106.291 150.942 106.274 150.067C106.274 149.642 106.385 149.225 106.597 148.857C106.704 148.68 106.845 148.526 107.012 148.403C107.178 148.281 107.368 148.193 107.569 148.144C108.433 148.015 109.315 148.183 110.071 148.619C110.868 149.019 111.644 149.459 112.396 149.939C113.894 150.898 115.362 152.02 117.121 152.579C117.989 152.829 118.876 153.007 119.773 153.111C120.657 153.235 121.563 153.34 122.456 153.45C124.224 153.666 126.027 153.89 127.804 154.181C131.368 154.7 134.867 155.597 138.24 156.856C134.879 155.554 131.388 154.613 127.826 154.049C126.058 153.741 124.268 153.49 122.482 153.252L119.83 152.887C118.941 152.784 118.063 152.605 117.205 152.35C115.499 151.813 114.062 150.705 112.551 149.71C111.79 149.222 111.017 148.76 110.208 148.346C109.389 147.871 108.43 147.692 107.494 147.84C107.016 147.959 106.604 148.259 106.345 148.676C106.105 149.088 105.979 149.555 105.978 150.031C105.987 150.955 106.225 151.862 106.672 152.671C107.537 154.267 108.644 155.721 109.956 156.979L109.987 156.715C108.754 157.418 107.572 158.207 106.451 159.078C105.322 159.943 104.243 160.871 103.22 161.859C102.185 162.842 101.244 163.918 100.409 165.075C99.9898 165.66 99.63 166.285 99.3349 166.941C99.05 167.614 98.8768 168.328 98.8222 169.057C98.7927 169.437 98.8362 169.819 98.9504 170.183C99.0715 170.571 99.3309 170.901 99.6797 171.112C100.032 171.307 100.44 171.378 100.838 171.314C101.208 171.267 101.571 171.171 101.916 171.028C103.224 170.434 104.455 169.684 105.58 168.793C106.725 167.939 107.79 167.033 108.957 166.232C109.532 165.832 110.124 165.449 110.725 165.101C111.314 164.74 111.941 164.445 112.595 164.221L112.396 163.905C111.112 165.449 109.918 167.065 108.82 168.745C107.7 170.422 106.776 172.222 106.067 174.108C105.708 175.061 105.495 176.062 105.435 177.078C105.41 177.597 105.474 178.116 105.625 178.614C105.782 179.122 106.09 179.572 106.509 179.903C106.937 180.218 107.439 180.42 107.967 180.488C108.493 180.54 109.024 180.464 109.514 180.268C110.465 179.859 111.297 179.217 111.932 178.403L111.684 178.266C111.354 179.202 111.149 180.177 111.074 181.166C111.038 181.666 111.068 182.169 111.163 182.662C111.256 183.167 111.481 183.64 111.817 184.03C112.18 184.397 112.635 184.66 113.135 184.791C113.635 184.923 114.161 184.918 114.659 184.778C115.624 184.462 116.467 183.856 117.072 183.045L116.86 182.961C116.819 183.564 116.866 184.171 117.002 184.761C117.124 185.368 117.433 185.923 117.886 186.349C118.344 186.771 118.95 186.997 119.574 186.978C120.192 186.931 120.774 186.669 121.218 186.239C121.648 185.819 122.005 185.331 122.275 184.796C122.551 184.277 122.86 183.776 123.198 183.295C123.879 182.331 124.655 181.438 125.515 180.629H125.479C126.31 180.983 127.189 181.212 128.087 181.307C128.976 181.432 129.872 181.501 130.77 181.513Z" fill="#263238"/>
<path d="M181.083 141.935L162.886 148.46C162.886 148.46 158.581 135.7 158.285 127.604C157.989 119.508 162.824 120.327 168.305 126.042C173.786 131.758 181.083 141.935 181.083 141.935Z" fill="#FFC727"/>
<path d="M158.298 127.688C158.404 128.35 158.605 128.993 158.895 129.598C159.165 130.21 159.524 130.779 159.96 131.287C159.854 130.627 159.653 129.985 159.363 129.382C159.091 128.769 158.732 128.199 158.298 127.688ZM178.303 142.934L177.821 143.106C177.554 142.537 177.37 141.934 177.273 141.315C177.694 141.802 178.041 142.347 178.303 142.934ZM166.846 140.51C166.622 141.138 166.308 141.731 165.913 142.27C165.967 141.604 166.116 140.949 166.355 140.325C166.585 139.698 166.9 139.106 167.293 138.565C167.238 139.231 167.088 139.886 166.846 140.51ZM172.309 131.441C172.704 131.589 173.088 131.763 173.458 131.965L173.755 132.334C173.197 132.258 172.65 132.119 172.124 131.921C171.491 131.698 170.896 131.384 170.356 130.988C171.025 131.046 171.683 131.198 172.309 131.441Z" fill="white"/>
<path d="M162.656 144.861C165.41 143.682 172.981 140.712 178.166 139.454C178.197 139.454 178.241 139.564 178.214 139.577C174.073 141.302 165.573 144.118 162.744 145.042C162.656 145.059 162.585 144.883 162.656 144.861Z" fill="#263238"/>
<path d="M159.12 137.997C159.12 137.971 159.151 137.958 159.164 137.997C159.491 138.622 159.783 139.256 160.048 139.902C159.73 138.486 159.446 137.066 159.195 135.643C159.195 135.633 159.199 135.623 159.207 135.615C159.214 135.608 159.224 135.604 159.235 135.604C159.245 135.604 159.256 135.608 159.263 135.615C159.27 135.623 159.275 135.633 159.275 135.643C160.495 139.819 161.821 143.977 162.952 148.179C163.416 148.157 163.885 148.126 164.344 148.064C164.359 148.063 164.374 148.068 164.385 148.077C164.397 148.085 164.405 148.098 164.409 148.112C164.412 148.127 164.41 148.142 164.403 148.155C164.396 148.168 164.385 148.178 164.371 148.183C163.867 148.306 163.372 148.465 162.881 148.623C162.826 148.649 162.762 148.653 162.703 148.633C162.645 148.614 162.596 148.572 162.568 148.518C161.682 146.13 160.944 143.691 160.358 141.214C160.168 140.835 159.982 140.457 159.818 140.065C159.533 139.394 159.3 138.703 159.12 137.997Z" fill="#263238"/>
<path d="M158.117 122.32C158.028 123.301 154.364 130.108 149.979 130.526C148.552 130.662 147.469 122.932 147.469 122.932L147.257 122.377L144.313 114.642L152.874 107.272L154.121 106.282C154.121 106.282 154.788 108.451 155.588 111.162C155.628 111.285 155.668 111.412 155.703 111.544C155.739 111.676 155.805 111.844 155.84 111.984C155.968 112.389 156.092 112.803 156.212 113.216C156.3 113.529 156.388 113.832 156.472 114.167C156.556 114.501 156.645 114.822 156.738 115.157C157.568 118.448 158.143 121.88 158.117 122.32Z" fill="#F7A9A0"/>
<path d="M155.584 111.157C155.097 113.517 154.1 115.743 152.661 117.68C151.222 119.617 149.376 121.218 147.252 122.373L144.309 114.638L152.87 107.268L154.117 106.278C154.117 106.278 154.788 108.447 155.584 111.157Z" fill="#263238"/>
<path d="M131.543 103.426C132.295 117.946 141.104 119.117 144.242 118.95C147.093 118.8 156.782 117.933 157.542 103.431C158.302 88.9284 151.288 84.6956 144.75 84.6956C138.213 84.6956 130.792 88.9284 131.543 103.426Z" fill="#F7A9A0"/>
<path d="M133.484 100.817C133.811 100.743 134.135 100.65 134.452 100.54C134.806 100.489 135.134 100.324 135.384 100.069C135.447 99.9737 135.476 99.8607 135.468 99.7471C135.46 99.6336 135.415 99.5257 135.34 99.4399C135.163 99.295 134.95 99.1995 134.723 99.1632C134.496 99.1268 134.264 99.151 134.05 99.2331C133.592 99.3367 133.189 99.6046 132.918 99.9855C132.86 100.075 132.829 100.18 132.83 100.288C132.831 100.395 132.864 100.499 132.925 100.588C132.985 100.676 133.07 100.745 133.17 100.786C133.269 100.827 133.378 100.838 133.484 100.817Z" fill="#263238"/>
<path d="M142.766 100.201C142.426 100.201 142.107 100.113 141.771 100.065C141.412 100.067 141.063 99.9513 140.777 99.7347C140.7 99.6496 140.655 99.5416 140.647 99.4277C140.639 99.3138 140.669 99.2005 140.733 99.1055C140.886 98.9357 141.082 98.8098 141.3 98.741C141.518 98.6721 141.751 98.6628 141.975 98.7139C142.443 98.749 142.882 98.9541 143.208 99.2903C143.277 99.3722 143.321 99.4721 143.334 99.5782C143.347 99.6843 143.33 99.7919 143.283 99.8881C143.236 99.9844 143.163 100.065 143.071 100.121C142.979 100.176 142.873 100.204 142.766 100.201Z" fill="#263238"/>
<path d="M141.303 103.787C141.303 103.748 141.387 103.831 141.387 103.871C141.387 104.861 141.59 105.987 142.505 106.273C142.536 106.273 142.536 106.33 142.505 106.326C141.4 106.229 141.161 104.72 141.303 103.787Z" fill="#263238"/>
<path d="M142.138 102.714C143.73 102.511 144.012 105.688 142.541 105.877C141.069 106.066 140.808 102.881 142.138 102.714Z" fill="#263238"/>
<path d="M142.766 102.824C143.062 102.978 143.363 103.264 143.703 103.264C144.043 103.264 144.362 102.907 144.587 102.564C144.587 102.529 144.64 102.564 144.644 102.595C144.706 103.202 144.53 103.849 143.88 103.998C143.23 104.148 142.81 103.633 142.602 103.035C142.576 102.96 142.66 102.762 142.766 102.824Z" fill="#263238"/>
<path d="M135.88 104.06C135.88 104.025 135.809 104.113 135.813 104.157C135.941 105.134 135.924 106.282 135.057 106.696C135.031 106.696 135.057 106.757 135.057 106.749C136.136 106.48 136.136 104.971 135.88 104.06Z" fill="#263238"/>
<path d="M134.898 103.118C133.298 103.154 133.484 106.339 134.965 106.308C136.445 106.278 136.242 103.092 134.898 103.118Z" fill="#263238"/>
<path d="M134.244 103.365C134.001 103.55 133.767 103.871 133.466 103.911C133.166 103.95 132.839 103.625 132.582 103.303C132.556 103.273 132.534 103.303 132.534 103.343C132.556 103.95 132.794 104.575 133.387 104.663C133.979 104.751 134.293 104.192 134.403 103.576C134.439 103.457 134.341 103.295 134.244 103.365Z" fill="#263238"/>
<path d="M142.041 111.377C141.838 111.637 141.643 111.984 141.29 112.064C140.924 112.105 140.553 112.069 140.202 111.958C140.195 111.954 140.186 111.953 140.178 111.956C140.17 111.958 140.163 111.963 140.158 111.97C140.153 111.976 140.151 111.985 140.152 111.993C140.152 112.002 140.156 112.009 140.162 112.015C140.329 112.19 140.541 112.316 140.775 112.38C141.009 112.444 141.255 112.442 141.488 112.376C141.682 112.298 141.849 112.164 141.966 111.992C142.083 111.819 142.146 111.616 142.147 111.408C142.151 111.346 142.072 111.32 142.041 111.377Z" fill="#263238"/>
<path d="M137.82 108.609C137.82 108.609 137.731 110.097 137.784 110.809C137.784 110.871 140.375 111.197 141.351 109.401C141.363 109.387 141.369 109.368 141.367 109.35C141.364 109.331 141.355 109.314 141.34 109.302C141.326 109.291 141.307 109.285 141.288 109.287C141.27 109.29 141.253 109.299 141.241 109.313C140.398 109.987 139.36 110.373 138.28 110.413C138.218 110.224 138.518 107.87 138.408 107.87C137.87 107.959 137.346 108.12 136.852 108.35C136.949 105.243 137.541 102.19 137.59 99.0879C137.588 99.0666 137.579 99.0465 137.564 99.0307C137.55 99.015 137.53 99.0046 137.509 99.0011C137.488 98.9976 137.466 99.0011 137.447 99.0113C137.428 99.0214 137.413 99.0375 137.404 99.0571C136.556 102.225 136.366 105.793 136.184 108.997C136.136 109.379 137.55 108.746 137.82 108.609Z" fill="#263238"/>
<path d="M157.378 103.118C156.379 102.906 155.451 102.438 154.687 101.762C153.923 101.086 153.349 100.223 153.02 99.2596C140.538 98.956 136.41 91.2472 136.41 91.2472C134.014 97.7372 131.875 98.8504 131.526 99.8272C131.526 99.8272 130.487 94.1996 132.375 89.9096C134.045 86.1124 138.333 82.0468 145.078 82.9092C148.901 83.3976 152.119 86.6932 152.119 86.6932C152.119 86.6932 156.251 87.1332 157.944 90.442C160.782 96.0036 157.378 103.118 157.378 103.118Z" fill="#263238"/>
<path d="M136.22 90.7544C136.674 92.3727 137.528 93.852 138.704 95.0576C139.88 96.2702 141.282 97.2431 142.832 97.922L144.017 98.362C144.419 98.4984 144.83 98.582 145.237 98.692C146.05 98.9041 146.879 99.0512 147.716 99.132C148.552 99.2068 149.391 99.1936 150.227 99.2244C151.058 99.1496 151.889 99.0924 152.715 99.0044C151.88 98.978 151.053 99.0044 150.227 98.978C149.405 98.8944 148.578 98.8636 147.765 98.7492C146.138 98.5341 144.547 98.102 143.036 97.4644C141.531 96.8279 140.157 95.921 138.982 94.7892C137.786 93.6536 136.844 92.2785 136.22 90.7544Z" fill="#263238"/>
<path d="M144.56 108.557C145.409 108.377 146.189 107.965 146.814 107.365C147.438 106.766 147.88 106.004 148.091 105.167C148.302 104.329 148.272 103.45 148.006 102.628C147.739 101.807 147.246 101.076 146.583 100.52C145.92 99.9638 145.113 99.604 144.254 99.4816C143.396 99.3593 142.52 99.4792 141.727 99.8279C140.934 100.177 140.254 100.74 139.767 101.454C139.279 102.168 139.003 103.004 138.969 103.866C138.923 105.088 139.364 106.278 140.198 107.175C141.032 108.073 142.189 108.604 143.416 108.654C143.8 108.666 144.184 108.634 144.56 108.557ZM142.766 100.14C143.093 100.072 143.427 100.044 143.76 100.056C144.778 100.097 145.742 100.523 146.456 101.247C147.169 101.971 147.579 102.938 147.601 103.952C147.623 104.966 147.256 105.95 146.575 106.705C145.894 107.459 144.95 107.926 143.935 108.011C142.919 108.097 141.91 107.794 141.111 107.164C140.312 106.534 139.785 105.625 139.636 104.622C139.487 103.619 139.728 102.596 140.309 101.764C140.891 100.931 141.769 100.35 142.766 100.14Z" fill="#455A64"/>
<path d="M133.974 109.485C135.707 109.116 136.9 107.017 136.675 104.623C136.589 103.476 136.144 102.385 135.402 101.504C135.108 101.105 134.716 100.789 134.263 100.586C133.81 100.382 133.312 100.299 132.818 100.343C132.323 100.387 131.848 100.558 131.439 100.838C131.03 101.119 130.701 101.499 130.483 101.944C129.917 102.947 129.682 104.101 129.811 105.244C130.049 107.774 131.782 109.692 133.674 109.516C133.776 109.52 133.877 109.507 133.974 109.485ZM132.648 101.002C132.724 100.984 132.801 100.972 132.878 100.967C133.274 100.947 133.668 101.022 134.028 101.186C134.388 101.35 134.703 101.598 134.947 101.908C135.602 102.694 135.994 103.663 136.07 104.68C136.277 106.88 135.186 108.772 133.625 108.918C132.065 109.063 130.642 107.395 130.438 105.204C130.323 104.19 130.528 103.166 131.026 102.274C131.192 101.962 131.421 101.688 131.698 101.469C131.976 101.25 132.297 101.091 132.64 101.002H132.648Z" fill="#455A64"/>
<path d="M139.173 104.381L139.526 103.875C138.77 103.356 137.082 102.722 136.065 104.025L136.556 104.403C137.462 103.233 139.102 104.337 139.173 104.381Z" fill="#455A64"/>
<path d="M159.827 103.651L160.349 103.316C160.194 103.074 158.784 100.949 157.387 100.857C156.061 100.773 147.893 102.313 147.544 102.379L147.659 102.982C150.006 102.542 156.34 101.402 157.347 101.473C158.267 101.534 159.451 103.066 159.827 103.651Z" fill="#455A64"/>
<path d="M155.177 103.585C155.177 103.585 157.706 98.6612 159.907 99.4972C162.108 100.333 160.645 107.166 158.369 108.39C158.087 108.566 157.773 108.685 157.445 108.738C157.116 108.791 156.78 108.777 156.457 108.697C156.134 108.617 155.831 108.473 155.566 108.274C155.3 108.074 155.078 107.823 154.912 107.536L155.177 103.585Z" fill="#F7A9A0"/>
<path d="M159.438 101.446C159.478 101.446 159.491 101.49 159.46 101.508C157.869 102.419 157.202 104.095 156.808 105.793C157.224 105.103 157.856 104.671 158.775 105.147C158.785 105.153 158.792 105.162 158.796 105.173C158.8 105.184 158.8 105.196 158.796 105.207C158.793 105.218 158.786 105.227 158.776 105.234C158.767 105.24 158.756 105.244 158.744 105.243C158.435 105.19 158.116 105.234 157.833 105.369C157.549 105.504 157.315 105.723 157.162 105.996C156.909 106.453 156.706 106.935 156.556 107.435C156.499 107.597 156.216 107.553 156.247 107.373C156.249 107.36 156.249 107.347 156.247 107.333C155.911 105.199 157.162 101.979 159.438 101.446Z" fill="#263238"/>
<path d="M96.9571 183.81C98.3917 183.677 99.8174 183.461 101.227 183.163C102.642 182.887 104.04 182.527 105.413 182.085C102.542 182.371 99.7089 182.949 96.9571 183.81Z" fill="#263238"/>
<path d="M84.6607 180.057C84.8331 178.372 84.8729 176.686 84.8817 175.001C84.8941 173.312 84.8204 171.623 84.6607 169.941C84.5011 171.623 84.4273 173.312 84.4397 175.001C84.4486 176.686 84.4883 178.372 84.6607 180.057Z" fill="#263238"/>
<path d="M88.9789 180.127C89.9386 178.854 90.8311 177.532 91.653 176.167C92.492 174.809 93.2577 173.408 93.947 171.969C92.0399 174.534 90.3767 177.269 88.9789 180.14V180.127Z" fill="#263238"/>
<path d="M104.467 172.348C103.486 173.1 102.535 173.888 101.589 174.68C100.643 175.472 99.7197 176.281 98.7959 177.1C97.8721 177.918 96.9616 178.746 96.0688 179.595L94.7428 180.866C94.3008 181.306 93.8588 181.746 93.4168 182.186C93.9074 181.812 94.3848 181.421 94.8666 181.038L96.2898 179.854C97.2357 179.067 98.1595 178.253 99.0832 177.434C100.007 176.616 100.918 175.789 101.81 174.939C102.703 174.09 103.605 173.237 104.467 172.348Z" fill="#263238"/>
<path d="M76.634 183.04C75.2622 182.601 73.8661 182.241 72.4527 181.962C71.0421 181.662 69.6149 181.446 68.1786 181.315C70.9306 182.175 73.7639 182.753 76.634 183.04Z" fill="#263238"/>
<path d="M69.836 171.486C70.6935 172.366 71.604 173.224 72.488 174.068C73.372 174.913 74.3002 175.74 75.2151 176.563C76.1301 177.386 77.0627 178.196 78.013 178.983L79.4318 180.167C79.918 180.55 80.3909 180.941 80.886 181.315C80.444 180.875 80.002 180.435 79.56 179.995L78.234 178.724C77.35 177.874 76.4218 177.052 75.5068 176.229C74.5919 175.406 73.6593 174.596 72.709 173.809C71.7587 173.021 70.8128 172.238 69.836 171.486Z" fill="#263238"/>
<path d="M29.645 179.555L28.3897 179.388L30.4229 130.526L45.0045 110.079L46.0918 110.968L31.5898 131.323L29.645 179.555Z" fill="#263238"/>
<path d="M29.225 130.927C29.225 131.275 29.3287 131.615 29.5229 131.904C29.7172 132.194 29.9933 132.419 30.3164 132.553C30.6395 132.686 30.9949 132.721 31.3379 132.653C31.6809 132.585 31.9959 132.417 32.2431 132.171C32.4904 131.925 32.6588 131.611 32.727 131.27C32.7952 130.928 32.7602 130.575 32.6264 130.253C32.4926 129.931 32.266 129.657 31.9752 129.463C31.6845 129.27 31.3427 129.167 30.993 129.167C30.5241 129.167 30.0744 129.352 29.7428 129.682C29.4112 130.012 29.225 130.46 29.225 130.927Z" fill="#FFC727"/>
<path d="M43.621 110.704C43.621 111.052 43.7247 111.392 43.919 111.682C44.1132 111.971 44.3893 112.197 44.7124 112.33C45.0355 112.463 45.3909 112.498 45.7339 112.43C46.0769 112.362 46.3919 112.195 46.6392 111.949C46.8864 111.702 47.0548 111.389 47.123 111.047C47.1912 110.706 47.1562 110.352 47.0224 110.031C46.8886 109.709 46.662 109.434 46.3712 109.241C46.0805 109.047 45.7387 108.944 45.389 108.944C44.9201 108.944 44.4704 109.13 44.1388 109.46C43.8073 109.79 43.621 110.237 43.621 110.704Z" fill="#FFC727"/>
<path d="M57.5085 111.395L50.6354 121.854L46.0917 117.731L43.3248 115.218L48.4829 107.386L51.904 108.904L57.5085 111.395Z" fill="#FFC727"/>
<path opacity="0.1" d="M57.5085 111.395L50.6355 121.854L46.0917 117.731L51.904 108.905L57.5085 111.395Z" fill="black"/>
<path d="M70.2117 114.118L58.2202 132.352L46.768 121.625L55.7539 107.958L70.2117 114.118Z" fill="#FFC727"/>
<path d="M40.4871 183.815H18.8688L20.1993 177.056H39.1611L40.4871 183.815Z" fill="#FFC727"/>
<path d="M111.013 68.8953C111.27 71.35 112.208 73.6851 113.721 75.6402C115.235 77.5952 117.264 79.0933 119.582 79.9672C121.901 80.8411 124.418 81.0564 126.852 80.5892C129.287 80.122 131.543 78.9906 133.369 77.3213L140.065 78.3201L136.715 72.5561C137.551 70.5283 137.867 68.3251 137.634 66.1453C137.463 64.3963 136.945 62.6985 136.112 61.1495C135.278 59.6004 134.145 58.2309 132.777 57.1197C131.41 56.0084 129.835 55.1775 128.144 54.6747C126.452 54.1719 124.677 54.0072 122.922 54.19C121.166 54.3728 119.464 54.8995 117.914 55.7399C116.363 56.5803 114.995 57.7176 113.888 59.0865C112.782 60.4554 111.958 62.0287 111.464 63.7159C110.971 65.4031 110.817 67.1708 111.013 68.9173V68.8953Z" fill="white"/>
<path d="M111.013 68.8953C111.271 71.3499 112.206 73.6858 113.713 75.6449C114.45 76.6349 115.336 77.5061 116.339 78.2277C118.327 79.7177 120.691 80.6314 123.168 80.8677C123.787 80.9212 124.408 80.9329 125.029 80.9029C125.65 80.8887 126.27 80.824 126.881 80.7093C129.352 80.2614 131.648 79.1352 133.511 77.4577L133.351 77.5061L140.039 78.5269L140.525 78.6017L140.282 78.1617L136.949 72.3889V72.6177C137.735 70.7068 138.07 68.6417 137.926 66.5818C137.783 64.5219 137.166 62.5224 136.123 60.7377C135.081 58.9607 133.648 57.4414 131.933 56.2937C129.799 54.8814 127.305 54.1021 124.744 54.0466C122.182 53.9912 119.657 54.6618 117.463 55.9803C115.27 57.2988 113.498 59.2109 112.354 61.4936C111.21 63.7764 110.742 66.3357 111.004 68.8733L111.013 68.8953ZM111.013 68.8953C110.803 66.89 111.057 64.8636 111.756 62.9714C112.456 61.0792 113.581 59.3715 115.046 57.9795C116.511 56.5874 118.276 55.5479 120.208 54.9406C122.139 54.3334 124.184 54.1746 126.187 54.4765C128.172 54.7708 130.064 55.5144 131.716 56.6501C133.352 57.7924 134.719 59.2759 135.721 60.9973C136.705 62.725 137.285 64.6517 137.418 66.6337C137.542 68.6138 137.22 70.5965 136.476 72.4373L136.428 72.5561L136.49 72.6661L139.862 78.4169L140.101 78.0649L133.4 77.1321H133.307L133.241 77.1937C131.453 78.8607 129.234 79.9975 126.832 80.4761C126.234 80.5999 125.626 80.6735 125.015 80.6961C124.406 80.7401 123.795 80.7401 123.185 80.6961C121.963 80.6009 120.76 80.3373 119.61 79.9129C118.455 79.4957 117.367 78.9116 116.383 78.1793C115.888 77.817 115.415 77.4247 114.969 77.0045C114.535 76.5715 114.129 76.1116 113.753 75.6273C112.232 73.6784 111.284 71.3482 111.013 68.8953Z" fill="#263238"/>
<path d="M116.86 67.9141C116.86 68.2335 116.956 68.5457 117.134 68.8113C117.312 69.0768 117.565 69.2838 117.862 69.406C118.158 69.5282 118.484 69.5602 118.799 69.4979C119.114 69.4356 119.403 69.2818 119.63 69.056C119.856 68.8301 120.011 68.5424 120.074 68.2292C120.136 67.9159 120.104 67.5912 119.981 67.2962C119.858 67.0011 119.651 66.7489 119.384 66.5715C119.117 66.394 118.803 66.2993 118.483 66.2993C118.269 66.2987 118.058 66.3401 117.861 66.4211C117.664 66.502 117.485 66.6209 117.334 66.771C117.184 66.9211 117.064 67.0993 116.983 67.2955C116.901 67.4917 116.86 67.7019 116.86 67.9141Z" fill="#263238"/>
<path d="M122.668 67.9141C122.668 68.2337 122.764 68.5461 122.942 68.8117C123.12 69.0774 123.374 69.2843 123.671 69.4064C123.967 69.5285 124.294 69.5602 124.609 69.4976C124.923 69.4349 125.212 69.2807 125.439 69.0544C125.666 68.8281 125.82 68.54 125.882 68.2265C125.944 67.9129 125.911 67.5881 125.788 67.2931C125.664 66.9981 125.456 66.7462 125.188 66.5693C124.921 66.3924 124.607 66.2985 124.286 66.2993C124.073 66.2993 123.863 66.3411 123.666 66.4223C123.469 66.5035 123.291 66.6226 123.141 66.7726C122.99 66.9226 122.871 67.1006 122.79 67.2965C122.709 67.4924 122.668 67.7023 122.668 67.9141Z" fill="#263238"/>
<path d="M128.472 67.9141C128.472 68.2335 128.567 68.5457 128.745 68.8113C128.923 69.0768 129.177 69.2838 129.473 69.406C129.77 69.5282 130.096 69.5602 130.41 69.4979C130.725 69.4356 131.014 69.2818 131.241 69.056C131.468 68.8301 131.622 68.5424 131.685 68.2292C131.747 67.9159 131.715 67.5912 131.593 67.2962C131.47 67.0011 131.262 66.7489 130.995 66.5715C130.728 66.394 130.415 66.2993 130.094 66.2993C129.881 66.2987 129.67 66.3401 129.472 66.4211C129.275 66.502 129.096 66.6209 128.946 66.771C128.795 66.9211 128.675 67.0993 128.594 67.2955C128.513 67.4917 128.471 67.7019 128.472 67.9141Z" fill="#263238"/>
<path d="M88.5062 86.812H124.547V106.599H88.5062V86.812Z" fill="#455A64"/>
<path d="M95.4543 106.599H88.5061V111.602L95.4543 106.599Z" fill="#455A64"/>
<path d="M103.821 90.4641H120.162V90.9085H103.821V90.4641Z" fill="white"/>
<path d="M92.7183 92.8708H120.162V93.3152H92.7183V92.8708Z" fill="white"/>
<path d="M92.7183 95.2776H120.162V95.722H92.7183V95.2776Z" fill="white"/>
<path d="M97.9781 97.6846H120.162V98.129H97.9781V97.6846Z" fill="white"/>
<path d="M92.7183 100.091H120.162V100.536H92.7183V100.091Z" fill="white"/>
<path d="M110.067 102.498H120.162V102.942H110.067V102.498Z" fill="white"/>
<path d="M76.4485 113.797H112.246V128.476H76.4485V113.797Z" fill="#FFC727"/>
<path d="M76.4483 133.188V128.471H83.6353L76.4483 133.188Z" fill="#FFC727"/>
<path d="M80.7491 117.449H107.892V117.894H80.7491V117.449Z" fill="white"/>
<path d="M92.4047 119.856H107.892V120.3H92.4047V119.856Z" fill="white"/>
<path d="M86.9592 122.263H107.892V122.707H86.9592V122.263Z" fill="white"/>
<path d="M100.599 124.67H107.892V125.114H100.599V124.67Z" fill="white"/>
<path d="M102.106 185.486H105.7V187.823H102.106V185.486Z" fill="#EBEBEB"/>
<path d="M97.4478 185.333H101.041V187.669H97.4478V185.333Z" fill="#EBEBEB"/>
<path d="M92.7847 185.178H96.3782V187.515H92.7847V185.178Z" fill="#EBEBEB"/>
<path d="M88.126 185.024H91.7195V187.361H88.126V185.024Z" fill="#EBEBEB"/>
<path d="M83.4629 184.87H87.0564V187.207H83.4629V184.87Z" fill="#EBEBEB"/>
<path d="M78.8042 184.717H82.3977V187.053H78.8042V184.717Z" fill="#EBEBEB"/>
<path d="M74.1456 184.562H77.739V186.899H74.1456V184.562Z" fill="#EBEBEB"/>
<path d="M69.4825 184.408H73.0759V186.745H69.4825V184.408Z" fill="#EBEBEB"/>
<path d="M64.8238 184.254H68.4172V186.591H64.8238V184.254Z" fill="#EBEBEB"/>
<path d="M63.9443 189.169H106.58V186.323L63.9443 185.139V189.169Z" fill="#DBDBDB"/>
<path d="M32.1467 179.326H91.5515L82.106 135.3H22.7012L32.1467 179.326Z" fill="#EBEBEB"/>
<path d="M29.9499 179.326H89.3547L79.9092 135.3H20.5044L29.9499 179.326Z" fill="#DBDBDB"/>
<path d="M51.163 157.233C49.5512 155.751 49.2761 153.437 50.5484 152.067C51.8208 150.696 54.1588 150.787 55.7706 152.27C57.3824 153.752 57.6575 156.065 56.3852 157.436C55.1128 158.807 52.7748 158.716 51.163 157.233Z" fill="white"/>
<path d="M46.7504 190.824H75.9666V188.562L46.7504 187.625V190.824Z" fill="#EBEBEB"/>
<path d="M38.8078 190.819H54.4944L63.9443 166.148H48.2577L38.8078 190.819Z" fill="#EBEBEB"/>
<path d="M36.2263 190.819H51.9129L61.3584 166.148H45.6718L36.2263 190.819Z" fill="#A6A6A6"/>
<path d="M110.5 191.422H140.605C143.173 191.422 139.455 184.136 130.072 181.342C120.688 178.548 107.521 188.69 110.5 191.422Z" fill="#DBDBDB"/>
<path d="M122.302 191.422C122.277 190.592 122.139 189.769 121.89 188.976C121.646 188.176 121.305 187.409 120.874 186.692C120.445 185.971 119.906 185.319 119.278 184.76C118.657 184.199 117.94 183.752 117.161 183.44C117.484 183.704 117.851 183.88 118.147 184.175L118.589 184.567L119.031 185.007C119.589 185.587 120.079 186.229 120.489 186.921C120.906 187.613 121.264 188.338 121.559 189.09C121.859 189.85 122.107 190.629 122.302 191.422Z" fill="#263238"/>
<path d="M118.73 184.488C117.838 184.774 116.97 185.127 116.131 185.544C115.288 185.958 114.478 186.438 113.709 186.978C112.929 187.514 112.223 188.151 111.61 188.87C111.308 189.239 111.048 189.638 110.832 190.062C110.625 190.488 110.506 190.95 110.483 191.422C110.588 190.975 110.771 190.549 111.022 190.164C111.265 189.779 111.548 189.421 111.866 189.094C112.51 188.445 113.213 187.856 113.965 187.334C114.712 186.798 115.504 186.318 116.295 185.843C116.693 185.605 117.095 185.376 117.506 185.156C117.917 184.936 118.319 184.712 118.73 184.488Z" fill="#263238"/>
<path opacity="0.6" d="M166.369 176.708C166.369 176.708 155.628 171.781 155.628 165.176C155.628 158.572 169.56 154.321 169.56 149.16C169.56 143.999 163.483 140.958 163.483 140.958C163.483 140.958 173.083 144.223 173.083 150.753C173.083 157.283 163.898 161.704 163.018 165.862C161.799 171.631 166.369 176.708 166.369 176.708Z" fill="#DBDBDB"/>
<path opacity="0.6" d="M165.838 176.709C165.838 176.709 176.583 172.837 176.583 167.645C176.583 162.453 162.656 159.109 162.656 155.047C162.656 150.986 168.729 148.601 168.729 148.601C168.729 148.601 159.12 151.167 159.12 156.301C159.12 161.436 169.666 164.965 170.422 169.136C171.169 173.224 165.838 176.709 165.838 176.709Z" fill="#DBDBDB"/>
<path d="M161.149 193.319H171.368V194.907H161.149V193.319Z" fill="#455A64"/>
<path d="M161.149 193.319H171.368V194.366H161.149V193.319Z" fill="#263238"/>
<path d="M183.496 189.046C182.876 189.961 182.004 190.678 180.985 191.113C179.967 191.547 178.843 191.681 177.75 191.497C177.397 191.432 177.05 191.333 176.716 191.202C176.208 191.004 175.723 190.75 175.271 190.445L176.57 188.527C176.81 188.699 177.066 188.846 177.335 188.967C179.77 190.067 181.313 188.153 181.613 187.717C182.988 185.755 183.505 181.28 182.104 179.555C182.011 179.428 181.6 179.225 179.956 179.577C179.651 179.643 179.306 179.718 178.917 179.828C178.615 179.93 178.302 179.997 177.985 180.026L177.94 178.878L177.83 177.729C177.936 177.729 178.1 177.663 178.316 177.602C179.077 177.38 179.854 177.219 180.641 177.122C181.852 176.994 183.121 177.122 183.899 178.094C186.188 180.906 185.251 186.591 183.496 189.046Z" fill="#455A64"/>
<path d="M176.561 188.527C176.801 188.699 177.057 188.846 177.326 188.967L176.707 191.206C176.199 191.008 175.714 190.755 175.262 190.45L176.561 188.527Z" fill="#263238"/>
<path d="M180.623 177.122L179.938 179.577C179.633 179.643 179.288 179.718 178.899 179.828C178.597 179.93 178.284 179.997 177.967 180.026L177.923 178.878L177.812 177.729C177.918 177.729 178.082 177.663 178.298 177.602C179.059 177.38 179.837 177.219 180.623 177.122Z" fill="#263238"/>
<path d="M152.662 174.121C152.662 174.121 153.891 184.488 156.008 188.857C158.126 193.226 161.078 193.697 162.917 193.697H169.6C171.434 193.697 174.391 193.209 176.508 188.857C178.626 184.505 179.85 174.121 179.85 174.121H152.662Z" fill="#455A64"/>
<path d="M175.412 177.083C175.412 177.32 175.483 177.552 175.615 177.75C175.748 177.948 175.937 178.101 176.157 178.192C176.377 178.283 176.62 178.307 176.854 178.261C177.088 178.214 177.303 178.1 177.472 177.932C177.641 177.764 177.756 177.55 177.802 177.317C177.849 177.084 177.825 176.842 177.734 176.623C177.642 176.403 177.488 176.216 177.289 176.084C177.091 175.952 176.857 175.881 176.619 175.881C176.46 175.881 176.303 175.912 176.157 175.973C176.011 176.033 175.878 176.122 175.766 176.233C175.653 176.345 175.565 176.477 175.504 176.623C175.443 176.769 175.412 176.925 175.412 177.083ZM165.967 175.631C166.205 175.631 166.439 175.701 166.637 175.833C166.835 175.965 166.99 176.153 167.081 176.372C167.173 176.592 167.197 176.833 167.15 177.066C167.103 177.299 166.989 177.513 166.82 177.681C166.651 177.849 166.436 177.964 166.202 178.01C165.968 178.056 165.725 178.032 165.505 177.942C165.284 177.851 165.096 177.697 164.963 177.499C164.831 177.302 164.76 177.069 164.76 176.832C164.76 176.513 164.887 176.208 165.113 175.982C165.34 175.757 165.647 175.631 165.967 175.631ZM165.967 190.718C166.205 190.718 166.439 190.789 166.637 190.921C166.835 191.053 166.99 191.24 167.081 191.46C167.173 191.679 167.197 191.921 167.15 192.154C167.103 192.387 166.989 192.601 166.82 192.769C166.651 192.937 166.436 193.051 166.202 193.098C165.968 193.144 165.725 193.12 165.505 193.029C165.284 192.938 165.096 192.784 164.963 192.587C164.831 192.389 164.76 192.157 164.76 191.919C164.76 191.601 164.887 191.295 165.113 191.07C165.34 190.845 165.647 190.718 165.967 190.718ZM157.215 183.92C157.454 183.92 157.687 183.991 157.885 184.123C158.084 184.255 158.238 184.442 158.33 184.662C158.421 184.881 158.445 185.123 158.398 185.356C158.352 185.589 158.237 185.803 158.068 185.971C157.899 186.139 157.684 186.253 157.45 186.3C157.216 186.346 156.974 186.322 156.753 186.231C156.533 186.14 156.344 185.986 156.212 185.789C156.079 185.591 156.008 185.359 156.008 185.121C156.008 184.803 156.135 184.497 156.362 184.272C156.588 184.047 156.895 183.92 157.215 183.92ZM170.612 187.462C170.851 187.462 171.084 187.533 171.282 187.665C171.481 187.797 171.635 187.984 171.727 188.204C171.818 188.423 171.842 188.665 171.795 188.898C171.749 189.131 171.634 189.345 171.465 189.513C171.296 189.681 171.081 189.795 170.847 189.842C170.613 189.888 170.371 189.864 170.15 189.773C169.93 189.682 169.741 189.528 169.609 189.331C169.476 189.133 169.405 188.901 169.405 188.663C169.405 188.345 169.532 188.039 169.759 187.814C169.985 187.589 170.292 187.462 170.612 187.462ZM156.468 175.631C156.707 175.631 156.94 175.701 157.138 175.833C157.337 175.965 157.491 176.153 157.583 176.372C157.674 176.592 157.698 176.833 157.651 177.066C157.605 177.299 157.49 177.513 157.321 177.681C157.152 177.849 156.937 177.964 156.703 178.01C156.469 178.056 156.227 178.032 156.006 177.942C155.786 177.851 155.597 177.697 155.465 177.499C155.332 177.302 155.261 177.069 155.261 176.832C155.261 176.513 155.388 176.208 155.615 175.982C155.841 175.757 156.148 175.631 156.468 175.631ZM166.126 183.727C166.364 183.727 166.598 183.797 166.796 183.929C166.995 184.061 167.149 184.249 167.241 184.468C167.332 184.688 167.356 184.929 167.309 185.162C167.263 185.395 167.148 185.609 166.979 185.777C166.81 185.945 166.595 186.06 166.361 186.106C166.127 186.152 165.884 186.128 165.664 186.038C165.443 185.947 165.255 185.793 165.122 185.595C164.99 185.398 164.919 185.165 164.919 184.928C164.919 184.612 165.044 184.308 165.268 184.083C165.491 183.858 165.795 183.73 166.112 183.727H166.126ZM175.275 183.916C175.514 183.916 175.747 183.986 175.945 184.118C176.144 184.25 176.299 184.438 176.39 184.657C176.481 184.877 176.505 185.118 176.459 185.351C176.412 185.584 176.297 185.798 176.128 185.966C175.96 186.134 175.745 186.249 175.511 186.295C175.276 186.341 175.034 186.318 174.813 186.227C174.593 186.136 174.404 185.982 174.272 185.784C174.139 185.587 174.068 185.355 174.068 185.117C174.07 184.801 174.195 184.499 174.419 184.275C174.642 184.051 174.945 183.924 175.262 183.92L175.275 183.916ZM161.162 179.894C161.401 179.894 161.634 179.965 161.832 180.097C162.031 180.229 162.186 180.416 162.277 180.636C162.368 180.855 162.392 181.097 162.346 181.33C162.299 181.563 162.184 181.777 162.015 181.945C161.847 182.113 161.632 182.227 161.397 182.274C161.163 182.32 160.921 182.296 160.7 182.205C160.48 182.114 160.291 181.96 160.159 181.763C160.026 181.565 159.955 181.333 159.955 181.095C159.955 180.779 160.081 180.476 160.304 180.251C160.528 180.026 160.831 179.898 161.149 179.894H161.162ZM161.489 187.66C161.728 187.659 161.962 187.729 162.161 187.861C162.36 187.992 162.515 188.179 162.607 188.399C162.699 188.618 162.724 188.86 162.678 189.093C162.631 189.326 162.517 189.541 162.348 189.709C162.18 189.878 161.965 189.993 161.731 190.039C161.496 190.086 161.254 190.062 161.033 189.972C160.812 189.881 160.623 189.727 160.491 189.529C160.358 189.332 160.287 189.099 160.287 188.861C160.287 188.546 160.412 188.243 160.634 188.018C160.857 187.793 161.159 187.665 161.476 187.66H161.489ZM171.213 179.894C171.452 179.893 171.686 179.963 171.885 180.095C172.084 180.226 172.239 180.413 172.331 180.633C172.423 180.852 172.448 181.094 172.402 181.327C172.355 181.56 172.241 181.775 172.072 181.943C171.904 182.112 171.689 182.226 171.455 182.273C171.22 182.32 170.978 182.296 170.757 182.206C170.536 182.115 170.347 181.961 170.215 181.763C170.082 181.566 170.011 181.333 170.011 181.095C170.011 180.781 170.135 180.478 170.356 180.254C170.578 180.029 170.879 179.9 171.195 179.894H171.213Z" fill="#37474F"/>
</g>
</svg>
